<svg xmlns="http://www.w3.org/2000/svg" viewBox="0 0 200 200"><defs><style>.cls-1{fill:#336791;}.cls-2{fill:none;}</style></defs><title>Zasób 20</title><g id="Warstwa_2" data-name="Warstwa 2"><g id="Warstwa_1-2" data-name="Warstwa 1"><path fill="#336791" d="M160.61,113.18a6.07,6.07,0,0,0-5.9-5.09,18.69,18.69,0,0,0-3.19.2c-1.27.16-2.53.45-3.81.64-.88.13-1.77.19-2.65.28l0-.11c1.64-3.1,3.35-6.16,4.9-9.3,1.19-2.41,2.21-4.9,3.26-7.38a95.59,95.59,0,0,0,4.28-12.63,66.26,66.26,0,0,0,2.34-12.54c.12-1.7.2-3.42.19-5.12,0-1.36-.15-2.72-.29-4.08a14,14,0,0,0-1.27-4.45,18,18,0,0,0-3.59-4.86c-1.12-1.17-2.35-2.23-3.57-3.29a29.9,29.9,0,0,0-5.73-3.8,33,33,0,0,0-7.27-2.82c-1.53-.39-3.1-.68-4.65-1A8.84,8.84,0,0,0,132,37.5h-10.5a10.87,10.87,0,0,0-1.14.24,39.94,39.94,0,0,0-7.41,1.5,6.28,6.28,0,0,1-2.58,0c-.66-.06-1.3-.24-2-.27-2.5-.13-5-.31-7.52-.28a27,27,0,0,0-7.1,1.08A23.74,23.74,0,0,0,88.16,42a2.38,2.38,0,0,1-2.11.13c-2.59-.75-5.2-1.45-7.84-2a43.78,43.78,0,0,0-5-.73c-1.61-.17-3.22-.27-4.84-.3a43.17,43.17,0,0,0-4.74.11,30.93,30.93,0,0,0-7.34,1.55,24.42,24.42,0,0,0-7.27,4,22.43,22.43,0,0,0-5.44,6.36,28.49,28.49,0,0,0-3.19,8.27c-.35,1.58-.57,3.2-.81,4.8-.07.5.75,1-.27,1.49v7c1,.46.21.93.27,1.39.14,1.12.27,2.24.46,3.35.3,1.75.65,3.5,1,5.25q.76,3.65,1.59,7.29c.41,1.76.87,3.52,1.35,5.26.74,2.66,1.47,5.33,2.3,8,.78,2.45,1.67,4.86,2.55,7.28a64.6,64.6,0,0,0,4.44,9.67,27.68,27.68,0,0,0,5.58,7.26,12.73,12.73,0,0,0,5.22,2.93,10.3,10.3,0,0,0,4.74.13A11.26,11.26,0,0,0,73.77,128c.17-.14.35-.24.55,0a8.38,8.38,0,0,0,2.82,2.14,22,22,0,0,0,9.1,2.11c.76,0,1.53-.07,2.3-.09a17.49,17.49,0,0,0,4.39-.75c.75-.22,1.48-.49,2.25-.75,0,.81.09,1.6.11,2.38l.11,4.27c0,.65,0,1.3.11,1.95.15,1.67.31,3.34.51,5a29.9,29.9,0,0,0,.55,3.42,39.16,39.16,0,0,0,2.21,6.59,14.17,14.17,0,0,0,4,5.32,12.92,12.92,0,0,0,7.83,2.83,15.65,15.65,0,0,0,3.59-.21,50.27,50.27,0,0,0,5.53-1.31,17.69,17.69,0,0,0,9.25-6.13,20.18,20.18,0,0,0,3.18-5.79c.59-1.74,1.14-3.51,1.58-5.29.35-1.41.52-2.86.73-4.3.14-1,.22-1.91.31-2.87.14-1.56.29-3.11.39-4.67.07-1.09.07-2.18.11-3.26,0-.33.07-.66.1-1s.18-.41.49-.41c1.1,0,2.2,0,3.29,0a30.5,30.5,0,0,0,3.68-.31c1.72-.29,3.43-.65,5.12-1.09a21.26,21.26,0,0,0,5.58-2.52,20.42,20.42,0,0,0,5.43-4.56,7,7,0,0,0,1.62-5.58Zm-3.5,1a4,4,0,0,1-1.12,2.43,20.42,20.42,0,0,1-10.86,6.18,37.45,37.45,0,0,1-4.9.71,32.92,32.92,0,0,1-4.22.1,30.23,30.23,0,0,1-3.11-.43c-.11,1-.21,2-.33,3l-.49,3.84c-.15,1.22-.26,2.44-.42,3.66s-.34,2.36-.49,3.54-.25,2.2-.42,3.3c-.25,1.68-.49,3.37-.82,5a19.76,19.76,0,0,1-2,5.73,13,13,0,0,1-5.08,5.11,25.3,25.3,0,0,1-7.16,2.5,17.29,17.29,0,0,1-5.34.3,11,11,0,0,1-7.7-4A16,16,0,0,1,99,147.32c-.22-1.41-.38-2.82-.5-4.24-.14-1.58-.23-3.16-.31-4.74q-.14-3-.2-6c-.05-2.47-.07-4.94-.11-7.4v-.09c-1.26.75-2.49,1.58-3.8,2.26a12.71,12.71,0,0,1-4.92,1.39,26.29,26.29,0,0,1-4.07.09,15.59,15.59,0,0,1-6.39-1.61,7.11,7.11,0,0,1-2.19-1.68c-1.32-1.69-.69-3.82,1.31-4.85a18.34,18.34,0,0,1,4.38-1.35c1.3-.3,2.59-.64,3.86-1.06a6.27,6.27,0,0,0,2.82-2.42L90.15,114l-1.49-.15a13.56,13.56,0,0,1-4.23-1.14c-1.15-.51-1.17-.57-2,.35-1.41,1.53-2.78,3.1-4.17,4.66l-3,3.45c-1,1.14-1.94,2.34-3,3.4a7.45,7.45,0,0,1-9.9,1,20.92,20.92,0,0,1-5.75-6.78,58.9,58.9,0,0,1-4.79-10.42c-.9-2.49-1.8-5-2.59-7.52-.85-2.75-1.6-5.53-2.34-8.32-.56-2.1-1-4.22-1.52-6.34-.53-2.41-1-4.83-1.5-7.26-.31-1.64-.48-3.3-.73-5a33.14,33.14,0,0,1-.27-6.71c.11-2,.4-4,.68-6a23.88,23.88,0,0,1,2.62-7.84,20.68,20.68,0,0,1,3-4.16,19.69,19.69,0,0,1,6.73-4.74,25.6,25.6,0,0,1,5.58-1.65A40.28,40.28,0,0,1,70,42.33c1.26,0,2.51.25,3.76.38a49.72,49.72,0,0,1,8,1.54c1.9.51,3.77,1.17,5.66,1.75a.84.84,0,0,0,.62,0,23.44,23.44,0,0,1,11.78-3.82A35,35,0,0,1,104,42c1.68.1,3.36.34,5,.57.81.11,1.61.39,2.42.47.39,0,.8-.25,1.22-.34,2.1-.49,4.19-1,6.31-1.41a39.89,39.89,0,0,1,4.8-.51,51.22,51.22,0,0,1,5.38-.09,37.6,37.6,0,0,1,6.72.95,34,34,0,0,1,7.88,2.86A26.89,26.89,0,0,1,149,48a39.86,39.86,0,0,1,3.07,2.79,15.69,15.69,0,0,1,3.1,4.06,11.09,11.09,0,0,1,1.05,3.74c.14,1.63.3,3.26.28,4.89s-.23,3.11-.38,4.67a62.29,62.29,0,0,1-2,10.43c-.77,2.82-1.68,5.62-2.66,8.38-.9,2.54-1.94,5-3,7.53-.78,1.84-1.61,3.66-2.52,5.44a107.35,107.35,0,0,1-5.58,9.88c-.36.55-.7,1.11-1,1.67a6.33,6.33,0,0,0,3,.93,16.3,16.3,0,0,0,3,.1c1.57-.12,3.13-.34,4.68-.56a21.83,21.83,0,0,1,4.64-.54,2.65,2.65,0,0,1,2.61,2.8Zm-22.58-3.44c-.67-.87-1.36-1.73-2-2.6a26.38,26.38,0,0,1-2.52-4.46c-.71-1.47-1.57-2.85-2.31-4.3-1.3-2.53-2.62-5-3.81-7.63a32.08,32.08,0,0,1-3.06-10.18,14.86,14.86,0,0,1,.11-4.54,8.15,8.15,0,0,1,3.85-5.57,13.27,13.27,0,0,1,6.37-1.7c1.39-.07,2.78,0,4.22,0l0-.24c-.89-1.87-1.73-3.77-2.71-5.6a38.06,38.06,0,0,0-9.88-11.44,33.42,33.42,0,0,0-5.4-3.38,31.74,31.74,0,0,0-7.15-2.54,35.15,35.15,0,0,0-7.26-.88,26.14,26.14,0,0,0-6.22.54,19.62,19.62,0,0,0-8.35,4,21.69,21.69,0,0,0-3.61,3.87,29.33,29.33,0,0,0-3.06,5.41,37.74,37.74,0,0,0-2.5,8.14c-.27,1.4-.49,2.8-.7,4.21-.08.49-.08,1-.13,1.56l.93-.48.91-.41a21.47,21.47,0,0,1,9.67-2.2,9.92,9.92,0,0,1,4.13,1,8.46,8.46,0,0,1,4.56,5.93c.43,1.81.73,3.66,1,5.51a32,32,0,0,1,.49,4.35c0,2.12-.07,4.25-.19,6.38a17.83,17.83,0,0,1-1.11,5.28c-1.15,3.07-2.43,6.09-3.62,9.14-.39,1-.7,2.05-1.07,3.16h1.51a2.55,2.55,0,0,1,.55.05,6.78,6.78,0,0,1,3.54,2,7.26,7.26,0,0,1,2,4.95c0,1.05-.09,2.11-.09,3.16q0,7.36.1,14.73c0,.8,0,1.61.1,2.41.12,1.68.24,3.36.41,5,.11,1.19.27,2.37.46,3.55a12.75,12.75,0,0,0,1.89,4.58,8.21,8.21,0,0,0,3,3,9.76,9.76,0,0,0,6.83.87,38.52,38.52,0,0,0,4.68-1.29,10.39,10.39,0,0,0,4-2.41,9.83,9.83,0,0,0,2.36-3.73,41.48,41.48,0,0,0,1.73-8.45c.15-1.07.29-2.14.43-3.21s.32-2.43.48-3.65c.11-.91.22-1.81.33-2.72.16-1.3.33-2.6.48-3.9.12-1,.21-2,.32-3,.13-1.29.27-2.58.39-3.87.09-1,.05-2,.23-2.94a6,6,0,0,1,2.71-4.23,21,21,0,0,1,2.12-1l-.12-.19Zm-59.08-7.23a18,18,0,0,1-1.39-5.77,32.5,32.5,0,0,1,.28-5.6c.19-1.81.34-3.62.4-5.43.09-3-.11-6-.25-8.94a39.26,39.26,0,0,1,.28-5.35,48,48,0,0,1,.62-4.78,46.78,46.78,0,0,1,2.14-7.79A30.66,30.66,0,0,1,81,53c1-1.44,2.16-2.79,3.26-4.2l-.33-.12a55,55,0,0,0-11-2.42c-1.77-.18-3.55-.29-5.33-.4a10.71,10.71,0,0,0-1.65.09c-1.36.13-2.73.18-4.06.43a20.05,20.05,0,0,0-6.47,2.34,16,16,0,0,0-4.61,4.08,18.9,18.9,0,0,0-3,6.06,30.6,30.6,0,0,0-1.29,7.93,33.67,33.67,0,0,0,.27,7.07c.3,1.75.5,3.51.84,5.25.45,2.37.94,4.74,1.5,7.08.81,3.36,1.61,6.72,2.56,10s1.94,6.33,3.06,9.44c.91,2.54,2,5,3.08,7.49a42.4,42.4,0,0,0,2.52,4.64,15.2,15.2,0,0,0,3.6,4.26c1.9,1.46,3.38,1.69,5.31.09a21.79,21.79,0,0,0,2.25-2.34c1.15-1.28,2.25-2.6,3.39-3.89,1.45-1.64,2.92-3.26,4.38-4.89.31-.34.61-.7.91-1l-.5-.44A18.15,18.15,0,0,1,75.45,103.51Zm55.07-48.79c1.19,1.39,2.33,2.82,3.39,4.31a38.86,38.86,0,0,1,4.9,9.32,9.77,9.77,0,0,1,.77,4.55c-.13,1.12-.12,2.26-.22,3.4-.08.94-.23,1.88-.35,2.81-.18,1.41-.45,2.82-.53,4.24a34.58,34.58,0,0,0,.09,4.07c.09,1.38.27,2.74.4,4.12.14,1.56.33,3.11.38,4.67a33.57,33.57,0,0,1-.19,3.85,15.32,15.32,0,0,1-1.11,4.46c-.41,1-.9,2-1.36,3l.19.2.28.22.28-.51a96,96,0,0,0,6.38-11.79c1.19-2.63,2.3-5.29,3.37-8a89,89,0,0,0,4-12.82c.46-2,.81-4,1.12-5.95a37.81,37.81,0,0,0,.49-4.7,41.5,41.5,0,0,0-.2-5,6.69,6.69,0,0,0-1.21-3.54,22.35,22.35,0,0,0-4.31-4.46,47.48,47.48,0,0,0-4.34-3,27.84,27.84,0,0,0-7.73-3A38.91,38.91,0,0,0,127,44.3a41.91,41.91,0,0,0-4.79.29c-1.44.14-2.88.37-4.33.56,1.56.88,3.1,1.66,4.55,2.58a35.74,35.74,0,0,1,8.13,7ZM90.9,108.8a96.19,96.19,0,0,1,3.63-9.19,23.72,23.72,0,0,0,1.82-7.7,32.53,32.53,0,0,0,0-3.95c-.07-1.46-.19-2.92-.4-4.37-.27-1.85-.58-3.7-1-5.51a4.83,4.83,0,0,0-3.72-3.83,9.35,9.35,0,0,0-3.75-.1,22.29,22.29,0,0,0-8.52,3.28,1.2,1.2,0,0,0-.73,1.36,39.34,39.34,0,0,1,.23,4.86c0,2.29-.11,4.59-.19,6.88,0,.75-.14,1.49-.22,2.23a30.35,30.35,0,0,0-.35,3.41,14.91,14.91,0,0,0,.41,3.5A14,14,0,0,0,84,108.3a12.5,12.5,0,0,0,6.4,2C90.6,109.81,90.75,109.3,90.9,108.8ZM87.22,77.94A1.25,1.25,0,0,1,88,76a3.12,3.12,0,0,1,.71-.19c.33,0,.67,0,1,0a5.32,5.32,0,0,1,3.38.95,1.29,1.29,0,0,1,.4,1.82,3.19,3.19,0,0,1-2.59,1.53A3.51,3.51,0,0,1,87.22,77.94Zm48.25-.32c.14-1.15.25-2.31.39-3.46.06-.46-.19-.59-.58-.6-1.22,0-2.45-.08-3.67-.1a10,10,0,0,0-4,.72,4.63,4.63,0,0,0-2.93,3.06,9.27,9.27,0,0,0-.3,3.5A20.63,20.63,0,0,0,125.62,86c.86,2.28,1.75,4.56,2.82,6.74,1.45,3,3.09,5.82,4.63,8.73.41.78.76,1.59,1.19,2.49a14.14,14.14,0,0,0,1.39-5.77c0-1.65-.09-3.31-.19-5-.06-1-.2-2-.3-3-.14-1.41-.35-2.81-.38-4.22a40,40,0,0,1,.19-4.3c.12-1.37.34-2.73.51-4.1Zm-2.76-1.11A3.26,3.26,0,0,1,130,78.68a3.06,3.06,0,0,1-3-1.18,1.2,1.2,0,0,1,.48-1.91,7.32,7.32,0,0,1,3.18-.73,12.33,12.33,0,0,1,1.3.25A1,1,0,0,1,132.71,76.51ZM96.38,115.14a1.62,1.62,0,0,0-2.2,0A26.72,26.72,0,0,0,92,117.61a14.92,14.92,0,0,1-2.6,2.75,13.81,13.81,0,0,1-5,2c-1.41.34-2.82.66-4.24,1l0,.18a11.14,11.14,0,0,0,1.26.57,17,17,0,0,0,6.62.83,12.42,12.42,0,0,0,9.64-5.48,2.19,2.19,0,0,0,.35-1.12A3.69,3.69,0,0,0,96.38,115.14Zm53.08.54c-1.73.19-3.47.38-5.21.48a18.61,18.61,0,0,1-2.54-.18,8.7,8.7,0,0,1-4-1.19,2.12,2.12,0,0,0-2-.24,2.84,2.84,0,0,0-2.17,2,18,18,0,0,0-.31,2.36.54.54,0,0,0,.29.43,15.15,15.15,0,0,0,2.46.54,22.19,22.19,0,0,0,3.09,0,28.55,28.55,0,0,0,3.32-.31,18.5,18.5,0,0,0,7.29-2.6l2.38-1.6-.07-.11C151.16,115.44,150.31,115.59,149.46,115.68Z"/><rect class="cls-2" width="200" height="200"/></g></g></svg>
