<svg xmlns="http://www.w3.org/2000/svg" viewBox="0 0 200 200"><defs><style>.cls-3{fill:none;}.cls-2{fill:#f0db4f;}</style></defs><title>js</title><g id="Warstwa_2" data-name="Warstwa 2"><g id="Warstwa_1-2" data-name="Warstwa 1"><rect class="cls-3" width="200" height="200"/><path fill="#f0db4f" d="M37.5,37.5v125h125V37.5ZM103.62,144a14.78,14.78,0,0,1-9.45,7.4c-6.27,1.44-12.27.62-16.73-2.06a18.82,18.82,0,0,1-6.9-7.9l9.52-5.83a6,6,0,0,1,.67,1.07c1.21,2,2.26,3.47,4.32,4.49,2,.69,6.46,1.13,8.17-2.43,1-1.81.71-7.63.71-14.07,0-10.11,0-20.19,0-30.19h11.71c0,11,.06,21.42,0,32.15C105.71,133.23,106.29,139.1,103.62,144Zm48.57-3.31c-4.07,13.92-26.76,14.37-35.83,5.18-1.92-2.17-3.12-3.3-4.26-5.79l9.51-5.49c2.55,3.92,4.9,6.07,9.14,6.95,5.75.7,11.53-1.27,10.23-7.38-1.33-5-11.77-6.2-18.87-11.53-7.21-4.84-8.9-16.61-3-23.33A16.73,16.73,0,0,1,128,94.07l3.69-.48c7.08-.14,11.51,1.73,14.76,5.35a23.37,23.37,0,0,1,3,4c-3.77,2.4-3.76,2.38-9.16,5.88a8.72,8.72,0,0,0-5.09-4.72c-3.14-1-7.1.08-7.93,3.4a6.46,6.46,0,0,0,.23,3.67c1.27,2.9,5.54,4.17,9.38,5.93,11,4.47,14.76,9.27,15.67,15A17.17,17.17,0,0,1,152.19,140.71Z"/></g></g></svg>
