<svg xmlns="http://www.w3.org/2000/svg" viewBox="0 0 516.9 181.85"><defs><style>.cls-1{fill:#ffdf0d;}.cls-2{fill:none;stroke:#1d1d1b;stroke-width:3px;stroke-miterlimit:10;}</style></defs><title>404a</title><g id="Warstwa_2" data-name="Warstwa 2"><g id="Warstwa_1-2" data-name="Warstwa 1"><g id="Warstwa_1-2-2" data-name="Warstwa 1-2"><path class="cls-1" d="M334,181.85H182.88V21.1H334ZM214.6,148.09h87.66V54.85H214.62Z"/><polygon class="cls-1" points="151.14 114.34 31.74 114.34 31.74 21.1 0 21.1 0 148.1 151.14 148.1 151.14 114.34"/><rect class="cls-1" x="87.66" y="82.6" width="31.74" height="99.25"/><polygon class="cls-1" points="516.9 114.34 397.5 114.34 397.5 21.1 365.76 21.1 365.76 148.1 516.9 148.1 516.9 114.34"/><rect class="cls-1" x="453.42" y="82.6" width="31.74" height="99.25"/><path class="cls-2" d="M195.72,32.17a806,806,0,0,0,84.22,90.3c14.51,13.34,29.55,26.21,42.4,41.16"/><path class="cls-2" d="M325.34,32.94,317,41.1,281.32,76.27c-30.32,29.84-60.65,59.69-92.43,88"/><path class="cls-2" d="M54.17,96.22q-8.08,2.59-16.1,5.36"/><path class="cls-2" d="M65.68,125.11c-.76-6.48-.76-6.48-3.51-31.81a40.66,40.66,0,0,0-1.34-7.89A18.53,18.53,0,0,0,46.3,72.87a17.63,17.63,0,0,0-17.31,8c-3.7,6.13-3.1,14.05-.44,20.7s7.11,12.38,11.08,18.33"/><rect class="cls-1" x="223.31" y="21.13" width="71" height="33.5"/><path class="cls-2" d="M38.21,86.87a15.33,15.33,0,0,1-.3,5.5"/><path class="cls-2" d="M33.8,89.52a31.7,31.7,0,0,1,8,1.72"/><path class="cls-2" d="M44.86,84.15Q48,85.88,51,87.69"/><path class="cls-2" d="M50.32,82.39l-4.2,6.32"/><path class="cls-2" d="M390.61,104c1.79-6.78,6.62-12.31,11.57-17.28S412.73,76.8,419.58,75s15.25.5,18.36,6.85c2.06,4.21,1.47,9.21.37,13.77a30.91,30.91,0,0,1-2.76,7.73c-2.22,4-5.77,7.17-9.25,10.2"/><path class="cls-2" d="M412.69,86.47a43.45,43.45,0,0,1,2.48,7.34"/><path class="cls-2" d="M419.11,88.57,410.46,92"/><path class="cls-2" d="M423.28,91.84a26.88,26.88,0,0,0,3.33,8.66"/><path class="cls-2" d="M428.73,94.47l-8.31,2.75"/><path class="cls-2" d="M403.79,103.56c1.18-.91,2.84-1.85,4-1a3,3,0,0,1,1,1.71,3.75,3.75,0,0,1,0,2.53,2.63,2.63,0,0,1-3.37,1.13,3.53,3.53,0,0,1-1.93-3.2"/><rect class="cls-1" x="365.76" y="76.13" width="31.74" height="35.5"/><rect class="cls-1" x="403" y="114.34" width="38.33" height="14.03"/><path class="cls-2" d="M389.8,24c-1.84,1.8-4.87,1.41-6.68-.21a6.8,6.8,0,0,1-1.85-6.2,11.39,11.39,0,0,1,3.47-6,23.24,23.24,0,0,1,9.69-5.3c3.79-1.13,8-1.59,11.62,0a12.82,12.82,0,0,1,6.21,6.36,18.81,18.81,0,0,1,1.56,8.81c-.17,3.44-1.19,7-3.76,9.33-1.56,1.4-3.56,2.2-5.28,3.4s-3.23,3.1-3,5.18A10.13,10.13,0,0,0,403,42.67a4.45,4.45,0,0,1,.51,3.37,4.27,4.27,0,0,1-2,2,12.34,12.34,0,0,1-3.83,1.5,4.55,4.55,0,0,1-3.66-.47,4.92,4.92,0,0,1-1.51-3.74,21.31,21.31,0,0,1,5.93-15.86c1.93-2,4.66-3.11,6-5.69a3.87,3.87,0,0,0,.5-1.93A3.34,3.34,0,0,0,403,19.12a5.61,5.61,0,0,0-3.43-.34,9.48,9.48,0,0,0-5.77,3.86"/><path class="cls-2" d="M395.88,56.67c1.26-1.33,3.31-1.42,5.14-1.42a4.68,4.68,0,0,1,3.26.83,4,4,0,0,1,1,2.19,15.1,15.1,0,0,1,.3,3.94,3.12,3.12,0,0,1-2.79,3.21,8,8,0,0,1-3.51.41,5.82,5.82,0,0,1-4.83-4.92"/><path class="cls-2" d="M445.16,3.61A4.16,4.16,0,0,1,451,.92a5.42,5.42,0,0,1,2.3,5.31,15.94,15.94,0,0,1-2.15,5.69c-4.69,8.8-9.41,17.63-15.33,25.65"/><path class="cls-2" d="M443.94,2.95c-6.41,9.31-8.59,20.83-13.26,31.13"/><path class="cls-2" d="M422.23,44.47a3.75,3.75,0,0,1,3.66-2.32,11,11,0,0,1,4.41,1.32,7.45,7.45,0,0,1,2.1,1.24,4.64,4.64,0,0,1,.79,5.19,8.06,8.06,0,0,1-4,3.74,7.11,7.11,0,0,1-5.31.61,3.8,3.8,0,0,1-2.6-4.25"/><path class="cls-2" d="M94.87,9.47c2.29-4.38,8-6.34,12.75-5.18s8.68,4.94,10.93,9.34c1.41,2.75,2.28,5.94,1.56,8.94-.83,3.4-3.52,6-6.1,8.36a31,31,0,0,1-5.63,4.42c-4.44,2.5-10.54,3.25-12.69,7.87-1.31,2.81-1.11,6.91-4,8a6.45,6.45,0,0,1-3.85-.2,3.8,3.8,0,0,1-2.61-1.55,3.79,3.79,0,0,1,0-2.65c1.24-4.84,2.69-10,6.57-13.16a24.25,24.25,0,0,1,7-3.46,21.4,21.4,0,0,0,6.87-3.6c1.95-1.72,3.29-4.37,2.75-6.91s-3.41-4.56-5.83-3.6c-.87.34-1.58,1-2.46,1.32-2.83,1-5.42-1.86-7.06-4.37"/><path class="cls-2" d="M81.49,59.47a6.74,6.74,0,0,1,7.44,1.63,6.63,6.63,0,0,1,1.07,7,6.45,6.45,0,0,1-6.19,3.6c-2.51-.21-4.63-1.89-6.55-3.53a6.21,6.21,0,0,1-2.15-2.75c-.65-2.22,1.23-4.33,3.05-5.77"/><path class="cls-2" d="M51.32,149.47c11.32,16.32,28.37,21.6,47.68,22.34,6.78.26,13.85-.44,19.68-3.9"/><path class="cls-2" d="M73.81,146.47c0,1,3,5,3.9,5.56a58.47,58.47,0,0,0,20.75,8.63,29.44,29.44,0,0,0,10.48.21c2.8-.48,7.34-1.56,9.12-4"/><path class="cls-2" d="M118.82,150.11a7.53,7.53,0,0,1,8,5.78c.68,3.39-1.18,6.89-3.83,9.12s-6,3.43-9.25,4.59"/><rect class="cls-1" x="30.31" y="114.34" width="60.75" height="33.76"/></g></g></g></svg>
