<svg xmlns="http://www.w3.org/2000/svg" viewBox="0 0 362.12 351.66"><defs><style>.cls-1,.cls-3{fill:none;}.cls-1,.cls-2{stroke:#000;}.cls-1,.cls-2,.cls-3{stroke-miterlimit:10;stroke-width:6.32px;}.cls-2{fill:#fff;}.cls-3{stroke:#ffde07;}</style></defs><title>code_audyt</title><g id="Warstwa_2" data-name="Warstwa 2"><g id="Layer_1" data-name="Layer 1"><polyline class="cls-1" points="21.8 120.25 9.17 133.19 2.23 126.25"/><polyline class="cls-1" points="359.86 184.39 347.23 197.34 340.29 190.4"/><polyline class="cls-1" points="327.8 7 315.17 19.95 308.23 13.01"/><line class="cls-2" x1="343.1" y1="82.06" x2="357.05" y2="97.25"/><line class="cls-2" x1="342.48" y1="96.63" x2="357.67" y2="82.68"/><line class="cls-2" x1="14.82" y1="296.03" x2="28.78" y2="311.22"/><line class="cls-2" x1="14.21" y1="310.6" x2="29.39" y2="296.65"/><line class="cls-2" x1="45.29" y1="13.47" x2="65.91" y2="13.47"/><line class="cls-2" x1="55.6" y1="23.79" x2="55.6" y2="3.16"/><path class="cls-2" d="M319.48,279V126.76H71.64l-15.29,0,.45,14.88V279Z"/><path class="cls-2" d="M321.07,280.07H56.24V125.69H321.07Z"/><rect class="cls-2" x="56.44" y="279" width="263.4" height="22.55"/><path class="cls-2" d="M321.07,302.62H56.24v-24.7H321.07Z"/><path class="cls-2" d="M149.91,335.31h76.47l-4.52-31.69H154.43Z"/><path class="cls-2" d="M252.54,348.5c0-.17,0-.32,0-.48a11.64,11.64,0,0,0-11.64-11.64H135.36A11.63,11.63,0,0,0,123.72,348c0,.16,0,.32,0,.48Z"/><path class="cls-2" d="M285.51,265H89.76V3.16H285.51V265Z"/><line class="cls-3" x1="256.63" y1="26.3" x2="102.61" y2="26.3"/><line class="cls-3" x1="242.65" y1="42.14" x2="102.61" y2="42.14"/><line class="cls-3" x1="160.67" y1="57.98" x2="102.61" y2="57.98"/><line class="cls-3" x1="128.1" y1="73.82" x2="102.61" y2="73.82"/><line class="cls-3" x1="212.45" y1="73.82" x2="142.8" y2="73.82"/><line class="cls-3" x1="265.24" y1="89.66" x2="102.61" y2="89.66"/><line class="cls-3" x1="149.93" y1="184.39" x2="102.61" y2="184.39"/><line class="cls-3" x1="241.43" y1="121.34" x2="102.61" y2="121.34"/><line class="cls-3" x1="274.29" y1="137.18" x2="102.61" y2="137.18"/><line class="cls-3" x1="258.2" y1="168.85" x2="102.61" y2="168.85"/><line class="cls-2" x1="191.78" y1="290.14" x2="184.05" y2="290.14"/><line class="cls-3" x1="128.52" y1="201.5" x2="103.03" y2="201.5"/><line class="cls-2" x1="285.51" y1="264.99" x2="236.32" y2="219.67"/><circle class="cls-2" cx="209.36" cy="195.54" r="35.32"/><polyline class="cls-2" points="196.36 207.25 185.32 196.21 196.36 185.16"/><polyline class="cls-2" points="223.69 185.16 234.73 196.21 223.69 207.25"/><line class="cls-1" x1="203.46" y1="189.64" x2="216.59" y2="202.77"/></g></g></svg>