<svg xmlns="http://www.w3.org/2000/svg" viewBox="0 0 84.17 252.61"><defs><style>.cls-1,.cls-2,.cls-3,.cls-4{fill:none;stroke:#fff;stroke-linecap:round;stroke-linejoin:round;}.cls-1{stroke-width:0.96px;}.cls-2{stroke-width:0.97px;}.cls-3{stroke-width:1.07px;}.cls-4{stroke-width:0.36px;}</style></defs><title>Zasób 6code-mine</title><g id="Warstwa_2" data-name="Warstwa 2"><g id="Warstwa_1-2" data-name="Warstwa 1"><line class="cls-1" x1="83.69" y1="205.6" x2="83.69" y2="8.12"/><line class="cls-2" x1="3.58" y1="252.12" x2="3.58" y2="54.38"/><line class="cls-1" x1="0.53" y1="250.05" x2="0.53" y2="52.44"/><line class="cls-1" x1="80.49" y1="203.89" x2="80.49" y2="6.27"/><line class="cls-3" x1="80.49" y1="203.89" x2="0.53" y2="250.05"/><path class="cls-1" d="M.53,52.44c22.1-42.22,57.86-62.87,80-46.16"/><path class="cls-4" d="M7.7,48.3,73.32,10.41C53.74,3.05,27.28,18.33,7.7,48.3Z"/><polygon class="cls-4" points="74.43 199.31 6.39 238.59 6.39 57.14 74.43 17.86 74.43 199.31"/><polygon class="cls-4" points="36.81 221.03 33.56 222.9 33.56 41.45 36.81 39.58 36.81 221.03"/><polygon class="cls-4" points="69.75 64.06 53.15 73.64 53.15 43.25 69.75 33.66 69.75 64.06"/><polygon class="cls-4" points="69.75 105.19 53.15 114.78 53.15 84.38 69.75 74.79 69.75 105.19"/><polygon class="cls-4" points="69.75 146.32 53.15 155.91 53.15 125.51 69.75 115.92 69.75 146.32"/><polygon class="cls-4" points="69.75 187.46 53.15 197.04 53.15 166.64 69.75 157.06 69.75 187.46"/><polygon class="cls-4" points="28.51 87.87 11.9 97.46 11.9 67.06 28.51 57.47 28.51 87.87"/><polygon class="cls-4" points="28.51 129 11.9 138.59 11.9 108.19 28.51 98.61 28.51 129"/><polygon class="cls-4" points="28.51 170.13 11.9 179.72 11.9 149.32 28.51 139.74 28.51 170.13"/><polygon class="cls-4" points="28.51 211.27 11.9 220.85 11.9 190.46 28.51 180.87 28.51 211.27"/><polygon class="cls-4" points="49.41 199.2 41.27 203.9 41.27 50.1 49.41 45.41 49.41 199.2"/><line class="cls-1" x1="3.58" y1="54.38" x2="0.53" y2="52.53"/><path class="cls-1" d="M3.74,54.38c22.1-42.22,57.86-62.87,80-46.16"/></g></g></svg>