<?xml version="1.0" encoding="utf-8"?>
<!-- Generator: Adobe Illustrator 21.1.0, SVG Export Plug-In . SVG Version: 6.00 Build 0)  -->
<svg version="1.1" id="Warstwa_1" xmlns="http://www.w3.org/2000/svg"  x="0px" y="0px"
	 viewBox="0 0 1385.2 1047.8" style="enable-background:new 0 0 1385.2 1047.8;" xml:space="preserve">
<style type="text/css">
	.st0{fill:none;stroke:#1D1D1B;stroke-width:0.96;stroke-linecap:round;stroke-linejoin:round;}
	.st1{fill:none;stroke:#1D1D1B;stroke-width:0.24;stroke-linecap:round;stroke-linejoin:round;}
	.st2{fill:none;stroke:#1D1D1B;stroke-width:0.99;stroke-linecap:round;stroke-linejoin:round;}
	.st3{fill:none;stroke:#1D1D1B;stroke-width:0.36;stroke-linecap:round;stroke-linejoin:round;}
	.st4{fill:none;stroke:#1D1D1B;stroke-width:0.97;stroke-linecap:round;stroke-linejoin:round;}
	.st5{fill:none;stroke:#1D1D1B;stroke-linecap:round;stroke-linejoin:round;}
	.st6{fill:none;stroke:#1D1D1B;stroke-linecap:round;stroke-linejoin:bevel;}
	.st7{fill:none;stroke:#1D1D1B;stroke-width:6.32;stroke-linecap:round;stroke-linejoin:bevel;}
	.st8{fill:none;stroke:#1D1D1B;stroke-width:4;}
</style>
<title>Zasób 9</title>
<g id="Warstwa_2">
	<g id="Warstwa_1-2">
		<line class="st0" x1="717.6" y1="811" x2="580.9" y2="718.9"/>
		<polyline class="st0" points="851.8,585.7 834.8,595.5 814.4,584.1 661.3,672 		"/>
		<polyline class="st0" points="851.9,611.5 831.4,599.6 970.1,519.4 990.6,531.3 1007.7,521.5 		"/>
		<line class="st0" x1="852" y1="585.7" x2="831.5" y2="573.8"/>
		<polyline class="st0" points="1072.4,532.5 1055.2,542.4 1066.8,549.1 1051.2,558.2 1056.8,561.5 1072.5,552.4 1165.1,605.9 		"/>
		<polyline class="st0" points="1007.7,521.5 987.3,509.6 1023.8,488.6 1007.4,479.1 		"/>
		<path class="st0" d="M1378.1,536.4"/>
		<path class="st0" d="M1225.9,624.3"/>
		<line class="st0" x1="1072.4" y1="532.5" x2="1176.9" y2="593"/>
		<path class="st0" d="M1070.5,453.2"/>
		<line class="st0" x1="1378.1" y1="327.3" x2="1145.1" y2="192.8"/>
		<path class="st0" d="M616.6,356"/>
		<path class="st0" d="M1122,198"/>
		<line class="st0" x1="901.7" y1="514.3" x2="644.9" y2="662.5"/>
		<path class="st0" d="M266.3,548.7"/>
		<line class="st0" x1="566" y1="708.2" x2="517.5" y2="674.1"/>
		<line class="st0" x1="554.2" y1="725.8" x2="495.3" y2="685.5"/>
		<line class="st0" x1="470.9" y1="763.4" x2="488.4" y2="775.5"/>
		<line class="st0" x1="488.2" y1="775.6" x2="571.4" y2="738"/>
		<line class="st0" x1="471" y1="763.5" x2="554.2" y2="726"/>
		<line class="st0" x1="262.9" y1="857.9" x2="399.6" y2="795.8"/>
		<line class="st0" x1="399.6" y1="795.8" x2="417.1" y2="807.9"/>
		<line class="st0" x1="280.5" y1="869.5" x2="499.9" y2="1021.2"/>
		<line class="st0" x1="499.9" y1="1021.4" x2="793.1" y2="888.4"/>
		<path class="st0" d="M581.1,533.5"/>
		<line class="st1" x1="552.6" y1="749.8" x2="521.4" y2="728.2"/>
		<path class="st1" d="M399.2,605.8"/>
		<line class="st1" x1="948.4" y1="688.8" x2="936.8" y2="695.4"/>
		<line class="st1" x1="901.7" y1="640.2" x2="911.8" y2="646.1"/>
		<line class="st1" x1="1126.4" y1="676.2" x2="1116.6" y2="670.5"/>
		<polyline class="st0" points="933.8,632.7 1047.8,698.5 1121.5,655.7 1002.2,586.8 1009.3,582.5 		"/>
		<polyline class="st0" points="784.2,757.2 950.2,661.8 882.6,622.8 899.6,612.9 928.2,629.4 		"/>
		<polyline class="st0" points="1009.3,582.5 1128.7,651.5 1168.7,628.6 1165.2,606.1 		"/>
		<line class="st1" x1="901.8" y1="614.2" x2="911.8" y2="620.1"/>
		<polyline class="st0" points="928.2,629.4 962.5,609.6 968.2,612.8 933.8,632.7 		"/>
		<line class="st0" x1="812.1" y1="232.8" x2="812.1" y2="0.5"/>
		<line class="st0" x1="1122.8" y1="412.1" x2="1123.1" y2="180.1"/>
		<line class="st2" x1="590.7" y1="360.7" x2="590.7" y2="127.5"/>
		<line class="st2" x1="607.7" y1="350.9" x2="607.7" y2="118.6"/>
		<line class="st3" x1="281.5" y1="539.4" x2="281.7" y2="305.9"/>
		<line class="st3" x1="265.9" y1="548.5" x2="265.9" y2="315"/>
		<line class="st0" x1="1145.1" y1="425.5" x2="1145.1" y2="192.8"/>
		<line class="st0" x1="1168.7" y1="654.1" x2="1168.7" y2="628.6"/>
		<line class="st0" x1="1165.1" y1="633" x2="1165.1" y2="605.9"/>
		<line class="st0" x1="1128.5" y1="677.5" x2="1128.5" y2="651.5"/>
		<line class="st0" x1="1225.8" y1="647.4" x2="1225.8" y2="593"/>
		<line class="st0" x1="1121.5" y1="681.7" x2="1121.5" y2="655.7"/>
		<line class="st0" x1="1047.6" y1="724.5" x2="1047.6" y2="698.5"/>
		<line class="st0" x1="814.2" y1="609.8" x2="814.2" y2="584.1"/>
		<line class="st0" x1="834.8" y1="621.1" x2="834.8" y2="595.4"/>
		<line class="st0" x1="851.9" y1="611.5" x2="851.9" y2="585.8"/>
		<line class="st0" x1="499.9" y1="1047.1" x2="499.9" y2="1021.4"/>
		<line class="st0" x1="280.3" y1="895.4" x2="280.3" y2="869.7"/>
		<line class="st0" x1="800.8" y1="790.1" x2="800.8" y2="770.7"/>
		<line class="st0" x1="417.1" y1="833.4" x2="417.1" y2="807.6"/>
		<line class="st0" x1="399.6" y1="821.3" x2="399.6" y2="795.8"/>
		<line class="st0" x1="0.5" y1="701.6" x2="0.5" y2="468.7"/>
		<line class="st0" x1="262.9" y1="883.3" x2="262.9" y2="857.9"/>
		<path class="st0" d="M573.6,742.5"/>
		<path class="st0" d="M573.6,762.5"/>
		<line class="st4" x1="470.8" y1="789.1" x2="470.8" y2="763.6"/>
		<line class="st0" x1="554.5" y1="751.3" x2="554.5" y2="725"/>
		<line class="st0" x1="573.5" y1="729.5" x2="573.5" y2="703.8"/>
		<line class="st0" x1="495.6" y1="710.5" x2="495.3" y2="685.5"/>
		<line class="st0" x1="517.5" y1="700.4" x2="517.5" y2="674.7"/>
		<line class="st0" x1="566" y1="733.6" x2="566" y2="707.9"/>
		<line class="st3" x1="831.4" y1="599.6" x2="831.4" y2="573.9"/>
		<line class="st0" x1="918.4" y1="530.3" x2="918.4" y2="504.6"/>
		<line class="st0" x1="901.7" y1="540" x2="901.7" y2="514.3"/>
		<line class="st0" x1="950.1" y1="687.6" x2="950.1" y2="661.8"/>
		<line class="st0" x1="793.1" y1="914.2" x2="793.1" y2="888.4"/>
		<line class="st0" x1="882.5" y1="648.8" x2="882.5" y2="622.8"/>
		<line class="st0" x1="899.2" y1="639" x2="899.6" y2="612.9"/>
		<line class="st0" x1="928.1" y1="655.6" x2="928.1" y2="629.6"/>
		<line class="st0" x1="962.6" y1="635.6" x2="962.6" y2="609.5"/>
		<line class="st0" x1="968.2" y1="639" x2="968.2" y2="612.8"/>
		<line class="st0" x1="1002.1" y1="612.8" x2="1002.2" y2="586.8"/>
		<line class="st0" x1="1009.3" y1="608.6" x2="1009.3" y2="582.5"/>
		<line class="st0" x1="1055.2" y1="568.7" x2="1055.2" y2="542.4"/>
		<line class="st0" x1="1051.2" y1="584.4" x2="1051.2" y2="558.2"/>
		<line class="st0" x1="1056.8" y1="587.5" x2="1056.8" y2="561.5"/>
		<line class="st0" x1="1072.4" y1="558.9" x2="1072.4" y2="532.5"/>
		<line class="st0" x1="1061.6" y1="447.9" x2="1061.6" y2="287"/>
		<line class="st0" x1="1083.4" y1="460.8" x2="1083.3" y2="300.5"/>
		<line class="st0" x1="1023.8" y1="488.4" x2="1023.8" y2="462.7"/>
		<line class="st0" x1="1007.4" y1="521.6" x2="1007.4" y2="496"/>
		<line class="st0" x1="987.3" y1="509.4" x2="987.3" y2="483.7"/>
		<line class="st0" x1="969.8" y1="519.5" x2="969.8" y2="493.8"/>
		<line class="st0" x1="990.6" y1="531.3" x2="990.6" y2="505.6"/>
		<line class="st0" x1="933.8" y1="658.7" x2="933.8" y2="632.7"/>
		<line class="st0" x1="1378.1" y1="559" x2="1378.1" y2="327.3"/>
		<line class="st5" x1="573.6" y1="703.7" x2="566" y2="708.1"/>
		<line class="st5" x1="588.6" y1="714.4" x2="581" y2="718.8"/>
		<line class="st0" x1="588.6" y1="714.2" x2="573.6" y2="703.8"/>
		<line class="st0" x1="800.8" y1="792.2" x2="800.8" y2="594.7"/>
		<line class="st0" x1="784.2" y1="783.1" x2="784.1" y2="757.6"/>
		<line class="st4" x1="720.7" y1="838.7" x2="720.7" y2="641"/>
		<line class="st0" x1="717.6" y1="836.7" x2="717.6" y2="639"/>
		<line class="st0" x1="797.6" y1="790.5" x2="797.6" y2="592.9"/>
		<path class="st0" d="M717.6,639c22.1-42.2,57.9-62.9,80-46.2"/>
		<path class="st3" d="M724.8,634.9l65.6-37.9C770.8,589.7,744.4,604.9,724.8,634.9z"/>
		<polygon class="st3" points="791.5,785.9 723.5,825.2 723.5,643.8 791.5,604.5 		"/>
		<polygon class="st3" points="753.9,807.6 750.7,809.5 750.7,628.1 753.9,626.2 		"/>
		<polygon class="st3" points="745.6,674.5 729,684.1 729,653.7 745.6,644.1 		"/>
		<polygon class="st3" points="745.6,715.6 729,725.2 729,694.8 745.6,685.2 		"/>
		<polygon class="st3" points="745.6,756.8 729,766.3 729,735.9 745.6,726.3 		"/>
		<polygon class="st3" points="745.6,797.9 729,807.5 729,777.1 745.6,767.5 		"/>
		<line class="st0" x1="720.7" y1="641" x2="717.6" y2="639.1"/>
		<path class="st0" d="M720.8,641c22.1-42.2,57.9-62.9,80-46.2"/>
		<line class="st0" x1="709.1" y1="227.2" x2="694.8" y2="219.2"/>
		<line class="st0" x1="644.8" y1="263.8" x2="644.8" y2="136.9"/>
		<polyline class="st3" points="694.8,138.6 694.8,219.2 630.8,255.9 644.8,263.8 		"/>
		<line class="st3" x1="709.1" y1="100.3" x2="690.9" y2="90.1"/>
		<line class="st3" x1="630.8" y1="255.9" x2="626.9" y2="253.9"/>
		<line class="st3" x1="709.1" y1="227.3" x2="690.9" y2="217.2"/>
		<polyline class="st3" points="694.8,92.3 630.8,129 644.8,136.9 		"/>
		<polyline class="st3" points="690.9,90.1 626.9,126.9 641,134.8 		"/>
		<line class="st0" x1="709.1" y1="227.1" x2="645.1" y2="263.8"/>
		<line class="st0" x1="709.1" y1="100.2" x2="645.1" y2="136.9"/>
		<line class="st0" x1="709.1" y1="227.2" x2="709.1" y2="100.2"/>
		<line class="st3" x1="690.9" y1="217.2" x2="690.9" y2="90.2"/>
		<line class="st3" x1="694.8" y1="219.3" x2="694.8" y2="92.3"/>
		<line class="st3" x1="630.8" y1="255.9" x2="630.8" y2="129.3"/>
		<line class="st3" x1="626.9" y1="253.8" x2="626.9" y2="126.8"/>
		<line class="st3" x1="690.9" y1="217.2" x2="626.9" y2="253.9"/>
		<polygon class="st3" points="688,214.6 665.1,227.9 665.1,154.5 688,141.3 		"/>
		<polygon class="st3" points="660.1,230.6 637.2,243.9 637.2,170.5 660.1,157.3 		"/>
		<polygon class="st3" points="688,135.4 665.1,148.6 665.1,118.1 688,104.9 		"/>
		<polygon class="st3" points="660.1,151.4 637.2,164.6 637.2,134.1 660.1,120.9 		"/>
		<line class="st0" x1="536.4" y1="327.5" x2="522.1" y2="319.6"/>
		<line class="st0" x1="472.1" y1="364.2" x2="472.1" y2="237.3"/>
		<polyline class="st3" points="522.1,238.9 522.1,319.6 458,356.3 472.1,364.2 		"/>
		<line class="st3" x1="536.4" y1="200.6" x2="518.2" y2="190.5"/>
		<line class="st3" x1="458" y1="356.3" x2="454.2" y2="354.3"/>
		<line class="st3" x1="536.4" y1="327.7" x2="518.2" y2="317.5"/>
		<polyline class="st3" points="522.1,192.7 458,229.4 472.1,237.3 		"/>
		<polyline class="st3" points="518.2,190.5 454.2,227.2 468.2,235.1 		"/>
		<line class="st0" x1="536.4" y1="327.5" x2="472.3" y2="364.2"/>
		<line class="st0" x1="536.4" y1="200.6" x2="472.3" y2="237.3"/>
		<line class="st0" x1="536.4" y1="327.5" x2="536.4" y2="200.6"/>
		<line class="st3" x1="518.2" y1="317.5" x2="518.2" y2="190.6"/>
		<line class="st3" x1="522.1" y1="319.7" x2="522.1" y2="192.7"/>
		<line class="st3" x1="458" y1="356.3" x2="458" y2="229.7"/>
		<line class="st3" x1="454.2" y1="354.2" x2="454.2" y2="227.2"/>
		<line class="st3" x1="518.2" y1="317.5" x2="454.2" y2="354.3"/>
		<polygon class="st3" points="515.3,315 492.4,328.2 492.4,254.9 515.3,241.7 		"/>
		<polygon class="st3" points="487.4,331 464.5,344.2 464.5,270.9 487.4,257.7 		"/>
		<polygon class="st3" points="515.3,235.8 492.4,249 492.4,218.5 515.3,205.3 		"/>
		<polygon class="st3" points="487.4,251.8 464.5,265 464.5,234.5 487.4,221.3 		"/>
		<line class="st0" x1="422.5" y1="392.4" x2="408.2" y2="384.4"/>
		<line class="st0" x1="358.3" y1="429" x2="358.3" y2="302.1"/>
		<polyline class="st3" points="408.2,303.8 408.2,384.4 344.2,421.1 358.3,429 		"/>
		<line class="st3" x1="422.5" y1="265.5" x2="404.4" y2="255.3"/>
		<line class="st3" x1="344.2" y1="421.1" x2="340.3" y2="419.1"/>
		<line class="st3" x1="422.5" y1="392.5" x2="404.4" y2="382.4"/>
		<polyline class="st3" points="408.2,257.5 344.2,294.2 358.3,302.1 		"/>
		<polyline class="st3" points="404.4,255.3 340.3,292.1 354.4,300 		"/>
		<line class="st0" x1="422.5" y1="392.3" x2="358.5" y2="429"/>
		<line class="st0" x1="422.5" y1="265.4" x2="358.5" y2="302.1"/>
		<line class="st0" x1="422.5" y1="392.4" x2="422.5" y2="265.4"/>
		<line class="st3" x1="404.4" y1="382.4" x2="404.4" y2="255.4"/>
		<line class="st3" x1="408.2" y1="384.5" x2="408.2" y2="257.5"/>
		<line class="st3" x1="344.2" y1="421.1" x2="344.2" y2="294.5"/>
		<line class="st3" x1="340.3" y1="419" x2="340.3" y2="292"/>
		<line class="st3" x1="404.4" y1="382.4" x2="340.3" y2="419.1"/>
		<polygon class="st3" points="401.5,379.8 378.6,393.1 378.6,319.7 401.5,306.5 		"/>
		<polygon class="st3" points="373.6,395.8 350.7,409.1 350.7,335.7 373.6,322.5 		"/>
		<polygon class="st3" points="401.5,300.6 378.6,313.8 378.6,283.3 401.5,270.1 		"/>
		<polygon class="st3" points="373.6,316.6 350.7,329.8 350.7,299.3 373.6,286.1 		"/>
		<line class="st0" x1="1302.8" y1="483.4" x2="1317.1" y2="475.4"/>
		<line class="st0" x1="1367" y1="520" x2="1367" y2="393.1"/>
		<polyline class="st3" points="1317.1,394.8 1317.1,475.4 1381.1,512.1 1367,520 		"/>
		<line class="st3" x1="1302.8" y1="356.5" x2="1320.9" y2="346.3"/>
		<line class="st3" x1="1381.1" y1="512.1" x2="1385" y2="510.1"/>
		<line class="st3" x1="1302.8" y1="483.5" x2="1320.9" y2="473.4"/>
		<polyline class="st3" points="1317.1,348.5 1381.1,385.2 1367,393.1 		"/>
		<polyline class="st3" points="1320.9,346.3 1385,383.1 1370.9,391 		"/>
		<line class="st0" x1="1302.8" y1="483.3" x2="1366.8" y2="520"/>
		<line class="st0" x1="1302.8" y1="356.4" x2="1366.8" y2="393.1"/>
		<line class="st0" x1="1302.8" y1="483.4" x2="1302.8" y2="356.4"/>
		<line class="st3" x1="1320.9" y1="473.4" x2="1320.9" y2="346.4"/>
		<line class="st3" x1="1317.1" y1="475.5" x2="1317.1" y2="348.5"/>
		<line class="st3" x1="1381.1" y1="512.1" x2="1381.1" y2="385.5"/>
		<line class="st3" x1="1385" y1="510" x2="1385" y2="383"/>
		<line class="st3" x1="1320.9" y1="473.4" x2="1385" y2="510.1"/>
		<polygon class="st3" points="1323.8,470.8 1346.7,484 1346.7,410.7 1323.8,397.5 		"/>
		<polygon class="st3" points="1351.7,486.8 1374.6,500 1374.6,426.7 1351.7,413.5 		"/>
		<polygon class="st3" points="1323.8,391.6 1346.7,404.8 1346.7,374.3 1323.8,361.1 		"/>
		<polygon class="st3" points="1351.7,407.6 1374.6,420.8 1374.6,390.3 1351.7,377.1 		"/>
		<line class="st0" x1="795.4" y1="176.9" x2="781.1" y2="168.9"/>
		<line class="st0" x1="731.2" y1="213.6" x2="731.2" y2="86.6"/>
		<polyline class="st3" points="781.1,88.3 781.1,168.9 717.1,205.7 731.2,213.6 		"/>
		<line class="st3" x1="795.4" y1="50" x2="777.3" y2="39.9"/>
		<line class="st3" x1="717.1" y1="205.7" x2="713.2" y2="203.6"/>
		<line class="st3" x1="795.4" y1="177" x2="777.3" y2="166.9"/>
		<polyline class="st3" points="781.1,42 717.1,78.7 731.2,86.6 		"/>
		<polyline class="st3" points="777.3,39.9 713.2,76.6 727.3,84.5 		"/>
		<line class="st0" x1="795.4" y1="176.8" x2="731.4" y2="213.6"/>
		<line class="st0" x1="795.4" y1="49.9" x2="731.4" y2="86.6"/>
		<line class="st0" x1="795.4" y1="176.9" x2="795.4" y2="50"/>
		<line class="st3" x1="777.3" y1="166.9" x2="777.3" y2="39.9"/>
		<line class="st3" x1="781.1" y1="169" x2="781.1" y2="42"/>
		<line class="st3" x1="717.1" y1="205.7" x2="717.1" y2="79"/>
		<line class="st3" x1="713.2" y1="203.5" x2="713.2" y2="76.5"/>
		<line class="st3" x1="777.3" y1="166.9" x2="713.2" y2="203.6"/>
		<polygon class="st3" points="774.4,164.4 751.5,177.6 751.5,104.3 774.4,91 		"/>
		<polygon class="st3" points="746.5,180.4 723.6,193.6 723.6,120.3 746.5,107 		"/>
		<polygon class="st3" points="774.4,85.1 751.5,98.4 751.5,67.8 774.4,54.6 		"/>
		<polygon class="st3" points="746.5,101.1 723.6,114.4 723.6,83.8 746.5,70.6 		"/>
		<line class="st0" x1="488.2" y1="801.5" x2="488.2" y2="775.4"/>
		<line class="st0" x1="661.3" y1="697.7" x2="661.3" y2="672"/>
		<line class="st0" x1="588.6" y1="739.8" x2="588.6" y2="714.2"/>
		<line class="st0" x1="580.9" y1="744.4" x2="580.9" y2="718.7"/>
		<line class="st0" x1="645" y1="688.2" x2="645.1" y2="662.6"/>
		<line class="st0" x1="661.3" y1="672" x2="644.9" y2="662.5"/>
		<line class="st0" x1="1061.6" y1="287" x2="1083.3" y2="300.5"/>
		<line class="st0" x1="1007.4" y1="453.4" x2="1023.8" y2="462.7"/>
		<line class="st0" x1="200.3" y1="814.6" x2="262.9" y2="857.9"/>
		<path class="st0" d="M0.3,491.8"/>
		<line class="st0" x1="571.4" y1="738" x2="793.1" y2="888.5"/>
		<line class="st0" x1="517.5" y1="674.1" x2="495.3" y2="685.5"/>
		<line class="st0" x1="571.4" y1="763.7" x2="571.4" y2="738"/>
		<line class="st0" x1="1007.4" y1="479.3" x2="1007.4" y2="453.4"/>
		<line class="st0" x1="969.8" y1="493.8" x2="831.5" y2="573.8"/>
		<line class="st0" x1="1023.8" y1="462.7" x2="987.3" y2="483.7"/>
		<line class="st0" x1="987.3" y1="483.7" x2="1007.4" y2="496"/>
		<line class="st0" x1="969.8" y1="493.8" x2="990.6" y2="505.6"/>
		<line class="st0" x1="1007.4" y1="496" x2="990.6" y2="505.6"/>
		<polyline class="st0" points="851.9,611.5 834.9,621.3 814.4,609.5 661.3,697.7 645,688.2 901.8,540 794.7,478.2 811.5,468.5
			"/>
		<polyline class="st0" points="1007.4,479.1 918.6,530.4 811.5,468.5 		"/>
		<line class="st0" x1="794.6" y1="453" x2="794.6" y2="478.3"/>
		<line class="st0" x1="811.5" y1="442.8" x2="811.5" y2="468.5"/>
		<line class="st0" x1="901.3" y1="514.4" x2="795" y2="453"/>
		<polyline class="st0" points="1007.4,453.4 918.6,504.8 811.5,442.8 		"/>
		<line class="st0" x1="795" y1="453" x2="811.5" y2="442.8"/>
		<line class="st0" x1="417.1" y1="807.6" x2="280.3" y2="869.7"/>
		<line class="st6" x1="812.1" y1="0.5" x2="1123.1" y2="180.1"/>
		<line class="st6" x1="1083.3" y1="300.5" x2="1145.1" y2="192.8"/>
		<polyline class="st6" points="1378.1,327.3 1225.8,593 1176.9,593 		"/>
		<line class="st6" x1="1061.6" y1="287" x2="1122.8" y2="180.1"/>
		<line class="st6" x1="590.7" y1="127.5" x2="281.7" y2="305.9"/>
		<line class="st6" x1="265.9" y1="315" x2="0.5" y2="468.7"/>
		<path class="st7" d="M590.7,360.7"/>
		<polygon class="st8" points="1083.4,460.8 1145.3,425.1 1248.9,484.9 1366.8,553 1378.1,559.5 1225.9,647.4 1089.6,568.8
			1072.4,558.8 1055.2,568.7 1066.8,575.4 1051.2,584.4 1056.8,587.7 1072.5,578.6 1165.1,632.1 1168.7,654.7 1128.7,677.5
			1009.3,608.6 1002.1,612.9 1121.5,681.8 1047.7,724.5 933.8,658.7 968.2,638.9 962.5,635.6 928.1,655.5 928.1,655.5 899.5,639
			882.5,648.8 950.1,687.8 784.1,783.1 784.2,783 797.6,790.5 717.6,836.7 580.9,744.3 588.6,740 573.6,729.6 566,734 517.5,700.4
			495.6,710.3 554.5,751.1 470.8,789.1 470.9,789.1 488.4,801.2 488.5,801.4 571.4,763.9 759.2,891 793.1,914.4 759.2,891
			793.1,914.4 499.8,1047.3 468,1025.3 280.3,895.4 417.1,833.4 399.7,821.3 262.9,883.3 211.6,847.8 0.5,701.7 265.9,548.5
			381.8,615.4 397.4,606.3 397.4,606.3 281.5,539.4 339.5,506 590.7,360.7 721.1,435.7 737.8,426 607.7,350.9 812.1,232.7
			1123.1,412.3 1061.4,447.9 		"/>
		<line class="st6" x1="812.1" y1="0.5" x2="607.7" y2="118.6"/>
		<path class="st0" d="M1145.1,192.8"/>
		<line class="st6" x1="200.3" y1="814.6" x2="0.8" y2="468.9"/>
	</g>
</g>
</svg>
