<svg xmlns="http://www.w3.org/2000/svg" viewBox="0 0 1385.15 1047.78"><defs><style>.cls-1,.cls-2,.cls-3,.cls-4,.cls-5,.cls-6,.cls-7,.cls-8,.cls-9{fill:none;stroke:#1d1d1b;stroke-linecap:round;}.cls-1,.cls-2,.cls-3,.cls-4,.cls-5,.cls-6,.cls-7,.cls-8{stroke-linejoin:round;}.cls-1{stroke-width:0.96px;}.cls-2{stroke-width:0.24px;}.cls-3{stroke-width:0.99px;}.cls-4{stroke-width:0.36px;}.cls-5{stroke-width:0.97px;}.cls-7{stroke-width:0.97px;}.cls-8{stroke-width:1.07px;}.cls-9{stroke-linejoin:bevel;}</style></defs><title>Zasób 9</title><g id="Warstwa_2" data-name="Warstwa 2"><g id="Warstwa_1-2" data-name="Warstwa 1"><line class="cls-1" x1="705.7" y1="828.37" x2="580.92" y2="744.33"/><line class="cls-1" x1="717.62" y1="810.98" x2="580.92" y2="718.92"/><polyline class="cls-1" points="933.78 658.73 1047.72 724.51 1123.77 680.36 1004.38 611.43 1009.28 608.58"/><polyline class="cls-1" points="784.14 783.11 950.13 687.83 882.53 648.8 899.55 638.97 928.1 655.46"/><polyline class="cls-1" points="851.85 585.65 834.82 595.48 814.39 584.14 661.34 672.05"/><polyline class="cls-1" points="1009.28 608.58 1128.67 677.52 1168.68 654.67 1165.12 632.11"/><polyline class="cls-1" points="851.89 611.45 831.42 599.63 970.06 519.43 990.61 531.35 1007.73 521.47"/><line class="cls-1" x1="851.97" y1="585.65" x2="831.51" y2="573.84"/><polyline class="cls-1" points="1089.62 568.75 1072.37 558.78 1055.24 568.67 1066.83 575.36 1051.16 584.4 1056.84 587.68 1072.5 578.63 1165.12 632.11"/><polyline class="cls-1" points="1072.37 532.55 1055.24 542.44 1066.83 549.13 1051.16 558.17 1056.84 561.45 1072.5 552.4 1165.12 605.88"/><polyline class="cls-1" points="1007.73 521.47 987.35 509.61 1023.76 488.59 1007.37 479.12"/><polyline class="cls-1" points="1089.62 568.75 1225.88 647.42 1378.14 559.51 1366.8 552.97"/><path class="cls-1" d="M1378.14,536.43"/><path class="cls-1" d="M1225.88,624.33"/><line class="cls-1" x1="1072.37" y1="532.55" x2="1176.89" y2="593"/><polyline class="cls-1" points="1083.38 460.84 1061.44 447.9 1123.13 412.29 812.08 232.7"/><path class="cls-1" d="M1070.5,453.25"/><polyline class="cls-1" points="1248.89 484.88 1145.31 425.09 1083.38 460.84"/><line class="cls-1" x1="1378.14" y1="327.3" x2="1145.09" y2="192.76"/><line class="cls-1" x1="1366.8" y1="552.97" x2="1248.89" y2="484.88"/><path class="cls-1" d="M616.56,356"/><path class="cls-1" d="M1122,198"/><line class="cls-1" x1="901.74" y1="514.3" x2="644.9" y2="662.53"/><polyline class="cls-1" points="607.66 350.86 737.85 426.03 721.1 435.71"/><line class="cls-1" x1="281.51" y1="539.4" x2="397.38" y2="606.31"/><path class="cls-1" d="M266.3,548.71"/><line class="cls-1" x1="281.51" y1="539.4" x2="339.46" y2="505.95"/><polyline class="cls-1" points="265.85 548.45 0.5 701.65 211.62 847.8"/><polyline class="cls-1" points="265.85 548.45 381.8 615.38 397.38 606.32"/><polyline class="cls-1" points="566.01 734.01 517.48 700.42 495.58 710.34"/><line class="cls-1" x1="566.01" y1="708.17" x2="517.48" y2="674.09"/><line class="cls-1" x1="554.21" y1="725.83" x2="495.32" y2="685.45"/><polyline class="cls-1" points="470.78 789.08 554.53 751.14 495.58 710.34"/><polyline class="cls-1" points="417.13 833.39 399.66 821.29 262.86 883.27 211.62 847.8"/><line class="cls-1" x1="470.92" y1="763.44" x2="488.4" y2="775.54"/><line class="cls-1" x1="470.92" y1="789.08" x2="488.4" y2="801.17"/><line class="cls-1" x1="488.25" y1="775.58" x2="571.39" y2="738.05"/><line class="cls-1" x1="471.01" y1="763.48" x2="554.15" y2="725.95"/><line class="cls-1" x1="262.88" y1="857.89" x2="399.59" y2="795.79"/><line class="cls-1" x1="399.59" y1="795.79" x2="417.06" y2="807.88"/><polyline class="cls-1" points="417.13 833.39 280.33 895.36 468.01 1025.29"/><polyline class="cls-1" points="468.01 1025.29 499.82 1047.3 793.11 914.44"/><line class="cls-1" x1="280.48" y1="869.53" x2="499.94" y2="1021.17"/><line class="cls-1" x1="488.49" y1="801.38" x2="571.39" y2="763.93"/><line class="cls-1" x1="499.92" y1="1021.43" x2="793.11" y2="888.36"/><line class="cls-1" x1="571.39" y1="763.93" x2="759.24" y2="891"/><path class="cls-1" d="M581.1,533.46"/><polyline class="cls-1" points="759.24 891 793.11 914.44 759.24 891"/><line class="cls-2" x1="552.57" y1="749.78" x2="521.42" y2="728.22"/><path class="cls-2" d="M399.21,605.81"/><line class="cls-2" x1="948.44" y1="688.81" x2="936.84" y2="695.42"/><line class="cls-2" x1="901.74" y1="640.22" x2="911.79" y2="646.11"/><line class="cls-2" x1="1126.38" y1="676.2" x2="1116.55" y2="670.45"/><polyline class="cls-1" points="928.11 655.45 962.48 635.6 968.15 638.88 933.78 658.73"/><polyline class="cls-1" points="933.83 632.7 1047.77 698.48 1123.83 654.33 1004.44 585.4 1009.34 582.55"/><polyline class="cls-1" points="784.2 757.19 950.18 661.8 882.58 622.77 899.61 612.94 928.15 629.43"/><polyline class="cls-1" points="1009.34 582.55 1128.73 651.49 1168.74 628.64 1165.18 606.08"/><line class="cls-2" x1="901.8" y1="614.19" x2="911.84" y2="620.08"/><polyline class="cls-1" points="928.16 629.42 962.54 609.57 968.21 612.85 933.83 632.7"/><line class="cls-1" x1="812.08" y1="232.8" x2="812.08" y2="0.5"/><line class="cls-1" x1="1122.84" y1="412.07" x2="1123.13" y2="180.09"/><line class="cls-1" x1="721.1" y1="435.71" x2="721.1" y2="413.03"/><line class="cls-3" x1="590.72" y1="360.66" x2="590.72" y2="127.48"/><line class="cls-3" x1="607.66" y1="350.86" x2="607.66" y2="118.56"/><line class="cls-4" x1="737.85" y1="343.95" x2="721.1" y2="353.6"/><line class="cls-4" x1="281.51" y1="539.4" x2="281.74" y2="305.89"/><line class="cls-4" x1="265.87" y1="548.53" x2="265.87" y2="315.04"/><line class="cls-1" x1="1145.09" y1="425.54" x2="1145.09" y2="192.76"/><line class="cls-1" x1="1168.68" y1="654.1" x2="1168.68" y2="628.64"/><line class="cls-1" x1="1165.12" y1="632.95" x2="1165.12" y2="605.88"/><line class="cls-1" x1="1128.5" y1="677.52" x2="1128.5" y2="651.49"/><line class="cls-1" x1="1225.85" y1="647.36" x2="1225.85" y2="593"/><line class="cls-1" x1="1123.77" y1="680.27" x2="1123.77" y2="654.24"/><line class="cls-1" x1="1047.61" y1="724.51" x2="1047.61" y2="698.48"/><line class="cls-1" x1="814.25" y1="609.77" x2="814.25" y2="584.09"/><line class="cls-1" x1="834.75" y1="621.1" x2="834.75" y2="595.43"/><line class="cls-1" x1="851.89" y1="611.52" x2="851.89" y2="585.84"/><line class="cls-1" x1="499.92" y1="1047.1" x2="499.92" y2="1021.43"/><line class="cls-1" x1="280.33" y1="895.42" x2="280.33" y2="869.74"/><line class="cls-1" x1="800.78" y1="790.09" x2="800.78" y2="770.73"/><line class="cls-1" x1="417.13" y1="833.39" x2="417.13" y2="807.56"/><line class="cls-1" x1="399.59" y1="821.29" x2="399.59" y2="795.79"/><line class="cls-1" x1="0.5" y1="701.63" x2="0.5" y2="468.73"/><line class="cls-1" x1="262.86" y1="883.27" x2="262.88" y2="857.89"/><path class="cls-1" d="M573.62,742.53"/><path class="cls-1" d="M573.62,762.5"/><line class="cls-5" x1="470.78" y1="789.08" x2="470.78" y2="763.62"/><line class="cls-1" x1="554.53" y1="751.35" x2="554.47" y2="725.03"/><line class="cls-1" x1="573.48" y1="729.53" x2="573.48" y2="703.85"/><line class="cls-1" x1="495.58" y1="710.46" x2="495.32" y2="685.45"/><line class="cls-1" x1="517.48" y1="700.42" x2="517.48" y2="674.74"/><line class="cls-1" x1="566.01" y1="733.58" x2="566.01" y2="707.91"/><line class="cls-4" x1="831.42" y1="599.6" x2="831.42" y2="573.92"/><line class="cls-1" x1="918.42" y1="530.31" x2="918.42" y2="504.63"/><line class="cls-1" x1="901.74" y1="539.97" x2="901.74" y2="514.3"/><line class="cls-1" x1="950.13" y1="687.62" x2="950.13" y2="661.8"/><line class="cls-1" x1="793.11" y1="914.18" x2="793.11" y2="888.36"/><line class="cls-1" x1="882.54" y1="648.84" x2="882.53" y2="622.77"/><line class="cls-1" x1="899.25" y1="638.97" x2="899.56" y2="612.94"/><line class="cls-1" x1="928.11" y1="655.6" x2="928.11" y2="629.57"/><line class="cls-1" x1="962.59" y1="635.6" x2="962.59" y2="609.48"/><line class="cls-1" x1="968.15" y1="638.97" x2="968.15" y2="612.85"/><line class="cls-1" x1="1004.42" y1="611.45" x2="1004.48" y2="585.4"/><line class="cls-1" x1="1009.28" y1="608.58" x2="1009.34" y2="582.55"/><line class="cls-1" x1="1055.25" y1="568.74" x2="1055.25" y2="542.44"/><line class="cls-1" x1="1051.16" y1="584.42" x2="1051.16" y2="558.17"/><line class="cls-1" x1="1056.82" y1="587.55" x2="1056.84" y2="561.45"/><line class="cls-1" x1="1072.44" y1="558.91" x2="1072.37" y2="532.55"/><line class="cls-1" x1="1061.62" y1="447.91" x2="1061.62" y2="287.03"/><line class="cls-1" x1="1083.38" y1="460.84" x2="1083.33" y2="300.54"/><line class="cls-1" x1="1023.76" y1="488.36" x2="1023.76" y2="462.68"/><line class="cls-1" x1="1007.37" y1="521.64" x2="1007.37" y2="495.97"/><line class="cls-1" x1="987.35" y1="509.38" x2="987.35" y2="483.7"/><line class="cls-1" x1="969.85" y1="519.45" x2="969.85" y2="493.78"/><line class="cls-1" x1="990.6" y1="531.27" x2="990.6" y2="505.59"/><line class="cls-1" x1="933.78" y1="658.73" x2="933.78" y2="632.7"/><line class="cls-1" x1="1378.14" y1="559.04" x2="1378.14" y2="327.3"/><line class="cls-6" x1="588.59" y1="739.99" x2="580.92" y2="744.33"/><line class="cls-6" x1="573.62" y1="729.62" x2="566.01" y2="734.01"/><line class="cls-6" x1="573.62" y1="703.73" x2="566.01" y2="708.12"/><line class="cls-6" x1="588.61" y1="714.36" x2="581" y2="718.75"/><line class="cls-1" x1="588.59" y1="739.99" x2="573.62" y2="729.62"/><line class="cls-1" x1="588.59" y1="714.21" x2="573.62" y2="703.85"/><line class="cls-1" x1="800.59" y1="792.43" x2="784.2" y2="782.97"/><line class="cls-1" x1="800.78" y1="792.22" x2="800.78" y2="594.73"/><line class="cls-1" x1="784.2" y1="783.14" x2="784.14" y2="757.59"/><line class="cls-7" x1="720.67" y1="838.73" x2="720.67" y2="640.99"/><line class="cls-1" x1="717.62" y1="836.66" x2="717.62" y2="639.05"/><line class="cls-1" x1="797.58" y1="790.5" x2="797.58" y2="592.88"/><line class="cls-8" x1="797.58" y1="790.5" x2="717.62" y2="836.66"/><path class="cls-1" d="M717.62,639c22.1-42.22,57.86-62.87,80-46.16"/><path class="cls-4" d="M724.79,634.91,790.41,597C770.83,589.67,744.37,604.94,724.79,634.91Z"/><polygon class="cls-4" points="791.52 785.92 723.48 825.2 723.48 643.75 791.52 604.47 791.52 785.92"/><polygon class="cls-4" points="753.89 807.64 750.65 809.51 750.65 628.06 753.89 626.19 753.89 807.64"/><polygon class="cls-4" points="745.6 674.48 728.99 684.07 728.99 653.67 745.6 644.08 745.6 674.48"/><polygon class="cls-4" points="745.6 715.61 728.99 725.2 728.99 694.8 745.6 685.22 745.6 715.61"/><polygon class="cls-4" points="745.6 756.75 728.99 766.33 728.99 735.93 745.6 726.35 745.6 756.75"/><polygon class="cls-4" points="745.6 797.88 728.99 807.47 728.99 777.07 745.6 767.48 745.6 797.88"/><line class="cls-1" x1="720.67" y1="640.99" x2="717.62" y2="639.14"/><path class="cls-1" d="M720.82,641c22.1-42.22,57.86-62.87,80-46.16"/><line class="cls-1" x1="709.1" y1="227.17" x2="694.79" y2="219.21"/><line class="cls-1" x1="644.84" y1="263.84" x2="644.84" y2="136.92"/><polyline class="cls-4" points="694.79 138.56 694.79 219.21 630.75 255.93 644.84 263.84"/><line class="cls-4" x1="709.1" y1="100.26" x2="690.92" y2="90.15"/><line class="cls-4" x1="630.75" y1="255.93" x2="626.88" y2="253.89"/><line class="cls-4" x1="709.1" y1="227.28" x2="690.92" y2="217.17"/><polyline class="cls-4" points="694.79 92.3 630.75 129.02 644.84 136.92"/><polyline class="cls-4" points="690.92 90.15 626.88 126.87 640.97 134.77"/><line class="cls-1" x1="709.1" y1="227.12" x2="645.06" y2="263.84"/><line class="cls-1" x1="709.1" y1="100.2" x2="645.06" y2="136.92"/><line class="cls-1" x1="709.1" y1="227.17" x2="709.1" y2="100.2"/><line class="cls-4" x1="690.92" y1="217.17" x2="690.92" y2="90.2"/><line class="cls-4" x1="694.79" y1="219.29" x2="694.79" y2="92.32"/><line class="cls-4" x1="630.75" y1="255.93" x2="630.75" y2="129.32"/><line class="cls-4" x1="626.88" y1="253.79" x2="626.88" y2="126.82"/><line class="cls-4" x1="690.92" y1="217.17" x2="626.88" y2="253.89"/><polygon class="cls-4" points="688.01 214.64 665.13 227.86 665.13 154.53 688.01 141.32 688.01 214.64"/><polygon class="cls-4" points="660.12 230.64 637.23 243.86 637.23 170.53 660.12 157.32 660.12 230.64"/><polygon class="cls-4" points="688.01 135.42 665.13 148.64 665.13 118.12 688.01 104.91 688.01 135.42"/><polygon class="cls-4" points="660.12 151.42 637.23 164.64 637.23 134.12 660.12 120.91 660.12 151.42"/><line class="cls-1" x1="536.38" y1="327.55" x2="522.07" y2="319.59"/><line class="cls-1" x1="472.12" y1="364.22" x2="472.12" y2="237.3"/><polyline class="cls-4" points="522.07 238.94 522.07 319.59 458.03 356.31 472.12 364.21"/><line class="cls-4" x1="536.38" y1="200.64" x2="518.2" y2="190.52"/><line class="cls-4" x1="458.03" y1="356.31" x2="454.16" y2="354.27"/><line class="cls-4" x1="536.38" y1="327.66" x2="518.2" y2="317.55"/><polyline class="cls-4" points="522.07 192.68 458.03 229.4 472.12 237.3"/><polyline class="cls-4" points="518.2 190.52 454.16 227.24 468.25 235.15"/><line class="cls-1" x1="536.38" y1="327.5" x2="472.33" y2="364.22"/><line class="cls-1" x1="536.38" y1="200.58" x2="472.33" y2="237.3"/><line class="cls-1" x1="536.38" y1="327.55" x2="536.38" y2="200.58"/><line class="cls-4" x1="518.2" y1="317.55" x2="518.2" y2="190.58"/><line class="cls-4" x1="522.07" y1="319.67" x2="522.07" y2="192.7"/><line class="cls-4" x1="458.03" y1="356.31" x2="458.03" y2="229.7"/><line class="cls-4" x1="454.16" y1="354.17" x2="454.16" y2="227.2"/><line class="cls-4" x1="518.2" y1="317.55" x2="454.16" y2="354.27"/><polygon class="cls-4" points="515.29 315.02 492.4 328.23 492.4 254.91 515.29 241.7 515.29 315.02"/><polygon class="cls-4" points="487.4 331.02 464.51 344.23 464.51 270.91 487.4 257.7 487.4 331.02"/><polygon class="cls-4" points="515.29 235.8 492.4 249.01 492.4 218.5 515.29 205.28 515.29 235.8"/><polygon class="cls-4" points="487.4 251.8 464.51 265.01 464.51 234.5 487.4 221.28 487.4 251.8"/><line class="cls-1" x1="422.54" y1="392.37" x2="408.24" y2="384.41"/><line class="cls-1" x1="358.28" y1="429.04" x2="358.28" y2="302.12"/><polyline class="cls-4" points="408.24 303.76 408.24 384.41 344.19 421.13 358.28 429.04"/><line class="cls-4" x1="422.54" y1="265.46" x2="404.37" y2="255.35"/><line class="cls-4" x1="344.19" y1="421.13" x2="340.32" y2="419.09"/><line class="cls-4" x1="422.54" y1="392.48" x2="404.37" y2="382.37"/><polyline class="cls-4" points="408.24 257.5 344.19 294.22 358.28 302.12"/><polyline class="cls-4" points="404.37 255.35 340.32 292.07 354.41 299.97"/><line class="cls-1" x1="422.54" y1="392.32" x2="358.5" y2="429.04"/><line class="cls-1" x1="422.54" y1="265.4" x2="358.5" y2="302.12"/><line class="cls-1" x1="422.54" y1="392.37" x2="422.54" y2="265.4"/><line class="cls-4" x1="404.37" y1="382.37" x2="404.37" y2="255.4"/><line class="cls-4" x1="408.24" y1="384.49" x2="408.24" y2="257.52"/><line class="cls-4" x1="344.19" y1="421.13" x2="344.19" y2="294.52"/><line class="cls-4" x1="340.32" y1="418.99" x2="340.32" y2="292.02"/><line class="cls-4" x1="404.37" y1="382.37" x2="340.32" y2="419.09"/><polygon class="cls-4" points="401.46 379.84 378.57 393.06 378.57 319.74 401.46 306.52 401.46 379.84"/><polygon class="cls-4" points="373.56 395.84 350.68 409.06 350.68 335.74 373.56 322.52 373.56 395.84"/><polygon class="cls-4" points="401.46 300.62 378.57 313.84 378.57 283.32 401.46 270.11 401.46 300.62"/><polygon class="cls-4" points="373.56 316.62 350.68 329.84 350.68 299.32 373.56 286.11 373.56 316.62"/><line class="cls-1" x1="1302.75" y1="483.37" x2="1317.06" y2="475.41"/><line class="cls-1" x1="1367.02" y1="520.03" x2="1367.02" y2="393.12"/><polyline class="cls-4" points="1317.06 394.76 1317.06 475.41 1381.11 512.13 1367.02 520.03"/><line class="cls-4" x1="1302.75" y1="356.45" x2="1320.93" y2="346.34"/><line class="cls-4" x1="1381.11" y1="512.13" x2="1384.97" y2="510.09"/><line class="cls-4" x1="1302.75" y1="483.48" x2="1320.93" y2="473.37"/><polyline class="cls-4" points="1317.06 348.49 1381.11 385.21 1367.02 393.12"/><polyline class="cls-4" points="1320.93 346.34 1384.97 383.06 1370.88 390.97"/><line class="cls-1" x1="1302.75" y1="483.31" x2="1366.8" y2="520.03"/><line class="cls-1" x1="1302.75" y1="356.4" x2="1366.8" y2="393.12"/><line class="cls-1" x1="1302.75" y1="483.37" x2="1302.75" y2="356.4"/><line class="cls-4" x1="1320.93" y1="473.37" x2="1320.93" y2="346.4"/><line class="cls-4" x1="1317.06" y1="475.48" x2="1317.06" y2="348.51"/><line class="cls-4" x1="1381.11" y1="512.13" x2="1381.11" y2="385.51"/><line class="cls-4" x1="1384.97" y1="509.98" x2="1384.97" y2="383.01"/><line class="cls-4" x1="1320.93" y1="473.37" x2="1384.97" y2="510.09"/><polygon class="cls-4" points="1323.84 470.84 1346.73 484.05 1346.73 410.73 1323.84 397.52 1323.84 470.84"/><polygon class="cls-4" points="1351.73 486.84 1374.62 500.05 1374.62 426.73 1351.73 413.52 1351.73 486.84"/><polygon class="cls-4" points="1323.84 391.62 1346.73 404.83 1346.73 374.31 1323.84 361.1 1323.84 391.62"/><polygon class="cls-4" points="1351.73 407.62 1374.62 420.83 1374.62 390.31 1351.73 377.1 1351.73 407.62"/><line class="cls-1" x1="795.44" y1="176.9" x2="781.13" y2="168.94"/><line class="cls-1" x1="731.18" y1="213.56" x2="731.18" y2="86.65"/><polyline class="cls-4" points="781.13 88.29 781.13 168.94 717.09 205.66 731.18 213.56"/><line class="cls-4" x1="795.44" y1="49.98" x2="777.27" y2="39.87"/><line class="cls-4" x1="717.09" y1="205.66" x2="713.22" y2="203.61"/><line class="cls-4" x1="795.44" y1="177.01" x2="777.27" y2="166.89"/><polyline class="cls-4" points="781.13 42.02 717.09 78.74 731.18 86.65"/><polyline class="cls-4" points="777.26 39.87 713.22 76.59 727.31 84.5"/><line class="cls-1" x1="795.44" y1="176.84" x2="731.4" y2="213.56"/><line class="cls-1" x1="795.44" y1="49.93" x2="731.4" y2="86.65"/><line class="cls-1" x1="795.44" y1="176.9" x2="795.44" y2="49.98"/><line class="cls-4" x1="777.27" y1="166.89" x2="777.27" y2="39.92"/><line class="cls-4" x1="781.13" y1="169.01" x2="781.13" y2="42.04"/><line class="cls-4" x1="717.09" y1="205.66" x2="717.09" y2="79.04"/><line class="cls-4" x1="713.22" y1="203.51" x2="713.22" y2="76.54"/><line class="cls-4" x1="777.27" y1="166.89" x2="713.22" y2="203.61"/><polygon class="cls-4" points="774.36 164.37 751.47 177.58 751.47 104.26 774.36 91.05 774.36 164.37"/><polygon class="cls-4" points="746.46 180.37 723.58 193.58 723.58 120.26 746.46 107.05 746.46 180.37"/><polygon class="cls-4" points="774.36 85.15 751.47 98.36 751.47 67.84 774.36 54.63 774.36 85.15"/><polygon class="cls-4" points="746.46 101.15 723.58 114.36 723.58 83.84 746.46 70.63 746.46 101.15"/><line class="cls-1" x1="488.25" y1="801.53" x2="488.25" y2="775.36"/><line class="cls-1" x1="661.34" y1="697.73" x2="661.34" y2="672.05"/><line class="cls-1" x1="588.59" y1="739.85" x2="588.59" y2="714.18"/><line class="cls-1" x1="580.92" y1="744.42" x2="580.92" y2="718.74"/><line class="cls-1" x1="644.95" y1="688.16" x2="645.13" y2="662.59"/><line class="cls-1" x1="661.29" y1="672" x2="644.9" y2="662.53"/><line class="cls-1" x1="1061.57" y1="287.03" x2="1083.33" y2="300.54"/><line class="cls-1" x1="1007.37" y1="453.38" x2="1023.76" y2="462.68"/><line class="cls-1" x1="200.32" y1="814.59" x2="262.88" y2="857.89"/><path class="cls-1" d="M.26,491.77"/><line class="cls-1" x1="571.39" y1="738.05" x2="793.11" y2="888.53"/><line class="cls-1" x1="517.48" y1="674.09" x2="495.32" y2="685.45"/><line class="cls-1" x1="571.39" y1="763.73" x2="571.39" y2="738.05"/><line class="cls-1" x1="1007.37" y1="479.33" x2="1007.37" y2="453.38"/><line class="cls-1" x1="969.85" y1="493.83" x2="831.51" y2="573.84"/><line class="cls-1" x1="1023.76" y1="462.68" x2="987.35" y2="483.7"/><line class="cls-1" x1="987.35" y1="483.7" x2="1007.37" y2="495.97"/><line class="cls-1" x1="969.85" y1="493.78" x2="990.6" y2="505.59"/><line class="cls-1" x1="1007.37" y1="495.97" x2="990.6" y2="505.59"/><polyline class="cls-1" points="851.89 611.45 834.86 621.28 814.39 609.46 661.34 697.7 644.95 688.23 901.83 540.05 794.69 478.2 811.45 468.52"/><polyline class="cls-1" points="1007.37 479.12 918.58 530.38 811.45 468.52"/><line class="cls-1" x1="794.6" y1="453" x2="794.6" y2="478.32"/><line class="cls-1" x1="811.45" y1="442.83" x2="811.45" y2="468.51"/><line class="cls-1" x1="901.28" y1="514.39" x2="794.98" y2="453.02"/><polyline class="cls-1" points="1007.37 453.38 918.58 504.78 811.45 442.83"/><line class="cls-1" x1="794.98" y1="453.02" x2="811.45" y2="442.83"/><line class="cls-1" x1="417.13" y1="807.56" x2="280.33" y2="869.74"/><line class="cls-1" x1="397.38" y1="506.17" x2="397.38" y2="606.32"/><line class="cls-1" x1="381.8" y1="515.82" x2="381.8" y2="615.38"/><line class="cls-9" x1="812.08" y1="0.5" x2="1123.13" y2="180.09"/><line class="cls-9" x1="590.72" y1="360.66" x2="721.1" y2="435.71"/><line class="cls-9" x1="1083.33" y1="300.54" x2="1145.09" y2="192.76"/><polyline class="cls-9" points="1378.09 327.31 1225.85 593 1176.89 593"/><line class="cls-9" x1="1061.62" y1="287.03" x2="1122.84" y2="180.09"/><line class="cls-9" x1="590.72" y1="127.48" x2="281.74" y2="305.89"/><line class="cls-9" x1="265.87" y1="315.04" x2="0.5" y2="468.73"/><line class="cls-9" x1="590.72" y1="360.66" x2="281.51" y2="539.4"/><line class="cls-9" x1="590.72" y1="360.66" x2="520.28" y2="401.38"/><line class="cls-9" x1="812.08" y1="232.7" x2="607.66" y2="350.86"/><line class="cls-9" x1="812.08" y1="0.5" x2="607.66" y2="118.56"/><path class="cls-1" d="M1145.09,192.76"/><line class="cls-9" x1="200.32" y1="814.59" x2="0.76" y2="468.93"/><line class="cls-9" x1="381.8" y1="515.82" x2="265.88" y2="315.04"/><line class="cls-9" x1="397.38" y1="506.17" x2="281.74" y2="305.89"/><line class="cls-9" x1="737.92" y1="426.06" x2="737.85" y2="343.95"/><line class="cls-1" x1="721.1" y1="353.6" x2="721.1" y2="435.39"/><line class="cls-9" x1="721.1" y1="353.6" x2="590.72" y2="127.44"/><line class="cls-9" x1="737.85" y1="343.95" x2="607.68" y2="118.58"/></g></g></svg>