<svg xmlns="http://www.w3.org/2000/svg" viewBox="0 0 377.28 351.66"><defs><style>.cls-1,.cls-3{fill:none;}.cls-1,.cls-2{stroke:#000;}.cls-1,.cls-2,.cls-3{stroke-miterlimit:10;stroke-width:6.32px;}.cls-2{fill:#fff;}.cls-3{stroke:#ffde07;}</style></defs><title>ux_audyt</title><g id="Warstwa_2" data-name="Warstwa 2"><g id="Layer_1" data-name="Layer 1"><polyline class="cls-1" points="36.96 120.25 24.34 133.19 17.39 126.25"/><polyline class="cls-1" points="375.02 184.39 362.39 197.34 355.45 190.4"/><polyline class="cls-1" points="342.96 7 330.33 19.95 323.39 13.01"/><line class="cls-2" x1="358.26" y1="82.06" x2="372.21" y2="97.25"/><line class="cls-2" x1="357.64" y1="96.63" x2="372.83" y2="82.68"/><line class="cls-2" x1="29.98" y1="296.03" x2="43.94" y2="311.22"/><line class="cls-2" x1="29.37" y1="310.6" x2="44.56" y2="296.65"/><line class="cls-2" x1="60.45" y1="13.47" x2="81.07" y2="13.47"/><line class="cls-2" x1="70.76" y1="23.79" x2="70.76" y2="3.16"/><line class="cls-2" y1="89.66" x2="94.57" y2="89.66"/><rect class="cls-2" x="66.62" y="77.67" width="10.92" height="23.98"/><path class="cls-2" d="M336.73,279V126.76H88.88l-15.29,0L74,141.6V279Z"/><path class="cls-2" d="M338.31,280.07H73.49V125.69H338.31Z"/><rect class="cls-2" x="73.69" y="279" width="263.4" height="22.55"/><path class="cls-2" d="M338.31,302.62H73.49v-24.7H338.31Z"/><path class="cls-2" d="M167.15,335.31h76.47l-4.52-31.69H171.68Z"/><path class="cls-2" d="M269.78,348.5c0-.17,0-.32,0-.48a11.64,11.64,0,0,0-11.64-11.64H152.6A11.63,11.63,0,0,0,141,348c0,.16,0,.32,0,.48Z"/><path class="cls-2" d="M302.76,265H107V3.16H302.76V265Z"/><line class="cls-2" x1="209.03" y1="290.14" x2="201.29" y2="290.14"/><rect class="cls-2" x="163.29" y="64.24" width="84.2" height="150.13"/><line class="cls-2" x1="127.88" y1="81.95" x2="282.9" y2="81.95"/><line class="cls-2" x1="202.03" y1="72.98" x2="216.3" y2="72.98"/><line class="cls-2" x1="127.88" y1="195.25" x2="282.9" y2="195.25"/><line class="cls-2" x1="270.74" y1="208.19" x2="270.74" y2="70.42"/><line class="cls-2" x1="140.07" y1="208.19" x2="140.07" y2="70.42"/><line class="cls-2" x1="198.95" y1="72.98" x2="193.47" y2="72.98"/><line class="cls-2" x1="210.23" y1="205.02" x2="201.97" y2="205.02"/><rect class="cls-2" x="174.44" y="91.78" width="18.05" height="18.05"/><line class="cls-3" x1="239.49" y1="93.26" x2="202.43" y2="93.26"/><line class="cls-3" x1="239.49" y1="109.51" x2="202.43" y2="109.51"/><line class="cls-3" x1="240.04" y1="125.06" x2="171.55" y2="125.06"/><line class="cls-3" x1="240.04" y1="140.4" x2="171.55" y2="140.4"/><line class="cls-3" x1="240.34" y1="155.91" x2="171.85" y2="155.91"/><line class="cls-3" x1="240.34" y1="171.24" x2="171.85" y2="171.24"/></g></g></svg>