<svg xmlns="http://www.w3.org/2000/svg" viewBox="0 0 61.2 65"><defs><style>.cls-1,.cls-2{fill:none;}.cls-1{stroke:#000;stroke-miterlimit:10;}.cls-3{isolation:isolate;font-size:20px;font-family:ProximaNova-Light, Proxima Nova;}</style></defs><title>Zasób 5</title><g id="Warstwa_2" data-name="Warstwa 2"><g id="Warstwa_1-2" data-name="Warstwa 1"><path class="cls-1" d="M46.1,35.3A14.6,14.6,0,1,0,60.7,49.9,14.55,14.55,0,0,0,46.1,35.3Z"/><polyline class="cls-1" points="24.4 41.2 15.1 33.9 5.8 41.2"/><rect x="14.6" y="36.9" width="1" height="28.1"/><rect x="45.7" width="1" height="28.7"/><path class="cls-1" d="M15.1,1A14.6,14.6,0,1,0,29.7,15.6,14.55,14.55,0,0,0,15.1,1Z"/><rect class="cls-2" x="9" y="9" width="21.8" height="19.5"/><text class="cls-3" transform="translate(9.03 22.34)">E</text><rect class="cls-2" x="40.1" y="43" width="12.1" height="19.5"/><text class="cls-3" transform="translate(40.3 56.32)">$</text><polyline class="cls-1" points="36.9 24.1 46.2 31.4 55.5 24.1"/></g></g></svg>