<svg xmlns="http://www.w3.org/2000/svg" viewBox="0 0 237.49 259.12"><defs><style>.cls-1{fill:none;}.cls-1,.cls-2{stroke:#282828;stroke-miterlimit:10;stroke-width:6.32px;}.cls-2{fill:#fff;}</style></defs><title>zadanie</title><g id="Warstwa_2" data-name="Warstwa 2"><g id="Warstwa_1-2" data-name="Warstwa 1"><path class="cls-1" d="M185.77,182.73l-67,46.37-67-46.37L30.4,59.77l88.35-30.22,88.35,30.22Z"/><path class="cls-2" d="M107.11,121.35c-1-.65-10.34-7.25-10.48-18.16-.07-11.13,9.55-22.11,22.11-22.11s22.26,11,22.11,22.11c-.07,10.91-9.48,17.52-10.48,18.16,2.87,14.72,5.67,29.36,8.54,44.08-13.5.07-26.92.07-40.42.14Q102.81,143.39,107.11,121.35Z"/><path class="cls-1" d="M118.75,129.32"/><path class="cls-1" d="M206.11,196.73l-87.37,58.58L31.38,196.73,3.59,41.52,118.75,3.33,233.9,41.52Z"/></g></g></svg>