<svg xmlns="http://www.w3.org/2000/svg" viewBox="0 0 62.89 65"><defs><style>.cls-1,.cls-3{fill:none;}.cls-2{fill:#ceab19;}.cls-3{stroke:#000;stroke-miterlimit:10;}</style></defs><title>Zasób 7</title><g id="Warstwa_2" data-name="Warstwa 2"><g id="Warstwa_1-2" data-name="Warstwa 1"><polygon class="cls-1" points="32.5 3.6 32.5 12.2 41.1 12.2 32.5 3.6"/><path class="cls-1" d="M55,24.5l1-.3,6.5-11a1.93,1.93,0,0,0,.1-2.2L56.5,21.5l-2,3.4A.66.66,0,0,1,55,24.5Z"/><polygon class="cls-1" points="33.4 46.6 37.8 49.2 54.3 21.1 49.9 18.6 33.4 46.6"/><path class="cls-1" d="M60.1,6A3.58,3.58,0,0,0,59,5.6a1.81,1.81,0,0,0-2.1.8l-6,10.5,4.4,2.5L61.5,8.9V8.8a1.71,1.71,0,0,0-.4-2.1A2.55,2.55,0,0,0,60.1,6Z"/><rect x="6.1" y="17.3" width="32.5" height="2"/><rect x="6.1" y="29.5" width="21.7" height="2"/><rect x="22.4" y="58.9" width="13.2" height="2"/><rect x="6.1" y="21.3" width="32.5" height="2"/><rect x="6.1" y="25.4" width="32.5" height="2"/><path d="M34.5,51.4"/><rect class="cls-2" x="43.6" y="62.3" width="1" height="1"/><rect class="cls-3" x="25.83" y="29.33" width="32.9" height="7.2" transform="translate(-7.48 52.85) rotate(-59.72)"/><rect class="cls-3" x="47.15" y="9.17" width="13.9" height="7.2" transform="translate(15.8 53.05) rotate(-59.72)"/><polyline class="cls-3" points="37 49.2 28.8 56 30.8 45.5"/><path d="M43.6,36.6V64H1.1V1H31.5V13.1H43.7V24.5h0l1.1-1.8V12.8l-.3-.3L32.2.3,31.9,0H0V65H44.6V64c0-9.7,0-19.4.1-29.1ZM42.5,12.2h-10V2C35.9,5.4,39.2,8.8,42.5,12.2ZM44.1,50h0V42.3h0Z"/></g></g></svg>