<svg xmlns="http://www.w3.org/2000/svg" viewBox="0 0 89 65.1"><defs><style>.cls-1{fill:none;stroke:#000;stroke-miterlimit:10;}</style></defs><title>Zasób 8</title><g id="Warstwa_2" data-name="Warstwa 2"><g id="Warstwa_1-2" data-name="Warstwa 1"><rect x="5.1" y="4.7" width="61.2" height="1.9"/><rect x="5.1" y="9.7" width="46.2" height="2"/><rect x="5.1" y="14.7" width="53.7" height="2"/><rect x="5.1" y="20" width="30.6" height="2"/><rect x="73.3" y="22.5" width="9.5" height="2"/><rect x="73.3" y="27.8" width="11.2" height="2"/><rect x="73.3" y="32.8" width="6.3" height="2"/><rect x="73.3" y="37.2" width="4.8" height="2"/><rect x="73.3" y="42.2" width="2.8" height="2"/><rect x="5.1" y="25" width="13.1" height="2"/><rect x="5.1" y="30" width="53.7" height="2"/><rect x="5.1" y="35.3" width="53.7" height="2"/><path class="cls-1" d="M8.8,47.2V62.4L24.1,47.2H73.3V.5H.5V47.2Z"/><path class="cls-1" d="M72.7,18.4H88.5V52.7H82.4V63.9L71.1,52.7H35V46.9"/></g></g></svg>