<svg xmlns="http://www.w3.org/2000/svg" viewBox="0 0 86.04 87.64"><defs><style>.cls-1{fill:none;stroke:#282828;stroke-miterlimit:10;stroke-width:6.32px;}</style></defs><title>ksiegowanie</title><g id="Warstwa_2" data-name="Warstwa 2"><g id="Warstwa_1-2" data-name="Warstwa 1"><polygon class="cls-1" points="12.32 35.75 82.87 35.84 82.7 84.47 12.15 84.22 12.21 66.86 22.13 66.89 22.18 53 12.26 52.96 12.32 35.75"/><polyline class="cls-1" points="12.26 52.96 3.22 52.93 3.17 66.83 12.21 66.86"/><polyline class="cls-1" points="12.21 66.86 22.13 66.89 22.18 53 12.26 52.96"/><polyline class="cls-1" points="32.86 11.16 33.01 11.02 26.5 4.47 19.81 11.12 14.74 16.16 4.6 26.22 14.11 35.72"/><polyline class="cls-1" points="70.45 35.57 44.45 9.44 37.9 15.95"/><polyline class="cls-1" points="57.61 35.72 33.16 11.16 33.01 11.02 32.86 11.16"/></g></g></svg>