<svg xmlns="http://www.w3.org/2000/svg" viewBox="0 0 55.95 55.95"><defs><style>.cls-1{isolation:isolate;font-size:20.69px;font-family:ProximaNova-Light, Proxima Nova;}.cls-2{fill:none;stroke:#000;stroke-miterlimit:10;}</style></defs><title>ZasoÌb 11</title><g id="Warstwa_2" data-name="Warstwa 2"><g id="Warstwa_1-2" data-name="Warstwa 1"><text class="cls-1" transform="translate(22.06 34.54)">$</text><rect class="cls-2" x="23.96" y="0.5" width="8.28" height="8.28"/><rect class="cls-2" x="47.17" y="23.92" width="8.28" height="8.28"/><rect class="cls-2" x="23.96" y="47.17" width="8.28" height="8.28"/><rect class="cls-2" x="0.5" y="23.92" width="8.28" height="8.28"/><rect class="cls-2" x="7.21" y="7.44" width="8.28" height="8.28"/><rect class="cls-2" x="7.27" y="40.42" width="8.28" height="8.28"/><rect class="cls-2" x="40.01" y="40.61" width="8.28" height="8.28"/><rect class="cls-2" x="41.04" y="7.85" width="8.28" height="8.28"/><line class="cls-2" x1="28.1" y1="8.78" x2="28.1" y2="14"/><line class="cls-2" x1="28.1" y1="42.13" x2="28.1" y2="47.36"/><line class="cls-2" x1="8.8" y1="28.06" x2="14.02" y2="28.06"/><line class="cls-2" x1="41.95" y1="28.06" x2="47.17" y2="28.06"/><line class="cls-2" x1="37.35" y1="19.82" x2="41.04" y2="16.13"/><line class="cls-2" x1="15.49" y1="40.61" x2="19.18" y2="36.91"/><line class="cls-2" x1="40.01" y1="40.61" x2="36.31" y2="36.91"/><line class="cls-2" x1="19.18" y1="19.42" x2="15.49" y2="15.72"/></g></g></svg>