<svg xmlns="http://www.w3.org/2000/svg" viewBox="0 0 494.69 257.01"><defs><style>.cls-1{fill:none;stroke:#282828;stroke-miterlimit:10;stroke-width:6.32px;}</style></defs><title>wdrazanie</title><g id="Warstwa_2" data-name="Warstwa 2"><g id="Warstwa_1-2" data-name="Warstwa 1"><line class="cls-1" x1="128.99" y1="203.22" x2="205.23" y2="203.22"/><line class="cls-1" x1="269.29" y1="203.22" x2="205.23" y2="203.22"/><polyline class="cls-1" points="62.57 90.56 62.57 3.16 347.88 3.16 347.88 90.61"/><polyline class="cls-1" points="62.57 100.11 3.16 100.11 3.16 253.22 119.5 253.22 119.5 203.22"/><polyline class="cls-1" points="62.57 100.11 119.5 100.11 119.5 203.22"/><polyline class="cls-1" points="278.79 203.22 278.79 100.11 347.88 100.11"/><polyline class="cls-1" points="278.79 203.22 278.79 239.87 315.86 239.87"/><polyline class="cls-1" points="347.88 100.11 491.53 100.11 491.53 239.87 379.87 239.87"/><polyline class="cls-1" points="325.38 239.87 325.38 253.22 370.39 253.22 370.39 239.87"/><polyline class="cls-1" points="370.39 239.87 370.39 160.29 347.88 160.29"/><line class="cls-1" x1="325.38" y1="239.87" x2="325.38" y2="203.22"/><polyline class="cls-1" points="325.38 203.22 325.38 160.29 347.88 160.29"/><line class="cls-1" x1="205.23" y1="203.22" x2="205.23" y2="253.22"/><line class="cls-1" x1="167.56" y1="253.85" x2="242.89" y2="253.85"/><line class="cls-1" x1="379.87" y1="253.22" x2="494.52" y2="253.22"/><line class="cls-1" x1="275.19" y1="253.22" x2="315.86" y2="253.22"/></g></g></svg>