<svg xmlns="http://www.w3.org/2000/svg" viewBox="0 0 65.1 64"><title>Zasób 2</title><g id="Warstwa_2" data-name="Warstwa 2"><g id="Warstwa_1-2" data-name="Warstwa 1"><polygon points="4.21 59.91 4.21 58.7 4.2 58.7 4.2 0 3.2 0 3.2 8.9 0 8.9 0 11 3.2 11 3.2 18.9 0 18.9 0 21 3.2 21 3.2 28.8 0 28.8 0 30.9 3.2 30.9 3.2 38.8 0 38.8 0 40.9 3.2 40.9 3.2 48.8 0 48.8 0 50.9 3.2 50.9 3.2 60.9 19.8 60.9 19.8 64 21.9 64 21.9 60.9 46.3 60.9 46.3 63.9 48.5 63.9 48.5 60.9 65.1 60.9 65.1 59.91 4.21 59.91"/><path d="M31.39,54.8V38.11H22.2V27H9.1V54.8h1V28H21.2V54.9h1q0-7.9,0-15.79H30.4V54.8Z"/><polygon points="48.44 18.07 47.78 18.07 47.44 18.07 47.44 8.1 37.15 8.1 37.15 54.8 38.15 54.8 38.15 9.2 46.45 9.2 46.45 54.8 47.44 54.8 47.44 19.38 47.44 19.21 47.44 19.2 48.65 19.2 48.78 19.2 57.55 19.2 57.55 54.9 58.65 54.9 58.65 18.07 48.44 18.07"/></g></g></svg>