<svg xmlns="http://www.w3.org/2000/svg" viewBox="0 0 647.75 550.46"><defs><style>.cls-1{fill:#ffde07;}.cls-2{fill:none;stroke:#ffde07;stroke-miterlimit:10;stroke-width:6.32px;}.cls-3{fill:#282828;}</style></defs><title>kantor_schemat_1</title><g id="Warstwa_2" data-name="Warstwa 2"><g id="Warstwa_1-2" data-name="Warstwa 1"><path class="cls-1" d="M100.16,147.66l-64.8-37.34.39-72.47L100.4,0l64.06,37.74-.13,73Zm-58.46-41,58.46,33.69L158,107l.12-65.69-57.74-34L42,41.49Z"/><path class="cls-2" d="M167.65,84.58"/><path class="cls-3" d="M80.14,104l1,1.26-3.92,3.14-1.32-1.65a11.08,11.08,0,0,1-3.67.59c-5.77,0-10.22-3.92-10.22-9.66S66.48,88,72.25,88s10.22,3.92,10.22,9.66A9.34,9.34,0,0,1,80.14,104Zm-7.73-1.65-1.54-1.93,3.92-3.14,1.65,2.1a5,5,0,0,0,.28-1.71,4.48,4.48,0,1,0-4.48,4.68Z"/><path class="cls-3" d="M84.48,88.29h8.34c5.88,0,10.25,3.36,10.25,9.32S98.71,107,92.85,107H84.48ZM92.83,102a4.32,4.32,0,0,0,4.51-4.42c0-2.52-1.46-4.4-4.48-4.4H90.14V102Z"/><path class="cls-3" d="M105.09,88.29h10c4.37,0,6.72,2.91,6.72,6.41s-2.35,6.27-6.72,6.27h-4.31v6h-5.66Zm9.24,4.7h-3.58v3.28h3.58a1.64,1.64,0,1,0,0-3.28Z"/><path class="cls-3" d="M125.14,100.14a8.7,8.7,0,0,0,6,2.41c1.06,0,2.07-.36,2.07-1.09s-.78-1.09-2.63-1.43c-3.08-.56-7.78-1.29-7.78-6,0-3.16,2.63-6,7.76-6a12.32,12.32,0,0,1,7.92,2.6l-3,4a9.29,9.29,0,0,0-5.21-1.85c-1.4,0-1.71.5-1.71,1,0,.73.76,1,2.74,1.32,3.08.53,7.64,1.43,7.64,5.74,0,4.12-3.05,6.5-8.06,6.5a12.31,12.31,0,0,1-8.68-3Z"/><path class="cls-3" d="M299.9,98.39c0-5.77,4.42-9.66,10.14-9.66a8.78,8.78,0,0,1,8.62,5.43l-4.87,2.27A4,4,0,0,0,310,93.71a4.68,4.68,0,0,0,0,9.35,4,4,0,0,0,3.75-2.72l4.87,2.24A8.88,8.88,0,0,1,310,108C304.33,108,299.9,104.13,299.9,98.39Z"/><path class="cls-3" d="M329.64,88.73c5.77,0,10.22,3.92,10.22,9.66S335.41,108,329.64,108s-10.22-3.92-10.22-9.66S323.87,88.73,329.64,88.73Zm0,5a4.68,4.68,0,1,0,4.48,4.68A4.42,4.42,0,0,0,329.64,93.71Z"/><path class="cls-3" d="M358.4,95.93l-4.17,11.79H351.7l-4.17-11.79v11.79h-5.66V89h7.81L353,98.56,356.24,89h7.81v18.68H358.4Z"/><path class="cls-3" d="M368.59,100.88a8.7,8.7,0,0,0,6,2.41c1.06,0,2.07-.36,2.07-1.09s-.78-1.09-2.63-1.43c-3.08-.56-7.78-1.29-7.78-6,0-3.16,2.63-6,7.76-6a12.32,12.32,0,0,1,7.92,2.6l-3,4a9.29,9.29,0,0,0-5.21-1.85c-1.4,0-1.71.5-1.71,1,0,.73.76,1,2.74,1.32,3.08.53,7.64,1.43,7.64,5.74,0,4.12-3.05,6.5-8.06,6.5a12.31,12.31,0,0,1-8.68-3Z"/><path class="cls-3" d="M534.58,62.25l-1.63,5.27h-2.18l-2.35-7.73h2.11L532,65l1.7-5.2h1.81l1.7,5.2,1.44-5.2h2.11l-2.35,7.73h-2.16Z"/><path class="cls-3" d="M542.4,68.85a1,1,0,0,0,1.07-.56l.29-.66-3.14-7.84h2.18l2,5.38,2-5.38H549l-3.63,9a2.81,2.81,0,0,1-2.93,1.87,5.61,5.61,0,0,1-1-.11l.3-1.83A1.76,1.76,0,0,0,542.4,68.85Z"/><path class="cls-3" d="M549.93,56.84h2V67.52h-2Z"/><path class="cls-3" d="M553.77,57.43A1.22,1.22,0,1,1,555,58.65,1.23,1.23,0,0,1,553.77,57.43Zm.21,2.35h2v7.73h-2Z"/><path class="cls-3" d="M561.63,59.59A3.56,3.56,0,0,1,564.69,61l-1.33,1.23a1.91,1.91,0,0,0-1.63-.83,2.25,2.25,0,0,0,0,4.5,2,2,0,0,0,1.63-.83l1.33,1.23a3.56,3.56,0,0,1-3.06,1.41,4.06,4.06,0,1,1,0-8.12Z"/><path class="cls-3" d="M565.68,66l3.49-4.43h-3.49V59.79h6.24v1.47l-3.54,4.48H572v1.78h-6.31Z"/><path class="cls-3" d="M577.18,59.59c2.3,0,3.87,1.73,3.87,4.26v.45h-5.75a2.08,2.08,0,0,0,2.23,1.79,3.16,3.16,0,0,0,2.06-.77l.9,1.31a4.77,4.77,0,0,1-3.19,1.07,4.06,4.06,0,1,1-.13-8.12Zm-1.9,3.33h3.81a1.79,1.79,0,0,0-1.91-1.71A1.86,1.86,0,0,0,575.28,62.92Z"/><path class="cls-3" d="M587.74,62.84a1.25,1.25,0,0,0-1.42-1.44,2.2,2.2,0,0,0-1.76.91v5.2h-2V59.79h2v1a3.54,3.54,0,0,1,2.71-1.2,2.25,2.25,0,0,1,2.51,2.46v5.46h-2Z"/><path class="cls-3" d="M591.58,57.43a1.22,1.22,0,1,1,1.22,1.22A1.23,1.23,0,0,1,591.58,57.43Zm.21,2.35h2v7.73h-2Z"/><path class="cls-3" d="M599.34,59.59c2.3,0,3.87,1.73,3.87,4.26v.45h-5.75a2.08,2.08,0,0,0,2.23,1.79,3.16,3.16,0,0,0,2.06-.77l.9,1.31a4.77,4.77,0,0,1-3.19,1.07,4.06,4.06,0,1,1-.13-8.12Zm-1.9,3.33h3.81a1.79,1.79,0,0,0-1.91-1.71A1.86,1.86,0,0,0,597.44,62.92Z"/><path class="cls-3" d="M524.73,78.79a3.56,3.56,0,0,1,3.06,1.41l-1.33,1.23a1.91,1.91,0,0,0-1.63-.83,2.25,2.25,0,0,0,0,4.5,2,2,0,0,0,1.63-.83l1.33,1.23a3.56,3.56,0,0,1-3.06,1.41,4.06,4.06,0,1,1,0-8.12Z"/><path class="cls-3" d="M532.62,78.79c2.3,0,3.87,1.73,3.87,4.26v.45h-5.75A2.08,2.08,0,0,0,533,85.29a3.16,3.16,0,0,0,2.06-.77l.9,1.31a4.77,4.77,0,0,1-3.19,1.07,4.06,4.06,0,1,1-.13-8.12Zm-1.9,3.33h3.81a1.79,1.79,0,0,0-1.91-1.71A1.86,1.86,0,0,0,530.72,82.12Z"/><path class="cls-3" d="M543.18,82a1.25,1.25,0,0,0-1.42-1.44,2.2,2.2,0,0,0-1.76.91v5.2h-2V79h2v1a3.54,3.54,0,0,1,2.71-1.2,2.25,2.25,0,0,1,2.51,2.46v5.46h-2Z"/><path class="cls-3" d="M547.9,88a1,1,0,0,0,1.07-.56l.29-.66L546.13,79h2.18l2,5.38,2-5.38h2.19l-3.63,9A2.81,2.81,0,0,1,548,89.86a5.61,5.61,0,0,1-1-.11l.3-1.83A1.76,1.76,0,0,0,547.9,88Z"/><path class="cls-3" d="M560,80.76H558.7V79H560v-.42a2.49,2.49,0,0,1,2.61-2.69,3.3,3.3,0,0,1,1.47.32l-.42,1.47a1.14,1.14,0,0,0-.66-.19c-.58,0-1,.38-1,1.09V79h1.57v1.78H562v6h-2Zm4.58-4.13a1.22,1.22,0,1,1,1.22,1.22A1.23,1.23,0,0,1,564.56,76.63Zm.21,2.35h2v7.73h-2Z"/><path class="cls-3" d="M574,82a1.25,1.25,0,0,0-1.42-1.44,2.2,2.2,0,0,0-1.76.91v5.2h-2V79h2v1a3.54,3.54,0,0,1,2.71-1.2,2.25,2.25,0,0,1,2.51,2.46v5.46h-2Z"/><path class="cls-3" d="M582.72,85.92a3.2,3.2,0,0,1-2.45,1,2.58,2.58,0,0,1-2.69-2.56,2.45,2.45,0,0,1,2.69-2.46,3.13,3.13,0,0,1,2.45.94V81.76c0-.78-.67-1.3-1.7-1.3a3.25,3.25,0,0,0-2.26.91L578,80a5.07,5.07,0,0,1,3.38-1.22c1.76,0,3.38.7,3.38,2.93v5h-2Zm0-2a2,2,0,0,0-1.63-.67c-.8,0-1.46.43-1.46,1.17s.66,1.14,1.46,1.14a2,2,0,0,0,1.63-.67Z"/><path class="cls-3" d="M586.76,76h2V86.72h-2Z"/><path class="cls-3" d="M596,82a1.25,1.25,0,0,0-1.42-1.44,2.2,2.2,0,0,0-1.76.91v5.2h-2V79h2v1a3.54,3.54,0,0,1,2.71-1.2,2.25,2.25,0,0,1,2.51,2.46v5.46h-2Z"/><path class="cls-3" d="M603.58,78.79c2.3,0,3.87,1.73,3.87,4.26v.45h-5.75a2.08,2.08,0,0,0,2.23,1.79,3.16,3.16,0,0,0,2.06-.77l.9,1.31a4.77,4.77,0,0,1-3.19,1.07,4.06,4.06,0,1,1-.13-8.12Zm-1.9,3.33h3.81a1.79,1.79,0,0,0-1.91-1.71A1.86,1.86,0,0,0,601.68,82.12Z"/><path class="cls-3" d="M611,86.93c0,1.76-.9,2.93-2.75,2.93a4.35,4.35,0,0,1-.88-.08l.13-1.67a2.11,2.11,0,0,0,.45,0c.59,0,1-.37,1-1.23V79h2Zm-2.24-10.29a1.22,1.22,0,1,1,1.22,1.22A1.23,1.23,0,0,1,608.72,76.63Z"/><path class="cls-3" d="M0,462.4H2v1.06a3.31,3.31,0,0,1,2.46-1.23v2a2.75,2.75,0,0,0-.56,0A2.58,2.58,0,0,0,2,465v5.11H0Z"/><path class="cls-3" d="M9.26,462.21c2.3,0,3.87,1.73,3.87,4.26v.45H7.39a2.08,2.08,0,0,0,2.23,1.79,3.16,3.16,0,0,0,2.06-.77l.9,1.31a4.77,4.77,0,0,1-3.19,1.07,4.06,4.06,0,1,1-.13-8.12Zm-1.9,3.33h3.81a1.79,1.79,0,0,0-1.91-1.71A1.86,1.86,0,0,0,7.36,465.54Z"/><path class="cls-3" d="M14.27,468.61l3.49-4.43H14.27V462.4h6.24v1.47L17,468.36h3.6v1.78H14.27Z"/><path class="cls-3" d="M25.78,462.21c2.3,0,3.87,1.73,3.87,4.26v.45H23.9a2.08,2.08,0,0,0,2.23,1.79,3.16,3.16,0,0,0,2.06-.77l.9,1.31a4.77,4.77,0,0,1-3.19,1.07,4.06,4.06,0,1,1-.13-8.12Zm-1.9,3.33h3.81a1.79,1.79,0,0,0-1.91-1.71A1.86,1.86,0,0,0,23.87,465.54Z"/><path class="cls-3" d="M31.12,462.4h2v1.06a3.31,3.31,0,0,1,2.46-1.23v2a2.75,2.75,0,0,0-.56,0,2.58,2.58,0,0,0-1.91.86v5.11h-2Z"/><path class="cls-3" d="M42,464.87l-1.63,5.27H38.22l-2.35-7.73H38l1.44,5.2,1.7-5.2h1.81l1.7,5.2,1.44-5.2h2.11l-2.35,7.73H43.67Z"/><path class="cls-3" d="M53.82,469.33a3.2,3.2,0,0,1-2.45,1,2.58,2.58,0,0,1-2.69-2.56,2.45,2.45,0,0,1,2.69-2.46,3.13,3.13,0,0,1,2.45.94v-1.07c0-.78-.67-1.3-1.7-1.3a3.25,3.25,0,0,0-2.26.91l-.77-1.36a5.07,5.07,0,0,1,3.38-1.22c1.76,0,3.38.7,3.38,2.93v5h-2Zm0-2a2,2,0,0,0-1.63-.67c-.8,0-1.46.43-1.46,1.17s.66,1.14,1.46,1.14a2,2,0,0,0,1.63-.67Z"/><path class="cls-3" d="M61.47,462.21a3.56,3.56,0,0,1,3.06,1.41l-1.33,1.23a1.91,1.91,0,0,0-1.63-.83,2.25,2.25,0,0,0,0,4.5,2,2,0,0,0,1.63-.83l1.33,1.23a3.56,3.56,0,0,1-3.06,1.41,4.06,4.06,0,1,1,0-8.12Z"/><path class="cls-3" d="M67.89,470.34c0,1.76-.9,2.93-2.75,2.93a4.35,4.35,0,0,1-.88-.08l.13-1.67a2.11,2.11,0,0,0,.45,0c.59,0,1-.37,1-1.23V462.4h2Zm-2.24-10.29a1.22,1.22,0,1,1,1.22,1.22A1.23,1.23,0,0,1,65.65,460.05Z"/><path class="cls-3" d="M74.54,469.33a3.2,3.2,0,0,1-2.45,1,2.58,2.58,0,0,1-2.69-2.56,2.45,2.45,0,0,1,2.69-2.46,3.13,3.13,0,0,1,2.45.94v-1.07c0-.78-.67-1.3-1.7-1.3a3.25,3.25,0,0,0-2.26.91l-.77-1.36a5.07,5.07,0,0,1,3.38-1.22c1.76,0,3.38.7,3.38,2.93v5h-2Zm0-2a2,2,0,0,0-1.63-.67c-.8,0-1.46.43-1.46,1.17s.66,1.14,1.46,1.14a2,2,0,0,0,1.63-.67Z"/><path class="cls-3" d="M85.65,467.16l-.93,1v2h-2V459.46h2v6.39l2.93-3.44h2.5l-3.06,3.51,3.15,4.23H87.7Z"/><path class="cls-3" d="M96.4,464.87l-1.63,5.27H92.59l-2.35-7.73h2.11l1.44,5.2,1.7-5.2H97.3l1.7,5.2,1.44-5.2h2.11l-2.35,7.73H98Z"/><path class="cls-3" d="M103.05,466.26a4.09,4.09,0,1,1,4.08,4.07A3.92,3.92,0,0,1,103.05,466.26Zm6.07,0a2,2,0,1,0-2,2.26A2,2,0,0,0,109.12,466.26Z"/><path class="cls-3" d="M113.13,468.21v-4h-1.28V462.4h1.28v-2.11h2v2.11h1.57v1.78h-1.57v3.49c0,.48.26.85.71.85a1.11,1.11,0,0,0,.7-.22l.43,1.54a2.51,2.51,0,0,1-1.7.5A1.93,1.93,0,0,1,113.13,468.21Z"/><path class="cls-3" d="M118.81,471.46a1,1,0,0,0,1.07-.56l.29-.66L117,462.4h2.18l2,5.38,2-5.38h2.19l-3.63,9a2.81,2.81,0,0,1-2.93,1.87,5.61,5.61,0,0,1-1-.11l.3-1.83A1.76,1.76,0,0,0,118.81,471.46Z"/><path class="cls-3" d="M23.34,484.66a1.25,1.25,0,0,0-1.42-1.44,2.2,2.2,0,0,0-1.76.91v5.2h-2V481.6h2v1a3.54,3.54,0,0,1,2.71-1.2,2.25,2.25,0,0,1,2.51,2.46v5.46h-2Z"/><path class="cls-3" d="M32,488.53a3.2,3.2,0,0,1-2.45,1A2.58,2.58,0,0,1,26.89,487a2.45,2.45,0,0,1,2.69-2.46,3.13,3.13,0,0,1,2.45.94v-1.07c0-.78-.67-1.3-1.7-1.3a3.25,3.25,0,0,0-2.26.91l-.77-1.36a5.07,5.07,0,0,1,3.38-1.22c1.76,0,3.38.7,3.38,2.93v5H32Zm0-2a2,2,0,0,0-1.63-.67c-.8,0-1.46.43-1.46,1.17s.66,1.14,1.46,1.14a2,2,0,0,0,1.63-.67Z"/><path class="cls-3" d="M40.17,481.6h2v1.06a3.31,3.31,0,0,1,2.46-1.23v2a2.75,2.75,0,0,0-.56,0,2.58,2.58,0,0,0-1.91.86v5.11h-2Z"/><path class="cls-3" d="M50.57,488.53a3.2,3.2,0,0,1-2.45,1A2.58,2.58,0,0,1,45.43,487a2.45,2.45,0,0,1,2.69-2.46,3.13,3.13,0,0,1,2.45.94v-1.07c0-.78-.67-1.3-1.7-1.3a3.25,3.25,0,0,0-2.26.91l-.77-1.36a5.07,5.07,0,0,1,3.38-1.22c1.76,0,3.38.7,3.38,2.93v5h-2Zm0-2a2,2,0,0,0-1.63-.67c-.8,0-1.46.43-1.46,1.17s.66,1.14,1.46,1.14a2,2,0,0,0,1.63-.67Z"/><path class="cls-3" d="M58.21,481.41a3.56,3.56,0,0,1,3.06,1.41l-1.33,1.23a1.91,1.91,0,0,0-1.63-.83,2.25,2.25,0,0,0,0,4.5,2,2,0,0,0,1.63-.83l1.33,1.23a3.56,3.56,0,0,1-3.06,1.41,4.06,4.06,0,1,1,0-8.12Z"/><path class="cls-3" d="M67.83,484.63c0-1.07-.56-1.41-1.44-1.41a2.25,2.25,0,0,0-1.76.91v5.2h-2V478.66h2v4a3.58,3.58,0,0,1,2.72-1.2,2.23,2.23,0,0,1,2.51,2.43v5.49h-2Z"/><path class="cls-3" d="M77.1,488.36a3.62,3.62,0,0,1-2.72,1.17,2.21,2.21,0,0,1-2.5-2.43V481.6h2v4.69a1.24,1.24,0,0,0,1.42,1.42,2.28,2.28,0,0,0,1.76-.88V481.6h2v7.73h-2Z"/><path class="cls-3" d="M86.36,484.66a1.25,1.25,0,0,0-1.42-1.44,2.2,2.2,0,0,0-1.76.91v5.2h-2V481.6h2v1a3.54,3.54,0,0,1,2.71-1.2,2.25,2.25,0,0,1,2.51,2.46v5.46h-2Z"/><path class="cls-3" d="M93.37,486.36l-.93,1v2h-2V478.66h2V485l2.93-3.44h2.5l-3.06,3.51L98,489.33H95.42Z"/><path class="cls-3" d="M104.18,488.36a3.62,3.62,0,0,1-2.72,1.17,2.21,2.21,0,0,1-2.5-2.43V481.6h2v4.69a1.24,1.24,0,0,0,1.42,1.42,2.28,2.28,0,0,0,1.76-.88V481.6h2v7.73h-2Z"/><path class="cls-3" d="M485.93,471.8V461.13h2v1a3,3,0,0,1,2.38-1.17c2,0,3.43,1.47,3.43,4s-1.44,4.07-3.43,4.07a3,3,0,0,1-2.38-1.18v3.94Zm3.78-9.06a2.28,2.28,0,0,0-1.75.88v2.74a2.33,2.33,0,0,0,1.75.88,2.27,2.27,0,0,0,0-4.5Z"/><path class="cls-3" d="M494.79,465a4.09,4.09,0,1,1,4.08,4.07A3.92,3.92,0,0,1,494.79,465Zm6.07,0a2,2,0,1,0-2,2.26A2,2,0,0,0,500.86,465Z"/><path class="cls-3" d="M509.69,464.18a1.25,1.25,0,0,0-1.42-1.44,2.2,2.2,0,0,0-1.76.91v5.2h-2v-7.73h2v1a3.54,3.54,0,0,1,2.71-1.2,2.25,2.25,0,0,1,2.51,2.46v5.46h-2Z"/><path class="cls-3" d="M513.24,465a4.09,4.09,0,1,1,4.08,4.07A3.92,3.92,0,0,1,513.24,465Zm6.07,0a2,2,0,1,0-2,2.26A2,2,0,0,0,519.31,465Z"/><path class="cls-3" d="M528.08,463.59l-1.63,5.27h-2.18l-2.35-7.73H524l1.44,5.2,1.7-5.2H529l1.7,5.2,1.44-5.2h2.11l-2.35,7.73h-2.16Z"/><path class="cls-3" d="M540.44,464.18a1.25,1.25,0,0,0-1.42-1.44,2.2,2.2,0,0,0-1.76.91v5.2h-2v-7.73h2v1a3.54,3.54,0,0,1,2.71-1.2,2.25,2.25,0,0,1,2.51,2.46v5.46h-2Z"/><path class="cls-3" d="M548,460.93c2.3,0,3.87,1.73,3.87,4.26v.45h-5.75a2.08,2.08,0,0,0,2.23,1.79,3.16,3.16,0,0,0,2.06-.77l.9,1.31a4.77,4.77,0,0,1-3.19,1.07,4.06,4.06,0,1,1-.13-8.12Zm-1.9,3.33h3.81a1.79,1.79,0,0,0-1.91-1.71A1.86,1.86,0,0,0,546.09,464.26Z"/><path class="cls-3" d="M557.64,466.42a4.42,4.42,0,0,0,2.67,1.06c.88,0,1.3-.3,1.3-.78s-.67-.74-1.55-.91c-1.33-.26-3-.58-3-2.42,0-1.3,1.14-2.43,3.17-2.43a4.86,4.86,0,0,1,3.11,1.06l-.8,1.39a3.26,3.26,0,0,0-2.29-.9c-.74,0-1.22.27-1.22.72s.61.66,1.47.83c1.33.26,3.11.61,3.11,2.53,0,1.42-1.2,2.48-3.34,2.48a5.2,5.2,0,0,1-3.46-1.2Z"/><path class="cls-3" d="M565.07,471.8V461.13h2v1a3,3,0,0,1,2.38-1.17c2,0,3.43,1.47,3.43,4s-1.44,4.07-3.43,4.07a3,3,0,0,1-2.38-1.18v3.94Zm3.78-9.06a2.28,2.28,0,0,0-1.75.88v2.74a2.33,2.33,0,0,0,1.75.88,2.27,2.27,0,0,0,0-4.5Z"/><path class="cls-3" d="M574.42,461.13h2v1.06a3.31,3.31,0,0,1,2.46-1.23v2a2.75,2.75,0,0,0-.56,0,2.58,2.58,0,0,0-1.91.86v5.11h-2Z"/><path class="cls-3" d="M584.83,468.06a3.2,3.2,0,0,1-2.45,1,2.58,2.58,0,0,1-2.69-2.56,2.45,2.45,0,0,1,2.69-2.46,3.13,3.13,0,0,1,2.45.94v-1.07c0-.78-.67-1.3-1.7-1.3a3.25,3.25,0,0,0-2.26.91l-.77-1.36a5.07,5.07,0,0,1,3.38-1.22c1.76,0,3.38.7,3.38,2.93v5h-2Zm0-2a2,2,0,0,0-1.63-.67c-.8,0-1.46.43-1.46,1.17s.66,1.14,1.46,1.14a2,2,0,0,0,1.63-.67Z"/><path class="cls-3" d="M594,463.59l-1.63,5.27h-2.18l-2.35-7.73H590l1.44,5.2,1.7-5.2h1.81l1.7,5.2,1.44-5.2h2.11l-2.35,7.73h-2.16Z"/><path class="cls-3" d="M606.49,467.88A3,3,0,0,1,604.1,469c-2,0-3.42-1.47-3.42-4s1.46-4.07,3.42-4.07a3,3,0,0,1,2.38,1.18v-3.94h2v10.68h-2Zm0-4.26a2.24,2.24,0,0,0-1.76-.88,2.27,2.27,0,0,0,0,4.5,2.23,2.23,0,0,0,1.76-.88Z"/><path class="cls-3" d="M610.21,467.34l3.49-4.43h-3.49v-1.78h6.24v1.47l-3.54,4.48h3.6v1.78h-6.31Z"/><path class="cls-3" d="M621.72,460.93c2.3,0,3.87,1.73,3.87,4.26v.45h-5.75a2.08,2.08,0,0,0,2.23,1.79,3.16,3.16,0,0,0,2.06-.77L625,468a4.77,4.77,0,0,1-3.19,1.07,4.06,4.06,0,1,1-.13-8.12Zm-1.9,3.33h3.81a1.79,1.79,0,0,0-1.91-1.71A1.86,1.86,0,0,0,619.82,464.26Z"/><path class="cls-3" d="M632.28,464.18a1.25,1.25,0,0,0-1.42-1.44,2.2,2.2,0,0,0-1.76.91v5.2h-2v-7.73h2v1a3.54,3.54,0,0,1,2.71-1.2,2.25,2.25,0,0,1,2.51,2.46v5.46h-2Z"/><path class="cls-3" d="M636.12,458.77a1.22,1.22,0,1,1,1.22,1.22A1.23,1.23,0,0,1,636.12,458.77Zm.21,2.35h2v7.73h-2Z"/><path class="cls-3" d="M643.88,460.93c2.3,0,3.87,1.73,3.87,4.26v.45H642a2.08,2.08,0,0,0,2.23,1.79,3.16,3.16,0,0,0,2.06-.77l.9,1.31A4.77,4.77,0,0,1,644,469a4.06,4.06,0,1,1-.13-8.12Zm-1.9,3.33h3.81a1.79,1.79,0,0,0-1.91-1.71A1.86,1.86,0,0,0,642,464.26Z"/><path class="cls-3" d="M490.57,491V480.33h2v1a3,3,0,0,1,2.38-1.17c2,0,3.43,1.47,3.43,4s-1.44,4.07-3.43,4.07a3,3,0,0,1-2.38-1.18V491Zm3.78-9.06a2.28,2.28,0,0,0-1.75.88v2.74a2.33,2.33,0,0,0,1.75.88,2.27,2.27,0,0,0,0-4.5Z"/><path class="cls-3" d="M499.93,480.33h2v1.06a3.31,3.31,0,0,1,2.46-1.23v2a2.75,2.75,0,0,0-.56,0A2.58,2.58,0,0,0,502,483v5.11h-2Z"/><path class="cls-3" d="M505.36,486.54l3.49-4.43h-3.49v-1.78h6.24v1.47l-3.54,4.48h3.6v1.78h-6.31Z"/><path class="cls-3" d="M514,489.38a1,1,0,0,0,1.07-.56l.29-.66-3.14-7.84h2.18l2,5.38,2-5.38h2.19l-3.63,9a2.81,2.81,0,0,1-2.93,1.87,5.61,5.61,0,0,1-1-.11l.3-1.83A1.76,1.76,0,0,0,514,489.38Z"/><path class="cls-3" d="M522.32,488.57a3.07,3.07,0,0,0,2.42,1,1.89,1.89,0,0,0,2.13-2v-.78a3,3,0,0,1-2.38,1.22c-1.94,0-3.41-1.36-3.41-3.94s1.46-3.94,3.41-3.94a3,3,0,0,1,2.38,1.18v-1h2v7.2c0,2.95-2.27,3.67-4.18,3.67A4.66,4.66,0,0,1,521.4,490Zm4.55-5.75a2.2,2.2,0,0,0-1.75-.88,2.14,2.14,0,0,0,0,4.26,2.25,2.25,0,0,0,1.75-.88Z"/><path class="cls-3" d="M530.43,484.18a4.09,4.09,0,1,1,4.08,4.07A3.92,3.92,0,0,1,530.43,484.18Zm6.07,0a2,2,0,1,0-2,2.26A2,2,0,0,0,536.5,484.18Z"/><path class="cls-3" d="M540.51,486.14v-4h-1.28v-1.78h1.28v-2.11h2v2.11h1.57v1.78h-1.57v3.49c0,.48.26.85.71.85a1.11,1.11,0,0,0,.7-.22l.43,1.54a2.51,2.51,0,0,1-1.7.5A1.93,1.93,0,0,1,540.51,486.14Z"/><path class="cls-3" d="M545,484.18a4.09,4.09,0,1,1,4.08,4.07A3.92,3.92,0,0,1,545,484.18Zm6.07,0a2,2,0,1,0-2,2.26A2,2,0,0,0,551.09,484.18Z"/><path class="cls-3" d="M559.85,482.79l-1.63,5.27H556l-2.35-7.73h2.11l1.44,5.2,1.7-5.2h1.81l1.7,5.2,1.44-5.2H566l-2.35,7.73h-2.16Z"/><path class="cls-3" d="M571.65,487.26a3.2,3.2,0,0,1-2.45,1,2.58,2.58,0,0,1-2.69-2.56,2.45,2.45,0,0,1,2.69-2.46,3.13,3.13,0,0,1,2.45.94v-1.07c0-.78-.67-1.3-1.7-1.3a3.25,3.25,0,0,0-2.26.91l-.77-1.36a5.07,5.07,0,0,1,3.38-1.22c1.76,0,3.38.7,3.38,2.93v5h-2Zm0-2a2,2,0,0,0-1.63-.67c-.8,0-1.46.43-1.46,1.17s.66,1.14,1.46,1.14a2,2,0,0,0,1.63-.67Z"/><path class="cls-3" d="M580.91,483.38a1.25,1.25,0,0,0-1.42-1.44,2.2,2.2,0,0,0-1.76.91v5.2h-2v-7.73h2v1a3.54,3.54,0,0,1,2.71-1.2,2.25,2.25,0,0,1,2.51,2.46v5.46h-2Z"/><path class="cls-3" d="M588.46,480.13c2.3,0,3.87,1.73,3.87,4.26v.45h-5.75a2.08,2.08,0,0,0,2.23,1.79,3.16,3.16,0,0,0,2.06-.77l.9,1.31a4.77,4.77,0,0,1-3.19,1.07,4.06,4.06,0,1,1-.13-8.12Zm-1.9,3.33h3.81a1.79,1.79,0,0,0-1.91-1.71A1.86,1.86,0,0,0,586.56,483.46Z"/><path class="cls-3" d="M595.84,488.26c0,1.76-.9,2.93-2.75,2.93a4.35,4.35,0,0,1-.88-.08l.13-1.67a2.11,2.11,0,0,0,.45,0c.59,0,1-.37,1-1.23v-7.94h2ZM593.6,478a1.22,1.22,0,1,1,1.22,1.22A1.23,1.23,0,0,1,593.6,478Z"/><path class="cls-3" d="M601.45,484.18a4.09,4.09,0,1,1,4.08,4.07A3.91,3.91,0,0,1,601.45,484.18Zm6.07,0a2,2,0,1,0-2,2.26A2,2,0,0,0,607.52,484.18Z"/><path class="cls-3" d="M611.58,482.1H610.3v-1.78h1.28v-.42a2.49,2.49,0,0,1,2.61-2.69,3.3,3.3,0,0,1,1.47.32l-.42,1.44a1.24,1.24,0,0,0-.66-.16c-.58,0-1,.38-1,1.12v.38h1.57v1.78h-1.57v6h-2Z"/><path class="cls-3" d="M619.87,480.13c2.3,0,3.87,1.73,3.87,4.26v.45H618a2.08,2.08,0,0,0,2.23,1.79,3.16,3.16,0,0,0,2.06-.77l.9,1.31a4.77,4.77,0,0,1-3.19,1.07,4.06,4.06,0,1,1-.13-8.12Zm-1.9,3.33h3.81a1.79,1.79,0,0,0-1.91-1.71A1.86,1.86,0,0,0,618,483.46Z"/><path class="cls-3" d="M625.21,480.33h2v1.06a3.31,3.31,0,0,1,2.46-1.23v2a2.75,2.75,0,0,0-.56,0,2.58,2.58,0,0,0-1.91.86v5.11h-2Z"/><path class="cls-3" d="M631.37,486.14v-4h-1.28v-1.78h1.28v-2.11h2v2.11H635v1.78h-1.57v3.49c0,.48.26.85.71.85a1.11,1.11,0,0,0,.7-.22l.43,1.54a2.51,2.51,0,0,1-1.7.5A1.93,1.93,0,0,1,631.37,486.14Z"/><path class="cls-3" d="M637,489.38a1,1,0,0,0,1.07-.56l.29-.66-3.14-7.84h2.18l2,5.38,2-5.38h2.19l-3.63,9a2.81,2.81,0,0,1-2.93,1.87,5.61,5.61,0,0,1-1-.11l.3-1.83A1.76,1.76,0,0,0,637,489.38Z"/><path class="cls-3" d="M62.7,176.7V166h2v1a3,3,0,0,1,2.38-1.17c2,0,3.43,1.47,3.43,4S69.1,174,67.11,174a3,3,0,0,1-2.38-1.18v3.94Zm3.78-9.06a2.28,2.28,0,0,0-1.75.88v2.74a2.33,2.33,0,0,0,1.75.88,2.27,2.27,0,0,0,0-4.5Z"/><path class="cls-3" d="M71.56,169.88A4.09,4.09,0,1,1,75.64,174,3.92,3.92,0,0,1,71.56,169.88Zm6.07,0a2,2,0,1,0-2,2.26A2,2,0,0,0,77.63,169.88Z"/><path class="cls-3" d="M81.24,163.08h2V167a3,3,0,0,1,2.38-1.18c2,0,3.43,1.54,3.43,4.07s-1.47,4-3.43,4a3,3,0,0,1-2.38-1.17v1h-2ZM85,172.14a2.27,2.27,0,0,0,0-4.5,2.24,2.24,0,0,0-1.75.9v2.74A2.26,2.26,0,0,0,85,172.14Z"/><path class="cls-3" d="M90.41,163.67a1.22,1.22,0,1,1,1.22,1.22A1.23,1.23,0,0,1,90.41,163.67Zm.21,2.35h2v7.73h-2Z"/><path class="cls-3" d="M98.17,165.83c2.3,0,3.87,1.73,3.87,4.26v.45H96.3a2.08,2.08,0,0,0,2.23,1.79,3.16,3.16,0,0,0,2.06-.77l.9,1.31A4.77,4.77,0,0,1,98.3,174a4.06,4.06,0,1,1-.13-8.12Zm-1.9,3.33h3.81a1.79,1.79,0,0,0-1.91-1.71A1.86,1.86,0,0,0,96.26,169.16Z"/><path class="cls-3" d="M103.51,166h2v1.06a3.31,3.31,0,0,1,2.46-1.23v2a2.75,2.75,0,0,0-.56,0,2.58,2.58,0,0,0-1.91.86v5.11h-2Z"/><path class="cls-3" d="M113.91,173a3.2,3.2,0,0,1-2.45,1,2.58,2.58,0,0,1-2.69-2.56,2.45,2.45,0,0,1,2.69-2.46,3.13,3.13,0,0,1,2.45.94V168.8c0-.78-.67-1.3-1.7-1.3a3.25,3.25,0,0,0-2.26.91l-.77-1.36a5.07,5.07,0,0,1,3.38-1.22c1.76,0,3.38.7,3.38,2.93v5h-2Zm0-2a2,2,0,0,0-1.63-.67c-.8,0-1.46.43-1.46,1.17s.66,1.14,1.46,1.14a2,2,0,0,0,1.63-.67Z"/><path class="cls-3" d="M123.18,169.08a1.25,1.25,0,0,0-1.42-1.44,2.2,2.2,0,0,0-1.76.91v5.2h-2V166h2v1a3.54,3.54,0,0,1,2.71-1.2,2.25,2.25,0,0,1,2.51,2.46v5.46h-2Z"/><path class="cls-3" d="M127,163.67a1.22,1.22,0,1,1,1.22,1.22A1.23,1.23,0,0,1,127,163.67Zm.21,2.35h2v7.73h-2Z"/><path class="cls-3" d="M134.78,165.83c2.3,0,3.87,1.73,3.87,4.26v.45H132.9a2.08,2.08,0,0,0,2.23,1.79,3.16,3.16,0,0,0,2.06-.77l.9,1.31A4.77,4.77,0,0,1,134.9,174a4.06,4.06,0,1,1-.13-8.12Zm-1.9,3.33h3.81a1.79,1.79,0,0,0-1.91-1.71A1.86,1.86,0,0,0,132.87,169.16Z"/><path class="cls-3" d="M75,188.28a1.25,1.25,0,0,0-1.42-1.44,2.2,2.2,0,0,0-1.76.91V193h-2v-7.73h2v1A3.54,3.54,0,0,1,74.5,185,2.25,2.25,0,0,1,77,187.5V193H75Z"/><path class="cls-3" d="M78.53,189.08a4.09,4.09,0,1,1,4.08,4.07A3.91,3.91,0,0,1,78.53,189.08Zm6.07,0a2,2,0,1,0-2,2.26A2,2,0,0,0,84.59,189.08Z"/><path class="cls-3" d="M88.61,191v-4H87.33v-1.78h1.28v-2.11h2v2.11h1.57V187H90.66v3.49c0,.48.26.85.71.85a1.11,1.11,0,0,0,.7-.22l.43,1.54a2.51,2.51,0,0,1-1.7.5A1.93,1.93,0,0,1,88.61,191Z"/><path class="cls-3" d="M93.12,189.08a4.09,4.09,0,1,1,4.08,4.07A3.91,3.91,0,0,1,93.12,189.08Zm6.07,0a2,2,0,1,0-2,2.26A2,2,0,0,0,99.19,189.08Z"/><path class="cls-3" d="M108,187.69,106.32,193h-2.18l-2.35-7.73h2.11l1.44,5.2,1.7-5.2h1.81l1.7,5.2,1.44-5.2h2.11L111.75,193h-2.16Z"/><path class="cls-3" d="M119.75,192.16a3.2,3.2,0,0,1-2.45,1,2.58,2.58,0,0,1-2.69-2.56,2.45,2.45,0,0,1,2.69-2.46,3.13,3.13,0,0,1,2.45.94V188c0-.78-.67-1.3-1.7-1.3a3.25,3.25,0,0,0-2.26.91l-.77-1.36A5.07,5.07,0,0,1,118.4,185c1.76,0,3.38.7,3.38,2.93v5h-2Zm0-2a2,2,0,0,0-1.63-.67c-.8,0-1.46.43-1.46,1.17s.66,1.14,1.46,1.14a2,2,0,0,0,1.63-.67Z"/><path class="cls-3" d="M129,188.28a1.25,1.25,0,0,0-1.42-1.44,2.2,2.2,0,0,0-1.76.91V193h-2v-7.73h2v1a3.54,3.54,0,0,1,2.71-1.2A2.25,2.25,0,0,1,131,187.5V193h-2Zm-2.35-4.23,2.14-2.3h1.87l-2.59,2.3Z"/><path class="cls-3" d="M265.07,176.75V166.07h2v1a3,3,0,0,1,2.38-1.17c2,0,3.43,1.47,3.43,4s-1.44,4.07-3.43,4.07a3,3,0,0,1-2.38-1.18v3.94Zm3.78-9.06a2.28,2.28,0,0,0-1.75.88v2.74a2.33,2.33,0,0,0,1.75.88,2.27,2.27,0,0,0,0-4.5Z"/><path class="cls-3" d="M274.43,166.07h2v1.06a3.31,3.31,0,0,1,2.46-1.23v2a2.75,2.75,0,0,0-.56,0,2.58,2.58,0,0,0-1.91.86v5.11h-2Z"/><path class="cls-3" d="M279.85,172.28l3.49-4.43h-3.49v-1.78h6.24v1.47L282.55,172h3.6v1.78h-6.31Z"/><path class="cls-3" d="M288.52,175.13a1,1,0,0,0,1.07-.56l.29-.66-3.14-7.84h2.18l2,5.38,2-5.38h2.19l-3.63,9a2.81,2.81,0,0,1-2.93,1.87,5.61,5.61,0,0,1-1-.11l.3-1.83A1.76,1.76,0,0,0,288.52,175.13Z"/><path class="cls-3" d="M296.81,174.31a3.07,3.07,0,0,0,2.42,1,1.89,1.89,0,0,0,2.13-2v-.78a3,3,0,0,1-2.38,1.22c-1.94,0-3.41-1.36-3.41-3.94s1.46-3.94,3.41-3.94a3,3,0,0,1,2.38,1.18v-1h2v7.2c0,2.95-2.27,3.67-4.18,3.67a4.66,4.66,0,0,1-3.33-1.15Zm4.55-5.75a2.2,2.2,0,0,0-1.75-.88,2.14,2.14,0,0,0,0,4.26,2.25,2.25,0,0,0,1.75-.88Z"/><path class="cls-3" d="M304.92,169.93A4.09,4.09,0,1,1,309,174,3.92,3.92,0,0,1,304.92,169.93Zm6.07,0a2,2,0,1,0-2,2.26A2,2,0,0,0,311,169.93Z"/><path class="cls-3" d="M315,171.88v-4h-1.28v-1.78H315V164h2v2.11h1.57v1.78H317v3.49c0,.48.26.85.71.85a1.11,1.11,0,0,0,.7-.22l.43,1.54a2.51,2.51,0,0,1-1.7.5A1.93,1.93,0,0,1,315,171.88Z"/><path class="cls-3" d="M319.51,169.93a4.09,4.09,0,1,1,4.08,4.07A3.92,3.92,0,0,1,319.51,169.93Zm6.07,0a2,2,0,1,0-2,2.26A2,2,0,0,0,325.58,169.93Z"/><path class="cls-3" d="M334.35,168.53l-1.63,5.27h-2.18l-2.35-7.73h2.11l1.44,5.2,1.7-5.2h1.81l1.7,5.2,1.44-5.2h2.11l-2.35,7.73H336Z"/><path class="cls-3" d="M346.14,173a3.2,3.2,0,0,1-2.45,1,2.58,2.58,0,0,1-2.69-2.56,2.45,2.45,0,0,1,2.69-2.46,3.13,3.13,0,0,1,2.45.94v-1.07c0-.78-.67-1.3-1.7-1.3a3.25,3.25,0,0,0-2.26.91l-.77-1.36a5.07,5.07,0,0,1,3.38-1.22c1.76,0,3.38.7,3.38,2.93v5h-2Zm0-2a2,2,0,0,0-1.63-.67c-.8,0-1.46.43-1.46,1.17s.66,1.14,1.46,1.14a2,2,0,0,0,1.63-.67Z"/><path class="cls-3" d="M355.4,169.13a1.25,1.25,0,0,0-1.42-1.44,2.2,2.2,0,0,0-1.76.91v5.2h-2v-7.73h2v1a3.54,3.54,0,0,1,2.71-1.2,2.25,2.25,0,0,1,2.51,2.46v5.46h-2Z"/><path class="cls-3" d="M359.24,163.72a1.22,1.22,0,1,1,1.22,1.22A1.23,1.23,0,0,1,359.24,163.72Zm.21,2.35h2v7.73h-2Z"/><path class="cls-3" d="M367,165.88c2.3,0,3.87,1.73,3.87,4.26v.45h-5.75a2.08,2.08,0,0,0,2.23,1.79,3.16,3.16,0,0,0,2.06-.77l.9,1.31a4.77,4.77,0,0,1-3.19,1.07,4.06,4.06,0,1,1-.13-8.12Zm-1.9,3.33h3.81a1.79,1.79,0,0,0-1.91-1.71A1.86,1.86,0,0,0,365.1,169.21Z"/><path class="cls-3" d="M375.94,169.93A4.09,4.09,0,1,1,380,174,3.91,3.91,0,0,1,375.94,169.93Zm6.07,0a2,2,0,1,0-2,2.26A2,2,0,0,0,382,169.93Z"/><path class="cls-3" d="M386.07,167.85h-1.28v-1.78h1.28v-.42a2.49,2.49,0,0,1,2.61-2.69,3.3,3.3,0,0,1,1.47.32l-.42,1.44a1.24,1.24,0,0,0-.66-.16c-.58,0-1,.38-1,1.12v.38h1.57v1.78h-1.57v6h-2Z"/><path class="cls-3" d="M394.36,165.88c2.3,0,3.87,1.73,3.87,4.26v.45h-5.75a2.08,2.08,0,0,0,2.23,1.79,3.16,3.16,0,0,0,2.06-.77l.9,1.31a4.77,4.77,0,0,1-3.19,1.07,4.06,4.06,0,1,1-.13-8.12Zm-1.9,3.33h3.81a1.79,1.79,0,0,0-1.91-1.71A1.86,1.86,0,0,0,392.46,169.21Z"/><path class="cls-3" d="M399.7,166.07h2v1.06a3.31,3.31,0,0,1,2.46-1.23v2a2.75,2.75,0,0,0-.56,0,2.58,2.58,0,0,0-1.91.86v5.11h-2Z"/><path class="cls-3" d="M405.86,171.88v-4h-1.28v-1.78h1.28V164h2v2.11h1.57v1.78h-1.57v3.49c0,.48.26.85.71.85a1.11,1.11,0,0,0,.7-.22l.43,1.54a2.51,2.51,0,0,1-1.7.5A1.93,1.93,0,0,1,405.86,171.88Z"/><path class="cls-3" d="M411.54,175.13a1,1,0,0,0,1.07-.56l.29-.66-3.14-7.84h2.18l2,5.38,2-5.38h2.19l-3.63,9a2.81,2.81,0,0,1-2.93,1.87,5.61,5.61,0,0,1-1-.11l.3-1.83A1.76,1.76,0,0,0,411.54,175.13Z"/><path class="cls-3" d="M282.3,192a3,3,0,0,1-2.38,1.17c-2,0-3.42-1.47-3.42-4s1.46-4.07,3.42-4.07a3,3,0,0,1,2.38,1.18v-3.94h2V193h-2Zm0-4.26a2.24,2.24,0,0,0-1.76-.88,2.27,2.27,0,0,0,0,4.5,2.23,2.23,0,0,0,1.76-.88Z"/><path class="cls-3" d="M286.36,182.32h2V193h-2Z"/><path class="cls-3" d="M295.05,192.2a3.2,3.2,0,0,1-2.45,1,2.58,2.58,0,0,1-2.69-2.56,2.45,2.45,0,0,1,2.69-2.46,3.13,3.13,0,0,1,2.45.94V188c0-.78-.67-1.3-1.7-1.3a3.25,3.25,0,0,0-2.26.91l-.77-1.36a5.07,5.07,0,0,1,3.38-1.22c1.76,0,3.38.7,3.38,2.93v5h-2Zm0-2a2,2,0,0,0-1.63-.67c-.8,0-1.46.43-1.46,1.17s.66,1.14,1.46,1.14a2,2,0,0,0,1.63-.67Z"/><path class="cls-3" d="M308.51,192a3,3,0,0,1-2.38,1.17c-2,0-3.43-1.47-3.43-4s1.46-4.07,3.43-4.07a3,3,0,0,1,2.38,1.18v-3.94h2V193h-2Zm0-4.26a2.24,2.24,0,0,0-1.76-.88,2.27,2.27,0,0,0,0,4.5,2.23,2.23,0,0,0,1.76-.88Z"/><path class="cls-3" d="M317.21,192.2a3.2,3.2,0,0,1-2.45,1,2.58,2.58,0,0,1-2.69-2.56,2.45,2.45,0,0,1,2.69-2.46,3.13,3.13,0,0,1,2.45.94V188c0-.78-.67-1.3-1.7-1.3a3.25,3.25,0,0,0-2.26.91l-.77-1.36a5.07,5.07,0,0,1,3.38-1.22c1.76,0,3.38.7,3.38,2.93v5h-2Zm0-2a2,2,0,0,0-1.63-.67c-.8,0-1.46.43-1.46,1.17s.66,1.14,1.46,1.14a2,2,0,0,0,1.63-.67Z"/><path class="cls-3" d="M326.48,188.33a1.25,1.25,0,0,0-1.42-1.44,2.2,2.2,0,0,0-1.76.91V193h-2v-7.73h2v1a3.54,3.54,0,0,1,2.71-1.2,2.25,2.25,0,0,1,2.51,2.46V193h-2Z"/><path class="cls-3" d="M334,185.08c2.3,0,3.87,1.73,3.87,4.26v.45h-5.75a2.08,2.08,0,0,0,2.23,1.79,3.16,3.16,0,0,0,2.06-.77l.9,1.31a4.77,4.77,0,0,1-3.19,1.07,4.06,4.06,0,1,1-.13-8.12Zm-1.9,3.33h3.81a1.79,1.79,0,0,0-1.91-1.71A1.86,1.86,0,0,0,332.12,188.41Z"/><path class="cls-3" d="M340.12,193.51a3.07,3.07,0,0,0,2.42,1,1.89,1.89,0,0,0,2.13-2v-.78a3,3,0,0,1-2.38,1.22c-1.94,0-3.41-1.36-3.41-3.94s1.46-3.94,3.41-3.94a3,3,0,0,1,2.38,1.18v-1h2v7.2c0,2.95-2.27,3.67-4.18,3.67a4.66,4.66,0,0,1-3.33-1.15Zm4.55-5.75a2.2,2.2,0,0,0-1.75-.88,2.14,2.14,0,0,0,0,4.26,2.25,2.25,0,0,0,1.75-.88Z"/><path class="cls-3" d="M348.23,189.13a4.09,4.09,0,1,1,4.08,4.07A3.92,3.92,0,0,1,348.23,189.13Zm6.07,0a2,2,0,1,0-2,2.26A2,2,0,0,0,354.3,189.13Z"/><path class="cls-3" d="M362,182.32h2v3.94a3,3,0,0,1,2.38-1.18c2,0,3.43,1.54,3.43,4.07s-1.47,4-3.43,4A3,3,0,0,1,364,192v1h-2Zm3.78,9.06a2.27,2.27,0,0,0,0-4.5,2.24,2.24,0,0,0-1.75.9v2.74A2.26,2.26,0,0,0,365.79,191.38Z"/><path class="cls-3" d="M376,192.2a3.2,3.2,0,0,1-2.45,1,2.58,2.58,0,0,1-2.69-2.56,2.45,2.45,0,0,1,2.69-2.46,3.13,3.13,0,0,1,2.45.94V188c0-.78-.67-1.3-1.7-1.3a3.25,3.25,0,0,0-2.26.91l-.77-1.36a5.07,5.07,0,0,1,3.38-1.22c1.76,0,3.38.7,3.38,2.93v5h-2Zm0-2a2,2,0,0,0-1.63-.67c-.8,0-1.46.43-1.46,1.17s.66,1.14,1.46,1.14a2,2,0,0,0,1.63-.67Z"/><path class="cls-3" d="M385.29,188.33a1.25,1.25,0,0,0-1.42-1.44,2.2,2.2,0,0,0-1.76.91V193h-2v-7.73h2v1a3.54,3.54,0,0,1,2.71-1.2,2.25,2.25,0,0,1,2.51,2.46V193h-2Z"/><path class="cls-3" d="M392.3,190l-.93,1v2h-2V182.32h2v6.39l2.93-3.44h2.5l-3.06,3.51,3.15,4.23h-2.54Z"/><path class="cls-3" d="M403.11,192a3.62,3.62,0,0,1-2.72,1.17,2.21,2.21,0,0,1-2.5-2.43v-5.49h2V190a1.24,1.24,0,0,0,1.42,1.42,2.28,2.28,0,0,0,1.76-.88v-5.23h2V193h-2Z"/><path class="cls-3" d="M299.92,208.33a4.09,4.09,0,1,1,4.08,4.07A3.91,3.91,0,0,1,299.92,208.33Zm6.07,0a2,2,0,1,0-2,2.26A2,2,0,0,0,306,208.33Z"/><path class="cls-3" d="M309.6,204.47h2v1.06a3.31,3.31,0,0,1,2.46-1.23v2a2.75,2.75,0,0,0-.56,0,2.58,2.58,0,0,0-1.91.86v5.11h-2Z"/><path class="cls-3" d="M320,211.4a3.2,3.2,0,0,1-2.45,1,2.58,2.58,0,0,1-2.69-2.56,2.45,2.45,0,0,1,2.69-2.46,3.13,3.13,0,0,1,2.45.94v-1.07c0-.78-.67-1.3-1.7-1.3a3.25,3.25,0,0,0-2.26.91l-.77-1.36a5.07,5.07,0,0,1,3.38-1.22c1.76,0,3.38.7,3.38,2.93v5h-2Zm0-2a2,2,0,0,0-1.63-.67c-.8,0-1.46.43-1.46,1.17s.66,1.14,1.46,1.14a2,2,0,0,0,1.63-.67Z"/><path class="cls-3" d="M323.71,210.68l3.49-4.43h-3.49v-1.78H330v1.47l-3.54,4.48H330v1.78h-6.31Z"/><path class="cls-3" d="M341,206.93l-1.63,5.27h-2.18l-2.35-7.73h2.11l1.44,5.2,1.7-5.2h1.81l1.7,5.2,1.44-5.2h2.11l-2.35,7.73h-2.16Z"/><path class="cls-3" d="M352.75,211.4a3.2,3.2,0,0,1-2.45,1,2.58,2.58,0,0,1-2.69-2.56,2.45,2.45,0,0,1,2.69-2.46,3.13,3.13,0,0,1,2.45.94v-1.07c0-.78-.67-1.3-1.7-1.3a3.25,3.25,0,0,0-2.26.91l-.77-1.36a5.07,5.07,0,0,1,3.38-1.22c1.76,0,3.38.7,3.38,2.93v5h-2Zm0-2a2,2,0,0,0-1.63-.67c-.8,0-1.46.43-1.46,1.17s.66,1.14,1.46,1.14a2,2,0,0,0,1.63-.67Z"/><path class="cls-3" d="M356.8,201.52h2V212.2h-2Z"/><path class="cls-3" d="M366.07,211.22a3.62,3.62,0,0,1-2.72,1.17,2.21,2.21,0,0,1-2.5-2.43v-5.49h2v4.69a1.24,1.24,0,0,0,1.42,1.42,2.28,2.28,0,0,0,1.76-.88v-5.23h2v7.73h-2Z"/><path class="cls-3" d="M370.51,210.28v-4h-1.28v-1.78h1.28v-2.11h2v2.11h1.57v1.78h-1.57v3.49c0,.48.26.85.71.85a1.11,1.11,0,0,0,.7-.22l.43,1.54a2.51,2.51,0,0,1-1.7.5A1.93,1.93,0,0,1,370.51,210.28Z"/><path class="cls-3" d="M376.19,213.53a1,1,0,0,0,1.07-.56l.29-.66-3.14-7.84h2.18l2,5.38,2-5.38h2.19l-3.63,9a2.81,2.81,0,0,1-2.93,1.87,5.61,5.61,0,0,1-1-.11l.3-1.83A1.76,1.76,0,0,0,376.19,213.53Z"/><polygon class="cls-1" points="100.09 79.05 37.59 42.23 40.8 36.78 100.1 71.72 160.01 36.66 163.2 42.11 100.09 79.05"/><path class="cls-1" d="M340.91,147.66l-64.8-37.34.39-72.47L341.15,0l64.06,37.74-.13,73Zm-58.46-41,58.46,33.69L398.77,107l.12-65.69-57.74-34L282.79,41.49Z"/><path class="cls-2" d="M408.4,84.58"/><polygon class="cls-1" points="340.84 79.05 278.34 42.23 281.55 36.78 340.85 71.72 400.76 36.66 403.95 42.11 340.84 79.05"/><path class="cls-3" d="M281.6,508.1h-7.17l-.73,2.41h-6.13l6.89-18.68h7.11l6.89,18.68h-6.13Zm-5.71-4.71h4.26L278,496.81Z"/><path class="cls-3" d="M289.47,491.83h11.34c3.86,0,5.54,2.58,5.54,4.76a4.12,4.12,0,0,1-3.19,4.28,4.41,4.41,0,0,1,3.56,4.56c0,2.6-1.76,5.07-5.52,5.07H289.47Zm10,6.94a1.18,1.18,0,0,0,1.12-1.2,1.15,1.15,0,0,0-1.12-1.15h-4.37v2.35Zm.17,7.14a1.24,1.24,0,0,0,1.32-1.26,1.27,1.27,0,0,0-1.32-1.29h-4.54v2.55Z"/><path class="cls-3" d="M325.51,498.72l-4.17,11.79h-2.52l-4.17-11.79v11.79H309V491.83h7.81l3.28,9.52,3.28-9.52h7.81v18.68h-5.66Z"/><path class="cls-3" d="M335.7,503.68a8.7,8.7,0,0,0,6,2.41c1.06,0,2.07-.37,2.07-1.09s-.78-1.09-2.63-1.43c-3.08-.56-7.78-1.29-7.78-6,0-3.16,2.63-6,7.76-6a12.32,12.32,0,0,1,7.92,2.61l-3,4a9.29,9.29,0,0,0-5.21-1.85c-1.4,0-1.71.5-1.71,1,0,.73.76,1,2.74,1.32,3.08.53,7.64,1.43,7.64,5.74,0,4.12-3.05,6.5-8.06,6.5a12.3,12.3,0,0,1-8.68-3Z"/><path class="cls-1" d="M308.8,550.46,244,513.11l.39-72.47L309,402.79l64.06,37.74-.13,73Zm-58.46-41,58.46,33.69,57.87-33.33.12-65.69-57.74-34-58.35,34.16Z"/><path class="cls-2" d="M376.29,487.37"/><polygon class="cls-1" points="308.73 481.85 246.23 445.02 249.44 439.58 308.74 474.51 368.65 439.45 371.85 444.9 308.73 481.85"/><path class="cls-3" d="M527.71,296.31c0-5.77,4.42-9.66,10.14-9.66a8.78,8.78,0,0,1,8.62,5.43l-4.87,2.27a4,4,0,0,0-3.75-2.72,4.68,4.68,0,0,0,0,9.35,4,4,0,0,0,3.75-2.72l4.87,2.24a8.88,8.88,0,0,1-8.62,5.46C532.13,306,527.71,302.05,527.71,296.31Z"/><path class="cls-3" d="M548.23,287H562.4v4.7h-8.51v2.18h8.32v4.7h-8.32v2.38h8.51v4.7H548.23Z"/><path class="cls-3" d="M581.44,293.85l-4.17,11.79h-2.52l-4.17-11.79v11.79h-5.66V287h7.81l3.28,9.52,3.28-9.52h7.81v18.68h-5.66Z"/><path class="cls-3" d="M591.63,298.8a8.7,8.7,0,0,0,6,2.41c1.06,0,2.07-.36,2.07-1.09s-.78-1.09-2.63-1.43c-3.08-.56-7.78-1.29-7.78-6,0-3.16,2.63-6,7.76-6a12.32,12.32,0,0,1,7.92,2.6l-3,4a9.29,9.29,0,0,0-5.21-1.85c-1.4,0-1.71.5-1.71,1,0,.73.76,1,2.74,1.32,3.08.53,7.64,1.43,7.64,5.74,0,4.12-3.05,6.5-8.06,6.5a12.31,12.31,0,0,1-8.68-3Z"/><path class="cls-1" d="M566.33,345.58l-64.8-37.34.39-72.47,64.67-37.85,64.06,37.74-.13,73Zm-58.46-41,58.46,33.69L624.19,305l.12-65.69-57.74-34-58.35,34.16Z"/><path class="cls-2" d="M633.82,282.5"/><polygon class="cls-1" points="566.26 276.98 503.76 240.15 506.97 234.71 566.27 269.64 626.18 234.58 629.37 240.03 566.26 276.98"/><polygon class="cls-3" points="210.97 97.46 206.5 92.99 225.72 73.78 206.5 54.56 210.97 50.1 234.66 73.78 210.97 97.46"/><polygon class="cls-3" points="453.65 97.46 449.18 92.99 468.39 73.78 449.18 54.56 453.65 50.1 477.33 73.78 453.65 97.46"/><polygon class="cls-3" points="435.46 500.32 411.77 476.63 435.46 452.95 439.93 457.42 420.71 476.63 439.93 495.85 435.46 500.32"/><polygon class="cls-3" points="194.6 500.32 170.92 476.63 194.6 452.95 199.07 457.42 179.86 476.63 199.07 495.85 194.6 500.32"/><polygon class="cls-3" points="566.04 160.2 542.36 136.52 546.83 132.05 566.04 151.26 585.26 132.05 589.73 136.52 566.04 160.2"/><polygon class="cls-3" points="566.04 413.71 542.36 390.03 546.83 385.56 566.04 404.77 585.26 385.56 589.73 390.03 566.04 413.71"/></g></g></svg>