<svg xmlns="http://www.w3.org/2000/svg" viewBox="0 0 67.5 63.4"><defs><style>.cls-1,.cls-3{fill:none;}.cls-2{isolation:isolate;font-size:20px;font-family:ProximaNova-Light, Proxima Nova;}.cls-3{stroke:#000;stroke-miterlimit:10;}</style></defs><title>Zasób 3</title><g id="Warstwa_2" data-name="Warstwa 2"><g id="Warstwa_1-2" data-name="Warstwa 1"><rect class="cls-1" x="8.2" y="42.9" width="12.1" height="19.5"/><text class="cls-2" transform="translate(8.36 56.22)">$</text><circle class="cls-3" cx="14.2" cy="49.2" r="13.7"/><rect class="cls-1" x="47.3" y="7.9" width="12.1" height="19.5"/><text class="cls-2" transform="translate(47.71 21.2)">E</text><circle class="cls-3" cx="53.3" cy="14.2" r="13.7"/><polyline class="cls-3" points="14.2 30.6 14.2 12.8 36.1 12.8"/><polyline class="cls-3" points="17.9 28.8 14.2 32.5 14.2 32.5 10.5 28.8"/><polygon points="14.2 33.2 14 33 14.4 33 14.2 33.2"/><polyline class="cls-3" points="52.6 32.5 52.6 50.4 30.7 50.4"/><polyline class="cls-3" points="48.9 34.3 52.6 30.6 52.6 30.6 56.3 34.3"/><polygon points="52.6 29.9 52.8 30.1 52.4 30.1 52.6 29.9"/></g></g></svg>