<svg xmlns="http://www.w3.org/2000/svg" viewBox="0 0 91.72 40"><defs><style>.cls-1{fill:#fee03c;stroke:#000;stroke-miterlimit:10;stroke-width:2px;}.cls-2{fill:none;}</style></defs><title>responsive</title><g id="Warstwa_2" data-name="Warstwa 2"><g id="Warstwa_1-2" data-name="Warstwa 1"><path d="M42.4,38v2h35V38Z"/><path d="M82.4,10h-37l-1,0,0,1V36l0,1,1,0h32V35h-31V12h35v7h2V10Z"/><path class="cls-1" d="M90.72,39H79.41V21H90.72Z"/><path class="cls-1" d="M18.37,39H1V16.05H18.37Z"/><path d="M43.4,32V30h-23v2H31.9v6H25.4v2h15V38H33.9V32Z"/><path d="M53.4,2l0-2-2,0h-41V14h2V2h39V9h2Z"/><rect class="cls-2" x="24.34" y="38" width="1.31" height="2"/></g></g></svg>