<svg xmlns="http://www.w3.org/2000/svg" viewBox="0 0 63.9 64.6"><defs><style>.cls-1{fill:none;stroke:#000;stroke-miterlimit:10;}</style></defs><title>Zasób 6</title><g id="Warstwa_2" data-name="Warstwa 2"><g id="Warstwa_1-2" data-name="Warstwa 1"><rect x="4.1" y="43.8" width="37.2" height="2"/><rect x="8.3" y="48" width="33" height="2"/><rect x="4.2" y="48" width="2" height="2"/><rect x="4.1" y="52.2" width="37.2" height="2"/><rect x="39.3" y="56.4" width="2" height="2"/><rect x="4.1" y="56.4" width="33" height="2"/><rect class="cls-1" x="52.5" y="33.7" width="7.5" height="7.5"/><circle class="cls-1" cx="56.2" cy="59.58" r="4.5" transform="translate(-17.45 23.74) rotate(-20.72)"/><polygon class="cls-1" points="56.2 44.8 52.3 51.6 60.1 51.6 56.2 44.8"/><circle class="cls-1" cx="36.6" cy="18.6" r="18.1"/><line class="cls-1" x1="27" y1="33.6" x2="36.6" y2="18.6"/><line class="cls-1" x1="36.6" y1="0.5" x2="36.6" y2="18.6"/><line class="cls-1" x1="53.7" y1="24.5" x2="36.6" y2="18.6"/><polyline class="cls-1" points="63.9 5.9 54.7 5.9 42.3 13.8"/><line class="cls-1" x1="55.5" y1="8.5" x2="63.9" y2="8.5"/><polyline class="cls-1" points="45.6 34.3 45.6 64.1 0.5 64.1 0.5 8.5 21.6 8.5"/><polyline class="cls-1" points="40.8 36.3 40.8 40.6 4.8 40.6 4.8 12.9 19.4 12.9"/></g></g></svg>