<svg xmlns="http://www.w3.org/2000/svg" viewBox="0 0 398.41 777.99"><defs><style>.cls-1{fill:#ffde07;}.cls-2{fill:none;stroke:#ffde07;stroke-miterlimit:10;stroke-width:6.32px;}.cls-3{fill:#282828;}</style></defs><title>kantor_chemat_mobile</title><g id="Warstwa_2" data-name="Warstwa 2"><g id="Warstwa_1-2" data-name="Warstwa 1"><path class="cls-1" d="M80.39,147.66l-64.8-37.34L16,37.85,80.64,0,144.7,37.74l-.13,73Zm-58.46-41,58.46,33.69L138.26,107l.12-65.69-57.74-34L22.28,41.49Z"/><path class="cls-2" d="M147.88,84.58"/><path class="cls-3" d="M60.38,104l1,1.26-3.92,3.14-1.32-1.65a11.08,11.08,0,0,1-3.67.59c-5.77,0-10.22-3.92-10.22-9.66S46.72,88,52.48,88,62.7,91.91,62.7,97.65A9.34,9.34,0,0,1,60.38,104Zm-7.73-1.65-1.54-1.93L55,97.25l1.65,2.1A5,5,0,0,0,57,97.65a4.48,4.48,0,1,0-4.48,4.68Z"/><path class="cls-3" d="M64.72,88.29h8.34c5.88,0,10.25,3.36,10.25,9.32S78.94,107,73.09,107H64.72ZM73.06,102a4.32,4.32,0,0,0,4.51-4.42c0-2.52-1.46-4.4-4.48-4.4H70.38V102Z"/><path class="cls-3" d="M85.33,88.29h10c4.37,0,6.72,2.91,6.72,6.41S99.66,101,95.29,101H91v6H85.33ZM94.57,93H91v3.28h3.58a1.64,1.64,0,1,0,0-3.28Z"/><path class="cls-3" d="M105.38,100.14a8.7,8.7,0,0,0,6,2.41c1.06,0,2.07-.36,2.07-1.09s-.78-1.09-2.63-1.43c-3.08-.56-7.78-1.29-7.78-6,0-3.16,2.63-6,7.76-6a12.32,12.32,0,0,1,7.92,2.6l-3,4a9.29,9.29,0,0,0-5.21-1.85c-1.4,0-1.71.5-1.71,1,0,.73.76,1,2.74,1.32,3.08.53,7.64,1.43,7.64,5.74,0,4.12-3.05,6.5-8.06,6.5a12.31,12.31,0,0,1-8.68-3Z"/><path class="cls-3" d="M280.14,98.39c0-5.77,4.42-9.66,10.14-9.66a8.78,8.78,0,0,1,8.62,5.43L294,96.43a4,4,0,0,0-3.75-2.72,4.68,4.68,0,0,0,0,9.35,4,4,0,0,0,3.75-2.72l4.87,2.24a8.88,8.88,0,0,1-8.62,5.46C284.57,108,280.14,104.13,280.14,98.39Z"/><path class="cls-3" d="M309.88,88.73c5.77,0,10.22,3.92,10.22,9.66S315.65,108,309.88,108s-10.22-3.92-10.22-9.66S304.11,88.73,309.88,88.73Zm0,5a4.68,4.68,0,1,0,4.48,4.68A4.42,4.42,0,0,0,309.88,93.71Z"/><path class="cls-3" d="M338.63,95.93l-4.17,11.79h-2.52l-4.17-11.79v11.79h-5.66V89h7.81l3.28,9.52L336.48,89h7.81v18.68h-5.66Z"/><path class="cls-3" d="M348.83,100.88a8.7,8.7,0,0,0,6,2.41c1.06,0,2.07-.36,2.07-1.09s-.78-1.09-2.63-1.43c-3.08-.56-7.78-1.29-7.78-6,0-3.16,2.63-6,7.76-6a12.32,12.32,0,0,1,7.92,2.6l-3,4A9.29,9.29,0,0,0,354,93.52c-1.4,0-1.71.5-1.71,1,0,.73.76,1,2.74,1.32,3.08.53,7.64,1.43,7.64,5.74,0,4.12-3.05,6.5-8.06,6.5a12.31,12.31,0,0,1-8.68-3Z"/><path class="cls-3" d="M289.39,340l-1.63,5.27h-2.18l-2.35-7.73h2.11l1.44,5.2,1.7-5.2h1.81l1.7,5.2,1.44-5.2h2.11l-2.35,7.73H291Z"/><path class="cls-3" d="M297.21,346.59a1,1,0,0,0,1.07-.56l.29-.66-3.14-7.84h2.18l2,5.38,2-5.38h2.19l-3.63,9a2.81,2.81,0,0,1-2.93,1.87,5.61,5.61,0,0,1-1-.11l.3-1.83A1.76,1.76,0,0,0,297.21,346.59Z"/><path class="cls-3" d="M304.75,334.59h2v10.68h-2Z"/><path class="cls-3" d="M308.59,335.18a1.22,1.22,0,1,1,1.22,1.22A1.23,1.23,0,0,1,308.59,335.18Zm.21,2.35h2v7.73h-2Z"/><path class="cls-3" d="M316.45,337.34a3.56,3.56,0,0,1,3.06,1.41L318.18,340a1.91,1.91,0,0,0-1.63-.83,2.25,2.25,0,0,0,0,4.5,2,2,0,0,0,1.63-.83L319.5,344a3.56,3.56,0,0,1-3.06,1.41,4.06,4.06,0,1,1,0-8.12Z"/><path class="cls-3" d="M320.49,343.74l3.49-4.43h-3.49v-1.78h6.24V339l-3.54,4.48h3.6v1.78h-6.31Z"/><path class="cls-3" d="M332,337.34c2.3,0,3.87,1.73,3.87,4.26V342h-5.75a2.08,2.08,0,0,0,2.23,1.79,3.16,3.16,0,0,0,2.06-.77l.9,1.31a4.77,4.77,0,0,1-3.19,1.07,4.06,4.06,0,1,1-.13-8.12Zm-1.9,3.33h3.81A1.79,1.79,0,0,0,332,339,1.86,1.86,0,0,0,330.09,340.67Z"/><path class="cls-3" d="M342.56,340.59a1.25,1.25,0,0,0-1.42-1.44,2.2,2.2,0,0,0-1.76.91v5.2h-2v-7.73h2v1a3.54,3.54,0,0,1,2.71-1.2,2.25,2.25,0,0,1,2.51,2.46v5.46h-2Z"/><path class="cls-3" d="M346.4,335.18a1.22,1.22,0,1,1,1.22,1.22A1.23,1.23,0,0,1,346.4,335.18Zm.21,2.35h2v7.73h-2Z"/><path class="cls-3" d="M354.16,337.34c2.3,0,3.87,1.73,3.87,4.26V342h-5.75a2.08,2.08,0,0,0,2.23,1.79,3.16,3.16,0,0,0,2.06-.77l.9,1.31a4.77,4.77,0,0,1-3.19,1.07,4.06,4.06,0,1,1-.13-8.12Zm-1.9,3.33h3.81a1.79,1.79,0,0,0-1.91-1.71A1.86,1.86,0,0,0,352.25,340.67Z"/><path class="cls-3" d="M279.55,356.54a3.56,3.56,0,0,1,3.06,1.41l-1.33,1.23a1.91,1.91,0,0,0-1.63-.83,2.25,2.25,0,0,0,0,4.5,2,2,0,0,0,1.63-.83l1.33,1.23a3.56,3.56,0,0,1-3.06,1.41,4.06,4.06,0,1,1,0-8.12Z"/><path class="cls-3" d="M287.44,356.54c2.3,0,3.87,1.73,3.87,4.26v.45h-5.75a2.08,2.08,0,0,0,2.23,1.79,3.16,3.16,0,0,0,2.06-.77l.9,1.31a4.77,4.77,0,0,1-3.19,1.07,4.06,4.06,0,1,1-.13-8.12Zm-1.9,3.33h3.81a1.79,1.79,0,0,0-1.91-1.71A1.86,1.86,0,0,0,285.54,359.87Z"/><path class="cls-3" d="M298,359.79a1.25,1.25,0,0,0-1.42-1.44,2.2,2.2,0,0,0-1.76.91v5.2h-2v-7.73h2v1a3.54,3.54,0,0,1,2.71-1.2A2.25,2.25,0,0,1,300,359v5.46h-2Z"/><path class="cls-3" d="M302.72,365.79a1,1,0,0,0,1.07-.56l.29-.66-3.14-7.84h2.18l2,5.38,2-5.38h2.19l-3.63,9a2.81,2.81,0,0,1-2.93,1.87,5.61,5.61,0,0,1-1-.11l.3-1.83A1.76,1.76,0,0,0,302.72,365.79Z"/><path class="cls-3" d="M314.8,358.51h-1.28v-1.78h1.28v-.42a2.49,2.49,0,0,1,2.61-2.69,3.3,3.3,0,0,1,1.47.32l-.42,1.47a1.14,1.14,0,0,0-.66-.19c-.58,0-1,.38-1,1.09v.42h1.57v1.78h-1.57v6h-2Zm4.58-4.13a1.22,1.22,0,1,1,1.22,1.22A1.23,1.23,0,0,1,319.38,354.38Zm.21,2.35h2v7.73h-2Z"/><path class="cls-3" d="M328.85,359.79a1.25,1.25,0,0,0-1.42-1.44,2.2,2.2,0,0,0-1.76.91v5.2h-2v-7.73h2v1a3.54,3.54,0,0,1,2.71-1.2,2.25,2.25,0,0,1,2.51,2.46v5.46h-2Z"/><path class="cls-3" d="M337.54,363.66a3.2,3.2,0,0,1-2.45,1,2.58,2.58,0,0,1-2.69-2.56,2.45,2.45,0,0,1,2.69-2.46,3.13,3.13,0,0,1,2.45.94V359.5c0-.78-.67-1.3-1.7-1.3a3.25,3.25,0,0,0-2.26.91l-.77-1.36a5.07,5.07,0,0,1,3.38-1.22c1.76,0,3.38.7,3.38,2.93v5h-2Zm0-2a2,2,0,0,0-1.63-.67c-.8,0-1.46.43-1.46,1.17s.66,1.14,1.46,1.14a2,2,0,0,0,1.63-.67Z"/><path class="cls-3" d="M341.58,353.79h2v10.68h-2Z"/><path class="cls-3" d="M350.85,359.79a1.25,1.25,0,0,0-1.42-1.44,2.2,2.2,0,0,0-1.76.91v5.2h-2v-7.73h2v1a3.54,3.54,0,0,1,2.71-1.2,2.25,2.25,0,0,1,2.51,2.46v5.46h-2Z"/><path class="cls-3" d="M358.4,356.54c2.3,0,3.87,1.73,3.87,4.26v.45h-5.75a2.08,2.08,0,0,0,2.23,1.79,3.16,3.16,0,0,0,2.06-.77l.9,1.31a4.77,4.77,0,0,1-3.19,1.07,4.06,4.06,0,1,1-.13-8.12Zm-1.9,3.33h3.81a1.79,1.79,0,0,0-1.91-1.71A1.86,1.86,0,0,0,356.49,359.87Z"/><path class="cls-3" d="M365.77,364.67c0,1.76-.9,2.93-2.75,2.93a4.35,4.35,0,0,1-.88-.08l.13-1.67a2.11,2.11,0,0,0,.45,0c.59,0,1-.37,1-1.23v-7.94h2Zm-2.24-10.29a1.22,1.22,0,1,1,1.22,1.22A1.23,1.23,0,0,1,363.53,354.38Z"/><path class="cls-3" d="M258.7,750.87h2v1.06a3.31,3.31,0,0,1,2.46-1.23v2a2.74,2.74,0,0,0-.56,0,2.58,2.58,0,0,0-1.91.86v5.11h-2Z"/><path class="cls-3" d="M268,750.68c2.3,0,3.88,1.73,3.88,4.26v.45h-5.75a2.09,2.09,0,0,0,2.23,1.79,3.16,3.16,0,0,0,2.06-.77l.9,1.31a4.77,4.77,0,0,1-3.19,1.07,4.06,4.06,0,1,1-.13-8.12Zm-1.9,3.33h3.81a1.79,1.79,0,0,0-1.91-1.71A1.86,1.86,0,0,0,266.05,754Z"/><path class="cls-3" d="M273,757.08l3.49-4.43H273v-1.78h6.24v1.47l-3.54,4.48h3.6v1.78H273Z"/><path class="cls-3" d="M284.47,750.68c2.3,0,3.88,1.73,3.88,4.26v.45H282.6a2.09,2.09,0,0,0,2.23,1.79,3.16,3.16,0,0,0,2.06-.77l.9,1.31a4.77,4.77,0,0,1-3.19,1.07,4.06,4.06,0,1,1-.13-8.12Zm-1.9,3.33h3.81a1.79,1.79,0,0,0-1.91-1.71A1.86,1.86,0,0,0,282.57,754Z"/><path class="cls-3" d="M289.81,750.87h2v1.06a3.31,3.31,0,0,1,2.46-1.23v2a2.74,2.74,0,0,0-.56,0,2.58,2.58,0,0,0-1.91.86v5.11h-2Z"/><path class="cls-3" d="M300.73,753.33l-1.63,5.27h-2.18l-2.35-7.73h2.11l1.44,5.2,1.7-5.2h1.81l1.7,5.2,1.44-5.2h2.11l-2.35,7.73h-2.16Z"/><path class="cls-3" d="M312.52,757.8a3.2,3.2,0,0,1-2.45,1,2.58,2.58,0,0,1-2.69-2.56,2.45,2.45,0,0,1,2.69-2.46,3.13,3.13,0,0,1,2.45.94v-1.07c0-.78-.67-1.3-1.7-1.3a3.26,3.26,0,0,0-2.26.91l-.77-1.36a5.07,5.07,0,0,1,3.38-1.22c1.76,0,3.38.7,3.38,2.93v5h-2Zm0-2a2,2,0,0,0-1.63-.67c-.8,0-1.46.43-1.46,1.17s.66,1.14,1.46,1.14a2,2,0,0,0,1.63-.67Z"/><path class="cls-3" d="M320.17,750.68a3.56,3.56,0,0,1,3.06,1.41l-1.33,1.23a1.91,1.91,0,0,0-1.63-.83,2.25,2.25,0,0,0,0,4.5,2,2,0,0,0,1.63-.83l1.33,1.23a3.56,3.56,0,0,1-3.06,1.41,4.06,4.06,0,1,1,0-8.12Z"/><path class="cls-3" d="M326.58,758.81c0,1.76-.9,2.93-2.75,2.93a4.34,4.34,0,0,1-.88-.08l.13-1.67a2.13,2.13,0,0,0,.45,0c.59,0,1-.37,1-1.23v-7.94h2Zm-2.24-10.29a1.22,1.22,0,1,1,1.21,1.22A1.23,1.23,0,0,1,324.34,748.52Z"/><path class="cls-3" d="M333.24,757.8a3.19,3.19,0,0,1-2.45,1,2.57,2.57,0,0,1-2.69-2.56,2.45,2.45,0,0,1,2.69-2.46,3.12,3.12,0,0,1,2.45.94v-1.07c0-.78-.67-1.3-1.7-1.3a3.25,3.25,0,0,0-2.26.91l-.77-1.36a5.07,5.07,0,0,1,3.38-1.22c1.76,0,3.38.7,3.38,2.93v5h-2Zm0-2a2,2,0,0,0-1.63-.67c-.8,0-1.46.43-1.46,1.17s.66,1.14,1.46,1.14a2,2,0,0,0,1.63-.67Z"/><path class="cls-3" d="M344.34,755.62l-.93,1v2h-2V747.92h2v6.39l2.93-3.44h2.5l-3.06,3.51,3.15,4.23h-2.54Z"/><path class="cls-3" d="M355.09,753.33l-1.63,5.27h-2.18l-2.35-7.73H351l1.44,5.2,1.7-5.2H356l1.7,5.2,1.44-5.2h2.11l-2.35,7.73h-2.16Z"/><path class="cls-3" d="M361.75,754.73a4.09,4.09,0,1,1,4.08,4.07A3.92,3.92,0,0,1,361.75,754.73Zm6.07,0a2,2,0,1,0-2,2.26A2,2,0,0,0,367.81,754.73Z"/><path class="cls-3" d="M371.83,756.68v-4h-1.28v-1.78h1.28v-2.11h2v2.11h1.57v1.78h-1.57v3.49c0,.48.26.85.71.85a1.11,1.11,0,0,0,.7-.22l.43,1.54a2.51,2.51,0,0,1-1.7.5A1.93,1.93,0,0,1,371.83,756.68Z"/><path class="cls-3" d="M377.51,759.93a1,1,0,0,0,1.07-.56l.29-.66-3.14-7.84h2.18l2,5.38,2-5.38h2.19l-3.63,9a2.81,2.81,0,0,1-2.93,1.87,5.6,5.6,0,0,1-1-.11l.3-1.83A1.77,1.77,0,0,0,377.51,759.93Z"/><path class="cls-3" d="M282,773.13a1.25,1.25,0,0,0-1.43-1.44,2.2,2.2,0,0,0-1.76.91v5.2h-2v-7.73h2v1a3.54,3.54,0,0,1,2.71-1.2,2.25,2.25,0,0,1,2.51,2.46v5.46h-2Z"/><path class="cls-3" d="M290.72,777a3.2,3.2,0,0,1-2.45,1,2.58,2.58,0,0,1-2.69-2.56,2.45,2.45,0,0,1,2.69-2.46,3.13,3.13,0,0,1,2.45.94v-1.07c0-.78-.67-1.3-1.7-1.3a3.26,3.26,0,0,0-2.26.91l-.77-1.36a5.07,5.07,0,0,1,3.38-1.22c1.76,0,3.38.7,3.38,2.93v5h-2Zm0-2a2,2,0,0,0-1.63-.67c-.8,0-1.46.43-1.46,1.17s.66,1.14,1.46,1.14a2,2,0,0,0,1.63-.67Z"/><path class="cls-3" d="M298.86,770.07h2v1.06a3.31,3.31,0,0,1,2.46-1.23v2a2.76,2.76,0,0,0-.56,0,2.58,2.58,0,0,0-1.9.86v5.11h-2Z"/><path class="cls-3" d="M309.26,777a3.2,3.2,0,0,1-2.45,1,2.58,2.58,0,0,1-2.69-2.56,2.45,2.45,0,0,1,2.69-2.46,3.13,3.13,0,0,1,2.45.94v-1.07c0-.78-.67-1.3-1.7-1.3a3.26,3.26,0,0,0-2.26.91l-.77-1.36a5.07,5.07,0,0,1,3.38-1.22c1.76,0,3.38.7,3.38,2.93v5h-2Zm0-2a2,2,0,0,0-1.63-.67c-.8,0-1.46.43-1.46,1.17s.66,1.14,1.46,1.14a2,2,0,0,0,1.63-.67Z"/><path class="cls-3" d="M316.91,769.88a3.56,3.56,0,0,1,3.06,1.41l-1.33,1.23a1.91,1.91,0,0,0-1.63-.83,2.25,2.25,0,0,0,0,4.5,2,2,0,0,0,1.63-.83l1.33,1.23a3.56,3.56,0,0,1-3.06,1.41,4.06,4.06,0,1,1,0-8.12Z"/><path class="cls-3" d="M326.53,773.09c0-1.07-.56-1.41-1.44-1.41a2.25,2.25,0,0,0-1.76.91v5.2h-2V767.12h2v4a3.58,3.58,0,0,1,2.72-1.2,2.23,2.23,0,0,1,2.51,2.43v5.49h-2Z"/><path class="cls-3" d="M335.79,776.82a3.62,3.62,0,0,1-2.72,1.17,2.21,2.21,0,0,1-2.5-2.43v-5.49h2v4.69a1.24,1.24,0,0,0,1.42,1.42,2.28,2.28,0,0,0,1.76-.88v-5.23h2v7.73h-2Z"/><path class="cls-3" d="M345.05,773.13a1.25,1.25,0,0,0-1.43-1.44,2.2,2.2,0,0,0-1.76.91v5.2h-2v-7.73h2v1a3.54,3.54,0,0,1,2.71-1.2,2.25,2.25,0,0,1,2.51,2.46v5.46h-2Z"/><path class="cls-3" d="M352.06,774.82l-.93,1v2h-2V767.12h2v6.39l2.93-3.44h2.5l-3.06,3.51,3.15,4.23h-2.54Z"/><path class="cls-3" d="M362.88,776.82a3.62,3.62,0,0,1-2.72,1.17,2.21,2.21,0,0,1-2.5-2.43v-5.49h2v4.69a1.24,1.24,0,0,0,1.43,1.42,2.27,2.27,0,0,0,1.76-.88v-5.23h2v7.73h-2Z"/><path class="cls-3" d="M0,550.12V539.44H2v1a3,3,0,0,1,2.38-1.17c2,0,3.43,1.47,3.43,4s-1.44,4.07-3.43,4.07A3,3,0,0,1,2,546.18v3.94Zm3.78-9.06a2.28,2.28,0,0,0-1.75.88v2.74a2.33,2.33,0,0,0,1.75.88,2.27,2.27,0,0,0,0-4.5Z"/><path class="cls-3" d="M8.86,543.3a3.92,3.92,0,0,1,4.08-4,4.06,4.06,0,1,1,0,8.12A3.92,3.92,0,0,1,8.86,543.3Zm6.07,0a2,2,0,1,0-2,2.26A2,2,0,0,0,14.93,543.3Z"/><path class="cls-3" d="M23.76,542.5a1.25,1.25,0,0,0-1.42-1.44,2.2,2.2,0,0,0-1.76.91v5.2h-2v-7.73h2v1a3.54,3.54,0,0,1,2.71-1.2,2.25,2.25,0,0,1,2.51,2.46v5.46h-2Z"/><path class="cls-3" d="M27.31,543.3a3.92,3.92,0,0,1,4.08-4,4.06,4.06,0,1,1,0,8.12A3.92,3.92,0,0,1,27.31,543.3Zm6.07,0a2,2,0,1,0-2,2.26A2,2,0,0,0,33.38,543.3Z"/><path class="cls-3" d="M42.14,541.9l-1.63,5.27H38.33L36,539.44h2.11l1.44,5.2,1.7-5.2H43l1.7,5.2,1.44-5.2h2.11l-2.35,7.73H43.78Z"/><path class="cls-3" d="M54.51,542.5a1.25,1.25,0,0,0-1.43-1.44,2.2,2.2,0,0,0-1.76.91v5.2h-2v-7.73h2v1a3.54,3.54,0,0,1,2.71-1.2,2.25,2.25,0,0,1,2.51,2.46v5.46h-2Z"/><path class="cls-3" d="M62.06,539.25c2.3,0,3.87,1.73,3.87,4.26V544H60.19a2.08,2.08,0,0,0,2.22,1.79,3.16,3.16,0,0,0,2.06-.77l.9,1.31a4.76,4.76,0,0,1-3.19,1.07,4.06,4.06,0,1,1-.13-8.12Zm-1.9,3.33H64a1.79,1.79,0,0,0-1.9-1.71A1.86,1.86,0,0,0,60.16,542.58Z"/><path class="cls-3" d="M71.71,544.74a4.41,4.41,0,0,0,2.67,1.06c.88,0,1.3-.3,1.3-.78s-.67-.74-1.55-.91c-1.33-.26-3-.58-3-2.42,0-1.3,1.14-2.43,3.17-2.43a4.87,4.87,0,0,1,3.11,1.06l-.8,1.39a3.27,3.27,0,0,0-2.29-.9c-.74,0-1.22.27-1.22.72s.61.66,1.47.83c1.33.26,3.11.61,3.11,2.53,0,1.42-1.2,2.48-3.35,2.48a5.2,5.2,0,0,1-3.46-1.2Z"/><path class="cls-3" d="M79.13,550.12V539.44h2v1a3,3,0,0,1,2.38-1.17c2,0,3.43,1.47,3.43,4s-1.44,4.07-3.43,4.07a3,3,0,0,1-2.38-1.18v3.94Zm3.78-9.06a2.28,2.28,0,0,0-1.75.88v2.74a2.33,2.33,0,0,0,1.75.88,2.27,2.27,0,0,0,0-4.5Z"/><path class="cls-3" d="M88.49,539.44h2v1.06A3.31,3.31,0,0,1,93,539.26v2a2.74,2.74,0,0,0-.56,0,2.58,2.58,0,0,0-1.91.86v5.11h-2Z"/><path class="cls-3" d="M98.89,546.37a3.19,3.19,0,0,1-2.45,1,2.58,2.58,0,0,1-2.69-2.56,2.45,2.45,0,0,1,2.69-2.46,3.12,3.12,0,0,1,2.45.94v-1.07c0-.78-.67-1.3-1.7-1.3a3.25,3.25,0,0,0-2.26.91l-.77-1.36a5.07,5.07,0,0,1,3.38-1.22c1.76,0,3.38.7,3.38,2.93v5h-2Zm0-2a2,2,0,0,0-1.63-.67c-.8,0-1.46.43-1.46,1.17s.66,1.14,1.46,1.14a2,2,0,0,0,1.63-.67Z"/><path class="cls-3" d="M108.09,541.9l-1.63,5.27h-2.18l-2.35-7.73H104l1.44,5.2,1.7-5.2H109l1.7,5.2,1.44-5.2h2.11l-2.35,7.73h-2.16Z"/><path class="cls-3" d="M120.56,546.19a3,3,0,0,1-2.38,1.17c-2,0-3.43-1.47-3.43-4s1.46-4.07,3.43-4.07a3,3,0,0,1,2.38,1.18v-3.94h2v10.68h-2Zm0-4.26a2.24,2.24,0,0,0-1.76-.88,2.27,2.27,0,0,0,0,4.5,2.23,2.23,0,0,0,1.76-.88Z"/><path class="cls-3" d="M124.28,545.65l3.49-4.43h-3.49v-1.78h6.24v1.47L127,545.39h3.6v1.78h-6.31Z"/><path class="cls-3" d="M135.79,539.25c2.3,0,3.88,1.73,3.88,4.26V544h-5.75a2.09,2.09,0,0,0,2.23,1.79,3.16,3.16,0,0,0,2.06-.77l.9,1.31a4.77,4.77,0,0,1-3.19,1.07,4.06,4.06,0,1,1-.13-8.12Zm-1.9,3.33h3.81a1.79,1.79,0,0,0-1.91-1.71A1.86,1.86,0,0,0,133.88,542.58Z"/><path class="cls-3" d="M146.35,542.5a1.25,1.25,0,0,0-1.42-1.44,2.2,2.2,0,0,0-1.76.91v5.2h-2v-7.73h2v1a3.54,3.54,0,0,1,2.71-1.2,2.25,2.25,0,0,1,2.51,2.46v5.46h-2Z"/><path class="cls-3" d="M150.19,537.09a1.22,1.22,0,1,1,1.22,1.22A1.23,1.23,0,0,1,150.19,537.09Zm.21,2.35h2v7.73h-2Z"/><path class="cls-3" d="M157.95,539.25c2.3,0,3.87,1.73,3.87,4.26V544h-5.75a2.08,2.08,0,0,0,2.22,1.79,3.16,3.16,0,0,0,2.06-.77l.9,1.31a4.76,4.76,0,0,1-3.19,1.07,4.06,4.06,0,1,1-.13-8.12Zm-1.9,3.33h3.81a1.79,1.79,0,0,0-1.9-1.71A1.86,1.86,0,0,0,156,542.58Z"/><path class="cls-3" d="M4.64,569.32V558.64h2v1a3,3,0,0,1,2.38-1.17c2,0,3.43,1.47,3.43,4s-1.44,4.07-3.43,4.07a3,3,0,0,1-2.38-1.18v3.94Zm3.78-9.06a2.28,2.28,0,0,0-1.75.88v2.74a2.33,2.33,0,0,0,1.75.88,2.27,2.27,0,0,0,0-4.5Z"/><path class="cls-3" d="M14,558.64h2v1.06a3.31,3.31,0,0,1,2.46-1.23v2a2.74,2.74,0,0,0-.56,0,2.58,2.58,0,0,0-1.91.86v5.11H14Z"/><path class="cls-3" d="M19.42,564.85l3.49-4.43H19.42v-1.78h6.24v1.47l-3.54,4.48h3.6v1.78H19.42Z"/><path class="cls-3" d="M28.1,567.7a1,1,0,0,0,1.07-.56l.29-.66-3.14-7.84H28.5l2,5.38,2-5.38h2.19l-3.63,9a2.81,2.81,0,0,1-2.93,1.87,5.62,5.62,0,0,1-1-.11l.3-1.83A1.75,1.75,0,0,0,28.1,567.7Z"/><path class="cls-3" d="M36.38,566.88a3.08,3.08,0,0,0,2.42,1,1.89,1.89,0,0,0,2.13-2v-.78a3,3,0,0,1-2.38,1.22c-1.94,0-3.41-1.36-3.41-3.94s1.46-3.94,3.41-3.94a3,3,0,0,1,2.38,1.18v-1h2v7.2c0,2.95-2.27,3.67-4.18,3.67a4.66,4.66,0,0,1-3.33-1.15Zm4.55-5.75a2.21,2.21,0,0,0-1.75-.88,2.14,2.14,0,0,0,0,4.26,2.25,2.25,0,0,0,1.75-.88Z"/><path class="cls-3" d="M44.49,562.5a4.09,4.09,0,1,1,4.08,4.07A3.92,3.92,0,0,1,44.49,562.5Zm6.07,0a2,2,0,1,0-2,2.26A2,2,0,0,0,50.56,562.5Z"/><path class="cls-3" d="M54.57,564.45v-4H53.29v-1.78h1.28v-2.11h2v2.11h1.57v1.78H56.62v3.49c0,.48.26.85.71.85a1.11,1.11,0,0,0,.71-.22l.43,1.54a2.51,2.51,0,0,1-1.7.5A1.93,1.93,0,0,1,54.57,564.45Z"/><path class="cls-3" d="M59.09,562.5a4.09,4.09,0,1,1,4.08,4.07A3.92,3.92,0,0,1,59.09,562.5Zm6.07,0a2,2,0,1,0-2,2.26A2,2,0,0,0,65.15,562.5Z"/><path class="cls-3" d="M73.92,561.1l-1.63,5.27H70.11l-2.35-7.73h2.11l1.44,5.2,1.7-5.2h1.81l1.7,5.2,1.44-5.2h2.11l-2.35,7.73H75.55Z"/><path class="cls-3" d="M85.71,565.57a3.2,3.2,0,0,1-2.45,1A2.58,2.58,0,0,1,80.57,564a2.45,2.45,0,0,1,2.69-2.46,3.13,3.13,0,0,1,2.45.94v-1.07c0-.78-.67-1.3-1.7-1.3a3.26,3.26,0,0,0-2.26.91L81,559.66a5.07,5.07,0,0,1,3.38-1.22c1.76,0,3.38.7,3.38,2.93v5h-2Zm0-2a2,2,0,0,0-1.63-.67c-.8,0-1.46.43-1.46,1.17s.66,1.14,1.46,1.14a2,2,0,0,0,1.63-.67Z"/><path class="cls-3" d="M95,561.7a1.25,1.25,0,0,0-1.42-1.44,2.2,2.2,0,0,0-1.76.91v5.2h-2v-7.73h2v1a3.54,3.54,0,0,1,2.71-1.2A2.25,2.25,0,0,1,97,560.91v5.46H95Z"/><path class="cls-3" d="M102.53,558.45c2.3,0,3.88,1.73,3.88,4.26v.45h-5.75a2.09,2.09,0,0,0,2.23,1.79,3.16,3.16,0,0,0,2.06-.77l.9,1.31a4.77,4.77,0,0,1-3.19,1.07,4.06,4.06,0,1,1-.13-8.12Zm-1.9,3.33h3.81a1.79,1.79,0,0,0-1.91-1.71A1.86,1.86,0,0,0,100.62,561.78Z"/><path class="cls-3" d="M109.9,566.58c0,1.76-.9,2.93-2.75,2.93a4.36,4.36,0,0,1-.88-.08l.13-1.67a2.1,2.1,0,0,0,.45,0c.59,0,1-.37,1-1.23v-7.94h2Zm-2.24-10.29a1.22,1.22,0,1,1,1.22,1.22A1.23,1.23,0,0,1,107.66,556.29Z"/><path class="cls-3" d="M115.52,562.5a4.09,4.09,0,1,1,4.08,4.07A3.92,3.92,0,0,1,115.52,562.5Zm6.07,0a2,2,0,1,0-2,2.26A2,2,0,0,0,121.58,562.5Z"/><path class="cls-3" d="M125.65,560.42h-1.28v-1.78h1.28v-.42a2.49,2.49,0,0,1,2.61-2.69,3.29,3.29,0,0,1,1.47.32l-.42,1.44a1.24,1.24,0,0,0-.66-.16c-.58,0-1,.38-1,1.12v.38h1.57v1.78H127.7v6h-2Z"/><path class="cls-3" d="M133.93,558.45c2.3,0,3.88,1.73,3.88,4.26v.45h-5.75a2.09,2.09,0,0,0,2.23,1.79,3.16,3.16,0,0,0,2.06-.77l.9,1.31a4.77,4.77,0,0,1-3.19,1.07,4.06,4.06,0,1,1-.13-8.12Zm-1.9,3.33h3.81a1.79,1.79,0,0,0-1.91-1.71A1.86,1.86,0,0,0,132,561.78Z"/><path class="cls-3" d="M139.28,558.64h2v1.06a3.31,3.31,0,0,1,2.46-1.23v2a2.74,2.74,0,0,0-.56,0,2.58,2.58,0,0,0-1.91.86v5.11h-2Z"/><path class="cls-3" d="M145.44,564.45v-4h-1.28v-1.78h1.28v-2.11h2v2.11h1.57v1.78h-1.57v3.49c0,.48.26.85.71.85a1.11,1.11,0,0,0,.71-.22l.43,1.54a2.51,2.51,0,0,1-1.7.5A1.93,1.93,0,0,1,145.44,564.45Z"/><path class="cls-3" d="M151.12,567.7a1,1,0,0,0,1.07-.56l.29-.66-3.14-7.84h2.18l2,5.38,2-5.38h2.19l-3.63,9a2.81,2.81,0,0,1-2.93,1.87,5.62,5.62,0,0,1-1-.11l.3-1.83A1.75,1.75,0,0,0,151.12,567.7Z"/><path class="cls-3" d="M42.94,176.7V166h2v1a3,3,0,0,1,2.38-1.17c2,0,3.43,1.47,3.43,4S49.34,174,47.35,174A3,3,0,0,1,45,172.77v3.94Zm3.78-9.06a2.28,2.28,0,0,0-1.75.88v2.74a2.33,2.33,0,0,0,1.75.88,2.27,2.27,0,0,0,0-4.5Z"/><path class="cls-3" d="M51.8,169.88A4.09,4.09,0,1,1,55.88,174,3.92,3.92,0,0,1,51.8,169.88Zm6.07,0a2,2,0,1,0-2,2.26A2,2,0,0,0,57.87,169.88Z"/><path class="cls-3" d="M61.48,163.08h2V167a3,3,0,0,1,2.38-1.18c2,0,3.43,1.54,3.43,4.07s-1.47,4-3.43,4a3,3,0,0,1-2.38-1.17v1h-2Zm3.78,9.06a2.27,2.27,0,0,0,0-4.5,2.24,2.24,0,0,0-1.75.9v2.74A2.26,2.26,0,0,0,65.26,172.14Z"/><path class="cls-3" d="M70.65,163.67a1.22,1.22,0,1,1,1.22,1.22A1.23,1.23,0,0,1,70.65,163.67Zm.21,2.35h2v7.73h-2Z"/><path class="cls-3" d="M78.41,165.83c2.3,0,3.87,1.73,3.87,4.26v.45H76.53a2.08,2.08,0,0,0,2.23,1.79,3.16,3.16,0,0,0,2.06-.77l.9,1.31A4.77,4.77,0,0,1,78.54,174a4.06,4.06,0,1,1-.13-8.12Zm-1.9,3.33h3.81a1.79,1.79,0,0,0-1.91-1.71A1.86,1.86,0,0,0,76.5,169.16Z"/><path class="cls-3" d="M83.75,166h2v1.06a3.31,3.31,0,0,1,2.46-1.23v2a2.75,2.75,0,0,0-.56,0,2.58,2.58,0,0,0-1.91.86v5.11h-2Z"/><path class="cls-3" d="M94.15,173a3.2,3.2,0,0,1-2.45,1A2.58,2.58,0,0,1,89,171.39a2.45,2.45,0,0,1,2.69-2.46,3.13,3.13,0,0,1,2.45.94V168.8c0-.78-.67-1.3-1.7-1.3a3.25,3.25,0,0,0-2.26.91l-.77-1.36a5.07,5.07,0,0,1,3.38-1.22c1.76,0,3.38.7,3.38,2.93v5h-2Zm0-2a2,2,0,0,0-1.63-.67c-.8,0-1.46.43-1.46,1.17s.66,1.14,1.46,1.14a2,2,0,0,0,1.63-.67Z"/><path class="cls-3" d="M103.42,169.08a1.25,1.25,0,0,0-1.42-1.44,2.2,2.2,0,0,0-1.76.91v5.2h-2V166h2v1a3.54,3.54,0,0,1,2.71-1.2,2.25,2.25,0,0,1,2.51,2.46v5.46h-2Z"/><path class="cls-3" d="M107.25,163.67a1.22,1.22,0,1,1,1.22,1.22A1.23,1.23,0,0,1,107.25,163.67Zm.21,2.35h2v7.73h-2Z"/><path class="cls-3" d="M115,165.83c2.3,0,3.87,1.73,3.87,4.26v.45h-5.75a2.08,2.08,0,0,0,2.23,1.79,3.16,3.16,0,0,0,2.06-.77l.9,1.31a4.77,4.77,0,0,1-3.19,1.07,4.06,4.06,0,1,1-.13-8.12Zm-1.9,3.33h3.81a1.79,1.79,0,0,0-1.91-1.71A1.86,1.86,0,0,0,113.11,169.16Z"/><path class="cls-3" d="M55.22,188.28a1.25,1.25,0,0,0-1.42-1.44,2.2,2.2,0,0,0-1.76.91V193H50v-7.73h2v1a3.54,3.54,0,0,1,2.71-1.2,2.25,2.25,0,0,1,2.51,2.46V193h-2Z"/><path class="cls-3" d="M58.77,189.08a4.09,4.09,0,1,1,4.08,4.07A3.91,3.91,0,0,1,58.77,189.08Zm6.07,0a2,2,0,1,0-2,2.26A2,2,0,0,0,64.83,189.08Z"/><path class="cls-3" d="M68.85,191v-4H67.57v-1.78h1.28v-2.11h2v2.11h1.57V187H70.89v3.49c0,.48.26.85.71.85a1.11,1.11,0,0,0,.7-.22l.43,1.54a2.51,2.51,0,0,1-1.7.5A1.93,1.93,0,0,1,68.85,191Z"/><path class="cls-3" d="M73.36,189.08a4.09,4.09,0,1,1,4.08,4.07A3.91,3.91,0,0,1,73.36,189.08Zm6.07,0a2,2,0,1,0-2,2.26A2,2,0,0,0,79.42,189.08Z"/><path class="cls-3" d="M88.19,187.69,86.56,193H84.38L82,185.23h2.11l1.44,5.2,1.7-5.2h1.81l1.7,5.2,1.44-5.2h2.11L92,193H89.82Z"/><path class="cls-3" d="M100,192.16a3.2,3.2,0,0,1-2.45,1,2.58,2.58,0,0,1-2.69-2.56,2.45,2.45,0,0,1,2.69-2.46,3.13,3.13,0,0,1,2.45.94V188c0-.78-.67-1.3-1.7-1.3a3.25,3.25,0,0,0-2.26.91l-.77-1.36A5.07,5.07,0,0,1,98.64,185c1.76,0,3.38.7,3.38,2.93v5h-2Zm0-2a2,2,0,0,0-1.63-.67c-.8,0-1.46.43-1.46,1.17s.66,1.14,1.46,1.14a2,2,0,0,0,1.63-.67Z"/><path class="cls-3" d="M109.25,188.28a1.25,1.25,0,0,0-1.42-1.44,2.2,2.2,0,0,0-1.76.91V193h-2v-7.73h2v1a3.54,3.54,0,0,1,2.71-1.2,2.25,2.25,0,0,1,2.51,2.46V193h-2Zm-2.35-4.23,2.14-2.3h1.87l-2.59,2.3Z"/><path class="cls-3" d="M245.3,176.75V166.07h2v1a3,3,0,0,1,2.38-1.17c2,0,3.43,1.47,3.43,4s-1.44,4.07-3.43,4.07a3,3,0,0,1-2.38-1.18v3.94Zm3.78-9.06a2.28,2.28,0,0,0-1.75.88v2.74a2.33,2.33,0,0,0,1.75.88,2.27,2.27,0,0,0,0-4.5Z"/><path class="cls-3" d="M254.66,166.07h2v1.06a3.31,3.31,0,0,1,2.46-1.23v2a2.75,2.75,0,0,0-.56,0,2.58,2.58,0,0,0-1.91.86v5.11h-2Z"/><path class="cls-3" d="M260.09,172.28l3.49-4.43h-3.49v-1.78h6.24v1.47L262.79,172h3.6v1.78h-6.31Z"/><path class="cls-3" d="M268.76,175.13a1,1,0,0,0,1.07-.56l.29-.66L267,166.07h2.18l2,5.38,2-5.38h2.19l-3.63,9a2.81,2.81,0,0,1-2.93,1.87,5.61,5.61,0,0,1-1-.11l.3-1.83A1.76,1.76,0,0,0,268.76,175.13Z"/><path class="cls-3" d="M277,174.31a3.07,3.07,0,0,0,2.42,1,1.89,1.89,0,0,0,2.13-2v-.78a3,3,0,0,1-2.38,1.22c-1.94,0-3.41-1.36-3.41-3.94s1.46-3.94,3.41-3.94a3,3,0,0,1,2.38,1.18v-1h2v7.2c0,2.95-2.27,3.67-4.18,3.67a4.66,4.66,0,0,1-3.33-1.15Zm4.55-5.75a2.2,2.2,0,0,0-1.75-.88,2.14,2.14,0,0,0,0,4.26,2.25,2.25,0,0,0,1.75-.88Z"/><path class="cls-3" d="M285.16,169.93a4.09,4.09,0,1,1,4.08,4.07A3.92,3.92,0,0,1,285.16,169.93Zm6.07,0a2,2,0,1,0-2,2.26A2,2,0,0,0,291.23,169.93Z"/><path class="cls-3" d="M295.24,171.88v-4H294v-1.78h1.28V164h2v2.11h1.57v1.78h-1.57v3.49c0,.48.26.85.71.85a1.11,1.11,0,0,0,.7-.22l.43,1.54a2.51,2.51,0,0,1-1.7.5A1.93,1.93,0,0,1,295.24,171.88Z"/><path class="cls-3" d="M299.75,169.93a4.09,4.09,0,1,1,4.08,4.07A3.92,3.92,0,0,1,299.75,169.93Zm6.07,0a2,2,0,1,0-2,2.26A2,2,0,0,0,305.82,169.93Z"/><path class="cls-3" d="M314.58,168.53,313,173.8h-2.18l-2.35-7.73h2.11l1.44,5.2,1.7-5.2h1.81l1.7,5.2,1.44-5.2h2.11l-2.35,7.73h-2.16Z"/><path class="cls-3" d="M326.38,173a3.2,3.2,0,0,1-2.45,1,2.58,2.58,0,0,1-2.69-2.56,2.45,2.45,0,0,1,2.69-2.46,3.13,3.13,0,0,1,2.45.94v-1.07c0-.78-.67-1.3-1.7-1.3a3.25,3.25,0,0,0-2.26.91l-.77-1.36a5.07,5.07,0,0,1,3.38-1.22c1.76,0,3.38.7,3.38,2.93v5h-2Zm0-2a2,2,0,0,0-1.63-.67c-.8,0-1.46.43-1.46,1.17s.66,1.14,1.46,1.14a2,2,0,0,0,1.63-.67Z"/><path class="cls-3" d="M335.64,169.13a1.25,1.25,0,0,0-1.42-1.44,2.2,2.2,0,0,0-1.76.91v5.2h-2v-7.73h2v1a3.54,3.54,0,0,1,2.71-1.2,2.25,2.25,0,0,1,2.51,2.46v5.46h-2Z"/><path class="cls-3" d="M339.48,163.72a1.22,1.22,0,1,1,1.22,1.22A1.23,1.23,0,0,1,339.48,163.72Zm.21,2.35h2v7.73h-2Z"/><path class="cls-3" d="M347.24,165.88c2.3,0,3.87,1.73,3.87,4.26v.45h-5.75a2.08,2.08,0,0,0,2.23,1.79,3.16,3.16,0,0,0,2.06-.77l.9,1.31a4.77,4.77,0,0,1-3.19,1.07,4.06,4.06,0,1,1-.13-8.12Zm-1.9,3.33h3.81a1.79,1.79,0,0,0-1.91-1.71A1.86,1.86,0,0,0,345.34,169.21Z"/><path class="cls-3" d="M356.18,169.93a4.09,4.09,0,1,1,4.08,4.07A3.91,3.91,0,0,1,356.18,169.93Zm6.07,0a2,2,0,1,0-2,2.26A2,2,0,0,0,362.25,169.93Z"/><path class="cls-3" d="M366.31,167.85H365v-1.78h1.28v-.42a2.49,2.49,0,0,1,2.61-2.69,3.3,3.3,0,0,1,1.47.32l-.42,1.44a1.24,1.24,0,0,0-.66-.16c-.58,0-1,.38-1,1.12v.38h1.57v1.78h-1.57v6h-2Z"/><path class="cls-3" d="M374.6,165.88c2.3,0,3.87,1.73,3.87,4.26v.45h-5.75a2.08,2.08,0,0,0,2.23,1.79,3.16,3.16,0,0,0,2.06-.77l.9,1.31a4.77,4.77,0,0,1-3.19,1.07,4.06,4.06,0,1,1-.13-8.12Zm-1.9,3.33h3.81a1.79,1.79,0,0,0-1.91-1.71A1.86,1.86,0,0,0,372.69,169.21Z"/><path class="cls-3" d="M379.94,166.07h2v1.06a3.31,3.31,0,0,1,2.46-1.23v2a2.75,2.75,0,0,0-.56,0,2.58,2.58,0,0,0-1.91.86v5.11h-2Z"/><path class="cls-3" d="M386.1,171.88v-4h-1.28v-1.78h1.28V164h2v2.11h1.57v1.78h-1.57v3.49c0,.48.26.85.71.85a1.11,1.11,0,0,0,.7-.22l.43,1.54a2.51,2.51,0,0,1-1.7.5A1.93,1.93,0,0,1,386.1,171.88Z"/><path class="cls-3" d="M391.78,175.13a1,1,0,0,0,1.07-.56l.29-.66L390,166.07h2.18l2,5.38,2-5.38h2.19l-3.63,9a2.81,2.81,0,0,1-2.93,1.87,5.61,5.61,0,0,1-1-.11l.3-1.83A1.76,1.76,0,0,0,391.78,175.13Z"/><path class="cls-3" d="M262.54,192a3,3,0,0,1-2.38,1.17c-2,0-3.42-1.47-3.42-4s1.46-4.07,3.42-4.07a3,3,0,0,1,2.38,1.18v-3.94h2V193h-2Zm0-4.26a2.24,2.24,0,0,0-1.76-.88,2.27,2.27,0,0,0,0,4.5,2.23,2.23,0,0,0,1.76-.88Z"/><path class="cls-3" d="M266.6,182.32h2V193h-2Z"/><path class="cls-3" d="M275.29,192.2a3.2,3.2,0,0,1-2.45,1,2.58,2.58,0,0,1-2.69-2.56,2.45,2.45,0,0,1,2.69-2.46,3.13,3.13,0,0,1,2.45.94V188c0-.78-.67-1.3-1.7-1.3a3.25,3.25,0,0,0-2.26.91l-.77-1.36a5.07,5.07,0,0,1,3.38-1.22c1.76,0,3.38.7,3.38,2.93v5h-2Zm0-2a2,2,0,0,0-1.63-.67c-.8,0-1.46.43-1.46,1.17s.66,1.14,1.46,1.14a2,2,0,0,0,1.63-.67Z"/><path class="cls-3" d="M288.75,192a3,3,0,0,1-2.38,1.17c-2,0-3.43-1.47-3.43-4s1.46-4.07,3.43-4.07a3,3,0,0,1,2.38,1.18v-3.94h2V193h-2Zm0-4.26a2.24,2.24,0,0,0-1.76-.88,2.27,2.27,0,0,0,0,4.5,2.23,2.23,0,0,0,1.76-.88Z"/><path class="cls-3" d="M297.45,192.2a3.2,3.2,0,0,1-2.45,1,2.58,2.58,0,0,1-2.69-2.56,2.45,2.45,0,0,1,2.69-2.46,3.13,3.13,0,0,1,2.45.94V188c0-.78-.67-1.3-1.7-1.3a3.25,3.25,0,0,0-2.26.91l-.77-1.36a5.07,5.07,0,0,1,3.38-1.22c1.76,0,3.38.7,3.38,2.93v5h-2Zm0-2a2,2,0,0,0-1.63-.67c-.8,0-1.46.43-1.46,1.17s.66,1.14,1.46,1.14a2,2,0,0,0,1.63-.67Z"/><path class="cls-3" d="M306.71,188.33a1.25,1.25,0,0,0-1.42-1.44,2.2,2.2,0,0,0-1.76.91V193h-2v-7.73h2v1a3.54,3.54,0,0,1,2.71-1.2,2.25,2.25,0,0,1,2.51,2.46V193h-2Z"/><path class="cls-3" d="M314.26,185.08c2.3,0,3.87,1.73,3.87,4.26v.45h-5.75a2.08,2.08,0,0,0,2.23,1.79,3.16,3.16,0,0,0,2.06-.77l.9,1.31a4.77,4.77,0,0,1-3.19,1.07,4.06,4.06,0,1,1-.13-8.12Zm-1.9,3.33h3.81a1.79,1.79,0,0,0-1.91-1.71A1.86,1.86,0,0,0,312.36,188.41Z"/><path class="cls-3" d="M320.36,193.51a3.07,3.07,0,0,0,2.42,1,1.89,1.89,0,0,0,2.13-2v-.78a3,3,0,0,1-2.38,1.22c-1.94,0-3.41-1.36-3.41-3.94s1.46-3.94,3.41-3.94a3,3,0,0,1,2.38,1.18v-1h2v7.2c0,2.95-2.27,3.67-4.18,3.67a4.66,4.66,0,0,1-3.33-1.15Zm4.55-5.75a2.2,2.2,0,0,0-1.75-.88,2.14,2.14,0,0,0,0,4.26,2.25,2.25,0,0,0,1.75-.88Z"/><path class="cls-3" d="M328.47,189.13a4.09,4.09,0,1,1,4.08,4.07A3.92,3.92,0,0,1,328.47,189.13Zm6.07,0a2,2,0,1,0-2,2.26A2,2,0,0,0,334.54,189.13Z"/><path class="cls-3" d="M342.25,182.32h2v3.94a3,3,0,0,1,2.38-1.18c2,0,3.43,1.54,3.43,4.07s-1.47,4-3.43,4a3,3,0,0,1-2.38-1.17v1h-2Zm3.78,9.06a2.27,2.27,0,0,0,0-4.5,2.24,2.24,0,0,0-1.75.9v2.74A2.26,2.26,0,0,0,346,191.38Z"/><path class="cls-3" d="M356.26,192.2a3.2,3.2,0,0,1-2.45,1,2.58,2.58,0,0,1-2.69-2.56,2.45,2.45,0,0,1,2.69-2.46,3.13,3.13,0,0,1,2.45.94V188c0-.78-.67-1.3-1.7-1.3a3.25,3.25,0,0,0-2.26.91l-.77-1.36a5.07,5.07,0,0,1,3.38-1.22c1.76,0,3.38.7,3.38,2.93v5h-2Zm0-2a2,2,0,0,0-1.63-.67c-.8,0-1.46.43-1.46,1.17s.66,1.14,1.46,1.14a2,2,0,0,0,1.63-.67Z"/><path class="cls-3" d="M365.53,188.33a1.25,1.25,0,0,0-1.42-1.44,2.2,2.2,0,0,0-1.76.91V193h-2v-7.73h2v1a3.54,3.54,0,0,1,2.71-1.2,2.25,2.25,0,0,1,2.51,2.46V193h-2Z"/><path class="cls-3" d="M372.54,190l-.93,1v2h-2V182.32h2v6.39l2.93-3.44H377L374,188.77l3.15,4.23h-2.54Z"/><path class="cls-3" d="M383.35,192a3.62,3.62,0,0,1-2.72,1.17,2.21,2.21,0,0,1-2.5-2.43v-5.49h2V190a1.24,1.24,0,0,0,1.42,1.42,2.28,2.28,0,0,0,1.76-.88v-5.23h2V193h-2Z"/><path class="cls-3" d="M280.16,208.33a4.09,4.09,0,1,1,4.08,4.07A3.91,3.91,0,0,1,280.16,208.33Zm6.07,0a2,2,0,1,0-2,2.26A2,2,0,0,0,286.23,208.33Z"/><path class="cls-3" d="M289.84,204.47h2v1.06a3.31,3.31,0,0,1,2.46-1.23v2a2.75,2.75,0,0,0-.56,0,2.58,2.58,0,0,0-1.91.86v5.11h-2Z"/><path class="cls-3" d="M300.24,211.4a3.2,3.2,0,0,1-2.45,1,2.58,2.58,0,0,1-2.69-2.56,2.45,2.45,0,0,1,2.69-2.46,3.13,3.13,0,0,1,2.45.94v-1.07c0-.78-.67-1.3-1.7-1.3a3.25,3.25,0,0,0-2.26.91l-.77-1.36a5.07,5.07,0,0,1,3.38-1.22c1.76,0,3.38.7,3.38,2.93v5h-2Zm0-2a2,2,0,0,0-1.63-.67c-.8,0-1.46.43-1.46,1.17s.66,1.14,1.46,1.14a2,2,0,0,0,1.63-.67Z"/><path class="cls-3" d="M304,210.68l3.49-4.43H304v-1.78h6.24v1.47l-3.54,4.48h3.6v1.78H304Z"/><path class="cls-3" d="M321.2,206.93l-1.63,5.27h-2.18L315,204.47h2.11l1.44,5.2,1.7-5.2h1.81l1.7,5.2,1.44-5.2h2.11L325,212.2h-2.16Z"/><path class="cls-3" d="M333,211.4a3.2,3.2,0,0,1-2.45,1,2.58,2.58,0,0,1-2.69-2.56,2.45,2.45,0,0,1,2.69-2.46,3.13,3.13,0,0,1,2.45.94v-1.07c0-.78-.67-1.3-1.7-1.3a3.25,3.25,0,0,0-2.26.91l-.77-1.36a5.07,5.07,0,0,1,3.38-1.22c1.76,0,3.38.7,3.38,2.93v5h-2Zm0-2a2,2,0,0,0-1.63-.67c-.8,0-1.46.43-1.46,1.17s.66,1.14,1.46,1.14a2,2,0,0,0,1.63-.67Z"/><path class="cls-3" d="M337,201.52h2V212.2h-2Z"/><path class="cls-3" d="M346.3,211.22a3.62,3.62,0,0,1-2.72,1.17,2.21,2.21,0,0,1-2.5-2.43v-5.49h2v4.69a1.24,1.24,0,0,0,1.42,1.42,2.28,2.28,0,0,0,1.76-.88v-5.23h2v7.73h-2Z"/><path class="cls-3" d="M350.75,210.28v-4h-1.28v-1.78h1.28v-2.11h2v2.11h1.57v1.78H352.8v3.49c0,.48.26.85.71.85a1.11,1.11,0,0,0,.7-.22l.43,1.54a2.51,2.51,0,0,1-1.7.5A1.93,1.93,0,0,1,350.75,210.28Z"/><path class="cls-3" d="M356.43,213.53a1,1,0,0,0,1.07-.56l.29-.66-3.14-7.84h2.18l2,5.38,2-5.38h2.19l-3.63,9a2.81,2.81,0,0,1-2.93,1.87,5.61,5.61,0,0,1-1-.11l.3-1.83A1.76,1.76,0,0,0,356.43,213.53Z"/><polygon class="cls-1" points="80.33 79.05 17.83 42.23 21.04 36.78 80.34 71.72 140.25 36.66 143.44 42.11 80.33 79.05"/><path class="cls-1" d="M321.14,147.66l-64.8-37.34.39-72.47L321.39,0l64.06,37.74-.13,73Zm-58.46-41,58.46,33.69L379,107l.12-65.69-57.74-34L263,41.49Z"/><path class="cls-2" d="M388.63,84.58"/><polygon class="cls-1" points="321.08 79.05 258.58 42.23 261.79 36.78 321.09 71.72 381 36.66 384.19 42.11 321.08 79.05"/><path class="cls-3" d="M296.1,589h-7.17l-.73,2.41h-6.13L289,572.75h7.11L303,591.42h-6.13Zm-5.71-4.7h4.26l-2.13-6.58Z"/><path class="cls-3" d="M304,572.75h11.34c3.86,0,5.54,2.58,5.54,4.76a4.12,4.12,0,0,1-3.19,4.28,4.4,4.4,0,0,1,3.56,4.56c0,2.6-1.76,5.07-5.52,5.07H304Zm10,6.94a1.18,1.18,0,0,0,1.12-1.2,1.15,1.15,0,0,0-1.12-1.15h-4.37v2.35Zm.17,7.14a1.24,1.24,0,0,0,1.32-1.26,1.27,1.27,0,0,0-1.32-1.29h-4.54v2.55Z"/><path class="cls-3" d="M340,579.63l-4.17,11.79h-2.52l-4.17-11.79v11.79h-5.66V572.75h7.81l3.28,9.52,3.28-9.52h7.81v18.68H340Z"/><path class="cls-3" d="M350.2,584.59a8.7,8.7,0,0,0,6,2.41c1.06,0,2.07-.36,2.07-1.09s-.78-1.09-2.63-1.43c-3.08-.56-7.78-1.29-7.78-6,0-3.16,2.63-6,7.76-6a12.32,12.32,0,0,1,7.92,2.6l-3,4a9.29,9.29,0,0,0-5.21-1.85c-1.4,0-1.71.5-1.71,1,0,.73.76,1,2.74,1.32,3.08.53,7.64,1.43,7.64,5.74,0,4.12-3.05,6.5-8.06,6.5a12.31,12.31,0,0,1-8.68-3Z"/><path class="cls-1" d="M323.3,631.37,258.5,594l.39-72.47,64.67-37.85,64.06,37.74-.13,73Zm-58.46-41,58.46,33.69,57.86-33.33.12-65.69-57.74-34-58.35,34.16Z"/><path class="cls-2" d="M390.79,568.29"/><polygon class="cls-1" points="323.23 562.76 260.73 525.94 263.94 520.49 323.24 555.43 383.15 520.36 386.35 525.82 323.23 562.76"/><path class="cls-3" d="M42.32,374.24c0-5.77,4.42-9.66,10.14-9.66A8.78,8.78,0,0,1,61.08,370l-4.87,2.27a4,4,0,0,0-3.75-2.72,4.68,4.68,0,0,0,0,9.35,4,4,0,0,0,3.75-2.72l4.87,2.24a8.88,8.88,0,0,1-8.62,5.46C46.74,383.9,42.32,380,42.32,374.24Z"/><path class="cls-3" d="M62.84,364.89H77v4.7H68.5v2.18h8.32v4.7H68.5v2.38H77v4.7H62.84Z"/><path class="cls-3" d="M96,371.77l-4.17,11.79H89.36l-4.17-11.79v11.79H79.53V364.89h7.81l3.28,9.52,3.28-9.52h7.81v18.68H96Z"/><path class="cls-3" d="M106.24,376.73a8.7,8.7,0,0,0,6,2.41c1.06,0,2.07-.36,2.07-1.09s-.78-1.09-2.63-1.43c-3.08-.56-7.78-1.29-7.78-6,0-3.16,2.63-6,7.76-6a12.32,12.32,0,0,1,7.92,2.6l-3,4a9.29,9.29,0,0,0-5.21-1.85c-1.4,0-1.71.5-1.71,1,0,.73.76,1,2.74,1.32,3.08.53,7.64,1.43,7.64,5.74,0,4.12-3.05,6.5-8.06,6.5a12.31,12.31,0,0,1-8.68-3Z"/><path class="cls-1" d="M80.94,423.51l-64.8-37.34.39-72.47,64.67-37.85,64.06,37.74-.13,73Zm-58.46-41,58.46,33.69,57.87-33.33.12-65.69-57.74-34L22.82,317.33Z"/><path class="cls-2" d="M148.43,360.43"/><polygon class="cls-1" points="80.87 354.9 18.37 318.08 21.58 312.63 80.88 347.57 140.79 312.5 143.98 317.96 80.87 354.9"/><polygon class="cls-3" points="191.21 97.46 186.74 92.99 205.96 73.78 186.74 54.56 191.21 50.1 214.9 73.78 191.21 97.46"/><polygon class="cls-3" points="191.21 576.4 186.74 571.93 205.96 552.72 186.74 533.5 191.21 529.03 214.9 552.72 191.21 576.4"/><polygon class="cls-3" points="208.19 375.36 184.51 351.68 208.19 327.99 212.66 332.46 193.45 351.68 212.66 370.89 208.19 375.36"/><polygon class="cls-3" points="80.64 493.37 56.95 469.69 61.42 465.22 80.64 484.44 99.85 465.22 104.32 469.69 80.64 493.37"/><polygon class="cls-3" points="321.3 288.5 297.62 264.82 302.09 260.35 321.3 279.56 340.52 260.35 344.99 264.82 321.3 288.5"/><polygon class="cls-3" points="321.3 701.84 297.62 678.16 302.09 673.69 321.3 692.9 340.52 673.69 344.99 678.16 321.3 701.84"/></g></g></svg>