<svg xmlns="http://www.w3.org/2000/svg" viewBox="0 0 115.66 71.37"><title>MacBookOutline</title><g id="Warstwa_2" data-name="Warstwa 2"><g id="Capa_1" data-name="Capa 1"><path d="M105.91,3.41H9.54V63.58h96.38Zm-1,59.17H10.54V4.41h94.38Z"/><path d="M115.62,67.11a.68.68,0,0,0-.61-.44l-5.93,0a5.46,5.46,0,0,0,.56-2.4V5.56A5.57,5.57,0,0,0,104.09,0H11.51A5.57,5.57,0,0,0,6,5.56V64.24a5.45,5.45,0,0,0,.6,2.48H.35l-.15.15c-.11.11-.6.73.51,1.83,2.42,2.42,7.62,2.65,7.84,2.66h.52v0l92.63,0h4.21c5,0,7-1.37,8.45-2.36l.43-.29.08-.06C115.54,68,115.76,67.51,115.62,67.11ZM7,5.56A4.57,4.57,0,0,1,11.51,1h92.57a4.57,4.57,0,0,1,4.56,4.56V64.24a4.49,4.49,0,0,1-.71,2.4l-.23,0-100,0A4.48,4.48,0,0,1,7,64.24ZM64.22,67.92v.64H51.44v-.64Zm50,0-.4.27c-1.33.92-3.15,2.19-7.89,2.19l-97.33,0H8.48c-.72,0-5.09-.38-7.07-2.36a2.69,2.69,0,0,1-.25-.27l50,0v1.11H64.47V67.69l49.94,0Z"/></g></g></svg>