<?xml version="1.0" encoding="utf-8"?>
<!-- Generator: Adobe Illustrator 21.1.0, SVG Export Plug-In . SVG Version: 6.00 Build 0)  -->
<svg version="1.1" id="Warstwa_1" xmlns="http://www.w3.org/2000/svg"  x="0px" y="0px"
	 viewBox="0 0 194.9 383.9" style="enable-background:new 0 0 194.9 383.9;" xml:space="preserve">
<style type="text/css">
	.st0{fill:none;stroke:#FFDF00;stroke-miterlimit:10;}
	.st1{fill:none;stroke:#000000;stroke-width:2;stroke-miterlimit:10;}
	.st2{stroke:#000000;stroke-width:0.25;stroke-miterlimit:10;}
	.st3{stroke:#000000;stroke-width:0.55;stroke-miterlimit:10;}
	.st4{fill:none;stroke:#000000;stroke-miterlimit:10;}
</style>
<path class="st0" d="M63.3,342.2"/>
<path class="st0" d="M63.3,314.2"/>
<path class="st1" d="M62.8,342.2c0,0,0,8.8,0,10.7c0,16.5-13.5,30-30,30H31c-16.5,0-30-13.5-30-30V31C1,14.5,14.5,1,31,1h1.8
	c2,0,12.6,0.2,21.2,8.8S62.8,29,62.8,31c0,94.4,0,283.2,0,283.2"/>
<path class="st1" d="M179.9,342.2H30c-7.7,0-14-6.3-14-14l0,0c0-7.7,6.3-14,14-14h150c7.7,0,14,6.3,14,14l0,0
	C193.9,335.9,187.6,342.2,179.9,342.2z"/>
<path class="st1" d="M31.9,198.9L31.9,198.9c-13.8,0-25-11.2-25-25V32.4c0-13.8,11.2-25,25-25l0,0c13.8,0,25,11.2,25,25v141.5
	C56.9,187.7,45.6,198.9,31.9,198.9z"/>
<path class="st2" d="M43.1,60.7c-2.9-2.9-6.7-4.4-10.7-4.4s-7.9,1.6-10.7,4.4c-0.2,0.2-0.2,0.4,0,0.6c0.2,0.2,0.4,0.2,0.6,0
	c2.7-2.7,6.3-4.2,10.2-4.2s7.4,1.5,10.2,4.2c0.1,0.1,0.2,0.1,0.3,0.1s0.2,0,0.3-0.1C43.2,61.1,43.2,60.9,43.1,60.7z"/>
<path class="st2" d="M23.9,63c-0.2,0.2-0.2,0.4,0,0.6c0.1,0.1,0.2,0.1,0.3,0.1s0.2,0,0.3-0.1c4.3-4.3,11.3-4.3,15.7,0
	c0.2,0.2,0.4,0.2,0.6,0c0.2-0.2,0.2-0.4,0-0.6C36.1,58.4,28.6,58.4,23.9,63z"/>
<path class="st2" d="M32.3,62.8c-2.3,0-4.5,0.9-6.1,2.5c-0.2,0.2-0.2,0.4,0,0.6s0.4,0.2,0.6,0c1.5-1.5,3.4-2.3,5.5-2.3
	s4,0.8,5.5,2.3C37.9,66,38,66,38.1,66s0.2,0,0.3-0.1c0.2-0.2,0.2-0.4,0-0.6C36.8,63.7,34.6,62.8,32.3,62.8z"/>
<g>
	<g>
		<path class="st3" d="M45.9,84.5c-0.6,0-1.1,0.5-1.1,1.1v1.1h0.4v-1.1c0-0.4,0.3-0.7,0.7-0.7s0.7,0.3,0.7,0.7v0.2H47v-0.2
			C47,84.9,46.5,84.5,45.9,84.5z"/>
	</g>
</g>
<circle class="st4" cx="16.6" cy="112" r="5.2"/>
<circle class="st4" cx="32" cy="112" r="5.2"/>
<circle class="st4" cx="32.4" cy="68.5" r="2.1"/>
<circle class="st4" cx="47" cy="112" r="5.2"/>
<circle class="st4" cx="16.6" cy="130.5" r="5.2"/>
<circle class="st4" cx="32" cy="130.5" r="5.2"/>
<circle class="st4" cx="47" cy="130.5" r="5.2"/>
<circle class="st4" cx="16.8" cy="149.4" r="5.2"/>
<circle class="st4" cx="32.2" cy="149.4" r="5.2"/>
<circle class="st4" cx="47.2" cy="149.4" r="5.2"/>
<circle class="st4" cx="16.8" cy="168.3" r="5.2"/>
<circle class="st4" cx="32.2" cy="168.3" r="5.2"/>
<circle class="st4" cx="47.2" cy="168.3" r="5.2"/>
<line class="st4" x1="23.4" y1="90.3" x2="23.4" y2="86.7"/>
<line class="st4" x1="17.9" y1="90.3" x2="17.9" y2="86.7"/>
<line class="st4" x1="17.1" y1="89.7" x2="17.1" y2="87.2"/>
<line class="st4" x1="22.2" y1="89" x2="22.2" y2="88"/>
<line class="st4" x1="23.9" y1="89.8" x2="17.4" y2="89.8"/>
<line class="st4" x1="23.9" y1="87.2" x2="17.4" y2="87.2"/>
<rect x="42.8" y="87.2" class="st4" width="2.6" height="2.6"/>
</svg>
