<?xml version="1.0" encoding="iso-8859-1"?>
<!-- Generator: Adobe Illustrator 16.0.0, SVG Export Plug-In . SVG Version: 6.00 Build 0)  -->
<!DOCTYPE svg PUBLIC "-//W3C//DTD SVG 1.1//EN" "http://www.w3.org/Graphics/SVG/1.1/DTD/svg11.dtd">
<svg version="1.1" id="Capa_1" xmlns="http://www.w3.org/2000/svg" xmlns:xlink="http://www.w3.org/1999/xlink" x="0px" y="0px"
	 width="102px" height="102px" viewBox="0 0 102 102" style="enable-background:new 0 0 102 102;" xml:space="preserve">
<g>
	<path d="M74.685,102h-47.37c-2.453,0-4.449-1.996-4.449-4.45V4.45c0-2.454,1.996-4.45,4.449-4.45h47.37
		c2.453,0,4.448,1.996,4.448,4.45v93.1C79.134,100.004,77.138,102,74.685,102z M27.315,1c-1.902,0-3.449,1.548-3.449,3.45v93.1
		c0,1.902,1.547,3.45,3.449,3.45h47.37c1.901,0,3.448-1.548,3.448-3.45V4.45c0-1.902-1.547-3.45-3.448-3.45H27.315z M51,97.375
		c-2.411,0-4.373-1.963-4.373-4.375s1.962-4.375,4.373-4.375s4.373,1.963,4.373,4.375S53.412,97.375,51,97.375z M51,89.625
		c-1.86,0-3.373,1.514-3.373,3.375s1.513,3.375,3.373,3.375c1.86,0,3.373-1.514,3.373-3.375S52.861,89.625,51,89.625z
		 M76.134,86.859H25.867V12.281h50.268V86.859z M26.867,85.859h48.268V13.281H26.867V85.859z"/>
</g>
<g>
</g>
<g>
</g>
<g>
</g>
<g>
</g>
<g>
</g>
<g>
</g>
<g>
</g>
<g>
</g>
<g>
</g>
<g>
</g>
<g>
</g>
<g>
</g>
<g>
</g>
<g>
</g>
<g>
</g>
</svg>
