<svg xmlns="http://www.w3.org/2000/svg" viewBox="0 0 291.23 256.09"><defs><style>.cls-1,.cls-2{fill:none;stroke:#282828;stroke-miterlimit:10;stroke-width:6.32px;}.cls-2{stroke-dasharray:15 20;}</style></defs><title>wdrazanie_domy</title><g id="Warstwa_2" data-name="Warstwa 2"><g id="Warstwa_1-2" data-name="Warstwa 1"><path class="cls-1" d="M184.83,62.22a47.77,47.77,0,0,1-92.84,0"/><path class="cls-1" d="M184.83,62.22a47.77,47.77,0,1,0-92.84,0"/><polyline class="cls-1" points="239.39 153.68 255.82 182.13 285.75 233.99 225.88 233.99 197.31 233.99"/><polyline class="cls-1" points="239.39 153.68 225.88 130.28 195.94 182.13 166.01 233.99 197.31 233.99"/><polyline class="cls-1" points="38.69 135.86 98.72 135.86 98.72 231.42 76.09 231.42"/><polyline class="cls-1" points="38.69 135.86 3.16 135.86 3.16 231.42 76.09 231.42"/><path class="cls-2" d="M197.31,234a101,101,0,0,1-121.22-2.56"/><path class="cls-2" d="M38.69,135.86A101.1,101.1,0,0,1,92,62.22"/><path class="cls-2" d="M239.39,153.68c0-.58,0-1.16,0-1.75a101,101,0,0,0-54.58-89.72"/></g></g></svg>