<svg xmlns="http://www.w3.org/2000/svg" viewBox="0 0 173.26 256.32"><defs><style>.cls-1{fill:none;stroke:#282828;stroke-miterlimit:10;stroke-width:6.32px;}</style></defs><title>klamka_domy</title><g id="Warstwa_2" data-name="Warstwa 2"><g id="Warstwa_1-2" data-name="Warstwa 1"><path class="cls-1" d="M91.67,232"/><path class="cls-1" d="M75.33,158.38h0a12.92,12.92,0,0,1-12.91-12.91V77.3A12.92,12.92,0,0,1,75.33,64.39h0A12.92,12.92,0,0,1,88.24,77.3v68.17A13,13,0,0,1,75.33,158.38Z"/><path class="cls-1" d="M97.32,202.81V75.68A21.39,21.39,0,0,0,76,54.33H74.69A21.42,21.42,0,0,0,53.33,75.68V231.16a22,22,0,0,0,22,22h0a22,22,0,0,0,22-22V217.39"/><polyline class="cls-1" points="97.32 202.81 170.1 202.81 170.1 217.39 97.32 217.39"/><polyline class="cls-1" points="97.32 202.81 67.05 202.81 67.05 217.39 97.32 217.39"/><path class="cls-1" d="M15.66,75.33a59.67,59.67,0,1,1,119.33,0"/><path class="cls-1" d="M28.66,75.33a46.67,46.67,0,1,1,93.33,0"/><path class="cls-1" d="M3.16,75.33a72.17,72.17,0,1,1,144.33,0"/></g></g></svg>