<svg xmlns="http://www.w3.org/2000/svg" viewBox="0 0 511.13 512"><title>Zasób 2</title><g id="Warstwa_2" data-name="Warstwa 2"><g id="Layer_1" data-name="Layer 1"><path d="M339.6,172.4H171.29V340.71H339.6Zm-16,153.34H186.26V188.44Z"/><path d="M484.46,309.21a26.49,26.49,0,0,0-11.71,2.71l-35.24-35.24H393.22V236.43h38.1L460,265.13a26.7,26.7,0,1,0,9.63-11.54l-32.12-32.12h-44.3V181.21h65.52a26.66,26.66,0,1,0,.28-15h-65.8V118.79H345.76V80.69l30.14-30.14a26.68,26.68,0,1,0-11-10.15L330.79,74.49v44.29H290.54V52.25a26.66,26.66,0,1,0-15,0v66.53H235.32V74.49l-35-35A26.69,26.69,0,1,0,189.71,50l30.64,30.64v38.1H180.1V70.11H131.56a26.67,26.67,0,1,0,0,15h33.57v33.71H117.67v47.46H84v-5.94a26.66,26.66,0,1,0-15,0v20.91h48.68v40.25H79.57L49.12,191a26.67,26.67,0,1,0-11.3,9.86l35.55,35.55h44.29v40.25H79.57L51,248.16a26.71,26.71,0,1,0-9.7,11.47l32,32h44.29V331.9H73.38L37.94,367.34a26.72,26.72,0,1,0,11.25,9.92l30.38-30.38h38.1v47.46h47.46v38.1l-29.79,29.79A26.68,26.68,0,1,0,145.72,473l34.39-34.39V394.33h40.25v65.42a26.67,26.67,0,1,0,15,0V394.33h40.25v44.29l34.27,34.27a26.7,26.7,0,1,0,10.42-10.74l-29.73-29.73v-38.1h40.25V443h26.07a26.67,26.67,0,1,0,0-15H345.76V394.33h47.46V346.87h33.71v31.06a26.66,26.66,0,1,0,15,0v-46H393.22V291.65h38.1L461.69,322a26.66,26.66,0,1,0,22.77-12.81Zm0-45.17a11.7,11.7,0,1,1-11.7,11.7A11.71,11.71,0,0,1,484.46,264Zm0-101.53a11.7,11.7,0,1,1-11.7,11.7A11.71,11.71,0,0,1,484.46,162.51ZM387.72,15A11.7,11.7,0,1,1,376,26.66,11.71,11.71,0,0,1,387.72,15ZM176.91,38.36a11.7,11.7,0,1,1,11.7-11.7A11.71,11.71,0,0,1,176.91,38.36ZM106,89.29a11.7,11.7,0,1,1,11.7-11.7A11.71,11.71,0,0,1,106,89.29ZM64.78,134.72a11.7,11.7,0,1,1,11.7,11.7A11.71,11.71,0,0,1,64.78,134.72ZM26.67,188.37a11.7,11.7,0,1,1,11.7-11.7A11.71,11.71,0,0,1,26.67,188.37Zm0,60.71a11.7,11.7,0,1,1,11.7-11.7A11.71,11.71,0,0,1,26.67,249.07Zm0,154.12a11.7,11.7,0,1,1,11.7-11.7A11.71,11.71,0,0,1,26.67,403.19ZM122.08,497a11.7,11.7,0,1,1,11.7-11.7A11.71,11.71,0,0,1,122.08,497Zm211.34-23.39a11.7,11.7,0,1,1-11.7,11.7A11.71,11.71,0,0,1,333.42,473.64Zm49-49.81a11.7,11.7,0,1,1-11.7,11.7A11.71,11.71,0,0,1,382.45,423.83ZM271.35,26.66a11.7,11.7,0,1,1,11.7,11.7A11.71,11.71,0,0,1,271.35,26.66ZM239.53,485.33a11.7,11.7,0,1,1-11.7-11.7A11.71,11.71,0,0,1,239.53,485.33Zm138.72-106H132.64V133.75H378.25Zm67.86,24.16a11.7,11.7,0,1,1-11.7-11.7A11.71,11.71,0,0,1,446.11,403.52Zm38.35-56a11.7,11.7,0,1,1,11.7-11.7A11.71,11.71,0,0,1,484.46,347.57Z"/></g></g></svg>