<svg xmlns="http://www.w3.org/2000/svg" viewBox="0 0 581.61 1233.53"><defs><style>.cls-1{fill:#282828;}.cls-2{fill:#ffde07;}.cls-3{fill:none;stroke:#ffde07;stroke-miterlimit:10;stroke-width:6.32px;}</style></defs><title>telekom_schemat_mobile</title><g id="Warstwa_2" data-name="Warstwa 2"><g id="Warstwa_1-2" data-name="Warstwa 1"><path class="cls-1" d="M16.78,446.9H6.1v-2h1a3,3,0,0,1-1.17-2.38c0-2,1.47-3.43,4-3.43S14,440.5,14,442.48a3,3,0,0,1-1.18,2.38h3.94Zm-9.06-3.78a2.28,2.28,0,0,0,.88,1.75h2.74a2.33,2.33,0,0,0,.88-1.75,2,2,0,0,0-2.26-2A2,2,0,0,0,7.72,443.12Z"/><path class="cls-1" d="M15.16,436.87a1,1,0,0,0-.56-1.07l-.66-.29L6.1,438.64v-2.18l5.38-2-5.38-2v-2.19l9,3.63A2.81,2.81,0,0,1,17,436.8a5.61,5.61,0,0,1-.11,1l-1.83-.3A1.76,1.76,0,0,0,15.16,436.87Z"/><path class="cls-1" d="M11.91,428.93h-4v1.28H6.1v-1.28H4v-2H6.1v-1.57H7.88v1.57h3.49c.48,0,.85-.26.85-.71a1.11,1.11,0,0,0-.22-.7l1.54-.43a2.51,2.51,0,0,1,.5,1.7A1.93,1.93,0,0,1,11.91,428.93Z"/><path class="cls-1" d="M13,419.28a3.2,3.2,0,0,1,1,2.45,2.58,2.58,0,0,1-2.56,2.69A2.45,2.45,0,0,1,9,421.73a3.13,3.13,0,0,1,.94-2.45H8.87c-.78,0-1.3.67-1.3,1.7a3.25,3.25,0,0,0,.91,2.26L7.13,424a5.07,5.07,0,0,1-1.22-3.38c0-1.76.7-3.38,2.93-3.38h5v2Zm-2,0a2,2,0,0,0-.67,1.63c0,.8.43,1.46,1.17,1.46s1.14-.66,1.14-1.46a2,2,0,0,0-.67-1.63Z"/><path class="cls-1" d="M9.16,410a1.25,1.25,0,0,0-1.44,1.42,2.2,2.2,0,0,0,.91,1.76h5.2v2H6.1v-2h1a3.54,3.54,0,0,1-1.2-2.71A2.25,2.25,0,0,1,8.37,408h5.46v2Z"/><path class="cls-1" d="M3.75,406.18A1.22,1.22,0,1,1,5,405,1.23,1.23,0,0,1,3.75,406.18ZM6.1,406v-2h7.73v2Z"/><path class="cls-1" d="M5.91,398.42c0-2.3,1.73-3.87,4.26-3.87h.45v5.75a2.08,2.08,0,0,0,1.79-2.23,3.16,3.16,0,0,0-.77-2.06l1.31-.9A4.77,4.77,0,0,1,14,398.29,3.92,3.92,0,0,1,10,402.42,3.93,3.93,0,0,1,5.91,398.42Zm3.33,1.9v-3.81a1.79,1.79,0,0,0-1.71,1.91A1.86,1.86,0,0,0,9.24,400.32Z"/><path class="cls-1" d="M60,447.75A4.09,4.09,0,1,1,64,443.66,3.92,3.92,0,0,1,60,447.75Zm0-6.07a2,2,0,1,0,2.26,2A2,2,0,0,0,60,441.68Z"/><path class="cls-1" d="M62.86,432.75A3,3,0,0,1,64,435.14c0,2-1.47,3.43-4,3.43s-4.07-1.46-4.07-3.43a3,3,0,0,1,1.18-2.38H53.16v-2H63.83v2Zm-4.26,0a2.24,2.24,0,0,0-.88,1.76,2.27,2.27,0,0,0,4.5,0,2.23,2.23,0,0,0-.88-1.76Z"/><path class="cls-1" d="M66.78,428.69H56.1v-2h1a3,3,0,0,1-1.17-2.38c0-2,1.47-3.43,4-3.43S64,422.29,64,424.27a3,3,0,0,1-1.18,2.38h3.94Zm-9.06-3.78a2.28,2.28,0,0,0,.88,1.75h2.74a2.33,2.33,0,0,0,.88-1.75,2.27,2.27,0,0,0-4.5,0Z"/><path class="cls-1" d="M60,419.83A4.09,4.09,0,1,1,64,415.74,3.92,3.92,0,0,1,60,419.83Zm0-6.07a2,2,0,1,0,2.26,2A2,2,0,0,0,60,413.76Z"/><path class="cls-1" d="M58.57,405l5.27,1.63v2.18l-7.73,2.35V409l5.2-1.44-5.2-1.7V404.1l5.2-1.7L56.1,401v-2.11l7.73,2.35v2.16Z"/><path class="cls-1" d="M53.75,398A1.22,1.22,0,1,1,55,396.83,1.23,1.23,0,0,1,53.75,398Zm2.35-.21v-2h7.73v2Z"/><path class="cls-1" d="M55.91,390.29c0-2.3,1.73-3.87,4.26-3.87h.45v5.75a2.08,2.08,0,0,0,1.79-2.23,3.16,3.16,0,0,0-.77-2.06L63,387A4.77,4.77,0,0,1,64,390.16a4.06,4.06,0,1,1-8.12.13Zm3.33,1.9v-3.81a1.79,1.79,0,0,0-1.71,1.91A1.86,1.86,0,0,0,59.24,392.19Z"/><path class="cls-1" d="M62.86,379.63A3,3,0,0,1,64,382c0,2-1.47,3.43-4,3.43S55.91,384,55.91,382a3,3,0,0,1,1.18-2.38H53.16v-2H63.83v2Zm-4.26,0a2.24,2.24,0,0,0-.88,1.76,2.27,2.27,0,0,0,4.5,0,2.23,2.23,0,0,0-.88-1.76Z"/><path class="cls-1" d="M54.93,373.51l-2.3-2.14v-1.87l2.3,2.59Zm7.38,2.4-4.43-3.49v3.49H56.1v-6.24h1.47l4.48,3.54v-3.6h1.78v6.31Z"/><path class="cls-1" d="M99,170v-4H97.69v-1.78H99v-2.11h2v2.11h1.57v1.78H101v3.49c0,.48.26.85.71.85a1.11,1.11,0,0,0,.7-.22l.43,1.54a2.51,2.51,0,0,1-1.7.5A1.93,1.93,0,0,1,99,170Z"/><path class="cls-1" d="M104.65,173.23a1,1,0,0,0,1.07-.56L106,172l-3.14-7.84H105l2,5.38,2-5.38h2.19l-3.63,9a2.81,2.81,0,0,1-2.93,1.87,5.61,5.61,0,0,1-1-.11l.3-1.83A1.76,1.76,0,0,0,104.65,173.23Z"/><path class="cls-1" d="M112.18,161.22h2V171.9h-2Z"/><path class="cls-1" d="M119.19,168.92l-.93,1v2h-2V161.22h2v6.39l2.93-3.44h2.5l-3.06,3.51,3.15,4.23h-2.54Z"/><path class="cls-1" d="M124,168a4.09,4.09,0,1,1,4.08,4.07A3.91,3.91,0,0,1,124,168Zm6.07,0a2,2,0,1,0-2,2.26A2,2,0,0,0,130,168Z"/><path class="cls-1" d="M137.74,164.17h2v1.06a3.31,3.31,0,0,1,2.46-1.23v2a2.75,2.75,0,0,0-.56,0,2.58,2.58,0,0,0-1.91.86v5.11h-2Z"/><path class="cls-1" d="M148.14,171.1a3.2,3.2,0,0,1-2.45,1,2.58,2.58,0,0,1-2.69-2.56,2.45,2.45,0,0,1,2.69-2.46,3.13,3.13,0,0,1,2.45.94v-1.07c0-.78-.67-1.3-1.7-1.3a3.25,3.25,0,0,0-2.26.91l-.77-1.36a5.07,5.07,0,0,1,3.38-1.22c1.76,0,3.38.7,3.38,2.93v5h-2Zm0-2a2,2,0,0,0-1.63-.67c-.8,0-1.46.43-1.46,1.17s.66,1.14,1.46,1.14a2,2,0,0,0,1.63-.67Z"/><path class="cls-1" d="M151.85,170.38l3.49-4.43h-3.49v-1.78h6.24v1.47l-3.54,4.48h3.6v1.78h-6.31Z"/><path class="cls-1" d="M245.46,7.43a4.09,4.09,0,0,1,8.18,0,4.09,4.09,0,0,1-8.18,0Zm6.07,0a2,2,0,1,0-4,0,2,2,0,1,0,4,0Z"/><path class="cls-1" d="M255.14.62h2V4.56a3,3,0,0,1,2.38-1.19c2,0,3.43,1.54,3.43,4.07s-1.47,4-3.43,4a3,3,0,0,1-2.38-1.17v1h-2Zm3.78,9.06a2,2,0,0,0,2-2.24,2,2,0,0,0-2-2.26,2.24,2.24,0,0,0-1.75.9V8.82A2.26,2.26,0,0,0,258.92,9.68Z"/><path class="cls-1" d="M269.16,10.5a3.2,3.2,0,0,1-2.45,1A2.58,2.58,0,0,1,264,8.93a2.45,2.45,0,0,1,2.69-2.46,3.13,3.13,0,0,1,2.45.94V6.34c0-.78-.67-1.3-1.7-1.3A3.25,3.25,0,0,0,265.2,6l-.77-1.36a5.07,5.07,0,0,1,3.38-1.22c1.76,0,3.38.71,3.38,2.93v5h-2Zm0-2a2,2,0,0,0-1.63-.67c-.8,0-1.46.43-1.46,1.17s.66,1.14,1.46,1.14a2,2,0,0,0,1.63-.67Z"/><path class="cls-1" d="M282.45,6l-1.63,5.27h-2.18l-2.35-7.73h2.11l1.44,5.2,1.7-5.2h1.81l1.7,5.2,1.44-5.2h2.11l-2.35,7.73h-2.16Z"/><path class="cls-1" d="M290.27,12.63a1,1,0,0,0,1.07-.56l.29-.66L288.5,3.57h2.18l2,5.38,2-5.38h2.19l-3.63,9a2.81,2.81,0,0,1-2.93,1.87,5.69,5.69,0,0,1-1-.11l.3-1.83A1.76,1.76,0,0,0,290.27,12.63Z"/><path class="cls-1" d="M298,8.87a4.41,4.41,0,0,0,2.67,1.06c.88,0,1.3-.3,1.3-.79s-.67-.74-1.55-.91c-1.33-.26-3-.58-3-2.42,0-1.3,1.14-2.43,3.17-2.43a4.86,4.86,0,0,1,3.11,1.06l-.8,1.39a3.26,3.26,0,0,0-2.29-.9c-.74,0-1.22.27-1.22.72s.61.66,1.47.83c1.33.26,3.11.61,3.11,2.53,0,1.42-1.2,2.48-3.34,2.48a5.2,5.2,0,0,1-3.46-1.2Z"/><path class="cls-1" d="M305.1,9.78l3.49-4.43H305.1V3.57h6.24V5l-3.54,4.48h3.6V11.3H305.1Z"/><path class="cls-1" d="M318.32,10.32a3.62,3.62,0,0,1-2.72,1.17,2.21,2.21,0,0,1-2.5-2.43V3.57h2V8.26a1.24,1.24,0,0,0,1.42,1.42,2.27,2.27,0,0,0,1.76-.88V3.57h2V11.3h-2Z"/><path class="cls-1" d="M325.33,8.32l-.93,1v2h-2V.62h2V7l2.93-3.44h2.5l-3.06,3.51,3.15,4.23h-2.54Z"/><path class="cls-1" d="M330.72,1.22a1.22,1.22,0,1,1,1.22,1.22A1.23,1.23,0,0,1,330.72,1.22Zm.21,2.35h2V11.3h-2Z"/><path class="cls-1" d="M340.13,6,338.5,11.3h-2.18L334,3.57h2.11l1.44,5.2,1.7-5.2H341l1.7,5.2,1.44-5.2h2.11l-2.35,7.73h-2.16Z"/><path class="cls-1" d="M351.92,10.5a3.2,3.2,0,0,1-2.45,1,2.58,2.58,0,0,1-2.69-2.56,2.45,2.45,0,0,1,2.69-2.46,3.13,3.13,0,0,1,2.45.94V6.34c0-.78-.67-1.3-1.7-1.3A3.25,3.25,0,0,0,348,6l-.77-1.36a5.07,5.07,0,0,1,3.38-1.22c1.76,0,3.38.71,3.38,2.93v5h-2Zm0-2a2,2,0,0,0-1.63-.67c-.8,0-1.46.43-1.46,1.17s.66,1.14,1.46,1.14a2,2,0,0,0,1.63-.67Z"/><path class="cls-1" d="M361.18,6.63a1.26,1.26,0,0,0-1.42-1.44A2.21,2.21,0,0,0,358,6.1v5.2h-2V3.57h2v1a3.53,3.53,0,0,1,2.71-1.2,2.25,2.25,0,0,1,2.51,2.46V11.3h-2Z"/><path class="cls-1" d="M365,1.22a1.22,1.22,0,1,1,1.22,1.22A1.23,1.23,0,0,1,365,1.22Zm.21,2.35h2V11.3h-2Z"/><path class="cls-1" d="M373.92,10.5a3.2,3.2,0,0,1-2.45,1,2.57,2.57,0,0,1-2.69-2.56,2.45,2.45,0,0,1,2.69-2.46,3.13,3.13,0,0,1,2.45.94V6.34c0-.78-.67-1.3-1.7-1.3A3.25,3.25,0,0,0,370,6l-.77-1.36a5.07,5.07,0,0,1,3.38-1.22c1.76,0,3.38.71,3.38,2.93v5h-2Zm0-2a2,2,0,0,0-1.63-.67c-.8,0-1.46.43-1.46,1.17s.66,1.14,1.46,1.14a2,2,0,0,0,1.63-.67Z"/><path class="cls-1" d="M245.46,26.63a4.09,4.09,0,0,1,8.18,0,4.09,4.09,0,0,1-8.18,0Zm6.07,0a2,2,0,1,0-4,0,2,2,0,1,0,4,0Z"/><path class="cls-1" d="M260.45,29.52a3,3,0,0,1-2.38,1.17c-2,0-3.42-1.47-3.42-4.05s1.46-4.06,3.42-4.06a3,3,0,0,1,2.38,1.18V19.82h2V30.5h-2Zm0-4.26a2.23,2.23,0,0,0-1.76-.88,2,2,0,0,0-2,2.26,2,2,0,0,0,2,2.24,2.24,2.24,0,0,0,1.76-.88Z"/><path class="cls-1" d="M264.51,19.82h2v3.94a3,3,0,0,1,2.38-1.18c2,0,3.43,1.54,3.43,4.06s-1.47,4.05-3.43,4.05a3,3,0,0,1-2.38-1.17v1h-2Zm3.78,9.06a2,2,0,0,0,2-2.24,2,2,0,0,0-2-2.26,2.24,2.24,0,0,0-1.75.9V28A2.26,2.26,0,0,0,268.29,28.88Z"/><path class="cls-1" d="M274.56,31.83a1,1,0,0,0,1.07-.56l.29-.66-3.14-7.84H275l2,5.38,2-5.38h2.19l-3.63,9a2.81,2.81,0,0,1-2.93,1.87,5.52,5.52,0,0,1-1-.11l.3-1.82A1.76,1.76,0,0,0,274.56,31.83Z"/><path class="cls-1" d="M287.25,25.23l-1.63,5.27h-2.18l-2.35-7.73h2.11l1.44,5.2,1.7-5.2h1.81l1.7,5.2,1.44-5.2h2.11L291,30.5h-2.16Z"/><path class="cls-1" d="M299,29.7a3.2,3.2,0,0,1-2.45,1,2.58,2.58,0,0,1-2.69-2.56,2.45,2.45,0,0,1,2.69-2.46,3.12,3.12,0,0,1,2.45.95V25.54c0-.79-.67-1.3-1.7-1.3a3.26,3.26,0,0,0-2.26.91l-.77-1.36a5.07,5.07,0,0,1,3.38-1.21c1.76,0,3.38.7,3.38,2.93v5h-2Zm0-2a2,2,0,0,0-1.63-.67c-.8,0-1.46.43-1.46,1.17s.66,1.14,1.46,1.14a2,2,0,0,0,1.63-.67Z"/><path class="cls-1" d="M305.12,30.71c0,1.76-.9,2.93-2.75,2.93a4.42,4.42,0,0,1-.88-.08l.13-1.67a2.05,2.05,0,0,0,.45,0c.59,0,1-.37,1-1.23V22.77h2Zm-2.24-10.29a1.22,1.22,0,1,1,1.22,1.22A1.23,1.23,0,0,1,302.88,20.42Z"/><path class="cls-1" d="M312.4,31.72a.5.5,0,0,0,.54.5,1,1,0,0,0,.46-.11l.38,1.09a2.82,2.82,0,0,1-1.41.29c-.88,0-1.81-.37-1.81-1.28,0-.74.7-1.3,1.73-1.7h-.53v-.8a3.2,3.2,0,0,1-2.45,1,2.58,2.58,0,0,1-2.69-2.56,2.45,2.45,0,0,1,2.69-2.46,3.12,3.12,0,0,1,2.45.95V25.54c0-.79-.67-1.3-1.7-1.3a3.26,3.26,0,0,0-2.26.91l-.77-1.36a5.07,5.07,0,0,1,3.38-1.21c1.76,0,3.38.7,3.38,2.93v5C312.85,30.79,312.4,31.22,312.4,31.72Zm-.62-4a2,2,0,0,0-1.63-.67c-.8,0-1.46.43-1.46,1.17s.66,1.14,1.46,1.14a2,2,0,0,0,1.63-.67Z"/><path class="cls-1" d="M320.13,28.07a4.43,4.43,0,0,0,2.67,1.05c.88,0,1.3-.3,1.3-.78s-.67-.74-1.55-.91c-1.33-.26-3-.58-3-2.42,0-1.3,1.14-2.43,3.17-2.43a4.86,4.86,0,0,1,3.11,1.05L325,25a3.26,3.26,0,0,0-2.29-.89c-.74,0-1.22.27-1.22.72s.61.66,1.47.83c1.33.26,3.11.61,3.11,2.53,0,1.43-1.2,2.48-3.34,2.48a5.21,5.21,0,0,1-3.46-1.2Z"/><path class="cls-1" d="M327.35,20.42a1.22,1.22,0,1,1,1.22,1.22A1.23,1.23,0,0,1,327.35,20.42Zm.21,2.35h2V30.5h-2Z"/><path class="cls-1" d="M331.1,26.63a3.93,3.93,0,0,1,4-4c2.3,0,3.87,1.73,3.87,4.26v.45h-5.75a2.08,2.08,0,0,0,2.23,1.79,3.29,3.29,0,0,0,2.06-.77l.9,1.31c-.88.66-1.54,1.41-1.54,2a.54.54,0,0,0,.56.59,1,1,0,0,0,.46-.11l.4,1.09a2.92,2.92,0,0,1-1.42.29c-.88,0-1.81-.37-1.81-1.28a2.05,2.05,0,0,1,1.25-1.62,5.27,5.27,0,0,1-1.09.11A3.92,3.92,0,0,1,331.1,26.63Zm2.1-.72H337a1.79,1.79,0,0,0-1.91-1.71A1.86,1.86,0,0,0,333.2,25.91Z"/><path class="cls-1" d="M246,42h2V43a3.31,3.31,0,0,1,2.46-1.23v2a2.76,2.76,0,0,0-.56,0,2.58,2.58,0,0,0-1.91.86V49.7h-2Z"/><path class="cls-1" d="M251.22,45.83a4.09,4.09,0,1,1,4.08,4.07A3.92,3.92,0,0,1,251.22,45.83Zm6.07,0a2,2,0,1,0-2,2.26A2,2,0,0,0,257.28,45.83Zm-2.75-5,2.15-2.3h1.87L256,40.8Z"/><path class="cls-1" d="M266.05,44.43l-1.63,5.27h-2.18L259.89,42H262l1.44,5.2,1.7-5.2h1.81l1.7,5.2,1.44-5.2h2.11l-2.35,7.73h-2.16Z"/><path class="cls-1" d="M278.42,45A1.26,1.26,0,0,0,277,43.59a2.21,2.21,0,0,0-1.76.91v5.2h-2V42h2v1a3.53,3.53,0,0,1,2.71-1.2,2.25,2.25,0,0,1,2.51,2.46V49.7h-2Z"/><path class="cls-1" d="M282,45.83A4.09,4.09,0,1,1,286,49.89,3.92,3.92,0,0,1,282,45.83Zm6.07,0a2,2,0,1,0-2,2.26A2,2,0,0,0,288,45.83Z"/><path class="cls-1" d="M295.25,41.78a3.56,3.56,0,0,1,3.06,1.41L297,44.42a1.91,1.91,0,0,0-1.63-.83,2.25,2.25,0,0,0,0,4.5,2,2,0,0,0,1.63-.83l1.33,1.23a3.56,3.56,0,0,1-3.06,1.41,4.06,4.06,0,1,1,0-8.12Z"/><path class="cls-1" d="M299.3,48.18l3.49-4.43H299.3V42h6.24v1.47L302,47.92h3.6V49.7H299.3Z"/><path class="cls-1" d="M310.8,41.78c2.3,0,3.87,1.73,3.87,4.26v.45h-5.75a2.08,2.08,0,0,0,2.23,1.79,3.16,3.16,0,0,0,2.06-.77l.9,1.31a4.76,4.76,0,0,1-3.19,1.07,4.06,4.06,0,1,1-.13-8.12Zm-1.9,3.33h3.81a1.79,1.79,0,0,0-1.91-1.71A1.86,1.86,0,0,0,308.9,45.11Z"/><path class="cls-1" d="M316.35,47.27A4.41,4.41,0,0,0,319,48.32c.88,0,1.3-.3,1.3-.79s-.67-.74-1.55-.91c-1.33-.26-3-.58-3-2.42,0-1.3,1.14-2.43,3.17-2.43A4.86,4.86,0,0,1,322,42.83l-.8,1.39a3.26,3.26,0,0,0-2.29-.9c-.74,0-1.22.27-1.22.72s.61.66,1.47.83c1.33.26,3.11.61,3.11,2.53,0,1.42-1.2,2.48-3.34,2.48a5.2,5.2,0,0,1-3.46-1.2Zm1.78-6.47,2.14-2.3h1.87l-2.59,2.3Z"/><path class="cls-1" d="M329,45a1.26,1.26,0,0,0-1.42-1.44,2.21,2.21,0,0,0-1.76.91v5.2h-2V42h2v1a3.53,3.53,0,0,1,2.71-1.2A2.25,2.25,0,0,1,331,44.24V49.7h-2Z"/><path class="cls-1" d="M332.83,39.62A1.22,1.22,0,1,1,334,40.83,1.23,1.23,0,0,1,332.83,39.62ZM333,42h2V49.7h-2Z"/><path class="cls-1" d="M340.59,41.78c2.3,0,3.87,1.73,3.87,4.26v.45h-5.75a2.08,2.08,0,0,0,2.23,1.79,3.16,3.16,0,0,0,2.06-.77l.9,1.31a4.76,4.76,0,0,1-3.19,1.07,4.06,4.06,0,1,1-.13-8.12Zm-1.9,3.33h3.81a1.79,1.79,0,0,0-1.91-1.71A1.86,1.86,0,0,0,338.69,45.11Z"/><polygon class="cls-2" points="289.8 242.51 227.3 205.69 230.51 200.24 289.81 235.18 349.72 200.12 352.91 205.57 289.8 242.51"/><polygon class="cls-1" points="139.54 817.71 115.85 794.03 120.32 789.56 139.54 808.77 158.75 789.56 163.22 794.03 139.54 817.71"/><polygon class="cls-1" points="457.15 640.19 443.87 626.92 448.34 622.45 457.15 631.25 465.95 622.45 470.42 626.92 457.15 640.19"/><polygon class="cls-1" points="290.89 323.14 286.42 318.67 299.69 305.39 312.97 318.67 308.5 323.14 299.69 314.33 290.89 323.14"/><polygon class="cls-1" points="212.94 238.76 208.47 234.29 217.28 225.49 208.47 216.68 212.94 212.21 226.22 225.49 212.94 238.76"/><polygon class="cls-1" points="295.6 543.85 286.79 535.04 277.99 543.85 273.52 539.38 286.79 526.1 300.07 539.38 295.6 543.85"/><polygon class="cls-1" points="497.55 817.71 473.87 794.03 478.34 789.56 497.55 808.77 516.77 789.56 521.24 794.03 497.55 817.71"/><polygon class="cls-1" points="69.75 685.85 41.47 685.85 41.47 242.91 44.63 242.82 226.62 242.82 226.62 249.15 47.79 249.15 47.79 679.53 69.75 679.53 69.75 685.85"/><rect class="cls-1" x="296.54" y="309.86" width="6.32" height="90.55"/><polygon class="cls-1" points="76.9 706.85 20.02 706.85 20.02 222.33 221.75 222.33 221.75 228.65 26.35 228.65 26.35 700.53 76.9 700.53 76.9 706.85"/><polygon class="cls-1" points="551.66 638.57 545.34 638.57 545.34 201.3 338.65 201.3 338.65 194.98 551.66 194.98 551.66 638.57"/><polygon class="cls-1" points="530.31 638.57 523.99 638.57 523.99 222.65 353.16 222.65 353.16 216.33 530.31 216.33 530.31 638.57"/><polygon class="cls-1" points="460.31 633.65 453.99 633.65 453.99 262 351.66 262 351.66 255.68 460.31 255.68 460.31 633.65"/><polygon class="cls-1" points="438.67 692.19 432.35 692.19 432.35 281.34 351.66 281.34 351.66 275.02 438.67 275.02 438.67 692.19"/><path class="cls-1" d="M256.27,262c0-4.12,3.16-6.9,7.24-6.9a6.27,6.27,0,0,1,6.16,3.88l-3.48,1.62a2.86,2.86,0,0,0-2.68-1.94,3.35,3.35,0,0,0,0,6.68,2.86,2.86,0,0,0,2.68-1.94l3.48,1.6a6.34,6.34,0,0,1-6.16,3.9C259.43,268.9,256.27,266.1,256.27,262Z"/><path class="cls-1" d="M279.31,266.94h-5.12l-.52,1.72h-4.38l4.92-13.34h5.08l4.92,13.34h-4.38Zm-4.08-3.36h3l-1.52-4.7Z"/><path class="cls-1" d="M283.61,262c0-4.12,3.16-6.9,7.24-6.9A6.27,6.27,0,0,1,297,259l-3.48,1.62a2.86,2.86,0,0,0-2.68-1.94,3.35,3.35,0,0,0,0,6.68,2.86,2.86,0,0,0,2.68-1.94L297,265a6.34,6.34,0,0,1-6.16,3.9C286.77,268.9,283.61,266.1,283.61,262Z"/><path class="cls-1" d="M307.09,263.56h-4.78v5.1h-4V255.32h4V260h4.78v-4.72h4v13.34h-4Z"/><path class="cls-1" d="M313.29,255.32h10.12v3.36h-6.08v1.56h5.94v3.36h-5.94v1.7h6.08v3.36H313.29Z"/><path class="cls-2" d="M289.87,311.12l-64.8-37.34.39-72.47,64.67-37.85,64.06,37.74-.13,73Zm-58.46-41,58.46,33.69,57.86-33.33.12-65.69-57.74-34-58.36,34.16Z"/><path class="cls-3" d="M357.35,248"/><path class="cls-1" d="M562.23,1233.53H19.78V836.41H562.23ZM26.1,1227.21H555.91V842.73H26.1Z"/><rect class="cls-1" x="22.94" y="882.22" width="536.13" height="6.32"/><path class="cls-1" d="M358.65,983H47.83V940.37H358.65ZM54.15,976.7H352.33v-30H54.15Z"/><path class="cls-1" d="M358.65,1046.71H47.83v-42.65H358.65Zm-304.5-6.32H352.33v-30H54.15Z"/><path class="cls-1" d="M358.65,1110.4H47.83v-42.65H358.65Zm-304.5-6.32H352.33v-30H54.15Z"/><path class="cls-2" d="M358.65,1179.47H233.24v-42.65H358.65Zm-119.09-6.32H352.33v-30H239.56Z"/><rect class="cls-1" x="400.71" y="940.37" width="110.04" height="6.32"/><rect class="cls-1" x="50.99" y="911.14" width="110.04" height="6.32"/><rect class="cls-1" x="400.71" y="960.83" width="110.04" height="6.32"/><rect class="cls-1" x="400.71" y="981.3" width="110.04" height="6.32"/><rect class="cls-1" x="400.71" y="1001.76" width="110.04" height="6.32"/><rect class="cls-1" x="400.71" y="1022.22" width="110.04" height="6.32"/><path class="cls-2" d="M139.38,766l-64.8-37.34L75,656.2l64.67-37.85,64.06,37.74-.13,73ZM80.92,725l58.46,33.69,57.86-33.33.12-65.69-57.74-34L81.26,659.83Z"/><path class="cls-3" d="M206.87,702.93"/><polygon class="cls-2" points="139.31 701.27 76.81 664.44 80.02 659 139.32 693.94 199.23 658.87 202.43 664.33 139.31 701.27"/><path class="cls-1" d="M120.91,710.09l.72.9-2.8,2.24-.94-1.18a7.93,7.93,0,0,1-2.62.42c-4.12,0-7.3-2.8-7.3-6.9s3.18-6.9,7.3-6.9,7.3,2.8,7.3,6.9A6.68,6.68,0,0,1,120.91,710.09Zm-5.52-1.18-1.1-1.38,2.8-2.24,1.18,1.5a3.53,3.53,0,0,0,.2-1.22,3.2,3.2,0,1,0-3.2,3.34Z"/><path class="cls-1" d="M124,698.89h4.1v7.72a2.31,2.31,0,0,0,4.62,0v-7.72h4.1v7.84c0,3.32-1.9,5.74-6.4,5.74S124,710,124,706.75Z"/><path class="cls-1" d="M139,698.89h4v13.34h-4Z"/><path class="cls-1" d="M144.47,705.57c0-4.12,3.16-6.9,7.24-6.9a6.27,6.27,0,0,1,6.16,3.88l-3.48,1.62a2.86,2.86,0,0,0-2.68-1.94,3.35,3.35,0,0,0,0,6.68,2.86,2.86,0,0,0,2.68-1.94l3.48,1.6a6.34,6.34,0,0,1-6.16,3.9C147.63,712.47,144.47,709.67,144.47,705.57Z"/><path class="cls-1" d="M163.91,707.53l-.74,1v3.7h-4V698.89h4v5l3.5-5h4.94l-5,6.2,5.26,7.14h-4.92Z"/><path class="cls-1" d="M101.25,731.35a6.22,6.22,0,0,0,4.3,1.72c.76,0,1.48-.26,1.48-.78s-.56-.78-1.88-1c-2.2-.4-5.56-.92-5.56-4.26,0-2.26,1.88-4.32,5.54-4.32a8.8,8.8,0,0,1,5.66,1.86l-2.16,2.86a6.64,6.64,0,0,0-3.72-1.32c-1,0-1.22.36-1.22.7,0,.52.54.7,2,.94,2.2.38,5.46,1,5.46,4.1s-2.18,4.64-5.76,4.64a8.79,8.79,0,0,1-6.2-2.12Z"/><path class="cls-1" d="M112.43,722.89h10.12v3.36h-6.08v1.56h5.94v3.36h-5.94v1.7h6.08v3.36H112.43Z"/><path class="cls-1" d="M132.93,734.51h-5.12l-.52,1.72h-4.38l4.92-13.34h5.08l4.92,13.34h-4.38Zm-4.08-3.36h3l-1.52-4.7Z"/><path class="cls-1" d="M144,731.95h-1.46v4.28h-4V722.89h7.12a4.44,4.44,0,0,1,4.8,4.58,4.3,4.3,0,0,1-2.4,4l2.42,4.72h-4.6Zm1-5.7h-2.46v2.34H145a1.18,1.18,0,1,0,0-2.34Z"/><path class="cls-1" d="M151.39,729.57c0-4.12,3.16-6.9,7.24-6.9a6.27,6.27,0,0,1,6.16,3.88l-3.48,1.62a2.86,2.86,0,0,0-2.68-1.94,3.35,3.35,0,0,0,0,6.68,2.86,2.86,0,0,0,2.68-1.94l3.48,1.6a6.34,6.34,0,0,1-6.16,3.9C154.55,736.47,151.39,733.67,151.39,729.57Z"/><path class="cls-1" d="M174.87,731.13h-4.78v5.1h-4V722.89h4v4.72h4.78v-4.72h4v13.34h-4Z"/><path class="cls-2" d="M6.55,466.59,9,469.07,6.4,471.58.9,466v-3.83H15.57v4.44Z"/><path class="cls-2" d="M64.38,472.11c-4.73-6.71-5.28-7.35-6.38-7.35-.7,0-1.14.75-1.14,1.78a5.68,5.68,0,0,0,1.52,3.78l-2.95,2.42a8.58,8.58,0,0,1-2.49-6.21c0-3.81,2.11-6.29,5.06-6.29,2,0,3.65,1.14,6,5.08v-5.21h3.87v12Z"/><path class="cls-1" d="M279.39,649.58H268.71v-2h1a3,3,0,0,1-1.17-2.38c0-2,1.47-3.43,4-3.43s4.07,1.44,4.07,3.43a3,3,0,0,1-1.18,2.38h3.94Zm-9.06-3.78a2.28,2.28,0,0,0,.88,1.75h2.74a2.33,2.33,0,0,0,.88-1.75,2.27,2.27,0,0,0-4.5,0Z"/><path class="cls-1" d="M277.77,639.55a1,1,0,0,0-.56-1.07l-.66-.29-7.84,3.14v-2.18l5.38-2-5.38-2v-2.19l9,3.63a2.81,2.81,0,0,1,1.87,2.93,5.61,5.61,0,0,1-.11,1l-1.83-.3A1.76,1.76,0,0,0,277.77,639.55Z"/><path class="cls-1" d="M274.52,631.61h-4v1.28h-1.78v-1.28H266.6v-2h2.11V628h1.78v1.57H274c.48,0,.85-.26.85-.71a1.11,1.11,0,0,0-.22-.7l1.54-.43a2.51,2.51,0,0,1,.5,1.7A1.93,1.93,0,0,1,274.52,631.61Z"/><path class="cls-1" d="M275.64,622a3.2,3.2,0,0,1,1,2.45,2.58,2.58,0,0,1-2.56,2.69,2.45,2.45,0,0,1-2.46-2.69,3.13,3.13,0,0,1,.94-2.45h-1.07c-.78,0-1.3.67-1.3,1.7a3.25,3.25,0,0,0,.91,2.26l-1.36.77a5.07,5.07,0,0,1-1.22-3.38c0-1.76.7-3.38,2.93-3.38h5v2Zm-2,0a2,2,0,0,0-.67,1.63c0,.8.43,1.46,1.17,1.46s1.14-.66,1.14-1.46a2,2,0,0,0-.67-1.63Z"/><path class="cls-1" d="M271.77,612.7a1.25,1.25,0,0,0-1.44,1.42,2.2,2.2,0,0,0,.91,1.76h5.2v2h-7.73v-2h1a3.54,3.54,0,0,1-1.2-2.71,2.25,2.25,0,0,1,2.46-2.51h5.46v2Z"/><path class="cls-1" d="M266.36,608.86a1.22,1.22,0,1,1,1.22-1.22A1.23,1.23,0,0,1,266.36,608.86Zm2.35-.21v-2h7.73v2Z"/><path class="cls-1" d="M268.52,601.1c0-2.3,1.73-3.87,4.26-3.87h.45V603a2.08,2.08,0,0,0,1.79-2.23,3.16,3.16,0,0,0-.77-2.06l1.31-.9a4.77,4.77,0,0,1,1.07,3.19,4.06,4.06,0,1,1-8.12.13Zm3.33,1.9V599.2a1.79,1.79,0,0,0-1.71,1.91A1.86,1.86,0,0,0,271.85,603Z"/><path class="cls-1" d="M324.58,651.32a4.09,4.09,0,1,1,4.07-4.08A3.92,3.92,0,0,1,324.58,651.32Zm0-6.07a2,2,0,1,0,2.26,2A2,2,0,0,0,324.58,645.25Z"/><path class="cls-1" d="M327.48,636.33a3,3,0,0,1,1.17,2.38c0,2-1.47,3.43-4,3.43s-4.07-1.46-4.07-3.43a3,3,0,0,1,1.18-2.38h-3.94v-2h10.68v2Zm-4.26,0a2.24,2.24,0,0,0-.88,1.76,2.27,2.27,0,0,0,4.5,0,2.23,2.23,0,0,0-.88-1.76Z"/><path class="cls-1" d="M331.4,632.27H320.72v-2h1a3,3,0,0,1-1.17-2.38c0-2,1.47-3.43,4-3.43s4.07,1.44,4.07,3.43a3,3,0,0,1-1.18,2.38h3.94Zm-9.06-3.78a2.28,2.28,0,0,0,.88,1.75H326a2.33,2.33,0,0,0,.88-1.75,2.27,2.27,0,0,0-4.5,0Z"/><path class="cls-1" d="M324.58,623.4a4.09,4.09,0,1,1,4.07-4.08A3.92,3.92,0,0,1,324.58,623.4Zm0-6.07a2,2,0,1,0,2.26,2A2,2,0,0,0,324.58,617.33Z"/><path class="cls-1" d="M323.19,608.57l5.27,1.63v2.18l-7.73,2.35v-2.11l5.2-1.44-5.2-1.7v-1.81l5.2-1.7-5.2-1.44v-2.11l7.73,2.35v2.16Z"/><path class="cls-1" d="M318.37,601.63a1.22,1.22,0,1,1,1.22-1.22A1.23,1.23,0,0,1,318.37,601.63Zm2.35-.21v-2h7.73v2Z"/><path class="cls-1" d="M320.53,593.87c0-2.3,1.73-3.87,4.26-3.87h.45v5.75a2.08,2.08,0,0,0,1.79-2.23,3.16,3.16,0,0,0-.77-2.06l1.31-.9a4.77,4.77,0,0,1,1.07,3.19,4.06,4.06,0,1,1-8.12.13Zm3.33,1.9V592a1.79,1.79,0,0,0-1.71,1.91A1.86,1.86,0,0,0,323.86,595.77Z"/><path class="cls-1" d="M327.48,583.21a3,3,0,0,1,1.17,2.38c0,2-1.47,3.43-4,3.43s-4.07-1.46-4.07-3.43a3,3,0,0,1,1.18-2.38h-3.94v-2h10.68v2Zm-4.26,0a2.24,2.24,0,0,0-.88,1.76,2.27,2.27,0,0,0,4.5,0,2.23,2.23,0,0,0-.88-1.76Z"/><path class="cls-1" d="M319.55,577.08l-2.3-2.14v-1.87l2.3,2.59Zm7.38,2.4L322.5,576v3.49h-1.78v-6.24h1.47l4.48,3.54v-3.6h1.78v6.31Z"/><path class="cls-1" d="M324.56,563.64a11.15,11.15,0,0,1-7.08-2.53l1-1.28a11.64,11.64,0,0,0,6.11,1.62,11.45,11.45,0,0,0,6.08-1.62l1,1.28A11.12,11.12,0,0,1,324.56,563.64Z"/><path class="cls-1" d="M317.78,558.49v-2.27h10.68v2.27Z"/><path class="cls-1" d="M317.78,554.11V549.9c0-3.34,2.13-5.67,5.35-5.67s5.33,2.32,5.33,5.67v4.21Zm8.68-4.21a3.2,3.2,0,0,0-3.33-3.34,3.12,3.12,0,0,0-3.35,3.34v1.94h6.67Z"/><path class="cls-1" d="M318.45,543.4l-1-1.28a11.06,11.06,0,0,1,14.15,0l-1,1.28a11.32,11.32,0,0,0-6.08-1.63A11.51,11.51,0,0,0,318.45,543.4Z"/><path class="cls-2" d="M269.16,669.27l2.46,2.49L269,674.27l-5.5-5.61v-3.83h14.68v4.44Z"/><path class="cls-2" d="M329,675.69c-4.73-6.71-5.28-7.35-6.38-7.35-.7,0-1.14.75-1.14,1.78A5.68,5.68,0,0,0,323,673.9L320,676.33a8.57,8.57,0,0,1-2.49-6.21c0-3.81,2.11-6.29,5.06-6.29,2,0,3.65,1.14,6,5.08V663.7h3.87v12Z"/><path class="cls-1" d="M415.17,447.28V445h10.68v2.27Z"/><path class="cls-1" d="M415.17,442.89v-4.21c0-3.34,2.13-5.67,5.35-5.67s5.33,2.32,5.33,5.67v4.21Zm8.68-4.21a3.2,3.2,0,0,0-3.33-3.34,3.12,3.12,0,0,0-3.35,3.34v1.94h6.68Z"/><path class="cls-1" d="M421.11,427.89v-8.53h1.73v8.53Z"/><path class="cls-1" d="M415.76,414a1.22,1.22,0,1,1,1.22-1.22A1.23,1.23,0,0,1,415.76,414Zm2.35-.21v-2h7.73v2Z"/><path class="cls-1" d="M415.17,409.73v-2h10.68v2Z"/><path class="cls-1" d="M417.93,402.17c0-2.3,1.73-3.87,4.26-3.87h.45V404a2.08,2.08,0,0,0,1.79-2.23,3.16,3.16,0,0,0-.77-2.06l1.31-.9A4.77,4.77,0,0,1,426,402a4.06,4.06,0,1,1-8.12.13Zm3.33,1.9v-3.81a1.79,1.79,0,0,0-1.71,1.91A1.86,1.86,0,0,0,421.25,404.08Z"/><path class="cls-1" d="M420.58,387.58l5.27,1.63v2.18l-7.73,2.35v-2.11l5.2-1.44-5.2-1.7v-1.81l5.2-1.7-5.2-1.44v-2.11l7.73,2.35v2.16Z"/><path class="cls-1" d="M427.18,379.76a1,1,0,0,0-.56-1.07l-.66-.29-7.84,3.14v-2.18l5.38-2-5.38-2v-2.19l9,3.63A2.81,2.81,0,0,1,429,379.7a5.52,5.52,0,0,1-.11,1l-1.82-.3A1.76,1.76,0,0,0,427.18,379.76Z"/><path class="cls-1" d="M421.17,367a1.25,1.25,0,0,0-1.44,1.42,2.2,2.2,0,0,0,.91,1.76h5.2v2h-7.73v-2h1a3.54,3.54,0,0,1-1.2-2.71,2.25,2.25,0,0,1,2.46-2.51h5.46v2Z"/><path class="cls-1" d="M415.76,363.17A1.22,1.22,0,1,1,417,362,1.23,1.23,0,0,1,415.76,363.17Zm2.35-.21v-2h7.73v2Z"/><path class="cls-1" d="M422.87,356l1,.93h2v2H415.17v-2h6.39L418.12,354v-2.5l3.51,3.06,4.22-3.15v2.54Z"/><path class="cls-1" d="M416.95,347.87l-2.3-2.15v-1.87l2.3,2.59Zm5,3.31A4.09,4.09,0,1,1,426,347.1,3.92,3.92,0,0,1,422,351.19Zm0-6.07a2,2,0,1,0,2.26,2A2,2,0,0,0,422,345.12Z"/><path class="cls-1" d="M420.58,336.35l5.27,1.63v2.18l-7.73,2.35V340.4l5.2-1.44-5.2-1.7v-1.81l5.2-1.7-5.2-1.44v-2.11l7.73,2.35v2.16Z"/><path class="cls-1" d="M419.08,326.48c-.35-.5-.66-.93-1.14-.93s-.91.37-.91,1.25a2.56,2.56,0,0,0,1,2l-1.46,1.3a4.58,4.58,0,0,1-1.55-3.5c0-2.06,1-3.33,2.53-3.33a3,3,0,0,1,2.5,1.62c.42.56.77,1.06,1.36,1.06a1,1,0,0,0,.67-.29l.51,1.74a2,2,0,0,1-1.41.53A2.55,2.55,0,0,1,419.08,326.48Zm4.35.11a1.3,1.3,0,1,1,1.3,1.3A1.31,1.31,0,0,1,423.43,326.59Z"/><path class="cls-1" d="M472.4,449.13a4.09,4.09,0,1,1,4.07-4.08A3.92,3.92,0,0,1,472.4,449.13Zm0-6.07a2,2,0,1,0,2.26,2A2,2,0,0,0,472.4,443.07Z"/><path class="cls-1" d="M475.3,434.14a3,3,0,0,1,1.17,2.38c0,2-1.47,3.43-4,3.43s-4.07-1.46-4.07-3.43a3,3,0,0,1,1.18-2.38H465.6v-2h10.68v2Zm-4.26,0a2.24,2.24,0,0,0-.88,1.76,2.27,2.27,0,0,0,4.5,0,2.23,2.23,0,0,0-.88-1.76Z"/><path class="cls-1" d="M479.22,430.08H468.54v-2h1a3,3,0,0,1-1.17-2.38c0-2,1.47-3.43,4-3.43s4.07,1.44,4.07,3.43a3,3,0,0,1-1.18,2.38h3.94Zm-9.06-3.78A2.28,2.28,0,0,0,471,428h2.74a2.33,2.33,0,0,0,.88-1.75,2.27,2.27,0,0,0-4.5,0Z"/><path class="cls-1" d="M472.4,421.21a4.09,4.09,0,1,1,4.07-4.08A3.92,3.92,0,0,1,472.4,421.21Zm0-6.07a2,2,0,1,0,2.26,2A2,2,0,0,0,472.4,415.15Z"/><path class="cls-1" d="M471,406.38l5.27,1.63v2.18l-7.73,2.35v-2.11l5.2-1.44-5.2-1.7v-1.81l5.2-1.7-5.2-1.44v-2.11l7.73,2.35v2.16Z"/><path class="cls-1" d="M466.19,399.44a1.22,1.22,0,1,1,1.22-1.22A1.23,1.23,0,0,1,466.19,399.44Zm2.35-.21v-2h7.73v2Z"/><path class="cls-1" d="M468.35,391.68c0-2.3,1.73-3.87,4.26-3.87h.45v5.75a2.08,2.08,0,0,0,1.79-2.23,3.16,3.16,0,0,0-.77-2.06l1.31-.9a4.77,4.77,0,0,1,1.07,3.19,4.06,4.06,0,1,1-8.12.13Zm3.33,1.9v-3.81a1.79,1.79,0,0,0-1.71,1.91A1.86,1.86,0,0,0,471.68,393.58Z"/><path class="cls-1" d="M475.3,381a3,3,0,0,1,1.17,2.38c0,2-1.47,3.43-4,3.43s-4.07-1.46-4.07-3.43a3,3,0,0,1,1.18-2.38H465.6v-2h10.68v2ZM471,381a2.24,2.24,0,0,0-.88,1.76,2.27,2.27,0,0,0,4.5,0,2.23,2.23,0,0,0-.88-1.76Z"/><path class="cls-1" d="M467.37,374.89l-2.3-2.14v-1.87l2.3,2.59Zm7.38,2.4-4.43-3.49v3.49h-1.78v-6.24H470l4.48,3.54V371h1.78v6.31Z"/><path class="cls-2" d="M422.68,470.94a6.65,6.65,0,0,0,1.45-4c0-1.45-.53-2.13-1.12-2.13s-.95.31-.95,2.27c0,.64,0,1.91,0,2.13h-3.76c0-.29,0-1.61,0-2.13,0-1.41-.35-2-.88-2-.68,0-1.06.9-1.06,2.18a6,6,0,0,0,1.37,3.65l-2.69,2a8,8,0,0,1-2.42-6.16c0-4,1.65-6.12,4.07-6.12a3.58,3.58,0,0,1,3.26,3.24,3.7,3.7,0,0,1,3.43-3.48c2.62,0,4.4,2.57,4.4,6.38a8.58,8.58,0,0,1-2.29,6.34Z"/><path class="cls-2" d="M477.92,467.19v7.06h-3.41l-8.91-5.35v-6.16H474v-1.69h3.87v1.69h2.35v4.44ZM474,470v-2.77h-4.62Z"/><path class="cls-1" d="M507.18,448.47V446.2h10.68v2.27Z"/><path class="cls-1" d="M507.18,444.08v-4.21c0-3.34,2.13-5.67,5.35-5.67s5.33,2.32,5.33,5.67v4.21Zm8.68-4.21a3.2,3.2,0,0,0-3.33-3.34,3.12,3.12,0,0,0-3.35,3.34v1.94h6.67Z"/><path class="cls-1" d="M513.11,429.08v-8.53h1.73v8.53Z"/><path class="cls-1" d="M507.77,415.17A1.22,1.22,0,1,1,509,414,1.23,1.23,0,0,1,507.77,415.17Zm10.29-2.24c1.76,0,2.93.9,2.93,2.75a4.35,4.35,0,0,1-.08.88l-1.67-.13a2.11,2.11,0,0,0,0-.45c0-.59-.37-1-1.23-1h-7.94v-2Z"/><path class="cls-1" d="M517.05,406.27a3.2,3.2,0,0,1,1,2.45,2.58,2.58,0,0,1-2.56,2.69,2.45,2.45,0,0,1-2.46-2.69,3.13,3.13,0,0,1,.94-2.45h-1.07c-.78,0-1.3.67-1.3,1.7a3.25,3.25,0,0,0,.91,2.26l-1.36.77a5.07,5.07,0,0,1-1.22-3.38c0-1.76.7-3.38,2.93-3.38h5v2Zm-2,0a2,2,0,0,0-.67,1.63c0,.8.43,1.46,1.17,1.46s1.14-.66,1.14-1.46a2,2,0,0,0-.67-1.63Z"/><path class="cls-1" d="M514.88,399.27l1,.93h2v2H507.18v-2h6.39l-3.44-2.93v-2.5l3.51,3.06,4.23-3.15v2.54Z"/><path class="cls-1" d="M507.77,393.88a1.22,1.22,0,1,1,1.22-1.22A1.23,1.23,0,0,1,507.77,393.88Zm2.35-.21v-2h7.73v2Z"/><path class="cls-1" d="M509.93,386.12c0-2.3,1.73-3.87,4.26-3.87h.45V388a2.08,2.08,0,0,0,1.79-2.23,3.16,3.16,0,0,0-.77-2.06l1.31-.9A4.77,4.77,0,0,1,518,386a4.06,4.06,0,1,1-8.12.13Zm3.33,1.9v-3.81a1.79,1.79,0,0,0-1.71,1.91A1.86,1.86,0,0,0,513.26,388Z"/><path class="cls-1" d="M512.59,371.52l5.27,1.63v2.18l-7.73,2.35v-2.11l5.2-1.44-5.2-1.7v-1.81l5.2-1.7-5.2-1.44v-2.11l7.73,2.35v2.16Z"/><path class="cls-1" d="M519.18,363.7a1,1,0,0,0-.56-1.07l-.66-.29-7.84,3.14V363.3l5.38-2-5.38-2v-2.19l9,3.63a2.81,2.81,0,0,1,1.87,2.93,5.61,5.61,0,0,1-.11,1l-1.83-.3A1.76,1.76,0,0,0,519.18,363.7Z"/><path class="cls-1" d="M513.18,350.95a1.25,1.25,0,0,0-1.44,1.42,2.2,2.2,0,0,0,.91,1.76h5.2v2h-7.73v-2h1a3.54,3.54,0,0,1-1.2-2.71,2.25,2.25,0,0,1,2.46-2.51h5.46v2Z"/><path class="cls-1" d="M507.77,347.11a1.22,1.22,0,1,1,1.22-1.22A1.23,1.23,0,0,1,507.77,347.11Zm2.35-.21v-2h7.73v2Z"/><path class="cls-1" d="M514.88,339.89l1,.93h2v2H507.18v-2h6.39l-3.44-2.93v-2.5l3.51,3.06,4.23-3.15v2.54Z"/><path class="cls-1" d="M507.77,334.5a1.22,1.22,0,1,1,1.22-1.22A1.23,1.23,0,0,1,507.77,334.5Zm2.35-.21v-2h7.73v2Z"/><path class="cls-1" d="M511.08,327.53c-.35-.5-.66-.93-1.14-.93s-.91.37-.91,1.25a2.56,2.56,0,0,0,1,2l-1.46,1.3a4.58,4.58,0,0,1-1.55-3.5c0-2.06,1-3.33,2.53-3.33a3,3,0,0,1,2.5,1.62c.42.56.77,1.06,1.36,1.06a1,1,0,0,0,.67-.29l.51,1.74a2,2,0,0,1-1.41.53A2.55,2.55,0,0,1,511.08,327.53Zm4.35.11a1.3,1.3,0,1,1,1.3,1.3A1.31,1.31,0,0,1,515.44,327.64Z"/><path class="cls-1" d="M563,451.77a4.09,4.09,0,1,1,4.07-4.08A3.92,3.92,0,0,1,563,451.77Zm0-6.07a2,2,0,1,0,2.26,2A2,2,0,0,0,563,445.7Z"/><path class="cls-1" d="M565.88,436.78a3,3,0,0,1,1.17,2.38c0,2-1.47,3.43-4,3.43s-4.07-1.46-4.07-3.43a3,3,0,0,1,1.18-2.38h-3.94v-2h10.68v2Zm-4.26,0a2.24,2.24,0,0,0-.88,1.76,2.27,2.27,0,0,0,4.5,0,2.23,2.23,0,0,0-.88-1.76Z"/><path class="cls-1" d="M569.8,432.71H559.12v-2h1a3,3,0,0,1-1.17-2.38c0-2,1.47-3.43,4-3.43s4.07,1.44,4.07,3.43a3,3,0,0,1-1.18,2.38h3.94Zm-9.06-3.78a2.28,2.28,0,0,0,.88,1.75h2.74a2.33,2.33,0,0,0,.88-1.75,2.27,2.27,0,0,0-4.5,0Z"/><path class="cls-1" d="M563,423.85a4.09,4.09,0,1,1,4.07-4.08A3.92,3.92,0,0,1,563,423.85Zm0-6.07a2,2,0,1,0,2.26,2A2,2,0,0,0,563,417.78Z"/><path class="cls-1" d="M561.59,409l5.27,1.63v2.18l-7.73,2.35v-2.11l5.2-1.44-5.2-1.7v-1.81l5.2-1.7-5.2-1.44v-2.11l7.73,2.35v2.16Z"/><path class="cls-1" d="M556.77,402.08a1.22,1.22,0,1,1,1.22-1.22A1.23,1.23,0,0,1,556.77,402.08Zm2.35-.21v-2h7.73v2Z"/><path class="cls-1" d="M558.93,394.31c0-2.3,1.73-3.87,4.26-3.87h.45v5.75a2.08,2.08,0,0,0,1.79-2.23,3.16,3.16,0,0,0-.77-2.06L566,391a4.77,4.77,0,0,1,1.07,3.19,4.06,4.06,0,1,1-8.12.13Zm3.33,1.9v-3.81a1.79,1.79,0,0,0-1.71,1.91A1.86,1.86,0,0,0,562.26,396.22Z"/><path class="cls-1" d="M565.88,383.66A3,3,0,0,1,567,386c0,2-1.47,3.43-4,3.43s-4.07-1.46-4.07-3.43a3,3,0,0,1,1.18-2.38h-3.94v-2h10.68v2Zm-4.26,0a2.24,2.24,0,0,0-.88,1.76,2.27,2.27,0,0,0,4.5,0,2.23,2.23,0,0,0-.88-1.76Z"/><path class="cls-1" d="M558,377.53l-2.3-2.14v-1.87l2.3,2.59Zm7.38,2.4-4.43-3.49v3.49h-1.78v-6.24h1.47l4.48,3.54v-3.6h1.78v6.31Z"/><path class="cls-2" d="M514.86,471.53a6.23,6.23,0,0,0,1.28-3.78c0-1.47-.68-2.07-1.39-2.07s-1.32.57-1.32,1.94a3.72,3.72,0,0,0,1,2.73l-.7,3.06h-8.82V462.18h3.7v7h2.33a5.51,5.51,0,0,1-1.12-3.28,4.62,4.62,0,0,1,4.75-4.73c3.23,0,5.28,2.42,5.28,6.54a8.93,8.93,0,0,1-2.07,6.14Z"/><path class="cls-2" d="M556,469.07a8.53,8.53,0,0,1,1.28-4.58l3.23,1.87a4.41,4.41,0,0,0-.79,2.71,3,3,0,0,0,2.84,3.21h0a4.31,4.31,0,0,1-1.5-3.41c0-2.64,1.65-5.19,4.77-5.19s5.28,2.62,5.28,6.1c0,4.82-3.28,7-7.57,7C558.64,476.77,556,473.63,556,469.07Zm8.69,1.17a3.61,3.61,0,0,0,.59,2.07A2.21,2.21,0,0,0,567.4,470c0-1.14-.64-1.78-1.34-1.78C565,468.19,564.65,469.25,564.65,470.24Z"/><path class="cls-1" d="M7.06,215.14H.74v-15H7.06Zm218.72-6.42h-6.32v-15h6.32Zm-20.73-14.27h-15v-6.32h15Zm-35,0h-15v-6.32h15Zm-35,0h-15v-6.32h15Zm-35,0h-15v-6.32h15Zm-35,0h-15v-6.32h15Zm-35,0h-15v-6.32h15Z"/><path class="cls-1" d="M498.73,137.94l-1.63,5.27h-2.18l-2.35-7.73h2.11l1.44,5.2,1.7-5.2h1.81l1.7,5.2,1.44-5.2h2.11l-2.35,7.73h-2.16Z"/><path class="cls-1" d="M505.67,133.12a1.22,1.22,0,1,1,1.21,1.22A1.23,1.23,0,0,1,505.67,133.12Zm.21,2.35h2v7.73h-2Z"/><path class="cls-1" d="M513.43,135.28c2.3,0,3.88,1.73,3.88,4.26V140h-5.75a2.09,2.09,0,0,0,2.23,1.79,3.16,3.16,0,0,0,2.06-.77l.9,1.31a4.77,4.77,0,0,1-3.19,1.07,4.06,4.06,0,1,1-.13-8.12Zm-1.9,3.33h3.81a1.79,1.79,0,0,0-1.91-1.71A1.86,1.86,0,0,0,511.53,138.61Z"/><path class="cls-1" d="M518.78,132.53h2v10.68h-2Z"/><path class="cls-1" d="M522.33,139.33a4.09,4.09,0,1,1,4.08,4.07A3.92,3.92,0,0,1,522.33,139.33Zm6.07,0a2,2,0,1,0-2,2.26A2,2,0,0,0,528.39,139.33Z"/><path class="cls-1" d="M535,140.23l-.93,1v2h-2V132.53h2v6.39l2.93-3.44h2.5L536.41,139l3.15,4.23H537Z"/><path class="cls-1" d="M540.57,135.47h2v1.06a3.31,3.31,0,0,1,2.46-1.23v2a2.74,2.74,0,0,0-.56,0,2.58,2.58,0,0,0-1.91.86v5.11h-2Z"/><path class="cls-1" d="M545.83,139.33a4.09,4.09,0,1,1,4.08,4.07A3.91,3.91,0,0,1,545.83,139.33Zm6.07,0a2,2,0,1,0-2,2.26A2,2,0,0,0,551.9,139.33Z"/><path class="cls-1" d="M555.91,141.28v-4h-1.28v-1.78h1.28v-2.11h2v2.11h1.57v1.78H558v3.49c0,.48.26.85.71.85a1.11,1.11,0,0,0,.71-.22l.43,1.54a2.51,2.51,0,0,1-1.7.5A1.93,1.93,0,0,1,555.91,141.28Z"/><path class="cls-1" d="M566.13,138.53a1.25,1.25,0,0,0-1.42-1.44,2.2,2.2,0,0,0-1.76.91v5.2h-2v-7.73h2v1a3.54,3.54,0,0,1,2.71-1.2,2.25,2.25,0,0,1,2.51,2.46v5.46h-2Z"/><path class="cls-1" d="M570,133.12a1.22,1.22,0,1,1,1.22,1.22A1.23,1.23,0,0,1,570,133.12Zm.21,2.35h2v7.73h-2Z"/><path class="cls-1" d="M577.73,135.28c2.3,0,3.87,1.73,3.87,4.26V140h-5.75a2.08,2.08,0,0,0,2.22,1.79,3.16,3.16,0,0,0,2.06-.77l.9,1.31a4.76,4.76,0,0,1-3.19,1.07,4.06,4.06,0,1,1-.13-8.12Zm-1.9,3.33h3.81a1.79,1.79,0,0,0-1.9-1.71A1.86,1.86,0,0,0,575.83,138.61Z"/><path class="cls-1" d="M503.12,184.66H496.8v-15h6.32Zm76-3.7H572.8V166h6.32Zm-18-17h-15v-6.32h15Zm-35,0h-15v-6.32h15Z"/><path class="cls-1" d="M6.32,109.55H0v-15H6.32Zm572.8-5.83H572.8v-15h6.32ZM6.32,74.55H0V67.38H14.14V73.7H6.32Zm567.82-.86h-15V67.38h15Zm-35,0h-15V67.38h15Zm-35,0h-15V67.38h15Zm-35,0h-15V67.38h15Zm-35,0h-15V67.38h15Zm-35,0h-15V67.38h15Zm-35,0h-15V67.38h15Zm-35,0h-15V67.38h15Zm-35,0h-15V67.38h15Zm-35,0h-15V67.38h15Zm-35,0h-15V67.38h15Zm-35,0h-15V67.38h15Zm-35,0h-15V67.38h15Zm-35,0h-15V67.38h15Zm-35,0h-15V67.38h15Zm-35,0h-15V67.38h15Z"/><polygon class="cls-1" points="434.88 716.43 283.63 716.43 283.63 534.09 289.95 534.09 289.95 710.11 434.88 710.11 434.88 716.43"/><polygon class="cls-1" points="419.6 695.35 304.71 695.35 304.71 525.59 311.03 525.59 311.03 689.03 419.6 689.03 419.6 695.35"/><path class="cls-2" d="M292.55,535.08l-64.8-37.34.39-72.47,64.67-37.85,64.06,37.74-.13,73Zm-58.46-41,58.46,33.69,57.86-33.33.12-65.69-57.74-34L234.43,428.9Z"/><path class="cls-3" d="M360,472"/><polygon class="cls-2" points="292.48 466.46 229.98 429.64 233.19 424.2 292.49 459.13 352.4 424.07 355.6 429.52 292.48 466.46"/><path class="cls-1" d="M237.42,474.13c0-4.12,3.16-6.9,7.24-6.9a6.27,6.27,0,0,1,6.16,3.88l-3.48,1.62a2.86,2.86,0,0,0-2.68-1.94,3.35,3.35,0,0,0,0,6.68,2.86,2.86,0,0,0,2.68-1.94l3.48,1.6a6.34,6.34,0,0,1-6.16,3.9C240.58,481,237.42,478.23,237.42,474.13Z"/><path class="cls-1" d="M252.07,467.45h4.1v7.72a2.31,2.31,0,0,0,4.62,0v-7.72h4.1v7.84c0,3.32-1.9,5.74-6.4,5.74s-6.42-2.42-6.42-5.72Z"/><path class="cls-1" d="M268.13,475.91a6.22,6.22,0,0,0,4.3,1.72c.76,0,1.48-.26,1.48-.78s-.56-.78-1.88-1c-2.2-.4-5.56-.92-5.56-4.26,0-2.26,1.88-4.32,5.54-4.32a8.8,8.8,0,0,1,5.66,1.86L275.52,472a6.64,6.64,0,0,0-3.72-1.32c-1,0-1.22.36-1.22.7,0,.52.54.7,2,.94,2.2.38,5.46,1,5.46,4.1s-2.18,4.64-5.76,4.64a8.79,8.79,0,0,1-6.2-2.12Z"/><path class="cls-1" d="M282.17,471h-3.58v-3.52h11.18V471h-3.56v9.82h-4Z"/><path class="cls-1" d="M297.4,467.23c4.12,0,7.3,2.8,7.3,6.9s-3.18,6.9-7.3,6.9-7.3-2.8-7.3-6.9S293.27,467.23,297.4,467.23Zm0,3.56a3.34,3.34,0,1,0,3.2,3.34A3.16,3.16,0,0,0,297.4,470.79Z"/><path class="cls-1" d="M317.94,472.37l-3,8.42h-1.8l-3-8.42v8.42h-4V467.45h5.58l2.34,6.8,2.34-6.8H322v13.34h-4Z"/><path class="cls-1" d="M324.13,467.45h10.12v3.36h-6.08v1.56h5.94v3.36h-5.94v1.7h6.08v3.36H324.13Z"/><path class="cls-1" d="M341.55,476.51h-1.46v4.28h-4V467.45h7.12A4.44,4.44,0,0,1,348,472a4.3,4.3,0,0,1-2.4,4l2.42,4.72h-4.6Zm1-5.7h-2.46v2.34h2.46a1.18,1.18,0,1,0,0-2.34Z"/><path class="cls-1" d="M285.64,505.07h-5.12l-.52,1.72h-4.38l4.92-13.34h5.08l4.92,13.34h-4.38Zm-4.08-3.36h3l-1.52-4.7Z"/><path class="cls-1" d="M291.25,493.45h7.12a4.44,4.44,0,0,1,4.8,4.58c0,2.48-1.68,4.48-4.8,4.48H295.3v4.28h-4Zm6.6,3.36H295.3v2.34h2.56a1.17,1.17,0,1,0,0-2.34Z"/><path class="cls-1" d="M304.49,493.45h4v13.34h-4Z"/><path class="cls-2" d="M497.62,771.58l-64.8-37.34.39-72.47,64.67-37.85,64.06,37.74-.13,73Zm-58.46-41,58.46,33.69L555.49,731l.12-65.69-57.74-34-58.35,34.16Z"/><path class="cls-3" d="M565.11,708.5"/><polygon class="cls-2" points="497.56 705.8 435.06 668.97 438.27 663.53 497.57 698.47 557.48 663.4 560.67 668.86 497.56 705.8"/><path class="cls-1" d="M460.27,704.86h4v9.82h5.06v3.52h-9.1Z"/><path class="cls-1" d="M471,704.86h10.12v3.36H475v1.56H481v3.36H475v1.7h6.08v3.36H471Z"/><path class="cls-1" d="M489.53,704.64a6.27,6.27,0,0,1,5.86,3.28l-3.4,1.74a2.76,2.76,0,0,0-2.46-1.46,3.34,3.34,0,0,0,0,6.68,3.8,3.8,0,0,0,2.18-.6v-.58h-2.58v-3.32h6.5v5.36a7.92,7.92,0,0,1-6.1,2.7c-4,0-7.34-2.64-7.34-6.9S485.49,704.64,489.53,704.64Z"/><path class="cls-1" d="M505.81,716.49h-5.12l-.52,1.72h-4.38l4.92-13.34h5.08l4.92,13.34h-4.38Zm-4.08-3.36h3l-1.52-4.7Z"/><path class="cls-1" d="M510.11,711.54c0-4.12,3.16-6.9,7.24-6.9a6.27,6.27,0,0,1,6.16,3.88L520,710.14a2.86,2.86,0,0,0-2.68-1.94,3.35,3.35,0,0,0,0,6.68,2.86,2.86,0,0,0,2.68-1.94l3.48,1.6a6.34,6.34,0,0,1-6.16,3.9C513.27,718.45,510.11,715.65,510.11,711.54Z"/><path class="cls-1" d="M527.73,712.91l-5-8h4.54l2.48,4.5,2.44-4.5h4.54l-5,8v5.3h-4Z"/><path class="cls-1" d="M459.49,739.33a6.22,6.22,0,0,0,4.3,1.72c.76,0,1.48-.26,1.48-.78s-.56-.78-1.88-1c-2.2-.4-5.56-.92-5.56-4.26,0-2.26,1.88-4.32,5.54-4.32a8.8,8.8,0,0,1,5.66,1.86l-2.16,2.86a6.64,6.64,0,0,0-3.72-1.32c-1,0-1.22.36-1.22.7,0,.52.54.7,2,.94,2.2.38,5.46,1,5.46,4.1s-2.18,4.64-5.76,4.64a8.79,8.79,0,0,1-6.2-2.12Z"/><path class="cls-1" d="M470.67,730.86h10.12v3.36h-6.08v1.56h5.94v3.36h-5.94v1.7h6.08v3.36H470.67Z"/><path class="cls-1" d="M491.17,742.49h-5.12l-.52,1.72h-4.38l4.92-13.34h5.08l4.92,13.34h-4.38Zm-4.08-3.36h3l-1.52-4.7Z"/><path class="cls-1" d="M502.29,739.92h-1.46v4.28h-4V730.86h7.12a4.44,4.44,0,0,1,4.8,4.58,4.3,4.3,0,0,1-2.4,4l2.42,4.72h-4.6Zm1-5.7h-2.46v2.34h2.46a1.18,1.18,0,1,0,0-2.34Z"/><path class="cls-1" d="M509.63,737.54c0-4.12,3.16-6.9,7.24-6.9a6.27,6.27,0,0,1,6.16,3.88l-3.48,1.62a2.86,2.86,0,0,0-2.68-1.94,3.35,3.35,0,0,0,0,6.68,2.86,2.86,0,0,0,2.68-1.94l3.48,1.6a6.34,6.34,0,0,1-6.16,3.9C512.79,744.45,509.63,741.65,509.63,737.54Z"/><path class="cls-1" d="M533.11,739.1h-4.78v5.1h-4V730.86h4v4.72h4.78v-4.72h4v13.34h-4Z"/><polygon class="cls-1" points="415.19 705.47 410.73 701 419.53 692.19 410.73 683.39 415.19 678.92 428.47 692.19 415.19 705.47"/><polygon class="cls-1" points="358.05 291.46 344.77 278.18 358.05 264.91 362.51 269.38 353.71 278.18 362.51 286.99 358.05 291.46"/><polygon class="cls-1" points="62.35 695.97 57.88 691.5 66.69 682.69 57.88 673.88 62.35 669.41 75.62 682.69 62.35 695.97"/><polygon class="cls-1" points="548.5 645.71 535.22 632.44 539.69 627.97 548.5 636.77 557.31 627.97 561.77 632.44 548.5 645.71"/></g></g></svg>