<svg xmlns="http://www.w3.org/2000/svg" viewBox="0 0 509.51 509.51"><defs><style>.cls-1{fill:#fff;stroke-miterlimit:10;}.cls-1,.cls-2{stroke:#000;}.cls-2{fill:none;stroke-miterlimit:8;stroke-width:15px;stroke-dasharray:40.08 40.08;}.cls-3{fill:#ffdf00;}</style></defs><title>Zasób 3</title><g id="Warstwa_2" data-name="Warstwa 2"><g id="Layer_1" data-name="Layer 1"><g id="Objects"><path d="M78.38,247c3.3-81.53,70.44-163.59,168.21-168.49l.07-17,7.92.08,8.33-.08q0,4.42,0,8.87,0,3.72,0,7.42C362.05,91.47,418.06,147.35,432.09,247h16.57v16.44q-4.11-.13-8.37-.18t-8.2,0c-13.76,99.45-69.75,155.39-169.18,169.32L262.75,448l-16-.21-.1-15.26C147.48,418.86,91.46,363,77.43,263.35l-16,.07-.08-16.21Zm265.14,16.69H263.29V335h68.29c7.57-23.13,11.2-46.85,11.95-71.31Zm-97.36-17V175.07c-22.23,0-44-.05-65.87.14-1.14,0-3,1.95-3.28,3.26-3.21,14.44-6.51,28.87-9.07,43.43-1.42,8.07-1.49,16.38-2.18,24.82ZM178.33,335h67.9V263.71h-80c-1.07,16.46,5.94,57.56,12.11,71.25Zm84.89-88.26h80.37c-.94-24.59-4.31-48.42-12.08-71.22H263.23Zm87.39,88.57c12.9,0,26.68.09,40.46-.15,1.27,0,3.06-1.86,3.67-3.27,4.51-10.33,9.31-20.58,13-31.21a120.65,120.65,0,0,0,6.3-36.89H361.73Zm-190.64,0a9.49,9.49,0,0,0,0-1.67,281.32,281.32,0,0,1-10.42-66.86c-.1-3.5-2.25-3.4-4.71-3.39H99.4a33.85,33.85,0,0,0-4,.5,155,155,0,0,0,20.29,69.56,4.25,4.25,0,0,0,3.13,1.75c13.61.16,27.24.12,41.16.12ZM414.23,247a155.83,155.83,0,0,0-20.39-70.05c-.6-1.05-2.68-1.74-4.09-1.78-7-.18-14-.08-21-.08H349a290.64,290.64,0,0,1,11.27,69c0,1,2.56,2.71,4,2.76,7.65.28,15.31.14,23,.14ZM158.91,175.06c-12.12,0-25.23.1-38.33-.08-3.13,0-4.67,1.09-6.12,3.76A159.39,159.39,0,0,0,97,229.93c-.87,5.47-1.19,11-1.77,16.7h52.55Zm87.27,238.77V352.25H185c8.67,24.92,33.56,58.07,61.16,61.58ZM325.32,158c-13.63-28.22-29.17-53.35-62.08-62.18V158Zm-62.1,256.42c33-8.73,48.42-34,62.14-62.1H263.22Zm-16.84-318c-27.64,3.72-52.35,36-61.25,61.46h61.25ZM127.91,158.28c13,0,24.75.1,36.5-.16,1.17,0,2.61-2.08,3.37-3.49,5-9.35,9.5-19,14.89-28.12,4.07-6.87,9.24-13.09,14.42-20.29C169.23,117.37,146.74,134.26,127.91,158.28ZM381.67,352c-12.23,0-23.17.16-34.1-.09-3.46-.08-4.68,1.38-6.15,4.22-6,11.61-12.28,23.14-18.9,34.44-2.68,4.57-6.51,8.45-10.71,13.78A162.59,162.59,0,0,0,381.67,352ZM312.91,107c12.55,14.75,22,31.21,29.44,49,.49,1.16,2.73,2.21,4.19,2.25,8.49.22,17,.13,25.48.14h9.66C362.74,134.36,340.43,117.27,312.91,107Zm-185,245.06c18.86,23.89,41.14,41,68.59,51.21a182.64,182.64,0,0,1-29.18-48.65,4.87,4.87,0,0,0-3.6-2.44C152.22,352,140.74,352.05,127.91,352.05Z"/></g><path class="cls-1" d="M255.16,59.92"/><circle class="cls-2" cx="254.75" cy="254.75" r="229.64" transform="translate(-21.23 23.17) rotate(-5)"/><circle cx="484.41" cy="254.75" r="25.1"/><circle class="cls-3" cx="484.41" cy="254.75" r="8.81"/><circle cx="25.1" cy="254.75" r="25.1"/><circle class="cls-3" cx="25.1" cy="254.75" r="8.81"/><circle cx="254.75" cy="484.41" r="25.1"/><circle class="cls-3" cx="254.75" cy="484.41" r="8.81"/><circle cx="254.75" cy="25.1" r="25.1"/><circle class="cls-3" cx="254.75" cy="25.1" r="8.81"/></g></g></svg>