<svg xmlns="http://www.w3.org/2000/svg" viewBox="0 0 119.87 120.06"><defs><style>.cls-1,.cls-2,.cls-3,.cls-4,.cls-5{fill:none;stroke:#282828;stroke-miterlimit:10;stroke-width:6.32px;}.cls-2{stroke-dasharray:14.8 19.73;}.cls-3{stroke-dasharray:14.8 19.73;}.cls-4{stroke-dasharray:14.75 19.66;}.cls-5{stroke-dasharray:14.75 19.66;}</style></defs><title>integracja</title><g id="Warstwa_2" data-name="Warstwa 2"><g id="Warstwa_1-2" data-name="Warstwa 1"><g id="Warstwa_2-2" data-name="Warstwa 2"><g id="Layer_1" data-name="Layer 1"><circle class="cls-1" cx="59.93" cy="60.03" r="36.22"/><path class="cls-1" d="M110.8,54.44a5.6,5.6,0,0,0,0,11.17"/><path class="cls-1" d="M110.8,54.44l.31,0a5.6,5.6,0,1,1,0,11.21l-.31,0"/><path class="cls-1" d="M9.07,54.44a5.6,5.6,0,0,1,0,11.17"/><path class="cls-1" d="M9.07,54.44l-.31,0a5.6,5.6,0,0,0,0,11.21l.31,0"/><path class="cls-1" d="M54.26,9.18a5.6,5.6,0,0,0,11.16,0"/><path class="cls-1" d="M54.26,9.18c0-.14,0-.27,0-.41a5.6,5.6,0,1,1,11.21,0c0,.13,0,.26,0,.39"/><path class="cls-1" d="M54.26,110.88a5.6,5.6,0,0,1,11.16,0"/><path class="cls-1" d="M54.26,110.88c0,.14,0,.28,0,.42a5.6,5.6,0,1,0,11.21,0c0-.13,0-.26,0-.39"/><path class="cls-1" d="M110.8,65.61A51,51,0,0,1,109.44,73"/><path class="cls-2" d="M100.92,90.66A51.37,51.37,0,0,1,82,106.18"/><path class="cls-1" d="M72.8,109.56a51,51,0,0,1-7.38,1.34"/><path class="cls-1" d="M110.8,54.44a51,51,0,0,0-1.35-7.37"/><path class="cls-3" d="M100.92,29.4A51.37,51.37,0,0,0,82,13.87"/><path class="cls-1" d="M72.8,10.49a51,51,0,0,0-7.38-1.34"/><path class="cls-1" d="M54.26,110.88a51,51,0,0,1-7.37-1.37"/><path class="cls-4" d="M29.29,101A51.36,51.36,0,0,1,13.81,82.2"/><path class="cls-1" d="M10.43,73a51,51,0,0,1-1.35-7.37"/><path class="cls-1" d="M9.07,54.44a51,51,0,0,1,1.35-7.37"/><path class="cls-5" d="M18.91,29.45A51.37,51.37,0,0,1,37.68,13.94"/><path class="cls-1" d="M46.89,10.54a51,51,0,0,1,7.37-1.37"/></g></g></g></g></svg>