<svg xmlns="http://www.w3.org/2000/svg" viewBox="0 0 512 512"><title>Zasób 4</title><g id="Warstwa_2" data-name="Warstwa 2"><g id="Layer_1" data-name="Layer 1"><path d="M252,313.37l-25.77,9.88-10.5,54-38,.72L167.49,325.7l-41.24-17-44,28.75L55,310.75l28.86-42.34L68.14,225.75l-52.39-9.5.25-38.5,52.25-11L85.17,128,56,82.55,83,56l44.5,28.25L163.75,71l13.59-54.7,38.41,0,10.5,52.48,42.16,15.11,42.34-28.11,26.75,27.5L309.58,125l19.24,42.91,49.44,8.82-1.7,37.54-55.55,13-8.75,24.25,15.47,8,7.44-18.78L391.75,227l2.5-62.5-21.1-4.19-35.25-7-10.78-25.43L358.75,80,311,33.5,265,65l-24.72-8.4L229.42,0H163.33l-12,58.84-21.41,8.87L82,35,34.59,79.58l33.12,50.36-9.43,22.77L0,164.75v63.5l58.27,12.47,9.43,22.77-33,49.26,46,44.25,49.19-31.27,22.77,9.43L163.5,392l65.5,1.26,11.72-58.1L259,328Z"/><path d="M277.62,238.13a88.23,88.23,0,0,0,10-41.42c-.47-36.39-24.35-59.94-31.59-66.47-20.86-18.8-45.54-24.22-59.28-24.41a91.5,91.5,0,0,0-34.43,6.73h0a90.53,90.53,0,0,0-29,19.07l11.29,11.58a74.42,74.42,0,0,1,23.93-15.71c1.07-.44,14.27-5.5,28.22-5.5a74.79,74.79,0,0,1,74.7,74.71,86.3,86.3,0,0,1-2.5,19.28,73.9,73.9,0,0,1-5.69,14.76Z"/><path d="M110.77,167.14c-7.46,21.68-6.53,45.72,3.35,68.82a82.33,82.33,0,0,0,43.81,43.63c33.8,14.12,69,9.14,95.21-11.63l-12.65-10.7a74.87,74.87,0,0,1-19.16,10c-5.73,2-30.79,9-58.35-3.24a66.19,66.19,0,0,1-33.53-33.54c-8.69-19.49-9.67-39.84-3.38-58.11"/><path d="M473.06,348.64l-5.13-12.37,22.31-32.43-33.83-33L423.65,292l-12.37-5.13L403.48,248l-47.06-.05-3.1,15.56-4.67,23.38L336.27,292l-32.93-21.14-31.92,31.5L292,336.27l-6.61,17.18,15.57,4.36,8.95-22.68-19.31-29.79,14.75-14.42,29.59,18.69,28.62-14.87,5.95-30.41h20.58l8.4,34.44,29.6,9.72,26.5-17.42L469,305.17l-18.54,30.41,12.79,26.84,32.67,7.42V390l-34.37,7.6-9.74,31,17.4,25.89L454.5,469.08,425.92,450l-28.58,12.75-7.08,33.08-20.5-.22L363,461.25l-28.62-11.62-29,19.25L290,453.81l20.63-28.19-11.87-29.5-34.62-6.25-.24-19.12,4.48-1.93L265.19,353,248,360.63l.63,42.88,38.23,7.78L292,423.65l-22.48,32.6,32.63,31.88,34.14-20.19,12.37,5.13L356,512h48.25l2.35-15.56,4.67-23.38,12.37-5.13,32.85,21.73,32.87-34.92-21.06-30.54,4.75-12.93L512,403.33v-31q0-7.94,0-15.88Z"/><path d="M380,350.86a29.24,29.24,0,0,1,29.1,29.1h16.17A45.27,45.27,0,1,0,380,425.23a51.71,51.71,0,0,0,15-2.55,44.91,44.91,0,0,0,12.62-6.88L397.73,403a28.86,28.86,0,0,1-8,4.39,33.22,33.22,0,0,1-9.75,1.67,29.1,29.1,0,1,1,0-58.21Z"/><path d="M246,196.72A49.25,49.25,0,1,0,196.72,246,49.31,49.31,0,0,0,246,196.72Zm-82.34,0a33.08,33.08,0,1,1,33.09,33.08A33.12,33.12,0,0,1,163.63,196.72Z"/></g></g></svg>