<svg xmlns="http://www.w3.org/2000/svg" viewBox="0 0 200 200"><defs><style>.cls-1{fill:#68b604;}.cls-2{fill:none;}</style></defs><title>Zasób 31</title><g id="Warstwa_2" data-name="Warstwa 2"><g id="Warstwa_1-2" data-name="Warstwa 1"><path fill="#68b604" d="M91.89,116.92c-8.28,0-16.57.14-24.85.14H65.85C77.29,101,88.58,85.78,99.95,70.2c-.39,0-.57-.11-.76-.11q-26.9,0-53.79,0c-.63,0-.85.15-.84.81,0,3.71,0,7.4,0,11.11,0,1.06,0,1.05,1.07,1.05H72.87c.36,0,.72,0,1.26.09l-34.3,46.8.59,0q25.84,0,51.67,0c.7,0,.8-.28.79-.87,0-3.76,0-7.46,0-11.22C92.9,117.09,92.68,116.92,91.89,116.92Zm72-46.08c-16.24,0-32.49,0-48.74,0a22.16,22.16,0,0,0-5.39.69c-6.27,1.61-11.29,8.41-11,14.92,0,.71.44.45.87.45h24.94c4.2,0,8.39.18,12.59.16,4.58,0,9.16.16,13.72-.11a13.61,13.61,0,0,0,11.1-6.51,20.56,20.56,0,0,0,2.91-8.89C164.92,70.71,164.37,70.84,163.85,70.84ZM139.06,92.07q-12.34,0-24.68,0a15.48,15.48,0,0,0-7.54,1.8c-5.43,3-7.51,8-8.16,13.78-.08.77.38.75.91.75h13c1.47,0,2.94,0,4.41,0,3.24-.05,6.49.07,9.7-.25a13.34,13.34,0,0,0,10-5.94,19.09,19.09,0,0,0,3.18-9.14C140,92.09,140,92.07,139.06,92.07Zm-16.48,21.14c-2.5,0-5,0-7.51,0a25.45,25.45,0,0,0-3.48.3c-9,1.4-12.36,8.93-12.89,15.36,0,.57.16.77.73.75,1.5,0,3,0,4.49,0v.08c2-.09,4.09,0,6.11-.3a15.58,15.58,0,0,0,13.28-15.53c0-.58-.23-.68-.73-.68Z"/><rect class="cls-2" width="200" height="200"/></g></g></svg>
