<svg xmlns="http://www.w3.org/2000/svg" viewBox="0 0 200 200"><defs><style>.cls-1{fill:#6eb340;}.cls-2{fill:none;}</style></defs><title>Zasób 26</title><g id="Warstwa_2" data-name="Warstwa 2"><g id="Warstwa_1-2" data-name="Warstwa 1"><g id="Warstwa_2-2" data-name="Warstwa 2"><g id="Warstwa_1-2-2" data-name="Warstwa 1-2"><path fill="#6eb340" d="M151.31,44.85a251.14,251.14,0,0,1,7.27,24.41c3.05,12.44,4.81,25,3.46,37.89-2.78,26.59-24.35,49.77-50.78,54.23Q83.89,166,61.73,149.31c-.38-.29-.93-.45-.93-1.08,4.77-.38,6.82-2,6.82-5.45a5.07,5.07,0,0,0-4.79-5.33h-.25c-3.68-.17-5.35,1.82-6,7.13C35.44,125.47,29.37,88.43,51.24,61c21.51-27,64.23-33.12,93.41-4.85C147.42,52.87,149.1,49,151.31,44.85Zm-.46,6.82a9.85,9.85,0,0,0-.92,1c-8.52,14.24-21.37,22.34-37.23,26-8,1.88-16.32,1.4-24.46,2.3C71.06,83,58.63,94.2,56.4,110.67c-1.1,8.08.68,15.55,7.07,21.29,1.79,1.61,3.76,2.6,6.36,1.94,7.06-1.79,14.17-3.38,21.23-5.18,21.82-5.6,39.2-17.44,50.9-37a5.2,5.2,0,0,1,.88-.86c.49,1.51-.32,2.54-.78,3.61-6,13.89-15.68,24.63-28.2,33-9.26,6.21-20,8.69-30.36,12-2,.64-4,1.36-5.95,2,.48,1,1.12,1.18,1.7,1,2.37-.81,4.77-.52,7.21-.52,11.33,0,22.64.89,34,0,22.94-1.7,37.29-15.45,39-37.61,1.44-18.22-3-35.36-8.66-52.73Z"/></g></g><rect class="cls-2" width="200" height="200"/></g></g></svg>
