<svg xmlns="http://www.w3.org/2000/svg" viewBox="0 0 183.34 182.99"><title>Zasób 31</title><g id="Warstwa_2" data-name="Warstwa 2"><g id="Warstwa_1-2" data-name="Warstwa 1"><path fill="#6eb340" d="M166.93,10.62a368.33,368.33,0,0,1,10.66,35.8c4.48,18.25,7.05,36.62,5.08,55.57-4.07,39-35.71,73-74.48,79.54-26.76,4.49-51-1.36-72.64-17.71-.56-.42-1.36-.66-1.37-1.58,7-.56,10-3,10-8a7.43,7.43,0,0,0-7.38-7.83c-5.4-.25-7.85,2.67-8.81,10.45-31-28-39.91-82.33-7.83-122.6,31.55-39.6,94.2-48.57,137-7.11C161.22,22.38,163.69,16.66,166.93,10.62Zm-.68,10a14.45,14.45,0,0,0-1.35,1.5C152.4,43,133.56,54.89,110.3,60.32c-11.78,2.75-23.93,2.05-35.88,3.38C49.23,66.5,31,83,27.73,107.15c-1.62,11.85,1,22.8,10.37,31.22,2.62,2.36,5.52,3.81,9.33,2.84,10.35-2.63,20.78-4.95,31.13-7.6,32-8.22,57.49-25.58,74.65-54.3a7.62,7.62,0,0,1,1.29-1.26c.72,2.21-.47,3.72-1.15,5.29-8.82,20.37-23,36.13-41.36,48.42-13.58,9.11-29.29,12.75-44.53,17.63-2.93.94-5.83,2-8.72,3,.71,1.52,1.64,1.73,2.5,1.43,3.47-1.19,7-.76,10.57-.76,16.62,0,33.21,1.3,49.87.06,33.64-2.49,54.69-22.66,57.26-55.16C181.05,71.24,174.5,46.1,166.24,20.62Z"/></g></g></svg>
