<svg xmlns="http://www.w3.org/2000/svg" viewBox="0 0 125 68.15"><defs><style>.cls-1{fill:#0497ef;}</style></defs><title>MDlinking</title><g id="Warstwa_2" data-name="Warstwa 2"><g id="Warstwa_1-2" data-name="Warstwa 1"><path class="cls-1" d="M0,2.82A9.82,9.82,0,0,1,8.27.06c2.32.21,4.68,0,7,.05C21,.24,23.1,1.75,25,7.1q6.81,18.73,13.61,37.46c.35,1,.75,1.88,1.14,2.83,1.18-.57,1.27-1.64,1.62-2.58,4.63-12.29,9.3-24.57,13.91-36.88C57.86,1.14,59.26.11,66.6.1c8.19,0,16.38,0,24.56,0a44.73,44.73,0,0,1,12.15,1.41c12.34,3.4,19.25,11.76,21.07,24.19a49.63,49.63,0,0,1-1,20.45c-3.62,13.21-12.88,19.78-26,21.29-9.16,1.05-18.4.43-27.6.49a4,4,0,0,1-3.12-1.34V13.09c-1.83,0-1.57,1.36-1.88,2.22Q56.07,39.64,47.37,64C46,67.68,45.68,67.89,41.65,68h-.44c-7.94.19-7.94.19-10.51-7.25Q22.89,38.24,15.08,15.69c-.32-.94-.39-2-1.75-2.77V67A19.23,19.23,0,0,1,0,66.9ZM82.5,56.68c4.09.7,7.72.1,11.33-.19,7.27-.58,12.35-4.39,14.83-11.19a33.39,33.39,0,0,0,.11-22.77,15.83,15.83,0,0,0-9.36-9.88C94,10.47,88.37,10.56,82.5,11.1Z"/></g></g></svg>