<svg xmlns="http://www.w3.org/2000/svg" viewBox="0 0 200 200"><defs><style>.cls-1{fill:#f34f29;}.cls-2{fill:none;}</style></defs><title>Zasób 9</title><g id="Warstwa_2" data-name="Warstwa 2"><g id="Warstwa_1-2" data-name="Warstwa 1"><path fill="#f34f29" d="M160.14,94.43,105.58,39.87a8,8,0,0,0-11.38,0L82.87,51.2,97.24,65.58a9.56,9.56,0,0,1,12.1,12.18L123.2,91.61a9.56,9.56,0,1,1-5.74,5.4L104.54,84.09v34a9.53,9.53,0,1,1-11.32,1.81,10.2,10.2,0,0,1,2.83-2.09V83.5a10.12,10.12,0,0,1-2.83-2.09,9.53,9.53,0,0,1-1.91-10.47L77.22,56.77,39.85,94.18a8.05,8.05,0,0,0,0,11.38l54.57,54.56a8.06,8.06,0,0,0,11.39,0l54.31-54.31a8.05,8.05,0,0,0,0-11.39Z"/><rect class="cls-2" width="200" height="200"/></g></g></svg>
