<svg xmlns="http://www.w3.org/2000/svg" viewBox="0 0 200 200"><defs><style>.cls-1{fill:#019bc6;}.cls-2{fill:none;}</style></defs><title>Zasób 8</title><g id="Warstwa_2" data-name="Warstwa 2"><g id="Warstwa_1-2" data-name="Warstwa 1"><path fill="#019bc6" d="M160.9,87.89c-4.3-2.5-10-2.8-14.81-1.4-.6-5.2-4-9.7-8-12.91l-1.6-1.3-1.4,1.6c-2.7,3.1-3.5,8.3-3.1,12.31a16.73,16.73,0,0,0,3,8.3,30.91,30.91,0,0,1-4.3,2.4,27.41,27.41,0,0,1-8.9,2h-6.7V84.79h-13v-25h-15v12h-25v13H49v14H37.84l-.2,1.5a36.78,36.78,0,0,0,3,18.51l1.1,2.2.1.2c7.9,13.41,21.71,19,36.82,19,29.21,0,53.33-13.11,64.33-40.62,7.4.4,15-1.8,18.61-8.9l.9-1.8-1.6-1ZM64.05,74.79h10v11h-10ZM77.16,119a3.1,3.1,0,1,1-3.1-3.1A3.18,3.18,0,0,1,77.16,119ZM64.05,87.79h10v11h-10Zm-13,0h11v11H51ZM78.76,138c-15.81-.1-24.31-5.4-31.31-12.41,2.1.1,4.1.2,5.9.2,1.6,0,3.2,0,4.7-.1a45.94,45.94,0,0,0,10.1-1.5c2.3,5.3,6.5,10.2,14,13.81Zm8.3-39.22h-11v-11h11Zm0-13h-11v-11h11Zm13,13h-11v-11h11Zm0-13h-11v-11h11Zm0-13h-11v-11h11Zm13,26h-11v-11h11ZM74.86,117a1.88,1.88,0,0,0-.8-.2,2.2,2.2,0,1,0,2.2,2.2,1.88,1.88,0,0,0-.2-.8.9.9,0,0,1-1.7-.4A1.23,1.23,0,0,1,74.86,117Z"/><rect class="cls-2" width="200" height="200"/></g></g></svg>
