<svg xmlns="http://www.w3.org/2000/svg" viewBox="0 0 200 200"><defs><style>.cls-1{fill:#f7a80d;}.cls-2{fill:none;}</style></defs><title>Zasób 3</title><g id="Warstwa_2" data-name="Warstwa 2"><g id="Warstwa_1-2" data-name="Warstwa 1"><path fill="#f7a80d" d="M74,113.53l-11.45,4.92L73.13,123l12.3-4.53Zm-17.22,6.15-.38,22.14,16.76,7.38v-23Zm34.43,0L76,125.44v21.67L91.19,141Zm18.06-68.87L97.72,55.73l10.68,4.54,12.3-4.54Zm-16,6.53V79.48l14.3,4.15L108,63.49Zm32,1.23-13.53,5.76V86.09l13.53-6.15ZM55.1,82,43.65,86.88l10.61,4.53,12.3-4.53ZM37.88,88.11l-.38,22.14,16.76,7.38v-23Zm34.43,0L57.18,93.88v21.67l15.14-6.15Zm19.68-7L80.54,86.06,91.15,90.6l12.3-4.53ZM74.78,87.29l-.38,22.14,16.76,7.38v-23Zm34.43,0L94.07,93.06v21.68l15.14-6.15Zm36.07-36.48-11.45,4.92,10.61,4.54,12.3-4.54ZM128.07,57l-.38,22.14,16.76,7.38v-23Zm34.43,0-15.14,5.76V84.4l15.14-6.15Z"/><rect class="cls-2" width="200" height="200"/></g></g></svg>
