<svg xmlns="http://www.w3.org/2000/svg" viewBox="0 0 200 200"><defs><style>.cls-1{fill:#fcbd01;}.cls-2{fill:none;}</style></defs><title>Zasób 24</title><g id="Warstwa_2" data-name="Warstwa 2"><g id="Warstwa_1-2" data-name="Warstwa 1"><g id="Warstwa_2-2" data-name="Warstwa 2"><g id="Warstwa_1-2-2" data-name="Warstwa 1-2"><path fill="#fcbd01" d="M137.72,87.18l-34.94,69.49.7-.78c1.71-2,3.39-4,5.15-6,3.28-3.83,6.62-7.63,9.88-11.46q19.87-23.18,39.74-46.4c1.36-1.59,2.71-3.36,4.06-4.84Z"/><path fill="#fcbd01" d="M138,85.71h24.57c-3.79-5.15-7.58-10.11-11.39-15.2-2.36-3.15-4.67-6.29-7.09-9.4-1.56-2-3-4.1-4.55-6.11-1-1.35-2.05-2.82-3.06-4.2Z"/><path fill="#fcbd01" d="M63.92,87.24,82.36,123.9l17.82,34.92,36-71.57Zm5.82,11.38.15,0,.11.15-.11-.15Zm.57.74a4.11,4.11,0,0,1,.22.59l-.09.05.09-.05a4.11,4.11,0,0,0-.22-.6Z"/><polygon fill="#fcbd01" points="135.93 85.87 100.05 46.88 64.17 85.87 135.93 85.87"/><path fill="#fcbd01" d="M63.56,84.5,99,46l-2.55.28L91,46.85c-3.58.36-7.15.74-10.72,1.08-4.75.49-9.5,1-14.24,1.53a8.51,8.51,0,0,0-1,0Z"/><path fill="#fcbd01" d="M136.54,84.5l-1.52-35c-.74-.08-1.53-.18-2.3-.24-2-.15-4-.42-6-.57-1.24-.1-2.51-.3-3.76-.45q-4.54-.52-9.09-1A23.83,23.83,0,0,0,110.2,47a10.8,10.8,0,0,1-1.55-.18c-2.48-.36-5-.65-7.52-.81Z"/><path fill="#fcbd01" d="M62.12,85.71l1.52-35c-3.46,4.63-7,9.21-10.38,13.84-5.25,7-10.48,14.5-15.71,21.12Z"/><path fill="#fcbd01" d="M81.13,124.47l-19-37.29H37.71c3.28,3.68,6.57,7.7,9.85,11.53l14.32,16.68,25.88,30.18c1.94,2.25,3.79,4.59,5.76,6.8,1.05,1.18,2,2.45,3.09,3.58.22.21.43.42.63.65Z"/></g></g><rect class="cls-2" width="200" height="200"/></g></g></svg>
