<svg xmlns="http://www.w3.org/2000/svg" viewBox="0 0 169.84 153.34"><title>Zasób 27</title><g id="Warstwa_2" data-name="Warstwa 2"><g id="Warstwa_1-2" data-name="Warstwa 1"><path fill="#fcbd01" d="M136.1,56,88.62,150.42c.32-.36.63-.7.95-1.06,2.32-2.74,4.61-5.48,7-8.21,4.46-5.2,9-10.37,13.43-15.57Q137,94.09,164,62.53c1.85-2.16,3.68-4.57,5.52-6.57Z"/><path fill="#fcbd01" d="M136.46,54h33.38c-5.15-7-10.3-13.74-15.48-20.65-3.21-4.28-6.35-8.54-9.63-12.77-2.12-2.73-4.06-5.57-6.18-8.3-1.42-1.83-2.79-3.83-4.16-5.7Z"/><path fill="#fcbd01" d="M35.83,56.09l25.05,49.8,24.21,47.44L134,56.09Zm7.91,15.46.21.05.15.21-.15-.21Zm.77,1a5.59,5.59,0,0,1,.3.8l-.12.07.12-.07A5.59,5.59,0,0,0,44.51,72.53Z"/><polygon fill="#fcbd01" points="133.67 54.22 84.92 1.25 36.17 54.22 133.67 54.22"/><path fill="#fcbd01" d="M35.34,52.36,83.53,0,80.06.38l-7.42.83c-4.86.49-9.71,1-14.57,1.47C51.62,3.35,45.16,4,38.72,4.76c-.42,0-.88,0-1.31.05Z"/><path fill="#fcbd01" d="M134.5,52.36,132.44,4.87c-1-.11-2.08-.24-3.12-.32-2.72-.2-5.42-.57-8.15-.78-1.69-.13-3.41-.41-5.11-.61q-6.17-.7-12.35-1.31a32.38,32.38,0,0,0-5-.42c-.71,0-1.41-.14-2.1-.24C93.24.7,89.83.31,86.39.09Z"/><path fill="#fcbd01" d="M33.38,54,35.45,6.49C30.75,12.78,26,19,21.35,25.3,14.22,34.87,7.11,45,0,54Z"/><path fill="#fcbd01" d="M59.21,106.67,33.37,56H.22c4.46,5,8.93,10.46,13.39,15.66Q23.34,83,33.07,94.32l35.16,41c2.63,3.06,5.15,6.23,7.83,9.24,1.43,1.6,2.7,3.33,4.2,4.86.3.29.59.57.86.88Z"/></g></g></svg>
