<svg xmlns="http://www.w3.org/2000/svg" viewBox="0 0 200 200"><defs><style>.cls-1{fill:#f60;}.cls-2{fill:none;}</style></defs><title>Zasób 21</title><g id="Warstwa_2" data-name="Warstwa 2"><g id="Warstwa_1-2" data-name="Warstwa 1"><g id="Warstwa_2-2" data-name="Warstwa 2"><g id="Warstwa_1-2-2" data-name="Warstwa 1-2"><path fill="#f60" d="M37.61,98.93V42.15c0-4.1,1.58-5.69,5.67-5.69H56.55c3.93,0,5.61,1.72,5.61,5.67,0,12.8.07,25.59,0,38.39,0,3.43,2,6.16,6.16,6.12,4.43,0,8.86,0,13.27,0,3.83,0,6.09-2.17,6.06-6-.09-12.84,0-25.69,0-38.53.05-3.75,1.92-5.64,5.65-5.64h13.83c3.42,0,5.31,1.9,5.31,5.31q0,19.2,0,38.39c0,4.58,1.91,6.48,6.55,6.48h38.39c2.49,0,4,.92,4.78,2.92a5.71,5.71,0,0,1,.31,2v65c0,3.24-1.86,4.93-5.31,4.94H43.25c-4,0-5.65-1.63-5.65-5.59ZM112.48,124h-.09v5.1a7.8,7.8,0,0,0,7.54,7.74c3.4.1,6.79.09,10.19,0a7.62,7.62,0,0,0,7.68-7.15,96.45,96.45,0,0,0,0-11.37,6.93,6.93,0,0,0-6.42-6.79,77.7,77.7,0,0,0-12.16-.07c-3.88.29-6.12,2.65-6.68,6.54A41.25,41.25,0,0,0,112.48,124Z"/></g></g><rect class="cls-2" width="200" height="200"/></g></g></svg>
