<svg xmlns="http://www.w3.org/2000/svg" viewBox="0 0 188.11 188.34"><title>Zasób 25</title><g id="Warstwa_2" data-name="Warstwa 2"><g id="Warstwa_1-2" data-name="Warstwa 1"><path fill="#f60" d="M0,94.14Q0,51.36,0,8.57C0,2.39,2.38,0,8.55,0h20C34.48,0,37,2.59,37,8.55c0,19.29.11,38.57-.07,57.86,0,5.17,3,9.28,9.29,9.23,6.68-.06,13.35,0,20,0,5.77,0,9.18-3.27,9.14-9.08-.14-19.35-.06-38.71-.05-58.06C75.39,2.85,78.21,0,83.83,0q10.42,0,20.84,0c5.15,0,8,2.87,8,8q0,28.93,0,57.86c0,6.9,2.88,9.77,9.87,9.77h57.86c3.75,0,6.07,1.39,7.2,4.4a8.61,8.61,0,0,1,.46,3q0,49,0,97.91c0,4.88-2.8,7.43-8,7.44H8.51c-6,0-8.51-2.46-8.51-8.42Q0,137,0,94.14Zm112.84,37.77h-.13c0,2.56,0,5.12,0,7.68a11.76,11.76,0,0,0,11.36,11.66c5.12.15,10.24.14,15.36,0A11.49,11.49,0,0,0,151,140.48a145.35,145.35,0,0,0,0-17.14,10.44,10.44,0,0,0-9.68-10.24A117.09,117.09,0,0,0,123,113c-5.84.44-9.22,4-10.07,9.85C112.49,125.8,112.84,128.88,112.84,131.91Z"/></g></g></svg>
