<svg xmlns="http://www.w3.org/2000/svg" viewBox="0 0 200 200"><defs><style>.cls-1{fill:#0a5066;}.cls-2{fill:none;}</style></defs><title>Zasób 7</title><g id="Warstwa_2" data-name="Warstwa 2"><g id="Warstwa_1-2" data-name="Warstwa 1"><g id="Warstwa_2-2" data-name="Warstwa 2"><g id="Warstwa_1-2-2" data-name="Warstwa 1-2"><path fill="#0a5066" d="M54.09,112c3.91,0,7.82,0,11.73,0a3.68,3.68,0,0,1,3.69,2.3c5.11,10,13.18,16.16,24.32,18.14,17.16,3,34.44-9.09,37.44-26.26A32.77,32.77,0,0,0,69.77,85.31a4.49,4.49,0,0,1-4.63,2.84c-7.56-.1-15.11,0-22.67,0-3.41,0-4.63-1.51-3.62-4.71,8-25.23,24.89-40.67,51-45,32.78-5.51,64.35,17.18,70.53,50A62.45,62.45,0,0,1,38.81,116.63c-.87-3.15.27-4.65,3.58-4.65Z"/><path fill="#0a5066" d="M99,114.82A14.82,14.82,0,1,1,113.81,100v.09A14.81,14.81,0,0,1,99,114.82Z"/></g></g><rect class="cls-2" width="200" height="200"/></g></g></svg>
