<svg xmlns="http://www.w3.org/2000/svg" viewBox="0 0 275.12 279.72"><title>Zasób 13</title><g id="Warstwa_2" data-name="Warstwa 2"><g id="Warstwa_1-2" data-name="Warstwa 1"><path fill="#0a5066" d="M34.88,166.65c8.75,0,17.49.1,26.24,0,4-.07,6.45,1.6,8.25,5.14,11.43,22.47,29.49,36.17,54.41,40.58,38.4,6.8,77.07-20.33,83.78-58.75,7.24-41.46-19.46-79.27-60.92-86.25-30.74-5.18-62.39,11-76.67,39.61-2.32,4.64-5.28,6.41-10.37,6.35-16.91-.22-33.82-.08-50.72-.09-7.62,0-10.37-3.39-8.11-10.55,17.81-56.45,55.69-91,114.08-100.79,73.34-12.33,144,38.44,157.83,111.87,14.43,76.79-36.41,150.49-113.06,163.9A140,140,0,0,1,.69,177.06c-1.95-7.05.61-10.4,8-10.41Z"/><path fill="#0a5066" d="M135.31,173a33.16,33.16,0,1,1,33.21-32.91A33.15,33.15,0,0,1,135.31,173Z"/></g></g></svg>
