<svg xmlns="http://www.w3.org/2000/svg" viewBox="0 0 115.6 125"><defs><style>.cls-1{fill:#099b90;}.cls-2{fill:#206d8e;}.cls-3{fill:#f05e2a;}.cls-4{fill:#f05f2b;}.cls-5{fill:#f16230;}.cls-6{fill:#0d9c92;}.cls-7{fill:#267191;}</style></defs><title>Brighter</title><g id="Warstwa_2" data-name="Warstwa 2"><g id="Warstwa_1-2" data-name="Warstwa 1"><g id="EMrmNh.tif"><path class="cls-1" d="M0,63.26c.89.29,1.48-.36,2.07-.78a43.26,43.26,0,0,0,14.43-18c2.22-5,1.42-9.76-1.82-14.15-.31-.42-.83-.74-.79-1.61a11.37,11.37,0,0,1,8,7.15c2,5.08,1,10-1.5,14.6a31,31,0,0,1-9.11,10.11A16.71,16.71,0,0,1,0,64Z"/><path class="cls-2" d="M100.7,15.27a4.25,4.25,0,0,1-1.51,2.2C93,24,79.11,25.74,71.47,21A15.35,15.35,0,0,1,66.32.41c.07-.13.23-.21.46-.41.19,1.61.31,3.11.56,4.57A13.39,13.39,0,0,0,78.79,16c7.25,1.28,14.51,2,21.61-.84.08,0,.22.06.33.1Z"/><path class="cls-3" d="M18.65,19.69c.64-.32,1.16.14,1.73.27a41.09,41.09,0,0,0,22.83-1.54c6-2.07,8.59-6.84,9.12-12.92,0-.41.06-.83.13-1.75a13.8,13.8,0,0,1,1.41,12.06c-1.85,5.35-5.94,8.47-11.18,9.86a27.27,27.27,0,0,1-17.41-.88c-2.67-1.06-5.18-2.42-6.6-5.13Z"/><path class="cls-4" d="M16.15,105.77a41.14,41.14,0,0,0,.72-9.41c-.5-5.52-1-11-3.43-16.16A13.81,13.81,0,0,0,2,72c-.34,0-.75.06-1.11-.48a11.1,11.1,0,0,1,10.77-.44,15.42,15.42,0,0,1,7.78,8.39,28.74,28.74,0,0,1,.75,20.87,9.1,9.1,0,0,1-4,5.43Z"/><path class="cls-2" d="M55.91,125a44.42,44.42,0,0,0-19.53-16.1c-5-2.24-9.88-1.35-14.27,2-.24.18-.49.36-.75.52a2.72,2.72,0,0,1-.56.13,11.1,11.1,0,0,1,7.25-7.93,16.46,16.46,0,0,1,13.46,1.21,29.19,29.19,0,0,1,13.34,13.33A11.1,11.1,0,0,1,55.91,125Z"/><path class="cls-4" d="M115.6,73.92c-1.8.21-3.6-.09-5.41.12-8,.94-12.29,6.24-11.56,14.32a21.49,21.49,0,0,0,4.25,10.91c.68.94,1.63,1.76,1.9,3.07C96.67,99.5,91,89.06,93.17,81c1.81-6.76,8.1-10.67,15.37-9.6A22.88,22.88,0,0,1,115.6,73.92Z"/><path class="cls-1" d="M115,60.5c-5.46,1.55-10.81,1.94-16-.87A18.2,18.2,0,0,1,92.58,54c-5.52-7.91-.68-19.52,8.82-21-.13.89-.9,1.27-1.44,1.79-5.86,5.65-6.05,12.6-.58,18.62,3.7,4.07,8.46,5.8,13.71,6.56.48.07,1,.18,1.43.29A2,2,0,0,1,115,60.5Z"/><path class="cls-2" d="M64.38,14.34c0,1.4-.09,2.81,0,4.2C64.85,24.73,68.92,29,75.07,30a19.57,19.57,0,0,0,14.29-3.09,17.88,17.88,0,0,1,3-1.71,11.88,11.88,0,0,1-2.42,4,17.49,17.49,0,0,1-21,4.55,13.29,13.29,0,0,1-6.19-16.58c.38-1,.83-2,1.24-3Z"/><path class="cls-4" d="M54.66,17c4.21,7.8,1.37,15.72-6.53,18.92C39.69,39.32,30,36,26.08,28.09A17.9,17.9,0,0,1,29.86,30a19.22,19.22,0,0,0,16.94,1c5.14-2,7.39-6.08,7.75-11.39,0-.43,0-.85,0-1.28S54.61,17.64,54.66,17Z"/><path class="cls-1" d="M23.41,36.18c3.45.35,6.67,3.3,7.76,7.28,1.45,5.32-.13,10-3.39,14.21-4,5.13-9.1,7.83-15.79,6.63-.41-.07-.87,0-1.28-.51,1.41-.47,2.8-.85,4.11-1.4,7-3,11.52-8,12.7-15.7.49-3.18-.7-6-2.6-8.51-.5-.67-1.3-1.12-1.48-2Z"/><path class="cls-1" d="M62.4,115.36c-1-4.09-.87-7.63.94-11.06C66.92,97.48,75.09,93.1,82,94.4a9.85,9.85,0,0,1,8.18,7.75c-.45.12-.63-.29-.89-.49-5.6-4.46-10.73-4.73-16.8-.86a20.81,20.81,0,0,0-9.32,12.4C63,113.77,62.75,114.33,62.4,115.36Z"/><path class="cls-2" d="M55.78,114.67c-.38-1.08-.74-2.17-1.15-3.25-2.48-6.65-7.29-10.84-14-12.87-3.9-1.19-7.46-.16-10.66,2.28l-1.72,1.34s-.11,0-.16,0a10.45,10.45,0,0,1,11.11-8c6.55.47,11.49,3.7,15.11,9.06C56.7,106.72,57,110.58,55.78,114.67Z"/><path class="cls-4" d="M23.35,98.34c.53-1.09,1-2,1.45-3,2.92-6.25,2.54-12.44-.52-18.49A11.39,11.39,0,0,0,15,70.51l-2.78-.37a10.11,10.11,0,0,1,10.37-.51c9.45,4.65,11.46,21.88,2.47,27.94C24.63,97.89,24.24,98.4,23.35,98.34Z"/><path class="cls-5" d="M97.31,71.63a21.88,21.88,0,0,0-5,1.59A8,8,0,0,0,87.79,80a20.61,20.61,0,0,0,1.31,9.31,3.79,3.79,0,0,1,.22.69c0,.09-.07.21-.11.32-4.81-2.86-6.9-10.9-4.06-15.59C87.23,71.34,92.62,69.87,97.31,71.63Z"/><path class="cls-6" d="M88,44c-2.3,3.92-3.32,7.6-.83,11.22a19.77,19.77,0,0,0,8.93,7.12C92.27,64,84.68,60.12,83,56,81.2,51.3,83.31,45.74,88,44Z"/><path class="cls-7" d="M81.3,38.81c-2.48,3.82-9.73,5.85-13.81,3.92-4.62-2.19-6.63-6.81-5-11.91C65.31,41.87,73.21,40.55,81.3,38.81Z"/><path class="cls-5" d="M55.83,32.55c1.46,3.64-.31,8.19-3.88,10.27-4.64,2.7-11.77,1.56-15-2.44C44.85,41.73,52.61,42.72,55.83,32.55Z"/><path class="cls-6" d="M33.37,45.35c3.53,1.85,5,5.94,3.77,10-1.52,5.08-6.91,9.35-11.37,8.93C31.8,59.48,37.57,54.57,33.37,45.35Z"/><path class="cls-6" d="M62,100.33c-.23-4.61,3.84-9.78,8.88-11.38A8.42,8.42,0,0,1,81,92.45C71.84,88.51,66.88,94.1,62,100.33Z"/><path class="cls-7" d="M56.18,100.11c-4.9-5.89-9.83-11.64-18.77-7.65,1.29-3,5.37-4.64,9.07-3.71C51.88,90.11,56.61,95.59,56.18,100.11Z"/><path class="cls-5" d="M33.79,88.67C35.54,78,33,72.36,26.23,69.74c2.14-1.4,6.78.37,8.88,3.72C38,78.17,37.49,85.35,33.79,88.67Z"/><path class="cls-5" d="M85.65,69.59c-5.08,3.22-8.54,6.73-5.42,12.95-3.26-1.14-5.38-4.89-4.8-7.85C76.12,71.23,79.93,69.18,85.65,69.59Z"/><path class="cls-1" d="M79.25,50.29c-1.19,5.64-1,10.46,5.28,12.82-3.21,1.4-7.18.07-8.69-2.6C74.15,57.51,75.5,53,79.25,50.29Z"/><path class="cls-7" d="M73.9,46.88c-1.77,3.31-5.13,4.73-8.1,3.79S60.58,45.89,61,41.47C64.31,45.94,67.86,49.4,73.9,46.88Z"/><path class="cls-5" d="M56.9,42.1c.55,3.9-1.72,7.64-4.9,8.65a6.74,6.74,0,0,1-8-3.29C49.82,49.41,53.66,46.64,56.9,42.1Z"/><path class="cls-5" d="M34.32,68.86c4.15.18,7.17,2.37,8.17,5.44.94,2.91.18,5.6-2.63,7.92C41.39,76.35,38.67,72.47,34.32,68.86Z"/><path class="cls-6" d="M75.08,85.81c-2.65.19-5.09-.08-7.44.75S64,89.4,62.29,91.14a6.38,6.38,0,0,1,3.66-7.09A7.78,7.78,0,0,1,75.08,85.81Z"/><path class="cls-6" d="M40.3,51.12a8.11,8.11,0,0,1,2,9.11c-1.23,2.77-3.74,4.21-7.38,4,1.83-1.86,4-3.21,4.76-5.67S40.16,53.81,40.3,51.12Z"/><path class="cls-7" d="M55.87,91.57c-3-5.28-7.64-6-12.82-5.58,1.75-2.48,5.61-3.31,8.7-2.06A6.76,6.76,0,0,1,55.87,91.57Z"/><path class="cls-3" d="M18.69,19.67l-.2-.17.14,0,0,.24Z"/><path class="cls-1" d="M23.45,36.15,23.21,36l.15-.06.05.26Z"/><polygon class="cls-4" points="16.13 105.74 16.01 105.81 16.15 105.77 16.13 105.74"/><path class="cls-2" d="M100.74,15.3l.1-.2s0,.1,0,.11a.61.61,0,0,1-.15.06Z"/></g></g></g></svg>