<svg xmlns="http://www.w3.org/2000/svg" viewBox="0 0 200 200"><defs><style>.cls-3{fill:none;}.cls-2{fill:#6181b6;}</style></defs><title>php</title><g id="Warstwa_2" data-name="Warstwa 2"><g id="Warstwa_1-2" data-name="Warstwa 1"><rect class="cls-3" width="200" height="200"/><path fill="#6181b6" d="M100,68.33c-34.52,0-62.5,14.18-62.5,31.67s28,31.67,62.5,31.67,62.5-14.18,62.5-31.67S134.52,68.33,100,68.33ZM83.74,106.17a12.22,12.22,0,0,1-5,2.56c-1.82.59-4.15.47-7,.47H65.4l-1.77,10.23H56.16l6.66-34.78H77.19c4.32,0,7.47,1.24,9.45,3.51s2.58,5.49,1.79,9.55a15,15,0,0,1-4.69,8.45Zm21.8,3,2.95-14.75c.34-1.73.21-3-.37-3.64s-1.82-1-3.72-1H98.47l-3.82,19.44H87.25l6.66-33.76h7.41l-1.77,9.21h6.6c4.15,0,7,.83,8.6,2.28s2,3.43,1.42,6.68l-3.1,15.59Zm41.19-11.44a14.9,14.9,0,0,1-4.69,8.4,12.23,12.23,0,0,1-5,2.56c-1.82.59-4.15.47-7,.47h-6.4l-1.77,10.23h-7.47l6.66-34.78h14.36c4.32,0,7.47,1.24,9.45,3.51S147.51,93.71,146.72,97.77Zm-14.07-8h-5.12l-2.79,14.32h4.54c3,0,5.25-.3,6.73-1.43a8.66,8.66,0,0,0,3-5.55c.5-2.55.27-4.54-.68-5.58S135.49,89.77,132.65,89.77Zm-58.3,0H69.24l-2.79,14.32H71c3,0,5.25-.3,6.73-1.43a8.66,8.66,0,0,0,3-5.55c.5-2.55.27-4.54-.68-5.58S77.19,89.77,74.36,89.77Z"/></g></g></svg>
