<svg xmlns="http://www.w3.org/2000/svg" viewBox="0 0 200 200"><defs><style>.cls-1{fill:#4faa41;}.cls-2{fill:none;}</style></defs><title>Zasób 17</title><g id="Warstwa_2" data-name="Warstwa 2"><g id="Warstwa_1-2" data-name="Warstwa 1"><path fill="#4faa41" d="M127.85,92.94a58.47,58.47,0,0,0-3.22-14.65A72.13,72.13,0,0,0,108,50.17c-1.95-2-4.12-3.92-5.48-6.47-.86-1.61-1.68-3.24-2.52-4.87l-.53-1.34a3.12,3.12,0,0,0-.15.53c-.07,2.65-1.57,4.44-3.43,6.12C93.83,46,91.88,48.07,89.86,50l-6.2,8.16-5,9.23L75.28,76.5l-.1.14A84,84,0,0,0,72,95.24a56.58,56.58,0,0,0,.16,7.15,49.09,49.09,0,0,0,1.67,10c3.22,12,9.75,21.87,18.68,30.3,1.66,1.57,3.36,3,5.1,4.48.3-1,.53-2,.8-3s.54-2,.72-3c-.18,1-.39,2-.59,3l-.87,3,.78,2.63.72,4.08.34,4.26c0,.87,0,1.73,0,2.6,0,.22.3.42.46.64l1.45.51,1.51.59-.26-3.79V155l.52-5.68.38-1.24,1.08-1.91c1.33-1.07,2.76-2,4-3.24A92.24,92.24,0,0,0,115,136.2a50.31,50.31,0,0,0,6.51-10,76.19,76.19,0,0,0,3.21-7.36c.81-2.21,1.31-4.54,1.95-6.81a4.31,4.31,0,0,0,.17-.49A64.33,64.33,0,0,0,127.85,92.94ZM103,144.85l-.85-1.85.85,1.85,1.24,1.06Z"/><rect class="cls-2" width="200" height="200"/></g></g></svg>
