<svg xmlns="http://www.w3.org/2000/svg" viewBox="0 0 200 200"><defs><style>.cls-1{fill:#cb3837;}.cls-2{fill:none;}</style></defs><title>Zasób 19</title><g id="Warstwa_2" data-name="Warstwa 2"><g id="Warstwa_1-2" data-name="Warstwa 1"><g id="Warstwa_2-2" data-name="Warstwa 2"><g id="Warstwa_1-2-2" data-name="Warstwa 1-2"><path fill="#cb3837" d="M37,75.71H162v41.69l-.31,0H99.87l-.37,0v6.9H71.76v-6.43c0-.55,0-.49-.48-.49H37V76.15C37,76,37,75.85,37,75.71Zm90.32,14h6.86v.45q0,10,0,20c0,.29.07.39.37.39h6.67V89.65h6.35c.57,0,.52-.07.52.52V110c0,.6,0,.5.51.5h6.47V82.65H113.4v27.82h13.48c.46,0,.46,0,.46-.45V89.66Zm-20.87-7H79c-.32,0-.4.08-.4.4v34c0,.3.06.41.39.41q6.61,0,13.22,0h.36v-7h13.87Zm-34.69,0H44v27.82H57.43c.49,0,.46.07.46-.48V89.68h6.86v20.4c0,.31.07.4.39.4,2.07,0,4.15,0,6.22,0,.42,0,.42,0,.42-.42V82.65Z"/><path fill="#cb3837" d="M99.48,103.43H92.61V89.66h6.87Z"/></g></g><rect class="cls-2" width="200" height="200"/></g></g></svg>
