<svg xmlns="http://www.w3.org/2000/svg" viewBox="0 0 456.86 177.57"><title>Zasób 23</title><g id="Warstwa_2" data-name="Warstwa 2"><g id="Warstwa_1-2" data-name="Warstwa 1"><path fill="#cb3837" d="M0,0H456.86V152.36c-.38,0-.75-.08-1.13-.08h-226c-.41,0-.81,0-1.35.06v25.23H127V176q0-11,0-21.93c0-2,.16-1.79-1.75-1.79H.06v-1.75q0-74.47,0-148.93C.05,1.06,0,.53,0,0ZM330.11,51h25.07v1.65q0,36.49,0,73c0,1.06.24,1.43,1.37,1.43,7.65,0,15.3,0,23,0h1.37V50.94h23.21c2.1,0,1.89-.27,1.89,1.89q0,36.21,0,72.41c0,2.21,0,1.81,1.86,1.81q11.19,0,22.39,0h1.27V25.38H279.17V127.06h49.27c1.67,0,1.67,0,1.67-1.65q0-36.38,0-72.75ZM253.82,25.3h-1.38q-49.44,0-98.89,0c-1.17,0-1.46.31-1.46,1.46q0,62.12,0,124.24c0,1.1.21,1.49,1.43,1.49q24.15-.07,48.3,0h1.31V127h50.68Zm-126.77.08H25.41V127.06H74.61c1.78,0,1.69.25,1.69-1.75q0-36.37,0-72.75V51.05h25.07v1.71q0,36.43,0,72.86c0,1.14.26,1.47,1.44,1.46,7.57-.06,15.15,0,22.73,0,1.52,0,1.53,0,1.53-1.55q0-49.34,0-98.67Z"/><path fill="cb3837" d="M228.31,101.33h-25.1V51h25.1Z"/></g></g></svg>
