<svg xmlns="http://www.w3.org/2000/svg" viewBox="0 0 223.22 222.61"><title>Zasób 11</title><g id="Warstwa_2" data-name="Warstwa 2"><g id="Warstwa_1-2" data-name="Warstwa 1"><path fill="#a702b1" d="M16,0H41.57a0,0,0,0,1,0,0V222.61a0,0,0,0,1,0,0H16a16,16,0,0,1-16-16V16A16,16,0,0,1,16,0Z"/><path fill="#a702b1" d="M56,0V222.52H212a11.2,11.2,0,0,0,11.2-11.2V11.2A11.2,11.2,0,0,0,212,0ZM120.5,203.26q-8.94-15-18.08-33H93.28v33h-15V124.81a16.18,16.18,0,0,1,2.31,0c10.87.18,21.86-.15,32.67.79C129.2,127,138.11,139.78,134,154.36c-2.3,8.14-8.46,11.94-16.69,14.62,7,11.64,13.61,22.28,20.66,34.28ZM187.67,167c-5.18,2.49-11.21,3.45-17,4.37-4.16.66-8.41.13-13.41.13v31.81h-15V124.93c10,0,19.72-.23,29.36.11a47.32,47.32,0,0,1,12.73,2.35c8.55,2.81,13.16,9.17,13.94,18C199.11,154.69,196.36,162.76,187.67,167Z"/><path fill="#a702b1" d="M120,147.08c-.17-5.16-3.21-8.09-7.71-8.73-6.23-.88-13.05-.75-19.05-1.06v21.63c7-.52,13.24-.47,19.57-1.67C118.25,156.24,120.21,152.37,120,147.08Z"/><path fill="#a702b1" d="M173.76,138c-5.21-.45-10.48-.09-16.48-.09v21.2c4,0,8.08.09,11.85,0a29.55,29.55,0,0,0,5.41-.88c6.18-1.41,8.87-4.78,8.69-10.69C183.06,142.16,179.75,138.48,173.76,138Z"/></g></g></svg>
