<svg xmlns="http://www.w3.org/2000/svg" viewBox="0 0 200 200"><defs><style>.cls-1{fill:#a702b1;}.cls-2{fill:none;}</style></defs><title>Zasób 6</title><g id="Warstwa_2" data-name="Warstwa 2"><g id="Warstwa_1-2" data-name="Warstwa 1"><g id="Warstwa_2-2" data-name="Warstwa 2"><g id="Warstwa_1-2-2" data-name="Warstwa 1-2"><path fill="#a702b1" d="M46.44,37.69H60.76V162.36H46.44a9,9,0,0,1-9-9V46.65A9,9,0,0,1,46.44,37.69Z"/><path fill="#a702b1" d="M68.84,37.69V162.31h87.37a6.27,6.27,0,0,0,6.27-6.27V44a6.27,6.27,0,0,0-6.27-6.27ZM105,151.52q-5-8.4-10.13-18.48H89.72v18.48h-8.4V107.59a9.06,9.06,0,0,1,1.29,0c6.09.1,12.24-.08,18.3.44,8.93.78,13.92,7.94,11.62,16.11-1.29,4.56-4.74,6.69-9.35,8.19,3.92,6.52,7.62,12.48,11.57,19.2Zm37.62-20.31a34.56,34.56,0,0,1-9.52,2.45c-2.33.37-4.71.07-7.51.07v17.81h-8.4v-43.9c5.6,0,11-.13,16.44.06a26.5,26.5,0,0,1,7.13,1.32c4.79,1.57,7.37,5.14,7.81,10.08C149,124.32,147.45,128.84,142.58,131.22Z"/><path fill="#a702b1" d="M104.68,120.06a4.71,4.71,0,0,0-4.32-4.89c-3.49-.49-7.31-.42-10.67-.59v12.11c3.92-.29,7.41-.26,11-.94C103.7,125.19,104.8,123,104.68,120.06Z"/><path fill="#a702b1" d="M134.79,115c-2.92-.25-5.87-.05-9.23-.05V126.8c2.24,0,4.53.05,6.64,0a16.55,16.55,0,0,0,3-.49c3.46-.79,5-2.68,4.87-6C140,117.31,138.14,115.24,134.79,115Z"/></g></g><rect class="cls-2" width="200" height="200"/></g></g></svg>
