<svg xmlns="http://www.w3.org/2000/svg" viewBox="0 0 76.56 73.03"><defs><style>.cls-1{fill:#ffde11;}.cls-2{fill:#1d1d1b;}.cls-3{fill:none;stroke:#1d1d1b;stroke-linecap:round;stroke-miterlimit:10;stroke-width:2px;}</style></defs><title>c-mobile</title><g id="Warstwa_2" data-name="Warstwa 2"><g id="Warstwa_1-2" data-name="Warstwa 1"><g id="Warstwa_2-2" data-name="Warstwa 2"><g id="Warstwa_1-2-2" data-name="Warstwa 1-2"><polygon class="cls-1" points="70.13 61.47 16.57 61.47 16.57 7.91 70.13 7.91 70.13 19.16 27.82 19.16 27.82 50.22 70.13 50.22 70.13 61.47"/><path class="cls-2" d="M64.1,1.5l11,.62c1,0,1-1.45,0-1.5L64.1,0C63.1,0,63.1,1.45,64.1,1.5Z"/><path class="cls-2" d="M73.43.84A55,55,0,0,0,74,13.94a.76.76,0,0,0,1.25.33l1.1-1.15c.67-.7-.39-1.76-1.06-1.06L74.2,13.2l1.25.33A53.36,53.36,0,0,1,74.93.83c.07-1-1.43-1-1.5,0Z"/><path class="cls-3" d="M1,72c7.93-7.75,15.58-15.78,23.59-23.45,4-3.83,8.07-7.58,12.31-11.14,2.26-1.9,2.89-3.06,5.57-1.91,1.41.6,2.59,2,4.08,2.41,4,1.08,6.79-4.13,9-6.89,7-8.73,12.07-18.73,17.59-28.39"/></g></g></g></g></svg>