<svg xmlns="http://www.w3.org/2000/svg" viewBox="0 0 109.85 77.87"><defs><style>.cls-1{fill:#ffde11;}</style></defs><title>d-mobile</title><g id="Warstwa_2" data-name="Warstwa 2"><g id="Warstwa_1-2" data-name="Warstwa 1"><g id="Warstwa_2-2" data-name="Warstwa 2"><g id="Warstwa_1-2-2" data-name="Warstwa 1-2"><path class="cls-1" d="M96,53.56H42.39V0H71.5L96,24.5ZM53.63,42.31H84.7V29.15L66.85,11.25H53.63Z"/><path d="M34.28,58.45Q69.49,58,104.67,59.6V58.1l-4.89-.18a.75.75,0,1,0,0,1.5l4.89.18a.75.75,0,1,0,0-1.5q-35.18-1.55-70.39-1.15a.75.75,0,1,0,0,1.5Z"/><path d="M32.85,65.78a651.1,651.1,0,0,1,76.27-.47c1,.05.93-1.39,0-1.5l-3.29-.39c-1-.11-.95,1.39,0,1.5l3.29.39V63.78a651.1,651.1,0,0,0-76.27.5C31.85,64.34,31.85,65.84,32.85,65.78Z"/><path d="M102.42,68.64a4.39,4.39,0,0,0-5.18,3,3.78,3.78,0,0,0,2.48,4.74l.11,0a4.3,4.3,0,0,0,5.08-1.75,4.46,4.46,0,0,0-1.66-5.88.75.75,0,0,0-.76,1.3h0a2.94,2.94,0,0,1,1.13,3.79A2.74,2.74,0,0,1,100.49,75c-3.44-.86-1.57-5.77,1.53-4.94a.75.75,0,1,0,.4-1.45h0Z"/><path d="M43.22,71.43C41.87,69.51,39,70,37.92,72a5.76,5.76,0,0,0-.23,4.27c.33,1.13,1.62,1.46,2.69,1.58,2.28.25,4.89-1,5.18-3.5.25-2.22-1.4-4.55-3.74-4.48a.75.75,0,1,0,0,1.5,2.38,2.38,0,0,1,2.27,2.42,2.73,2.73,0,0,1-2.79,2.58,3.3,3.3,0,0,1-2-.35c-.5-.37-.48-1.46-.44-2A2.29,2.29,0,0,1,40,71.94a1.45,1.45,0,0,1,1.84.28c.55.78,1.85,0,1.3-.76Z"/><path d="M16.08,4c.85,9,5.21,18,8.27,26.42,3.27,9,6.61,18,9.93,27.07.33.9,1.78.51,1.45-.4q-4.65-12.63-9.28-25.27C23.26,23,18.45,13.31,17.58,4,17.49,3,16,3,16.08,4Z"/><path d="M.94,9.94a61.75,61.75,0,0,0,15.13-4.8c.87-.41.11-1.7-.76-1.3A60.2,60.2,0,0,1,.54,8.49C-.41,8.66,0,10.11.94,9.94Z"/></g></g></g></g></svg>