<svg xmlns="http://www.w3.org/2000/svg" viewBox="0 0 150 150"><defs><style>.cls-1,.cls-3{fill:none;}.cls-2{fill:#2c2522;}.cls-3{stroke:#000;stroke-miterlimit:10;}</style></defs><title>Zasób 12</title><g id="Warstwa_2" data-name="Warstwa 2"><g id="Warstwa_1-2" data-name="Warstwa 1"><rect class="cls-1" width="150" height="150"/><line class="cls-1" x2="150" y2="150"/><line class="cls-1" x1="150" y2="150"/><polygon class="cls-2" points="101.68 102.02 48.12 102.02 48.12 48.47 101.68 48.47 101.68 59.71 59.37 59.71 59.37 90.78 101.68 90.78 101.68 102.02"/><rect class="cls-2" x="48.12" y="69.62" width="33.71" height="11.25"/><path d="M101.57,59.88h15a.63.63,0,0,0,0-1.25h-1.33a.63.63,0,0,0,0,1.25h1.33a.63.63,0,0,0,0-1.25h-15a.63.63,0,0,0,0,1.25Z"/><path d="M101.58,62.48a144.57,144.57,0,0,1,15-.53V60.7h-.92a.63.63,0,0,0,0,1.25h.92a.63.63,0,0,0,0-1.25,144.57,144.57,0,0,0-15,.53c-.8.07-.8,1.32,0,1.25Z"/><path d="M101.59,65.08,117,63.5c.78-.08.81-1.3,0-1.25l-1.84.11c-.8,0-.8,1.3,0,1.25L117,63.5V62.25l-15.45,1.59c-.79.08-.8,1.33,0,1.25Z"/><path d="M104.46,67.32h8.27a.63.63,0,0,0,0-1.25h-8.27a.63.63,0,0,0,0,1.25Z"/><path d="M124.63,18.49l12.76-8.75c.66-.45,0-1.54-.63-1.08L124,17.41c-.66.45,0,1.54.63,1.08Z"/><path d="M127.5,24.25l13.18-7.52a.63.63,0,0,0-.63-1.08l-13.18,7.52a.63.63,0,0,0,.63,1.08Z"/><path d="M119.72,13.62A54.9,54.9,0,0,0,123,5.33c.23-.77-1-1.1-1.21-.33a52.87,52.87,0,0,1-3.15,8c-.35.72.72,1.35,1.08.63Z"/><path d="M110.75,13.58a23.27,23.27,0,0,0-4-9.64c-.46-.65-1.55,0-1.08.63a22.44,22.44,0,0,1,3.92,9.34c.14.79,1.34.46,1.21-.33Z"/><path d="M101.25,14.54a75.38,75.38,0,0,0-8.76-8.19c-.62-.5-1.51.38-.88.88a75.38,75.38,0,0,1,8.76,8.19c.54.6,1.43-.29.88-.88Z"/><path d="M92.62,19.42A61.75,61.75,0,0,0,77,10c-.74-.31-1.06.9-.33,1.21a59.64,59.64,0,0,1,15,9.06c.62.51,1.51-.37.88-.88Z"/><path d="M85.34,29.44a71.55,71.55,0,0,1-16.77-.7c-.79-.13-1.13,1.08-.33,1.21a73,73,0,0,0,17.1.75c.8-.06.8-1.31,0-1.25Z"/><path d="M131.9,31.73q8.78-2.15,17.33-5c.76-.26.43-1.46-.33-1.21q-8.56,2.89-17.33,5c-.78.19-.45,1.4.33,1.21Z"/><path class="cls-3" d="M113.68,56.23a70.39,70.39,0,0,1-1.4-17.3c.08-1.92.37-4.07,1.91-5.23a3.5,3.5,0,0,1,3.78-.21,1.73,1.73,0,0,1,.76.79A1.51,1.51,0,0,1,118,36a3.27,3.27,0,0,1-2,.29A11.85,11.85,0,0,1,111.9,35c-1.58-.82-3.23-2.21-3.06-4A1.6,1.6,0,0,1,110,29.5a1.44,1.44,0,0,1,1.43.85,2.77,2.77,0,0,1,.12,1.75c-.66,3.15-4.15,5.06-7.37,5-1.2,0-2.7-.58-2.73-1.78s1.83-1.87,2.9-1.16a4.93,4.93,0,0,1,1.7,3.33c1.18,6,.93,12.25.67,18.39"/><path class="cls-3" d="M116.26,57.64a11.35,11.35,0,0,1,2.67-13c.79-.69,1.67-1.26,2.52-1.88,2.56-1.84,5-4.35,5.29-7.49.31-3.56-2-7.63-4.25-10.28a16.32,16.32,0,0,0-15.07-5.32c-5.6.84-12.18,4.32-13.46,10.26a8.51,8.51,0,0,0,1.37,6.87,22.33,22.33,0,0,0,2,2.15,42.38,42.38,0,0,1,4,4.91A8.79,8.79,0,0,1,102.66,46a8.79,8.79,0,0,1,.37,2.81l.2,9.35"/></g></g></svg>