<svg xmlns="http://www.w3.org/2000/svg" viewBox="0 0 150 150"><defs><style>.cls-1{fill:none;}.cls-2{fill:#2c2522;}.cls-3{fill:#1d1d1b;}</style></defs><title>m-new</title><g id="Warstwa_2" data-name="Warstwa 2"><g id="Warstwa_1-2" data-name="Warstwa 1"><rect class="cls-1" width="150" height="150"/><line class="cls-1" x2="150" y2="150"/><line class="cls-1" x1="150" y2="150"/><polygon class="cls-2" points="101.7 102.02 90.45 102.02 90.45 59.71 59.38 59.71 59.38 102.02 48.14 102.02 48.14 48.47 101.7 48.47 101.7 102.02"/><rect class="cls-2" x="69.29" y="48.46" width="11.25" height="33.71"/><path class="cls-3" d="M43,44.81q29.59-1.21,59.18.46c.77,0,.77-1.11,0-1.15Q72.59,42.46,43,43.66A.58.58,0,1,0,43,44.81Z"/><path class="cls-3" d="M45.62,107.61a293.26,293.26,0,0,0,60.53-1.3c.73-.09.77-1.24,0-1.15a293.26,293.26,0,0,1-60.53,1.3C44.86,106.4,44.86,107.55,45.62,107.61Z"/><path class="cls-3" d="M108.06,49.84a188.76,188.76,0,0,1,1.53,25c0,7.87-1,15.7,0,23.55.09.72,1.24.77,1.15,0-1.09-8.32.07-16.64,0-25a195.28,195.28,0,0,0-1.59-23.85c-.1-.77-1.21-.42-1.11.31Z"/><path class="cls-3" d="M42.55,100.3c-1.68-3.77-1.84-7.91-2.3-12-.49-4.22-.92-8.43-1.12-12.71A92.69,92.69,0,0,1,41.37,49.5c.18-.72-.94-1-1.11-.31a95.25,95.25,0,0,0-2.2,27.94c.27,4.6.83,9.12,1.32,13.68a33.28,33.28,0,0,0,2.19,10.08c.3.67,1.29.09,1-.58Z"/><path class="cls-3" d="M37.67,112c25.59,1,51.25,2.45,76.84.52.77-.05.77-1.2,0-1.15-25.59,1.92-51.24.43-76.84-.52A.58.58,0,1,0,37.67,112Z"/><path class="cls-3" d="M34.93,39.51c25.12-1.06,50.41-3,75.39,1.07.71.12,1-1,.3-1.11-25.08-4.06-50.46-2.16-75.69-1.1A.58.58,0,0,0,34.93,39.51Z"/><path class="cls-3" d="M112.92,27.59c-.26,8.75-.27,17.44,1,26.15a.75.75,0,0,0,1.24.37c6.12-7.19,12.37-14.26,18.06-21.77.6-.81-.68-1.59-1.28-.78C126.32,39,120.16,45.95,114.09,53l1.24.37c-1.28-8.56-1.2-17.16-1-25.76a.75.75,0,0,0-1.51,0h.07Z"/><path class="cls-3" d="M111.07,41a189.33,189.33,0,0,1,5.5,36.34q.44,8.69.08,17.39c-.25,5.8-.41,11.69-2.3,17.22-.24.7.87,1,1.11.31,1.71-5,2-10.14,2.25-15.33a193.7,193.7,0,0,0,0-19.56,190.92,190.92,0,0,0-5.54-36.64.58.58,0,1,0-1.11.31Z"/><path class="cls-3" d="M34.28,39.49c-1.27,12.85-2,25.76-2.21,38.67-.15,10.73.1,21.68,4.82,31.59.31.67,1.31.08,1-.58-5-10.6-4.85-22.5-4.6-34,.25-11.92,1-23.82,2.16-35.69.07-.77-1.08-.77-1.15,0Z"/></g></g></svg>