<svg xmlns="http://www.w3.org/2000/svg" viewBox="0 0 55.28 77.72"><defs><style>.cls-1{fill:#2c2522;}.cls-2{fill:none;stroke:#1e1e1c;stroke-miterlimit:10;}.cls-3{fill:#1e1e1c;}</style></defs><title>n-mobile</title><g id="Warstwa_2" data-name="Warstwa 2"><g id="Warstwa_1-2" data-name="Warstwa 1"><g id="Warstwa_2-2" data-name="Warstwa 2"><g id="Warstwa_1-2-2" data-name="Warstwa 1-2"><polygon class="cls-1" points="54.78 53.55 43.53 53.55 43.53 29.15 25.66 11.24 12.46 11.24 12.46 53.55 1.22 53.55 1.22 0 30.33 0 54.78 24.5 54.78 53.55"/><line class="cls-2" x1="1.22" y1="53.55" x2="1.22" y2="77.22"/><path class="cls-2" d="M12.46,53.53l.28,13.22"/><line class="cls-2" y1="77.22" x2="15.38" y2="77.22"/><path class="cls-2" d="M45.08,53.53l-.41,11.83"/><line class="cls-2" x1="54.78" y1="52.42" x2="54.78" y2="76.54"/><line class="cls-2" x1="44.28" y1="77.22" x2="54.78" y2="76.54"/><line class="cls-2" x1="15.38" y1="77.22" x2="44.28" y2="77.22"/><line class="cls-2" x1="12.73" y1="65.84" x2="44.85" y2="64.93"/><path class="cls-3" d="M24.23,70.29a2.65,2.65,0,0,0,2.27,3l.2,0a2.94,2.94,0,0,0,2.93-2.71,3.33,3.33,0,0,0-2.74-3.28,3.91,3.91,0,0,0-4,2.15c-.38.71.7,1.34,1.08.63.86-1.58,3.37-2.38,4.24-.29.95,2.29-3.11,3.23-2.75.46.11-.79-1.15-.79-1.25,0Z"/></g></g></g></g></svg>