<svg xmlns="http://www.w3.org/2000/svg" viewBox="0 0 53.56 53.56"><defs><style>.cls-1{fill:#ffde11;}.cls-2{fill:#1d1d1b;}</style></defs><title>o-mobile</title><g id="Warstwa_2" data-name="Warstwa 2"><g id="Warstwa_1-2" data-name="Warstwa 1"><g id="Warstwa_2-2" data-name="Warstwa 2"><g id="Warstwa_1-2-2" data-name="Warstwa 1-2"><path class="cls-1" d="M53.56,53.56H0V0H53.56ZM11.25,42.31H42.31V11.25H11.25Z"/><path class="cls-2" d="M13.61,15.63a2.42,2.42,0,0,0,2.45,2.78c1.84.06,3-1.67,3.75-3.09.47-.84-.83-1.6-1.3-.76a5.28,5.28,0,0,1-1.66,2.12c-.51.3-2,.28-1.8-.66s-1.26-1.35-1.45-.4Z"/><path class="cls-2" d="M22.45,17.62l14-.67a.75.75,0,1,0,0-1.5l-14,.67A.75.75,0,1,0,22.45,17.62Z"/><path class="cls-2" d="M12.45,22.31a8,8,0,0,0,5.5,2.47.75.75,0,1,0,0-1.5,6.46,6.46,0,0,1-4.44-2c-.67-.7-1.73.36-1.06,1.06Z"/><path class="cls-2" d="M14.61,25.3A4.1,4.1,0,0,1,16.87,22c.86-.44.1-1.74-.76-1.3a5.63,5.63,0,0,0-3,4.56c-.09,1,1.41,1,1.5,0Z"/><path class="cls-2" d="M21.45,24.06a120.08,120.08,0,0,1,17.5-.45.75.75,0,1,0,0-1.5,120.08,120.08,0,0,0-17.5.45C20.45,22.65,20.45,24.15,21.45,24.06Z"/><path class="cls-2" d="M21,30.68,37,30a.75.75,0,1,0,0-1.5l-16,.65A.75.75,0,1,0,21,30.68Z"/><path class="cls-2" d="M21.95,36.56h16.5a.75.75,0,0,0,0-1.5H21.95a.75.75,0,0,0,0,1.5Z"/><path class="cls-2" d="M14.4,29.62,16.8,33a.76.76,0,0,0,1.3,0,11.33,11.33,0,0,0,1.09-5.24.75.75,0,1,0-1.5,0,9.66,9.66,0,0,1-.91,4.48h1.3l-2.4-3.4c-.55-.78-1.85,0-1.3.76Z"/></g></g></g></g></svg>