<svg xmlns="http://www.w3.org/2000/svg" viewBox="0 0 200 200"><defs><style>.cls-1{fill:#bb2031;}.cls-2{fill:none;}</style></defs><title>Zasób 28</title><g id="Warstwa_2" data-name="Warstwa 2"><g id="Warstwa_1-2" data-name="Warstwa 1"><path fill="#bb2031" d="M74.65,68.5H92.94v62H84.81v11.18h28.46v-12.2h-7.11v-62h19.31v9.15h10.16V58.33H63.47V76.63H74.65ZM158.18,37H40.13c-2.06,0-4.1,1.25-4.1,3.28v118a4,4,0,0,0,4.1,3.68H158.18c2.06,0,2.85-1.65,2.85-3.68v-118C161,38.24,160.24,37,158.18,37ZM141.72,82.72H120.38V73.58h-9.15v48.78h9.15v24.39H79.73V123.37h6.1V74.59h-6.1v8.13H56.35V52.24h85.37Z"/><rect class="cls-2" width="200" height="200"/></g></g></svg>
