<svg xmlns="http://www.w3.org/2000/svg" viewBox="0 0 200 200"><defs><style>.cls-3{fill:none;}.cls-2{fill:#ea2d2e;}</style></defs><title>java</title><g id="Warstwa_2" data-name="Warstwa 2"><g id="Warstwa_1-2" data-name="Warstwa 1"><rect class="cls-3" width="200" height="200"/><path fill="#ea2d2e" d="M83.59,134.17c-19.22,5.37,11.69,16.46,36.17,6a45.34,45.34,0,0,1-6.88-3.36C102,138.85,96.9,139,87,137.88,78.82,136.95,83.59,134.17,83.59,134.17Zm33.24-10.47c-14.46,2.78-22.82,2.69-33.4,1.6-8.18-.85-2.83-4.81-2.83-4.81-21.17,7,11.78,15,41.37,6.34A14.76,14.76,0,0,1,116.83,123.69ZM128.16,63S85.37,73.72,105.81,97.27c6,6.94-1.58,13.19-1.58,13.19s15.31-7.9,8.28-17.8C105.94,83.43,100.91,78.84,128.16,63Zm10,81.26s3.53,2.91-3.89,5.17c-14.12,4.28-58.79,5.57-71.19.17-4.46-1.94,3.9-4.63,6.54-5.2a17.07,17.07,0,0,1,4.31-.49c-5-3.49-32.06,6.86-13.76,9.83C110.06,161.86,151.12,150.13,138.18,144.29ZM121,113.92a40.07,40.07,0,0,1,5.71-3.06s-9.44,1.69-18.84,2.48c-11.51,1-23.86,1.16-30.05.33-14.67-2,8-7.36,8-7.36s-8.82-.6-19.67,4.65C53.39,117.16,98,120,121,113.92Zm5.62,15.17a2.07,2.07,0,0,1-.47.62c31.32-8.23,19.8-29,4.83-23.76a4.26,4.26,0,0,0-2,1.55,17.73,17.73,0,0,1,2.68-.72C139.26,105.19,150.1,116.9,126.65,129.08Zm-26.46-23c-4.62-10.44-20.29-19.58,0-35.61,25.31-20,12.32-33,12.32-33,5.24,20.64-18.48,26.87-27,39.72C79.64,86,88.33,95.39,100.18,106.08Zm27.31,51.82c-19.21,3.62-42.91,3.2-57,.88,0,0,2.88,2.38,17.67,3.34,22.51,1.44,57.08-.8,57.9-11.45C146.1,150.66,144.52,154.69,127.49,157.9Z"/></g></g></svg>
