<svg xmlns="http://www.w3.org/2000/svg" viewBox="0 0 200 200"><defs><style>.cls-1{fill:#fd4f31;}.cls-2{fill:none;}</style></defs><title>Zasób 16</title><g id="Warstwa_2" data-name="Warstwa 2"><g id="Warstwa_1-2" data-name="Warstwa 1"><path fill="#fd4f31" d="M53.3,37.88a17.36,17.36,0,0,0-3.3.37A16,16,0,0,0,38.3,50.74l.54.93,3.63,6L45.66,63l2.94,4.9,4.57,7.62,3.12,5.2,4.54,7.57,5.56,9.29,4.82,8,.21.31a1,1,0,0,0,.61,0l6.35-1.52,10.3-2.46L94,100.64l10.41-2.49L115,95.63l5.32-1.27,10.3-2.45,11.21-2.67.61-.16-.17-.33-3.06-4.33-3-4.28-3.23-4.57-3.09-4.38-3.06-4.32-3.16-4.47L120.52,58l-1.63-2.31a4.24,4.24,0,0,1-.58-1.15,1.85,1.85,0,0,1,.63-2.16,3.53,3.53,0,0,1,1.29-.69c.66-.19,1.32-.38,2-.51,1.35-.25,2.7-.47,4.06-.7l4.59-.75,2.9-.49,3.94-.66,3.83-.64,4.18-.68,2.9-.49,3.31-.55L156,45.6a5.05,5.05,0,0,1,4.13.89l.71.5c.07-.16,0-.25-.08-.35A16.49,16.49,0,0,0,151,38.19a16.12,16.12,0,0,0-3.75-.3M91.73,162.12c-.06,0-.12-.45-.19-.56-1.49-2.54-3-5.26-4.46-7.81q-2.78-4.82-5.51-9.66-2.92-5.17-5.81-10.36l-5.5-9.86-3.31-6-.29-.46-.54.11-3.19.83-4.43,1.17-10,2.58c-3.38.88-6.89,1.76-10.27,2.63-.21.05.22.07-.77.11v21c.41.65.37.34.4.56.08.62.21,1.25.31,1.86a15.82,15.82,0,0,0,2.66,6.3,16.38,16.38,0,0,0,7.72,6,14.93,14.93,0,0,0,3.53.89l1.23.33"/><path fill="#fd4f31" d="M41.44,113.27l11.72-2.78,5.15-1.22c.86-.2,1.72-.4,2.57-.63s.85-.46.46-1.14c-.56-1-1.14-2-1.71-3l-5-8.65-5-8.65-5.11-8.8-4.38-7.53c-.63-1.08-1.4-2.17-2-3.26-.12-.2.42-.43-.58-.54v47s.45-.06.6-.1Zm120.23,33.59-4.59,1.64-10.46,3.75-5.81,2.09L129,158.57c-2.29.82-4.58,1.82-6.87,2.64-.63.23-1.24.91-1.87.91h26.27l.57-.32a14.7,14.7,0,0,0,2-.35,16.21,16.21,0,0,0,7.25-3.36,16.49,16.49,0,0,0,4-4.74,16.88,16.88,0,0,0,2-6,.68.68,0,0,0-.07-.58A1.49,1.49,0,0,0,161.68,146.87Zm-2.26-35.27-3.48-4.75-4.78-6.57c-.65-.89-1.3-1.77-1.94-2.67a.58.58,0,0,0-.7-.26l-.17,0-8.8,2.13-5.26,1.28L124,103.3l-10.17,2.47-10.57,2.56-10.4,2.53L82.81,113.3l-5.31,1.29a1.91,1.91,0,0,0-.82.29l.24.45L81.37,123l5.06,8.7L92,141.28c1.07,1.83,2.13,3.66,3.21,5.49q1.8,3,3.62,6.06c.37.6.78,1.18,1.2,1.74a3.61,3.61,0,0,0,1,.95,1.79,1.79,0,0,0,1.36.23,7,7,0,0,0,.73-.22l.88-.33,9.63-3.29,7.52-2.55,7.47-2.52,7.41-2.5,7.58-2.56,9.3-3.16,9-3a.92.92,0,0,0,.54-.29l0-.44q0-9.3,0-18.61a1.37,1.37,0,0,0-.29-.87c-.94-1.26-1.86-2.53-2.79-3.8Zm-.51-58.45a2.37,2.37,0,0,0-2.67-.88c-.47.12-1,.2-1.44.29l-4.74.86-6.94,1.26-5.5,1-7.36,1.29a6.84,6.84,0,0,0-.92.2c-.43.14-.56.41-.36.82a6.3,6.3,0,0,0,.58,1l4.58,6.28,6.32,8.65,5.35,7.32L150,86.91l.28.34,12.17-3,0-.63q0-12.66,0-25.32a1.45,1.45,0,0,0-.33-1c-1-1.29-2-2.6-3-3.9ZM162.18,94c-1.84.44-3.69.86-5.57,1.36.2.35,5.37,7.33,5.67,7.66l.19.1,0-.43V99.81c0-1.7,0-3.41,0-5.11a1,1,0,0,0-.08-.64Z"/><rect class="cls-2" width="200" height="200"/></g></g></svg>
