<svg xmlns="http://www.w3.org/2000/svg" viewBox="0 0 220.12 304.38"><title>Zasób 17</title><g fill="#d15252" data-name="Warstwa 2"><g fill="#d15252" data-name="Warstwa 1"><path fill="#d15252" d="M123.07,0a80,80,0,0,1,20.15,3.3A50.39,50.39,0,0,1,164,16.14c3.12,3.07,6.11,6.25,8.91,9.61,5,6,7.68,13,9.5,20.47a101.18,101.18,0,0,1,2.55,17.52,2.42,2.42,0,0,0,.83,1.69A111,111,0,0,1,218.11,126q7.49,41-12.88,77.54c-.33.6-.37.86.32,1.21a11.39,11.39,0,0,1,5.21,5.78,101.31,101.31,0,0,1,6,17.9c1,4.22.31,8.4-.73,12.53a32.84,32.84,0,0,1-1.69,4.76,12.76,12.76,0,0,1-10.69,8.21,51.94,51.94,0,0,1-17.09-.52,3.66,3.66,0,0,1-2.39-2.28,2.47,2.47,0,0,0-2.66-1.38c-4.24.09-8.43.44-12.38,2.19a1.27,1.27,0,0,0-.91,1.38c0,2.06-.89,3.43-3.21,4-1.79.46-2,1.51-2.1,3-.19,4,.82,7.72,1.7,11.5a34.23,34.23,0,0,1,1.31,9.34c-.15,3.2-1.91,5.11-4.73,6.25a27.81,27.81,0,0,1-5.94,1.55c-.81.13-1.17.4-1.13,1.32a23.42,23.42,0,0,0,.34,4.39c.59,2.52-.59,4.17-2.38,5.59a12.65,12.65,0,0,1-6.11,2.59A160,160,0,0,1,121,304.36,96.34,96.34,0,0,1,99.38,302c-4.61-1.12-4.6-1.12-6.2-5.54C90,287.67,87.61,278.67,85,269.75c-.19-.62-.36-.91-1.09-.83a36.24,36.24,0,0,1-15.77-2.31A84.19,84.19,0,0,1,58,262.22a104.58,104.58,0,0,0-13.41-6.05c-3.55-1.21-5.09-3.66-5.15-7.31-.08-5-.23-10-.62-15a2.39,2.39,0,0,0-.83-1.79A112.32,112.32,0,0,1,2.42,170.56a110.5,110.5,0,0,1-2.2-16.47c0-.2.07-.45-.22-.56v-13c.37-.17.2-.51.22-.78A113.4,113.4,0,0,1,39.61,60.63a1.69,1.69,0,0,0,.62-1.32,43.67,43.67,0,0,1,1.68-10.74c1.53-5,4.07-9.26,9-11.69a1,1,0,0,0,.56-.74A26.91,26.91,0,0,1,63.1,20.38C73.34,13.62,84,7.58,95.7,3.74A79.25,79.25,0,0,1,117.32,0ZM97,158.82a19.85,19.85,0,0,0,.81-3.19c.08-.56-.08-.82-.65-.87-1.1-.1-2.19-.23-3.28-.35-3.7-.4-7.51-.18-10.93-2.06-.41-.22-.52,0-.67.29-.49.8-.2,1.67.87,2.65.14.37.49.52.78.73a30.88,30.88,0,0,0,10.62,4.49C96.67,161.05,96.67,161,97,158.82ZM82.92,188.61h0c.14,4-.38,7.89-.58,11.83-.21,4.28-.09,8.58,0,12.86a8.23,8.23,0,0,0,.8,3.4c.17.36.33.85.82.75a21.94,21.94,0,0,0,3.65-.59c2.4-.24,4.81-.4,7.2-.73,4-.54,8-.86,12-1.24s7.87-.7,11.82-.87c4.17-.18,8.34-.58,12.52-.49a5.94,5.94,0,0,0,2-.32c-.28-.14-.46-.24-.66-.32a115.41,115.41,0,0,1-11.84-5.31c-1.56-.83-3.13-1.62-4.74-2.34a33.82,33.82,0,0,1-5.78-3.16A4.47,4.47,0,0,1,108,199.6a5.13,5.13,0,0,1,.91-4c.88-1.48,2.16-2.69,2.86-4.29.1-.23.32-.48.14-.71s-.46,0-.68.1a7.54,7.54,0,0,1-3.61.74,5.81,5.81,0,0,1-4.2-3.38c-1.43-2.64-2.09-5.55-3-8.38A78,78,0,0,1,97.55,168,2.27,2.27,0,0,0,96,166c-3.77-1.66-7.43-3.53-11.07-5.45S77.85,156.91,75,154a71.13,71.13,0,0,0-7-8,1.24,1.24,0,0,0-1.51-.21,99.74,99.74,0,0,0-13,6.45A215.49,215.49,0,0,0,31.2,167.58c-1.57,1.21-1.59,1.19-.8,2.93.18.4.34.81.51,1.22a163.15,163.15,0,0,1,10.5,35.44c1.35,7.23,2.31,14.52,3,21.86.46,5.15.82,10.3,1,15.46.12,3.26.06,3.26,3,4.52a1.8,1.8,0,0,0,.32.07c1.61,1,3.35,1.81,5,2.72,6.39,3.46,12.82,6.81,19.86,8.8a50.38,50.38,0,0,0,10.77,1.91c.79,0,1.07-.22.95-1-.82-5.34-1.5-10.7-2.23-16-.77-5.72-1.48-11.44-2-17.18-.12-1.24-.3-2.47-.35-3.71a1.07,1.07,0,0,0-.91-1.14,15.34,15.34,0,0,0-4.36-.44c-2.68,0-5.34.43-8,.26-.38,0-.93.24-1.07-.44.27-1.8,1.45-2.6,3.13-2.87a11,11,0,0,0,2-.5,2,2,0,0,0,.83-3.34c-.38-.45-.78-.88-1.12-1.35a3,3,0,0,1-.61-2.38c.13-.67.41-1,1.11-.55.95.63,1.91,1.22,2.84,1.88a19.54,19.54,0,0,0,3.4,2c.6.26,1,.25,1.2-.51a19.32,19.32,0,0,0,.87-4.84,81.56,81.56,0,0,0-.24-8.9c-.19-1.85-.46-3.7-.59-5.55a15.25,15.25,0,0,1,.89-7.45,1.68,1.68,0,0,1,1.38-1.13c.75-.07.94.58,1.21,1.09ZM64.2,33.11a22.34,22.34,0,0,1,6.44,0,4.11,4.11,0,0,0,3.63-1.7,21.87,21.87,0,0,0,2.8-4.06c1.89-3.49,4.12-6.66,7.56-8.81a3.59,3.59,0,0,0,1.53-1.33,11.22,11.22,0,0,1,4-2.36.57.57,0,0,0,.19-.11c.5-.37.94-.88.72-1.48a1.43,1.43,0,0,0-1.6-.9,4.6,4.6,0,0,0-.74.19,68.45,68.45,0,0,0-18.54,8.69c-4.84,3.22-9.19,7-12.29,12-.44.72-.81,1.48-1.31,2.42A39.63,39.63,0,0,0,64.2,33.11Zm84.87,172a62,62,0,0,0,1.44-10.21c.31-4.31.59-8.62.58-12.94a24.34,24.34,0,0,0,.25-3.72c0-.29,0-.51-.38-.52-2.31-.05-4.09-1.31-5.81-2.63a5.15,5.15,0,0,0-6.4-.46,4.31,4.31,0,0,1-3.23.85,2.1,2.1,0,0,0-2.61,1.1,2.72,2.72,0,0,1-.51.57c-.47.4-.39.75,0,1.2a54.78,54.78,0,0,1,6.56,10.9c2.78,5.78,5,11.8,7.9,17.52a11.05,11.05,0,0,0,1.26,2.23A29.73,29.73,0,0,0,149.07,205.14Zm25.32,34.4a55.05,55.05,0,0,0-.62-7,40,40,0,0,0-3.52-12.43,1.66,1.66,0,0,0-1.52-1,44.46,44.46,0,0,0-4.73.17c-.45,0-.54.16-.48.6.18,1.2.27,2.41.44,3.61q1.38,9.37,2.8,18.73c.16,1.56.37,3.12.47,4.69.06.88.39,1.07,1.24,1,2-.24,3.74-1.25,5.66-1.7.45-.11.4-.47.39-.79C174.49,243.41,174.44,241.48,174.4,239.54Zm-12.74-93.73a6.4,6.4,0,0,1,4.31,2.52c.41.55.81,1.12,1.21,1.67.43,1.24,1,2.46,1.29,3.73a38.93,38.93,0,0,1,1.15,12.38,26.17,26.17,0,0,1-1.68,8.46,2.22,2.22,0,0,0,.39,2.51c.81,1,1.65,2,2.5,2.92a1.47,1.47,0,0,1,.17,2.1c-.58.8-.94,1.74-1.45,2.59q-7.37,12.19-14.76,24.36c-.9,1.49-1.75,3-2.63,4.5a21.75,21.75,0,0,1,8.06-1.12,52.27,52.27,0,0,0,5.27-.24c3-.24,5.26-1.46,6.32-4.44.22-.62.54-1.21.78-1.82a264.65,264.65,0,0,0,10.49-29.73c1.14-4.2,2.1-8.44,2.85-12.73.61-2.39.76-4.73-1-6.76a14.14,14.14,0,0,0-2.18-2.17,81.8,81.8,0,0,1-9.82-8.79,76.57,76.57,0,0,0-5.85-5.49c-.58-.49-.92-.52-1.43.07a21.17,21.17,0,0,1-2.48,2.33,14.19,14.19,0,0,0-2.68,2.25,2.14,2.14,0,0,0-1.37,1.48C159.95,146,160.87,146.21,161.66,145.81Zm-13.44,84c-.08,3.37.26,6.73.38,10.1.11,3.11.37,6.21.53,9.32.06,1.2.12,2.41.21,3.61.06.85.33,1.45,1.41,1.25,3-.56,6-1.07,9-1.59.72-.13,1-.54.84-1.24-.62-3.87-.74-7.78-1.05-11.68-.33-4.15-.6-8.31-1.21-12.44a52.11,52.11,0,0,0-1.22-6.24c-.13-.47-.24-.81-.82-.81a25.46,25.46,0,0,0-7.3.69.88.88,0,0,0-.78,1C148.21,224.47,148.21,227.15,148.22,229.83ZM48.79,70.61a16.54,16.54,0,0,1,6.71-1.47,15.08,15.08,0,0,1,9.55,3.42A12.16,12.16,0,0,1,69.72,81c0,.46-.11,1.06.42,1.26a1.51,1.51,0,0,0,1.58-.54A2.33,2.33,0,0,0,72.33,80a11.52,11.52,0,0,0-.63-3.44,31.57,31.57,0,0,1-1.55-6.95,58.23,58.23,0,0,1,1-13.12,60.51,60.51,0,0,0,1.19-13.21,7.24,7.24,0,0,0-.48-2.67,6.94,6.94,0,0,0-.53-2.66c-.15-.64-.46-.75-1.09-.69A30.14,30.14,0,0,0,56.41,42c-5.18,3.34-8.68,7.76-9.34,14.15a66.84,66.84,0,0,0,0,12.53,9.27,9.27,0,0,0,.34,2.85Zm128.5,146.62c-.49.11-.79.52-1.19.76a1.58,1.58,0,0,0-.75,2.09,43.1,43.1,0,0,1,1.09,4.82c1,5.53,1.52,11.13,2,16.72.32,3.73.31,3.68,4,3.53,4.55-.18,9.08-.85,13.64-.55a15.14,15.14,0,0,1,5.19,1.14c-4.5,1.45-9.16,1.29-13.43,3.43a9.1,9.1,0,0,0,1,.37,26.83,26.83,0,0,0,15.38-1c3.8-1.46,5.73-4.78,6.76-8.59,1.39-5.1-.23-9.93-1.49-14.77a47.31,47.31,0,0,0-3.41-11.2,9.72,9.72,0,0,0-5.33-4.84,5.45,5.45,0,0,0-5.26.39,26.33,26.33,0,0,1-5.37,2.48c-2.11.73-4.23,1.42-6.32,2.19A25.47,25.47,0,0,0,177.29,217.23ZM124.59,297.9A79,79,0,0,0,148.53,295c.78-.22.62-.67.53-1.15a122.33,122.33,0,0,1-1.75-19.06c-.17-4.85-.21-9.7-.55-14.53-.63-8.94-1.48-17.85-1.7-26.82a94.1,94.1,0,0,0-1-11.84c-.06-.42-.08-.76-.64-.84a38.57,38.57,0,0,0-4-.61,89.27,89.27,0,0,0-14.16-1,182.89,182.89,0,0,0-21.55,1.16q-9.69,1.06-19.28,2.79c-.63.11-.84.28-.76,1,1.27,11,2.76,21.92,4.83,32.78a302.93,302.93,0,0,0,9.25,36.31,1.21,1.21,0,0,0,.94.9c2.82.82,5.66,1.52,8.55,2.07A96.13,96.13,0,0,0,124.59,297.9ZM170,34c.06-.36-.18-.53-.33-.72-2.19-2.81-4.33-5.67-6.6-8.41-2.89-3.49-6-6.79-10-9A69.47,69.47,0,0,0,121,6.73a31.5,31.5,0,0,0-14.43,2.47A92.88,92.88,0,0,0,84.93,22.77a37.72,37.72,0,0,0-9.8,11.92A1.73,1.73,0,0,0,75,36.23a23,23,0,0,1,1.36,10.6A107.52,107.52,0,0,1,74,59.92c-1.15,5.37-1.37,10.67.3,16A46.15,46.15,0,0,1,76,83.65a2.48,2.48,0,0,1-1.42,2.77,9.34,9.34,0,0,1-1.71.74,18.88,18.88,0,0,1-5.55.68c-.85,0-1.19-.23-1.35-1.1a21.54,21.54,0,0,0-2.84-7.81A7.89,7.89,0,0,0,58,75.2c-6.75-1.39-13.75,3.55-15.21,10.72a19.91,19.91,0,0,0,1.36,11.32c1.7,4.39,4.12,8.3,8.25,10.84,2.82,1.74,7.09,2.77,10.56-.59a9.67,9.67,0,0,1,1.14-.87,6.81,6.81,0,0,1,2.73-1.11.82.82,0,0,1,1.07.64,3.61,3.61,0,0,1-.73,3.7c-.78.92-1.66,1.76-2.48,2.66a3.79,3.79,0,0,0-1.08,3.32A72.68,72.68,0,0,0,73.3,141.5a16.73,16.73,0,0,0,8.62,7c5.43,2.12,11.15,2.44,16.86,2.91a.61.61,0,0,0,.64-.3c1.36-2.17,3.54-2.72,5.87-2.92a19.1,19.1,0,0,1,6,.4c0-.46-.35-.48-.55-.59a25.13,25.13,0,0,1-4.49-3,87.11,87.11,0,0,1-14-14.95,21.53,21.53,0,0,1-3.56-7,8.51,8.51,0,0,1-.49-3.66c2.61,3.6,5.06,7,7.69,10.34,5.25,6.6,11.32,12.19,19,15.95,6.71,3.28,13.65,4.62,21,3.18a55.21,55.21,0,0,0,17.8-7.07,26,26,0,0,0,8.42-7.3c2.2-3.17,4.44-6.31,6.41-9.62,8-13.41,11.39-28.12,12.19-43.55A158.41,158.41,0,0,0,180.55,65a85.79,85.79,0,0,0-1.25-12c-1.13-5.83-4.26-10.08-9.74-12.46-3.83-1.66-7.6-1.89-11.13.84,0,0-.13,0-.2,0a6,6,0,0,1,2.7-6.27,10,10,0,0,1,7-1.41C168.62,33.77,169.33,33.91,170,34ZM37.63,222.72l.29-.1c-.29-2.28-.54-4.57-.87-6.85a97.51,97.51,0,0,0-3.66-16.85c-1.81-5.43-4.13-10.68-5.95-16.1-1.42-4.24-3.24-8.35-4.18-12.74-1-4.61.07-7,4.17-9.31a61.67,61.67,0,0,0,6-3.21c7.19-5.13,14.93-9.35,22.54-13.8,2.25-1.32,4.57-2.5,6.7-4,1.88-1.34,2.25-2.42,1.57-4.64A23.33,23.33,0,0,0,61.48,130a27.77,27.77,0,0,1-3.92-11.69c-.1-.91-.35-1.39-1.35-1.6a20.3,20.3,0,0,1-13.12-9,35.93,35.93,0,0,1-5.75-24.56c.31-2.61.71-5.33,2.52-7.4,2-2.25,1.5-4.62.82-7.42-23,22.4-34.64,49.38-34,81.25C7.3,178,17.94,202.35,37.63,222.72ZM185.28,74.43c-.08,1.33-.19,2.38-.21,3.43a119.42,119.42,0,0,1-1,12.51,135.38,135.38,0,0,1-4.58,22.17c-1.28,4.29-2.58,8.58-4.93,12.45a47.44,47.44,0,0,0-3.15,5.8,3.7,3.7,0,0,0,.76,4.33,83.82,83.82,0,0,0,7.29,6.71c3.47,3.06,7.06,6,10.33,9.28a9.09,9.09,0,0,1,2.59,8.56,86.09,86.09,0,0,1-2.7,9.63c-4,13.31-8.08,26.61-13,39.63-.12.31-.49.71-.13,1s.6-.15.9-.27l.2-.1c6.23-3,12.57-5.71,19.57-6.36.55-.05.74-.38,1-.76a104.66,104.66,0,0,0,9.13-19.4,107.5,107.5,0,0,0,6-40.9,109.45,109.45,0,0,0-2.39-18.42A106,106,0,0,0,193.2,84.1,100.24,100.24,0,0,0,185.28,74.43Zm-61.74,92.65a12.88,12.88,0,0,1,3.05-1,20.26,20.26,0,0,0,4-1.2c.67-.3.59-.84.61-1.39s-.5-.56-.85-.61a13.09,13.09,0,0,1-5.05-2.07A56,56,0,0,0,107,153.6a3.83,3.83,0,0,0-4.18,1.56,6.89,6.89,0,0,0-1.13,2.61,38.23,38.23,0,0,0-.07,14.34c.73,4.52,3,8.58,4.28,12.93a1.88,1.88,0,0,0,2.47,1.3,35.79,35.79,0,0,0,13.24-5.17c2.8-1.84,5.12-4.31,7.86-6.2a4.59,4.59,0,0,0,2.28-4.74c-.08-.67-.19-1-.84-1.32A24.55,24.55,0,0,0,123.54,167.08Zm19.86,43.38c-2.24-5.35-4.34-10.5-6.7-15.54a75.24,75.24,0,0,0-7.81-13.37c-.37-.49-.6-.66-1.19-.25-2.48,1.71-5,3.3-7.37,5.21-3.18,2.6-5.8,5.6-7,9.65-.2.68-.06.94.53,1.27a177.25,177.25,0,0,0,19.26,9.37A97.2,97.2,0,0,0,143.4,210.46ZM152,164.24c-1.83.38-3.43.33-5,.78a1.87,1.87,0,0,0-1.52,2.08,28.25,28.25,0,0,0,.16,2.85c.09.62-.56,1.39.15,1.82a6.62,6.62,0,0,0,1.9.52A86.13,86.13,0,0,0,162,174.22c2.37.16,2.5.05,3.2-2.25q.1-.31.17-.64a22.9,22.9,0,0,0,.21-7.88,34.79,34.79,0,0,0-1.76-8.6c-1-2.68-2.76-3.58-5.56-3a16.87,16.87,0,0,0-5.33,2.3c-2.4,1.5-4.74,3.07-7.12,4.61-.58.38-1.45.57-1.72,1.09s.43,1.24.6,1.91a6.46,6.46,0,0,1,.22.85c.08.78.47.9,1.2.76A11.09,11.09,0,0,1,152,164.24Zm-1.68,45.64.29.11c1.13-1.57,2.29-3.13,3.39-4.72,4.65-6.71,8.61-13.84,12.72-20.87,1.12-1.92,1.11-1.92-.34-3.64a9.86,9.86,0,0,0-11-3c-.52.2-.83.41-.87,1.06-.26,3.88-.42,7.76-.81,11.64-.43,4.19-.89,8.38-1.68,12.52C151.57,205.29,151,207.59,150.36,209.87ZM150,265.69c.3,5.6.61,11.06.87,16.52,0,.84.29,1.09,1.16,1.07a24.87,24.87,0,0,0,7.47-1.7,1,1,0,0,0,.81-1.18,35.61,35.61,0,0,0-.57-6.79c-.84-4.5-1.76-9-2.62-13.48-.3-1.55-.39-1.63-2-1.32a37.17,37.17,0,0,1-4.72,1c-.53,0-.43.41-.43.72C150,262.3,150,264.06,150,265.69Zm-2.7-113.56c-.68.08-1.08.09-1.47.18L137.91,154c-3.82.84-7.65,1.45-11.47,0a.69.69,0,0,0-.87.33c4.33,3.56,8.35,4.22,13.5,4a1.68,1.68,0,0,0,1-.43ZM134,164.47a17.41,17.41,0,0,0,.72,4.43c.39,1.74.39,1.74,2.12,2,2.46.34,4.41-1.27,4.84-4a4.44,4.44,0,0,0-3.45-5.11,5.66,5.66,0,0,0-3.92,1.18C133.76,163.32,134.14,164,134,164.47Z"/><path fill="#d15252" d="M82.72,188.4l.2.22Z"/><path fill="#d15252" d="M137.29,97.61a9.87,9.87,0,0,1,1,3.18c.84,3.69,1.83,4.82,6.56,4.56,4.46-.25,8.43-2.11,12.38-4,1.76-.83,3.51-1.67,5.29-2.45a1.81,1.81,0,0,0,.93-.86c1.46-2.68,1.33-4.79-.59-7.14-1.67-2-3.46-4-5.15-6-3.81-4.58-7.49-9.25-9.8-14.82a23.74,23.74,0,0,1-2-9.19c0-.5,0-.93.62-1.11a1.08,1.08,0,0,1,1.32.51,3.44,3.44,0,0,1,.52,1.2c.55,3,2.11,5.46,3.68,7.94a127,127,0,0,0,14.26,17.9,15.35,15.35,0,0,0,2.22,2c1.61,1.18,1.8,2.73,1.39,4.51-.45,1.93-1.49,3.68-1.64,5.69,0,.25-.24.35-.42.47-5.09,3.29-10.3,6.37-16.22,8a36.74,36.74,0,0,1-12.11,1.2,2.34,2.34,0,0,1-1.92-1.06,9,9,0,0,1-1.12-9,9.67,9.67,0,0,1,.53-1C137.13,98,137.17,97.89,137.29,97.61Z"/><path fill="#d15252" d="M139.28,132.5a35,35,0,0,1-7.17-.76,13.13,13.13,0,0,1-7.12-4.31,38,38,0,0,1-2.88-3.76,26.06,26.06,0,0,0-3.86-4.65c-.57-.52-1.41-1.15-1-2s1.52-.7,2.38-.77c.36,0,.51.16.64.45,2.44,5.47,7.1,7.86,12.61,9a63,63,0,0,0,14.25,1c2.39,0,4.77-.07,7.16-.14.66,0,.9.1.52.78a6.9,6.9,0,0,1-4,3.55A41.73,41.73,0,0,1,139.28,132.5Z"/><path fill="#d15252" d="M121.57,109.56c7.11,3.08,14.54,3.49,22,3.64,2,0,4,0,6.06,0,.62,0,.91.14,1,.81a55,55,0,0,1,.35,5.61c0,.51-.14.73-.67.74-7.9.17-15.64-.53-22.77-4.33a13.4,13.4,0,0,1-5.36-4.94A3.66,3.66,0,0,1,121.57,109.56Z"/><path fill="#d15252" d="M122,55.39a75.56,75.56,0,0,1,3.1,6.93,16.68,16.68,0,0,0,4.54,6.27c1.94,1.62,2.93,3.68,2,6.16a6.49,6.49,0,0,1-4.37,3.77A17.67,17.67,0,0,1,115.78,78c-2.53-1-3.33-2.82-2.37-4.93a1,1,0,0,1,1.26-.74c2,.35,4,.71,6.08,1a8.54,8.54,0,0,0,5.78-.74c.67-.4.81-.71.36-1.44a38.2,38.2,0,0,1-4.78-10.46A10.31,10.31,0,0,1,122,55.39Z"/><path fill="#d15252" d="M116.94,40.78a6.06,6.06,0,0,1-.13.81c-.19.69-.42,1-1.37.86-7.37-1.33-12.79,1.32-16.9,8.2a38.47,38.47,0,0,0-1.84,3.5c-.27.58-.55.57-1,.3a2.84,2.84,0,0,1-1.19-3,13.21,13.21,0,0,1,2.22-6.25c2.86-4.21,6.49-7.45,11.51-8.85a7.72,7.72,0,0,1,7,1.21A3.73,3.73,0,0,1,116.94,40.78Z"/><path fill="#d15252" d="M173.12,105c-2,4.22-4.41,8-8,10.9a18.35,18.35,0,0,1-10.52,4c-.77,0-1-.18-1.06-.94a51.09,51.09,0,0,1,0-5.28c0-.44,0-.85.68-.91,5.19-.55,9.74-2.81,14.22-5.27C170,106.58,171.55,105.78,173.12,105Z"/><path fill="#d15252" d="M168.22,76.16c-3.18,0-5.2-1.71-5.29-4.42a.83.83,0,0,1,.73-1,24.42,24.42,0,0,1,4.69-.56,16.33,16.33,0,0,0,4.66-.73c.6-.22.75-.5.49-1.14a39.76,39.76,0,0,1-2.9-8.63,18.06,18.06,0,0,1-.28-3.73c0-.25-.07-.58.24-.67s.46.27.58.53c1.25,2.65,2.48,5.31,3.73,8a43.75,43.75,0,0,0,3.38,6,1.18,1.18,0,0,1-.06,1.65,13.41,13.41,0,0,1-8,4.44C169.53,76,168.87,76.07,168.22,76.16Z"/><path fill="#d15252" d="M48.1,86.67c.07-.34.11-.62.17-.9,1.12-5.06,5.51-7.06,10-4.43,4.06,2.39,5.7,6.14,5.56,10.74,0,.55-.1,1.1-.17,1.64a2,2,0,0,1-.17.43,4.2,4.2,0,0,1-1.67-2c-.68-1.3-1.27-2.64-2-3.92-.59-1.06-1.37-1.94-2.77-1.77s-1.93,1.22-2.31,2.36a16.34,16.34,0,0,0-.65,4.89c0,1.8,0,3.59,0,5.5a3.41,3.41,0,0,1-1.35-1.9,17,17,0,0,1-.29-11.63c.11-.34.59-.75.16-1.08a1.59,1.59,0,0,0-1.37-.2,4.08,4.08,0,0,0-1.75,1.1A5.27,5.27,0,0,1,48.1,86.67Z"/><path fill="#d15252" d="M181.19,224.11c4.15-5.29,9.84-6.46,15.88-6.79-3.38,1.09-6.17,3.25-9.21,5A11.52,11.52,0,0,1,181.19,224.11Z"/><path fill="#d15252" d="M184.24,235.08a5.4,5.4,0,0,1,3.29-1.55c5.06-.8,9.89.2,14.63,1.89A158.28,158.28,0,0,1,184.24,235.08Z"/><path fill="#d15252" d="M200.34,227.09c-5.2.55-10.39,1.25-15.81.9a3.91,3.91,0,0,1,2.17-1.69,17.23,17.23,0,0,1,8.05-.58,25.24,25.24,0,0,1,5.06,1C200,226.8,200.28,226.77,200.34,227.09Z"/><path fill="#d15252" d="M143.81,184.66a2.22,2.22,0,1,1,2.2-2.24A2.18,2.18,0,0,1,143.81,184.66Z"/><path fill="#d15252" d="M146.07,195a2.2,2.2,0,0,1-2.28-2.17,2.25,2.25,0,0,1,2.19-2.27,2.2,2.2,0,0,1,2.26,2.18A2.16,2.16,0,0,1,146.07,195Z"/></g></g></svg>
