<svg xmlns="http://www.w3.org/2000/svg" viewBox="0 0 200 200"><defs><style>.cls-1{fill:#d15252;}.cls-2{fill:none;}</style></defs><title>Zasób 13</title><g id="Warstwa_2" data-name="Warstwa 2"><g id="Warstwa_1-2" data-name="Warstwa 1"><path fill="#d15252" d="M105.37,35a32.85,32.85,0,0,1,8.27,1.36,20.69,20.69,0,0,1,8.53,5.27c1.28,1.26,2.51,2.57,3.66,3.95a20.17,20.17,0,0,1,3.9,8.41,41.55,41.55,0,0,1,1,7.19,1,1,0,0,0,.34.69A45.58,45.58,0,0,1,144.4,86.71a46.41,46.41,0,0,1-5.29,31.84c-.14.25-.15.35.13.5a4.68,4.68,0,0,1,2.14,2.37,41.6,41.6,0,0,1,2.46,7.35,10.72,10.72,0,0,1-.3,5.15,13.49,13.49,0,0,1-.69,2,5.24,5.24,0,0,1-4.39,3.37,21.33,21.33,0,0,1-7-.21,1.5,1.5,0,0,1-1-.94,1,1,0,0,0-1.09-.57,13,13,0,0,0-5.08.9.52.52,0,0,0-.37.57,1.52,1.52,0,0,1-1.32,1.64c-.74.19-.82.62-.86,1.23a17,17,0,0,0,.7,4.72,14.06,14.06,0,0,1,.54,3.84A2.75,2.75,0,0,1,121,153a11.42,11.42,0,0,1-2.44.64c-.33.05-.48.16-.46.54a9.62,9.62,0,0,0,.14,1.8,2.13,2.13,0,0,1-1,2.3,5.19,5.19,0,0,1-2.51,1.06,65.71,65.71,0,0,1-10.25.62,39.56,39.56,0,0,1-8.88-1c-1.89-.46-1.89-.46-2.55-2.28-1.31-3.61-2.29-7.31-3.36-11-.08-.25-.15-.37-.45-.34a14.88,14.88,0,0,1-6.48-.95,34.57,34.57,0,0,1-4.16-1.8,43,43,0,0,0-5.51-2.48,2.9,2.9,0,0,1-2.11-3c0-2.05-.09-4.11-.25-6.16a1,1,0,0,0-.34-.74A46.13,46.13,0,0,1,55.82,105a45.38,45.38,0,0,1-.9-6.76c0-.08,0-.18-.09-.23V92.67c.15-.07.08-.21.09-.32A46.57,46.57,0,0,1,71.1,59.86a.69.69,0,0,0,.25-.54A17.93,17.93,0,0,1,72,54.91a7.32,7.32,0,0,1,3.7-4.8.41.41,0,0,0,.23-.3,11.05,11.05,0,0,1,4.78-6.47A56.43,56.43,0,0,1,94.13,36.5,32.55,32.55,0,0,1,103,35ZM94.67,100.19A8.15,8.15,0,0,0,95,98.88c0-.23,0-.34-.27-.36l-1.35-.14c-1.52-.16-3.08-.07-4.49-.85-.17-.09-.21,0-.28.12-.2.33-.08.69.36,1.09.06.15.2.21.32.3a12.68,12.68,0,0,0,4.36,1.84C94.53,101.1,94.53,101.08,94.67,100.19Zm-5.78,12.23h0c.06,1.64-.16,3.24-.24,4.86s0,3.52,0,5.28A3.38,3.38,0,0,0,89,124c.07.15.14.35.34.31a9,9,0,0,0,1.5-.24c1-.1,2-.16,3-.3,1.64-.22,3.29-.35,4.93-.51s3.23-.29,4.85-.36,3.42-.24,5.14-.2a2.44,2.44,0,0,0,.82-.13l-.27-.13a47.4,47.4,0,0,1-4.86-2.18c-.64-.34-1.29-.67-1.95-1a13.89,13.89,0,0,1-2.37-1.3,1.84,1.84,0,0,1-.87-1,2.11,2.11,0,0,1,.37-1.64,16.84,16.84,0,0,0,1.17-1.76c0-.09.13-.2.06-.29s-.19,0-.28,0a3.1,3.1,0,0,1-1.48.3,2.39,2.39,0,0,1-1.72-1.39,19.63,19.63,0,0,1-1.23-3.44,32,32,0,0,1-1.18-4.8.93.93,0,0,0-.64-.82c-1.55-.68-3.05-1.45-4.55-2.24a15.45,15.45,0,0,1-4.08-2.69,29.21,29.21,0,0,0-2.87-3.29.51.51,0,0,0-.62-.09,41,41,0,0,0-5.34,2.65,88.49,88.49,0,0,0-9.15,6.3c-.64.5-.65.49-.33,1.2.07.16.14.33.21.5A67,67,0,0,1,71.84,120c.55,3,.95,6,1.23,9,.19,2.11.34,4.23.41,6.35,0,1.34,0,1.34,1.23,1.86l.13,0c.66.41,1.38.74,2.05,1.12A40.31,40.31,0,0,0,85.05,142a20.69,20.69,0,0,0,4.42.78c.32,0,.44-.09.39-.41-.34-2.19-.62-4.39-.92-6.57-.32-2.35-.61-4.7-.82-7.06,0-.51-.12-1-.14-1.52a.44.44,0,0,0-.37-.47,6.3,6.3,0,0,0-1.79-.18c-1.1,0-2.19.18-3.29.11-.16,0-.38.1-.44-.18a1.35,1.35,0,0,1,1.29-1.18,4.52,4.52,0,0,0,.82-.21.82.82,0,0,0,.34-1.37c-.16-.18-.32-.36-.46-.55a1.23,1.23,0,0,1-.25-1c.05-.28.17-.41.46-.23s.78.5,1.17.77a8,8,0,0,0,1.4.82c.25.11.41.1.49-.21a7.93,7.93,0,0,0,.36-2,33.49,33.49,0,0,0-.1-3.65c-.08-.76-.19-1.52-.24-2.28a6.26,6.26,0,0,1,.37-3.06.69.69,0,0,1,.57-.46c.31,0,.39.24.5.45ZM81.2,48.56a9.17,9.17,0,0,1,2.64,0,1.69,1.69,0,0,0,1.49-.7,9,9,0,0,0,1.15-1.67,9.16,9.16,0,0,1,3.1-3.62,1.47,1.47,0,0,0,.63-.55,4.61,4.61,0,0,1,1.64-1l.08,0c.21-.15.39-.36.3-.61a.59.59,0,0,0-.66-.37l-.3.08a28.11,28.11,0,0,0-7.61,3.57,16.42,16.42,0,0,0-5,4.93c-.18.3-.33.61-.54,1A16.27,16.27,0,0,0,81.2,48.56ZM116,119.2a25.46,25.46,0,0,0,.59-4.19c.13-1.77.24-3.54.24-5.31a10,10,0,0,0,.1-1.53c0-.12,0-.21-.16-.21a4.08,4.08,0,0,1-2.39-1.08,2.11,2.11,0,0,0-2.63-.19,1.77,1.77,0,0,1-1.33.35.86.86,0,0,0-1.07.45,1.12,1.12,0,0,1-.21.23c-.19.16-.16.31,0,.49a22.5,22.5,0,0,1,2.69,4.48c1.14,2.37,2.05,4.85,3.24,7.19a4.54,4.54,0,0,0,.52.92,12.21,12.21,0,0,0,.39-1.59Zm10.4,14.13a22.61,22.61,0,0,0-.25-2.87,16.43,16.43,0,0,0-1.45-5.1.68.68,0,0,0-.62-.41,18.26,18.26,0,0,0-1.94.07c-.18,0-.22.07-.2.25.07.49.11,1,.18,1.48q.57,3.85,1.15,7.69c.07.64.15,1.28.19,1.93,0,.36.16.44.51.41a21.35,21.35,0,0,0,2.32-.7c.18,0,.16-.19.16-.32,0-.81,0-1.61,0-2.4Zm-5.23-38.49a2.63,2.63,0,0,1,1.77,1l.5.69a15,15,0,0,1,.53,1.53,16,16,0,0,1,.47,5.08,10.75,10.75,0,0,1-.69,3.47.91.91,0,0,0,.16,1c.33.41.68.82,1,1.2a.6.6,0,0,1,.08.85h0c-.24.33-.39.71-.6,1.06l-6.06,10c-.37.61-.72,1.23-1.08,1.85a8.93,8.93,0,0,1,3.31-.46,21.46,21.46,0,0,0,2.16-.1,2.69,2.69,0,0,0,2.6-1.82c.09-.25.22-.5.32-.75A108.68,108.68,0,0,0,130,107.31c.47-1.72.86-3.47,1.17-5.23a2.85,2.85,0,0,0-.41-2.78,5.81,5.81,0,0,0-.9-.89,33.59,33.59,0,0,1-4-3.61,31.44,31.44,0,0,0-2.4-2.25c-.24-.2-.38-.21-.59,0a8.69,8.69,0,0,1-1,1,5.83,5.83,0,0,0-1.1.92.88.88,0,0,0-.56.61c.34-.15.72-.06,1-.23Zm-5.52,34.5c0,1.38.11,2.76.16,4.15s.15,2.55.22,3.83c0,.49,0,1,.09,1.48s.14.6.58.51c1.23-.23,2.46-.44,3.7-.65a.37.37,0,0,0,.34-.51c-.25-1.59-.3-3.19-.43-4.8s-.25-3.41-.5-5.11a21.4,21.4,0,0,0-.5-2.56c-.05-.19-.1-.33-.34-.33a10.46,10.46,0,0,0-3,.28.36.36,0,0,0-.32.4h0c0,1.12,0,2.22,0,3.32ZM74.87,64a6.79,6.79,0,0,1,2.76-.6,6.19,6.19,0,0,1,3.92,1.4,5,5,0,0,1,1.92,3.47c0,.19,0,.44.17.52a.62.62,0,0,0,.65-.22,1,1,0,0,0,.25-.71,4.73,4.73,0,0,0-.26-1.41,13,13,0,0,1-.64-2.85A23.91,23.91,0,0,1,84,58.16a24.85,24.85,0,0,0,.49-5.42,3,3,0,0,0-.2-1.1,2.85,2.85,0,0,0-.22-1.09c-.06-.26-.19-.31-.45-.28A12.38,12.38,0,0,0,78,52.21,7.64,7.64,0,0,0,74.16,58a27.45,27.45,0,0,0,0,5.15,3.81,3.81,0,0,0,.14,1.17Zm52.77,60.21c-.2,0-.32.21-.49.31a.65.65,0,0,0-.31.86,17.7,17.7,0,0,1,.45,2c.41,2.27.62,4.57.82,6.87.13,1.53.13,1.51,1.64,1.45a53.18,53.18,0,0,1,5.6-.23,6.22,6.22,0,0,1,2.13.47c-1.85.6-3.76.53-5.52,1.41l.41.15a11,11,0,0,0,6.32-.41,4.78,4.78,0,0,0,2.78-3.53c.57-2.09-.09-4.08-.61-6.07a19.43,19.43,0,0,0-1.4-4.6,4,4,0,0,0-2.19-2,2.24,2.24,0,0,0-2.16.16,10.81,10.81,0,0,1-2.21,1c-.87.3-1.74.58-2.6.9a10.46,10.46,0,0,0-2.67,1.24ZM106,157.3a32.44,32.44,0,0,0,9.83-1.19c.32-.09.25-.28.22-.47a50.24,50.24,0,0,1-.72-7.83c-.07-2-.09-4-.23-6-.26-3.67-.61-7.33-.7-11A38.64,38.64,0,0,0,114,126c0-.17,0-.31-.26-.34a15.84,15.84,0,0,0-1.64-.25,36.66,36.66,0,0,0-5.81-.41,75.11,75.11,0,0,0-8.85.48q-4,.44-7.92,1.15c-.26,0-.34.11-.31.41.52,4.52,1.13,9,2,13.46A124.4,124.4,0,0,0,95,155.37a.5.5,0,0,0,.39.37c1.16.34,2.32.62,3.51.85A39.48,39.48,0,0,0,106,157.3ZM124.64,48.93c0-.15-.07-.22-.14-.3-.9-1.15-1.78-2.33-2.71-3.45a14.76,14.76,0,0,0-4.11-3.7,28.53,28.53,0,0,0-13.17-3.75,12.94,12.94,0,0,0-5.93,1,38.14,38.14,0,0,0-8.89,5.57,15.49,15.49,0,0,0-4,4.9.71.71,0,0,0-.05.63,9.45,9.45,0,0,1,.56,4.35,44.15,44.15,0,0,1-1,5.38,12.65,12.65,0,0,0,.12,6.57,19,19,0,0,1,.7,3.17,1,1,0,0,1-.58,1.14,3.84,3.84,0,0,1-.7.3,7.75,7.75,0,0,1-2.28.28c-.35,0-.49-.09-.55-.45a8.85,8.85,0,0,0-1.17-3.21,3.24,3.24,0,0,0-2.11-1.53,5.49,5.49,0,0,0-6.25,4.4A8.18,8.18,0,0,0,73,74.9a8.55,8.55,0,0,0,3.39,4.45,3.41,3.41,0,0,0,4.34-.24,4,4,0,0,1,.47-.36,2.8,2.8,0,0,1,1.12-.46.34.34,0,0,1,.43.21v.05a1.48,1.48,0,0,1-.3,1.52c-.32.38-.68.72-1,1.09A1.56,1.56,0,0,0,81,82.53a29.85,29.85,0,0,0,4,10.54,6.87,6.87,0,0,0,3.54,2.87,24.07,24.07,0,0,0,6.92,1.2.25.25,0,0,0,.26-.12,2.85,2.85,0,0,1,2.41-1.2,7.84,7.84,0,0,1,2.46.16c0-.19-.14-.2-.23-.24a10.32,10.32,0,0,1-1.84-1.23,35.77,35.77,0,0,1-5.75-6.14,8.84,8.84,0,0,1-1.46-2.87,3.49,3.49,0,0,1-.2-1.5c1.07,1.48,2.08,2.87,3.16,4.25a22.83,22.83,0,0,0,7.8,6.55,13.33,13.33,0,0,0,8.62,1.31,22.67,22.67,0,0,0,7.31-2.9,10.68,10.68,0,0,0,3.46-3c.9-1.3,1.82-2.59,2.63-4a38,38,0,0,0,5-17.88,65.05,65.05,0,0,0-.07-6.7,35.23,35.23,0,0,0-.51-4.93,6.59,6.59,0,0,0-4-5.12,4.21,4.21,0,0,0-4.57.34h-.08a2.46,2.46,0,0,1,1.11-2.57,4.11,4.11,0,0,1,2.87-.58C124.08,48.83,124.37,48.89,124.64,48.93Zm-54.36,77.5.12,0c-.12-.94-.22-1.88-.36-2.81a40,40,0,0,0-1.5-6.92c-.74-2.23-1.7-4.39-2.44-6.61a49,49,0,0,1-1.72-5.23A3,3,0,0,1,66.1,101a25.33,25.33,0,0,0,2.46-1.32c3-2.11,6.13-3.84,9.26-5.67.92-.54,1.88-1,2.75-1.64a1.42,1.42,0,0,0,.64-1.91,9.58,9.58,0,0,0-1.13-2.1,11.4,11.4,0,0,1-1.61-4.8c0-.37-.14-.57-.55-.66a8.34,8.34,0,0,1-5.39-3.7,14.76,14.76,0,0,1-2.36-10.09,5.37,5.37,0,0,1,1-3c.82-.92.62-1.9.34-3-9.45,9.2-14.23,20.28-14,33.37A43.31,43.31,0,0,0,70.28,126.43Zm60.63-60.9c0,.55-.08,1-.09,1.41a49,49,0,0,1-.41,5.14,55.6,55.6,0,0,1-1.88,9.1,21.44,21.44,0,0,1-2,5.11,19.48,19.48,0,0,0-1.29,2.38,1.52,1.52,0,0,0,.31,1.78,34.42,34.42,0,0,0,3,2.76c1.43,1.26,2.9,2.46,4.24,3.81a3.73,3.73,0,0,1,1.06,3.52,35.35,35.35,0,0,1-1.11,4c-1.64,5.47-3.32,10.93-5.34,16.27,0,.13-.2.29-.05.41s.25-.06.37-.11l.08,0a23.63,23.63,0,0,1,8-2.61c.23,0,.3-.16.41-.31a43,43,0,0,0,3.75-8,44.15,44.15,0,0,0,2.46-16.8,45,45,0,0,0-1-7.56,43.53,43.53,0,0,0-7.29-16.27A41.16,41.16,0,0,0,130.92,65.53Zm-25.35,38a5.29,5.29,0,0,1,1.25-.41,8.32,8.32,0,0,0,1.64-.49c.28-.12.24-.34.25-.57s-.21-.23-.35-.25a5.38,5.38,0,0,1-2.07-.85,23,23,0,0,0-7.52-3,1.57,1.57,0,0,0-1.72.64,2.83,2.83,0,0,0-.46,1.07,15.7,15.7,0,0,0,0,5.89c.3,1.86,1.23,3.52,1.76,5.31a.77.77,0,0,0,.94.56l.08,0a14.7,14.7,0,0,0,5.44-2.12c1.15-.76,2.1-1.77,3.23-2.55a1.88,1.88,0,0,0,.94-1.95.55.55,0,0,0-.34-.54A10.08,10.08,0,0,0,105.56,103.58Zm8.16,17.81c-.92-2.2-1.78-4.31-2.75-6.38a30.9,30.9,0,0,0-3.21-5.49c-.15-.2-.25-.27-.49-.1-1,.7-2.05,1.36-3,2.14a8.12,8.12,0,0,0-2.87,4c-.08.28,0,.39.22.52a72.79,72.79,0,0,0,7.91,3.85A39.92,39.92,0,0,0,113.72,121.39Zm3.53-19c-.75.16-1.41.14-2.05.32a.77.77,0,0,0-.62.85,11.6,11.6,0,0,0,.07,1.17c0,.25-.23.57.06.75a2.72,2.72,0,0,0,.78.21,35.37,35.37,0,0,0,5.88.79c1,.07,1,0,1.31-.92a2.64,2.64,0,0,0,.07-.26,9.4,9.4,0,0,0,.09-3.24,14.29,14.29,0,0,0-.72-3.53,1.75,1.75,0,0,0-2.28-1.23,6.93,6.93,0,0,0-2.19.94c-1,.62-1.95,1.26-2.92,1.89-.24.16-.6.23-.71.45s.18.51.25.78a2.65,2.65,0,0,1,.09.35c0,.32.19.37.49.31A4.55,4.55,0,0,1,117.25,102.41Zm-.69,18.74.12,0c.46-.64.94-1.29,1.39-1.94,1.91-2.76,3.54-5.68,5.22-8.57.46-.79.46-.79-.14-1.49a4,4,0,0,0-4.52-1.23c-.21.08-.34.17-.36.44-.11,1.59-.17,3.19-.33,4.78s-.37,3.44-.69,5.14c-.18.95-.42,1.89-.68,2.83Zm-.13,22.92c.12,2.3.25,4.54.36,6.78,0,.34.12.45.48.44a10.21,10.21,0,0,0,3.07-.7.41.41,0,0,0,.33-.47h0a14.62,14.62,0,0,0-.23-2.79c-.34-1.85-.72-3.7-1.08-5.54-.12-.64-.16-.67-.82-.54a15.26,15.26,0,0,1-1.94.41c-.22,0-.18.17-.18.3C116.43,142.68,116.43,143.4,116.43,144.07Zm-1.11-46.63c-.28,0-.44,0-.6.07l-3.25.69a8,8,0,0,1-4.71,0,.28.28,0,0,0-.36.14,7.33,7.33,0,0,0,5.54,1.64.69.69,0,0,0,.41-.18Zm-5.46,5.07a7.15,7.15,0,0,0,.3,1.82c.16.71.16.71.87.82a1.75,1.75,0,0,0,2-1.64,1.82,1.82,0,0,0-1.42-2.1,2.32,2.32,0,0,0-1.61.48C109.76,102,109.92,102.31,109.86,102.51Z"/><path fill="#d15252" d="M88.8,112.33l.08.09Z"/><path fill="#d15252" d="M111.21,75a4.05,4.05,0,0,1,.41,1.31c.34,1.52.75,2,2.69,1.87a13.62,13.62,0,0,0,5.08-1.64c.72-.34,1.44-.69,2.17-1a.74.74,0,0,0,.38-.35,2.33,2.33,0,0,0-.24-2.93c-.69-.82-1.42-1.64-2.11-2.46a24.18,24.18,0,0,1-4-6.09,9.75,9.75,0,0,1-.82-3.77c0-.21,0-.38.25-.46a.44.44,0,0,1,.54.21,1.41,1.41,0,0,1,.21.49,9.25,9.25,0,0,0,1.51,3.26,52.15,52.15,0,0,0,5.86,7.35,6.3,6.3,0,0,0,.91.82,1.61,1.61,0,0,1,.57,1.85,15.49,15.49,0,0,0-.67,2.34c0,.1-.1.14-.17.19a24.27,24.27,0,0,1-6.66,3.29,15.09,15.09,0,0,1-5,.49,1,1,0,0,1-.79-.44,3.7,3.7,0,0,1-.46-3.7,4,4,0,0,1,.22-.41A.87.87,0,0,0,111.21,75Z"/><path fill="#d15252" d="M112,89.38a14.37,14.37,0,0,1-2.94-.31,5.39,5.39,0,0,1-2.92-1.77A15.61,15.61,0,0,1,105,85.75a10.7,10.7,0,0,0-1.59-1.91c-.23-.21-.58-.47-.41-.82s.62-.29,1-.32a.26.26,0,0,1,.26.18c1,2.25,2.92,3.23,5.18,3.7a25.87,25.87,0,0,0,5.85.41c1,0,2,0,2.94-.06.27,0,.37,0,.21.32a2.83,2.83,0,0,1-1.64,1.46A17.14,17.14,0,0,1,112,89.38Z"/><path fill="#d15252" d="M104.76,80a23.32,23.32,0,0,0,9,1.49h2.49c.25,0,.37.06.41.33a22.59,22.59,0,0,1,.14,2.3c0,.21-.06.3-.28.3a18.5,18.5,0,0,1-9.35-1.78,5.5,5.5,0,0,1-2.2-2A1.5,1.5,0,0,1,104.76,80Z"/><path fill="#d15252" d="M104.93,57.71a31,31,0,0,1,1.27,2.85,6.85,6.85,0,0,0,1.86,2.57,2.15,2.15,0,0,1,.82,2.53,2.67,2.67,0,0,1-1.79,1.55,7.26,7.26,0,0,1-4.72-.21c-1-.41-1.37-1.16-1-2a.41.41,0,0,1,.49-.31h0c.82.14,1.64.29,2.5.41a3.51,3.51,0,0,0,2.37-.3c.28-.16.33-.29.15-.59a15.69,15.69,0,0,1-2-4.3A4.23,4.23,0,0,1,104.93,57.71Z"/><path fill="#d15252" d="M102.85,51.71a2.49,2.49,0,0,1-.05.33c-.08.28-.17.41-.56.35-3-.55-5.25.54-6.94,3.37a15.8,15.8,0,0,0-.76,1.44c-.11.24-.23.23-.41.12a1.17,1.17,0,0,1-.49-1.23,5.42,5.42,0,0,1,.91-2.57,8.41,8.41,0,0,1,4.73-3.63,3.17,3.17,0,0,1,2.87.5A1.53,1.53,0,0,1,102.85,51.71Z"/><path fill="#d15252" d="M125.92,78.08a12.29,12.29,0,0,1-3.29,4.48,7.54,7.54,0,0,1-4.32,1.64c-.32,0-.41-.07-.44-.39a21,21,0,0,1,0-2.17c0-.18,0-.35.28-.37A15.61,15.61,0,0,0,124,79.11C124.64,78.73,125.28,78.4,125.92,78.08Z"/><path fill="#d15252" d="M123.91,66.24a1.91,1.91,0,0,1-2.17-1.82A.34.34,0,0,1,122,64h0a10,10,0,0,1,1.93-.23,6.71,6.71,0,0,0,1.91-.3c.25-.09.31-.21.2-.47a16.33,16.33,0,0,1-1.19-3.54,7.42,7.42,0,0,1-.11-1.53c0-.1,0-.24.1-.28s.19.11.24.22c.51,1.09,1,2.18,1.53,3.29A18,18,0,0,0,128,63.63a.48.48,0,0,1,0,.68,5.51,5.51,0,0,1-3.29,1.82Z"/><path fill="#d15252" d="M74.58,70.56c0-.14,0-.25.07-.37a2.6,2.6,0,0,1,4.11-1.82A4.58,4.58,0,0,1,81,72.78a5.27,5.27,0,0,1-.07.67.82.82,0,0,1-.07.18,1.72,1.72,0,0,1-.69-.82c-.28-.53-.52-1.08-.82-1.61a1.12,1.12,0,0,0-1.14-.73c-.57.07-.79.5-.95,1a6.71,6.71,0,0,0-.27,2v2.26a1.4,1.4,0,0,1-.55-.78,7,7,0,0,1-.12-4.78c0-.14.24-.31.07-.44a.65.65,0,0,0-.56-.08,1.68,1.68,0,0,0-.72.45A2.16,2.16,0,0,1,74.58,70.56Z"/><path fill="#d15252" d="M129.24,127c1.7-2.17,4-2.65,6.52-2.79a20.31,20.31,0,0,0-3.78,2.05A4.73,4.73,0,0,1,129.24,127Z"/><path fill="#d15252" d="M130.49,131.5a2.22,2.22,0,0,1,1.35-.64,12.06,12.06,0,0,1,6,.78A65,65,0,0,1,130.49,131.5Z"/><path fill="#d15252" d="M137.1,128.22a37.75,37.75,0,0,1-6.49.37,1.61,1.61,0,0,1,.89-.69,7.08,7.08,0,0,1,3.31-.24,10.37,10.37,0,0,1,2.08.41C137,128.1,137.08,128.09,137.1,128.22Z"/><path fill="#d15252" d="M113.89,110.8a.91.91,0,1,1,.9-.92.9.9,0,0,1-.87.92Z"/><path fill="#d15252" d="M114.82,115a.9.9,0,0,1-.94-.87v0a.92.92,0,0,1,.9-.93.9.9,0,0,1,.93.88v0a.89.89,0,0,1-.84.93Z"/><rect class="cls-2" width="200" height="200"/></g></g></svg>
