<svg xmlns="http://www.w3.org/2000/svg" viewBox="0 0 37.98 203.53"><defs><style>.cls-1{fill:none;stroke:#1d1d1b;stroke-linecap:round;stroke-linejoin:round;stroke-width:0.36px;}</style></defs><title>skrzydlocode-mine</title><g id="Warstwa_2" data-name="Warstwa 2"><g id="Warstwa_1-2" data-name="Warstwa 1"><polyline class="cls-1" points="0.18 21.9 37.8 0.18 37.8 181.63 0.18 203.35"/><line class="cls-1" x1="0.18" y1="21.9" x2="0.18" y2="203.35"/><polygon class="cls-1" points="33.13 46.38 16.52 55.97 16.52 25.57 33.13 15.98 33.13 46.38"/><polygon class="cls-1" points="33.13 87.51 16.52 97.1 16.52 66.7 33.13 57.12 33.13 87.51"/><polygon class="cls-1" points="33.13 128.65 16.52 138.23 16.52 107.83 33.13 98.25 33.13 128.65"/><polygon class="cls-1" points="33.13 169.78 16.52 179.37 16.52 148.97 33.13 139.38 33.13 169.78"/><polygon class="cls-1" points="12.78 181.53 4.65 186.22 4.65 32.43 12.78 27.73 12.78 181.53"/></g></g></svg>