<svg xmlns="http://www.w3.org/2000/svg" viewBox="0 0 499.46 692.25"><defs><style>.cls-1{fill:#fff;}.cls-2{fill:#ffdc00;}</style></defs><title>logo</title><g id="Warstwa_2" data-name="Warstwa 2"><g id="Warstwa_1-2" data-name="Warstwa 1"><polygon class="cls-1" points="322.75 692.25 176.71 692.25 176.71 542.88 322.75 542.88 322.75 574.25 207.38 574.25 207.38 660.88 322.75 660.88 322.75 692.25"/><rect class="cls-1" x="176.71" y="601.88" width="91.92" height="31.37"/><polygon class="cls-2" points="146.04 149.36 0 149.36 0 0 146.04 0 146.04 31.36 30.67 31.36 30.67 118 146.04 118 146.04 149.36"/><polygon class="cls-2" points="146.04 692.25 0 692.25 0 542.88 146.04 542.88 146.04 574.25 30.67 574.25 30.67 660.88 146.04 660.88 146.04 692.25"/><rect class="cls-2" y="601.88" width="91.92" height="31.36"/><path class="cls-2" d="M146,330.78H0V181.42H146ZM30.67,299.42h84.7V212.78H30.67Z"/><path class="cls-2" d="M146,511.52H0V362.15H79.38L146,430.48ZM30.67,480.15h84.7v-36.7L66.66,393.51h-36Z"/><rect class="cls-1" x="176.71" y="181.42" width="30.67" height="149.37"/><polygon class="cls-1" points="322.75 149.36 292.08 149.36 292.08 31.36 207.37 31.36 207.37 149.36 176.71 149.36 176.71 0 322.75 0 322.75 149.36"/><rect class="cls-1" x="234.4" width="30.67" height="94.01"/><polygon class="cls-1" points="322.75 511.52 292.08 511.52 292.08 443.45 243.37 393.51 207.38 393.51 207.38 511.52 176.71 511.52 176.71 362.15 256.09 362.15 322.75 430.48 322.75 511.52"/><polygon class="cls-2" points="353.42 542.88 353.42 692.25 499.46 692.25 353.42 542.88"/></g></g></svg>