<svg xmlns="http://www.w3.org/2000/svg" viewBox="0 0 200 200"><defs><style>.cls-1{fill:#8ed4f9;}.cls-2{fill:none;}</style></defs><title>Zasób 30</title><g id="Warstwa_2" data-name="Warstwa 2"><g id="Warstwa_1-2" data-name="Warstwa 1"><g id="Warstwa_2-2" data-name="Warstwa 2"><g id="Warstwa_1-2-2" data-name="Warstwa 1-2"><path fill="#8ed4f9" d="M69.13,79.24a44.14,44.14,0,0,1,5.5-3.16c8-4.46,16.1-8.84,24.12-13.3a2.51,2.51,0,0,1,2.75,0q14.3,7.92,28.64,15.75c.39.21.83.34,1,1.06-2.12,1.24-4.29,2.52-6.48,3.78L101.4,96.82a2,2,0,0,1-2.27.15Q84.5,88.47,69.82,80C69.55,79.88,69.21,79.77,69.13,79.24Z"/><path fill="#8ed4f9" d="M102.4,134.37c0-.76-.07-1.25-.07-1.73V102.76a2.13,2.13,0,0,1,1.07-2.19q14.68-8.41,29.32-16.88a7.63,7.63,0,0,1,.71-.32c.47.57.28,1.14.28,1.66q0,15.27,0,30.55a2.52,2.52,0,0,1-1.56,2.56c-9.42,5.12-18.8,10.32-28.2,15.49C103.55,133.85,103.1,134,102.4,134.37Z"/><path fill="#8ed4f9" d="M96.91,133.53c-1,.22-1.73-.56-2.51-1Q81,125.23,67.65,117.87c-.28-.16-.55-.35-.78-.49-.25-1.77-.22-32.4,0-33.78a12.54,12.54,0,0,1,3.78,1.9Q83.78,93,96.84,100.57a3.74,3.74,0,0,1,.6.54l.33.66a7.16,7.16,0,0,1,.18,1.12v29.45a8.73,8.73,0,0,1-.14,1.13Z"/><path fill="#8ed4f9" d="M156.45,129.91l-17.59-10.1a1.56,1.56,0,0,1-.88-1.47Q138,99.63,138,81a2,2,0,0,1,.11-.34l18.29-10.54Z"/><path fill="#8ed4f9" d="M154.36,66.12,136,76.76l-33.49-18.4V36.77Z"/><path fill="#8ed4f9" d="M97.68,36.85V58.42L64.35,76.76,45.93,66.12Z"/><path fill="#8ed4f9" d="M102.47,161.77V139.44L134,122.11l19.1,11Z"/><path fill="#8ed4f9" d="M47.22,133.13l19.1-11,31.41,17.25v22.32Z"/><path fill="#8ed4f9" d="M43.95,70.14l18.2,10.52v38.72l-18.2,10.48Z"/><path fill="#8ed4f9" d="M96.91,133.53l.89-.06-.16.66Z"/><path fill="#8ed4f9" d="M97.77,101.77l-.33-.66Z"/></g></g><rect class="cls-2" width="200" height="200"/></g></g></svg>
