<svg xmlns="http://www.w3.org/2000/svg" viewBox="0 0 288.68 320.75"><title>Zasób 35</title><g id="Warstwa_2" data-name="Warstwa 2"><g id="Warstwa_1-2" data-name="Warstwa 1"><path fill="#8ed4f9" d="M64.61,109c4.28-3.27,9.35-5.47,14.12-8.12,20.6-11.44,41.3-22.69,61.9-34.13a6.43,6.43,0,0,1,7.06,0q36.7,20.31,73.5,40.42c1,.53,2.14.86,2.59,2.73-5.45,3.18-11,6.47-16.62,9.7q-29.86,17.26-59.73,34.51c-1.94,1.13-3.52,1.72-5.83.38Q104.07,132.67,66.4,111C65.69,110.64,64.82,110.35,64.61,109Z"/><path fill="#05a2d8" d="M150,250.45c-.09-1.95-.19-3.2-.19-4.45q0-38.34,0-76.67c0-2.44.35-4.23,2.75-5.61q37.67-21.57,75.24-43.31a19.57,19.57,0,0,1,1.81-.82c1.2,1.45.72,2.92.72,4.26,0,26.13,0,52.25.11,78.38,0,3.33-1.09,5-4,6.58-24.17,13.15-48.25,26.48-72.37,39.74C152.94,249.13,151.78,249.6,150,250.45Z"/><path fill="#05a2d8" d="M135.9,248.31c-2.69.56-4.45-1.44-6.44-2.53Q95.09,227,60.83,208.12c-.73-.4-1.42-.89-2-1.26-.65-4.53-.56-83.13.12-86.69,3.71.71,6.58,3.09,9.7,4.88q33.57,19.28,67.08,38.68a9.59,9.59,0,0,1,1.53,1.39l.85,1.69a18.36,18.36,0,0,1,.45,2.88q0,37.78,0,75.57a22.41,22.41,0,0,1-.37,2.91Z"/><path fill="#05a2d8" d="M288.68,239l-45.14-25.92a4,4,0,0,1-2.26-3.76q.13-48,.18-95.9a5.14,5.14,0,0,1,.29-.87L288.68,85.5Z"/><path fill="#05a2d8" d="M283.33,75.32l-47.22,27.3L150.18,55.4V0Z"/><path fill="#05a2d8" d="M137.89.21V55.56L52.35,102.63,5.08,75.33Z"/><path fill="#05a2d8" d="M150.17,320.75V263.46L231,219l49,28.29Z"/><path fill="#05a2d8" d="M8.39,247.27l49-28.27L138,263.26v57.27Z"/><path fill="#05a2d8" d="M0,85.64l46.69,27V212L0,238.88Z"/><path fill="#05a2d8" d="M135.9,248.31l2.29-.16-.42,1.7Z"/><path fill="#05a2d8" d="M138.11,166.79l-.85-1.69Z"/></g></g></svg>
