<svg xmlns="http://www.w3.org/2000/svg" viewBox="0 0 200 200"><defs><style>.cls-3{fill:none;}.cls-2{fill:#f05138;}</style></defs><title>swift</title><g id="Warstwa_2" data-name="Warstwa 2"><g id="Warstwa_1-2" data-name="Warstwa 1"><rect class="cls-3" width="200" height="200"/><g id="Warstwa_2-2" data-name="Warstwa 2"><g id="Warstwa_1-2-2" data-name="Warstwa 1-2"><g id="surface1"><path fill="#f0db4f" d="M134.07,37.5H65.93A28.45,28.45,0,0,0,37.5,65.93v68.14A28.45,28.45,0,0,0,65.93,162.5h68.14a28.45,28.45,0,0,0,28.43-28.43V65.93A28.45,28.45,0,0,0,134.07,37.5Zm3.63,97.3s-4.24-7.13-11.37-7.13c-6.87,0-10.9,7.13-24.72,7.13-30.76,0-45.3-25.7-45.3-25.7,27.72,18.24,46.64,5.32,46.64,5.32-12.49-7.27-39-41.91-39-41.91C87,92.19,97,97.39,97,97.39c-6-4.94-22.7-29-22.7-29,13.38,13.55,40,32.48,40,32.48,7.55-20.94-7.25-39.6-7.25-39.6C143.31,85.85,131.6,113,131.6,113S141.86,124.63,137.7,134.8Z"/></g></g></g></g></g></svg>
