<svg xmlns="http://www.w3.org/2000/svg" viewBox="0 0 156.13 156.13"><title>Zasób 3</title><g id="Warstwa_2" data-name="Warstwa 2"><g id="Warstwa_1-2" data-name="Warstwa 1"><g id="surface1"><path fill="#f05138" d="M120.63,0H35.51A35.54,35.54,0,0,0,0,35.51v85.12a35.54,35.54,0,0,0,35.51,35.51h85.12a35.54,35.54,0,0,0,35.51-35.51V35.51A35.54,35.54,0,0,0,120.63,0Zm4.53,121.54s-5.3-8.9-14.2-8.9c-8.58,0-13.62,8.9-30.88,8.9-38.42,0-56.59-32.1-56.59-32.1,34.62,22.78,58.26,6.64,58.26,6.64C66.15,87,33,43.73,33,43.73,61.86,68.32,74.35,74.81,74.35,74.81,66.9,68.64,46,38.53,46,38.53,62.71,55.46,96,79.1,96,79.1c9.43-26.16-9.06-49.47-9.06-49.47,45.23,30.76,30.6,64.69,30.6,64.69S130.36,108.84,125.16,121.54Z"/></g></g></g></svg>
