<svg xmlns="http://www.w3.org/2000/svg" viewBox="0 0 200 200"><defs><style>.cls-1{fill:#21cb97;}.cls-2{fill:none;}</style></defs><title>Zasób 10</title><g id="Warstwa_2" data-name="Warstwa 2"><g id="Warstwa_1-2" data-name="Warstwa 1"><g id="Warstwa_2-2" data-name="Warstwa 2"><g id="Warstwa_1-2-2" data-name="Warstwa 1-2"><path fill="#21cb97" d="M135.23,143.26H120.36c-2.55-2.73-5-5.59-7.67-8.14a26.09,26.09,0,0,0-10.49-6.41,10.6,10.6,0,0,0-12,3.66A26,26,0,0,0,85,143.26H73.33A19.29,19.29,0,0,0,70,134c-3.31-4.59-8.23-4.85-12-.59a19.51,19.51,0,0,0-4.42,9.88H38.36l-.8-8.45V124.37c.14-.92.32-1.83.39-2.76.71-8.07,2.39-15.88,6.47-23A29.77,29.77,0,0,1,60.48,84.89c.34.69.62,1.27.92,1.85,1.82,3.43,3.49,6.94,5.5,10.25,2.6,4.27,6.86,6.22,11.28,5.19,6.06-1.4,9.78-5.81,13.14-10.62a14.87,14.87,0,0,0-2.49,1.83C85.71,96,82.46,98.29,78.4,99.18c-3.12.68-6,0-7.66-2.65-3.43-5.64-6.63-11.46-9.58-17.37-1.39-2.78-.39-5.17,2.16-7a14,14,0,0,1,2.76-1.62c18.28-7.74,35.92-7.29,52.71,4.12a42.67,42.67,0,0,0,6.2,3.68c10.92,5,23.06-.58,26.12-11.83,2.23-8.11-3.7-15.13-11.89-14.06-1.56.21-3,1.17-4.53,1.52a3.51,3.51,0,0,1-2.7-.23c-4-3.74-3.4-7.28,1.58-9.49a15.6,15.6,0,0,1,1.5-.57c8.8-2.87,19.15,1.56,23.75,10a38.76,38.76,0,0,1,3.72,12v4a11.58,11.58,0,0,0-.35,1.53,52.53,52.53,0,0,1-4.32,15.6c-3.85,9.13-9.28,17.3-15.21,25.18-5,6.69-8.16,14.11-8,22.65C134.75,137.52,135,140.39,135.23,143.26ZM107.74,89.64a7.07,7.07,0,0,0,4.2,9.83c4.34,1.61,9.29-.6,10.6-4.8a7,7,0,0,0-.87-.43c-.87-.3-1.76-.56-2.62-.83-1.51,2.58-2.84,3.33-4.77,2.73s-2.44-2-2.08-5Z"/></g></g><rect class="cls-2" width="200" height="200"/></g></g></svg>
