<svg xmlns="http://www.w3.org/2000/svg" viewBox="0 0 200 200"><defs><style>.cls-1{fill:#00618a;}.cls-2{fill:none;}</style></defs><title>Zasób 18</title><g id="Warstwa_2" data-name="Warstwa 2"><g id="Warstwa_1-2" data-name="Warstwa 1"><path fill="#00618a" d="M161,158.27l-2.59-2.51a41.4,41.4,0,0,0-8.94-8.51c-2.65-1.9-8.58-4.46-9.69-7.54l-.2-.19a42.4,42.4,0,0,0,5.8-1.35c2.91-.78,5.31-.58,8.31-1.35,1.35-.39,2.87-.77,3.86-1.16v-.77a22.93,22.93,0,0,0-4.06-5,123.19,123.19,0,0,0-13.83-10.44c-2.7-1.7-6-2.81-8.85-4.25-1-.49-2.63-.74-3.26-1.55-1.5-1.91-2.31-4.34-3.47-6.57-2.43-4.68-4.81-9.78-7-14.7-1.47-3.35-2.42-6.66-4.25-9.67C104.09,68.21,94.64,59.5,80,50.93c-3.12-1.82-6.87-2.54-10.83-3.48l-6.38-.39c-1.3-.54-2.65-2.13-3.87-2.9-4.85-3.06-17.29-9.73-20.89-1-2.27,5.53,3.39,10.93,5.41,13.73a41.22,41.22,0,0,1,4.26,6.38c.67,1.45.78,2.91,1.35,4.45,1.41,3.79,2.63,7.91,4.45,11.41a40.22,40.22,0,0,0,3.09,5.22c.71,1,1.93,1.4,2.13,2.9-1.19,1.67-1.26,4.27-1.93,6.38-3,9.53-1.88,21.38,2.51,28.43,1.35,2.17,4.53,6.81,8.9,5,3.82-1.56,3.2-6.38,4.29-10.64.25-1-.18-1.67.81-2.32v.19c1,2.32,2.09,4.64,3.25,7a46.08,46.08,0,0,0,10.7,11.41c2,1.52,3.89,4.14,5.87,5v-.1h.22c-.5-1-1.29-1.16-1.93-1.79A44.3,44.3,0,0,1,87,130.83a117.77,117.77,0,0,1-9.48-15.48c-1.36-2.6-2.53-5.48-3.68-8.13-.44-1-.43-2.57-1.35-3.1-1.25,1.94-3.09,3.51-4.06,5.8-1.55,3.66-1.75,8.13-2.32,12.76-.34.12-.19,0-.39.19-2.69-.65-3.64-3.42-4.64-5.8-2.53-6-3-15.7-.77-22.63.58-1.79,3.18-7.43,2.13-9.09-.5-1.65-2.16-2.61-3.09-3.87a30.44,30.44,0,0,1-3.1-5.42c-2.07-4.69-3-10-5.22-14.7a43,43,0,0,0-4.26-6.58c-1.6-2.23-3.4-3.88-4.64-6.58-.44-1-1-2.5-.39-3.48a1.53,1.53,0,0,1,1.16-1.16c1.12-.87,4.25.29,5.41.77a47.06,47.06,0,0,1,8.32,4.22c1.26.84,2.54,1.87,4.06,2.86h1.74a29.8,29.8,0,0,1,8.32,1,50.37,50.37,0,0,1,12.18,5.82,75.48,75.48,0,0,1,26.5,29c1,1.92,1.44,3.77,2.32,5.81,1.78,4.12,4,8.35,5.8,12.38s3.49,8.07,6,11.41c1.32,1.76,6.39,2.7,8.7,3.68a51.14,51.14,0,0,1,5.8,2.32c2.93,1.77,5.76,3.87,8.51,5.8,1.37,1,5.59,3.09,5.8,4.83-6.8-.19-12,.45-16.44,2.32-1.26.53-3.28.55-3.48,2.13.69.73.8,1.81,1.35,2.71a21.33,21.33,0,0,0,4.45,5.22c1.75,1.32,3.54,2.73,5.42,3.87,3.33,2,7,3.19,10.25,5.22,1.89,1.2,3.92,2.71,5.76,4.06.91.67.88,1.71,2.87,2.13V161C161.51,160.18,161.56,159.09,161,158.27ZM65.88,59.83a13.51,13.51,0,0,0-3.48.39v.14h.2c.68,1,1.87,2.31,2.71,3.51l1.93,4.07.19-.19c1.2-.85,1.75-2.19,1.74-4.25-.48-.5-.55-1.14-1-1.74C67.64,61,66.57,60.5,65.88,59.83Z"/><rect class="cls-2" width="200" height="200"/></g></g></svg>
