<svg xmlns="http://www.w3.org/2000/svg" viewBox="0 0 200 200"><defs><style>.cls-1{fill:#61dafb;}.cls-2{fill:none;}</style></defs><title>Zasób 22</title><g id="Warstwa_2" data-name="Warstwa 2"><g id="Warstwa_1-2" data-name="Warstwa 1"><circle fill="#61dafb" cx="100" cy="100.05" r="11.38"/><path fill="#61dafb" d="M143.23,81.28c-2.2-.8-4.49-1.6-6.89-2.3.6-2.4,1.1-4.79,1.5-7.09,2.1-13.18-.2-22.46-6.59-26.06a12.4,12.4,0,0,0-6.39-1.6c-7,0-15.87,5.19-24.86,13.88-9-8.69-17.87-13.88-24.86-13.88a12.4,12.4,0,0,0-6.39,1.6c-6.39,3.69-8.69,13-6.59,26.06.4,2.3.9,4.69,1.5,7.09a69.63,69.63,0,0,0-6.89,2.3C44.29,86.07,37.5,92.66,37.5,100s6.89,14,19.27,18.77c2.2.8,4.49,1.6,6.89,2.3-.6,2.4-1.1,4.79-1.5,7.09-2.1,13.18.2,22.46,6.59,26.06a12.4,12.4,0,0,0,6.39,1.6c7.09,0,16-5.19,24.86-13.88,9,8.69,17.87,13.88,24.86,13.88a12.4,12.4,0,0,0,6.39-1.6c6.39-3.69,8.69-13,6.59-26.06-.4-2.3-.9-4.69-1.5-7.09a69.63,69.63,0,0,0,6.89-2.3C155.71,114,162.5,107.44,162.5,100S155.71,86.07,143.23,81.28ZM128.45,50.83c4.09,2.4,5.49,9.78,3.79,20.27a60.12,60.12,0,0,1-1.4,6.59,118.61,118.61,0,0,0-16.47-2.5,144.05,144.05,0,0,0-10.38-13c7.39-7.29,14.88-12.28,21-12.28A6.74,6.74,0,0,1,128.45,50.83ZM117.27,110c-1.8,3.19-3.89,6.39-6.09,9.58-3.69.3-7.39.4-11.18.4s-7.59-.1-11.18-.4q-3.29-4.79-6-9.58c-1.9-3.29-3.69-6.69-5.29-10,1.6-3.29,3.39-6.69,5.29-10s3.89-6.39,6.09-9.58c3.69-.3,7.39-.4,11.18-.4s7.59.1,11.18.4q3.29,4.79,6,9.58c1.9,3.29,3.69,6.69,5.29,10C120.87,103.34,119.17,106.64,117.27,110Zm8.29-3.29c1.5,3.49,2.7,6.89,3.79,10.28-3.39.8-7,1.4-10.78,1.9,1.2-1.9,2.5-3.89,3.59-6S124.46,108.74,125.56,106.74ZM100,133.8c-2.4-2.6-4.69-5.39-6.89-8.29,2.3.1,4.59.2,6.89.2s4.59-.1,6.89-.2C104.69,128.4,102.4,131.2,100,133.8Zm-18.57-15c-3.79-.5-7.39-1.1-10.78-1.9,1.1-3.29,2.3-6.79,3.79-10.28,1.1,2,2.2,4.09,3.39,6.09C79,114.93,80.23,116.82,81.43,118.82Zm-7-25.46c-1.5-3.49-2.7-6.89-3.79-10.28,3.39-.8,7-1.4,10.78-1.9-1.2,1.9-2.5,3.89-3.59,6S75.54,91.36,74.44,93.36ZM100,66.3c2.4,2.6,4.69,5.39,6.89,8.29-2.3-.1-4.59-.2-6.89-.2s-4.59.1-6.89.2C95.31,71.7,97.6,68.9,100,66.3Zm22.16,21-3.59-6c3.79.5,7.39,1.1,10.78,1.9-1.1,3.29-2.3,6.79-3.79,10.28C124.46,91.36,123.36,89.27,122.16,87.27ZM67.75,71.1c-1.7-10.48-.3-17.87,3.79-20.27a6.74,6.74,0,0,1,3.49-.9c6,0,13.48,4.89,21,12.28a131.24,131.24,0,0,0-10.38,13,135.74,135.74,0,0,0-16.47,2.5C68.55,75.39,68.15,73.19,67.75,71.1ZM43.09,100c0-4.69,5.69-9.68,15.67-13.38a59.86,59.86,0,0,1,6.39-2.1,145.52,145.52,0,0,0,6,15.58,125.81,125.81,0,0,0-6,15.48C51.38,111.63,43.09,105.64,43.09,100Zm28.45,49.22c-4.09-2.4-5.49-9.78-3.79-20.27a60.12,60.12,0,0,1,1.4-6.59,118.62,118.62,0,0,0,16.47,2.5,144.05,144.05,0,0,0,10.38,13c-7.39,7.29-14.88,12.28-21,12.28A6.74,6.74,0,0,1,71.55,149.27ZM132.25,129c1.7,10.48.3,17.87-3.79,20.27a6.74,6.74,0,0,1-3.49.9c-6,0-13.48-4.89-21-12.28a131.24,131.24,0,0,0,10.38-13,135.74,135.74,0,0,0,16.47-2.5C131.45,124.71,131.85,126.91,132.25,129Zm9-15.58a59.86,59.86,0,0,1-6.39,2.1,145.52,145.52,0,0,0-6-15.58,125.81,125.81,0,0,0,6-15.48c13.78,4,22.06,10,22.06,15.58C156.91,104.74,151.12,109.73,141.23,113.43Z"/><rect class="cls-2" width="200" height="200"/></g></g></svg>
