<svg xmlns="http://www.w3.org/2000/svg" viewBox="0 0 200 200"><defs><style>.cls-3{fill:none;}.cls-2{fill:#009d96;}</style></defs><title>bash</title><g id="Warstwa_2" data-name="Warstwa 2"><g id="Warstwa_1-2" data-name="Warstwa 1"><rect class="cls-3" width="200" height="200"/><g id="Warstwa_2-2" data-name="Warstwa 2"><g id="Warstwa_1-2-2" data-name="Warstwa 1-2"><path fill="#009d96" d="M147.07,63,107.63,39.6a14.86,14.86,0,0,0-15.22,0L52.93,63a15.74,15.74,0,0,0-7.62,13.55v46.85A15.74,15.74,0,0,0,52.93,137L92.39,160.4a14.87,14.87,0,0,0,15.24,0L147.07,137a15.74,15.74,0,0,0,7.62-13.56V76.58A15.74,15.74,0,0,0,147.07,63Zm-30.56,73.15.06,3.37a1.25,1.25,0,0,1-.57,1l-2,1.15c-.32.16-.59,0-.59-.44V138a6.48,6.48,0,0,1-4.54.49c-.21-.09-.3-.39-.21-.74l.72-3a1.25,1.25,0,0,1,.36-.64.8.8,0,0,1,.19-.14.4.4,0,0,1,.32,0,5.56,5.56,0,0,0,4.18-.52,5.47,5.47,0,0,0,3.09-4.72c0-1.71-.95-2.42-3.19-2.49-2.87,0-5.53-.56-5.58-4.77a12.25,12.25,0,0,1,4.62-9.37v-3.4a1.25,1.25,0,0,1,.57-1l1.93-1.25c.32-.16.59,0,.59.45v3.4a6.23,6.23,0,0,1,3.74-.46c.25.06.35.4.25.79l-.76,3a1.25,1.25,0,0,1-.34.6.81.81,0,0,1-.2.15.45.45,0,0,1-.3,0,5,5,0,0,0-3.64.59,4.57,4.57,0,0,0-2.69,4.05c0,1.55.81,2,3.54,2.06,3.65,0,5.27,1.68,5.27,5.35A13.06,13.06,0,0,1,116.51,136.18Zm20.69-5.66a.79.79,0,0,1-.3.76l-10,6.07c-.26.15-.47,0-.47-.29v-2.59a.72.72,0,0,1,.45-.64l9.82-5.88c.26-.15.47,0,.47.29Zm6.86-57.61L106.66,96c-4.66,2.72-8.09,5.77-8.09,11.39v46c0,3.37,1.36,5.53,3.44,6.17a12.07,12.07,0,0,1-2.07.2A12.21,12.21,0,0,1,93.71,158L54.3,134.59a13,13,0,0,1-6.23-11.22V76.58A13,13,0,0,1,54.3,65.36L93.76,42a12.16,12.16,0,0,1,12.46,0l39.46,23.42a12.9,12.9,0,0,1,6.06,9c-1.3-2.79-4.23-3.55-7.69-1.55Z"/></g></g></g></g></svg>
