<svg xmlns="http://www.w3.org/2000/svg" viewBox="0 0 87.75 100.28"><title>Zasób 1</title><g id="Warstwa_2" data-name="Warstwa 2"><g id="Warstwa_1-2" data-name="Warstwa 1"><path fill="#009d96" d="M81.64,20.48,50,1.68a11.92,11.92,0,0,0-12.21,0L6.11,20.48A12.63,12.63,0,0,0,0,31.35V68.94A12.63,12.63,0,0,0,6.11,79.81L37.77,98.6A11.93,11.93,0,0,0,50,98.6L81.64,79.81a12.63,12.63,0,0,0,6.11-10.88V31.35A12.63,12.63,0,0,0,81.64,20.48ZM57.12,79.17l.05,2.7a1,1,0,0,1-.46.83l-1.6.92c-.26.13-.47,0-.47-.35l0-2.66A5.2,5.2,0,0,1,51,81c-.17-.07-.24-.31-.17-.59l.58-2.44a1,1,0,0,1,.29-.51.64.64,0,0,1,.15-.11.32.32,0,0,1,.26,0,4.46,4.46,0,0,0,3.35-.42,4.39,4.39,0,0,0,2.48-3.79c0-1.37-.76-1.94-2.56-2-2.3,0-4.44-.45-4.48-3.83a9.83,9.83,0,0,1,3.71-7.52l0-2.73a1,1,0,0,1,.46-.84l1.55-1c.26-.13.47,0,.47.36l0,2.73a5,5,0,0,1,3-.37c.2.05.28.32.2.63L59.68,61a1,1,0,0,1-.27.48.65.65,0,0,1-.16.12.36.36,0,0,1-.24,0,4,4,0,0,0-2.92.47,3.67,3.67,0,0,0-2.16,3.25c0,1.24.65,1.62,2.84,1.65C59.7,67,61,68.32,61,71.26A10.48,10.48,0,0,1,57.12,79.17Zm16.6-4.54a.63.63,0,0,1-.24.61l-8,4.87c-.21.12-.38,0-.38-.23V77.8a.58.58,0,0,1,.36-.51l7.88-4.72c.21-.12.38,0,.38.23Zm5.5-46.22-30,18.5c-3.74,2.18-6.49,4.63-6.49,9.14V92.95c0,2.7,1.09,4.44,2.76,4.95a9.68,9.68,0,0,1-1.66.16,9.8,9.8,0,0,1-5-1.38L7.21,77.89a10.42,10.42,0,0,1-5-9V31.35a10.42,10.42,0,0,1,5-9L38.87,3.61a9.76,9.76,0,0,1,10,0L80.53,22.4a10.35,10.35,0,0,1,4.86,7.24C84.35,27.4,82,26.79,79.22,28.4Z"/></g></g></svg>
