<svg xmlns="http://www.w3.org/2000/svg" viewBox="0 0 200 200"><defs><style>.cls-1{fill:#ff9800;}.cls-2{fill:none;}</style></defs><title>Zasób 2</title><g id="Warstwa_2" data-name="Warstwa 2"><g id="Warstwa_1-2" data-name="Warstwa 1"><g id="Warstwa_2-2" data-name="Warstwa 2"><g id="Warstwa_1-2-2" data-name="Warstwa 1-2"><g id="_grupa_" data-name=" grupa "><path fill="#ff9800" d="M31.75,149.8H54.47a1.35,1.35,0,0,0,1.3-1l6.63-23.92H88.12l7.19,23.92a1.35,1.35,0,0,0,1.3,1H120.2a1.35,1.35,0,0,0,1.35-1.35,1.33,1.33,0,0,0-.12-.56l-30-96.71a1.35,1.35,0,0,0-1.3-.95H61.38a1.35,1.35,0,0,0-1.29,1L30.46,148.06a1.35,1.35,0,0,0,1.29,1.74Zm52.4-44H66.31L71.58,87c1-3.4,1.86-7.42,2.74-11.3l.59-2.62c1.16,4.63,2.43,9.68,3.71,13.94Z"/><path fill="#ff9800" d="M131.52,76.79a1.35,1.35,0,0,0-1.35,1.35v70.31a1.35,1.35,0,0,0,1.35,1.35h21.85a1.35,1.35,0,0,0,1.35-1.35V78.14a1.35,1.35,0,0,0-1.35-1.35Z"/><path fill="#ff9800" d="M142.29,70.86c7.62,0,13.12-5.16,13.12-12.35s-5.46-12.35-12.95-12.35a13.12,13.12,0,0,0-9.55,3.71,12,12,0,0,0-3.29,8.7,11.76,11.76,0,0,0,3.3,8.55A13,13,0,0,0,142.29,70.86Z"/></g></g></g><rect class="cls-2" width="200" height="200"/></g></g></svg>
