<svg xmlns="http://www.w3.org/2000/svg" viewBox="0 0 162.06 134.31"><title>Zasób 7</title><g id="Warstwa_2" data-name="Warstwa 2"><g id="Warstwa_1-2" data-name="Warstwa 1"><g id="_grupa_" data-name="&lt;grupa&gt;"><path fill="#f90" data-name="&lt;ścieżka złożona&gt;" d="M1.75,134.31H31.19A1.75,1.75,0,0,0,32.88,133l8.59-31H74.8l9.32,31a1.75,1.75,0,0,0,1.68,1.25h30.57a1.75,1.75,0,0,0,1.75-1.75,1.72,1.72,0,0,0-.16-.72L79.08,6.45A1.75,1.75,0,0,0,77.4,5.22H40.14a1.75,1.75,0,0,0-1.67,1.24L.08,132.05a1.75,1.75,0,0,0,1.67,2.26Zm67.91-57H46.54l6.83-24.42c1.24-4.4,2.41-9.61,3.55-14.64q.39-1.74.77-3.4c1.5,6,3.15,12.55,4.81,18.06Z"/><path fill="#f90" data-name="&lt;ścieżka&gt;" d="M131.05,39.69a1.75,1.75,0,0,0-1.75,1.75v91.12a1.75,1.75,0,0,0,1.75,1.75h28.32a1.75,1.75,0,0,0,1.75-1.75V41.44a1.75,1.75,0,0,0-1.75-1.75Z"/><path fill="#f90" data-name="&lt;ścieżka&gt;"  d="M145,32c9.87,0,17-6.69,17-16C161.85,6.6,154.92,0,145.22,0a17,17,0,0,0-12.38,4.81,15.5,15.5,0,0,0-4.27,11.28,15.24,15.24,0,0,0,4.28,11.08A16.79,16.79,0,0,0,145,32Z"/></g></g></g></svg>
