<svg xmlns="http://www.w3.org/2000/svg" viewBox="0 0 200 200"><defs><style>.cls-1{fill:#fcaa1a;}.cls-2{fill:none;}</style></defs><title>Zasób 11</title><g id="Warstwa_2" data-name="Warstwa 2"><g id="Warstwa_1-2" data-name="Warstwa 1"><path fill="#fcaa1a" d="M135.75,94.57a46,46,0,0,0,7.91-5.18c4.2-3.72,3.78-9-.6-12.53-.72-.57-1.72-1.17-1.92-1.93-.87-3.42-1.65-6.89.46-10.25a16.64,16.64,0,0,0,1.9-4.22c1.19-4.15-.8-7.59-4.95-8.81-.71-.21-1.49-.22-2.18-.47-.44-.16-1-.55-1.1-.93-.78-4.16-.26-5.91,3-7.76a30.14,30.14,0,0,1,5-1.9c.65-.23,1.35-.34,2.08-.52-3.88-5.42-10.73-7.7-17.54-6-5.34,1.32-9.17,4.76-12.64,8.78a2.69,2.69,0,0,1-1.72.94c-1.61,0-2-1.16-1.68-2.43.54-2.46,1.25-4.88,1.91-7.37-3-.08-5.36,1.85-8,3.71a36.41,36.41,0,0,1-.81-4.41,38,38,0,0,1,.24-4.49c-4.68,1.68-8.26,4.35-9.26,9.59h-.61l-1.4-6.54a12.61,12.61,0,0,0-1.67,1.08,14,14,0,0,0-4.92,9.52c0,.47-.38,1.26-.63,1.28a2.2,2.2,0,0,1-1.49-.61c-.77-.72-1.38-1.6-2.11-2.37-4.39-4.61-9.54-7.61-16.12-7.21-5,.3-9.22,2.17-12.07,6.27A64.26,64.26,0,0,1,62,42.58c2.78,1.45,3.43,3.53,3.12,6.54-.17,1.69-1,2.07-2.42,2.3-5,.79-7.44,4.67-6,9.54A8.5,8.5,0,0,0,58,63.84c2.3,2.84,1.8,6,1.5,9.26a4.85,4.85,0,0,1-2.08,3.55c-5.08,3.94-5.21,9.42-.18,13.49A39.33,39.33,0,0,0,64,94.36c3.23,1.66,4.5,4.32,4.49,7.74,0,2.8-.13,5.6-.29,8.39-.11,2-.38,4-.57,5.94l-.57.16a48,48,0,0,1-3.44-4.77,46.72,46.72,0,0,1-2.24-5.38c-7.49,6.17-7.69,23.88,4.28,29.35a7.82,7.82,0,0,1,3.68,3.38,19.6,19.6,0,0,0,14.1,9.71,4.88,4.88,0,0,1,1.85.75c8.24,5.55,21.28,5.57,29.49,0a4.33,4.33,0,0,1,1.65-.76c6.9-1.09,11.79-4.91,15.12-10.93a3.19,3.19,0,0,1,1.36-1.39c7.1-2.93,10.54-8.39,11-15.87a17.8,17.8,0,0,0-5.34-14.56,16.14,16.14,0,0,1-6.34,10.33c-.18-5.21-.5-10.42-.48-15.63A7.06,7.06,0,0,1,135.75,94.57Zm-67.91-52c3.14,0,7.32,3.52,7,6.48A4.39,4.39,0,0,1,72.24,52a2.4,2.4,0,0,1-3.1-1.88c-.16-.85-.28-1.71-.43-2.56C68.43,45.92,68.14,44.3,67.84,42.58Zm7.82,92.25c-1.71-.3-3.39-.44-5-.88-7-1.91-10.85-6.83-11-14a43.74,43.74,0,0,1,.71-6.21s.26-.08.39-.05,0,.22.07.34c3.51,7.5,10.22,9.53,17.6,10.23L75,130.59ZM74.79,79V74.34c3,2.29,7.27,4.55,10,7.66.24.27.5.53.72.82a4.06,4.06,0,0,1,.35.6C82.27,86.18,74.79,84.45,74.79,79Zm19.6,54.87c-.75,1.06-1.47,2.15-2.27,3.17-1.87,2.39-4.53,2.54-6.77.41-.71-.68-1.41-1.38-2.11-2.07h0l-.39-.39c-.82-4-.74-4.08,3.53-4.11,2,0,4,0,6,0C94.58,131,95,131.7,94.39,133.89Zm22.8.8-.4.73h0v0h0c-.54.58-1.06,1.18-1.61,1.74-2.52,2.56-5.29,2.4-7.48-.46-.7-.92-1.34-1.9-2-2.85-.6-2.14-.1-2.86,2.13-2.91s4.6,0,6.9,0C117.83,131,118.34,131.75,117.2,134.68Zm-3-51.3L115.34,82a36.34,36.34,0,0,1,10-7.69V79C125.32,84.35,118,86.2,114.23,83.38Zm24.68,31.17.49-1.11c1.56,5,1.69,10-1.25,14.47-3.15,4.81-8.05,6.48-13.64,6.83l.52-4.16-3.32-6.34C128.68,123.45,135.37,121.8,138.9,114.55Zm-7.82-65a2.56,2.56,0,0,1-1.9,2.38c-2,.68-2.74-.76-3.55-1.82a3,3,0,0,1,.06-2.44,7.64,7.64,0,0,1,5.18-4.94,11.79,11.79,0,0,1,1.35-.22C131.81,45,131.46,47.28,131.09,49.51Z"/><rect class="cls-2" width="200" height="200"/></g></g></svg>
