<svg xmlns="http://www.w3.org/2000/svg" viewBox="0 0 408.5 509"><defs><style>.clop-1,.clop-3{fill:#fff;}.clop-2{fill:none;}.clop-2,.clop-3,.clop-4{stroke:#1a1a1a;stroke-miterlimit:10;stroke-width:3px;}.clop-4{fill:#ffdf00;}</style></defs><title>jezyk</title><g id="Warstwa_2" data-name="Warstwa 2"><g id="Warstwa_1-2" data-name="Warstwa 1"><polyline data-start="70" data-duration="30"  class="clop-1" points="0.7 63.43 41 24 377 24 377 469 338 509 0 509 0 63"/><path data-start="70" data-duration="30"  class="clop-2" d="M296.69,89.91,221.8,164.79l0,.05s-.07.1-.11.15a2,2,0,0,0-.26.42,1.92,1.92,0,0,0-.08.21,1.5,1.5,0,0,0-.06.16l-6.09,32.09,32.09-6.09.06,0,.16-.06a2,2,0,0,0,.5-.26l.16-.12.12-.09,74.88-74.88Z"/><path data-start="70" data-duration="30"  class="clop-2" d="M302.51,84.14h37.38a0,0,0,0,1,0,0v11a4.35,4.35,0,0,1-4.35,4.35H306.86a4.35,4.35,0,0,1-4.35-4.35v-11a0,0,0,0,1,0,0Z" transform="translate(483.4 383.87) rotate(-135)"/><line  data-start="70" data-duration="30" class="clop-2" x1="307.4" y1="114.82" x2="238.56" y2="183.66"/><line  data-start="70" data-duration="30" class="clop-2" x1="298.22" y1="105.64" x2="229.38" y2="174.48"/><circle data-start="70" data-duration="30"  class="clop-2" cx="143" cy="246.5" r="28.36"/><path data-start="70" data-duration="30"  class="clop-2" d="M143,218.14c8.23,0,14.9,12.7,14.9,28.36s-6.67,28.36-14.9,28.36"/><path data-start="70" data-duration="30"  class="clop-2" d="M143,274.86c-8.23,0-14.9-12.7-14.9-28.36s6.67-28.36,14.9-28.36"/><line  data-start="70" data-duration="30" class="clop-2" x1="143" y1="218.14" x2="143" y2="274.86"/><line  data-start="70" data-duration="30" class="clop-2" x1="114.64" y1="246.5" x2="171.36" y2="246.5"/><line  data-start="70" data-duration="30" class="clop-2" x1="117.96" y1="233.16" x2="168.04" y2="233.16"/><line  data-start="70" data-duration="30" class="clop-2" x1="117.96" y1="259.75" x2="168.04" y2="259.75"/><polyline data-start="40" data-duration="40"  class="clop-2" points="359 440 359 42.04 47.2 42.04"/><line  data-start="70" data-duration="30" class="clop-2" x1="133" y1="158.5" x2="203" y2="158.5"/><line  data-start="70" data-duration="30" class="clop-2" x1="47" y1="114.5" x2="120" y2="114.5"/><line  data-start="70" data-duration="30" class="clop-2" x1="202" y1="114.5" x2="247" y2="114.5"/><line  data-start="70" data-duration="30" class="clop-2" x1="47" y1="202.5" x2="189" y2="202.5"/><line  data-start="70" data-duration="30" class="clop-2" x1="277" y1="202.5" x2="332" y2="202.5"/><line  data-start="70" data-duration="30" class="clop-2" x1="196" y1="246.5" x2="332" y2="246.5"/><line  data-start="70" data-duration="30" class="clop-2" x1="47" y1="290.5" x2="176" y2="290.5"/><line  data-start="70" data-duration="30" class="clop-2" x1="250" y1="290.5" x2="332" y2="290.5"/><line  data-start="70" data-duration="30" class="clop-2" x1="147" y1="334.5" x2="219" y2="334.5"/><line  data-start="70" data-duration="30" class="clop-2" x1="47" y1="334.5" x2="74" y2="334.5"/><line  data-start="70" data-duration="30" class="clop-2" x1="302" y1="334.5" x2="332" y2="334.5"/><line  data-start="70" data-duration="30" class="clop-2" x1="47" y1="378.5" x2="94" y2="378.5"/><line  data-start="70" data-duration="30" class="clop-2" x1="168" y1="378.5" x2="332" y2="378.5"/><line  data-start="70" data-duration="30" class="clop-2" x1="102" y1="422.5" x2="338" y2="422.5"/><polyline data-start="70" data-duration="30"  class="clop-2" points="276.1 323.76 254.73 345.13 244.04 334.44"/><polyline data-start="70" data-duration="30"  class="clop-3" points="105.36 147.82 84 169.18 73.3 158.49"/><polyline data-start="70" data-duration="30"  class="clop-3" points="176.39 101.82 155.02 123.18 144.33 112.49"/><line  data-start="70" data-duration="30" class="clop-2" x1="64.5" y1="411" x2="64.5" y2="434"/><line  data-start="70" data-duration="30" class="clop-2" x1="76" y1="422.5" x2="53" y2="422.5"/><line  data-start="70" data-duration="30" class="clop-2" x1="213.5" y1="279" x2="213.5" y2="302"/><line  data-start="70" data-duration="30" class="clop-2" x1="225" y1="290.5" x2="202" y2="290.5"/><line  data-start="70" data-duration="30" class="clop-2" x1="79.5" y1="235" x2="79.5" y2="258"/><line  data-start="70" data-duration="30" class="clop-2" x1="91" y1="246.5" x2="68" y2="246.5"/><line  data-start="70" data-duration="30" class="clop-2" x1="110.5" y1="323" x2="110.5" y2="346"/><line  data-start="70" data-duration="30" class="clop-2" x1="122" y1="334.5" x2="99" y2="334.5"/><polyline data-start="20" data-duration="80"  class="clop-2" points="397.83 174.48 398.29 446.55 359 486.5 19.5 486.5 21.93 41.06 62 1.5 370 1.5"/><circle data-start="0" data-duration="20"  class="clop-4" cx="398" cy="165.64" r="9"/><circle data-start="20" data-duration="20"  class="clop-2" cx="359" cy="449" r="9"/></g></g></svg>
