<svg xmlns="http://www.w3.org/2000/svg" viewBox="0 0 716.91 397.05"><defs><style>.cls-1{fill:#fff;}.cls-1,.cls-2,.cls-3{stroke:#1a1a1a;stroke-miterlimit:10;stroke-width:3px;}.cls-2{fill:#f2f2f2;}.cls-3{fill:none;}</style></defs><title>Zasób 4</title><g id="Warstwa_2" data-name="Warstwa 2"><g id="Warstwa_1-2" data-name="Warstwa 1"><g id="Laptop"><circle id="webcam" class="cls-1" cx="359.43" cy="21.1" r="4.13"/><g id="bottom"><path id="Shape" class="cls-1" d="M662.5,395.55H54.4c-31.61,0-52.9-10.85-52.9-15.46v-14a2.84,2.84,0,0,1,3.09-2.5H712.31a2.84,2.84,0,0,1,3.09,2.5v14.57C715.4,384.28,698.91,395.55,662.5,395.55Z"/><path id="Line" class="cls-1" d="M2,378.52H713.49"/></g><rect id="screen" class="cls-2" x="99.49" y="41.73" width="516.86" height="301.21"/><path id="touchpad" class="cls-1" d="M435.76,364.59v3.18c0,2.27-4.47,3-7.85,3H289.1c-3.56,0-8.06-.68-8.06-3v-3.18"/></g><circle class="cls-1" cx="640" cy="115.88" r="9"/><rect class="cls-2" x="115.59" y="57.83" width="86.29" height="25.07"/><rect class="cls-2" x="339.76" y="64.09" width="43.14" height="12.53"/><rect class="cls-2" x="394.1" y="64.09" width="43.14" height="12.53"/><rect class="cls-2" x="448.43" y="64.09" width="43.14" height="12.53"/><rect class="cls-2" x="502.77" y="64.09" width="43.14" height="12.53"/><rect class="cls-2" x="557.11" y="64.09" width="43.14" height="12.53"/><line class="cls-3" x1="115.59" y1="57.83" x2="201.88" y2="82.89"/><line class="cls-3" x1="201.88" y1="57.83" x2="115.59" y2="82.89"/><rect class="cls-2" x="115.59" y="109.5" width="165.45" height="217.34"/><rect class="cls-1" x="291.63" y="109.5" width="308.63" height="217.34"/><rect class="cls-2" x="309.06" y="126.38" width="104.11" height="20.46"/><rect class="cls-2" x="309.06" y="156.64" width="182.52" height="14.07"/><rect class="cls-2" x="309.06" y="196.6" width="202.86" height="112.94"/><rect class="cls-1" x="155.17" y="160.83" width="86.29" height="114.69"/><line class="cls-3" x1="155.17" y1="160.83" x2="241.46" y2="275.51"/><line class="cls-3" x1="241.46" y1="160.83" x2="155.17" y2="275.51"/><path class="cls-3" d="M639.87,106.88V27.07H640A25.84,25.84,0,0,0,614.21,1.5H102.59A25.87,25.87,0,0,0,76.8,27.07V363.59H640"/></g></g></svg>