<svg xmlns="http://www.w3.org/2000/svg" viewBox="0 0 525 600"><defs><style>.cls-1{fill:#fff;}.cls-2{fill:none;}</style></defs><title>adam_g</title><g id="Warstwa_2" data-name="Warstwa 2"><g id="Warstwa_1-2" data-name="Warstwa 1"><path class="cls-1" d="M330.45,52.77c23.12-.46,32.48-25.74,41.1-43.14l-4.66-1.26c.67,11.54,1.47,23.92-3.66,34.64C358.5,52.9,349.58,60,341.05,66.44c-2.53,1.92,0,6.27,2.52,4.32,9.23-7,18.82-14.55,24-25.22,5.6-11.58,5.07-24.65,4.34-37.16-.13-2.29-3.48-3.64-4.66-1.26-7.64,15.42-16.1,40.26-36.79,40.66-3.21.06-3.22,5.06,0,5Z"/><path class="cls-1" d="M279.43,41.49c-8.84,5-18.89-8.33-22.42-14.92-4.09-7.64-4.37-16.6-8.84-24.07-1-1.68-4.23-1.63-4.57.6-1.75,11.6-2.63,24.4-1,36.06,1.18,8.56,5.56,16.46,14.08,19.36,3.05,1,4.36-3.79,1.33-4.82-9.15-3.12-10.76-13.52-10.93-21.91a161.7,161.7,0,0,1,1.36-27.36l-4.57.6c3.39,5.66,4,12.22,6.25,18.32a45.34,45.34,0,0,0,7.44,13c5.62,6.89,15.28,14.61,24.4,9.49,2.81-1.58.29-5.9-2.52-4.32Z"/><path class="cls-1" d="M393.28,546.51c-15.27-47.67-15.08-103,17.66-143.63,2-2.48-1.51-6-3.54-3.54-33.91,42.05-34.83,98.94-18.95,148.5,1,3.05,5.81,1.75,4.82-1.33Z"/><path class="cls-1" d="M465.42,371c17.44-14.91,31.74-35,35.41-58,3.43-21.57-2.41-43.68-17.9-59.36-7.25-7.34-15.81-13.48-22.32-21.55-8.35-10.37-8.88-22.1-3.32-34,5.23-11.22,13.37-21.13,16-33.48a29.49,29.49,0,0,0-.75-16.17c-2.1-5.79-6.38-10.3-9.12-15.74-3.7-7.36-2.45-15.71.55-23.09,2.57-6.31,7.08-12.39,6.5-19.54-.63-7.72-10.74-14.81-17-8.09-1.6,1.71-.33,4,1.77,4.27a40.38,40.38,0,0,0,21.57-3.32c1.27-.56,1.47-2.34.9-3.42a71.37,71.37,0,0,0-12.72-17.12,2.53,2.53,0,0,0-4.18,1.1,71.65,71.65,0,0,1-8.77,17c-1.84,2.65,2.49,5.15,4.32,2.52a76.61,76.61,0,0,0,9.27-18.2l-4.18,1.1A66.84,66.84,0,0,1,473.34,82l.9-3.42a35.8,35.8,0,0,1-19,2.64L457,85.45c1.95-2.08,4.7-1,6.52.7,2.58,2.44,2.28,6,1.39,9.12-1.6,5.67-5.15,10.64-6.93,16.28-3.38,10.67-1.57,19.89,4.48,29.07,3.44,5.22,6.56,10.13,6.66,16.61s-2.36,12.76-5.18,18.43c-5,10-12,19-14.63,30-4.58,19.41,9.4,32.52,22.52,44.29,7.46,6.7,14.45,13.63,18.87,22.78a65.5,65.5,0,0,1,6.08,31.8c-1.31,25.1-16.23,47-34.85,62.9-2.45,2.09,1.1,5.62,3.54,3.54Z"/><path class="cls-1" d="M123.17,377.35a83.16,83.16,0,0,0,50,10.28c3.16-.35,3.2-5.35,0-5a78.64,78.64,0,0,1-47.46-9.6c-2.81-1.58-5.33,2.74-2.52,4.32Z"/><path class="cls-1" d="M133.47,362.58,130.79,360l-3,3.93a67,67,0,0,0,47.93,9.37c3.16-.56,1.82-5.38-1.33-4.82a61.77,61.77,0,0,1-44.07-8.86c-2.4-1.53-5.07,2-3,3.93l2.68,2.58c2.32,2.23,5.86-1.3,3.54-3.54Z"/><path class="cls-1" d="M125.44,361.52l0,14h5a91.87,91.87,0,0,0-1.14-11c-.45-2.8-5-2.12-4.91.66l.26,8.18c.07,2.27,3.6,3.68,4.66,1.26l2.55-5.8-4.66-1.26A43.17,43.17,0,0,0,128,377a2.52,2.52,0,0,0,4.57.6l3-6.17-4.66-1.26.43,6.14a2.52,2.52,0,0,0,4.66,1.26l2.39-4-4.57-.6,1.49,4.12a2.54,2.54,0,0,0,4.57.6l2.42-3.15-4.66-1.26a10.45,10.45,0,0,0,1.75,7,2.52,2.52,0,0,0,3.93.51l2.51-2.94-3.93-.51,2.4,3.93a2.52,2.52,0,0,0,4.32,0l3.07-5.78L147,374.22a14.25,14.25,0,0,0,1.09,6.06,2.54,2.54,0,0,0,4.18,1.1,11.46,11.46,0,0,0,3.28-4.86l-4.57.6a11.66,11.66,0,0,0,3.45,4.64c1.14,1,3.15,1,3.93-.51L160,378h-4.32l3.05,6.29a2.52,2.52,0,0,0,4.32,0,33.23,33.23,0,0,0,3.18-8.51H161.4l2.69,8.43c.52,1.64,2.92,2.64,4.18,1.1a14.83,14.83,0,0,0,3.61-9.33c.13-3.27-4.67-3.13-5,0a7.1,7.1,0,0,0,2.61,6.62,2.54,2.54,0,0,0,4.18-1.1,16,16,0,0,0,1.19-5.58l-4.91.66,2.48,6.44c1.14,3,6,1.68,4.82-1.33l-2.48-6.44a2.51,2.51,0,0,0-4.91.66,8.88,8.88,0,0,1-1,4.25L173,379l-1.15-3.08h-5a9,9,0,0,1-2.15,5.79l4.18,1.1-2.69-8.43c-.71-2.23-4.25-2.52-4.82,0a28.51,28.51,0,0,1-2.68,7.31H163L160,375.43a2.52,2.52,0,0,0-4.32,0L154,378.74l3.93-.51a8.91,8.91,0,0,1-2.67-3.63c-.94-2.22-3.89-1.13-4.57.6l-2,2.65,4.18,1.1a11,11,0,0,1-.91-4.73c.06-2.44-3.49-3.46-4.66-1.26l-3.07,5.78h4.32l-2.4-3.93a2.52,2.52,0,0,0-3.93-.51l-2.51,2.94,3.93.51a4.91,4.91,0,0,1-1.06-4.44c.24-2.77-3.34-3-4.66-1.26l-2.42,3.15,4.57.6-1.49-4.12a2.53,2.53,0,0,0-4.57-.6l-2.39,4,4.66,1.26-.43-6.14c-.16-2.25-3.5-3.68-4.66-1.26l-3,6.17,4.57.6a36.6,36.6,0,0,1-.59-8.12c.07-2.35-3.64-3.58-4.66-1.26l-2.55,5.8,4.66,1.26-.26-8.18-4.91.66a80.72,80.72,0,0,1,1,9.63c.13,3.2,5,3.24,5,0l0-14c0-3.22-5-3.22-5,0Z"/><path class="cls-1" d="M128.61,516.95a35.19,35.19,0,0,1,.89-11.73L126.43,507a21.67,21.67,0,0,1,10.72,5.42,2.53,2.53,0,0,0,4.27-1.77,13.72,13.72,0,0,1,2.76-8l-3.93.51,8.57,7A2.54,2.54,0,0,0,153,509a13.9,13.9,0,0,1,5-7.08h-3.54l3.81,4.14a2.52,2.52,0,0,0,3.93-.51,2.5,2.5,0,0,1,2.2-2c-.3,3.2,4.71,3.18,5,0a5,5,0,0,0-4.32-5.46c-3.41-.55-5.82,2.22-7.2,5l3.93-.51L158,498.4a2.57,2.57,0,0,0-3.54,0,18.26,18.26,0,0,0-6.32,9.28l4.18-1.1-8.57-7a2.55,2.55,0,0,0-3.93.51,18.63,18.63,0,0,0-3.44,10.54l4.27-1.77a26.82,26.82,0,0,0-12.92-6.7,2.55,2.55,0,0,0-3.08,1.75,39.68,39.68,0,0,0-1.07,13.06c.27,3.18,5.27,3.21,5,0Z"/><path class="cls-1" d="M340.24,146.84a14.29,14.29,0,0,0-15.86,10.61c-1.56,6.54,1.26,13.56,7.44,16.5,13.39,6.37,26.27-9.15,18.19-21.27-1.78-2.66-6.11-.16-4.32,2.52,5.1,7.64-1.73,17.91-10.9,14.59a9.27,9.27,0,0,1-5.72-10.47c1-5.45,5.94-8.14,11.17-7.49,3.19.4,3.16-4.61,0-5Z"/><path class="cls-1" d="M123.63,17a368.54,368.54,0,0,0,8.45,39.56c.82,2.94,2.18,7.27,6.17,6.48s7.88-7.05,10.28-10a114.88,114.88,0,0,0,9.79-13.93c2-3.3,5-7.22,1.76-10.61-3.66-3.79-10.79-6.16-15.55-8.25A144.07,144.07,0,0,0,127.4,14c-3.09-.91-4.41,3.91-1.33,4.82a134.07,134.07,0,0,1,25.44,10.32q1.55.83,3.08,1.7,2.51.49,1.14,2.71c-.17,1.36-1.92,3.36-2.61,4.47A106,106,0,0,1,145,49.51q-1.91,2.34-3.95,4.57-1.16,1.27-2.37,2.51-1.4,2.35-1.28.48c-.6-.49-1.29-4.82-1.49-5.59q-1-3.73-1.85-7.48c-2.22-9.38-4.07-18.84-5.62-28.35-.52-3.17-5.33-1.82-4.82,1.33Z"/><path class="cls-1" d="M41.19,10.15A286.74,286.74,0,0,1,24.11,41.49a2.52,2.52,0,0,0,1.49,3.67l33.52,9.1L58,50.09,24.33,82.26a2.52,2.52,0,0,0,1.1,4.18q17.6,4.37,35,9.51l-1.1-4.18Q42.2,110.63,23.65,128.1l4.27,1.77L29,114.33l-4.91.66a77.5,77.5,0,0,1,.86,14.11,2.51,2.51,0,0,0,2.5,2.5c2.94-.37,5.85-.82,8.74-1.47,1.56-.35,7-2.81,8.25-2.16l-1.15-2.82.38-.55,3,.39-.33-.38c-2.1-2.44-5.63,1.11-3.54,3.54l.33.38a2.55,2.55,0,0,0,3,.39,2.94,2.94,0,0,0,1.92-2.44A2.58,2.58,0,0,0,47,123.66c-2.51-1.33-4.08-.57-6.81.26a77.78,77.78,0,0,1-12.7,2.68l2.5,2.5a85,85,0,0,0-1-15.44c-.46-2.94-4.73-2-4.91.66l-1.08,15.54c-.16,2.26,2.79,3.16,4.27,1.77q18.54-17.47,35.67-36.33a2.53,2.53,0,0,0-1.1-4.18q-17.39-5.14-35-9.51l1.1,4.18L61.56,53.62a2.52,2.52,0,0,0-1.1-4.18l-33.52-9.1L28.43,44A286.74,286.74,0,0,0,45.51,12.67c1.35-2.9-3-5.44-4.32-2.52Z"/><path class="cls-1" d="M37.8,143a184.71,184.71,0,0,1-9.3,40c-.7,2,1.91,4,3.67,2.82a79.34,79.34,0,0,0,15.77-14.28L44,171.06c5.73,8.77,11.41,17.56,17.19,26.3,3.72,5.64,7.89,7.44,13.48,2.44,2.71-2.43,6.26-5.4,8.29-8.42,1.53-2.28,1-3.91-.78-5.83-3.11-3.38-7.12-6.1-10.35-9.44a112,112,0,0,1-9.72-11.58l-1.49,3.67,15.58-3.14c2.12-.43,2.42-3.58.6-4.57L42.5,141.82c-2.83-1.54-5.35,2.78-2.52,4.32l34.31,18.68.6-4.57L59.3,163.38a2.51,2.51,0,0,0-1.49,3.67A120.81,120.81,0,0,0,69.53,180.9q3.09,3.1,6.42,6,1,.86,2,1.68,1.43.63-.15,1c-.31,1-2.32,2.34-3,3.07-2.68,2.7-5,6.68-8.73,3-2.36-2.34-4.08-6.24-5.91-9L48.33,168.54c-.81-1.24-2.83-1.8-3.93-.51a74.52,74.52,0,0,1-14.76,13.5l3.67,2.82A190.47,190.47,0,0,0,42.8,143c.37-3.19-4.63-3.16-5,0Z"/><path class="cls-1" d="M123.24,481.25l-.08-.28a2.54,2.54,0,0,0-2.41-1.84A3,3,0,0,0,118,480.7a2.56,2.56,0,0,0,.39,3c1.88,2.25,6.09,1.74,8.71,1.78A68.31,68.31,0,0,0,166.4,473.6c2.65-1.79.15-6.12-2.52-4.32a64.87,64.87,0,0,1-20.33,9.27,62.75,62.75,0,0,1-10.72,1.79c-1.8.14-9.83,1.19-10.95-.14l.39,3,.21-.32-2.16,1.24h.42l-2.41-1.84.08.28c.85,3.1,5.68,1.78,4.82-1.33Z"/><path class="cls-1" d="M118.52,468.85a103.17,103.17,0,0,0,48.39-14.15,2.54,2.54,0,0,0,1.15-2.82A6.12,6.12,0,0,0,165,448c-2.79-1.61-5.32,2.71-2.52,4.32l.78.89,1.15-2.82a97.74,97.74,0,0,1-45.86,13.47c-3.21.13-3.22,5.13,0,5Z"/><path class="cls-1" d="M258.87,343.78c6.17-.27,10.73,6.17,16.84,7.11,6.54,1,12.08-4.43,18.11-7.17,11.57-5.26,26.94,1,31.49,12.91a34.12,34.12,0,0,0,7.7,58.11q-10.24,15.52-21.12,30.6c-3.15,4.37-7.06,9.12-12.44,9.43-4.57.27-8.56-2.79-12.67-4.8a29.67,29.67,0,0,0-23.46-1c-3,1.16-5.8,2.82-8.93,3.47-7.29,1.52-14.6-2.73-19.88-8-17.73-17.62-20.07-45.65-16.22-70.35.85-5.44,2-10.93,4.57-15.78,6.66-12.45,23.52-18.23,36.42-12.51"/><path class="cls-1" d="M258.87,346.28c6.05.19,10.25,6,16.17,7s11-2.37,15.92-5.2c11.21-6.53,26.53-3.67,31.93,9.2l.64-2.43c-20.85,17.3-16.44,50.76,8.21,62l-.9-3.42q-7.83,11.83-16,23.43c-5.09,7.2-10.92,18.81-21.33,13.82-6.64-3.18-12.35-6.27-20-6.18a31.61,31.61,0,0,0-10.13,1.76c-4,1.42-7.76,4-12.15,4-8.75,0-16.13-7.75-20.75-14.42a61,61,0,0,1-8.85-20.16c-3.66-14.74-3.2-31-.1-45.77,1.79-8.58,5.69-16,13.6-20.33a27.08,27.08,0,0,1,23.44-1.32c3,1.23,4.27-3.61,1.33-4.82-13.71-5.65-30.84-.26-38.59,12.51-4.47,7.37-5.56,16.52-6.44,24.93a112.6,112.6,0,0,0,.22,27c2.19,16.13,9.11,33.48,23.09,42.95,7.7,5.21,15.12,5.26,23.42,1.63a29.24,29.24,0,0,1,15.58-2.67c5.43.66,9.63,3.35,14.46,5.61,8.76,4.09,15.53.18,21-7,8-10.4,15.23-21.47,22.46-32.4a2.51,2.51,0,0,0-.9-3.42,32.08,32.08,0,0,1-7.2-54.18,2.41,2.41,0,0,0,.64-2.43,27.16,27.16,0,0,0-28.53-16.35c-7.49,1.05-12.6,7.14-19.75,8.64-7.48,1.57-13-6.75-20.56-7-3.22-.1-3.22,4.9,0,5Z"/><path class="cls-1" d="M272.5,341.67a30.9,30.9,0,0,1,30.68-35.46c-1.61,8.55-4.09,17.13-9,24.3s-12.63,12.83-21.3,13.6"/><path class="cls-1" d="M275,341.67c-2.12-17.41,10.48-32.55,28.18-33l-2.41-3.16c-3,15.29-10.1,33.88-27.9,36.07-3.15.39-3.19,5.39,0,5,20.26-2.49,29.22-21.81,32.72-39.74a2.53,2.53,0,0,0-2.41-3.16,33.86,33.86,0,0,0-33.18,38c.38,3.15,5.39,3.19,5,0Z"/><path class="cls-1" d="M39.21,252.18c5.32,5.36,13.06-1.26,19.42-.16,1.37.24,6.84,1.65,7,3.21.06.71-1.91,2.42-2.33,3a16.9,16.9,0,0,0-2.63,7,19,19,0,0,0,4.49,15.37,16.41,16.41,0,0,0,3.11,2.64,22,22,0,0,0,2,1.1,5,5,0,0,1-1.92,4.5c-2.5,3.58-6.18,6.76-9.19,9.93-2.17,2.29-2.92,2.14-5.92,1.43-1.9-.45-3.64-1.2-5.6-1.48a14.87,14.87,0,0,0-10.43,2c-2.17,1.35-3.88,3.77-7,2.39-2.1-.94-3.65-3.58-4.94-5.33a67,67,0,0,1-6.9-10.94,31.57,31.57,0,0,1,.58-27.44c5.83-10.77,17.12-6.16,26.25-2.95,3,1.07,4.35-3.76,1.33-4.82-7.31-2.58-15.77-6.29-23.44-2.94-6.17,2.69-9.58,9-11.16,15.29-1.92,7.61-1.94,15.73,1.08,23A60.79,60.79,0,0,0,19.9,299c2.06,2.89,4.15,6.2,7.2,8.15a8.6,8.6,0,0,0,7.45,1.14c4.83-1.56,6.88-5.43,12.7-4.49,3.31.53,7.31,3.46,10.71,2.45s6.13-5.41,8.39-7.84c3.27-3.52,12.57-10.6,8.7-16.32-1.53-2.27-4.58-2.9-6.38-5a14,14,0,0,1-3.12-10.83c.81-6.24,9.44-10.41,2.15-15.71a20.26,20.26,0,0,0-16.56-3.16c-2,.5-6.53,3.12-8.4,1.24-2.27-2.29-5.81,1.25-3.54,3.54Z"/><path class="cls-1" d="M45.88,243.54c-2.41-7.29,3.3-14.67,11.13-13.22l-1.49-3.67c-2.16,3.73-3.57,16.28-9.93,14.44-3.1-.89-4.42,3.93-1.33,4.82,4,1.14,7.62-.7,10.08-3.83,3-3.79,3.12-8.82,5.5-12.91a2.52,2.52,0,0,0-1.49-3.67c-11.32-2.1-21,8.17-17.28,19.37,1,3,5.84,1.74,4.82-1.33Z"/><path class="cls-1" d="M29.19,392.83c1.13-4,.7-7.88,1.16-11.94.63-5.65,3.25-7.83,8.93-7.72,10,.19,20,1.12,30,1.67l14.52.81c5.47.32,11.07.6,11.57,7.4.31,4.2-.59,8.61-1.11,12.77-.7,5.59-1.55,11.17-2.47,16.73l4.18-1.1a4.38,4.38,0,0,1-2.26-3.8c-.57-3.16-5.39-1.82-4.82,1.33a9.44,9.44,0,0,0,3.54,6c1.29,1.05,3.84.94,4.18-1.1q1.66-10,2.89-20c.58-4.81,1.69-10.18.24-14.94-3.18-10.45-18.21-8.42-26.58-8.89l-20.32-1.13c-5.82-.32-12.45-1.62-18.23-.6-11.39,2-8,15.26-10.23,23.17-.88,3.1,3.94,4.42,4.82,1.33Z"/><path class="cls-1" d="M25.5,386.64c.07,6.31.1,12.61.22,18.92.06,3.56.18,7.7,3.27,10.08,3.3,2.54,8.78,2,12.66,2.27l18.55,1.42,17.57,1.34c4.38.33,9.35,1.21,13.47-.82,5.05-2.48,7-10.73,1-13.43-2.91-1.32-5.45,3-2.52,4.32s0,4.36-1.46,4.94a11.64,11.64,0,0,1-4.41.41c-3.34-.08-6.69-.47-10-.72l-21.48-1.64c-5.18-.4-21,.8-21.62-5.8-.65-7-.19-14.27-.27-21.29,0-3.22-5-3.22-5,0Z"/><path class="cls-1" d="M31.35,408c-7.26,5.44-14.75,10.68-21.8,16.39-4.14,3.35-8.45,8.13-6.62,13.91,1.61,5.06,7.06,7.32,11.8,8.39,8,1.8,16.38,2.57,24.52,3.67,9,1.22,18.1,2.33,27.19,2.95,2.8.19,5.62.5,8-1.2,3-2.14,4.82-6.44,6.81-9.49L88.8,431c2-3.09,5-6.44,6.29-9.93,1.34-3.76-1.53-9.07-5.93-6.1-2.65,1.79-.15,6.13,2.52,4.32-4.49,3-7.42,9.53-10.43,14.14l-4.31,6.61c-1.6,2.45-3.15,6-5.69,7.51-4,2.38-12.92,0-17.46-.46-6.25-.68-12.49-1.49-18.72-2.37-5.48-.78-11-1.51-16.43-2.43-4-.67-12.1-2.1-11-7.85.89-4.75,7.79-8.32,11.31-11l14.94-11.21c2.54-1.91.05-6.25-2.52-4.32Z"/><path class="cls-1" d="M33.3,378.17l-.8,13.46c-.18,3.1-.93,6.56-.4,9.63,1.07,6.23,8.29,5.77,13.32,6.59q12.66,2,25.32,4c3.88.6,7.79,1.41,11.7,1.8,1.81.18,3.47.26,4.83-1.16,1.7-1.78,1.53-5.1,1.82-7.32l1.47-11.55c.62-4.89,1.51-10.13-4.19-12.06-2.53-.86-5.44-.68-8.06-.86q-6.76-.45-13.49-1.27a259.42,259.42,0,0,1-26-4.58c-3.13-.71-4.47,4.11-1.33,4.82a268.52,268.52,0,0,0,33.13,5.38c3.44.34,15.05-.72,15.58,3.41.35,2.67-.77,6.33-1.11,9s-.15,6.31-1.1,8.66c-1.41,3.45-4.87,2-8,1.5l-8.77-1.36q-8.77-1.37-17.53-2.78c-2.92-.47-5.84-.93-8.76-1.42-.69-.11-2.49-.07-3.06-.54-1.29-1-.72-3.7-.64-5.1l1.09-18.27c.19-3.21-4.81-3.2-5,0Z"/><path class="cls-1" d="M189.45,160.43c-4.49-9.94-18.24-4.63-19.4,4.69-.76,6.15,2.32,11.71,6.67,15.83a64.3,64.3,0,0,0,7.83,6c2.78,1.92,6.87,6,10.25,6.63,2.06.36,3.3-.49,4.62-2,2.71-3.19,4.56-7.73,6.53-11.4,3.06-5.71,7.3-12.57,5.34-19.33A12.57,12.57,0,0,0,200,152.09c-6.23-.45-11.33,3.3-14.61,8.3-1.77,2.7,2.56,5.21,4.32,2.52,2.35-3.58,6.11-6.45,10.6-5.73,5.49.89,7.23,5.78,5.85,10.68-1,3.73-3.2,7.21-5,10.59-1.46,2.7-3.89,9.45-6.67,10.67H197c-3.55-1.55-6.75-4.3-9.95-6.51s-6.47-4.39-8.92-7.4c-2.68-3.29-4.72-8.7-2.07-12.63,2.2-3.26,7.37-3.34,9,.37,1.32,2.93,5.63.39,4.32-2.52Z"/><path class="cls-1" d="M490.55,20.39c-2.87,0-5.21-2.06-8.11-2A8.91,8.91,0,0,0,477,20.5a12.47,12.47,0,0,0-4.3,11.43c.85,5.61,5.07,10,9,13.7,5.81,5.5,11.71,10.91,17.57,16.36a2.54,2.54,0,0,0,3.93-.51c7.24-10.34,17.22-27,10.41-39.7-4.82-9-19-10.58-22.43.45-1,3.08,3.87,4.4,4.82,1.33,1.49-4.81,7.37-5.33,10.86-2.42,3.72,3.11,4.32,8.33,3.66,12.8-1.32,9-6.53,17.7-11.65,25l3.93-.51c-7-6.49-14.65-12.66-21-19.78-3.08-3.46-6.06-8.49-3-12.92s7.49-.4,11.64-.35c3.22,0,3.22-5,0-5Z"/><path class="cls-1" d="M492.44,204.67a8.83,8.83,0,0,0-12.55.21c-3.57,3.71-3.35,9.68-1.17,14,2.72,5.4,7.95,9.59,12.66,13.17,4.87,3.7,8.95,6.46,14.67,2.86,8.92-5.61,19-15.22,14.29-26.74a11.41,11.41,0,0,0-10-7.43c-6.45-.21-11.45,4.93-15.29,9.46l4.18,1.1a15.26,15.26,0,0,0-8.66-9.8c-2.92-1.27-5.47,3-2.52,4.32a10.47,10.47,0,0,1,6.37,6.81c.53,1.65,2.89,2.62,4.18,1.1,3.86-4.56,12.65-12.88,17-4.12,3.18,6.42-1.46,12.66-6.19,16.67-2.42,2.05-6.7,6.12-10.24,5.06-3.08-.93-6.19-4.3-8.57-6.39s-5.13-4.49-6.8-7.32a10,10,0,0,1-1.53-4.56c-.18-3.23,2.79-8.59,6.69-4.88,2.33,2.22,5.87-1.31,3.54-3.54Z"/><path class="cls-1" d="M414.06,377.46l2.76,1.21c.46,2,2.8,2.19,4.18,1.1l8.81-7-4.18-1.1c.65,4.28,2.57,9.42,7.79,9.38a5.61,5.61,0,0,0,4.36-2.13,14.44,14.44,0,0,0,1.09-2.13c1.65-2.9,5.62-6.42,7.91-1,.75,1.78,3.49,2.73,4.57.6l3.51-6.91h-4.32a23.78,23.78,0,0,0,4.86,5.71,2.53,2.53,0,0,0,3.54,0l4.67-5.51c2.07-2.44-1.45-6-3.54-3.54l-4.67,5.51h3.54a19.67,19.67,0,0,1-4.08-4.7,2.52,2.52,0,0,0-4.32,0L447,373.91l4.57.6c-1.75-4.16-5.43-7.17-10.21-6.28a9.15,9.15,0,0,0-5.45,3.36c-.5.64-.73,1.73-1.28,2.25q-.44,3-3.61-.29a22.81,22.81,0,0,1-.59-3.16c-.31-2.08-2.9-2.11-4.18-1.1l-8.81,7,4.18,1.1c-1.94-8.47-14.38-7.48-12.41,1.45.7,3.14,5.52,1.81,4.82-1.33Z"/><path class="cls-1" d="M420.13,403.34A16.54,16.54,0,0,1,425,397l-3.93-.51a22.78,22.78,0,0,0,6.62,6.79,2.51,2.51,0,0,0,3-.39l6.57-7.5h-3.54l5.41,5.21a2.53,2.53,0,0,0,3.93-.51,28.72,28.72,0,0,1,3.55-4.55l-3.93-.51,4,5.86c.93,1.37,3.52,1.87,4.32,0a23.09,23.09,0,0,1,3.92-6.41L451,394l2.08,3.86a2.52,2.52,0,0,0,4.32,0l.81.29a2.52,2.52,0,0,0,3.93.51c2.43-2.59,3.35-6.5-.58-8-3-1.13-4.32,3.7-1.33,4.82l.74.27-1.75-1.75-.62,1.08,3.93.51c-1.82-4.07-7.3-3.93-9.45-.29h4.32l-2.08-3.86a2.52,2.52,0,0,0-3.93-.51,27.36,27.36,0,0,0-4.7,7.42H451l-4-5.86a2.53,2.53,0,0,0-3.93-.51,35.07,35.07,0,0,0-4.33,5.56l3.93-.51-5.41-5.21a2.53,2.53,0,0,0-3.54,0l-6.57,7.5,3-.39a16.51,16.51,0,0,1-4.83-5,2.55,2.55,0,0,0-3.93-.51,19.27,19.27,0,0,0-5.7,7.31c-1.33,2.9,3,5.45,4.32,2.52Z"/><path class="cls-1" d="M421.82,420.74a64.06,64.06,0,0,0,47-9.44c2.66-1.78.16-6.11-2.52-4.32a58.94,58.94,0,0,1-43.18,8.94c-3.15-.57-4.5,4.25-1.33,4.82Z"/><path class="cls-1" d="M313.62,240.86a52.88,52.88,0,0,1,2.11-14.09l-4.57.6a64.42,64.42,0,0,1,6,12.05c.93,2.5,5,2.33,4.91-.66a176.2,176.2,0,0,1,.78-21.07l-4.91.66a111,111,0,0,0,8.11,20.73c1.17,2.28,4.62,1.11,4.66-1.26l.11-6.34-3.76,2.16,4.48,2.55a2.52,2.52,0,0,0,3.76-2.16,91.2,91.2,0,0,0-3.47-23.39l-4.57,1.93L339,228.4c1.89,2.56,6.23.07,4.32-2.52L331.59,210c-1.59-2.15-5.4-1-4.57,1.93A85.78,85.78,0,0,1,330.31,234l3.76-2.16-4.48-2.55a2.53,2.53,0,0,0-3.76,2.16l-.11,6.34,4.66-1.26A104.39,104.39,0,0,1,322.77,217c-.8-2.86-4.65-2-4.91.66a176.2,176.2,0,0,0-.78,21.07l4.91-.66a70.93,70.93,0,0,0-6.51-13.25,2.53,2.53,0,0,0-4.57.6,58.21,58.21,0,0,0-2.29,15.42c0,3.22,5,3.22,5,0Z"/><path class="cls-1" d="M57.94,585.59c-11.78,3.17-22.8-5.3-26.2-16.34-3.62-11.77.44-23.31,5-34.13,6.19-14.59,12.83-36.79-4.56-46.81-2.8-1.61-5.26,2.63-2.52,4.32,11.58,7.14,16.91,19.61,15.69,32.91-.85,9.2-1,23,11,24.86,2,.32,4.05-1.64,2.82-3.67-4.43-7.31-1.84-15.8-.57-23.65,1.07-6.6,1.62-13.32-1.2-19.58C54,496,47.27,491.2,41.39,485.85c-6.27-5.71-14.26-16-6.94-24.18l-4.27-1.77c-.4,17.58,17.27,25.49,28.74,35.24a34.94,34.94,0,0,1,8.18,9.32c2.92,5.25,2.5,10.6,1.55,16.34-1.22,7.41-2,15.24,3.79,21,1.93,1.95,5.68-.7,3.93-3-7.46-9.93,6.6-21.9,9.3-31.27l-4.91-.66c.92,8,4.43,15,7.17,22.47a43.27,43.27,0,0,1,1.82,25.31,41.78,41.78,0,0,1-35.63,31.42c-3.15.38-3.19,5.39,0,5C71.21,589,86.3,578.23,92.65,562a47.41,47.41,0,0,0,2.49-25.45c-1.82-10.31-8.19-19.24-9.39-29.7-.31-2.66-4.08-3.56-4.91-.66-3.2,11.09-18,22.92-8.8,35.12l3.93-3c-7.07-7.12-.78-18.45-1.6-27.06-.61-6.47-4.14-12-8.63-16.59-10.27-10.39-31-17.55-30.56-34.73a2.53,2.53,0,0,0-4.27-1.77c-4.91,5.48-5.31,13.15-2.28,19.73,4.1,8.87,13,13.87,19.4,20.79,7.88,8.46,6.7,17.59,4.85,28.1-1.36,7.71-2.28,15.49,2,22.49l2.82-3.67c-7.53-1.18-8.17-9.54-7.72-15.66.44-6,1.13-11.56-.22-17.48A38.61,38.61,0,0,0,32.2,488.3l-2.52,4.32c9.83,5.67,10.12,18.62,7.21,28.32-3.45,11.51-10,21.8-11.31,34-1,9.91,1.29,20.62,8.35,28,6.53,6.8,16.14,10,25.32,7.55,3.1-.84,1.79-5.66-1.33-4.82Z"/><path class="cls-1" d="M52.43,479.3a47.74,47.74,0,0,1,17.81,15c1.86,2.59,6.2.1,4.32-2.52A52.86,52.86,0,0,0,55,475c-2.87-1.42-5.41,2.89-2.52,4.32Z"/><path class="cls-1" d="M53.7,477.7c4.58,2.92,9.67,3.1,14.84,4.21,3.1.67,7.17,1.92,8.23,5.38,1.61,5.27-4.06,5.76-7.25,3.67-2.7-1.77-5.21,2.56-2.52,4.32,6.73,4.41,17.21.51,14.75-8.71-3.12-11.72-17.51-8.07-25.52-13.19C53.51,471.65,51,476,53.7,477.7Z"/><path class="cls-1" d="M98.83,127.34c3.2,10.47,15.36,11.88,24.14,7.88,6.84-3.12,12.89-8.25,18.94-12.64s11.93-8.77,17.74-13.36c10.41-8.24,22.76-17.36,28-30,3.65-8.9,1.9-23.45-10.85-21.55-3.17.47-1.82,5.29,1.33,4.82,7.58-1.13,6.94,9.19,5.4,13.58a37.21,37.21,0,0,1-8,12.54c-6.77,7.39-14.87,13.7-22.78,19.8s-16.16,12.14-24.44,17.9c-6.37,4.43-21,11.47-24.57-.25-.94-3.07-5.76-1.76-4.82,1.33Z"/><path class="cls-1" d="M132.64,135c-3.67-3.68-9.3.64-8.16,5.25,1.23,5,7.69,8.53,12.3,5.88,4-2.32,5.77-8.11,2.27-11.68a8.07,8.07,0,0,0-11.45,0c-2.17,2.37,1.36,5.92,3.54,3.54,1.67-1.83,5.79-.7,4.61,2.16a2.71,2.71,0,0,1-3.73,1.6,5.56,5.56,0,0,1-2.26-1.89,2.91,2.91,0,0,1-.45-1c-.12-.56.53.42-.2-.31,2.28,2.28,5.81-1.26,3.54-3.54Z"/><path class="cls-1" d="M190.91,91.89c-4.27-2-8.38,2.18-7.68,6.53s5.53,7.76,9.9,6.38c4-1.26,6.59-6,4.91-10a7.5,7.5,0,0,0-10.28-3.57c-2.87,1.45-.34,5.77,2.52,4.32,2.53-1.28,4.34,2.19,2.27,3.95a2.54,2.54,0,0,1-3.5-.29,2.63,2.63,0,0,1-.92-1.79c0-.6.68-1,.25-1.23,2.89,1.37,5.43-2.93,2.52-4.32Z"/><path class="cls-1" d="M398.54,130.83c-7.36-8.53-21.58-1.29-18,9.76,1.86,5.77,7.93,9.24,12.93,11.94,7.15,3.85,14.85,6.54,22.49,9.21A2.52,2.52,0,0,0,419,160c2.76-12.23,9.91-29.5-2-39.15-4-3.25-10-4.79-14.72-2.18a10.35,10.35,0,0,0-4.8,12.66c1.16,3,6,1.67,4.82-1.33-2.45-6.25,4.78-9,9.48-6.63a13.16,13.16,0,0,1,6.8,10c1.15,8-2.64,17.55-4.4,25.32l3.08-1.75c-8.1-2.83-16.25-5.68-23.67-10-3.13-1.84-7.57-4.38-8.49-8.26-1.49-6.31,6.2-8.51,9.88-4.25,2.11,2.44,5.63-1.11,3.54-3.54Z"/><path class="cls-1" d="M502.72,525.1c-7.19-5.23-16.89-3.64-23,2.52A26.5,26.5,0,0,0,473.12,552c1.94,8,8.51,14.77,16.82,16,9.81,1.44,17.76-5.35,24.42-11.62,1.46-1.37.44-4.54-1.77-4.27-7.45.91-18.35,5.53-21.47-4.53-2.4-7.74,4-13.91,10.46-16.79,2.93-1.31.39-5.62-2.52-4.32-8.6,3.84-15.7,12.59-12.76,22.44a14.09,14.09,0,0,0,8,9.24c6,2.39,12.25-.31,18.25-1l-1.77-4.27c-4.43,4.17-9.42,9-15.65,10.14-7.51,1.38-14.5-3.83-16.81-10.81-4-12.24,7.72-33,21.83-22.74,2.6,1.9,5.1-2.44,2.52-4.32Z"/><path class="cls-1" d="M133.3,325.66l2.13,19.61c.29,2.64,4.13,3.59,4.91.66a69.08,69.08,0,0,1,4-11.22H140l5.57,11.34c1.14,2.31,4.62,1.09,4.66-1.26a12.3,12.3,0,0,1,2.63-7.64l-4.57-.6a77.82,77.82,0,0,0,9.83,24.12,2.52,2.52,0,0,0,4.66-1.26l.24-17.06c0-2.94.52-6.33-2.57-7.87a2.58,2.58,0,0,0-3,.39l-.4.4c-2.28,2.27,1.25,5.81,3.54,3.54l.4-.4-3,.39c.87.43,0,9.07,0,10.18l-.15,10.42,4.66-1.26a73.66,73.66,0,0,1-9.33-22.93c-.51-2.29-3.4-2.21-4.57-.6a17,17,0,0,0-3.31,10.17l4.66-1.26-5.57-11.34a2.51,2.51,0,0,0-4.32,0,76.69,76.69,0,0,0-4.5,12.41l4.91.66-2.13-19.61c-.34-3.16-5.35-3.2-5,0Z"/><path class="cls-1" d="M135.39,563.29a27.65,27.65,0,0,0,30.31-14.92c1.39-2.89-2.92-5.43-4.32-2.52a22.64,22.64,0,0,1-24.66,12.62c-3.14-.62-4.49,4.2-1.33,4.82Z"/><path class="cls-1" d="M129.88,551.69c15.57,2.07,26.65-10.17,34.27-22.08,1.74-2.72-2.59-5.23-4.32-2.52-6.75,10.53-16.13,21.43-30,19.6-3.18-.42-3.15,4.58,0,5Z"/><path class="cls-1" d="M413.41,490.16a86.43,86.43,0,0,0,20.32,11.14c2.89,1.11,20.62,7.74,22.21,3.74l1.75-1.75.26,0,1.84,2.41v-.42c0-3.22-5-3.22-5,0v.42a2.55,2.55,0,0,0,1.84,2.41c2.34.6,4.9-1,4.34-3.62-.84-4-7.86-3.37-10.59-3.84a81.18,81.18,0,0,1-34.44-14.86c-2.6-1.91-5.09,2.43-2.52,4.32Z"/><path class="cls-1" d="M120.7,207.87a8.9,8.9,0,0,0,3,12.24,8.69,8.69,0,0,0,11.94-3.49A9.34,9.34,0,0,0,133,205a10.17,10.17,0,0,0-12.83,1.34c-2.27,2.28,1.26,5.82,3.54,3.54,3.18-3.19,9.37-1,7.79,3.93s-9.25,1.42-6.45-3.36c1.63-2.78-2.69-5.3-4.32-2.52Z"/><path class="cls-1" d="M106.34,195.23c-12,8-8.81,23.8-4.33,35.26,2.24,5.72,6.29,7.66,12.09,8.77,7.15,1.37,14.95,2.23,22.2,1.27,12.53-1.64,17.5-17,17.65-28,.17-12-5.85-23.31-17-28.26-13.17-5.84-28.13-.59-35.69,11.39-1.72,2.73,2.6,5.24,4.32,2.52a23.5,23.5,0,0,1,32.77-7.51c10.19,6.61,12.4,19.92,9.23,30.93-1.94,6.73-5.45,13.48-13.13,14.11a69.79,69.79,0,0,1-20.81-1.64c-3.48-.8-5.7-2-7.07-5.58a71.35,71.35,0,0,1-2.82-9.35c-1.61-6.91-1.39-15.24,5.1-19.59,2.66-1.78.16-6.12-2.52-4.32Z"/><path class="cls-1" d="M122.76,195.35h.94a2.5,2.5,0,0,0,0-5h-.94a2.5,2.5,0,1,0,0,5Z"/><path class="cls-1" d="M137.84,205.72c3.22,0,3.22-5,0-5s-3.22,5,0,5Z"/><path class="cls-1" d="M127.47,200.06c3.22,0,3.22-5,0-5s-3.22,5,0,5Z"/><path class="cls-1" d="M108.63,215.14c3.22,0,3.22-5,0-5s-3.22,5,0,5Z"/><path class="cls-1" d="M113.34,204.77c3.22,0,3.22-5,0-5s-3.22,5,0,5Z"/><path class="cls-1" d="M115.23,227.38c3.22,0,3.22-5,0-5s-3.22,5,0,5Z"/><path class="cls-1" d="M135,232.09c3.22,0,3.22-5,0-5s-3.22,5,0,5Z"/><path class="cls-1" d="M142.55,221.73c3.22,0,3.22-5,0-5s-3.22,5,0,5Z"/><path class="cls-1" d="M125.59,229.27c3.22,0,3.22-5,0-5s-3.22,5,0,5Z"/><path class="cls-1" d="M129.36,235.86h.94a2.5,2.5,0,0,0,0-5h-.94a2.5,2.5,0,0,0,0,5Z"/><path class="cls-1" d="M141.6,214.19c3.22,0,3.22-5,0-5s-3.22,5,0,5Z"/><path class="cls-1" d="M391.76,95a53.48,53.48,0,0,0-2.46-13l-4.57,1.93c4.66,9,9.46,17.82,16.24,25.41,1.82,2,4.56-.19,4.18-2.43l-3.29-19.33c-.91-5.32-4.31-14.4-1-19.21h-4.32a96.75,96.75,0,0,1,13,26L414.33,93a76.09,76.09,0,0,1-5.18-36.77l-4.66,1.26c9.48,14.72,11.2,32.75,19.64,48,1.47,2.66,5,.7,4.57-1.93L418.71,38l-4.82,1.33a136.72,136.72,0,0,0,17.66,38.52c1.65,2.49,5,.81,4.57-1.93L432.7,51.42l-4.82,1.33A37.56,37.56,0,0,0,433.59,66a2.53,2.53,0,0,0,4.57-.6,55.43,55.43,0,0,0,1.91-13l-4.66,1.26a22.16,22.16,0,0,1,2.81,6.18c.75,2.66,5,2.21,4.91-.66a18.68,18.68,0,0,0-1.66-7.09c-1.28-2.94-5.59-.4-4.32,2.52a9.63,9.63,0,0,1,1,4.56l4.91-.66a26.54,26.54,0,0,0-3.31-7.37,2.52,2.52,0,0,0-4.66,1.26,49.67,49.67,0,0,1-1.73,11.64l4.57-.6a33.8,33.8,0,0,1-5.21-12.08c-.71-3.22-5.25-1.76-4.82,1.33l3.42,24.46,4.57-1.93A132.28,132.28,0,0,1,418.71,38c-.9-3.17-5.29-1.78-4.82,1.33l10,65.56,4.57-1.93c-8.44-15.23-10.14-33.23-19.64-48a2.52,2.52,0,0,0-4.66,1.26,79.22,79.22,0,0,0,5.36,38.1c1.17,2.9,5.84,1.8,4.82-1.33A101.23,101.23,0,0,0,400.8,65.78a2.54,2.54,0,0,0-4.32,0C393,70.91,395.08,77.4,396,83l4.28,25.13,4.18-2.43C398,98.48,393.5,89.93,389,81.34c-1.3-2.5-5.44-.78-4.57,1.93A47.81,47.81,0,0,1,386.76,95c.21,3.19,5.21,3.22,5,0Z"/><path class="cls-1" d="M102.16,305.69A120.49,120.49,0,0,1,111,328.14l4.57-1.93a146.68,146.68,0,0,0-17.43-22.16c-1.64-1.71-5.1,0-4.18,2.43A278.62,278.62,0,0,1,106,346.19l3.67-2.82c-13.8-8.56-16.19-27.29-29.41-36.77-1.75-1.25-4.37.83-3.67,2.82l11.95,34,4.18-2.43A238.1,238.1,0,0,0,63.42,314c-2.17-1.69-5.3.35-3.93,3l17.79,34.84,3.93-3a155.66,155.66,0,0,1-19.79-20.29c-1.68-2.07-4.68.21-4.18,2.43A41.12,41.12,0,0,0,63,344.59l1.49-3.67a9.6,9.6,0,0,1-6.58-1.06,2.55,2.55,0,0,0-3.67,1.49,8.58,8.58,0,0,0,.06,6.69L58,345.21l-3.47-2.34c-1.68-1.13-3.64.4-3.76,2.16l-.2,2.91c-.22,3.21,4.78,3.2,5,0l.2-2.91L52,347.19l3.47,2.34c1.7,1.15,4.5-.8,3.67-2.82a3.73,3.73,0,0,1-.06-4l-3.67,1.49a15.43,15.43,0,0,0,10.44,1.57,2.52,2.52,0,0,0,1.49-3.67,37.26,37.26,0,0,1-5.25-12.39l-4.18,2.43A155.66,155.66,0,0,0,77.67,352.4a2.51,2.51,0,0,0,3.93-3L63.81,314.53l-3.93,3a238.1,238.1,0,0,1,29.3,26.9c1.65,1.79,5-.07,4.18-2.43l-11.95-34-3.67,2.82c13.17,9.44,15.31,28,29.41,36.77,1.94,1.2,4.13-.78,3.67-2.82a278.62,278.62,0,0,0-12.07-39.7l-4.18,2.43a139.75,139.75,0,0,1,16.65,21.15c1.5,2.33,5.36.89,4.57-1.93a127.08,127.08,0,0,0-9.32-23.65c-1.47-2.86-5.79-.34-4.32,2.52Z"/><path class="cls-1" d="M372,190.48l6.34-9.4-4.57-1.93a133.09,133.09,0,0,1-5.38,19.63c-1,2.69,3.2,4.37,4.57,1.93q5.81-10.4,12.16-20.48l-4.57-1.93L375,201.1c-.77,3.15,3.77,4.35,4.82,1.33a49.4,49.4,0,0,1,9.72-16.63l-4.18-2.43a135.35,135.35,0,0,0-5.15,21.26c-.41,2.56,3.2,4.68,4.57,1.93l12.55-25.24-4.57-1.93q-2.93,14.73-7.19,29.12l4.82,1.33c4.09-14,12.81-25.65,21.5-37.09l-4.57-1.93A349.31,349.31,0,0,0,391,221.16c-.64,2.63,3.31,4.59,4.57,1.93A272,272,0,0,1,423,177.21l-4.57-1.93a329.47,329.47,0,0,0-12.59,38.78,2.51,2.51,0,0,0,4.57,1.93l17-26.21-4.57-1.93a171,171,0,0,1-6.43,22.45c-.91,2.5,2.47,4,4.18,2.43a66.72,66.72,0,0,0,12.48-15.17l-4.57-1.93-4.17,16.88c-.79,3.2,3.64,4.24,4.82,1.33a9.83,9.83,0,0,0,.35-6.63c-.8-3.11-5.63-1.79-4.82,1.33a4.66,4.66,0,0,1-.35,4l4.82,1.33L433.35,197a2.51,2.51,0,0,0-4.57-1.93,62.16,62.16,0,0,1-11.69,14.16l4.18,2.43a171,171,0,0,0,6.43-22.45,2.51,2.51,0,0,0-4.57-1.93l-17,26.21,4.57,1.93a329.47,329.47,0,0,1,12.59-38.78c1.12-2.85-3-4-4.57-1.93a272,272,0,0,0-27.47,45.88l4.57,1.93a349.31,349.31,0,0,1,16.39-50.34c1.17-2.85-3-4-4.57-1.93-9,11.82-17.78,23.87-22,38.28-.91,3.09,3.91,4.41,4.82,1.33q4.26-14.4,7.19-29.12c.52-2.61-3.23-4.62-4.57-1.93L380.48,204l4.57,1.93a135.35,135.35,0,0,1,5.15-21.26c.77-2.33-2.54-4.3-4.18-2.43a55.82,55.82,0,0,0-11,18.84l4.82,1.33,5.54-22.8a2.51,2.51,0,0,0-4.57-1.93q-6.35,10.08-12.16,20.48l4.57,1.93a133.09,133.09,0,0,0,5.38-19.63,2.51,2.51,0,0,0-4.57-1.93L367.7,188c-1.8,2.68,2.53,5.18,4.32,2.52Z"/><path class="cls-1" d="M407.45,541.1l9.18,3.21c3.51,1.23,7.17,1.31,6.06,5.72-.7,2.76-1.68,5.43-2.64,8.11s-1.75,6.55-3.3,9l2.16-1.24c-6.4.59-14.72-4.34-19.86-7.6l1.15,2.82q2.68-11.1,6-22c.94-3.09-3.89-4.4-4.82-1.33q-3.33,10.93-6,22a2.58,2.58,0,0,0,1.15,2.82,56.08,56.08,0,0,0,19.49,8c6.36,1.21,6.41-4.32,8.25-9.46,1.47-4.11,6-12.62,3.74-17-1.11-2.12-4.35-2.67-6.37-3.38l-12.86-4.49c-3-1.06-4.35,3.76-1.33,4.82Z"/><path class="cls-1" d="M424.19,558.36q3.35,1,6.6,2.22a2.52,2.52,0,0,0,3.08-1.75,2.56,2.56,0,0,0-1.75-3.08q-3.25-1.24-6.6-2.22c-3.1-.9-4.42,3.92-1.33,4.82Z"/><path class="cls-1" d="M420.28,565.48a43.92,43.92,0,0,0,8.36,3.09c3.12.8,4.45-4,1.33-4.82a37.45,37.45,0,0,1-7.16-2.59c-2.88-1.4-5.42,2.91-2.52,4.32Z"/><path class="cls-1" d="M400,542.56l-2-.67a2.52,2.52,0,0,0-3.08,1.75,2.56,2.56,0,0,0,1.75,3.08l2,.67a2.52,2.52,0,0,0,3.08-1.75,2.56,2.56,0,0,0-1.75-3.08Z"/><path class="cls-1" d="M398,551.39l-4.17-.27a2.51,2.51,0,0,0-2.5,2.5,2.56,2.56,0,0,0,2.5,2.5l4.17.27a2.51,2.51,0,0,0,2.5-2.5,2.56,2.56,0,0,0-2.5-2.5Z"/><rect class="cls-2" width="525" height="600"/></g></g></svg>