<svg xmlns="http://www.w3.org/2000/svg" viewBox="0 0 525 600"><defs><style>.cls-1,.cls-2{fill:none;}.cls-1{stroke:#fff;stroke-linecap:round;stroke-linejoin:round;stroke-width:2px;}</style></defs><title>adam_n2</title><g id="Warstwa_2" data-name="Warstwa 2"><g id="Warstwa_1-2" data-name="Warstwa 1"><g id="Warstwa_2-2" data-name="Warstwa 2"><g id="Warstwa_1-2-2" data-name="Warstwa 1-2"><path class="cls-1" d="M61.6,446.49c.34.51-.72,1-1.09.48a1.77,1.77,0,0,1,.1-1.75,30,30,0,0,1,7-9.66L74.4,449a34.39,34.39,0,0,1,5.74-10.19l3.06,10.74c.26.93.75,2,1.72,2.09a2.3,2.3,0,0,0,1.7-1.09,35.73,35.73,0,0,0,4.76-7.71,20.64,20.64,0,0,0,1.53,10.91l6.09-6.4a20.7,20.7,0,0,1,1.92,10.19l8.18-5.88a33.3,33.3,0,0,1,1.08,10.56,34.38,34.38,0,0,0,7.25-7.81,10.3,10.3,0,0,1,2.42,6.84,8.24,8.24,0,0,1,9.84-3.64"/><path class="cls-1" d="M68.85,416a7.42,7.42,0,0,0,3.23,2.85L90.36,429.4c6.09,3.51,12.26,7.06,19,9,10.06,2.84,20.77,1.86,31.12.42"/><path class="cls-1" d="M98.87,553.35c.83-4.68,5.37-9.15,9.93-7.79,4.73,1.41,6,7.8,4.48,12.52s-4.68,8.81-5.73,13.63c-.38,1.75-1,4.07-2.79,4.07a4.37,4.37,0,0,1-2.32-1.11c-5.78-4-14.76-1.27-19.77-6.18-3.65-3.58-3-10.32.88-13.6s10.19-3,14.16.27l-.27-1.68"/><path class="cls-1" d="M379.81,431.6a31.78,31.78,0,0,0,23.91-7.48"/><path class="cls-1" d="M382.61,442.9a48.93,48.93,0,0,0,26.51-12.46"/><path class="cls-1" d="M393.72,575.46l21.22-3.75"/><path class="cls-1" d="M374.52,223.68a14.11,14.11,0,0,1,12.26-9,6.62,6.62,0,0,1,3.4.59c2.13,1.12,3,3.88,2.57,6.26a17.38,17.38,0,0,1-3.09,6.47L376,248.69l-11.18-15.58a13,13,0,0,1-2.38-4.46,6.45,6.45,0,0,1,12-4.4"/><path class="cls-1" d="M234.62,156.05c-.28,3.68,3.72,6.94,7.3,6.08s5.7-5.37,4.21-8.74a7.08,7.08,0,0,0-9.35-3.2,7.65,7.65,0,0,0-3.33,9.49"/><path class="cls-1" d="M307.34,144.81c-1.67,3.17,1,7.59,4.6,7.81s6.74-3.51,6.2-7.06a7.15,7.15,0,0,0-7.89-5.63,8.24,8.24,0,0,0-6.68,7.39"/><path class="cls-1" d="M387.26,558.51c.25-3.18,1.63-6.58,4.52-7.93s7.15.71,6.9,3.89c.25-1.86.54-3.82,1.72-5.28s3.55-2.13,5-.87,1.68,4.45,3.68,4.38l4.84-8a14.28,14.28,0,0,1,4.53,7.41"/><path class="cls-1" d="M382.17,547.55l2.36-8.57,5.51,4.08a2.17,2.17,0,0,0,1.49.6c1.2-.17,1.21-1.85,1.36-3.06.48-3.91,7-5,8.73-1.52,1.7-.83.72-3.88,2.27-5,1.27-.9,3,.38,3.68,1.78s1,3.11,2.25,4a4,4,0,0,0,4.89-.77,11.62,11.62,0,0,0,2.48-4.72"/><path class="cls-1" d="M395.48,153.91c2.15-1.44,4.93,1.2,5.29,3.76,1,6.76-7.67,12.16-14,9.5s-8.94-10.84-6.88-17.35,7.76-11.32,14-14.13a26.78,26.78,0,0,1,11.09-2.6,22.88,22.88,0,0,1,17.71,9.34A29.18,29.18,0,0,1,428,162c-1.23,16-15.48,30-31.54,31s-31.87-11.26-35-27c-2.14-10.78,1.08-21.83,4.37-32.32,1.56-5,3.2-10,6.46-14.11,6.22-7.77,17-10.22,27-10.49,17.83-.48,37.28,5.65,46.62,20.85"/><path class="cls-1" d="M66.78,518.92c7.92-1.63,16.14-.69,24.16-1.64s16.57-4.5,19.91-11.87"/><path class="cls-1" d="M65.82,529.46l18.06.19c3.68,0,7.42.07,10.94-1,8.48-2.58,13.75-10.8,18.29-18.42"/><path class="cls-1" d="M170.82,191.11c-5.09-3.11-11.82-6.11-16.5-2.37a9.49,9.49,0,0,0-3.19,7.43c0,5.65,3.75,10.77,8.44,13.92s10.26,4.67,15.71,6.15l16.29,4.4a77.27,77.27,0,0,0,6.77-27.8c.28-5.4-.08-11.08-2.82-15.74s-8.43-8-13.62-6.43c-3.78,1.11-6.54,4.5-7.92,8.18s-1.58,7.69-1.78,11.62"/><path class="cls-1" d="M72.23,70.39c3-5.77,6.15-11.76,11.42-15.56,4.62-3.34,10.37-4.64,16-5.63C108.9,47.56,119.19,46.76,127,52a40.08,40.08,0,0,1,7.62,7.47,48.16,48.16,0,0,1,5.76,7.74c3.13,5.66,3.85,12.29,4.51,18.73.5,4.92,1,10-.23,14.76s-4.56,9.36-9.34,10.63"/><path class="cls-1" d="M69.72,95.14c.28,9.94,6.92,19,15.51,24s18.86,6.41,28.8,6"/><path class="cls-1" d="M78.13,57.84a27.62,27.62,0,0,0-13.64-3.13,2.79,2.79,0,0,0-1.93.58c-.94.93-.25,2.51.48,3.6a160.77,160.77,0,0,0,69.35,58c2.84,1.23,5.81,2.4,8.9,2.35s6.36-1.62,7.53-4.48c1.86-4.53-2.07-9.21-5.66-12.54"/><path class="cls-1" d="M82.63,55a97.21,97.21,0,0,0-52.1-16.08C30,45.48,34,51.45,38.07,56.6c29.42,37.22,70.45,63.25,111.52,87,4.69,2.71,9.55,5.46,14.92,6.14s11.45-1.2,14.15-5.89c3.57-6.2,0-14-4.14-19.85a99.92,99.92,0,0,0-23.88-23.76"/><path class="cls-1" d="M423.34,282.63a263.12,263.12,0,0,0,14.39,60.15q9.83-29.59,18.38-59.59"/><path class="cls-1" d="M422.91,280.65a48.38,48.38,0,0,1,13.49,1.79c5.44,1.52,11,4,16.5,2.56"/><path class="cls-1" d="M424.69,277.26c-3.37-2.13-3.58-7.78-.39-10.16,2.28-1.7,6.3-3.11,5.27-5.76-.37-1-1.34-1.5-2.07-2.2a5.67,5.67,0,0,1,1-8.57c1.52-.88,3.36-1,5-1.42,7-1.89,10.7-11.38,6.77-17.51a21.6,21.6,0,0,1,5.88,20.14c5.58-.25,10.56,5.58,9.45,11.05a2.82,2.82,0,0,1-.88,1.72c-1.17.91-3,0-4.29.69-1.79,1-.67,4,1.17,4.86s4.09.84,5.8,2a4.79,4.79,0,1,1-7.38,4.82"/><path class="cls-1" d="M475.83,210.88l-2.38.22c-1.53,3.79,2.35,8.46,6.39,7.85s6.44-5.9,4.41-9.46-7.52-4.32-10.6-1.63"/><path class="cls-1" d="M471.81,15.46q-28.88,23.63-55.48,49.89l45.41-3.78c-.26-2.37-.49-4.91.63-7s4.16-3.35,6-1.8c-.32-2,1.34-3.93,3.27-4.61a13.32,13.32,0,0,1,6.08-.18c1.9.24,4,.57,5.25,2s.81,4.33-1.1,4.55a96.34,96.34,0,0,0,21.45.59"/><path class="cls-1" d="M474.52,14.77Q487.76,36,499.28,58.23"/><path class="cls-1" d="M52.92,167.38c-3.67-.23-7.56-.1-10.71,1.8s-5.19,6.08-3.58,9.38c2.26,4.65,9,4.18,13.93,2.66-3.93,4.56-1.8,12.83,3.86,14.91S69.07,193.32,69,187.3c-.64,6.41,6.27,12.38,12.51,10.73s9.28-10.34,5.38-15.48c3.27,3.39,8,5.67,12.64,5.12s9-4.43,9.23-9.14-4.67-9.2-9.19-7.87c4.64-.89,10.29-2.81,10.84-7.5.3-2.56-1.18-5-2.91-6.89a17,17,0,0,0-10.26-5.72c-4-.47-8.29,1.12-10.48,4.47,3.83-5.65,1.7-14.66-4.59-17.31s-14.64,3-13.82,9.8c1.18-.42,1.11-2.13.64-3.29a12,12,0,0,0-11-7.53A10.57,10.57,0,0,0,48,145c-.8,4.65,2.5,9.73,7.15,10.58-2.77-3-8.46-2.2-10.31,1.42s.82,8.7,4.85,9.21c.52.07,1.21-.08,1.25-.6s-1-.08-.57.11"/><path class="cls-1" d="M20.56,297.56q5.8-10.45,12.19-20.57c8.89-14.08,18.73-27.78,31.36-38.64l.9,13c-2-4,2.23-9.54-.68-12.9-3.35-3.87-11,1-14.43-2.78"/><path class="cls-1" d="M27,247.23c-3.82.28-6.38,5.16-4.57,8.53s7.08,4.06,9.8,1.37,2.22-7.81-.87-10.06c-1.82-1.33-5.16-1.11-5.54,1.11"/><path class="cls-1" d="M43.43,274.63c-1.52.94-1.79,3-1.9,4.78a14,14,0,0,0,.53,6.14c.78,1.92,2.73,3.54,4.78,3.22,1.88-.29,3.19-2,3.88-3.81,1.3-3.32.8-7.72-2.24-9.58s-8,1.27-6.7,4.58"/><path class="cls-1" d="M429,54.73A5.15,5.15,0,0,0,437.48,49"/><path class="cls-1" d="M444.19,47.92c-.74,2.21,2,4.34,4.29,3.81s3.79-2.66,4.73-4.78a18.74,18.74,0,0,0-9-.8"/><path class="cls-1" d="M465.48,33.16a2.13,2.13,0,0,0-2,2.6,3.93,3.93,0,0,0,5.16,2.06h0a3.54,3.54,0,0,0,1-5.31,3.22,3.22,0,0,0-5.13,1"/><path class="cls-1" d="M480.22,41.44h0"/><path class="cls-1" d="M501.9,353.24c.49.67,1.31-.53,1.17-1.35-1.09-6.49-8.52-9.61-15-10.91-7.34-1.47-15.66-1.89-21.58,2.69-4.6,3.56-6.74,9.4-8.4,15a48.59,48.59,0,0,0-2.37,12c-.47,13,9.41,25.51,22.1,28.1a18.4,18.4,0,0,0,8,0c3.62-.89,6.71-3.19,9.56-5.59,5.35-4.49,10.4-9.65,13.15-16.06A23.93,23.93,0,0,0,493,381.81l13.4-3.49a5.14,5.14,0,0,1,2.58-.22,4.84,4.84,0,0,1,2.51,2.2A37.72,37.72,0,0,1,516,389l-1-4.54"/><path class="cls-1" d="M13.77,520.68A222.23,222.23,0,0,1,39.43,546.1q7.82-15.73,15.16-31.69l-2.77.52"/><path class="cls-1" d="M16.16,519.48a122.42,122.42,0,0,1,39.07-9.19l-1.57,1.86"/><path class="cls-1" d="M38.63,546.35l6,39.62"/><path class="cls-1" d="M16.06,494.46a235.83,235.83,0,0,1,15.59,32.2l-2.93-5.27"/><path class="cls-1" d="M30.87,586.29a47.9,47.9,0,0,0,28.34,3.49"/><path class="cls-1" d="M12.26,490.91c-.6,2,.73,4.88,2.8,4.47,1.72-.34,2.27-2.75,1.41-4.27s-2.56-2.34-4.15-3.06a3.57,3.57,0,0,0,1.24,4.62,3.18,3.18,0,0,0-2.39-4.56A5.79,5.79,0,0,0,14,493.62"/><path class="cls-1" d="M42,335.56a10.61,10.61,0,0,0-14.6,11.72c1.07,5.58,6.42,9.39,11.83,11.12s11.22,2,16.63,3.73q1.76-11.51,2.69-23.12a19.9,19.9,0,0,0-.46-7.89c-.84-2.52-2.93-4.8-5.58-5-4.73-.44-7.48,5.11-8.84,9.67"/><path class="cls-1" d="M464,540.65a185.19,185.19,0,0,1,.4-22.51c.39-4.94,1-10,3.37-14.38s6.81-7.92,11.77-7.86a7.68,7.68,0,0,1,5.82,2.48,9.14,9.14,0,0,1,1.8,5.22,19.54,19.54,0,0,1-5.39,14.91,23.71,23.71,0,0,1,22.8.58c3.4,2,6.51,6,5,9.64-.9,2.21-3.18,3.49-5.34,4.53A114.83,114.83,0,0,1,466.75,544"/><path class="cls-1" d="M112.32,215.5c-2.69.78-3.44,4.86-1.41,6.8s5.72,1.34,7.36-.94a6.57,6.57,0,0,0-.53-7.79c-1.1-1.33-4.15-1.28-3.65.37"/><path class="cls-1" d="M473.43,107.25a4.38,4.38,0,1,0,3.35-2.31"/><path class="cls-1" d="M24.85,424.75c-1.09,4,3.51,8.32,7.51,7.07s5.47-7.14,2.63-10.22-8.61-2.27-10.49,1.4"/><path class="cls-1" d="M99.62,10.92c-1.93,2.24-.93,6,1.49,7.74s5.7,1.68,8.53.81a7.13,7.13,0,0,0,4.36-3c1.37-2.52-.06-5.83-2.41-7.47s-5.33-2-8.19-2.25c-4.08-.34-9.59.63-9.94,4.71"/><path class="cls-1" d="M436.11,427.87c-2.83.9-2.86,5.33-.65,7.31s5.46,2.14,8.43,2.1a5,5,0,0,0,2.2-.37,3.34,3.34,0,0,0,1.26-4.15,7.28,7.28,0,0,0-3.26-3.34,19,19,0,0,0-9-2.65"/><path class="cls-1" d="M289.44,446.24V474.1c0,3.72-.07,7.67-2.07,10.8-1.57,2.46-4.12,4.09-6.67,5.51a82.08,82.08,0,0,1-34.4,10.11"/><path class="cls-1" d="M303.59,448.78a270.31,270.31,0,0,0,5.25,38.39,6.34,6.34,0,0,0,1,2.73c1,1.24,2.72,1.56,4.29,1.79l34.29,5.11"/><path class="cls-1" d="M290.77,513.2l-1.62,23.4a10,10,0,0,1-1.25,5c-1.17,1.72-3.26,2.51-5.22,3.21l-16.14,5.73c-5.91,2.1-13.2,4-17.85-.25"/><path class="cls-1" d="M310.09,514.24q-.48,7.24-.65,14.49c-.09,4,0,8.39,2.47,11.58,2,2.6,5.24,3.91,8.36,5a101.25,101.25,0,0,0,31.23,5.21"/><path class="cls-1" d="M294.25,562.32A28,28,0,0,1,263.35,594l-1.5-3.17"/><path class="cls-1" d="M311.29,569.29a166.78,166.78,0,0,0-.27,21.43,141.54,141.54,0,0,0,33.35,5.75"/><path class="cls-1" d="M145.76,595.93c.34-2.64,1.7-2.52,2.8-.14"/><path class="cls-1" d="M454.19,153.51a8.4,8.4,0,0,0-3.47,14.85c2.29,1.78,6.58,1.56,7.14-1.29-1.3,4.49,2.46,9.82,7.13,9.71s8.13-6.19,5.55-10.07a8.9,8.9,0,0,0,6.87,5.49,6.83,6.83,0,0,0,7.23-4.45c.89-2.94-1.15-6.53-4.19-6.94,3.89,1.13,8,2.27,11.94,1.26s7.38-5,6.24-8.92c-1-3.59-5.13-5.18-8.7-6.29a10.87,10.87,0,0,0-1.48-14.73,7.19,7.19,0,0,0-7-1.48c-2.35.94-3.68,4-2.28,6.1-2.65-.8-4.14-3.91-6.83-4.58s-5.61,1.78-6.35,4.57,0,5.75.72,8.54c2.52-4-2.23-9.66-6.92-9S452,142,452,146.77a15.81,15.81,0,0,0,2.38,8.32"/><path class="cls-1" d="M289.67,344.09a105.84,105.84,0,0,0,10.74,48.07,17.73,17.73,0,0,0,3.32,5.06,18.3,18.3,0,0,0,5.21,3.21,168.46,168.46,0,0,0,42.62,13.22,4,4,0,0,0,2.15,0,4.06,4.06,0,0,0,1.72-1.75l11-17.18a1.71,1.71,0,0,0-2.19.16"/><path class="cls-1" d="M275.8,340q3.3,23.62,5,47.42c.19,2.55.35,5.19-.53,7.6-1.11,3-3.71,5.3-6.34,7.19-15.16,10.92-34.09,14.89-52.4,18.6a24.17,24.17,0,0,1-8.05.71c-9.25-1.28-13.64-12-21.27-17.4"/><path class="cls-1" d="M339.23,386.3c-2.21,2.41-.69,7,2.52,7.67s6.37-3.08,5.23-6.15"/><path class="cls-1" d="M217.84,397.33c2.24,2.92,7.65,2.2,9-1.2,1.08-2.64-.16-5.73-2.1-7.83"/><path class="cls-1" d="M217.87,396.28h-1"/><path class="cls-1" d="M243.32,83.78C222.08,66.6,212.77,36,220.81,9.92a178.06,178.06,0,0,1,37.41,63.76A104,104,0,0,1,371.09,4.79c-17.73,31.39-52,49.07-84.3,65"/><path class="cls-1" d="M261.82,290.27a162.18,162.18,0,0,0,53.93-23.91l-.24,33.42c-14.67-16.82-38-23.2-55.2-37.4a129.12,129.12,0,0,0-.72,26"/><path class="cls-1" d="M212.94,595.86c-5.85-5.38-7.62-13.5-8.73-21-1.31-8.91-2.8-17.41-6.91-25.53"/><path class="cls-1" d="M362.46,592.67c.11,1.19-1.82.07-2-1.11-.68-5-1.31-10.2.74-14.75,1.64-3.62,4.81-6.35,6.64-9.88,4.42-8.5.08-18.74-4.23-27.29"/><rect class="cls-2" width="525" height="600"/></g></g></g></g></svg>