<svg xmlns="http://www.w3.org/2000/svg" viewBox="0 0 525 600"><defs><style>.cllk-1,.cllk-2{fill:none;}.cllk-1{stroke:#fff;stroke-linecap:round;stroke-linejoin:round;stroke-width:2px;}</style></defs><title>ardian2</title><g id="Warstwa_2" data-name="Warstwa 2"><g id="Warstwa_1-2" data-name="Warstwa 1"><g id="Warstwa_2-2" data-name="Warstwa 2"><g id="Warstwa_1-2-2" data-name="Warstwa 1-2"><path class="cllk-1" d="M430.21,579.39l-1.73,1.08c1.11,2.09,5,.71,4.77-1.64s-4-3.13-5.36-1.2a2.66,2.66,0,0,0,.43,3.59c1.09.77,3,0,3-1.33a2,2,0,0,0-2.16-1.79,2.79,2.79,0,0,0-2.23,2,3,3,0,0,0,4.24.06l.06-.06c-1.69-2.19-5.83-1.39-6.59,1.27a7.28,7.28,0,0,0,5.27-1.16,8.32,8.32,0,0,0-3.63-1.62,2.85,2.85,0,0,0-3.13,1.92c-.39,1.85,2,3.28,3.83,2.75s3-2.2,4.09-3.77a4.65,4.65,0,0,0-6.32.63A2.17,2.17,0,0,0,427,582a6.32,6.32,0,0,0,3-1c.58-.31,1.23-.7,1.33-1.35.16-1-1-1.62-2-1.83-2.42-.53-6,.83-5.21,3.19a2.85,2.85,0,0,0,1.76,1.65c3.69,1.42,7.59-2.63,7.71-6.58s-2.14-7.52-4.12-11a98.8,98.8,0,0,1-10.09-24.56c.25,6.4,6.75,10.78,13,12.27a31.34,31.34,0,0,1,5.29,1.43,6.55,6.55,0,0,1,3.79,3.73,3.74,3.74,0,0,1-1.9,4.59c-1.71.64-3.94-1-3.46-2.79"/><path class="cllk-1" d="M130.65,184.63a4.53,4.53,0,0,0-3.73.54,3.4,3.4,0,0,0,3.17,1.15c.27-1.54-2.39-2.43-3.1-1a1.42,1.42,0,0,0,2.53-.54,1.84,1.84,0,0,0-2.22-1.35l-.15,0a1.5,1.5,0,0,0-.28,2.5c.87.54,2.21-.56,1.75-1.48-.89-1.22-3.23.49-2.33,1.7a3.87,3.87,0,0,0,4-.69,6.43,6.43,0,0,0-4-1,2,2,0,0,0,2.76.62l.08-.05a1.62,1.62,0,0,0-.44-2.66c-1-.33-2.16,1.12-1.48,2l1.22-.22a1.45,1.45,0,0,0-2.54-.13,1.74,1.74,0,0,0,1.46,2.34,2.16,2.16,0,0,0,2.14-2c-.63-1.9-4.22-1-3.88,1a1.36,1.36,0,0,0,2.26.34,1.56,1.56,0,0,0-2.37-.88,12.46,12.46,0,0,0,5-.9q-3.4-12-6.4-24.06a22.92,22.92,0,0,0,15.66.1c1.54-.55,3.25-2.41,2-3.5a54.82,54.82,0,0,0,3.43,25.38l-3.73-1a1.51,1.51,0,1,0,2.3,1.93,2,2,0,0,0-3.42-.6,2.35,2.35,0,0,0,1.74.74,2.7,2.7,0,0,0-2.88-1.28c-.41,1.1,1.87,1.67,2,.51a1,1,0,0,0-1.86,0l1.3,1.62"/><path class="cllk-1" d="M131.18,296.79c1.88,1.69,5.48-.48,4.88-2.93a4.09,4.09,0,0,0-3.38,3.32,2.13,2.13,0,0,0,3.31-.06,5.22,5.22,0,0,0-3.26-1c-1.15.17-2.14,1.57-1.47,2.52,1,1.44,3.66-.26,3.1-1.93s-3-2-4.41-.89c1.59,1.52,4.8-.24,4.37-2.4a4,4,0,0,0-3.49,3.29,5,5,0,0,0,2.68.66c.93-.13,1.81-1,1.58-1.91a1.84,1.84,0,0,0-.6-.88,3.47,3.47,0,0,0-4.88.54l-.12.16a3.26,3.26,0,0,0,1.81,4.66A3.08,3.08,0,0,0,135,296.7c-1.12-.84-2.48-1.67-3.82-1.29s-1.82,2.7-.47,3.06a1.67,1.67,0,0,0,.5,0c2-.09,3.25-2.42,3-4.4s-1.48-3.68-2.58-5.35c-4.23-6.45-6.77-13.83-9.27-21.13a12.35,12.35,0,0,0,10.36,3.62c2.84-.38,6.2-1.6,8.21.44a4.13,4.13,0,0,1,1.09,2.54,5.24,5.24,0,0,1-8.84,4.26"/><path class="cllk-1" d="M361.82,223.62a.41.41,0,1,0,.33.1,5.67,5.67,0,0,0-2.86-1.17c-.4,1.53,2.31,2.54,3,1.12a4.74,4.74,0,0,0-3.89-.76,3.17,3.17,0,0,0,3.8,3.63,5.83,5.83,0,0,0-1.73-4.63c-1.33-1.07-3.78-.66-4.17,1a2.74,2.74,0,0,0,2.21,3,7.73,7.73,0,0,0,4-.45,5,5,0,0,0-6.15-2.36c-.32,1.94,2.47,3.51,4,2.23"/><path class="cllk-1" d="M365.54,220.16q5.75-14.2,12.46-28a17.86,17.86,0,0,0,1.83,13.71,10.3,10.3,0,0,1,1.51,3.07,4,4,0,0,1-7.31,2.82"/><path class="cllk-1" d="M210,59.56c-.95,1,.49,2.83,1.88,2.62s2.32-1.54,2.88-2.82a5.14,5.14,0,0,0-6.45,1.7,3.82,3.82,0,0,0,4,.71c1.27-.62,1.83-2.54.82-3.53-1.33-1.31-3.91.85-3,2.44s4,.57,3.88-1.29-3-2.7-4.14-1.25c-.91,1.12.72,3.36,1.58,2.2a5,5,0,0,0-4.44-.15,2.45,2.45,0,1,0,0-.51,5.62,5.62,0,0,0,4.7.78,3.27,3.27,0,0,0-4.91-1.75c-1.25,2,1.12,4.82,3.48,4.56s4.05-2.57,4.51-4.9,0-4.73-.24-7.1c-1.1-11,2.67-21.8,6.39-32.2-2.11,1.66-1.66,5.21.2,7.15s4.61,2.68,7.21,3.35,5.36,1.43,7.2,3.43c2.7,2.87,2.51,7.71.19,10.89S229.42,48.68,225.5,49c-1.55.12-3.74-1.29-2.63-2.38"/><path class="cllk-1" d="M306.21,49.27l-1.89,1.17c0,1.15,2,1.46,2.41.39a1.45,1.45,0,0,0-2-1.67,1.71,1.71,0,0,0,.09,2.83,2,2,0,0,0,2.73-1.24,3.6,3.6,0,0,0-4.32-2.53,3,3,0,0,0-1.42,4.51c1.22,1.41,4.07.64,4.23-1.22s-2.86-3-3.81-1.37l3.18.83a1.24,1.24,0,0,0-2.28,0c1.28,1.15,3.51,0,4-1.69s-.3-3.39-1.12-4.9c-4.68-8.64-12.3-15.82-14.89-25.3a14,14,0,0,0,10.07,12.56c1.74.47,3.57.6,5.27,1.2a5.35,5.35,0,0,1,3.68,3.63c.35,1.77-1.23,3.84-3,3.45"/><path class="cllk-1" d="M481.26,306.65c-.52,1.6,2.57,2.54,3,.92-.38-1.82-3.48-2.1-4.17-.37a3,3,0,0,0,3.62.86,8.59,8.59,0,0,0-5.79-5c-.6,2.33,2.52,4.59,4.54,3.3.73-1.72-1.85-3.59-3.31-2.43s-.4,4,1.46,4,3-2.67,1.79-4.07a2.79,2.79,0,0,0-4.5,1,3,3,0,0,0,3,3.71c3.26-.2,3.86-4.67,3.8-7.93A51.66,51.66,0,0,1,489,279.1c.38,2.15,2.1,3.81,3.88,5.08s3.77,2.33,5.15,4,2,4.3.67,6-4.79,1.34-5-.83"/><path class="cllk-1" d="M266.83,153.32a7.46,7.46,0,0,0,8.15-2.38c.14,8.88,8.16,16.88,17,17s17.12-7.65,17.52-16.52a11,11,0,0,0-1.07-5.64c-2.09-4-7-5.43-11.39-6.06-5.17-.74-10.69-.78-15.3,1.66s-7.9,8-6.32,13"/><path class="cllk-1" d="M308.27,152.79a200.65,200.65,0,0,1,24-13.08"/><path class="cllk-1" d="M256.19,167.44c3.11-3.84,6.24-8.26,6-13.19-.43-7.69-9.15-12.53-16.85-12.26-4.88.17-9.85,1.88-13.22,5.4s-4.86,9-3,13.51c1.34,3.18,4.1,5.52,6.95,7.46,3.39,2.31,7.24,4.3,11.34,4.23s8.38-2.82,9-6.88"/><path class="cllk-1" d="M226.25,154.53l-8.51-8.41"/><path class="cllk-1" d="M331.62,410.75a28.11,28.11,0,0,0,3.47,8.63"/><path class="cllk-1" d="M288.71,262.48a53.45,53.45,0,0,0-.18,11,104.75,104.75,0,0,1-1-20.18L293,263.66l1.75-6.89,4.48,2.53c-1-2.16,2.1-4.73,4-3.39a35.61,35.61,0,0,0-.63-11.38,80.29,80.29,0,0,1,11,9.63"/><path class="cllk-1" d="M258.35,205.22a23.53,23.53,0,0,0,.48,8.21,14,14,0,0,0,3.25-7.27"/><path class="cllk-1" d="M279,206.17l4.44,9.31a42.55,42.55,0,0,0,.25-8.38"/><path class="cllk-1" d="M331.44,143.95l17.46-22.4a155.23,155.23,0,0,1-1.21,39.75c-.94,5.85-2.41,12-6.67,16.15s-12.15,5-15.72.24"/><path class="cllk-1" d="M217.05,149.6a115.14,115.14,0,0,0-23.86-16.7l15.9,41.71c1.45,3.82,3.12,7.9,6.6,10s9.21.87,9.88-3.16"/><path class="cllk-1" d="M424.89,193.91l13.91,48.68a4.71,4.71,0,0,0,.89,1.93,4.59,4.59,0,0,0,2.66,1.15,73.24,73.24,0,0,0,37.8-3l-.25-22.3c-.13-11.29-.3-22.86-4.34-33.4-.22-.58-.54-1.23-1.14-1.37a1.85,1.85,0,0,0-1,.14c-7.26,2.53-11.56,10.31-18.59,13.41a22.66,22.66,0,0,1-10.15,1.59,37,37,0,0,1-20.9-7.74"/><path class="cllk-1" d="M448.74,237.24l-1.53-19.63c-.08-1-.07-2.26.78-2.85,1.16-.81,2.68.31,3.59,1.4a36.78,36.78,0,0,1,6.11,10.46,26.5,26.5,0,0,1,1.23-12.28,3.87,3.87,0,0,1,1.45-2.18,2.85,2.85,0,0,1,3.61,1.18,8.31,8.31,0,0,1,1,4l1.47,20.75"/><path class="cllk-1" d="M434,196.81l-9.59-25.18c-.77-2-.7-5.33,1.46-5.22,1.32.06,2,1.56,2.41,2.82L437.13,197"/><path class="cllk-1" d="M443.84,200.39,428.55,163c1.52-2.41,5.46-1.88,7.35.24s2.34,5.12,2.85,7.92a81.11,81.11,0,0,0,9.14,25.21l.59,1"/><path class="cllk-1" d="M450.64,199.26a106.05,106.05,0,0,1-13-37.89c1.9-1.51,4.87-.76,6.57,1s2.43,4.17,3.1,6.51L456,199.14a131.07,131.07,0,0,1-7.72-19.19c-.9-2.87-1.7-6-.82-8.85s4.13-5.22,6.91-4.06a121.82,121.82,0,0,0,5.26,26.72,290.75,290.75,0,0,0-4.63-39c1.86-1.69,5.06-.79,6.62,1.18s1.93,4.61,2.24,7.1l2.87,23.15-.68-2.65"/><path class="cllk-1" d="M34.63,196.73q6.54,31.08,16,61.44a209.68,209.68,0,0,0,43.11-5.77,2.08,2.08,0,0,0,1.93-2.62,455.29,455.29,0,0,0-5.79-66.86c-4.26-.55-9.17-.89-12.23,2.12-2.17,2.14-2.72,5.37-3.85,8.19-3.4,8.48-14.51,13.71-22.38,9.05-3.25-1.92-5.52-5.1-8.29-7.65S36.49,190,32.9,191.22a12.53,12.53,0,0,0,1.65,9.26"/><path class="cllk-1" d="M39.94,191.65,21.61,159c1.09-1.8,3.9-1.81,5.6-.56s2.57,3.31,3.36,5.26l13.79,34.07-7.91-30c1.84-1.79,4.48,1.13,5.34,3.55l10.37,29.09L42,154.88c1.76-1.48,4.64-.53,6,1.32s1.64,4.25,1.93,6.53a135.16,135.16,0,0,0,10.45,37.6l-6.11-31.62c1.52-1.14,3.34,1,4,2.76l10.25,25.76-8.93-37.41c1-2.41,4.74-2.39,6.61-.57s2.35,4.59,2.74,7.17l3.36,22.32A224.88,224.88,0,0,0,67,149c2.36-1.7,5.89-.06,7.3,2.48s1.37,5.6,1.53,8.5a52,52,0,0,0,4.42,18.23c.24.53.45,1.24,0,1.62s-1.12-.65-.53-.66"/><path class="cllk-1" d="M58.4,244.47a37.66,37.66,0,0,1-6.2-21.58c0-1.57.34-3.41,1.73-4.15,2-1.05,4.15.94,5.51,2.73L69.6,234.84a37.12,37.12,0,0,1-1.93-16.35c.28-2.6,1.46-5.77,4.08-5.94,2.9-.19,4.36,3.39,4.93,6.24l5.6,27.83"/><path class="cllk-1" d="M453.62,459a278.29,278.29,0,0,1-8.74,49.22,24.07,24.07,0,0,0-1.27,7.9c.5,7.22,7.5,12.23,14.31,14.66a50.89,50.89,0,0,0,32.25.54q9.15-28.83,17.11-58c.34-1.26-.15-3.33-1.35-2.8"/><path class="cllk-1" d="M454.2,455.38c2.28,5.82,8.43,9.06,14.29,11.21a95,95,0,0,0,38.5,5.59l-2.41.86"/><path class="cllk-1" d="M455.12,510.7c-.5-5.12-1-10.36.2-15.36s4.36-9.84,9.19-11.62a2.77,2.77,0,0,1,2.18-.1c.94.48,1.13,1.71,1.21,2.76l1.1,14.77a34.77,34.77,0,0,1,6.61-12.68c2.38-2.89,6.82-5.44,9.54-2.87a6.1,6.1,0,0,1,1.57,3.25c1.49,7.08-2.26,14.11-5.88,20.38l-7.77,13.49"/><path class="cllk-1" d="M458.58,460a312.81,312.81,0,0,1-.67-42.08c.68-1,2.39-.78,3.18.17a6,6,0,0,1,1,3.5l2.86,40,2.91-29c.23-2.31.91-5.15,3.17-5.67a3.75,3.75,0,0,1,4,2.46,10.73,10.73,0,0,1,.47,5.06,172.65,172.65,0,0,1-4.85,30c2.07-14.16,5.27-28.12,8.46-42.07.7-3.06,2.56-6.92,5.63-6.28s3.21,5.08,2.51,8.21L477.78,467a96,96,0,0,1,6-23.17,11.52,11.52,0,0,1,2.94-4.76c1.45-1.21,3.73-1.64,5.21-.47,1.84,1.45,1.52,4.27,1,6.55l-5.12,23.72A149.38,149.38,0,0,1,500.66,432a6,6,0,0,1,2.4-2.93c2.21-1.08,4.91,1,5.39,3.44s-.53,4.85-1.52,7.11l-13.22,30.13A51.6,51.6,0,0,1,504.11,454a16.73,16.73,0,0,1-3.72,17.1"/><path class="cllk-1" d="M36.73,533.2l23.52,53.92c.88,2,1.84,4.14,3.6,5.47,2.2,1.66,5.18,1.75,7.93,1.56a55.75,55.75,0,0,0,30.57-11.8,9.86,9.86,0,0,0,3.34-3.88c.7-1.8.39-3.81.06-5.71A532.22,532.22,0,0,0,93.26,518c-.68-2.39-1.47-4.92-3.36-6.53-3.45-2.93-8.94-1.4-12.34,1.59s-5.6,7.13-8.87,10.26a21.25,21.25,0,0,1-19.26,5.21c-2.26-.54-4.48-1.47-6.8-1.45a8.72,8.72,0,0,0-7.34,4.25"/><path class="cllk-1" d="M69,578.08a50.52,50.52,0,0,1-7.26-26.82,4.26,4.26,0,0,1,1-3.21,3.57,3.57,0,0,1,2.68-.66c7.09.57,10.74,8.57,12.92,15.34l-1.51-11.19c-.26-1.9-.47-4,.57-5.59,1.8-2.78,6.4-2.18,8.57.33s2.55,6.06,2.76,9.37a214.29,214.29,0,0,1,.17,24.16"/><path class="cllk-1" d="M39.06,524.42l-17.83-23c-1.64-2.11-3.33-5-1.92-7.26,1.24-2,4.28-2.06,6.24-.79s3.11,3.45,4.21,5.51A225.5,225.5,0,0,0,46.2,525.23Q36,506.41,27.7,486.64c2.38-.73,5,.56,6.61,2.47a21.36,21.36,0,0,1,3.26,6.68,130.35,130.35,0,0,0,16.31,31.15q-12.71-26.29-24.36-53.07l7.7-.63a330,330,0,0,0,25.21,52.62L52.09,500.11c2.9-1.24,5.25,2.55,6.29,5.53a84.45,84.45,0,0,0,7,15.14,230.41,230.41,0,0,1-17.32-44.66c2.31-1,5.08.27,6.65,2.24s2.21,4.49,2.86,6.91A215.16,215.16,0,0,0,69,517.35c-3.58-9.63-7.19-19.37-8.5-29.56,2.49-.85,4.44,2.18,5.34,4.66L73.27,513a57,57,0,0,1-6.69-28.54c-.66,1.62,2.39,1.59,3.93,2.42a4.39,4.39,0,0,1,1.7,2.5l7.73,20.5-10.11-29c1.89-2.3,5.85-1.47,7.76.81s2.38,5.38,2.95,8.3a78,78,0,0,0,7.26,20.91l-1.6-2.61"/><path class="cllk-1" d="M28.32,345.71a241.25,241.25,0,0,1-7.58,56.89c-.65,2.54-1.35,5.24-.57,7.75s2.69,4.18,4.67,5.71a52.67,52.67,0,0,0,38,10.48,204.9,204.9,0,0,0,35.08-64.91c-4.19-5.14-11.76-5.63-18.38-5.34s-14,.71-19.17-3.29c-3.14-2.45-5-6.16-7.42-9.3a28.29,28.29,0,0,0-18.31-10.5,4.94,4.94,0,0,0-3.19.35c-1.3.77-1.7,2.44-2,3.92l-2.09,11.08"/><path class="cllk-1" d="M36.83,329.8l-1.39-27.69c-.17-3.48.74-8.22,4.22-8.29s4.59,4.75,4.47,8.28L43,336.19a115.11,115.11,0,0,1,2.3-29.51c1.42-1.58,4.28-.68,5.34,1.16s.87,4.12.64,6.23l-2.63,24.7,7.1-39.16a6.48,6.48,0,0,1,1.37-3.48c2.17-2.23,6.3,0,7,3.07s-.84,6.07-2.17,8.88a95.51,95.51,0,0,0-8.72,32.55A92.06,92.06,0,0,1,58.35,317a11.61,11.61,0,0,1,3.1-5.23c1.58-1.31,4.15-1.64,5.61-.2A326.8,326.8,0,0,1,56.2,344.82l15.28-35.28A5,5,0,0,1,73,307.31c1.75-1.24,4.35.37,4.89,2.44S77.6,314,76.79,316l-14.91,36.3L72.26,327c.67-1.62,1.41-3.34,2.88-4.3s3.87-.64,4.45,1l-11.23,30a262.59,262.59,0,0,0,18.81-38.6c2.72-1.09,5.49,2.2,5.3,5.13s-2.13,5.39-3.6,7.93c-4.69,8.09-5.1,18.31-10.71,25.8l8.5-17c.91-1.81,1.93-3.74,3.74-4.65s4.57-.09,4.8,1.93L85.84,357.1l-.5-2.83"/><path class="cllk-1" d="M34.48,397.53a33.78,33.78,0,0,1,7.26-22.21c1-1.28,2.33-2.57,4-2.58,2.79,0,4.06,3.51,4.09,6.3a26.52,26.52,0,0,1-4,14.31,30.79,30.79,0,0,1,12-16.55c2-1.4,4.93-2.5,6.8-.89,1.38,1.19,1.46,3.28,1.25,5.09-1.28,10.58-8.71,19.23-15.81,27.18"/><path class="cllk-1" d="M441.94,69.33l1.14,55.48a10.15,10.15,0,0,0,1.09,5.4,10.4,10.4,0,0,0,3.63,3.06c9.06,5.51,18.65,11.19,29.25,11.58a7.3,7.3,0,0,0,4.75-1.05,8.21,8.21,0,0,0,2.13-3l21.18-42.55c3.7-7.43,7.19-17,1.8-23.36-3.68-4.32-10-5-15.72-4.75s-11.62,1.1-16.8-1.2c-7-3.1-11-11.3-18.4-13.32a24.81,24.81,0,0,0-7.22-.52,5.3,5.3,0,0,0-3.64,1,5.27,5.27,0,0,0-1.19,2.5L441,69.3"/><path class="cllk-1" d="M452.39,54.28l-1.17-40.1c.93-1.5,3.42-1.12,4.51.27s1.18,3.29,1.23,5.06l1,38.28a166.39,166.39,0,0,0,2.86-29.52c3.65,1.63,4.12,6.53,4,10.52q-.37,12.27-1.4,24.51l10.25-45.38c4,1.09,4.57,6.55,4.14,10.71a195.81,195.81,0,0,1-7.47,36.8l11.45-29.67c2.21.17,3.87,2.3,4.23,4.49a14.29,14.29,0,0,1-.92,6.52A179.51,179.51,0,0,1,476.51,69,324.31,324.31,0,0,1,498,26.1c3,1.18,4.39,4.76,4.09,7.94s-1.92,6.06-3.51,8.83l-15.94,27.8,15.84-24a3.39,3.39,0,0,1,1.4-1.41c1.18-.48,2.53.59,2.83,1.82a6.52,6.52,0,0,1-.57,3.72,131.72,131.72,0,0,1-9.89,21l12.32-20.48a4.2,4.2,0,0,1,2.26-2.19c1.55-.39,3,1.21,3.15,2.8a8.34,8.34,0,0,1-1.47,4.5L500.34,71l-.1-2.63"/><path class="cllk-1" d="M456.14,120.07c-1.44-11.11-2.79-22.88,1.76-33.13.69-1.55,1.67-3.19,3.3-3.68,3.07-.92,5.49,2.68,6.4,5.75a43.65,43.65,0,0,1,1.54,16.75,28.9,28.9,0,0,1,10-23.79c.89-.75,2-1.49,3.15-1.18s1.76,1.7,2,2.92C487.53,98,474.67,111,473,125.52v-2.61"/><path class="cllk-1" d="M27.09,67.34,21.63,113.4a10.48,10.48,0,0,0,.22,5,9.16,9.16,0,0,0,4,4.08c9,5.66,19.87,7,30.39,8.24a9.58,9.58,0,0,0,4.48-.19c1.81-.68,3-2.37,4.09-4A212.93,212.93,0,0,0,90,74.44a5,5,0,0,0,.34-2.75,4.38,4.38,0,0,0-2-2.33c-8.9-5.86-20.92-2.3-31.21-5.07-9.57-2.58-17-10.47-26.42-13.44a3.52,3.52,0,0,0-2.4-.13C27,51.27,26.75,53,26.7,54.37l-.47,13.89"/><path class="cllk-1" d="M35.12,52.24,36,19.07c.08-2.72.79-6.21,3.48-6.62a3.94,3.94,0,0,1,4,2.84,11.39,11.39,0,0,1,.19,5.3A242,242,0,0,1,37,54.5c5.06-12,8.17-24.71,11.26-37.36,1.88.12,3.3,1.91,3.65,3.75a12.91,12.91,0,0,1-.59,5.56l-8,31a127,127,0,0,1,14-35.23c3,4.46,1.13,10.48-.87,15.49L47.92,59.12A159,159,0,0,1,76,14.85c2,2.43,2,6.15.82,9s-3.39,5.37-5.46,7.8a144.67,144.67,0,0,0-19,28.56,160.12,160.12,0,0,1,17.3-25"/><path class="cllk-1" d="M74.57,31.41c2.15,3.11,0,7.29-2.17,10.41L58.86,61.52a180.3,180.3,0,0,1,22-24.89c.95,10.91-13.34,17.31-15.63,28Q77.41,49.9,90.61,36.09c2.22,2.63.14,6.57-1.93,9.32L74.75,63.85A383.19,383.19,0,0,1,102,35.67c1.41,2.41-.36,5.38-2.13,7.54a149.63,149.63,0,0,1-23,22.66"/><path class="cllk-1" d="M32.19,108.63a45.35,45.35,0,0,1,6.6-25.29c1.64-2.67,5.36-5.34,7.45-3a5.1,5.1,0,0,1,1,3,43.74,43.74,0,0,1-1.37,15.78A60.66,60.66,0,0,1,56,85.75c1.36-1.36,2.94-2.73,4.86-2.83,3.15-.17,5.47,3.35,5.28,6.49s-2.09,5.89-4,8.45L47.45,118.25"/><path class="cllk-1" d="M462.34,341.48a8.53,8.53,0,0,0-14,7.58c.46,3.79,3.34,6.77,6.06,9.45l14.93,14.7a.87.87,0,0,0,1.57-.1,107,107,0,0,0,8.66-12.83c3.33-5.79,6.08-13.2,2.57-18.88a10.22,10.22,0,0,0-18.81,3.91"/><path class="cllk-1" d="M160.75,213.26a14.37,14.37,0,0,0-18.28,4.35c-1.29,1.92-2.08,4.46-1,6.53.86,1.69,2.7,2.61,4.43,3.38a168.53,168.53,0,0,0,34.42,11.09,93.28,93.28,0,0,0,1.89-26.35c-.22-3.13-.68-6.44-2.64-8.89-2.87-3.58-8.59-4.18-12.47-1.72s-5.79,7.43-5.16,12"/><path class="cllk-1" d="M368.54,69.68l-2-2.18L376.4,103c.75,2.7,1.55,5.49,3.29,7.69a14.32,14.32,0,0,0,7,4.5c10.46,3.29,21.55-1.67,31.39-6.51l.07-51c0-1.8,0-3.72-1-5.23-1.41-2.17-4.27-2.78-6.85-3a58.93,58.93,0,0,0-44.78,14.83"/><path class="cllk-1" d="M367,62,348.49,36.65a15.9,15.9,0,0,1-3.07-5.73c-.47-2.13.14-4.66,2-5.79s4.43-.5,6.11.93a15.9,15.9,0,0,1,3.62,5.46l13.31,27.74c-7.35-11-14.84-22.42-17.76-35.36-.38-1.68-.62-3.64.5-5s3.64-1.33,5.21-.25a11.81,11.81,0,0,1,3.41,4.52c5.54,10.54,11.1,21.12,15.31,32.26-2.87-16.66-16.45-29.5-21.62-45.6a2.22,2.22,0,0,1,0-1.87,2.06,2.06,0,0,1,1.21-.73,11.74,11.74,0,0,1,6.77.09L382.42,54.2a139.39,139.39,0,0,1-11.6-32.92c1.85-1.53,4.79-.87,6.53.78s2.56,4,3.33,6.29l7.89,23.4L377.89,7.7c-.47-2,.14-5.05,2.07-4.48a2.82,2.82,0,0,1,1.49,1.58c3,5.84,4.58,12.34,6.08,18.75l6,25.58-5.14-27a3.69,3.69,0,0,1,0-1.9c.55-1.59,3-1.57,4.19-.35s1.35,3,1.55,4.71a72.11,72.11,0,0,0,6.4,22.21l-5-36.84c2.21-.93,4.85.47,6.12,2.51s1.51,4.53,1.72,6.91l2.5,28.45a151.12,151.12,0,0,0-1-25c1.93-.42,3.89,1,4.79,2.7a13.62,13.62,0,0,1,1.08,5.77l.7,17.65q.55-16.89,2-33.74c.11-1.19.39-2.63,1.52-3a2.35,2.35,0,0,1,1.76.18C420,14,420,18.6,419.54,22.2l-3.93,29"/><path class="cllk-1" d="M388.67,99.77a102.08,102.08,0,0,1-6.33-23.9,10.67,10.67,0,0,1,.34-5.83c.81-1.8,3-3.14,4.79-2.34a5.58,5.58,0,0,1,2.47,3.1,66.56,66.56,0,0,1,4.57,14.66c.73-3.25.06-6.64,0-10s.56-7,3.18-9.09,7.51-1,7.87,2.36a110,110,0,0,1-2,35.69c-.15.66.26,1.43-.14,2s-1-.81-.48-.46"/><path class="cllk-1" d="M150.17,69.78c-4-2.18-8.85-4.37-12.79-2.14-3.66,2.07-4.52,6.87-5,11.05-.27,2.37-.51,4.88.47,7.05,1.19,2.64,3.9,4.2,6.45,5.58l24,13A90.42,90.42,0,0,0,170.95,71c.14-4,0-8.15-1.88-11.69s-5.83-6.24-9.74-5.43c-6.46,1.33-7.82,9.86-12.08,14.9"/><rect class="cllk-2" width="525" height="600"/></g></g></g></g></svg>
