<svg xmlns="http://www.w3.org/2000/svg" viewBox="0 0 525 600"><defs><style>.cls-1,.cls-2{fill:none;}.cls-1{stroke:#fff;stroke-linecap:round;stroke-linejoin:round;stroke-width:2px;}</style></defs><title>asia2</title><g id="Warstwa_2" data-name="Warstwa 2"><g id="Warstwa_1-2" data-name="Warstwa 1"><g id="Warstwa_2-2" data-name="Warstwa 2"><g id="Warstwa_1-2-2" data-name="Warstwa 1-2"><path class="cls-1" d="M206.93,101c20.1,2.83,40.52.16,60.64-2.52L319,91.6c9.59-1.28,19.89-2.89,26.81-9.64"/><path class="cls-1" d="M211.72,92.2l59-5c23-1.94,46.28-4,67.71-12.42,2-.78,4.29-3.11,2.73-4.56"/><path class="cls-1" d="M332.57,79.28l3.32,7.56c-2.34-11.55-8-22.59-16.89-30.32-5.42-4.72-11.86-8.09-18.23-11.42-9.44-4.93-19-9.89-29.1-13.12a92.05,92.05,0,0,0-33.56-4.12,23.38,23.38,0,0,1,27.58-4.92l-11.34-9.86a43.54,43.54,0,0,1,23.85,9L290.6,28l25.74,19.14c1,.78,2.53,1.57,3.55.75s-1.17-2.61-1.27-1.31a79.74,79.74,0,0,1,19.55,41.81c1.07-18.06-6-36-17-50.32S295.43,12.62,280,3.27c15-3.51,32,4.85,38.43,18.94l-1.69-6.43a9.9,9.9,0,0,0,9.13,9.45A81.34,81.34,0,0,1,337.74,78.6c-.43,3.37-1.27,7.05-4,9.05"/><path class="cls-1" d="M384.83,330a335.13,335.13,0,0,0-.63,37.3"/><path class="cls-1" d="M393,320.28q-.49,20.42.89,40.84"/><path class="cls-1" d="M400.91,330.94l1,39.06"/><path class="cls-1" d="M187.91,350.71c-1.43.39-.35,2.57.9,3.37a70,70,0,0,0,30.77,10.57,40,40,0,0,1-37.86-14.76c10.48,7.82,22.39,16,35.38,14.51A40.52,40.52,0,0,1,179,350.68a63.35,63.35,0,0,0,38.64,17.55l-2.18-1.78"/><path class="cls-1" d="M280.62,362.92a80.16,80.16,0,0,0,36.6,3.89c-6.61,1.48-13.35,3-20.1,2.45s-13.67-3.36-17.51-9a45.18,45.18,0,0,0,40.38,9.3c-4.49,6.77-13.29,9.87-21.35,8.9s-15.36-5.51-21.09-11.26A219.88,219.88,0,0,0,310.22,369c-10.36,1.31-21.3,2.55-30.91-1.54"/><path class="cls-1" d="M409.23,332.76q1.05,21.7,2.33,43.39l-2.63-.4"/><path class="cls-1" d="M419.27,334.53l4.44,38.17"/><path class="cls-1" d="M370,339.75l-1.91,32.42c-.16,2.77-.43,5.8-2.36,7.8"/><path class="cls-1" d="M359.44,335.66c-3.11,2.46-3.64,6.9-3.93,10.86L352,395"/><path class="cls-1" d="M348.3,340.67l-5,54.18"/><path class="cls-1" d="M339.23,351.31l-4.39,48.91"/><path class="cls-1" d="M329.56,363.72l-4,30.24"/><path class="cls-1" d="M225.89,362.81A234.2,234.2,0,0,0,214.82,402"/><path class="cls-1" d="M233.16,366.44a203.4,203.4,0,0,1-9.74,40.83"/><path class="cls-1" d="M242.77,369.07l-5.84,34.68"/><path class="cls-1" d="M253.54,369.09l-4,24.92"/><path class="cls-1" d="M172.72,340.63,153.64,379"/><path class="cls-1" d="M164.89,339.83l-17.8,31"/><path class="cls-1" d="M154.32,338.1l-21.13,38.27"/><path class="cls-1" d="M147.91,336.19a108,108,0,0,0-17.61,26.73"/><path class="cls-1" d="M426,335.5l6.16,39.82"/><path class="cls-1" d="M129.93,574.88q-1.71,9.52-3.25,19.07"/><path class="cls-1" d="M147,575.89q-1.9,9.44-3.49,18.93"/><path class="cls-1" d="M162.78,576.73q-.17,9-.5,18"/><path class="cls-1" d="M178.51,580.28l-.67,15.39"/><path class="cls-1" d="M192.87,582.06q-.14,7.31-.23,14.63"/><path class="cls-1" d="M209.35,582l-.43,14.64"/><path class="cls-1" d="M226.76,584.72l-.26,11.2"/><path class="cls-1" d="M241.17,580.3l.15,15.39"/><path class="cls-1" d="M256.89,581.17q-.17,7-.29,14"/><path class="cls-1" d="M274.69,579.45q.38,7.32.77,14.63"/><path class="cls-1" d="M295.06,586.52q.06,3.82.14,7.64"/><path class="cls-1" d="M313.24,590.12l.32,4.17"/><path class="cls-1" d="M347.34,434.2l6.56-13.34,5.69,15.33a70.44,70.44,0,0,1,7.92-13.13l1.89,17.23a77.54,77.54,0,0,0,7.4-15.9l4,17.18q4.13-7.28,8.92-14.14l5.65,14.92L399,430.19a2.18,2.18,0,0,1,1-1.53c1-.42,1.9.75,2.37,1.73l5.22,11L413,424.23a40.88,40.88,0,0,1,5.77,15.89"/><path class="cls-1" d="M127.3,399.67a63.88,63.88,0,0,0,26.91,11.15"/><path class="cls-1" d="M206.92,98.57A4.42,4.42,0,0,1,208,92.49l4.72,7.91,5.15-7.33,7,7.59,4.64-8.31L240.7,100a25.8,25.8,0,0,1,3.75-7.85l11.44,6.27a12.83,12.83,0,0,1,6-8.49,5.08,5.08,0,1,0,10.11-.6l7.6,6.28a14.2,14.2,0,0,0,3.46-6.74l6.65,5.19,3.47-7.5A58.52,58.52,0,0,1,303,93.42a30.66,30.66,0,0,0,4.37-8.19,17.63,17.63,0,0,0,6.73,4.65,21,21,0,0,0,3.71-7.4l5,5.62a35.42,35.42,0,0,1,4-7.73,19.73,19.73,0,0,0,9.86,4.5,12,12,0,0,1,1.18-6.93,6.8,6.8,0,0,1,5.43,3.22"/><path class="cls-1" d="M107.66,439.2l4.44-8.34a14.61,14.61,0,0,1,2.24,9.79,71.38,71.38,0,0,1,7.87-11.87,60.36,60.36,0,0,1,.84,16.43,73.28,73.28,0,0,1,8.8-14.21,75.09,75.09,0,0,1-.33,15.75,13.51,13.51,0,0,1,4.83-8.19l.27,9.31,5.79-7.6,2.34,9.51"/><path class="cls-1" d="M251.59,304.51l16.89,27.15a3.06,3.06,0,0,0,1.26,1.33,2.92,2.92,0,0,0,2.6-.63c13.17-8.57,17-28.07,31.34-34.42"/><path class="cls-1" d="M268.9,334.86A11,11,0,0,0,262,343a9.07,9.07,0,0,0,4.6,9.41c2.73-5.36,5.51-11.57,3.3-17.17"/><path class="cls-1" d="M8.15,4.49c-.18,48,49.16,86,47.74,134.05-.26,8.71-2.23,17.27-4.19,25.77l-9.57,41.44c-5.73,24.82-11.5,50.08-9.82,75.5,1.53,23.15,9.2,45.45,18.35,66.75,9.24,21.55,20.3,43.69,18.59,67.07-1.56,21.34-13.74,41-13.93,62.45"/><path class="cls-1" d="M54,480.16a14.77,14.77,0,0,0,12.34,13.71,67.52,67.52,0,0,0-10.79-17.68,31,31,0,0,0-11,20.66,65.06,65.06,0,0,0,9.08-27.59A13.64,13.64,0,0,0,43.34,484.7l14.43-29a15.32,15.32,0,0,1,4.69,18.63A22.8,22.8,0,0,1,58,449.71a154.2,154.2,0,0,0-13.58,16.92,113.27,113.27,0,0,0,19.21-30.85A16.84,16.84,0,0,1,73,452.5c-6.2.42-6.9-10.52-12.86-12.27-3-.87-6.17,1.1-7.75,3.76s-1.9,5.85-2.18,8.93A110,110,0,0,0,68.61,425a40.57,40.57,0,0,1,7.11,11c1.41-3.7,2.84-7.6,2.27-11.52s-3.89-7.75-7.83-7.38c-6,.55-7.63,9-12.83,12.14C67.41,428.15,74,415.17,69,406.36l10.31,7.31c2.42-3.56.51-8.74-2.94-11.31s-7.92-3.22-12.19-3.79a24.92,24.92,0,0,0-1.09,13.56,22.59,22.59,0,0,0,3.64-22.29L76.87,393a19.14,19.14,0,0,0-18.62-14.8A29.57,29.57,0,0,0,59.62,394a31,31,0,0,0-3.39-30.45,26.2,26.2,0,0,0,13,13.12c3.61-3.28-.26-9.38-4.73-11.3s-10-2.58-12.7-6.67a26.73,26.73,0,0,0,.83,18.14,21.74,21.74,0,0,0-2.34-23.11c1,2.31,2.2,4.79,4.43,6s5.74.06,5.88-2.46c.1-1.94-1.69-3.39-3.31-4.48l-10.63-7.21A28.55,28.55,0,0,0,44,360l1.71-16.48"/><path class="cls-1" d="M40.38,329.34a23.73,23.73,0,0,0-3.71,16.86l6.08-13.29c.89,2.14,1.87,4.39,3.76,5.74s5,1.29,6.13-.72,0-4.21-1.15-6A74.81,74.81,0,0,0,40.1,317.79a20.93,20.93,0,0,0-8.94,16.34,32.81,32.81,0,0,0,7.41-26.39,8.77,8.77,0,0,0,10.76,6.17l.31-.09a29.72,29.72,0,0,0-11.21-11.57c-1.4-.81-3.07-1.52-4.6-1a5.52,5.52,0,0,0-2.54,2.36,24,24,0,0,0-3.48,17.59,39.11,39.11,0,0,0,6-31.61,13.65,13.65,0,0,0,10.91,9.52c1.31-8-5.2-16.31-13.24-17a16.29,16.29,0,0,0-5.28,17,33,33,0,0,0,3.79-29,21.52,21.52,0,0,0,10,9.54,16.09,16.09,0,0,0-6.7-16.7,41.25,41.25,0,0,0-14.53,19.25c6,.41,10-6.16,11.21-12s1.28-12.49,5.33-16.92c-2,5.27,4.08,11.54,9.42,9.71a24.76,24.76,0,0,0-10.26-18.51A35.33,35.33,0,0,0,22,263a29.7,29.7,0,0,0,13.19-28.45A23.48,23.48,0,0,0,43.8,244.7c4.43-5.76.64-15.67-6.51-17S23,234.25,25,241.22a23.62,23.62,0,0,0,13.33-21.89,19.37,19.37,0,0,0,7.93,9.5c3.38-5.51,1.64-14-4.33-16.52s-13.83,4.2-11.26,10.13a35.17,35.17,0,0,0,11.82-23.27,10.18,10.18,0,0,0,7.39,10.59A19,19,0,0,0,42,192.19a15,15,0,0,0-10.25,15.54A40.37,40.37,0,0,0,46,183a12.11,12.11,0,0,0,9.09,10.9,47.72,47.72,0,0,0-6.85-19.59,16.59,16.59,0,0,0-10.9,17.06A38.1,38.1,0,0,0,48.87,165.2a14.88,14.88,0,0,0,8.31,9,24.51,24.51,0,0,0-6.34-17.81,17.28,17.28,0,0,0-11.62,14.82A28.54,28.54,0,0,0,52.86,146.6a19.49,19.49,0,0,0,10.61,12.56c1.86-6.56-2.54-14.21-9.13-15.91s-14.14,2.87-15.69,9.5A13.63,13.63,0,0,0,53.05,132a17.58,17.58,0,0,0,13.86,10.26,14.61,14.61,0,0,0-26.41-7.1c1.67,5.36,10.53,4.38,13.25-.54s1.29-11-.21-16.4a29.37,29.37,0,0,0,11.51,8.28A85.52,85.52,0,0,0,48.4,112.17l-4.94,14.45c4.11,1.48,6.8-4.45,6.66-8.81a44,44,0,0,0-6.69-21.88A31.51,31.51,0,0,0,57.26,112.1,25.45,25.45,0,0,0,43.79,93.26a40.29,40.29,0,0,0-5.66,23.49c7.32-11.33,6-27.5-3-37.53a20.44,20.44,0,0,0,19.3,14.67,59.22,59.22,0,0,0-18.5-16.33A29.56,29.56,0,0,0,33,100.17c5.92-10.84,3.67-25.52-5.24-34.09L40.62,76.77c2.18-8.59-5.34-18.21-14.21-18.15L21.24,74.48a5.12,5.12,0,0,0-.3,3.35c.84,2.21,4.39,2,5.81.11s1.28-4.49,1-6.83A62,62,0,0,0,18.38,46.3a53.25,53.25,0,0,0,13.56,9.82c3.47-1.21.16-6.34-3.14-8L13.41,40.7c2.6,3.5.46,8.34-.48,12.59s1.56,10.41,5.73,9.12a82,82,0,0,0-4.93-29.14c-.4-1.09-.94-2.29-2-2.65s-2.49,1-1.7,1.89"/><path class="cls-1" d="M11.64,29A16,16,0,0,0,7.53,43.24a2.28,2.28,0,0,0,.55,1.21c1.3,1.24,2.94-1.14,3.16-2.92l2.09-16.89a14.74,14.74,0,0,0,5.94,8.75c2,1.4,5.12,2.13,6.78.29s.68-4.61-1.06-6.13-4.06-2.14-6.18-3.07A21.24,21.24,0,0,1,7,10.62"/><path class="cls-1" d="M40.66,4.46c-.1,17,15.91,28,29.92,34,20,9,35,25,39,47,2,13,1,24-1,37-7,35-32,73-6,105.06,5,5,11,9,16,14,6,8,7,18,5,28-6,23-24,49-4,70,1,1,3,1,3.62,1.8"/><path class="cls-1" d="M38,3.63a30.84,30.84,0,0,0,1,28.14L40.8,16.39A26.1,26.1,0,0,0,56.22,21,58.9,58.9,0,0,0,40.49,4.83a62.07,62.07,0,0,0,16.7,40.1A23.35,23.35,0,0,0,53.74,29.5a17,17,0,0,0,19.18,2.42,51.93,51.93,0,0,0-26-4.92c7.56-3,14.27,5.72,17.69,13.12s9.88,16.26,17.54,13.49A38.21,38.21,0,0,0,70.57,39.9a45,45,0,0,0,28,3.2,37.64,37.64,0,0,0-31.45-.55c7.42-.43,16.49,0,20,6.58,2.21,4.18,1.14,9.25,1.31,14S91.28,73.47,96,73.36a38,38,0,0,0-1.9-18.55,18,18,0,0,0,21,9.48A39,39,0,0,0,88.44,53.67c7.88-1.07,13,8.74,12.41,16.68S96.67,86.06,98,93.91l6.5-17.75a13.12,13.12,0,0,0,13.36,9,20.37,20.37,0,0,0-15.21-14.33c6.2,6,5.29,16.18,2.37,24.28s-7.45,16-7.06,24.64L109.24,97.8a15.4,15.4,0,0,0,11.43,16.48,37.68,37.68,0,0,0-11.52-24.81c5.28,15.84-2.47,35-17.29,42.64C99,133.35,105,126.81,109.37,121a15.26,15.26,0,0,0,8.9,14.93,30,30,0,0,0-7.68-23c1.81,7.77-2.25,15.54-4,23.31s.54,18.22,8.39,19.63a44.79,44.79,0,0,0-8.72-24.31,27,27,0,0,0-14.89,20.1A12.34,12.34,0,0,0,102.63,141a34.49,34.49,0,0,0,8.62,28.48c3.93-7.1-.74-17.39-8.67-19.1S86.13,156,86.78,164.13a37.67,37.67,0,0,0,17.07-9c-7.34,6.07-4.76,20.05,4.27,23.1,0-6.76-2.39-16-9.12-15.39-2.5.21-4.61,1.93-6.31,3.77a30.54,30.54,0,0,0-8,20.78,34.15,34.15,0,0,0,9.74-10.57,27.25,27.25,0,0,0,7.48,13.84c4.21-7.18.7-17.71-7-20.92.65,7.29-3.4,14-6.49,20.67s-5.19,14.88-1.06,20.92L91.11,201a8.48,8.48,0,0,0,10.37,5.89,40.41,40.41,0,0,0-10-18.64l-.31,39.19c0,3.63.91,8.42,4.52,8.78a15.15,15.15,0,0,0,1.49-9.61,7.12,7.12,0,0,0,9.44-3.51q.09-.2.17-.42l-19.32-8.25c6.67-1.69,11.59,6.34,12.81,13.12s2,15,8.22,18a9.52,9.52,0,0,0,.15-9.07c4.85,2.49,11.6-2.25,10.91-7.65a74.31,74.31,0,0,1-16.92,1.34c7.14-1.18,13.18,6.58,13.09,13.82s-4.3,13.69-8.36,19.68A55.5,55.5,0,0,0,118.88,242l9.89,4.81a26.48,26.48,0,0,0-13.45-9.95,23.59,23.59,0,0,1,10.15,9.62A57.24,57.24,0,0,0,109,274.24a56.24,56.24,0,0,0,13.83-13,14.41,14.41,0,0,0,8.3,10.22,43.65,43.65,0,0,0-8-18.32A37.86,37.86,0,0,1,108.4,286a31.3,31.3,0,0,0,13.35-7,22.31,22.31,0,0,0,4,14.55,37.33,37.33,0,0,0-3.54-24.33c5,14.37-16.86,25.44-16.93,40.65l10-8c-1,4.41.49,11.4,4.79,10a36.76,36.76,0,0,0-6.1-23.72c4.42,15.25-13,31.55-6.44,46l3.37-12.46c1.88,4.71,8.8,6.41,12.65,3.11a83,83,0,0,0-12.4-13q1.22,18.23,3,36.42a21.36,21.36,0,0,0,3.32-15.07c-.36,2.57,2.8,4.48,5.34,4s4.44-2.59,6.16-4.53a15.25,15.25,0,0,0-11.81-.72,40.34,40.34,0,0,0,14.43,19.57c2.56-2.65.9-7.45-2.26-9.35s-7.09-1.75-10.77-1.54"/><path class="cls-1" d="M101.82,2.71c-2.19.9-1.57,4.15-.51,6.26,9.55,19,24.24,34.84,36.55,52.18S160.47,98.75,159.1,120c-.89,13.82-6.65,26.79-10,40.24s-3.75,28.9,4.74,39.84c3.95,5.09,9.46,8.7,13.93,13.33,12.71,13.17,15.4,34.92,6.28,50.78-3.7,6.43-9.23,12.35-9.68,19.75-.68,11,13.36,19.8,23,14.39"/><path class="cls-1" d="M97.91,7.24a87.93,87.93,0,0,0-3.1,20.7,26.36,26.36,0,0,0,8.43-9.2c2.1,4,8.25,4.94,11.47,1.82l-14.88-13a69.55,69.55,0,0,0,13.83,33.79,20.82,20.82,0,0,0-.42-11.62,20.32,20.32,0,0,0,15.46,9,31.71,31.71,0,0,0-16.85-12.45c4.45-1,8.19,3.94,8.54,8.47s-1.35,9-1.45,13.54,2.41,9.87,6.95,10.23l-.73-12.2a27.16,27.16,0,0,0,16.54,6.51,73.86,73.86,0,0,0-17-9.46l6.41,30.3a12.09,12.09,0,0,0,4.61-11.86,14.82,14.82,0,0,0,17.24,6L134.1,58.57c5.81,1.51,7.09,9.13,6.74,15.13s-.52,13.3,4.58,16.47L149,77.73a13,13,0,0,0,13.48,8.69A63.14,63.14,0,0,0,140.71,72.5c5.86,2.64,9.1,9.27,9.53,15.68s-1.45,12.73-3.3,18.88l10.81-12.32a14.08,14.08,0,0,0,10.05,11.77,28.19,28.19,0,0,0-13.34-18.63A37.77,37.77,0,0,1,146.23,121c6.37-.59,10.81-6.37,14.42-11.64a13.75,13.75,0,0,0,8,14.66,18.61,18.61,0,0,0-8.36-21.72,75.65,75.65,0,0,1-13.13,32.37,14.68,14.68,0,0,0,12.8-7.46A10.81,10.81,0,0,0,169.64,139a13.27,13.27,0,0,0-9.4-15.11c2.76,11.7-16.3,20-13.84,31.78q5.38-5.38,11-10.47a10.29,10.29,0,0,0,11.68,8.42,22,22,0,0,0-16.45-14.91c4.07,5.45-.73,13-5.6,17.73s-10.57,11.07-8,17.38a33.58,33.58,0,0,1,11.34-13.17,11.12,11.12,0,0,0,9.95,10.2,15.76,15.76,0,0,0-7.4-15.51c-.44,7-5.94,12.53-10.39,18s-8.23,13.12-4.86,19.33A89.58,89.58,0,0,0,147.6,180c-3.37,3-.49,9.63,4,9.87s8.16-4.86,7.23-9.29-5.43-7.54-10-7.8c2.89,5.9-1.27,12.57-3.61,18.7s-.52,15.69,6,15.42a8.35,8.35,0,0,0,1.34-8.19c-1.39,2.5.81,5.84,3.61,6.43s5.65-.85,7.8-2.74a3.49,3.49,0,0,0,1.44-2.35c0-1.47-1.52-2.4-2.86-3l-15.28-7c9.71,5.1,6.2,20.21,11.82,29.62.92,1.54,2.35,3.05,4.15,3,2.24,0,3.76-2.58,3.56-4.82s-1.6-4.15-2.95-6a15.83,15.83,0,0,0,17.28-2,26.24,26.24,0,0,0-21.31-1.9c3.41-3.14,9.39.14,10.65,4.6s-.45,9.14-1.76,13.59-2.08,9.65.66,13.38a21.2,21.2,0,0,0,2.71-12.6c1.84,2.35,4.43,5,7.31,4.18,3.58-1,3.48-6.7.56-9s-7-2.14-10.72-1.88A49.08,49.08,0,0,1,182.88,236c-8.6,2.07-14.84,11.26-13.58,20a35.59,35.59,0,0,0,11.35-13,18,18,0,0,0,7.3,13.81,20.41,20.41,0,0,0-7.67-21.86c4.63,6.58-.22,15.81-6.37,21s-13.95,9.19-17.25,16.53a53,53,0,0,0,21.41-12.16,13.67,13.67,0,0,0,3.77,15.62,73.94,73.94,0,0,0-2.27-22.35c1.84,14.79-26.48,19.9-24.25,34.63a46.63,46.63,0,0,0,10.94-10.82c.62,5.56,7.43,9.44,12.53,7.14A29.18,29.18,0,0,0,169.54,268c.42,6.86-3.73,13-6.1,19.49s-2,15.32,4.15,18.28a24.78,24.78,0,0,0,1.86-10.62c1.12,3.88,7.54,4,9.47.41s-.41-8.33-4.1-10-8.1-.65-11.57,1.41c4.36,1.2,7.07,5.41,9.5,9.22s5.49,7.9,10,8.54,9.19-5.08,6.11-8.38a15.47,15.47,0,0,0-12.27-1.76"/><path class="cls-1" d="M381.85,6.15a138.23,138.23,0,0,0,6.53,108c3.27,6.47,7.09,12.79,8.62,19.88,3.85,17.91-7.58,35-14,52.16a101,101,0,0,0,6.15,83.62c3.69,6.62,8.5,13.13,15.51,16s16.53.72,19.52-6.25"/><path class="cls-1" d="M377.53,5.42a22.89,22.89,0,0,0-13.63,17.5A40.5,40.5,0,0,0,381.83,9.84,14.18,14.18,0,0,0,387,23.39c4.76-5.93,2.45-16.07-4.41-19.35L363.07,39.9a20.45,20.45,0,0,0,12.07-9.61A14.23,14.23,0,0,0,386.5,41.92a28.86,28.86,0,0,0-8.16-18.49C379.72,36.08,359.58,45,363.87,57a39,39,0,0,0,11.61-14.1,14.73,14.73,0,0,0,10.38,12c1.89-6.58-4-14.14-10.82-13.94a80.15,80.15,0,0,0-8.71,34.69,31.8,31.8,0,0,0,9.26-16.14A18.93,18.93,0,0,0,386.41,75c4.06-8.09-4.14-16.71-11.44-22.07a191.93,191.93,0,0,0-6.58,46.13,16.1,16.1,0,0,0,5.94-14.34A14.43,14.43,0,0,0,389,93.43c2.25-8.57-6.75-15.55-14.49-19.84l-.18,38.11c0,3,1.38,7.12,4.24,6.34,2-.55,2.43-3.23,2.41-5.35l-.09-13.39c2.09,3.78,4.55,7.88,8.66,9.21s9.65-2.49,8.06-6.51c-.69-1.74-2.39-2.83-4-3.7a50.08,50.08,0,0,0-14.36-5c4.31,3.92,5.43,10.32,4.9,16.13s-2.45,11.4-3.18,17.18c-.5,4,1.85,9.66,5.5,8.08a32.13,32.13,0,0,0,3.94-15.11c3,2.94,6.52,6.09,10.74,6s7.85-5.84,4.69-8.64a8,8,0,0,0-3.58-1.49L391.6,113c6.34,4.07,4.41,13.92.46,20.34s-9.43,13.18-7.83,20.54l12.67-15.61a9.86,9.86,0,0,0,7.8,10.66c5.77-7.62,1.73-20.46-7.36-23.4a24.63,24.63,0,0,1-7.93,28.32c-3,2.2-6.52,3.74-9,6.51s-3.42,7.49-.7,10L392.12,158a25.88,25.88,0,0,0,3.82,18.59A45.82,45.82,0,0,0,398.4,148a97,97,0,0,1-20.49,32.94c-3.79,4-8.27,9.46-5.65,14.32l13.3-15.75a17,17,0,0,0,6.26,15.38,28.21,28.21,0,0,0-2-25.93c.75,17.18-20.69,28.85-21,46.05a22.7,22.7,0,0,0,7.59-8.15,20.78,20.78,0,0,0,10.82,6.4,31.81,31.81,0,0,0-5.77-23.77c.22,10.12-5,19.43-8.6,28.9s-5.3,21.07,1,29a42.59,42.59,0,0,0,1.51-17c1.48,2.74,3.27,5.61,6.17,6.74s7-.66,7-3.77a6.88,6.88,0,0,0-1-3,65.44,65.44,0,0,0-14.4-18.15,73.64,73.64,0,0,1,2.79,47c-1.44,5.23-2,13,3.33,13.92l4-17.28c1.67,2,3.47,4.19,6,5.11s5.84,0,6.67-2.49-1.32-5.22-3.32-7.15l-10.49-10.09c10.4,13.51-5.27,35.61,4.75,49.41a18.78,18.78,0,0,0,5.88-17.32c1.64,3.94,8.2,3.75,10.31,0s0-8.83-3.82-10.82-8.52-1.32-12.28.69c6.49,1.19,9.06,9.07,9.55,15.65s.6,14.18,5.77,18.28a5.82,5.82,0,0,0,5,1.4c4.92-1.34,2.87-8.78-.17-12.88,5.39,1.77,11.68-3.68,10.7-9.27a92.31,92.31,0,0,0-21.62,4.33l23.51,8.42c1.49.53,3.12,1.07,4.63.59a6.68,6.68,0,0,0,3.21-2.93,37.17,37.17,0,0,0,5-29.32,75,75,0,0,0-12.71,28.47"/><path class="cls-1" d="M432.18,2.71a111.11,111.11,0,0,0-4.1,65.72c5.87,23.89,19.77,46.32,18.89,70.91-.7,19.53-10.82,38.64-7.15,57.83,4.33,22.65,26.28,37.75,34.8,59.18,6.77,17,4.37,36.24.42,54.13s-9.41,35.82-8.43,54.12c.89,17.15,7.39,33.4,13.83,49.4,3.22,8,6.51,16.09,11.84,22.86S505.36,449,514,449.42"/><path class="cls-1" d="M430.71,4.45q-9,18.25-16.64,37.08a11.55,11.55,0,0,0,10-9,17.9,17.9,0,0,0,7.44,13.22,20.61,20.61,0,0,0-5.67-20.27c1.14,10.9-15.86,24-6.83,34.34l5.36-12.3c-.51,7,5.49,11,9.49,16h2c3-8-4-14-10.94-16a122.62,122.62,0,0,0-2.51,32.74A9,9,0,0,0,428,70.54c3.78,3,6.78,6,11.79,6,1-7-4-14-12.63-13.71,9,10.42-7.56,25.15,0,36.25a22.21,22.21,0,0,0,5.2-12.5c1.63,3.51,8.44,11.34,12.15,5.62,4.35-6.73-6.34-9.89-10.74-10.37a167.47,167.47,0,0,1-3.43,32.29,12,12,0,0,0,5.87-13.21c1.94,2,1.34,5.52,3.42,7.41s4.51.55,5.81-1.46c4.06-6.3-4.76-10-9.41-11.34,9.8,2.46,3.93,15.9,1.31,21.28-1.45,3-5.43,11.54-1,13.8,5.68,2.88,6-6.33,5.41-9.3,2.37,2.43,5.18,5.24,8.77,5.46,2.9.18,6-1.45,6.21-4.64.41-7.93-11.1-7.85-15.88-10.33,11.81,10.15-3.59,27.12-4.71,38.27a13.91,13.91,0,0,0,10.74-10.48c-.09,3.56,0,8.28,3.54,10.22s6.15-.2,6.62-3.76c1-7.13-3.58-14.66-10.09-17.51,6.73,11.28-8.5,23.93-11,34.38a11.89,11.89,0,0,0,1.26,9.24L444,159.37a17.11,17.11,0,0,0,6.85,12.79,19.45,19.45,0,0,0,.74-20.05l-15,24.38c-3.64,5.92-11.74,15.37-7.72,22.77a61.34,61.34,0,0,0,8.81-15.07,15.29,15.29,0,0,0,11,9.93,32.4,32.4,0,0,0-6.54-23.85c1,15.35-14.24,32.5-5.54,47.2a33.33,33.33,0,0,0,3.69-13c2.48,4.13,7.48,7.13,10.49,4.13,6-8-6-7-11.49-9.89,5.11,10.33-5.41,29.44,7.28,36.24a21.41,21.41,0,0,0-.06-16.82c1.76,4.17,13.37,9.95,14.57,2.81,1.61-9.54-11.47-8.82-17-7.57,8.32,1.26,8.29,12.52,8.25,18.82-.55,6.42,1.45,13.43,7.45,16.43,5-5,3-12-.86-16.22,2.72,2.27,3.54,3.42,0,0,2.72,2.27,12.36,5.83,11.66-1.45-.43-4.45-12.4-5.5-15.76-6.37a21.9,21.9,0,0,1,8.35,19.17c-.44,4.8-6.4,14.85-.5,18.24l4.44-13.7c.69,2.8,4,6.83,7.33,6.2,2.55-.49,3.55-3.62,3.5-5.85-.2-7.88-9.5-8.82-15.52-8.93,6.21,2.9,6.38,11.06,5,16.8-2,8.13-8.51,15.77-6.25,24.58a21,21,0,0,0,10.66-16.18c1,6.91,10.59,14.21,15.9,6.47,2.26-3.29.67-7.45-2.07-9.89-3.47-3.09-8.47-3.42-12.88-3.69,8,14.4-12.12,28.92-5.76,43.72a28,28,0,0,0,11.63-16.41c.33,3,1,7.18,4.1,8.68s5.85-.72,7.11-3.41c3.55-7.57-5.28-12.45-10.92-15,2.87,10.61-1.1,19.84-7.51,28.13-4.37,5.66-11.1,17.1-2.53,22.63a36.11,36.11,0,0,0,5.94-13.72,25.4,25.4,0,0,0,7.68,9.43c4.79-8.15,2.53-19.68-5-25.43a42.41,42.41,0,0,1-6.75,28.11c-4.55,7-11.5,14.17-10.9,23.17a36.8,36.8,0,0,0,12.71-13.31c-3.45,4.27,5.59,9.46,8.57,3.4,3.31-6.72-3.66-12.12-8.56-15.28,4,18.67-18.74,33.31-12.77,51.91a26.51,26.51,0,0,0,5.66-14.54c1.12,7,10.92,4.88,12.94-.32,3.08-7.93-3.88-14.69-9.28-19.37,1.55,11.32-.27,22.11-3.88,32.83-2.37,7-6.13,17.85,1,23.43A47.85,47.85,0,0,0,469.4,383c-.69,6.62,9.82,6.28,11.23.33,2-8.26-7-12.54-13.53-13.88,4.86,9.09,3.69,19.88,1.12,29.46-1.4,4.83-4.4,9.83-3.4,15.83,1,1,0,6,4,3s7-10,6.3-16.24L487,408.83c5.08-8.35-3.53-20.85-13.14-19.08,9,9.94-3,22-3,33,1,4,2,9,8,10,4-5,4-11,4.15-16.89,3,3.56.48,3,0,0,.86.88.86,1.88,1.86,2.88,5,4,13,8,17,1v-4c-3-7-12-7-18-5-3,11,0,22-.64,33.3a13,13,0,0,0,8.42-14.72c5.51,3.62,17.45,8.91,19.76-1.27,1.89-8.34-9.63-6.94-13.48-3.08-4.21,4.23-5.55,11.28-3.61,16.86a16.6,16.6,0,0,0,7.11,8.4c1.31.81,4.09,2.56,5.7,2.32s3.68-2.7,4.58-4c2-2.81,4.41-10.12,0-11.93-2.1-.85-5.13,0-7.27.27l-9,1"/><path class="cls-1" d="M428,4.16a32,32,0,0,0-9.4,15.92,10.81,10.81,0,0,0,10-5.28,12.68,12.68,0,0,0,3.77,11.09,37.6,37.6,0,0,0-.6-21.47"/><path class="cls-1" d="M474.55,4.33a63.59,63.59,0,0,0-1.67,50.17c6.38,16.13,21.24,27.6,26,44.49a77.79,77.79,0,0,1,1.88,29.75c-1.26,9.48-7.33,16.41-11.65,24.59a67.4,67.4,0,0,0-4.92,49.54c2.33,8.13,6.49,18.94,14.3,23.32,3.53,2,7.55,2.09,10.66-.68,2.5-2.23,4.2-6.36,1.57-9.16"/><path class="cls-1" d="M472.82,4.27a120.9,120.9,0,0,0-16.28,25.51l14.19-13.16A14.86,14.86,0,0,0,478.81,32a17.9,17.9,0,0,0-8-17.33,131.09,131.09,0,0,0-10.42,25,22,22,0,0,0,9-9.15,14.47,14.47,0,0,0,12.94,14.11,22.88,22.88,0,0,0-7.21-9.72c-1.21-1-3.72-3-5-2.43s-2.65,4-3.24,5.27a26.85,26.85,0,0,0,.54,23.47l6.27-11a15.85,15.85,0,0,0,13.64,6.6,28.9,28.9,0,0,0-17.22-11.14,91.83,91.83,0,0,0,5.59,33.86,30.93,30.93,0,0,0,2.73-14.09,15.78,15.78,0,0,0,13.68,6.26A31.76,31.76,0,0,0,476,57.83a220.38,220.38,0,0,1,7.47,31.86,15.65,15.65,0,0,0,2-11.78,27.07,27.07,0,0,0,16.93,8.16c-2.53-5.56-6.53-10.56-13.54-11.56-1,10-3,19-3.39,28.8a12.45,12.45,0,0,0,6.43-11.09A20.23,20.23,0,0,0,505,104.3a15.5,15.5,0,0,0-11.8-16.79,67.18,67.18,0,0,1-2.66,27.42,9,9,0,0,0,9.77-8.07,12.74,12.74,0,0,0,8.81,11.68,14.84,14.84,0,0,0-7.79-14.63,61,61,0,0,1-12.23,21.21,18.3,18.3,0,0,0,12.29-3.85c-2.6,6.27,2.4,13.27,8.41,14.27,2,0,1-3,1-5-1-4-2-9-8-10-5,6-10,12-15.49,17.88l11.93-7c-.44,1.1.57,2.1.57,3.1-2,6-8,15,0,19,1-7,2-14,1.4-20.6A163.11,163.11,0,0,0,477.13,152a12,12,0,0,0,11-3.27c-.3,3.79-2.31,7.79-2.31,11.79,0,2,1,3,1,5,1,3,5,3,7,1,4-4,1-12-4-15-9,4-15,11-18.78,19.4a14,14,0,0,0,10.84-4.43c1.77,3,.62,22.31,9,16,4.37-3.31,2.17-9-1.17-11.95a25.26,25.26,0,0,0-3-2.22c-1.53-1-1.75-1.29-3.24-.33a17.77,17.77,0,0,0-4.89,5.79A22.53,22.53,0,0,0,476,190.5a8,8,0,0,0,5.79-5.53c1.46,4.23,5,11.47,10.83,9,4.39-1.91,2.56-8.14-1.19-9.63-5.68-2.26-10.37,4-11.49,8.73-1.49,6.3-.74,13.38-.8,19.81a8,8,0,0,0,6.54-7.57c2.11,1.73,4.78,3.84,7.69,3.48,2.36-.29,4.74-2.38,4-4.92-1.51-5.09-12.79-6.1-17-6.31,7.73,7.38-2,24.73,8.57,29.55l3-7.65c1.32,4.71,8.45,2.07,8.21-2.31-.4-7.25-9.38-7-14.16-4.82,3.71,6.52,10.49,17,19.46,13,4.35-1.67,7.36-6.67,4.35-10.67-3,3-7,4-9.9,6.88"/><path class="cls-1" d="M466.44,4a30.68,30.68,0,0,0-8.86,12.87L475.67,7.1a9,9,0,0,0,7,10.61q.39.08.79.12a31.73,31.73,0,0,0-3.7-13.72"/><path class="cls-1" d="M190.89,484.66a42,42,0,0,0-7.56,40.7c.2.57.35,1.34-.16,1.65s-.82-1-.29-.7"/><path class="cls-1" d="M204.06,489.1c-4.42,2.35-7.29,7-8.66,11.78s-1.42,9.9-1.46,14.91c-.05,6.34-.06,12.92,2.62,18.66l.4-2.11"/><path class="cls-1" d="M217.29,493.31c-6.85,6.2-9.52,16-9.08,25.24s3.57,18.09,6.74,26.77l.52-2.35"/><path class="cls-1" d="M274.77,569.94a36.28,36.28,0,0,1-17-8.19l20.68-1.94a95.9,95.9,0,0,1-18.3-12.25,37.53,37.53,0,0,0,15.27-3.79,24,24,0,0,1-14-5.88,43.32,43.32,0,0,1,19.08-6.58,29.21,29.21,0,0,0-13.12-6,32.47,32.47,0,0,0,12.88-2,84.79,84.79,0,0,0-9.21-9.75,49.67,49.67,0,0,0,13.6-.65q-5.35-2.55-10.67-5.18a49.72,49.72,0,0,1,15.89-2.24L275,498.43"/><rect class="cls-2" width="525" height="600"/></g></g></g></g></svg>