<svg xmlns="http://www.w3.org/2000/svg" viewBox="0 0 525 600"><defs><style>.cls-1,.cls-2{fill:none;}.cls-1{stroke:#fff;stroke-linecap:round;stroke-linejoin:round;stroke-width:2px;}</style></defs><title>kamil2</title><g id="Warstwa_2" data-name="Warstwa 2"><g id="Warstwa_1-2" data-name="Warstwa 1"><g id="Warstwa_2-2" data-name="Warstwa 2"><g id="Warstwa_1-2-2" data-name="Warstwa 1-2"><path class="cls-1" d="M386.88,239.38a72,72,0,0,1-35-16.75c-3.5-3.08-6.87-6.85-7.38-11.48-.82-7.54,6.81-14,14.38-14.35s14.68,3.59,20.75,8.13c-2-3.38-1.33-7.9.92-11.12s5.8-5.32,9.48-6.72,7.73-2.11,11.15-.38c4.7,2.38,6.15,8.44,6,13.7-.39,10.07-4.83,19.48-9.18,28.57l-5.45,11.38"/><path class="cls-1" d="M97.85,58.59c-1.53-3.77.24-8.06,2.48-11.46A42.51,42.51,0,0,1,159.21,35q1.27.84,2.49,1.77"/><path class="cls-1" d="M98.57,61.39a84.06,84.06,0,0,0,33.28,8c4.94.15,10.13-.21,14.35-2.79a22.3,22.3,0,0,0,6.35-6.34,42.29,42.29,0,0,0,7.14-17.41"/><path class="cls-1" d="M110.27,36.65c-3.07,3.79-.54,9.48,2.62,13.2,4.3,5,10.07,9.31,16.67,9.89a18.07,18.07,0,0,0,16.94-9,18.07,18.07,0,0,0-1.22-19.12"/><path class="cls-1" d="M125.62,33.84c-3.78,1.65-4.34,7.6-1.23,10.31s8.42,1.83,10.95-1.43,2.31-8.15,0-11.58"/><path class="cls-1" d="M80.66,41.4l19.63,2"/><path class="cls-1" d="M96.47,25.16l14.82,11.57h0"/><path class="cls-1" d="M118.18,11.79a31.45,31.45,0,0,0,6.88,16.51"/><path class="cls-1" d="M142.63,12.73V26.82"/><path class="cls-1" d="M157.61,13.66,153.8,31.5"/><path class="cls-1" d="M159.67,30.66A25,25,0,0,1,168.88,22"/><path class="cls-1" d="M45.59,143.11A343.38,343.38,0,0,0,72,209.71q49.1-20.85,99.9-37.35l-3.9-1.77"/><path class="cls-1" d="M50.25,140.68c36.9-14.21,77.21-16.13,116.72-17.89l-1.48,55.12-2.19-6.38"/><path class="cls-1" d="M64.58,183.74q0-14.47,1.1-28.91a130.55,130.55,0,0,0,7.07,27.59A29.22,29.22,0,0,0,75,170.09l3.44,5.4,8.45-23.23a107.24,107.24,0,0,0,8.39,39q.29-15.14.68-30.28c.15-5.76.41-11.88,3.63-16.66l7.49,31.41,3.61-16.05,2.24,3.09c-.54-1.55,1.62-2.73,3.23-2.46s3.16,1.24,4.77.95c.88-.16,1.65-.68,2.51-.91a4.07,4.07,0,0,1,4.88,3.64l8.92-21.53a262.61,262.61,0,0,0,7.12,31.61,65.14,65.14,0,0,1,3.09-23.72l3.33,7.87,5.47-9.74c-1,3.16,3,6.54,6,5"/><path class="cls-1" d="M211.33,215.77c-16.48,20.38-41,31.61-63.48,44-23.12,12.76-45.47,28-55.25,53.62C86.45,329.51,84.95,347,83,364l-6.74,57.45c-1.76,15-3.79,30.61-.22,45.5,3.82,16,14.74,25,28.39,33.17,12.38,7.36,27.49,17.28,26.34,33.72-.6,8.62-5,16.51-7.33,24.7A132.21,132.21,0,0,0,119,585.41c-.32,4.34-.51,8.69-.66,13"/><path class="cls-1" d="M212.63,220.47c-3.46,21.54,9.54,41.82,26,54.55,8.24,6.38,19,13.92,30.06,11.83,10.58-2,19.17-12,24.58-20.66,7.41-11.88,11.32-25.55,14.72-39,10.51,11,22.75,21.27,36.18,28.51,24.1,11.91,54.1,20.91,66.1,47.91,11,24,13,49,16,75,0,6,1,12,1,18,0,3,2,5,2,8a263.52,263.52,0,0,0,2,28c1,18,1,36-7,53-7,14-20,22-27,35-4,6-5,14-5,21,1,6,1,13,1,19-1,8-5,15-9,23-2,4-2,8-2.41,13.17"/><path class="cls-1" d="M255.78,294.21l-8.61-7.93c6,18.83,6.31,38.59,6.37,58.16.72,63.16-5.28,125.16-7.28,188.16,0,21,0,43-.28,64.15"/><path class="cls-1" d="M481.4,28.58c1.22,5.38-1.84,10.82-5.5,14.95s-8.13,7.68-10.69,12.57A19.93,19.93,0,0,0,464,71.48a19,19,0,0,0,15.79,12.77c7.58.67,15-3.88,19.09-10.3,3.81-6,4.9-14,1.42-20.23-1.35-2.41-3.3-4.41-5-6.6-5.17-6.76-7.71-15.11-10.14-23.27"/><path class="cls-1" d="M475,52.1a2.59,2.59,0,0,0,.82-3,18.7,18.7,0,0,0-11.19,6.51,88.86,88.86,0,0,0,13.49-4.35L469,57.5a17.79,17.79,0,0,0,6.76-3.36l-8,8.14,7.3-4.7a35.62,35.62,0,0,0-7,9.33L477.19,60a113.36,113.36,0,0,1-8.49,12.53l10.15-11L469.76,79.3a42.12,42.12,0,0,0,10.42-12.76,59.45,59.45,0,0,1-4,15.21l6.59-10.27L480,82.29l7.92-8.5a17.84,17.84,0,0,0-2.5,9.52A6.39,6.39,0,0,0,488,79.8l.16,2.44"/><path class="cls-1" d="M25.32,9l-2,44.48c-.22,5-.42,10.2,1.45,14.85s6.4,8.64,11.39,8.19a4,4,0,0,0,2.47-1,4.75,4.75,0,0,0,1.08-2.25c1.56-5.92,1.55-12.13,1.52-18.26L41,14c0-1.68-.11-3.58-1.36-4.7A6,6,0,0,0,36,8.2q-7.14-.37-14.29-.08A100.94,100.94,0,0,1,45,9.15"/><path class="cls-1" d="M26.12,24.93l5.43,1.16c.55.12.18,1.16.2.6"/><path class="cls-1" d="M25,38.85a3.72,3.72,0,0,1,4.73.31"/><path class="cls-1" d="M25.18,54.07H28"/><path class="cls-1" d="M238.14,24.07l-4,38.2a4.69,4.69,0,0,0,.52,3.41A4.57,4.57,0,0,0,237.55,67c10.07,1.94,20.39,2.24,30.57,3.48a165.12,165.12,0,0,1,63.65,21.6L350.1,49.76l-3.58-1.35"/><path class="cls-1" d="M459.06,538.58c-.32-6.56,2-13.44,6.92-17.72s12.81-5.37,18.25-1.7a16.27,16.27,0,0,1,6,8.34c4.15,12.21-4.65,26.29-16.83,30.52-7.4,2.57-16.51,1.8-21.87-3.91-7.37-7.84-4.67-20.64.12-30.27s11.41-19.3,10.54-30c-.66-8.12-5.56-15.19-10.36-21.77-1.11-1.52-3.08-3.2-4.59-2.08a3.38,3.38,0,0,0-1.06,2c-3.59,13.84,5,27.53,12.25,39.85a275.11,275.11,0,0,1,30.88,77.09,5.48,5.48,0,0,1,.13,2.92A4.5,4.5,0,0,1,487,594.2c-5,2.33-11.15.71-15.56-2.62S464,583.47,461,578.79"/><path class="cls-1" d="M27,379.18a7.12,7.12,0,0,0,6.78-3.09c-1.2-2.59-5.9-2-6.37.87s3.78,4.94,5.75,2.88a2.7,2.7,0,0,0,.19-3.63c-1-1-3-.46-3.11.87a3.83,3.83,0,0,0,5-1.81,8.22,8.22,0,0,0-8.08,1.06c2.27,2.86,7.66,2,8.86-1.49a10.33,10.33,0,0,0,.07-4.9l-5.62-38.42a17.32,17.32,0,0,0,13.58,11.7c2.93.46,6.24.25,8.49,2.19a5.44,5.44,0,0,1-6.15,8.89"/><path class="cls-1" d="M443.24,324.78a509,509,0,0,0,51.07-45,8.14,8.14,0,0,0,2.08-2.82c1-2.91-1.35-5.9-1.56-9-.33-4.71,5.83-8.41,9.83-5.91s3.39,9.66-1,11.43a16.22,16.22,0,0,0,14.34,3c.6,2.2-1.5,4.31-3.7,4.94s-4.56.34-6.79.79a18,18,0,0,0-9,5.44c-5.16,5.31-24,21.1-53.17,46.18,3.55,1.23,5.12,6.13,3.11,9.3a7.1,7.1,0,0,1-9.89,1.66,7.76,7.76,0,0,1-1.6-10.11c1-1.59,2.77-3.26,2.09-5-1-2.72-5.3-1-8-2.1a4.23,4.23,0,0,1-1.93-5.61,5.32,5.32,0,0,1,5.61-2.64c3.06.53,5.22,3.29,8.07,4.51s7.41-1,6.07-3.82"/><path class="cls-1" d="M30,242.47c-8.52,3.51-12,15-8,23.37s13.74,13,22.94,12.29a19.29,19.29,0,0,0,10.57-3.7c4.68-3.67,6.69-10,6.6-15.9-.08-4.85-1.48-9.83-4.72-13.45a19.45,19.45,0,0,0-8-5.16A25.56,25.56,0,0,0,28,242"/><path class="cls-1" d="M29,263.74a127.22,127.22,0,0,0,19.71-6.67"/><path class="cls-1" d="M53.23,571.52a5.74,5.74,0,0,0-.67,5.47A8.3,8.3,0,0,0,61,573.44a7.27,7.27,0,0,0-7.61.46c-1.2.87-2.15,2.49-1.44,3.79,1,1.91,4,.91,5.69-.41,2.29-1.76,4.47-5.35,2.21-7.16-1.75-1.4-4.29,0-6.06,1.37-2,1.54-4,4.59-2.07,6.15,1.31,1,3.23.21,4.67-.65,2.39-1.42,5.11-4.34,3.33-6.48a4,4,0,0,0-2.1-1.16c-2.92-.78-6.51,0-8,2.57s.54,6.8,3.53,6.36a5.17,5.17,0,0,0,2.66-1.45A11.2,11.2,0,0,0,59.25,570a14,14,0,0,0-8.77,4,2.6,2.6,0,0,0-.86,1.41,2.18,2.18,0,0,0,1.61,2.08c3.33,1.23,6.79-2.48,6.75-6s-2.31-6.64-4.47-9.45l-28-36.3c8.47.74,15.08,8.55,23.56,9.21,4.51.35,9.5-1.3,13.31,1.14a7.07,7.07,0,0,1-6.29,12.58"/><path class="cls-1" d="M449.16,271.23a1.36,1.36,0,0,0,1.16,2.09c1.75-1.09-.27-4.35-2.15-3.5s-1.4,4.15.58,4.75,4.12-1.29,4.17-3.36a10.75,10.75,0,0,0-9.22-1.3,5.47,5.47,0,0,0,5.55,2.31c-1.45-1.23-3.41-2.2-5.22-1.62s-2.74,3.37-1.16,4.45a3.65,3.65,0,0,0,2.57.34,6.74,6.74,0,0,0,4.35-2c1-1.25,1.13-3.4-.19-4.37s-3.3-.27-4.83.49a5.64,5.64,0,0,0-2.51,1.91,2,2,0,0,0,.61,2.75,2.62,2.62,0,0,0,1.65,0A18.12,18.12,0,0,0,450,271.7a4.58,4.58,0,0,0-6.47.38l0,0c2.15,3.45,8.12,1.23,9.3-2.66s-.65-8-2.23-11.71c-4.48-10.6-7.32-21.82-10.14-33-.76,5.82,5.62,9.94,11.29,11.41s12.29,2.31,15.61,7.15a5,5,0,0,1,1,3.15c-.18,2.29-2.8,3.77-5.07,3.47s-4.16-1.91-5.66-3.64"/><path class="cls-1" d="M38,466.44a4.55,4.55,0,0,0,2.68,1.12c1,0,2-1.09,1.52-2a2.13,2.13,0,0,0-1.88-.89,13.9,13.9,0,0,0-4.43.41,2.67,2.67,0,0,0,5.33-.07,5,5,0,0,0-6,1.44,3.75,3.75,0,0,0,5.88-.62,3.35,3.35,0,0,0-3.82-1.33c-.62,2.17,3.23,3.15,4.6,1.35s.81-4.34.2-6.51c-3.88-13.73-7.76-27.49-13-40.74,5,7,10.61,14.5,18.9,16.87,2.6.74,5.72,1.19,7,3.57,2,3.65-2.86,7.81-7,7.29"/><path class="cls-1" d="M239.82,22.49c-1-.78.66-2,1.89-2.16a192.09,192.09,0,0,1,61.73,3.4A75.26,75.26,0,0,1,321,29.44c10,5,17.87,13.38,25.49,21.58L344.15,47"/><path class="cls-1" d="M234.32,47.93c20.73-6.81,43.29-1.86,64.44,3.51,7.81,2,15.68,4,22.79,7.85S335,68.82,338,76.3a3.34,3.34,0,0,1-2.33-1.2"/><path class="cls-1" d="M238.71,33.26c8.18-1.19,16.51-.15,24.68,1.11a470.75,470.75,0,0,1,53.1,11.36,49.82,49.82,0,0,1,7.69,2.6c7,3.21,12.14,9.24,17.09,15.1.42.5.87,1.14.64,1.75s-1.47.39-1.21-.21"/><path class="cls-1" d="M245.27,33.42a54.86,54.86,0,0,0-10.87,7.71,25.93,25.93,0,0,1,9.17-3.92,7.49,7.49,0,0,1-2.57,4.1l7-3.47L244.74,42a44.8,44.8,0,0,1,9-5.86l-5.93,7.78L256.87,37a20.12,20.12,0,0,1-4.37,7l7.87-5.55a6.06,6.06,0,0,1-1.53,3.25l6.92-4-1.61,3.23,6.78-3.74-2.52,3.12A6.77,6.77,0,0,0,273.36,38a16.25,16.25,0,0,1-3,5,24.07,24.07,0,0,1,6.76-3.4l-2.28,2.64,6-1.71-3.72,4.1,4.78-2.78L279.68,45a14.67,14.67,0,0,0,6.84-1.9,5.16,5.16,0,0,0-3.38,3.85,16.27,16.27,0,0,0,7.12-2.31l-2.13,3.19,6.56-1.62c.65-.16,1.45-.29,1.91.2s-.29,1.54-.73,1l8.32-3.22A5.67,5.67,0,0,0,301.33,47l5.74-2.11-5.76,5.86,6.17-2.43-1.63,2.29,9-3.58-5.21,4.58a9.29,9.29,0,0,0,5.11-2.24,11.6,11.6,0,0,1-3.24,3.87l3.7-2L314,54l8.37-1.49-6.9,4.88A39.56,39.56,0,0,0,326,53.53l-2.9,2.72a12.38,12.38,0,0,0,6.16-1,1,1,0,1,0,.48,1.7l-3.27,4.23a3.45,3.45,0,0,0,3.66-.53,2.74,2.74,0,0,0,4.26,1.84l-2,3.36c2,.45,1.36,3.48.25,5.21l3.58.32a6,6,0,0,1-1.52,3.79"/><path class="cls-1" d="M384,85.16l-1.25-.9c-.52-.26-.76.89-.19,1s1-.71.69-1.22a1.76,1.76,0,0,0-1.48-.76c-2.89-.21-5.27,2.64-5.62,5.51s.75,5.71,1.84,8.4l6.13,15.16c1.72,4.25,3.48,8.57,6.37,12.13,5.3,6.51,13.87,9.66,22.24,10.17a7.9,7.9,0,0,0,4.42-.66,8.26,8.26,0,0,0,2.8-3.29c4.84-8.46,8.36-17.79,9.25-27.5s-1-19.81-6.18-28A11.36,11.36,0,0,0,419,71a4.83,4.83,0,0,0-5.51.46"/><path class="cls-1" d="M415.43,136.15c7.23,1.45,10.87,9.61,12.09,16.89s1.4,15.28,6.1,21c5.33,6.44,14.59,7.67,22.93,8.19,3.93.25,8,.43,11.72-.7,10.92-3.27,15.93-16.69,14.12-27.95-.79-4.9-2.54-9.89-1.37-14.72a12.68,12.68,0,0,1,5.45-7.61c.15,2.06,3.18,2.79,4.83,1.55s2.13-3.5,2.25-5.56a4.85,4.85,0,0,0-.3-2.41c-1.09-2.26-4.93-1.58-6,.7s-.08,5,1.38,7.05c1.52-1.6,3.11-3.44,3.13-5.65s-2.55-4.38-4.37-3.14a4.46,4.46,0,0,0-1.33,1.8c-.93,1.86-1.64,4.42-.07,5.78,1.74,1.5,4.66-.32,5-2.58s-.83-4.46-2-6.44c-2.13,2.16-.55,6.57,2.47,6.89a7.6,7.6,0,0,0-1.46-6.87,5.11,5.11,0,0,0-.2,8.1,7.32,7.32,0,0,0-.74-8.71c-2.41,2.34-.64,7.26,2.7,7.54,1.43-1.9,2.25-4.48,1.33-6.67s-4.07-3.36-5.83-1.76a5.92,5.92,0,0,0-1.47,3.62,7.44,7.44,0,0,0,.26,4.37,4.23,4.23,0,0,0,6.51,1,4.57,4.57,0,0,0-.45-6.45l-.32-.25a16.94,16.94,0,1,0,.23.17c-2.52-1.47-6.32.31-6.67,3.21s3.15,5.53,5.78,4.27l.46-2.07"/><path class="cls-1" d="M484.79,387.63a15.9,15.9,0,0,0-29.72,5.81,9.67,9.67,0,0,0,1.16,6.35,13.77,13.77,0,0,0,4.63,3.92l30,18.54a2.57,2.57,0,0,0,1.65.55,2.54,2.54,0,0,0,1.54-1.31c6.38-9.7,10.43-20.71,14.34-31.64,1.63-4.55,3.19-9.81.78-14-2.92-5.08-10.61-5.62-15.5-2.38s-7.43,9-8.94,14.68"/><path class="cls-1" d="M497.55,198.87q-4.65,10.88-8.54,22.05c-1.81,5.19-3.47,11-1.2,16a19,19,0,0,0,5.4,6.4c3.29,2.76,7.23,5.29,11.51,5,6.21-.43,10.6-6.92,10.93-13.14s-2.32-12.17-4.92-17.83L503,200.52c-.73-1.59-2.5-3.47-3.85-2.36"/><path class="cls-1" d="M499.56,223.72l3.65,15.78"/><path class="cls-1" d="M496.07,234.11,508.64,230c.52.54-.46,1.56-1,1.06"/><path class="cls-1" d="M497.74,480.54c-.91.57-.37,2.19.67,2.45,1.79.44,3-2.42,1.73-3.71s-3.77-.64-4.71,1a5.51,5.51,0,0,0,.24,5.29,7.35,7.35,0,0,0,2.93-4.41,4.89,4.89,0,0,0-4.41,6.52,3.86,3.86,0,0,0,4-4.47c-.56-2.28-3.87-3.34-5.56-1.71s-.57,5.11,1.77,5.32c2.78.25,4.31-3.09,5-5.79-2.16-2.51-7.21,0-6.48,3.27s6.39,3.34,7.25.15a2.08,2.08,0,0,0-.31-1.94,2.72,2.72,0,0,0-2-.63,5.84,5.84,0,0,0-3.91.92c-1.06.86-1.37,2.74-.26,3.54,1.56,1.13,3.49-.8,4.42-2.49,1.41-2.55,2.56-6.26.18-8a9.4,9.4,0,0,0-3-1c-2.87-.81-5.1-3-7.19-5.16L456.22,437.2c10.15,2,19.07,11.24,29.15,9,2.62-.6,5.21-2,7.85-1.49A5.69,5.69,0,0,1,492,455.91"/><rect class="cls-2" width="525" height="600"/></g></g></g></g></svg>