<svg xmlns="http://www.w3.org/2000/svg" viewBox="0 0 525 600">
  <title>
    lysy
  </title>
  <g id="Warstwa_2" data-name="Warstwa 2">
    <g id="Warstwa_1-2" data-name="Warstwa 1">
      <path fill="none" stroke="#FFFFFF" d="M126.7 5c-6.6 6.7-13.4 17-10.6 26.7 2.2 7.6 9 12.8 16.7 9.3l-2.3-3c-8.7 7.5-15.3 19-13 30.8 2.2 10.2 10.8 18.5 21.4 18.6l-1.4-3.2c-7.7 9.7-14.5 23.7-6.8 35.5 6 9.2 19.4 11.5 26.2 2 1.2-1.7-1.6-4-3-2.3-7 8-10 21.5-1.4 29.6 7 6.6 19.2 6.3 24.8-2l-3.5-1c0 7.7 5.8 14.8 13.7 14.8S201 153.5 201 146c0-2.4-3.8-2.4-3.8 0 .2 5.5-4 11-9.8 11s-10-5.4-10-11c0-2-2.4-2.4-3.4-1-4.4 6.7-14.7 6-19.7.4-6-6.7-3.2-17.3 2.2-23.4l-3-2.2c-6.5 9.2-19 2.5-21.7-6.4-3-9.5 2.5-19.3 8.3-26.6a2 2 0 0 0-1.2-3.2c-9.8 0-17.3-8.8-18-18.3-.6-9.7 5.3-18.5 12.4-24.7 1.7-1.4-.5-3.7-2.3-3-7.5 3.6-12.2-5.6-11.6-11.8.8-7 5-13 10-18a2 2 0 0 0-2.6-2.7zM272 135.8c2.3 7 10.7 11.5 17.7 7.7 6.7-3.6 8-13 3.7-18.7l-1.6 2.8c8.3.8 18.4-3.3 20.2-12.3 1.5-8-4.5-16.3-12.8-15.8l.5 3.7a29 29 0 0 0 19-29.7l-2.7 1.7c7.5 4.2 15-3 15.6-10.5 1-9.7-9-15.6-16.6-19l.4 3c11.6-10.3 2-29.3-13-27l2.3 2.4c1-7 2-14-.7-20.7-.8-2.3-4.4-1.3-3.6 1 2.3 6.2 1.6 12.4.7 18.8a2 2 0 0 0 2.4 2.4c11.5-1.8 17.8 13 9.3 20.6a2 2 0 0 0 .4 3c5 2.2 10.8 5 13.6 10 3 5.2-1.2 17.3-8.7 13a2 2 0 0 0-3 1.5 25.3 25.3 0 0 1-16.3 26c-2 .7-1.8 4 .5 3.7 7-.4 11.3 8 8 14-3 5.5-9.8 7.2-15.5 6.6a2 2 0 0 0-1.6 2.8c3 3.7 3 9.4-.7 12.6-4.7 4-12 1-14-4.5-.6-2.2-4.3-1.2-3.5 1zM197.3 205.3a10.7 10.7 0 0 0-5.2-11.3c-3.5-2-10.3-4-14.2-1.4-3.3 2.2-4 7-2.5 10.3 2.2 4.8 7.8 6.2 12.6 6.3l-.6-3.7c-7.2 3-17.4 9.5-12.4 19 4.6 8.6 15 2 16.2-5.5h-3.6c1.7 6.3 7 16 15 11.2 7.6-4.7 3.3-14.3-2-18.8l-1.7 3A8.7 8.7 0 0 0 210 205c-1.2-7.6-9-10.2-15.7-8.3-2.3.7-1.3 4.3 1 3.6 3.6-1 7.8-.8 10 2.8 2.3 4-.6 9.5-5.6 8-2-.7-3.4 1.8-2 3 2.7 2.3 8.3 9.5 3.3 12.5-3.2 2-6.5 0-8-2.8a25.5 25.5 0 0 1-2-5.5c-.6-1.7-3.4-2-3.7 0-.5 2.5-2 5.8-4.8 6.5-3.8 1-5.4-2.6-5.2-5.5.4-5.5 6.4-8 10.8-10 2-.7 1.8-3.5-.5-3.6-3 0-6-.5-8-2.6-2.6-2.6-2-6 1-7.4 5-2.2 13.8 2.8 12.7 8.7-.4 2.4 3.2 3.4 3.7 1z"/>
      <path fill="none" stroke="#FFFFFF" d="M219.2 239c2.5-5.2 2.7-11-.4-16-2.4-3.8-6.5-6.2-10.8-4-8.5 4.4-6.8 17.3.5 21.7l1-3.5c-5.4-.3-11.6-.4-16 3.4a11 11 0 0 0-2.3 13c4.4 9.3 17.7 6.7 20.2-2.6h-3.6c.8 5-2.2 10.7 1.4 15 2.3 3 6 3 8.7 1 5.6-3.8 11.5-18.7 1.3-20.6-1.4-.3-3 1.3-2 2.7 5.2 7.4 17.2 5 17.5-4.7.4-10.5-12.5-13.8-19-6.4-1.4 1.8 1.2 4.4 2.8 2.6 3.6-4.2 11-4.4 12.3 2a5.8 5.8 0 0 1-10.5 4.6l-2.2 2.8c5.3 1 1.6 8.6.3 10.6-1.6 2.6-6 5.6-7.4.6-1-3.5.8-7.5.2-11.2-.3-2-3-1.7-3.6 0-2 7.6-13.3 7.6-14-.8s9.8-8.5 15.7-8.2c2 0 2.4-2.6 1-3.5-4.4-2.6-6-9.2-2.8-13.3 3.3-4 7.5-1.3 9 3a12.6 12.6 0 0 1-.7 9.8c-1 2.2 2 4 3.2 2z"/>
      <path fill="none" stroke="#FFFFFF" d="M242.3 266.2c-1.5-4.3-3.3-9.4-8-11-3.8-1.4-8-.2-9.6 3.5-1.8 4.3-2 11.4 1 15a7.7 7.7 0 0 0 10 2.3l-2.5-2.5c-3 4.7-6 10.6-3.7 16.3 1.6 4 6 7.2 10.4 5.8 6.8-2.2 11.8-17 3.6-20.5-1.8-.7-3 2-1.8 3.3 5.5 6 18.6 9.5 22.3-.6 1.3-3.5.6-8-2.5-10.2-4.5-3.5-10.3-.5-14.4 2.2l3 1.6c0-2.7 2.7-4.3 3.5-6.6a7.6 7.6 0 0 0 .2-5.2 9.3 9.3 0 0 0-7.4-6.2c-7.2-1-11.3 7-9.7 13.2.7 2.3 4.3 1.3 3.7-1a7 7 0 0 1 1.5-7c2.8-2.5 7.7-1.5 8.4 2.6.7 3.6-3.8 6.6-4 10.3a2 2 0 0 0 2.8 1.6c2-1.3 5.3-4 7.7-3.3 4.8 1 5.5 6.6 1.8 9.3-4.8 3.4-10.7.4-14-3.4l-1.8 3c4.6 2-1.2 13.6-5 13.6-4.3 0-5.6-5.5-5-8.6s2.2-5.7 3.7-8.3a2 2 0 0 0-2.5-2.5c-7 4-8.8-11.5-4.7-14 5-3.2 8.3 5.2 9.4 8.4.8 2.3 4.4 1.3 3.6-1z"/>
      <path fill="none" stroke="#FFFFFF" d="M271.4 260a7 7 0 0 1 1-13.8c8.5-.7 10.6 9.7 5.6 15l2.6 2.7c6.2-7 13 2.6 13.6 8.5a11.5 11.5 0 0 1 0 4.2c-.8 2.8-1.4 3.4-4.3 3.3-4.5 0-7-3.2-9-7-1.2-1.8-4-.5-3.5 1.5 1.2 5.5.6 14.8-7 14.6-4.3 0-6-3.6-5-7.4.8-3 3-5 5.2-7 1.2-1 .3-3.3-1.3-3a9 9 0 0 1-5.5-.8l-2.3-2q-2.7-6.3 5.2-4.4c1 2 4.4.2 3-1.8a7 7 0 0 0-12.4 1.5c-2.2 7.5 5.5 12 11.8 11.3L268 272c-3.8 3-7 7.3-6.7 12.4a8.8 8.8 0 0 0 7.3 8.3c11.2 2 14.4-10.8 12.4-19.2l-3.4 1.5c2.6 4.5 8 10.4 13.7 9.6 5-.7 6.8-6.2 6.8-10.5 0-5-2-11-6.6-14A10.3 10.3 0 0 0 278 261c-1.6 1.8 1 4.4 2.6 2.7 8-8.5 2.6-23.7-10-21.4-11.5 2-11.7 19-.2 21 2.4.6 3.4-3 1-3.5z"/>
      <path fill="none" stroke="#FFFFFF" d="M298 259.3a10.5 10.5 0 0 1-3-9.8l.7-2 5.6-.5c1.4 1 .3 6 0 7.4-.4 2 2.3 3.4 3.4 1.5 2.2-4 8.5-6 12-2.2 3.2 3.5 0 15.3-5.7 11.2l-2 3.2c4.7 2.2 6.5 8.3 2 11.7-5.2 3.6-11.5-.8-10.7-6.8.4-2.4-3.3-3.4-3.6-1-1.2 8.2 6.4 15.7 14.6 11.8s7.6-15.2-.3-19a2 2 0 0 0-2 3.2c8.3 6 15.2-7.6 12-14.3-3.6-8.4-15.5-7.4-19.5 0l3.4 1.4c.7-4 1.4-8.2-1.4-11.5a6.4 6.4 0 0 0-8-2c-7.2 4-5 15-.3 20 1.7 1.6 4.3-1 2.6-2.8z"/>
      <path fill="none" stroke="#FFFFFF" d="M310.8 228.4a12 12 0 0 1-1.8-6c0-1.7 1-9.6 5.8-5.4 2.8 2.5 1 9.8 0 12.5a2 2 0 0 0 2.8 2.3 9.2 9.2 0 0 1 7.7-2 9 9 0 0 1 3 1.2q3.6 1.6 1.8 5 .7 3.2-2.4 3.3a19.8 19.8 0 0 1-3.3.5l-7.2.4a2 2 0 0 0-1.8 1.8 16 16 0 0 0 1.2 6c-1-2.3-4.3-.4-3.2 1.8s3.3 2.2 5 .8c3.2-2.3 1-5.5.8-8.6l-2 2c6.3-.4 22-.3 17.6-11.2-3-8-13.7-8.6-19.6-3.7l3 2.4c2.3-5 3.8-19.3-4.8-20-9.3-.7-8.5 13.7-5.6 19 1 2 4.4 0 3.2-2z"/>
      <path fill="none" stroke="#FFFFFF" d="M308.8 227.8a17.6 17.6 0 0 0-7-1 2 2 0 0 0-2 1.4c-1.8 6.2 4.8 8.4 9.7 8.7l-.5-3.8c-5 2-11 9-5 14 4.3 3.7 10.8-1.4 8-6.4-1-2.2-4.3-.3-3 2q-.5 3.4-3.2.7a3.6 3.6 0 0 1 0-3.3c.8-1.7 2.6-2.7 4.2-3.4a2 2 0 0 0-.5-3.7c-2 0-7 0-6-3.8l-1.8 1.4a15 15 0 0 1 6 1c2.4.7 3.3-3 1-3.7zM318.4 210c-4.4-4.4-3.3-13 4-13.2 7-.2 9 9.6 2.2 12l1.5 3.4a18.2 18.2 0 0 1 8.3-2c4.4.3 9 4 7 8.6-2.7 7.4-12.4 4-17.6 1.6-2.2-1-4 2.3-2 3.3 5 2 10.7 4.4 16 2.8 4-1.2 7.8-4.4 8-8.8s-2.6-8.2-6.4-10c-5-2.3-10.4-.8-15 1.3-2 .8-.7 4 1.3 3.4 9.6-3.5 9-18-1.6-19.3-11.3-1.4-15.7 12.3-8.2 19.5 1.7 1.7 4.4-1 2.6-2.6z"/>
      <path fill="none" stroke="#FFFFFF" d="M319.5 193.4c-2-2.8-5.3-7.4-2.8-10.8 2.2-3 5-1.2 6 1.5.8 2.2.4 4.8 0 7s3.2 2.4 3.8.4c.8-2.4 4.2-4 6.5-2.4 3.2 2.2.6 7-2.6 7.4-2.4.2-2.4 4 0 3.7 6-.3 10.3-7.7 6-12.7-4-5-11.8-2.3-13.5 3l3.5.6c.5-4 .7-8-2-11a6.7 6.7 0 0 0-7.7-2.2c-7.7 3.3-4 12.6-.5 17.5 1.3 2 4.6 0 3.2-2zM402.2 215.2c5.2-.6 10.5-1 15.6-2 2.8-.4 4.4-1.5 5-4.4 1-4.7 0-10.2-.5-15l-2-16.6c-1-8.7-1.4-18-5.5-26a52 52 0 0 0-8.3-11c-2-2-3.5-3.6-6.2-2.4-2.3 1-.3 4.2 1.8 3.3 1-.2 6.3 7 7 8a31.2 31.2 0 0 1 4.6 9c2 6.8 2.4 14 3.2 21s1.8 13.8 2.2 20.7a30.4 30.4 0 0 1 .2 5.7q.8 2.4-1.8 3.2a4 4 0 0 1-3.7 1.5c-3.6 1-7.7 1-11.5 1.5-2.3.3-2.3 4 0 3.8z"/>
      <path fill="none" stroke="#FFFFFF" d="M398 141.2a37 37 0 0 0-4 21l3.5-1a29.8 29.8 0 0 1 0-29c.7-1.2-.5-3.2-2-2.6A42 42 0 0 0 369 160h3.6c-5.3-14.8 5.2-32 21-34.2 1.3-.2 1.7-2.2.7-3A22.5 22.5 0 0 0 366 121l2.2 3c7.2-7.2 19.6-16.3 29.2-7.3a2 2 0 0 0 3.2-1.3c.4-4.2.8-8.7 3-12.4 2.4-4 7.5-6.4 11.6-3.5v-3.2a21 21 0 0 0-12.4 17.5c-.2 2 2.6 2.4 3.5 1 3.2-5.4 10.3-5.8 15.4-3.2s8.7 7 12.2 11.4l2-3a28 28 0 0 0-24-1.3 2 2 0 0 0 0 3.6 31.4 31.4 0 0 1 21.7 24l3-1.7a42 42 0 0 0-22-12.6 2 2 0 0 0-2 2.7 138.8 138.8 0 0 1 13.5 63.3 2 2 0 0 0 3.7.5q9.8-37.4 22-74a2 2 0 0 0-2-2.4 28.6 28.6 0 0 0-20.3 10l3.2 1.2c-.3-13.3 10.2-25.3 23.5-26.6a2 2 0 0 0 1-3.5c-9.6-7.2-24-11.4-32.5 0l3.4 1.4a18 18 0 0 1 31.2-4.3c1 1.5 3.5 1.2 3.5-.8a17 17 0 0 0-18-17l.5 3.8c10-2.4 20 6 19.7 16.4h3.8c.2-7 9.5-8.8 14.6-6 6.4 3.4 9.2 11.4 11.4 18l3.5-1.5a16.4 16.4 0 0 0-19.3-7.7c-1.6.5-2 3.3 0 3.6 19.3 3 22 25 20.7 41l3.6-.5c-3.3-15-17.8-22.7-30.6-28.5-2-1-4 2-2 3.2 12.4 6.5 3.7 21.6-1.7 29.6l3.2 1.8a26 26 0 0 0-10-32.6 2 2 0 0 0-2.4.7C446 151 444.7 182 444 212a2 2 0 0 0 1.3 2 74.8 74.8 0 0 0 25 1.7l-.4-3.7-4.5 1c-2.4.4-1.4 4 1 3.6l4.4-1c2-.4 1.5-4-.6-3.7a71.8 71.8 0 0 1-24-1.8l1.3 2c.7-29.5 1.6-60 15.6-86.6l-2.6.7a22 22 0 0 1 8.5 27.5 2 2 0 0 0 3.3 1.8c6.7-9.7 15-27 .5-34.6l-2 3.2c12 5.5 26 12.3 29 26.2.5 2.2 3.5 1.5 3.7-.5 1.3-17.6-2.5-41.3-23.4-44.8v3.6a12.6 12.6 0 0 1 15 6c1 1.8 4 .6 3.4-1.5-3-8.6-7.5-20-17.8-21.8-7.3-1-15.5 3-15.7 11 0 2.3 3.6 2.3 3.7 0 .5-13-12-23-24.5-20-2 .4-1.6 3.8.5 3.6a13 13 0 0 1 14.3 13.2l3.5-1a21.8 21.8 0 0 0-38 5.2c-.8 2 2.3 3 3.5 1.4 7-9.5 19.7-4.2 27.3 1.6l1-3.5A30.6 30.6 0 0 0 429 133c0 1.6 2.2 2.6 3.3 1.4a24.8 24.8 0 0 1 17.7-8.8l-1.8-2.4q-12 36.8-22 74l3.7.6a143 143 0 0 0-14-65l-2 2.6a38.4 38.4 0 0 1 20.2 11.7c1.4 1.4 3.5 0 3-1.8a35 35 0 0 0-24.3-26.8v3.7a24.3 24.3 0 0 1 21 1 2 2 0 0 0 2.4-3c-4.8-6-10.5-12.6-18.5-14-6-.8-12 1.2-15 6.4l3.4 1A17.4 17.4 0 0 1 417 99.5c1.4-.6 1-2.5 0-3.2-4.3-3-10-2-13.8 1.3-5 4.4-5.8 11.6-6.4 17.8l3.2-1.4c-11.3-10.5-25.7-1.5-34.6 7.4-1.4 1.4.5 4.2 2.3 3a18.8 18.8 0 0 1 24 1l1-3.2c-17.7 2.5-29.5 22.2-23.6 39 .7 1.5 3.3 2 3.7 0a38 38 0 0 1 23.6-28l-2-2.7a33.7 33.7 0 0 0 0 32.6c.7 1.6 3.5 1 3.4-1a33.6 33.6 0 0 1 3.5-19c1-2-2.2-4-3.3-1.8zM448 15.3a2 2 0 0 0 0-3.8 2 2 0 0 0 0 3.8z"/>
      <path fill="none" stroke="#FFFFFF" d="M447.5 11.8c-4.6 1-9.2 2.3-12 6.6a15.8 15.8 0 0 0-1.2 12.8c2.5 8 10.5 14 19 12 8.2-2 15-10.4 12.8-19A16.2 16.2 0 0 0 447 12.7c-2.4.6-1.4 4.2 1 3.6a12.4 12.4 0 0 1 14.7 9c1.7 6.7-4.2 13.2-10.7 14.3s-12-3.5-13.8-9.4a12.3 12.3 0 0 1 .5-9.2c2-4 6.2-4.8 10-5.6 2.4-.5 1.4-4-1-3.6zM434.8 45L427 56c-1.2 1.7 1.7 4 3 2.3l1.3-1.5c1.5-2-1-4.5-2.6-2.7l-1.3 1.6 3 2.3L438 47c1.5-2-1.8-3.8-3.2-2zM448.6 49.4V60a2 2 0 0 0 3.7 0V49.5a2 2 0 0 0-3.7 0zM464.7 45a42 42 0 0 1 7.8 11c1 2.3 4.3.4 3.3-1.8a45 45 0 0 0-8.4-12c-1.7-1.6-4.4 1-2.7 2.8zM472.5 31.3l10 5.5c2 1.2 4-2 1.8-3.2l-10-5.6c-2-1.2-4 2-1.8 3.2zM473.5 15.8a26.4 26.4 0 0 1 10.5-2.2c2.4 0 2.4-3.7 0-3.7a31 31 0 0 0-12.4 2.6c-2.2 1-.3 4.2 2 3.2zM404.7 597c-.7-6.5-1-13-2.2-19.6-.7-4-2-7.5-5.8-9.4-2.2-1-4 2-2 3.2 4 2 4.2 7.3 4.7 11.3L401 597c.3 2.5 4 2.5 3.7 0zM178.5 512c63 15 132 30.7 193.8 3q6.2-3 12-6.3c2.5-1.4 6.6-3 7.8-5.6 2-3.5-2.2-6.2-5-3.5a2 2 0 0 0-.3 1.8v.5a2 2 0 0 0 3.7-1c.2.7-12 7-13 7.5q-6 3-12 5.5a163.8 163.8 0 0 1-22.8 7.2 208 208 0 0 1-51.5 5.5c-37.7-.5-75-9.4-111.5-18.2-2.3-.6-3.3 3-1 3.6zM171 585.5a2 2 0 0 0 0-3.7 2 2 0 0 0 0 3.7z"/>
      <path fill="none" stroke="#FFFFFF" d="M168.8 582l-1.8 15.2c-.3 2.4 3.5 2.3 3.8 0l1.8-15.2c.3-2.3-3.5-2.3-3.8 0zM280.3 549a9 9 0 0 0-5.5 10.8c1.3 5 6.5 6.7 11 4.8s7-7 4-11.4c-2.5-4-8.3-5.6-12.2-3-2 1.5 0 4.8 2 3.4a5.2 5.2 0 0 1 7 1.5c1.6 2.4 0 5-2.3 6.2-6 2.7-8.4-6.7-3-8.5 2.2-.8 1.3-4.4-1-3.6zM253.7 598c1.4-3.6-1-7.4-4.5-8.6-4.2-1.5-8.2 1-11 4-1.7 1.7 1 4.4 2.6 2.6 1.5-1.6 3.5-3.3 5.8-3.3s4.4 2 3.4 4.3 2.8 3.3 3.7 1z"/>
      <path fill="none" stroke="#FFFFFF" d="M239 593.8a12.7 12.7 0 0 0 2.4 5 2 2 0 0 0 2.7 0 2 2 0 0 0 0-2.6 8.5 8.5 0 0 1-1.4-3.3c-.5-2.5-4-1.5-3.6 1zM225.8 531.2c-2.3 4-2.2 9.2 2.3 11.7a6.7 6.7 0 0 0 10-3.6c1.2-3.5-.4-7.8-4.4-8.6a6.6 6.6 0 0 0-7.8 6c0 2.3 3.6 2.3 3.8 0 0-1.6 2-2.5 3.2-2.3 2 .3 2.2 2.4 1.5 4a3 3 0 0 1-4.5 1c-2.4-1.5-2-4.2-.8-6.4s-2-4-3.2-1.8zM346 533.5c-2 3.7-1.4 8.8 2.3 11 3.4 2 8.4 1 10.2-2.7 1.5-3.4-.2-8-4-9-4.2-1.3-8 2.7-7.5 7 .4 2.3 4 1.3 3.7-1-.3-2 2.4-3.2 3.7-2a3 3 0 0 1 .2 4.2 3.7 3.7 0 0 1-4.7 0c-1.7-1.3-1.8-3.8-.8-5.6 1.2-2-2-4-3.2-2zM371.5 571c-7.3 5 .5 16.8 8 11.4a8.2 8.2 0 0 0 2.3-11 9.8 9.8 0 0 0-11.4-3.6c-2.2 1-1.3 4.5 1 3.7 4.3-1.6 10.7 2.4 6.8 7-3.6 4.4-8.3-2-5-4.3 2-1.4.2-4.6-1.8-3.2zM376.3 78.6a14.6 14.6 0 0 1 2-4c.8-1 6-5 6 0 0 2 2.5 2.3 3.4 1a22.6 22.6 0 0 1 2.3-3q3-4 5.7.5c-.2 2.5 3.6 2.5 3.8 0 .2-3-2.2-5.6-5.3-6-4.5-.6-7.5 3.3-9.7 6.6l3.5 1c0-3.8-3.2-6.3-6.8-6-4.8.3-7 5.2-8.6 9-.8 2.3 2.8 3.3 3.7 1zM427.2 78.2c-1.7-4.5 4.4-8 6.5-3a2 2 0 0 0 3.4.5 3.4 3.4 0 0 1 6 .2c1 2 4.3 0 3.2-2a7.2 7.2 0 0 0-12.3-.2l3.3.4c-3.8-9-17.3-4.3-13.7 5 1 2.3 4.5 1.3 3.7-1zM135.2 538a38.5 38.5 0 0 0 28.7-22.2c1-2.2-2.3-4-3.3-2a35 35 0 0 1-26.5 20.6c-2.3.4-1.3 4 1 3.6zM142.3 547a2 2 0 0 0 0-3.6 2 2 0 0 0 0 3.8zM144.3 542.4v1a2 2 0 0 0 3.8 0v-1a2 2 0 0 0-3.7 0zM150 542.4a2 2 0 0 0 0-3.8 2 2 0 0 0 0 3.8zM154.8 540.4a2 2 0 0 0 0-3.7 2 2 0 0 0 0 3.7zM160.5 534.7v-1a2 2 0 0 0-3.7 0v1a2 2 0 0 0 3.7 0zM163 527.6l-1 1a2 2 0 0 0 2.7 2.7l1-1a2 2 0 1 0-2.6-2.7z"/>
      <path fill="none" stroke="#FFFFFF" d="M165.4 526v1a2 2 0 0 0 3.8 0v-1a2 2 0 0 0-3.8 0zM169.8 522l-1 1a2 2 0 0 0 2.6 2.5l1-1a2 2 0 0 0-2.6-2.6zM19.8 202.4c1-2.7.5-5.4 1-8.2 2.4-10 9.5 0 11 3.8 1 2.2 4.5 1.4 3.8-1-3-9.4 9-16.4 15.2-8.2a2 2 0 0 0 3.2-2l-1-2.3c-1-2.2-4.3-.3-3.3 2l1 2.3 3.3-2c-8.7-11.2-26.4-2.7-22 11.2l3.5-1c-2-5.2-5.8-12-12.6-10.6-7.4 1.5-5 10-6.8 15-.8 2.3 2.8 3.3 3.6 1zM56.7 50.6c1.3-4.2 2.6-9.4 5.5-12.8a6.5 6.5 0 0 1 11.4 3c.4 1.8 3.2 2 3.6 0 1.7-9.4 13.5-11.5 18.2-3a2 2 0 0 0 2 1c2.3-1 3.2-3.4 1.2-5s-4.4 1-2.6 2.6l.5-1.3 2 1a13.3 13.3 0 0 0-25 3.8h3.7a10.6 10.6 0 0 0-12.4-8C57.5 33.6 55 43.6 53 49.7c-.7 2.3 3 3.3 3.7 1zM144 6.2c-1.7 14 19 18.7 23 5 .7-2.3-3-3.3-3.6-1-3 10-16.8 5.8-15.6-4 .4-2.4-3.4-2.3-3.7 0z"/>
      <path fill="none" stroke="#FFFFFF" d="M154.7 13.7c-2.6-4.2-7.5-5.6-12.2-4-5.4 1.6-8.5 7.2-10 12.4-2 8.6.5 20.6 11.8 18.2 10.4-2 14.6-15.7 7.3-23.3-3.3-3.6-9.4-6-13.3-2-3 3.4-.3 7.3 3 9 11.4 6 19-9.5 17-18.8-.6-2.3-4.2-1.3-3.7 1 1.4 5.8-2.2 17.4-10.3 15a5 5 0 0 1-2.4-1.2q-3-1.8 3.2-3c2.6.2 5.2 4 6 6a10.7 10.7 0 0 1-2.5 10.6c-2.5 2.7-7.7 4.7-11 2-2-2-2.2-5.7-2-8.3a20.5 20.5 0 0 1 3-9.8c2.6-4.3 9.5-7.4 12.8-2 1.3 2.2 4.5.3 3.3-1.8z"/>
      <path fill="none" stroke="#FFFFFF" d="M137.4 5c-4.3 5-8.4 15.3-2 20.4 7 5.8 23 3 27.7-5 1.4-2.5 2-6.6-1.3-7.8-3-1-6.7 1.5-8.5 3.7-6.5 8-4.7 21.4 5.6 25.4 8.4 3.2 18-4 16.4-13-2-11.4-16-10.6-23.2-5.2-8.6 6.6-17 20.8-12.2 31.7 3.7 8.6 15.7 12 21.2 3 5-8.2-2-18.2-11.2-17.5-10.3.8-17.7 13-14.5 22.5 3 9 14.5 14 22.3 7.6 6.3-5 7-14.7.6-20-9.7-8-34.8-3.3-29.4 13 2.7 8.2 14 11.5 19.7 4.4 4-5 5-15-2.6-17.4-4.6-1.3-9.2 1.3-11 5.4-2.3 4.4-.6 9.3 2.4 12.8 7.4 8.5 18.5 7.3 25-1.4 1.7-2.3 4.6-6.3 2.4-9.2-2.8-3.4-8.3-.8-10.8 1.5-6.7 5.7-11 20-5 27.5a9 9 0 0 0 11.3 2.7c2-1 .2-4.3-2-3.2-9.2 4.7-8.3-11.4-7-15.8a19.6 19.6 0 0 1 4.8-8.2l2-1.6 3.3 1c0 .7-1.7 2.8-2.2 3.3-4.4 6-11.5 7.6-17.3 2.3-3-2.5-5.4-6.8-3.3-10.5 2.7-5 9-4 9.4 1.5.2 4.6-3 9.7-8 9.5-5.7-.3-9.6-6.8-7-12 3-6.2 13-7 19-5 3 1.2 6 3.3 7 6.7 1.8 7-5.4 13.4-12.2 11.4-18.3-5.4-1.7-33.7 9.8-23 5.4 5 1 14.8-6.5 13.2-9.5-2-8.4-14-5.5-20.3C147 34 151 28 156.5 25c6-3.2 17.8-1.4 14.7 8-2.8 8-13 6.7-16.8 0a13 13 0 0 1 1-13.2c.2-.6 1.6-2.6 2.6-3a5.5 5.5 0 0 1 1.5-.6 2.6 2.6 0 0 1-1 3.7c-2.4 2.8-6.7 4-10.4 4.3-3 .2-9 .3-11.2-2.7-2.8-4 .5-10.8 3.2-14 1.6-1.7-1-4.4-2.6-2.6z"/>
      <path fill="none" stroke="#FFFFFF" d="M193.7 2c-6 4.5-15.4 14.2-15 22.3a6.7 6.7 0 0 0 7.6 6.2c5.7-.7 7.6-7.3 5.6-12-2.7-6-9.3-9.4-15.5-9.7-7.4-.4-14.3 3.4-19.6 8.4-3.2 2.8-8.7 9.2-4.7 13.5 3.4 3.5 9-1 10.8-3.8 3.2-4.6 1.8-11.3-2.2-14.7-5.4-4.6-13.3-3-19 0-4.8 3-8.8 7.7-9.8 13.3-.8 4.4 1.8 9.5 7 8.7 4.8-.6 6.7-6.7 5.7-11-1.2-5.2-6.5-9-11.6-9.6-5.2-.7-10.4 2-12 7.2-1.6 4.8.4 10.7 5.4 12.7 13.7 5.2 17-18.5 3.3-18.5-6.5 0-11.4 7.4-9 13.3 3.4 8 14.3 7.8 21 5.8l-2.3-1.8c0 5-3 10-2.2 15 .6 4 4 8 8.4 7.5 7.7-1 5-10.3-1.4-11.2-12.7-1.8-17.6 27.5-4.7 27.3 7.5 0 7.8-11.7 2.6-15-7-4.7-16 3.5-17.3 10.4-1.3 7.5 7.3 16.4 14.2 10 5.7-5.4-2.3-14.6-8.5-9.7s-4.4 18 3 20.8 17.3-6 12-13.2a2 2 0 0 0-3-.4c-5 4.4-11.2 16-1.8 20 6.2 2.6 13.8-4.7 8.4-10a2 2 0 0 0-2.6 0c-3 3.4-7.6 9-4.8 13.8 1.7 3 6.7 5.5 9.8 3.7a3.8 3.8 0 0 0-.8-7c-5.2-1.2-10 4.4-12.5 8-3 4.8-4 12 1 15.7 3.5 2.6 9 1 10.3-3.3 1.3-5-4-8.4-8.2-7.6a9.2 9.2 0 0 0-7 11 10.4 10.4 0 0 0 13.5 7c5.7-2 9.3-8 9.7-14 0-2-2.6-2.4-3.5-1-3.4 5.4-1.8 13.2 4.2 16 6 2.7 13-1.7 14.6-8a2 2 0 0 0-2.3-2.2c-12.2 2-11 19.6.8 21 1.5.3 2.4-1.6 1.7-2.7-5.4-8.7-17.8-.5-15 8.3a10.4 10.4 0 0 0 12 6.7c5.8-1.2 10.4-6 12-11.6a2 2 0 0 0-2.2-2.4c-5 1-14 6.3-9.7 12.3 6 8.2 14.5-1.8 20.4-4.2l-1.4-3.4c-5.4 3.2-3 10 2.3 12 7.4 2.7 12.3-5.6 14.8-11 1-2.2-2.2-4-3.2-2a26 26 0 0 1-4 7c-1.3 1.5-3 2.8-5 2.7-1.7 0-6.5-3.2-3-5.4 2-1 .7-4.2-1.3-3.4-3.8 1.5-6.6 4.5-10.2 6.2-3 1.4-8.6 0-5-4 1.6-1.7 4.4-2.7 6.5-3.2l-2.3-2.3c-1.8 5.6-10.2 13-15.6 6.6-4.3-5 3.3-13 7-7.2l1.5-3c-8-1-7.3-12.4.3-13.6l-2.3-2.3c-1 4.3-5.7 7.3-10 5-3.7-2-4.3-6.7-2-10.2l-3.6-1c-.3 4.6-3.6 10-8.4 11-3.3.4-7.7-2.4-7.5-6.2l1.7-3.5 4.4-1.4-2.8 3.7a4.7 4.7 0 0 1-1.3-4.4c0-3.4 1.8-6 4-8.4a14.5 14.5 0 0 1 3.2-3 19 19 0 0 1 2.7-1c-.2 1-4.2-1.6-4.5-2-1.7-3.2 2.3-7.5 4-9.5h-2.5c2.4 2.5-1.7 4.4-3.3 4.2-3.5-.2-3.8-4.3-3.2-6.7.7-3 3-5.6 5.3-7.6l-3-.4c3.8 5.3-4.7 10.4-9 6.8-2.7-2.3-5-14 1-14 3.3 0 2.3 4.3.6 5.5-2 1.5-5-1.4-6-2.8-1.6-3-.5-6.5 1.5-9 1.5-1.8 4.2-4 6.7-4a4.6 4.6 0 0 1 4.4 6.6c-2.7 6.2-5.8-2.4-5.7-5a18 18 0 0 1 3-9.8c.8-1.2 2-2.6 3.6-3 .4 0 1.6 0 2 .3q-.5 5.5-2.4 1.7a3.7 3.7 0 0 1-1.3-3.6c0-4.5 2.2-8.6 2.2-13a2 2 0 0 0-2.4-2c-4 1.2-8.7 1.7-12.6 0-2.2-1-4.2-2.8-4.3-5.5a6 6 0 0 1 7-6c3 .8 5 4.7 4 7.7-1.6 4.5-8 4.7-10 .7a7 7 0 0 1 3.2-9.6c3-1.3 6.6-.4 9.2 1.4 2.5 1.7 4.8 5 3.6 8-1 2.7-5 4.3-5.4.2a10 10 0 0 1 1.2-4.5c2.8-6 9.8-10.5 16.5-10a8.2 8.2 0 0 1 7.7 8.7c0 2.3-6 9-6 4 0-2.5 4-5.8 6-7.3a25.4 25.4 0 0 1 10.3-5.5 16.5 16.5 0 0 1 12.3 1.6c3 1.8 8.7 8.7 3.5 11.6-4.4 2.4-5-2.4-4-5a26 26 0 0 1 3.6-6.4 44.4 44.4 0 0 1 9-9.6c2-1.5 0-4.7-2-3.3zM245.8 2.2a27.7 27.7 0 0 0-12 17.5 2 2 0 0 0 2 2.4c4.6.4 6.8-3.7 6.4-8-.6-5.4-5-9.2-9.5-12-2-1.4-4 2-2 3.2 2.7 1.6 5.4 3.6 6.8 6.3 1.2 2 2 7-1.8 6.8l2 2.4a24 24 0 0 1 10-15.3c2-1.3 0-4.6-2-3.2zM276 3.3c-1 3.6 0 8 3.6 9.6 1.5.5 3.7-1 2.5-2.7A27.3 27.3 0 0 0 274 2c-2-1.2-4 2-2 3.3a23 23 0 0 1 7 7l2.7-2.7c-2.2-1-2.5-3.2-2-5.3.5-2.3-3-3.3-3.7-1z"/>
      <path fill="none" stroke="#FFFFFF" d="M242 4.8c6.4 10.2 19.4 18.2 30 9 1.5-1.2 0-3.5-1.8-3-12.4 3-20.2 18.7-10.5 29 8 8.5 22 6 26-4.8.8-2-2.5-3.4-3.3-1.5-3.3 7.2-3.5 20.3 7.5 20 3.5-.2 8.4-2.8 8-7-.3-4-5.5-5-8.7-4.8-9.5 1-14.2 13-7.2 19.8 6.4 6 18.2 2.6 19.6-6.2.7-4.4-1.7-8.5-6.2-9.4-5.3-1-10.6 2.5-13.3 6.8-5 8-1.4 19.2 8.4 21 10 1.8 18.5-8 13.3-17.3s-16.7-6.4-22.3 1c-5 7-6.6 22 5 23.4 7.8.8 17.4-11 13.4-18.3-5-9.4-16.2 5.5-18 10.3-2.5 6.2-4 17.7 5.6 17.7 5.6 0 9-4.7 10.8-9.3 1.5-3.4 3.3-8.6 0-11.6-5.4-5-12 6.7-13.7 10.5-3 6.7-3.4 18.6 6 20 8.6 1.2 14.5-11 5.2-14.5-8.5-3.3-18.8 6.6-17.5 15.2 1.2 8 13.7 14.3 17.4 4.4a7.6 7.6 0 0 0-4.5-9.8c-4.8-1.8-9.7 1.3-12.4 5.3s-4.4 9.7-1.8 14c2.3 3.8 7 4.7 10.8 3 5-2.3 6.7-7.5 7.8-12.4a2 2 0 0 0-1.8-2.3c-11.5.5-19 13.7-13.4 23.8a2 2 0 0 0 2.6.8 10.6 10.6 0 0 0 5-10.2c0-1.3-1.5-2.5-2.8-1.7-4 2.6-8.8 6.2-8.2 11.8a6.5 6.5 0 0 0 8.2 5.7c11-2.7 13.2-19.4 10.7-28.4a2 2 0 0 0-3-.7c-4 3.5-.7 8 4 8.6 5 .5 8-4.7 7.4-9.3-1.5-12.5-20-6.3-15.7 4.6a2 2 0 0 0 3.4.5 53.4 53.4 0 0 0 4.8-43.8 2 2 0 0 0-3.2-.8c-5.7 4.6-1.3 13 5.5 13.2 8.3.3 10.8-9.7 8.5-16a2 2 0 0 0-3-.8C301 64 297.4 68 297.8 73c.2 3.6 2.3 7.3 6 8 4 .8 7.4-2 8.8-5.5 2-5.3-.7-10.5-3.3-15a2 2 0 0 0-2.6-.5c-4 2.8-8.3 6.4-7.5 11.8a6.8 6.8 0 0 0 8 6c8-1.5 12.2-15.7 10.3-22.6-2.5-9.3-14.8 0-12.2 7.3 2.8 8.2 15.2 6.8 16.6-1.4.7-3.6-.5-8.8-5-9.2s-6.5 5-7 8.6a2 2 0 0 0 3 1.6c7.5-5 4.7-16.4-3.4-19.3-4.3-1.6-10.2-1.2-13.7 2-2.3 2.4-2.7 6.2.7 8 8.6 4 14-9.8 14-16 0-7.8-11.2-17.8-16.8-8.4-2 3-2 8.2 1.2 10.3 3.4 2.4 6.4-1 7.4-4 2.5-7.3-1-20.2-11-18-7.7 1.6-10 14-.6 15.4 8.8 1.2 8.7-13 7-18.3-1.6-5-5-9.4-10.5-9.8-4-.4-7.6 2-7.4 6.4.2 3.4 2.8 7.4 6.7 5.8s5.3-8.4 6.3-12c.7-2.3-3-3.3-3.6-1L288 8c-.2 0-1 2.8-1.6 3.2-1.3.8-2.8.6-2.6-1.3.4-4.5 6.3-1.8 7.8-.2C294 12 295 16 295.3 19c0 2.8-1.7 13-6 8-3-3.3 1.8-7.6 5.2-7 3 1 4.6 4 5 7 .2 1.8.5 5.3-.8 6.8q-.3 2-1.3-.2-2-1.4-.4-3.5c1.6-2 4.7-1.7 6.5-.3 4.5 3.2 3.6 9 1.8 13.5-.8 2-2.3 5.6-4.7 5.8-3 .2-1-2.5 1-3a11 11 0 0 1 4.7-.4c5.7 1 11 9 4.8 13l3 1.7a6.4 6.4 0 0 1 1-3.3c1.8-2 3.3-.7 3.5 1.4.2 2.6-1 5.2-3.6 5.8a4.8 4.8 0 0 1-6-3.7c-.2-1.4.3-3.6 1.7-4.4h3.3a9.5 9.5 0 0 1 0 2.5 25.6 25.6 0 0 1-3 11.4c-1.4 2.6-7.8 6.8-8 .5 0-3.2 3.4-5.6 5.6-7.3l-2.5-.7c1.3 2 2.8 4.4 3.4 6.8a7 7 0 0 1-.6 5.7q-1.5 3.3-4.3 1.2c-6.8-2.2-.8-9.7 2.2-13l-3.2-.8c1.2 3.2 1.3 7-1.2 9.6-4 4-11.2-1.4-6.5-5.2l-3-.8a49.7 49.7 0 0 1-4.4 40.8l3.5.4c-1.5-3.4 2-9 6.2-6.7 1.6.8 2.3 3 2.3 4.7a4.4 4.4 0 0 1-2 3.6q-3.7 1.3-3.2-2l-3-.8a23.8 23.8 0 0 1-2 18c-1.3 2-7 9.5-9.6 4-.8-1.8 1-4.6 2-5.7a23 23 0 0 1 4.2-3.3l-3-1.6a7 7 0 0 1-3 7l2.5.7c-4.2-7.5 1.4-17.7 10-18.2l-1.7-2.3c-.6 2.4-1.2 5-2.6 7.2-2.3 3.2-8 5.2-9.7 0-.8-2.7.6-6.3 2-8.5a10 10 0 0 1 3.5-3.5c2.8-1.6 8.4-.2 7.2 4-1.7 5.8-7.5 2.4-9.3-.5-1.6-2.6-1.4-5 0-7.7a13.3 13.3 0 0 1 4.2-5c2-1.3 9.4-4 9.7 1.5.2 3.6-5.2 5.3-7.7 4-2.2-1.2-3-3.6-3-6a18.2 18.2 0 0 1 2.5-10c1.2-2 3.3-6.4 5.6-7.2 3.6-1 1 5.8.3 7.3-1.4 3.3-4 8.3-8.5 7-7.2-2.4.3-16.6 3.3-19.8 2-2 8-5.3 7 0a13.6 13.6 0 0 1-3 6.5c-5 5.7-12.7 3-12.6-5a16.4 16.4 0 0 1 8-13.2c5.3-3 11.4-.7 12.5 5.6 1.2 7.4-7.5 11-13.2 8-4.5-2.2-5.7-7.6-4-12 1.3-4 6.4-9.2 11-7.4 4 1.6 3 7 .3 9.2-5 4.4-13.5 1-13.2-5.8a8 8 0 0 1 6.2-7.4 8.3 8.3 0 0 1 3.5 0c3 1 2 3-.8 3.8-9 2.8-7.6-9.5-5.6-14L282 34c-3 8.3-14 9.4-19.7 3-7.6-8.2-.7-20.3 9-22.7l-2-3c-8.5 7.4-19-.4-24-8.3-1.3-2-4.6-.2-3.3 2z"/>
      <path fill="none" stroke="#FFFFFF" d="M259.4 5c3 3.6 8.3 2.8 11.8.3 2-1.4 0-4.7-2-3.3-2 1.6-5 2.7-7.2.4-1.6-1.8-4.2 1-2.6 2.7z"/>
      <path fill="none" stroke="#FFFFFF" d="M270.6 1.8c-7 2.7-5.7 12.8 1 15.3 8.5 3.5 14.6-6.6 13.2-14-.4-2.3-4-1.3-3.6 1 .8 4.4-2.4 11.2-7.8 9.8-3.3-.8-6-6.8-1.8-8.4 2.2-1 1.3-4.5-1-3.7z"/>
      <path fill="none" stroke="#FFFFFF" d="M226.2 4c4 16.3 27.3 19 34 3.5.7-1.4-.3-3.3-2-2.8a27.3 27.3 0 0 0-19.2 23c-1 10.2 8.4 12.3 16 8.2 4.7-2.6 15-8.3 14.8-14.6-.2-8.6-13-4-14 2.5-1.5 11.3 13.6 15.2 22 13 4-.8 7.8-3 9-7.2.6-2.7.8-7.3-2-8.7-7.6-3.6-13.6 16.4-14 20.6-.6 4-.2 8.6 3.5 11 4 2.5 9 .3 12.4-2.4 3.7-3 7.5-8 5.8-13-1.3-3.8-5.3-6-9-6.2-9.4-.2-14.5 11-13.4 19C272 63 293 64 295.4 51c1.4-7.3-3.5-15-10.6-16.7a17 17 0 0 0-17.8 8c-3.8 6.6-2 17.4 6.8 18.2 10 1 16-10 15.3-18.6-.6-9.7-8.8-17.6-18.7-16.5-9.2 1.2-18.5 11-13.4 20.3 4.3 8.3 13 1.7 17.3-3 7-8 11.6-19.8 10-30.3-1-5-3.4-9-8.2-10.7-2-1-3 2.7-1 3.6 8.2 3 6 15.2 4 21.4a38 38 0 0 1-8.5 14.4c-3.2 3.4-9.6 8.3-11 .5-1.8-8.6 9.4-14.2 16.4-12 6.3 2 9.8 8.4 9.3 14.8-.3 5.8-6.3 16-13.5 11.7-4.8-3-3.4-10.2-.4-13.8a13.2 13.2 0 0 1 12-4.5c7.7 1.2 12 13 4.4 17.5-7 4-14.7-.8-14-8.7.3-5.6 4.5-14 11.4-11.6 13.6 4.4-11.7 24.7-11 8.3.3-6 3-12 6.8-17 2.3-2.8 2.8.4 2 2.7-1.5 4.2-7 5-11 4.8-3.5 0-7.4-1-10-3.6-2-2.2-3.5-5.8-1-8.4 1.8-2 5.8-1.7 4.3 1.3-2 3.7-7.3 6.7-10.7 8.7a17 17 0 0 1-5.4 2.3c-6.8 1.3-7-5-5.8-9.5A23.4 23.4 0 0 1 259 8.3l-2-2.7C251.5 18 233 16.4 229.8 3c-.6-2.2-4.2-1.2-3.6 1z"/>
      <path fill="none" stroke="#FFFFFF" d="M223 4c.8 5 4 10.6 9.6 10.5s9.2-5.6 9-10.8c0-2.4-3.8-2.4-3.7 0 0 3.5-2.4 7.8-6.5 7-3.3-.7-4.5-4.7-5-7.5-.3-2.4-4-1.4-3.6 1z"/>
      <path fill="none" stroke="#FFFFFF" d="M240.3 1.8C234 3.8 223.8 12 229 19.5c2.7 4 7.5 2.3 10.5-.5 4-3.8 5.7-9.7 5.7-15a2 2 0 0 0-3.8 0 18.4 18.4 0 0 1-3 10.7c-1.6 2-6.5 5.8-7 1-.5-4.7 6.2-9 10-10.3 2.2-.7 1.2-4.4-1-3.6z"/>
      <path fill="none" stroke="#FFFFFF" d="M203.7 1.8c-10 3.4-16.6 13-17.7 23.4-1 9.4 5.6 15 14.6 11.5 7.5-3 13.7-11.6 7.8-19-5.6-7.2-16-3.7-21.4 1.8-4 4-13.8 22-4.4 25.3 9.2 3.2 14.4-10.3 6.5-15.3-18.2-11.5-34.5 31-11.3 34.7 9.5 1.5 13.8-10.3 6-15.5s-19 .5-23.2 8c-3.8 6.6.5 16.3 9 15.3 7.7-1 14.7-10 17-16.8 1.6-5 1.4-11-2-15.2-1.6-2-4.5-4.3-7-2-2.5 2.8-.7 6.6 1.8 8.5 3.5 2.6 7.8 2.6 11.6.4 6.4-3.8 13.8-14 13.5-22-.2-7.2-8.3-9.2-12.4-3.5-4.7 6.6-2.3 16 6.3 17.4 9.2 1.5 16.6-7.7 15.2-16.4-.5-3.2-2.5-7.4-6.4-7s-5.6 5.2-6 8.4c-.8 4 0 9 3.6 11.2 3.5 2.2 8 1 11-1.6 4.2-3.7 4.6-9.5 4.8-14.6 0-1.8-2-2.3-3.2-1.4-6 5-14 18.4-3 23 9.8 3.8 18.3-8.7 10.7-16a2 2 0 0 0-3 .3c-3 4-6.2 9-4.8 14.3 1 3.8 4 7.3 8.2 7.2 8.5 0 8.2-11 6-16.6-.4-1.3-2-2-3-1-3.7 4.2-8 13.6-5 19 5 9 15-4.5 16.8-9.4 1-3 2.6-8.7.3-11.5s-5.7-.2-7.2 2c-5.8 9 6.6 15.4 13.8 11.3 6.4-3.6 9.2-19.8-1.3-19.3-9.7.5-9 16-1.7 19.3 7.5 3.6 17-5.4 15.7-13-1-5.5-9.5-9.8-13.4-4.6-2.2 3-.5 7 2.2 9 4 2.8 8.7 1.5 11.6-2 8-9.8.6-24.2-10-28-2.3-.8-3.3 2.8-1 3.6a15.8 15.8 0 0 1 10.4 15.2c0 3.2-1.4 7.2-4.6 8.4a3 3 0 0 1-4-.2L249 26c.3-1.3.8-1.5 2-1.7 5.6-1 5.5 6 3.3 9-1.8 2.6-5.6 5.4-9 3.6-2.8-1.6-4.2-6.7-2.4-9.5 2-3.3 6.6.4 6 3.7a10 10 0 0 1-2.4 4.8 7.5 7.5 0 0 1-7.5 1.6 3 3 0 0 1-2.5-3.2q-1.8-2.6 1.3-4c.3.2 0 2.6-.2 2.8a19.7 19.7 0 0 1-3.2 8.6c-1 1.8-4.4 6-6.8 5-2.2-.8-1.3-4.3-1-6a22.4 22.4 0 0 1 4.4-9l-3-1c1 3 2.4 8.6-.3 11-4.3 3.5-7.5-3.2-7-7 .7-3 2.8-5.6 4.5-8l-3 .4c8 8-9 15-9.8 5.8-.4-4.7 4.3-10 7.6-12.6l-3.3-1.4a27.6 27.6 0 0 1-1 8.2c-1.4 3.6-8 9.2-11 2.5-.6-1.8-.6-6.4.8-8l.5-1 3.6 1c1 1.3.5 4.6 0 6-1.2 5.2-7.4 9.4-12.7 7-4.5-2.3-4.7-9-1-12 2.2-1.8 4.4-.8 4.8 2.2.3 2-.7 4.2-1.5 6a33.8 33.8 0 0 1-7.2 10.3c-2.2 2.2-5.3 4.2-8.6 3-.7-.2-4.4-2.2-3.2-3.4.2-.3 1.7 1.5 2 2 3.4 5 1 12-2.2 16.6-2.2 3.2-5.3 6.7-9 8-6.3 2.6-10-4.4-7-9.6 2.4-4 7.4-7.3 12-7.6 3.7-.2 8 1.6 8 5.8 0 6.2-7.3 4.6-10.4 2-8.3-7-1-27.3 10.2-26.6 3.2.2 7.6 3.2 5.4 7.3-1 1.7-4.6 3.3-6.2 1-1-1.4.7-6.5 1.2-8C186 27 189 21.8 194 19c5-2.7 15-1.5 13 6.8-1 4.6-7.5 8.8-12.2 8.4-7-.7-5.3-9.5-3.7-14 2.3-6.7 7-12.4 13.8-14.8 2.3-.7 1.3-4.4-1-3.6z"/>
      <path fill="none" stroke="#FFFFFF" d="M206.5 3C204 7.5 202 13 203 18.4a10 10 0 0 0 11 8.5c5.5-.5 9.8-5.5 10.6-10.8 1-6.8-4-12.2-10.2-14.4-2.2-.8-3.2 2.8-1 3.6 4.7 1.7 8.6 6 7.2 11.3-1.2 4.6-6 8.2-10.7 6-6.6-3.3-2.7-13.3-.2-18 1-2-2.2-4-3.3-1.8z"/>
      <path fill="none" stroke="#FFFFFF" d="M199.6 4.2c4 13 19.8 10.2 26.2.6 1.3-2-2-4-3.3-2-4.5 7-16.2 10.3-19.3.4-.7-2.3-4.3-1.3-3.6 1z"/>
      <path fill="none" stroke="#FFFFFF" d="M189.6 4c.8 7.4 5 15.8 13.4 16.2 9.2.3 14.7-8.3 17-16.2.8-2.3-2.8-3.3-3.5-1-1.7 5.7-5.2 12.5-11.8 13.3-7.2 1-10.7-6.3-11.4-12.4-.2-2.5-4-2.5-3.7 0z"/>
      <path fill="none" stroke="#FFFFFF" d="M188.2 6a10 10 0 0 0 10.3-.6c2-1.3 0-4.6-2-3.3s-4.2 2-6.4.8-4 2-1.8 3.2z"/>
      <path fill="none" stroke="#FFFFFF" d="M177 4.5c-1.8 8.3-1.7 22.6 10.2 22.7S206.7 13.4 209 3.6c.4-2.4-3.2-3.4-3.7-1-1.8 8-6.4 17-14.5 20-11.4 4.4-11.7-10-10-17.2.5-2.3-3-3.3-3.7-1z"/>
      <path fill="none" stroke="#FFFFFF" d="M159.6 5c-2.3 11 6.2 20.4 17 20.6 11.8 0 21.5-10.2 22.5-21.5.3-2.3-3.4-2.3-3.6 0-.8 9-8.3 17-17.3 17.8-8.7.7-16.7-6.7-14.8-15.7.5-2.2-3-3.3-3.6-1z"/>
      <path fill="none" stroke="#FFFFFF" d="M158.3 81.5c-5 4-20.6 18-9 24 9.2 4.5 17.4-10.8 15-18.2-3-9.8-15.6-7.4-20.8-1-5.7 7-9.3 22.2-1 28.7 7.7 6 16-1.5 19.4-8.5 1.2-3 2.5-7 .4-10-2.3-3-7.2-3-10.4-1.7-9 3.8-7.6 16.2 1.2 19.2 4.8 1.6 10-.4 13-4.3 2-2 3.2-6 .4-7.8-6-4.2-13.3 5.2-11.5 10.7 3 9 14.6 9 20 2.7s2.7-14.7-6.2-13.7c-6.6.7-10.2 7-11 13s.4 13.5 6.2 16.7c6.6 3.5 18-.6 18-8.8.2-3.4-1.6-7-5-7.6-4.5-.8-7.5 3.3-9 7-3.2 8.2 1 19.4 11 19.7a10.7 10.7 0 0 0 9.4-4.6c1.6-2.5 2.7-8 0-10s-6 .7-7.4 3a10.4 10.4 0 0 0 1 12.5c5.6 6 16.2 1.6 17.8-6 2-9-8.7-16-16.7-12.5-4.7 2-7.3 6.6-8 11.5 0 1.8 2.2 2.3 3.3 1.4 10.2-8.8 9-26-3-32.6-4.4-2.4-11.4-4.3-16-1s-3.2 9.6 2.7 10c7 .8 11-8.2 12-14a30.8 30.8 0 0 0-5.3-21.2C166 74 161.2 69.6 156 69a5.5 5.5 0 0 0-5.4 8.5c2.5 4 8.7 2.7 11.8.2 5.4-4.3 7.4-12.5 7.2-19s-2.3-15.3-7.4-20c-4.7-4.2-10.2-2-12.2 3.6-5.3 15.4 15 24.4 23.6 11.2 4.5-7 4.2-16.4 1-24-1.7-4.4-6.8-14.2-13-12.8s-5.7 11.5-4.5 16c1.7 5.4 5.7 10 11.8 9.4 16.8-2 14.7-27 9.5-38-1-2-4.2-.2-3.2 2 3.4 6.8 4.5 16 2.2 23.4-2 6.7-11.2 13.5-15.5 4.7a16.7 16.7 0 0 1-1.5-9c.4-3 3-4.4 5.7-2.4 2.4 1.8 4.4 6 5.4 8.8 3 7.8 3 22.5-7.4 24.8a9 9 0 0 1-11-9.2c0-3.4 2.7-8.8 6.6-5.6 2 1.6 3.3 4.6 4.2 7 3 7.7 3.2 17.4-1.8 24.3a7.6 7.6 0 0 1-4.3 3.3c-.7.2-1.8.6-2.4.2h-.6l.4-3.6c2.2-1 7 3.5 8.4 5 5.6 5.8 8.5 15.6 6.4 23.6-.5 2-1.7 5.5-3.5 6.6-1.4 1-7-1-3.3-2a10.8 10.8 0 0 1 4.4-.2 18 18 0 0 1 9.7 4.8c7 6.7 5.7 18-1.4 23.8l3.2 1.4c1-7 9-11.8 14.7-6.6a7 7 0 0 1-3.6 12.4 5.5 5.5 0 0 1-6-2.5c-1.5-2.3.6-10.6 2.3-7.3 1 2-2 5-3.5 5.6a8.2 8.2 0 0 1-7 0c-5.4-2.7-6.3-9.8-4-14.8.8-1.4 2-4 4-3.8 1.5 0 2.7 2.8 2.7 4 0 4-5.2 6-8.5 6.2-6.5 0-9-6.3-8.7-12 .2-5 3-12 9-11.7 8 .4 2.2 9-2 10.4-4.5 1.6-12.6-2.3-9-8 .4-.6 3.6-3.5 4.7-2.8 2.7 1.7-6 5.8-7 6-7.7.3-10.5-11-2.4-13 7.7-2 4.7 6 2.6 9.4-2.3 3.8-7 8-11.7 5.2-10.6-6.3.8-34.8 12.8-27.4 3.6 2.3 3 7 1.6 10.3-1.3 2.6-4.8 8-8.4 6.8-8.8-3 6.7-16 9.4-18 1.8-1.6-.8-4.3-2.7-2.7zM34 106.7c-1.6-1.8-4-4.3-3.5-7q-.7-3.5 4.6-2.6a15.4 15.4 0 0 1 2 2.8c1.2 2 4 .2 3.2-2-1.4-3-2.5-7.5-.3-10.6 1.7-2.6 5.7-3.6 8-1.2 1.8 1.6 4.5-1 2.8-2.7a9 9 0 0 0-12.4 0c-5 4.3-3.8 11.3-1.5 16.5l3.2-2c-2.4-4-7.2-8-11.5-3.6-4.6 4.8-.8 11 2.5 15.2 1.6 2 4.2-.8 2.7-2.6zM52.5 146.7c-1.4-2.2-2.2-5-.8-7.5 1.8-3 6.8-3.3 8 .5.6 2 3.8 1.7 3.7-.5-.5-8.6 10-11.8 14.3-4.2 1 2.2 4.4.3 3.2-2a11.3 11.3 0 0 0-21.4 6.2l3.7-.5a8.2 8.2 0 0 0-11.7-4.6c-5.3 3-5.2 10-2.3 14.5 1.3 2 4.5.2 3.2-2zM88.4 333.3A33.2 33.2 0 0 1 97 323l-3-.8a57 57 0 0 0 6 16 2 2 0 0 0 3.4-.5 29 29 0 0 1 5.8-10l-3-.5a82 82 0 0 1 6 10.8c.8 1.6 3 1 3.5-.4a15.6 15.6 0 0 1 3.5-6.5l-3-.7a53 53 0 0 1 2.4 16c0 1.8 2.7 2.7 3.5 1a56.8 56.8 0 0 1 6.8-11l-3-1a66 66 0 0 1 3.8 15c.3 1.8 2.7 1.8 3.5.5 1-1.7 3.4-7.2 5.5-7.5 1.5-.3 1.7 1 2.5 2.6l2.6 4.3a2 2 0 0 0 3.5-1 6 6 0 0 1 2.7-5l-3.2-1 2.8 8.4a2 2 0 0 0 3.5.4 19 19 0 0 0 3-7.7c.5-2.4-3-3.4-3.5-1a17 17 0 0 1-2.8 7l3.4.4-3-8.2a2 2 0 0 0-3-1 10.4 10.4 0 0 0-3.7 7.8l3.5-1c-1.6-2.7-4-10.2-8.3-9.8-4 .4-7 7.6-8.7 10.5l3.5.4a66 66 0 0 0-4-15c-.4-1-2-2-3-.8a61 61 0 0 0-7.4 11.8l3.4 1a56.3 56.3 0 0 0-2.7-17 2 2 0 0 0-3-1 20 20 0 0 0-4.6 8.2l3.6-.4a82 82 0 0 0-6-11 2 2 0 0 0-3-.2 34 34 0 0 0-6.8 11.7l3.4-.4a54 54 0 0 1-5.7-15c-.3-1.6-2-1.7-3-1a35.7 35.7 0 0 0-9.3 11c-1 2.2 2 4 3.3 2zM380.3 333.6a13.3 13.3 0 0 1 1.5-9l-2.6.6a24.2 24.2 0 0 1 7 6.2 2 2 0 0 0 3.4-.4 39.3 39.3 0 0 0 1.3-11.2l-3.3 1.3 6.6 6.7a2 2 0 0 0 3.2-.8 24.7 24.7 0 0 0 1-9l-2.7 1.5a37.2 37.2 0 0 1 7.2 5.3c1 1 3.5.4 3.2-1.3l-1.7-14.2-3.7.5a30.7 30.7 0 0 0 9 13 2 2 0 0 0 3.2-.7 44.3 44.3 0 0 0 1-10l-3.2 1.2 8 6.5a2 2 0 0 0 3-1.3 27.2 27.2 0 0 0-2.3-14c-1-2.2-4.2-.3-3.2 2a23.6 23.6 0 0 1 1.8 12l3.3-1.3-7.8-6.4a2 2 0 0 0-3.2 1.3 40 40 0 0 1-1 9l3.2-.7a27 27 0 0 1-8-11.4c-.8-2-4-2-3.8.4l1.8 14 3.2-1.2a41.2 41.2 0 0 0-8-6 2 2 0 0 0-2.8 1.7 22 22 0 0 1-1 8l3-1-6.6-6.6a2 2 0 0 0-3.2 1.4A36 36 0 0 1 386 330l3.4-.5a29.4 29.4 0 0 0-8.3-7.5 2 2 0 0 0-2.4.7 17.7 17.7 0 0 0-2 12c.6 2.3 4 1.3 3.7-1z"/>
      <path fill="none" stroke="#FFFFFF" d="M89.2 328.6c1.5-18.7 3-37.4 7-55.7 1.8-9 3.8-20 8.6-28 4.4-7.3 13-12.8 19.6-18a149 149 0 0 1 22-14.8c7-3.7 15-6 21.3-10.8 11.7-8.7 17-23 26.5-33.6l-3-.4c13 21.2 27.3 43.8 49.3 56.8 9 5.3 22.7 11.8 32.6 5 9-6.3 9.5-18.7 16-26.7 1.4-2-1.3-4.6-2.8-2.7-5.6 7.2-6.7 17.3-12.8 24-9.3 10.2-25.8.8-34.8-5.3-19.3-13-32-33.6-44-53a2 2 0 0 0-3-.4c-10.5 11.6-16 28-30 36-7.6 4.2-15.7 7-23 11.4a200.2 200.2 0 0 0-21 15.3c-6.8 5.4-14 10.5-17.7 18.7s-5.8 17-7.6 25.5c-4 18.6-5.5 37.6-7 56.6-.2 2.4 3.5 2.4 3.7 0zM344 194.4c11.6-.5 21.4 1.3 30 10 6.8 7 11.4 15.8 15.3 24.7a346 346 0 0 1 22 73.2c.5 2.4 4 1.4 3.7-1-5-26.6-12.7-53.3-24.2-78-4.2-9-9.5-18-17.2-24.4-8.8-7.3-18.6-8.6-29.7-8.2-2.5 0-2.6 4 0 3.8zM375 338a383 383 0 0 0 13.5 161.6c.8 2.3 4.4 1.3 3.7-1A380.5 380.5 0 0 1 378.8 338c.3-2.3-3.4-2.3-3.7 0zM154.5 345.8c7.7 28.6 14.3 56.8 11.2 86.7-1.4 12.8-2.3 25.4-.3 38.3a109.4 109.4 0 0 0 13 37c1.2 2 4.4 0 3.2-2a105.6 105.6 0 0 1-13-39c-1.7-13.4.2-26.5 1.3-39.8 2.3-28-4.7-55.3-12-82.2-.5-2.3-4-1.3-3.5 1zM36 360.8c13.3-29.2 14-62 13.4-93.4-.2-5.3-.5-11.4-4-15.7-3.5-4-9-5-13.7-3.3-10.4 3.4-16 19.3-12.3 29 1.6 4.5 6 7.6 10.8 6.4 6.4-1.7 5.2-8.5 3-13a2 2 0 0 0-3 0 17.6 17.6 0 0 0-2 8.6c0 2.4 3.8 2.4 3.7 0a13.7 13.7 0 0 1 1.3-6.8H30c1.2 2.5 1.2 8.5-3 7.5-2-.3-3.2-2-4-3.7-1.4-3.3-.7-7.4 0-10.8 1.3-5.7 4.3-12 10.4-13.7 15.5-4.4 12.4 22.4 12.4 30.8 0 26-2 52.4-13 76.3-1 2 2.2 4 3.2 1.8zM494.4 579.2a285 285 0 0 1-18.8-39.3c-5-13-11-27.6-10.3-41.7.3-6.7 2.5-14 7.3-18.7 3-3 7.7-5.8 12.2-4.3 3.3 1 5.5 4.2 7 7.2 2.7 5.5 6 14.7 2.5 20.4-2.5 4-8.2 5.3-11 .8-1.5-2.6-1.5-6.2-1.6-9.2l-2.3 1.8a6.6 6.6 0 0 1 4.5 3c1.3 2 4.6 0 3-1.8a11.6 11.6 0 0 0-6.6-4.8 2 2 0 0 0-2.4 1.8c0 5 .6 11 4.8 14 3.7 3 8.4 2 11.8-.6 9.3-7.4 4-24.7-2.8-32.3-9.4-10.6-22.8-.7-27.3 9.4-6.2 14.2-1.5 30 3 43.8a289 289 0 0 0 23.7 52.3c1.2 2 4.4.3 3.2-1.8z"/>
      <path fill="none" d="M0 0h525v600H0z"/>
    </g>
  </g>
</svg>
