<svg xmlns="http://www.w3.org/2000/svg" viewBox="0 0 756.25 1183.68">
  <g id="Warstwa_2" data-name="Warstwa 2">
    <g id="Warstwa_1-2" data-name="Warstwa 1">
      <path fill="#FFFFFF" d="M293.6 186.3c.7 6.2 6.2 8.4 11.4 10.4a111.3 111.3 0 0 0 23.6 6c16.4 2.6 33 2.3 49.3 2 16.8-.3 34-.7 50.2-6a98.6 98.6 0 0 0 38.6-23c2.3-2.4-1.2-6-3.6-3.7a93 93 0 0 1-34.8 21.5c-14.5 5-29.8 5.8-45 6-14.2.4-28.5.8-42.7-.3a137.4 137.4 0 0 1-22-3.4 103.5 103.5 0 0 1-10-3c-2.8-1-9.7-2.7-10-6.5-.4-3.2-5.4-3.2-5 0z"/>
      <path fill="#FFFFFF" d="M297.7 188.3l3.8-13.2-3.7 1.6a184.4 184.4 0 0 0 86 15.2 181.6 181.6 0 0 0 43-8c12.4-4 25.2-9 33.5-19.4l-4.3-1.7.7 10c.2 3.3 5.2 3.3 5 0l-.7-10c0-2-2.8-3.6-4.3-1.8-8.3 10.3-21.3 15-33.6 18.7a176.3 176.3 0 0 1-41 7.2 179 179 0 0 1-81.6-14.7 2.5 2.5 0 0 0-3.7 1.5L293 187c-1 3 3.8 4.4 4.7 1.3z"/>
      <path fill="#FFFFFF" d="M466.4 166.3l.4-.4a2.5 2.5 0 0 0 .7-2.5c-1.2-4-8-2.2-7.3 2 .6 2.7 4.3 4.6 6 6.3a32.6 32.6 0 0 0 10.5 6.8c3.6 1.6 7.3 3 10.4 5.5 4.3 3.6 6 9 6.7 14.3 1.5 9.3 1.8 18.8 3.5 28 3.2 18 9.2 35.8 19 51.3a105.3 105.3 0 0 0 16.2 20.4c7.2 6.8 15.5 12 23.6 17.7 9.8 6.7 18 14.7 22.8 25.6a55 55 0 0 1 3.4 33.8l4.2-1a25.8 25.8 0 0 0-26.2-4.7l2.8 3.7c7.7-11.2 3.3-26-5-35.5-11-13-27.6-19-39-31.6-25-27.7-28.5-67-33-102-1-8-.6-18.4-5-25.3-2-3.3-5.7-5.4-8.4-8.2a46.4 46.4 0 0 1-8.2-12.4c-1.4-2.8-5.7-.3-4.4 2.6a49.4 49.4 0 0 0 13 17.2c3 2.5 4.8 4.8 5.6 8.7 1 4.8 1.5 9.7 2 14.5 2.3 17.7 4 35.5 8 53 3.6 15 9 29.8 17.3 42.8s19 22 31.7 30.5c13 8.7 33 25.7 21 43-1.3 1.8.7 4.6 2.7 3.8a21 21 0 0 1 21.4 3.5c1.3 1 3.8 1 4.2-1a60 60 0 0 0-9-47C567 314 549 307 536 294.5c-12.8-12.4-21.8-28.2-27.6-45a166.8 166.8 0 0 1-6.7-26c-1.5-8.5-1.8-17.2-3-25.8s-4.8-16-12.7-20.3c-3.8-2-8-3.3-11.6-5.5a26 26 0 0 1-5.3-4.7 16.2 16.2 0 0 0-1.3-1.3l-1-.7q-1.5-1.6-2.3 1l-1.8-1.7v.2l.8-2.4-.4.4c-2.3 2.2 1.2 5.7 3.5 3.5z"/>
      <path fill="#FFFFFF" d="M467.5 162.2c12.2 8 28.6 12 37 24.7 4 6.3 3.7 13.5 5 20.7a58.3 58.3 0 0 0 7 18.2c13.8 23.2 42 33.8 67.8 26l-3-3a72 72 0 0 1-10 19 68.8 68.8 0 0 1-7.2 8.4c-3.7 3.7-6.8 1-10.3-1.3a140 140 0 0 1-27.8-26 144 144 0 0 1-30.7-69.5c-.4-3.2-5.3-1.8-4.8 1.3a148.6 148.6 0 0 0 37.8 78.5 143.8 143.8 0 0 0 17 15.6c4 3 10.3 9.7 15.8 9s11-8.6 14-12.7a77 77 0 0 0 11-21 2.5 2.5 0 0 0-3-3c-27.7 8.2-57.6-6.7-66.8-34.4-2-6.5-2-13.2-3.6-19.8a30.6 30.6 0 0 0-7.8-14c-9.6-10-23.4-14-34.8-21.4-2.7-1.8-5.2 2.6-2.5 4.3zM528.7 966.2a51 51 0 0 0 32.6 23c4.2.8 13.5 3 17-.5 3.2-3.2-.6-6.8-4-5.2a2.5 2.5 0 0 0-1.3 2.8l.2.5c.7 3 5.6 1.8 4.8-1.3v-.5l-1.3 2.8v.2l-2-1.2.2.5v-2.5c-1.2 2-11.5-.3-13-.6a46 46 0 0 1-11.2-4 45.5 45.5 0 0 1-17.8-16.5c-1.7-2.7-6-.2-4.3 2.5zM540 951.7a54.3 54.3 0 0 0 22.8 12.6A53.6 53.6 0 0 0 575 966c3.3 0 8.4.6 10.7-2.2a2.6 2.6 0 0 0 .3-3 3.3 3.3 0 0 0-3-1.8 2.5 2.5 0 0 0-2.5 2v.3c-1.2 3 3.6 4.3 4.7 1.3l.2-.4-2.5 1.8h.6l-2.2-1.2.3.5.4-3c-1.2 1.5-7.5.7-9.3.6a48.6 48.6 0 0 1-29.3-12.8c-2.4-2.2-6 1.3-3.5 3.5zM537 933.5l1.4 1.5a2.5 2.5 0 0 0 3.6-3.5l-1.5-1.5a2.5 2.5 0 0 0-3.6 3.5zM547 936.3q-.2-.3 0 .3a1.8 1.8 0 0 1 0 1q-.2.6 0 .3-.4.4-.2.2t-.3.2q.3-.2-.4 0 .5 0-.3.2-1.4-.6-.8-.2a2.5 2.5 0 0 0 3.3-1 2.5 2.5 0 0 0-1-3.3 3.5 3.5 0 0 0-4.6 4.8 2.5 2.5 0 1 0 4.3-2.5z"/>
      <path fill="#FFFFFF" d="M549 934.6a7.8 7.8 0 0 0-2.2 6c.2 1.3 1 2.7 2.5 2.6a5.5 5.5 0 0 0 5.2-5.5 2.5 2.5 0 0 0-5 0v.2q0-.3 0 0h-.3q.3 0 0 0c.4 0-.4.2 0 0l2.6 2.6a5.4 5.4 0 0 1 0-1v-.5a2.7 2.7 0 0 1 .7-1 2.5 2.5 0 0 0-3.5-3.4zM562.7 939.7h-1.5a2.5 2.5 0 0 0 0 5h1.5a2.5 2.5 0 0 0 0-5zM573.2 947.7h1.5a2.5 2.5 0 0 0 0-5h-1.5a2.5 2.5 0 0 0 0 5z"/>
      <path fill="#FFFFFF" d="M576.2 947.7h3a2.5 2.5 0 0 0 0-5h-3a2.5 2.5 0 0 0 0 5zM586.7 947.7c3.2 0 3.2-5 0-5s-3.2 5 0 5zM161.7 590.4a54.5 54.5 0 0 1 12.5-18.2l-4.2-1.7.6 21.7c0 2 2.8 3.4 4.3 1.8l14.2-15.4-4.2-1a48 48 0 0 0 6.7 17 2.5 2.5 0 0 0 4 .4l12-14.4-4-1a194.2 194.2 0 0 1 2.8 25 2.5 2.5 0 0 0 3.7 2.2l8.8-4.3c3-1.4.4-5.8-2.5-4.3l-8.8 4.3 3.8 2.2a204.5 204.5 0 0 0-3-26.5 2.5 2.5 0 0 0-4.2-1L192 591.3l4 .6a44.5 44.5 0 0 1-6.2-15.8 2.5 2.5 0 0 0-4.2-1l-14.3 15.3 4.3 1.7-.6-21.7a2.5 2.5 0 0 0-4.3-1.8A60.5 60.5 0 0 0 157 589c-1.3 3 3.5 4.4 4.8 1.4zM545.6 619.7a55 55 0 0 1 5-24h-4.4a207 207 0 0 0 12.6 20.6c1 1.5 3.4 1.8 4.3 0l8.2-16-4 .4a58 58 0 0 1 9.8 13.8 2.5 2.5 0 0 0 4.3 0 133 133 0 0 0 8.4-20l-4.6.5a66.3 66.3 0 0 0 15.5 16 2.5 2.5 0 0 0 3.4-1 107.5 107.5 0 0 0 6.3-19.5l-4.6.6q6 11.2 13 21.7c1 1.6 4 1.7 4.4-.6a65 65 0 0 1 6.5-18.7h-4.3a44 44 0 0 1 5.3 12c1 3.2 5.7 2 5-1.2a48.6 48.6 0 0 0-6-13.2 2.5 2.5 0 0 0-4.3 0 69.4 69.4 0 0 0-7 20l4.7-.6q-7-10.5-13-21.6a2.5 2.5 0 0 0-4.5.6 101 101 0 0 1-6 18.4l3.5-1a59.2 59.2 0 0 1-13.6-14 2.5 2.5 0 0 0-4.5.5 125 125 0 0 1-8 19h4.3a62.4 62.4 0 0 0-10.5-14.8 2.5 2.5 0 0 0-4 .5l-8 16h4.3a207 207 0 0 1-12.5-20.5c-.8-1.5-3.5-1.7-4.3 0a61 61 0 0 0-5.6 26.5c0 3.2 5 3.2 5 0zM577.2 988.2c6.6 43.7 13.3 90.4-4.3 132.6-15 36-53 66.7-93.8 56-34-9-86.2-50.6-54.3-88 9.3-11.3 24-21 25.6-36.7.8-7.6-3.2-12.6-10.8-13.5-3.7-.4-7.7-.3-10-3.7-2.2-3-2.2-7.5-1.3-11 2.8-10.8 14-14 23.4-16.3 10-2.5 19.4-5 28.3-10.5 17.8-10.8 30.7-27.8 43-44.2l-3.8.5a133 133 0 0 0 57.3 39.7 2.5 2.5 0 0 0 2.8-1 35.8 35.8 0 0 0 3-31.2 2.6 2.6 0 0 0-3-1.8 48.3 48.3 0 0 1-47.5-16 2.5 2.5 0 0 0-3.4 0L515 960.4c-2 2.5 1.4 6 3.4 3.5l13.7-17.5h-3.4a53.3 53.3 0 0 0 52.3 17.3l-3.2-1.7a31 31 0 0 1-2.5 27.3l2.8-1a128.2 128.2 0 0 1-55-38.5c-1-1.4-3-.7-4 .5-12.3 16.5-25.6 33.8-44 44-9.7 5.4-20.2 6.8-30.7 10-7.5 2.3-15 6-18.8 13.3-3 5.7-3.8 13.2-.6 19a12.6 12.6 0 0 0 5.8 5.3c3.7 1.6 9.5.2 12.7 2.6 4.5 3.4 1.6 11.3-.4 15.3a49.6 49.6 0 0 1-8.3 11.2c-5.6 6-11.8 11.4-16.6 18-11.7 16.2-9.2 37.5 1.8 53.3 11.5 16.4 30.6 28.7 49 36 38.4 15.6 80-6 100.6-39.6 28-46 20.2-101.8 12.6-152-.5-3.3-5.3-2-4.8 1.2z"/>
      <path fill="#FFFFFF" d="M413.3 1111l2 9.7c.6 2.8 5 2 5-.7l-.6-13.7a2.5 2.5 0 0 0-5 0 35.6 35.6 0 0 0 6.2 22.4 2.5 2.5 0 0 0 4.5-1.3 84.8 84.8 0 0 0-3.7-25.7l-4.8 1.3 10.2 32c.8 2.5 5 2.2 5-.8a132.8 132.8 0 0 0-7-33.2 2.5 2.5 0 0 0-4.7 1.3 90.8 90.8 0 0 0 14 35c1.5 2.2 5.4.8 4.6-2l-10-32.3c-1-3-5.6-1.8-4.7 1.3a189.5 189.5 0 0 0 14 36.4c1 2 5 1.3 4.6-1.2q-3-22.6-8-44.8c-.7-3.2-5.3-1.8-4.8 1.3a173 173 0 0 0 14.3 44.6c1.3 2.8 5 .6 4.5-2a437 437 0 0 0-10.2-49c-1-3.2-5.4-2-4.8 1.2a166.4 166.4 0 0 0 20 54.2 2.5 2.5 0 0 0 4.6-2l-15-60.4c-.8-3-5.5-1.8-4.8 1.4a313.6 313.6 0 0 0 24.4 69c1.2 2.5 5.3.7 4.5-2l-18.5-70.6c-1-3-5.4-1.7-5 1.4a221 221 0 0 0 29 76.2c1.6 2.5 5.2.8 4.6-2q-7.7-39.3-16.8-78.4c-.7-3.2-5.3-1.8-4.8 1.3a268.4 268.4 0 0 0 22.8 71.3c1.3 2.7 5 .7 4.6-2q-8-42.5-19-84.5c-.8-2.6-5.4-2.2-5 .7a337.8 337.8 0 0 0 24.7 93.2c1.2 2.7 5.2.7 4.6-2L465 1048c-.6-3-5.4-1.8-4.8 1.3A810.5 810.5 0 0 0 490 1158a2.5 2.5 0 0 0 4.8-1.3q-10.2-57.2-23.7-113.7c-.6-3.2-5.3-1.8-4.7 1.3a672 672 0 0 0 33.7 111c1.2 3 5.5 2 4.8-1.2l-26.6-116.6-4.8 1.3a856.7 856.7 0 0 0 33 107.8 2.5 2.5 0 0 0 5-1.3q-11-56.4-25.8-111.8c-.8-3-5.4-1.8-4.8 1.3a1012.5 1012.5 0 0 0 28.2 105 2.5 2.5 0 0 0 4.8-1.3L490 1030.3c-.7-3.2-5.3-1.8-4.8 1.3a512.6 512.6 0 0 0 28 101.6 2.5 2.5 0 0 0 5-1.2q-8-55.8-20.7-110.7c-.7-3-5.5-1.7-4.8 1.5 8.5 41.2 17.2 82.7 35 121 1.3 3 5 .7 4.6-1.8a1045.7 1045.7 0 0 0-25-115.7c-.8-3-5.3-1.8-4.7 1.3a1009.2 1009.2 0 0 0 24.8 106c1 3.3 5.3 2 4.8-1.2q-10-59-24-117c-.6-3.2-5.3-2-4.7 1.2a944 944 0 0 0 27 104.8c.7 2.5 5 2.3 4.8-.7a1051 1051 0 0 0-18.3-113.6c-.6-2.8-5.2-2.2-5 .6a487.7 487.7 0 0 0 23.8 114.2c1 2.5 5.3 2.3 5-.7a1102.3 1102.3 0 0 0-23.5-122.3c-.8-3.2-5.4-1.8-4.8 1.3a822.7 822.7 0 0 0 27 101.7c1 2.5 5.3 2.3 5-.7a839.5 839.5 0 0 0-17-106c-.8-3-5.4-1.6-5 1.5a830.2 830.2 0 0 0 26.7 107.6c.8 2.4 5 2 5-.8a781.7 781.7 0 0 0-14.6-107c-.5-2.7-5-2-5 .7a382.5 382.5 0 0 0 16.8 92c.8 2.5 5 2 5-.8a464 464 0 0 0-13-85.6c-.6-2.7-5-2.2-4.8.6a303.5 303.5 0 0 0 18.2 83.4c1 2.5 5 2.4 5-.6a492.7 492.7 0 0 0-14.4-87.3c-.6-2.7-5.2-2.2-5 .6a422.5 422.5 0 0 0 23.3 95c1 2.4 5 2.3 5-.7A448.2 448.2 0 0 0 551.3 988c-.8-2.6-5.2-2.3-5 .7a317.2 317.2 0 0 0 22.5 89.6c1 2.4 5 2.4 4.8-.6a402.3 402.3 0 0 0-13-80.8c-1-3.3-5.3-1.8-4.8 1.2a217 217 0 0 0 16.5 58.4c1 2.3 4.8 1 4.7-1.3a316.7 316.7 0 0 0-12-70.7c-.8-3-5.4-1.8-4.7 1.3l8 37c.4 2.7 5 2 4.8-.7a188.8 188.8 0 0 0-9.7-48.2c-1-2.4-5-2.2-5 .8a147.6 147.6 0 0 0 6.7 36.6 2.5 2.5 0 0 0 5-.6 84.6 84.6 0 0 0-4-34.6c-.8-2.6-5-2.2-4.8.7a65.5 65.5 0 0 0 5.6 25c1.2 2.6 4.6 1 4.8-1.2a76.2 76.2 0 0 0-3-29.2c-.8-2.6-5-2.2-5 .7l1 21.6c0 3 3.8 3 5 .5a39 39 0 0 0 3-17.2c-.3-3.2-5-3.2-5 0v14.4c0 3.2 5 3.2 5 0v-14.4h-5a36 36 0 0 1-3 16l5 .5-1-21.6-4.8.8a72.2 72.2 0 0 1 2.8 28l4.7-1.4a59 59 0 0 1-5-22.6l-5 .6a81 81 0 0 1 3.7 33.2l5-.6a142 142 0 0 1-6.6-35.3l-5 .5a183.6 183.6 0 0 1 9.6 46.8l5-.6-8-37-4.7 1.3a310.6 310.6 0 0 1 11.7 69.4l4.7-1.3a212.6 212.6 0 0 1-16.2-57l-4.8 1.3a395.6 395.6 0 0 1 12.8 79.4l5-.7a313 313 0 0 1-22.4-88.3l-5 .7a442.4 442.4 0 0 1 19 104l5-.5a417 417 0 0 1-23-93.7l-5 .6a485 485 0 0 1 14.2 86l5-.7a298.8 298.8 0 0 1-18-82l-5 .6a456.7 456.7 0 0 1 12.6 84.2l5-.7a377 377 0 0 1-16.5-90.6l-5 .5a771.8 771.8 0 0 1 14.3 105.8l5-.7A830.2 830.2 0 0 1 527.3 995l-4.8 1.3a829 829 0 0 1 17 104.6l4.8-.8a822.7 822.7 0 0 1-27-101.7l-5 1.3a1090.6 1090.6 0 0 1 23.3 121l5-.6a482 482 0 0 1-23.6-113l-4.8.8a1038.6 1038.6 0 0 1 18 112.4l5-.7a944 944 0 0 1-27-104.8l-4.7 1.2q14 58.2 24 117.2l4.7-1.3a1009.2 1009.2 0 0 1-24.8-106l-4.8 1.3a1045.7 1045.7 0 0 1 25 115.7l4.4-2c-17.5-38-26-79-34.5-120l-4.8 1.5q12.8 54.8 20.6 110.6l4.8-1.2a512.6 512.6 0 0 1-28-101.6l-4.8 1.3 24 108.3 4.7-1.3a1012.5 1012.5 0 0 1-28.3-105l-5 1.2q15 55.4 25.8 111.8l4.8-1.3a856.7 856.7 0 0 1-33-107.8c-.8-3-5.6-1.8-5 1.3l26.7 116.7 4.8-1.3a672 672 0 0 1-33.7-111l-4.7 1.2q13.5 56.5 23.7 113.8l4.8-1.3A810.5 810.5 0 0 1 465 1048l-4.8 1.3 24 107.8 4.5-2a329.5 329.5 0 0 1-24-90.6l-5 .7q11 42 19 84.7l4.6-2a264 264 0 0 1-22.3-70l-4.8 1.2q9 39 16.8 78.4l4.6-2a217 217 0 0 1-28.5-75l-4.7 1.4 18.6 70.5 4.5-2a308 308 0 0 1-24-67.7l-4.8 1.3 15 60.3 4.7-2a162.4 162.4 0 0 1-19.6-52.8l-5 1.3a437 437 0 0 1 10.4 49.2l4.6-2a168.3 168.3 0 0 1-13.8-43.3l-4.8 1.3q5 21.5 7.7 43.5l4.5-1.3A183 183 0 0 1 429 1103l-4.7 1.3 10 32.2 4.4-2a87.4 87.4 0 0 1-13.4-33.5l-4.8 1.3a127.5 127.5 0 0 1 6.6 32l5-.6-10.2-32c-1-3-5.7-1.7-4.8 1.4a80.3 80.3 0 0 1 3.5 24.5l4.7-1.3a31 31 0 0 1-5.5-19.8h-5l.5 13.7 5-.6-2-9.8c-.7-3-5.6-1.8-5 1.4z"/>
      <path fill="#FFFFFF" d="M510.4 976a112.5 112.5 0 0 0 7.8 23c1 2.5 4.4 1 4.6-1.3a129.8 129.8 0 0 0-1-30.6l-4.8 1.5 7.6 31c.6 2.2 4.4 2.4 4.8 0a88.3 88.3 0 0 0-.5-33.5c-.8-3.2-5.5-1.8-5 1.3l6 31c.5 2.8 4.6 2 4.8-.8a170.8 170.8 0 0 0-1.2-38c-.4-3-5-2.2-5 .6a115.8 115.8 0 0 0 5.3 35c.8 2.8 4.6 2 4.8-.7a214 214 0 0 0 1-30.7 2.5 2.5 0 0 0-5 0 87.2 87.2 0 0 0 6 36.2c.7 2 4.3 2.7 4.8 0a81.3 81.3 0 0 0-2.8-39 2.5 2.5 0 0 0-5 .5 90.7 90.7 0 0 0 6 38.4c1 2 4.4 2.7 5 0a76.5 76.5 0 0 0-2-34.6c-.8-2.5-5.3-2-5 .8a82 82 0 0 0 10 31c1.4 2.5 4.4 1 4.7-1a72.7 72.7 0 0 0-2.2-29.7c-.8-2.6-5-2-5 .7a64.7 64.7 0 0 0 8.4 30.2 2.5 2.5 0 0 0 4.6-.7 61.7 61.7 0 0 0 .2-26.5c-.6-2.8-4.8-2-5 .7a77 77 0 0 0 5.3 29c.8 2.2 4 2.5 4.8 0a45.8 45.8 0 0 0 .6-24c-.8-3-5.6-1.8-4.8 1.3l6 27.3c.7 2.5 4.4 2.4 5 0a14.4 14.4 0 0 0-.4-8.4c-1-3-6-1.8-4.8 1.3a9.6 9.6 0 0 1 .3 5.7h4.8l-6-27.2-5 1.3a40.5 40.5 0 0 1-.5 21.4h4.8a73 73 0 0 1-5-27.7l-5 .6a55.5 55.5 0 0 1-.2 24l4.6-.6a59 59 0 0 1-7.6-27.7l-5 .7a69 69 0 0 1 2 28.3l4.8-1.3a75.8 75.8 0 0 1-9.4-28.7l-5 .7a70.7 70.7 0 0 1 2 32h4.8a87.3 87.3 0 0 1-5.8-37l-5 .6a76 76 0 0 1 2.8 36.5h5a83.7 83.7 0 0 1-6-35h-5a214 214 0 0 1-1 30.8l5-.7a111 111 0 0 1-5-33.5l-5 .7a165 165 0 0 1 1 36.8l5-.7L529 966l-5 1.3a81.5 81.5 0 0 1 .6 30.8h5l-7.7-31c-1-3-5.4-1.6-5 1.5a124.3 124.3 0 0 1 .8 29.3l4.7-1.3a106.6 106.6 0 0 1-7.3-22c-.7-3-5.5-1.7-4.8 1.5z"/>
      <path fill="#FFFFFF" d="M432.7 1020.2v7.4h5l-.3-5.3c-.2-3-3.8-3.2-5-.6a21 21 0 0 0-1.5 6.8c-.3 3 4 3.4 4.8.7l3.6-12.4h-5l5.6 15.8a2.5 2.5 0 0 0 5-.7l.5-21-5 .6 5.6 19.4a2.5 2.5 0 0 0 5 0 43.5 43.5 0 0 0 1.7-17.3l-5 .7a106.6 106.6 0 0 0 10 32.2c1 2.2 4.8 1.2 4.7-1.3q-1-16.3-3.3-32.5l-4.7 1.3a378 378 0 0 1 10.3 39.2c.6 3 4.7 2 5-.6a219.3 219.3 0 0 0-2.3-44.2l-4.8 1.3a199.3 199.3 0 0 0 11.2 38.3c1 2.5 5 2.4 5-.7q-.2-21.5-2.2-43l-5 .8a212 212 0 0 0 8.3 33.5 2.5 2.5 0 0 0 5-.7 265 265 0 0 0 1-34.6h-5a84 84 0 0 0 11.5 33.3c1.2 2 4.8 1.3 4.7-1.3q-1.3-21.4-4-42.6l-5 .6a138.8 138.8 0 0 0 10.8 30c1 1.7 4.3 1.4 4.6-.7a115.5 115.5 0 0 0-1-37.4l-4.8 1.4a196 196 0 0 0 10.2 33.6c.8 2 4.2 2.6 4.8 0a83.2 83.2 0 0 0-.3-40c-.7-2.7-5.2-2.2-5 .7a90.3 90.3 0 0 0 9 31.8 2.5 2.5 0 0 0 4.4 0 23.6 23.6 0 0 0 .8-20c-1.2-2.8-6-1.5-4.8 1.5a19 19 0 0 1-.3 16h4.3a83.4 83.4 0 0 1-8.3-29.3l-5 .6a77.6 77.6 0 0 1 .4 37.4h4.8a196 196 0 0 1-10.2-33.5c-.7-3.2-5.5-2-5 1.3a107.8 107.8 0 0 1 1 34.7l4.7-.6A133 133 0 0 1 493 992c-.6-2.7-5.2-2.2-5 .6q3 21.3 4 42.7l4.8-1.3a78.2 78.2 0 0 1-11-30.7c-.3-3-5-3.3-5 0a265 265 0 0 1-1 34.6l5-.8a212 212 0 0 1-8.2-33.4c-.4-2.7-5.2-2-5 .7q2 21.4 2.2 43l5-.8a199.3 199.3 0 0 1-11.2-38.3c-.6-3.2-5.3-1.8-5 1.3a213 213 0 0 1 2 42.8l5-.6a378 378 0 0 0-10.3-39.2c-1-3.2-5-1.8-4.7 1.3q2.3 15.6 3.2 31.3l4.6-1.2a102.6 102.6 0 0 1-9.3-31c-.4-2.7-5.2-2-5 .7a40 40 0 0 1-1.5 16h4.8l-5.6-19.4a2.5 2.5 0 0 0-5 .6l-.4 21 5-.7-5.6-15.8a2.5 2.5 0 0 0-4.8 0L431 1028l5 .6a16 16 0 0 1 1.4-5.6l-5-.6.3 5.3c.2 3 5 3.2 5 0v-7.5c0-3.2-5-3.2-5 0zM469.3 1156l1.7-7h-4.8l5.3 15.5c.7 2 4.4 2.6 4.8 0l4-24.4h-4.8a104.6 104.6 0 0 1 5.2 21.6 2.5 2.5 0 0 0 5 0l3.4-27.4-4.8.6 6.8 26.3c.6 2.4 4.3 2.5 4.8 0a77 77 0 0 0 1.6-23.4l-5 .7 5 28c.7 3 4.7 2 5-.6a206.7 206.7 0 0 0 1.2-36.4c-.2-3-5-3.2-5 0a139.7 139.7 0 0 0 6.2 41c.8 3 4.5 2 5-.5a202 202 0 0 0 1-42l-5 .8 7.3 32.8c.7 2.8 5 2 5-.7l-1-46.3-4.8.7 4.7 34.5c.3 2.8 5 2 4.8-.7a187.8 187.8 0 0 1 1.6-41.6h-5l6 40c.4 3 4.7 2 4.8-.7l2.5-41.3h-5l5.3 46a2.5 2.5 0 0 0 5 0l4.5-48.3-5 .6a110.6 110.6 0 0 1 4 34.8h5l.5-47.5h-5a255.2 255.2 0 0 0 6.3 38c.7 2.8 5 2.2 5-.6l1-55.2-4.8.7 7.8 37.3c.6 2.8 5 2.2 5-.6l-.8-50.4-5 .7 8.4 43.6c.3 2.3 4.3 2.4 4.7 0a294.2 294.2 0 0 0 2.8-49.3h-5l4.7 38a2.5 2.5 0 0 0 5 0 290.8 290.8 0 0 0 .8-36.7c0-3.2-5-3.2-5 0a77.3 77.3 0 0 0 2.6 21.5c.7 2.8 5 2.2 5-.6q0-18.8-1-37.7c-.3-3.2-5.3-3.2-5 0q1 19 1 37.7l4.8-.6a72.3 72.3 0 0 1-2.4-20h-5a290.8 290.8 0 0 1-.8 36.6h5l-4.7-38c-.4-3.2-5-3.4-5 0a286.5 286.5 0 0 1-2.6 48h4.7l-8.3-43.7c-.5-2.8-5-2-5 .6l.8 50.4 5-.7-8-37.4c-.5-2.8-4.7-2-4.8.7l-1.2 55 5-.5a246.3 246.3 0 0 1-6.2-36.8c-.2-3.2-5-3.3-5 0l-.5 47.5c0 3.2 4.8 3.2 5 0a115 115 0 0 0-4-36.2c-1-3-4.7-2-5 .7l-4.5 48.3h5l-5.3-46.2a2.5 2.5 0 0 0-5 0l-2.4 41.5 5-.7-6-40c-.3-2.4-4.4-2.4-4.7 0a193.6 193.6 0 0 0-1.8 43l5-.6-4.8-34.4c-.4-2.8-5-2-5 .6l1 46.3 5-.6-7.3-32.8c-.6-2.7-5-2-5 .7a202 202 0 0 1-1 41.8l5-.7a135 135 0 0 1-6-39.6h-5a206.7 206.7 0 0 1-1.3 36.3l5-.7-5-28c-.6-2.8-5.2-2.2-5 .6a72.4 72.4 0 0 1-1.4 22.2h4.8l-6.8-26.3c-.8-3-4.6-2-5 .7l-3.3 27.4h5a110.6 110.6 0 0 0-5.4-22.8c-.7-2-4.4-2.7-4.8 0l-4 24.4h4.8l-5.3-15.6c-.7-2.3-4.2-2.5-4.8 0l-1.7 7c-.8 3 4 4.4 4.8 1.3z"/>
      <path fill="#FFFFFF" d="M429 1142c-1.8 5 1.3 10.6 6.7 11.2 5.2.6 9.6-4.6 9-9.6s-6.7-7.8-11.3-6c-6.7 2.5-2.8 11.3-.3 15.8a2.5 2.5 0 0 0 4.4 0 37.8 37.8 0 0 0 3.5-12.6l-5 .6 3.2 16c.5 2.7 4 2.3 4.8 0a64 64 0 0 0 3.4-21.4l-5 .7 7.5 27.3c.7 2.8 4.6 2 4.8-.7l1.4-24.6-5 .7 7.4 28c.7 2.4 4 2 4.8 0a54.3 54.3 0 0 0 2.7-23.8c-.2-3-5.2-3.2-5 0a87 87 0 0 0 9 31.2c1 2 4 1.4 4.6-.6a116 116 0 0 0 3.3-28l-5 .7 6.5 23.7c.7 2.5 4 2.2 5 0a51.7 51.7 0 0 0 2.6-22.7l-4.8.6a167 167 0 0 0 7.2 26c.8 2 4.3 2.6 5 0a114.4 114.4 0 0 0 2-23.7l-4.8.6a67.2 67.2 0 0 0 7 17.5c1 2 4 1.6 4.5-.5a96 96 0 0 0 2-23h-5a51.4 51.4 0 0 0 7 24c1 2 4 1.7 4.4-.5a103.6 103.6 0 0 0 1.6-22.5l-5 .7a42.5 42.5 0 0 0 6.7 16.7 2.5 2.5 0 0 0 4.6-1.4l1.5-27.5-4.7 1.3a57 57 0 0 1 7.3 21.2c.3 2.6 4.2 3.7 5 .7a167.8 167.8 0 0 0 4-36.8c0-3.2-5-3.2-5 0a53.2 53.2 0 0 0 6.6 28.6c1 1.8 4 1.6 4.5-.6a108.5 108.5 0 0 0 1.5-22.3h-5a53.6 53.6 0 0 0 6 20.7c1.2 2.4 4.4 1 4.6-1.3l3.6-35.3-5 .7 7 25c.5 2.4 4.2 2.5 4.7 0a210.8 210.8 0 0 0 5-35.8l-5 .5 4.7 20.2c.6 2.4 4.3 2.3 5 0a190.7 190.7 0 0 0 4.7-28.7l-4.2 1.8a14 14 0 0 1 3 9c0 3.2 4.8 3.2 5 0l1.5-34c0-3.3-5-3.2-5 0l-1.5 34h5a19.4 19.4 0 0 0-4.5-12.6c-1.5-2-4 0-4.3 1.8a181.8 181.8 0 0 1-4.7 27.3h4.8l-4.7-20c-.6-3-4.7-2.2-5 .5a202.8 202.8 0 0 1-4.7 34.6h5l-7-25c-.7-3-4.5-2-4.8.6l-3.6 35.3 4.6-1.2a47.2 47.2 0 0 1-5.2-18c-.2-3-5-3.2-5 0a102 102 0 0 1-1.4 21l4.6-.6a48 48 0 0 1-6-26h-5a161.5 161.5 0 0 1-3.8 35.5l5 .5a63.5 63.5 0 0 0-8-23.7c-1.3-2.2-4.5-1-4.6 1.3l-1.5 27.6 4.7-1.3a39.3 39.3 0 0 1-6-15.5c-.6-2.8-5-2-5 .7a97.4 97.4 0 0 1-1.4 21.2l4.6-.6a45.8 45.8 0 0 1-6-21.4c-.2-3.2-5.2-3.2-5 0a90 90 0 0 1-2 21.6l4.6-.6a62.4 62.4 0 0 1-6.4-16.4c-.7-2.7-5-2-5 .7a107.8 107.8 0 0 1-2 22.2h5a167 167 0 0 1-7.3-26c-.5-2.6-5-2-4.8.8a48.4 48.4 0 0 1-2.6 21.3h4.8l-6.5-23.7a2.5 2.5 0 0 0-5 .6 110.4 110.4 0 0 1-3.2 26.7l4.5-.7a80 80 0 0 1-8-28.7h-5a51 51 0 0 1-2.7 22.4h4.8l-7.3-28c-.6-2.8-4.6-2-4.8.7l-1.4 24.6 5-.7-7.4-27.3c-.8-2.7-5-2.2-5 .7a59.6 59.6 0 0 1-3.2 20.2h4.8l-3.2-16.2c-.5-3-4.6-2-5 .7a30.3 30.3 0 0 1-2.7 10h4.4c-1-1.6-5-10-.2-8.5 2.3.7 4 7-1.2 6-2.3-.4-3-3.2-2.3-5 1-3-3.8-4.4-4.8-1.3zM141.2 1127.7c3.2 0 3.2-5 0-5s-3.2 5 0 5zM139.3 901.7A66.6 66.6 0 0 0 201 888c2.5-2-1-5.6-3.4-3.5a61.5 61.5 0 0 1-57 12.4c-3-1-4.4 3.8-1.3 4.7z"/>
      <path fill="#FFFFFF" d="M133.6 903.3l-5.4 91.2c-1.8 30.3-4 60.8-2.3 91.2 1.2 22.7 4 47 16.3 66.7 12.5 20.3 34 29.2 57.4 28 42.5-2 83.4-36 89.2-79 1.3-10.3.4-21.2-4.4-30.7-5-10-14.7-15.7-24-21.5-11.6-7-19.8-17-24-30.2-1-4-1.4-9.2 4-10 2.6-.3 5.3.5 7.7 1 4.5.7 9.3 1.4 13.6-.8 8.2-4.2 10-15.6 7.7-23.8-3.7-12.6-16.5-19.8-23.5-30.3-8.3-12.3-12.6-27.2-20-40a202.6 202.6 0 0 0-26.4-36c-2.2-2.3-5.8 1.3-3.6 3.7a196.3 196.3 0 0 1 23.8 31.7c6.5 10.8 11 22.3 16.5 33.6 5 10.8 12.6 18 20.5 26.7 6.5 7 13.2 19.4 5.2 28.2-7 7.5-18-2-26.3 2.4-9.4 5.2-3.4 17.3 0 24.3 5 10.3 11.7 17.4 21.4 23.5 10 6.2 20 12 24.4 23.5 7.7 20.5-1.2 44.6-13.6 61.3a94.5 94.5 0 0 1-52.2 35c-23 5.8-49.5 2.5-65-17-14-17.2-17.8-41-19.6-62.5-2.6-31.3-.3-62.8 1.5-94l5.6-96.2c.2-3.2-4.8-3.2-5 0zM546.4 151.4L642.2 267c1.8 2.2 5.3-.6 4-3l-70.3-124.2-4 3 81.3 90c2 2.2 5.3-.6 4-3L583.3 98l-4 3 102.4 120.5c2 2.2 5.2-.6 4-3l-59.7-115-4 3 40.7 49c1.7 2 4.6-.3 4.2-2.5a228.5 228.5 0 0 0-12.8-42l-4.2 2.5 28 33c1.7 2 4.8-.2 4.2-2.5a495 495 0 0 0-22-62.8l-4 3 36 38.2c1.8 2 4.6 0 4-2.4A546.5 546.5 0 0 0 669 28.2l-4.6 2A567 567 0 0 0 752 138.7c2.2 2 5-.5 4-3A750.6 750.6 0 0 0 695.4 23l-4 3 52.2 57.4c2 2 4.5-.2 4.2-2.4a152 152 0 0 0-12-41l-4.4 2.6 4.6 10c1.4 2.8 5.7.3 4.3-2.6l-4.6-10c-1.4-2.8-5.6-.3-4.3 2.6A147.7 147.7 0 0 1 743 82.3l4.2-2.4L695 22.4c-1.8-2-5.4.6-4 3a750.6 750.6 0 0 1 60.7 112.8l4-3a561.7 561.7 0 0 1-87-107.7c-1.5-2.3-5.7-.8-4.7 2a546.5 546.5 0 0 1 27.6 91.7l4.2-2.4-36-38.3c-2-2.2-5 .6-4 3a485.7 485.7 0 0 1 21.7 61.6l4-2.4-28-33c-1.4-2-5 0-4 2.3a228.5 228.5 0 0 1 12.6 42l4.3-2.4-40.7-49c-2-2.4-5.2.5-4 3l59.8 115 4-3L583 97.5c-2-2.2-5.3.7-4 3l74 131.8 4-3-81.5-90c-2-2.2-5.3.5-4 3l70.3 124 4-3L550 148c-2-2.5-5.6 1-3.5 3.6zM640.4 344.5l1.3-7.4-5-1.3-12 82c-.5 3.2 3.8 4.6 4.8 1.4a483.7 483.7 0 0 1 42.8-99.5l-4.5-2L638 448.2c-.7 3.3 3.8 4.4 5 1.5a860.8 860.8 0 0 1 44.3-98.7l-4.6-2-40.4 154c-1 3.2 4 4.5 4.8 1.4A386 386 0 0 1 700 394l-4.4-2-42 169c-.8 3.3 3.7 4.4 4.8 1.4l26.3-71.4 13-35.2c3.8-10.3 7.2-21.2 15.8-28.5l-4.2-2.4L671 591c-.6 2.7 3.4 4.7 4.6 2l54-123.2-4.6-1.2c-1.4 32.3-9.2 63.8-17 95-.8 2.7 3 4.4 4.4 2L747 506l-4.6-1.3a610.8 610.8 0 0 1-12 66.3l5 .7-1-13.4c-.2-3.2-5.2-3.2-5 0l1 13.4c0 2.6 4 3.5 4.8.6a622.8 622.8 0 0 0 12.2-67.6c.3-2.5-3.5-3.2-4.7-1.2L708 563l4.7 2c8-31.8 16-63.7 17.3-96.5 0-2.3-3.6-3.5-4.6-1.2l-54 123 4.4 2 38.3-166a2.5 2.5 0 0 0-4-2.5c-7.6 6.4-11.5 15.4-15 24.5-4.6 12.6-9 25-13.8 37.6l-27.6 75 4.8 1.4 42-169a2.5 2.5 0 0 0-4.5-2A390.4 390.4 0 0 0 642 502.8l4.8 1.2 40.6-154c.6-2.6-3.3-4.4-4.6-2a871.2 871.2 0 0 0-45 100l5 1.3L672.5 319c.6-2.8-3-4.6-4.6-2a489.8 489.8 0 0 0-43.3 100.8l4.8 1.3 12.2-82c.4-3-4.3-4.5-5-1.3l-1 7.4c-.7 3.3 4.2 4.6 4.7 1.5zM227.8 199.4l-25 57-12.2 28-6.3 14.4c-1.5 3.5-4.2 12-9.4 11l1.7 2.4c2.2-26 11-51 20.3-75.2l28.6-74.6c1-2.2-2-3.8-3.6-2.8-22 11.8-33.8 35.5-46.2 56l-47.7 79 4.7 1.2c2.5-29.7 17.6-58 29-85l36.5-87c.8-2-2-4-3.7-3-11.5 8.2-20 19.3-27.7 31-8.7 13.8-16.8 28-25.2 42l-54.2 90 2.8-1c-6.2-2.3 2-17.3 3-20.4l10.6-25.8L125 184l42.3-104.3c1.2-2.8-3-4-4.6-2l-104 141 4.7 2c18-64.2 64-116.5 80-181.4.5-2.2-2.6-4.5-4.3-2.4L42 155.4l4.2 1c-2-10.2 2.6-20 7-29l12-25.3 25-52.2c1.2-2.4-2-5.3-4-3l-63 71.3 4.3 2.4a218.6 218.6 0 0 1 39.8-86c1.7-2.3-2-5-4-3A573.8 573.8 0 0 0 19 87.4c-2 2.6 2.4 5 4.2 2.5A563.4 563.4 0 0 1 67 35l-4-3a222 222 0 0 0-40.3 87.4c-.5 2.2 2.4 4.4 4.2 2.4l63-71.3-4-3L58.2 105C54 114.5 49 123.8 45 133.3c-3.3 8-5.2 16-3.7 24.7a2.5 2.5 0 0 0 4.2 1l97.2-118.6-4.2-2.4c-16 65-62 117-80 181.2-.7 3 3 4 4.6 2l104-141-4.5-1.8-46.7 115.3L92.6 251c-3.2 7.8-8.2 16.4-9.3 25-.7 5 .5 9.7 5.6 11.6a2.5 2.5 0 0 0 2.7-1l52-87c8.4-13.7 16.4-27.5 24.8-41 7.7-12.6 16.3-24.8 28.5-33.4l-3.7-2.8-37.3 88.8c-11.4 27.2-25.8 55-28.4 84.6-.2 2.6 3.5 3.3 4.7 1.3l45.7-75.5c12.5-20.6 24.3-45.6 46.5-57.6l-3.7-3c-9.8 25.6-19.7 51-29.3 76.5-9.2 24.2-17.6 48.8-19.8 74.8a2.5 2.5 0 0 0 2 2.4c8.3 1.6 12-7 15-13.4L203 268l29-66c1.2-3-3-5.5-4.4-2.5zM160 376a83.3 83.3 0 0 0 .6 37.4l4.8-1.3-16.5-49.4a2.5 2.5 0 0 0-5 .7 539.6 539.6 0 0 0 5 91.2l4.7-2a591.8 591.8 0 0 1-31.5-87.8c-1-3.2-5.3-1.8-5 1.3l18 114.6 4.8-1.3a973 973 0 0 1-39.7-122c-.6-2.3-4.3-2.4-4.8 0-3.7 17.4-2.4 35 0 52.3s5 35 7.6 52.5l16 109.3 4.8-1.4-38.4-106c-10.8-30-21.2-61-42-85.7-1.7-2-4.5.3-4 2.4l38.2 227.5 4.6-2a726 726 0 0 1-51.5-168.5c-.5-3-4.6-2-5 .7-6 53.3 5.5 106.3 17 158l5-1.2L10 494c-1-2.5-5.2-2.4-5 .6A1011.4 1011.4 0 0 0 24.8 646l4.6-1.8c-9.5-20-16.8-41-24-62a2.5 2.5 0 0 0-5 .6 90 90 0 0 0 3.6 36c1 3 5.8 1.8 5-1.3a86.4 86.4 0 0 1-3.6-34.7l-5 .7C8 605 15.5 626.3 25 646.7c1.3 2.7 5 .7 4.6-2a1002.3 1002.3 0 0 1-19.7-150l-5 .5 37.8 101.3a2.5 2.5 0 0 0 4.8-1.3c-11.5-51.4-23-104-16.8-156.8l-5 .6a731 731 0 0 0 52 169.8c1.3 2.7 5 .6 4.6-2L44 379.4l-4 2.4c21 25 31 57 42 87.2l37 102.2a2.5 2.5 0 0 0 4.8-1.3l-15.3-105.3-7.6-52c-2.6-17.8-4.5-36-.7-54h-4.8a973 973 0 0 0 39.7 122 2.5 2.5 0 0 0 4.8-1.4l-17.8-114.6-5 1.3a600 600 0 0 0 32 89c1.4 3 5 .7 4.7-2a532 532 0 0 1-5-89.7l-5 .7 16.6 49.4c1 3 5.6 1.8 4.8-1.3a77.4 77.4 0 0 1-.7-34.6c.6-3-4.2-4.4-4.8-1.3zM285.5 123.7l12.3-22.6c1-2-1.3-5-3.5-3.4l-54 40.8 3.6 2.8c2-7.7 7-14.4 11.3-21l14.5-22.7L298.2 53a2.5 2.5 0 0 0-.4-3c-4.6-5.2-11.6-1.6-16.4 1.6a227.5 227.5 0 0 0-20.3 16c-13.7 11.6-27 24-43.6 32l3.8 2c-.3-7.5 4.2-13.4 9-19 4.5-5 9-10.2 13.4-15.7A215 215 0 0 0 266 31.2c1-1.8-.6-4.5-2.8-3.7-24.5 9.3-40.4 32-64 42.7l3.3 3.4Q221.3 46 242 19.4c1.5-2-.5-5.5-3-4l-39.5 25 3.7 3A71.7 71.7 0 0 1 221.5 16c2.4-2-1-5.6-3.5-3.4A77 77 0 0 0 198.4 42c-.8 2 2 3.8 3.6 2.7l39.4-25-3-3.8q-21 27-40.2 55c-1.5 2.4 1.4 4.5 3.4 3.5 23.4-10.5 39-33 63-42.2l-2.8-3.6A209.4 209.4 0 0 1 236 68.3c-8 9.7-20.3 19.4-19.8 33.2a2.5 2.5 0 0 0 3.7 2.2c13.3-6.4 24.8-15.7 36-25.3 5.8-5 11.4-10 17.4-14.7 3.4-2.8 16.5-15 21-10.2l-.5-3-29.6 46.2-14.4 22.6c-4.2 6.6-9 13-11 20.6-.4 1.8 2 4 3.8 2.7l54-40.8-3.3-3.5q-6 11.4-12.3 22.6c-1.6 3 2.7 5.5 4.3 2.6zM452.7 105.8l-27.5-30.5-3.6 3.5a205.2 205.2 0 0 0 50.2 33c1.8.8 4.6-.6 3.7-2.8a449 449 0 0 0-28.7-62l-4 3a301.6 301.6 0 0 0 81.5 67.4c1.7 1 4.5-.7 3.7-3Q505.6 57 478 1.3l-4.4 2.6 68.8 91.2a2.5 2.5 0 0 0 4.6-2 299.7 299.7 0 0 0-21.2-68l-4.3 2.5 8.7 14c1.6 2.7 6 .2 4.3-2.5l-8.7-14c-1.7-2.8-5.6-.4-4.3 2.5a294.5 294.5 0 0 1 20.7 67l4.5-2L478 1a2.5 2.5 0 0 0-4.4 2.6Q501 58.6 523 116l3.8-3a297.7 297.7 0 0 1-80.4-66.5c-2-2.3-5.3.6-4 3a440.5 440.5 0 0 1 28.3 60.8l3.6-2.8A200.8 200.8 0 0 1 425 75.3a2.5 2.5 0 0 0-3.4 3.5l27.6 30.5c2 2.4 5.7-1 3.5-3.5z"/>
      <path fill="#FFFFFF" d="M148.6 1137.3l18.7 17 3-4a94.7 94.7 0 0 1-25.3-22.8l-4 3 32 32 3-4a252.5 252.5 0 0 1-35.5-22l-2.5 4.4 33.4 18.5c2.5 1.4 5-2 3-4a360.3 360.3 0 0 1-32.7-37l-4 3 44 37 3-3.8c-10.6-5-17.6-15.5-25-24.2l-24.6-29.5c-2-2.5-5.4 1-3.4 3.5a227.8 227.8 0 0 0 61 54.5c2.5 1.6 4.8-2 3-4a566.6 566.6 0 0 0-62.3-61.3l-2.4 4.2c15.6 6.4 26 22 38.3 33a211.3 211.3 0 0 0 41.4 29l1.3-4.7c-9 0-15.3-8.4-20.8-14.4l-18.7-20.3c-12.5-13.8-24.8-28-36.3-42.6l-3.5 3.7a440 440 0 0 0 87.8 71.6c2.8 1.7 5-2.4 2.5-4.3-29.3-22-55.7-47.5-82-73l-3.6 3.6c26.7 24.2 54.7 48 89 61 2.2.8 4.2-2.7 2.3-4.2a423.4 423.4 0 0 0-56.5-40c-2.8-1.6-5.3 2.7-2.5 4.4a415.6 415.6 0 0 1 55.5 39l2.4-4c-33.2-12.8-60.6-36-86.6-59.8-2.4-2-6 1.3-3.5 3.5 26.6 25.7 53.4 51.4 83 73.7l2.5-4.3a434.8 434.8 0 0 1-86.8-71c-2.3-2.3-5.5 1.2-3.5 3.6 12.7 16.2 26.2 31.6 40 46.8 6.8 7.3 13.5 14.7 20.4 21.8 5.2 5.3 11.2 10 19 10 2.4 0 3.5-3.5 1.2-4.7A205.6 205.6 0 0 1 169 1124c-11.7-11-21.5-24.6-36.8-31-2.3-1-4.2 2.7-2.4 4.2a566.6 566.6 0 0 1 62.2 61.4l3-4a224 224 0 0 1-59.8-53.5l-3.6 3.6 26 31c7.2 8.6 14 18.5 24.6 23.5 2.3 1.2 5.3-2 3-3.8l-43.8-37.2c-2-1.7-5.7.6-4 3a369.4 369.4 0 0 0 33.6 38l3-3.8-33.5-18.7c-2.8-1.6-5 2.5-2.5 4.4a252.5 252.5 0 0 0 35.7 22c2.4 1 5-2 3-4l-32-32c-2-2-5.8.6-4 3a101.3 101.3 0 0 0 27 24.6c2.4 1.5 5.2-2 3-4l-18.7-17c-2.3-2-6 1.5-3.5 3.6z"/>
      <path fill="#FFFFFF" d="M144 1076a286 286 0 0 0 95.6 60.4c2.7 1 4.3-3.2 2-4.6a596.2 596.2 0 0 1-100-74l-3.7 3.4a753 753 0 0 0 112 74.5l2.4-4.4c-20-10.3-37.8-24-55-38.6-18.5-15.6-36.7-31.5-55-47.3-2.5-2-6 1.3-3.6 3.6a321.5 321.5 0 0 0 113 72.3c2.6 1 4.2-3 1.8-4.5a931.7 931.7 0 0 1-107.2-75.3c-2.5-2-6 1.4-3.6 3.6a325.6 325.6 0 0 0 109.6 66c2.6 1 4.5-3.4 2-4.6A639.3 639.3 0 0 1 137 1031l-3 3.8c43 27.5 86 55 134 72.7 2.7 1 4.5-3.3 2-4.6a917.2 917.2 0 0 1-124.6-75l-2.5 4.2a470.6 470.6 0 0 0 123.7 62c2.8 1 4-3 2-4.6a928.4 928.4 0 0 0-118.2-69.7c-3-1.5-5.3 2.5-2.5 4.2a867.6 867.6 0 0 0 125 65.6c3 1.2 5.5-2.7 2.6-4.3L149 1015.7c-2.7-1.6-5.2 2.7-2.4 4.3 34.2 19.5 68.6 38.8 106 51.7 2.5 1 4.4-3.4 1.8-4.6a608.5 608.5 0 0 1-111.6-68.3l-3 4a554.4 554.4 0 0 0 96 56.4c3 1.5 5.4-2.5 2.6-4.2a409.7 409.7 0 0 1-100-80.8l-3.5 3.5a301 301 0 0 0 94.8 63.3c2.6 1 4.4-3.2 2-4.5a320.6 320.6 0 0 1-86.7-67.5l-3.4 3.5a389.8 389.8 0 0 0 74 48.7 2.5 2.5 0 0 0 2.6-4.3 584.3 584.3 0 0 1-72-56.7l-3.5 3.6a300 300 0 0 0 81.3 47.8c3 1 4-3 2-4.6l-77.4-57.3-2.5 4.3 77.2 49.4c2.7 1.8 5-2.5 2.5-4.3a636 636 0 0 1-77.6-68.3l-3.5 3.5A292 292 0 0 0 227 991a2.5 2.5 0 0 0 2.5-4.4 547.8 547.8 0 0 1-62.8-51.2c-2.3-2.3-5.8 1.3-3.5 3.5a300 300 0 0 0 83 56c2.4 1 5.4-2 3-4q-35.4-30.4-73.5-57.5c-2.3-1.7-5 2-3 4a175.7 175.7 0 0 0 48.8 31.8c2.3 1 5.4-2 3-4l-54.8-43.6c-2.5-2-6 1.4-3.6 3.5a268.4 268.4 0 0 0 60.7 39.7 2.5 2.5 0 0 0 3-4 250.4 250.4 0 0 0-48-41.8c-2.2-1.6-5 2-3 4a157.5 157.5 0 0 0 39.6 25.5c2.5 1 5-1.8 3-4a435.3 435.3 0 0 0-36-34l-3 3.8 37.2 24c2.5 1.5 4.6-2 3-4a130.7 130.7 0 0 0-24-23.5c-2.3-1.7-5.2 2-3 4A101.4 101.4 0 0 0 220 930c2 1 5-1.2 3.3-3.4A85.2 85.2 0 0 0 198 904c-2.6-1.4-4.8 2-3 4a43.2 43.2 0 0 0 16 12 2.5 2.5 0 0 0 3-4 72.3 72.3 0 0 0-15.2-14l-2.6 4.2 10.5 6c1.3.8 3.5.2 3.7-1.5.4-2.4 0-4-1.6-6-1-1-8-5.3-7.5-6.3-1.7 2.7 2.6 5.2 4.4 2.5 2.5-4-3-7-6.3-5a4.5 4.5 0 0 0-1.8 5c.7 2.6 8.3 6.6 8 8.4l3.7-1.5-10.5-6c-3-1.7-5.2 2.4-2.5 4.2a67.8 67.8 0 0 1 14 13.3l3-4a40 40 0 0 1-14.8-11l-3 4a79 79 0 0 1 23.5 20.8l3.4-3.4a97 97 0 0 1-23.4-14.6l-3 4a126 126 0 0 1 23 22.6l3-4-37.3-23.8c-2.3-1.5-5.2 2-3 4a435.3 435.3 0 0 1 36.2 34l3-3.8a153.2 153.2 0 0 1-38.6-24.8l-3 4a245.3 245.3 0 0 1 46.8 41l3-4a263.6 263.6 0 0 1-59.5-39l-3.6 3.6 55 43.7 3-4a171.8 171.8 0 0 1-47.8-31l-3 3.8q37.6 26.7 72.6 56.7l3-4a296 296 0 0 1-82-55l-3.6 3.4a556.6 556.6 0 0 0 63.8 52l2.6-4.4a288 288 0 0 1-81.5-56c-2.2-2-5.6 1.3-3.4 3.7a643.7 643.7 0 0 0 78.6 69l2.5-4.4-77-49.4c-2.8-1.8-5 2.4-2.6 4.3l77.5 57.2 2-4.6a292.6 292.6 0 0 1-79.2-46.5c-2.5-2-6 1.5-3.6 3.7a592.6 592.6 0 0 0 73 57.4l2.6-4.2a384.3 384.3 0 0 1-73-48 2.5 2.5 0 0 0-3.7 3.7 324.7 324.7 0 0 0 87.6 68.2l2-4.6a294.6 294.6 0 0 1-92.7-62c-2.3-2.2-5.7 1.3-3.5 3.7a414 414 0 0 0 101 81.5l2.4-4.3a554.4 554.4 0 0 1-96-56.6c-2.2-1.7-5.3 2.2-3 4a614 614 0 0 0 112.6 69l2-4.5c-37-12.8-71-32-104.7-51.2l-2.6 4.3 126.5 70 2.5-4.4a867.6 867.6 0 0 1-125-65.6l-2.6 4.3a928.4 928.4 0 0 1 118.2 69.7l2-4.6a466 466 0 0 1-122.4-61.4c-2.7-2-5.2 2.4-2.6 4.3a917.2 917.2 0 0 0 124.6 75l2-4.6c-47.6-17.4-90.5-45-133-72-2.3-1.6-5.2 2-3 3.8a645 645 0 0 0 118.2 76.3l2-4.6a319.4 319.4 0 0 1-107.5-64.6l-3.5 3.6a940.7 940.7 0 0 0 108.3 76l2-4.6a315.6 315.6 0 0 1-110.8-71l-3.7 3.4c18.8 16.2 37.4 32.5 56.4 48.4 17 14.4 34.8 28 54.7 38.3 2.8 1.5 5.3-2.8 2.5-4.3a746 746 0 0 1-111-73.7c-2.5-2-6 1.3-3.6 3.5a602.5 602.5 0 0 0 101 75l2-4.7a279.6 279.6 0 0 1-93.5-59c-2.4-2.2-6 1.3-3.6 3.5z"/>
      <path fill="#FFFFFF" d="M174.5 1151.3a69.7 69.7 0 0 0 31 10.7c2 .2 3.2-3 1.7-4.3l-10-8.8-1.6 4.2 26 3.3c2.6.3 3-3.5 1.2-4.7a24.6 24.6 0 0 1-8-8l-3 3.7a66 66 0 0 0 23.2 4.3 2.5 2.5 0 0 0 1.8-4.3 214.3 214.3 0 0 0-21.5-20.7l-3 4a66.5 66.5 0 0 0 23.7 10.7c1.7.4 3.8-1.2 3-3a24.4 24.4 0 0 0-12.6-14c-3-1.2-5.4 3-2.6 4.5a85.7 85.7 0 0 0 30 9.6c1.7.2 3-2.4 2-3.8a111 111 0 0 0-16.2-17.6l-2.4 4.2a123.8 123.8 0 0 1 24.5 8.8c1.8.8 4.5-.6 3.7-3a58.5 58.5 0 0 0-23.8-29.3c-2.7-1.8-5.2 2.5-2.5 4.3a132.7 132.7 0 0 0 25 13c2 .8 3.8-2 2.8-3.7a83.3 83.3 0 0 0-22-24.7l-2.6 4.2 27.2 16.6c2 1.2 5-1.3 3.4-3.4a124.8 124.8 0 0 0-24.5-25.4l-3 4 32 18.6a2.5 2.5 0 0 0 3.5-3.4 80.5 80.5 0 0 0-28-27.8l-2.6 4.3 17.8 8.7c2.2 1 5-1 3.5-3.4a65.3 65.3 0 0 0-16.6-18l-2.6 4.4a80.8 80.8 0 0 0 14.5 7.6c1.7.7 3.5-1.4 3-3a23.4 23.4 0 0 0-9-12.3c-2.6-2-5 2.4-2.5 4.3a17.7 17.7 0 0 1 6.6 9.2l3.2-3a74.5 74.5 0 0 1-13.2-7c-2.8-2-5 2.4-2.6 4.3a58.7 58.7 0 0 1 14.6 16l3.4-3.4-17.8-8.6c-2.8-1.4-5.3 2.6-2.5 4.3a75 75 0 0 1 26.4 26l3.4-3.5-32-18.7c-2.5-1.3-5.4 2.2-3 4a120.5 120.5 0 0 1 23.6 24.4l3.4-3.5-27.2-16.6c-2.8-1.8-5 2.3-2.5 4.2a77.2 77.2 0 0 1 20.4 23l2.8-3.8a126.7 126.7 0 0 1-23.7-12.5l-2.5 4.3a53 53 0 0 1 21.5 26.4l3.6-2.8a130 130 0 0 0-25.5-9.4c-2.3-.6-4.4 2.4-2.5 4.2a105.3 105.3 0 0 1 15.5 16.5l2-3.7a78.8 78.8 0 0 1-27.2-9l-2.5 4.4a19.6 19.6 0 0 1 10.4 10.7l3-3a63 63 0 0 1-22.4-10.3c-2.3-1.6-5.3 2-3 4a214.3 214.3 0 0 1 21.5 20.7l1.7-4.2a62 62 0 0 1-21.8-4c-2-1-4 1.8-2.8 3.6a30.5 30.5 0 0 0 10 9.7l1.2-4.5-26-3.4c-2.2 0-3.3 3-1.8 4.4l10 8.8 1.6-4.2a64.3 64.3 0 0 1-28.4-10c-2.7-1.7-5.2 2.6-2.5 4.3zM144 959l7.2 7a2.5 2.5 0 0 0 4-3l-14.3-25.5-4 3 20.5 19.8a2.5 2.5 0 0 0 4-3 288.3 288.3 0 0 0-23.5-38l-4 3L154 943c1.8 1.8 4.7-.2 4.2-2.5a41 41 0 0 0-12.8-22l-3.5 3.5q12.4 10 25.6 19c2.3 1.5 4.4-1.4 3.4-3.5A92.4 92.4 0 0 0 152 910c-2.2-2.3-5.4 1.2-3.4 3.6a64.6 64.6 0 0 0 21.2 17.3c1.8.8 4.6-.8 3.7-3a70.5 70.5 0 0 0-11.8-20l-3.5 3.6a113.6 113.6 0 0 0 18.2 15.6c1.8 1.3 4.3-.8 3.7-2.8a49.6 49.6 0 0 0-13.7-22.2c-2-1.8-5.7.6-4 3a54 54 0 0 0 17.3 15.2 2.5 2.5 0 0 0 3.7-3 39.7 39.7 0 0 0-8-15.4l-3.6 3.5 15.8 12.4c1.8 1.3 5 0 4.2-2.5a56.2 56.2 0 0 0-9-17l-3.4 3.3a59.6 59.6 0 0 0 17.3 9.2 2.5 2.5 0 0 0 3.2-2.4 22.7 22.7 0 0 0-3-11.6l-3.5 3.4 14 8c3 1.6 5.4-2.7 2.6-4.3l-14.2-8a2.5 2.5 0 0 0-3.4 3.5 17.4 17.4 0 0 1 2.4 9l3-2.3a55.7 55.7 0 0 1-16-8.7c-2-1.5-5 1.4-3.4 3.4a52.2 52.2 0 0 1 8.4 15.8l4.2-2.4-15.8-12.4a2.5 2.5 0 0 0-3.5 3.5 33.8 33.8 0 0 1 6.8 13.4l3.7-3a48.2 48.2 0 0 1-15.5-13.3l-4 3a44.5 44.5 0 0 1 12.6 20l3.6-2.8a107.5 107.5 0 0 1-17.3-15c-2.2-2.3-5.5 1.2-3.5 3.6a63 63 0 0 1 10.5 17.7l3.7-2.8A61.3 61.3 0 0 1 152 910l-3.4 3.6a88.6 88.6 0 0 1 17.8 26.4l3.4-3.4q-12.7-8.5-24.6-18.2c-2.4-2-6 1.4-3.5 3.6a36.3 36.3 0 0 1 11.4 19.8l4.3-2.4-19.7-20.5c-2-2-5.6.5-4 3a288.3 288.3 0 0 1 23.4 37.7l4-3-20.5-19.8a2.5 2.5 0 0 0-4 3l14.3 25.5 4-3-7.4-7c-2.3-2.3-5.8 1.2-3.5 3.5zM154 1058a130.8 130.8 0 0 0-19.7-29.2l-3.5 3.5 18.7 18.7c2 2 5-.6 4-3a160.5 160.5 0 0 0-15.3-25.7l-3.5 3.4 20 15c2.2 1.6 4.7-1.4 3.5-3.4l-22.6-37.3-4 3 30.3 34.5c2 2.2 5-.6 4-3a293 293 0 0 0-29.3-47.7l-4 3a377.4 377.4 0 0 0 33.4 36.3c1.8 1.7 5 0 4.3-2.4a152.4 152.4 0 0 0-20-39.3l-4 3 19 22.3c1.7 2 4.8 0 4.2-2.4a54.4 54.4 0 0 0-14.5-24.7c-2.3-2.3-5.8 1.3-3.5 3.5a49 49 0 0 1 13.2 22.5l4.2-2.4-19-22.2c-2-2.2-5.7.7-4 3a147.8 147.8 0 0 1 19.5 38.2l4.2-2.4a377.4 377.4 0 0 1-33.4-36.3c-1.8-2.2-5.7.7-4 3a293 293 0 0 1 29.2 47.7l4-3-30.3-34.6c-2-2-5.4.6-4 3l22.7 37.4 3.3-3.4-20-15c-2-1.5-5 1.4-3.5 3.4a160.5 160.5 0 0 1 15.3 25.7l4-3-18.7-18.8c-2.3-2.3-5.6 1-3.5 3.5a126 126 0 0 1 18.8 28.2c1.4 3 5.7.4 4.3-2.5z"/>
      <path fill="#FFFFFF" d="M169 1162.5a25.2 25.2 0 0 0 8.6 9.2c2.3 1.6 4.4-1.3 3.4-3.4l-2.4-5.6-4 3 9.4 8c1.7 1.6 5 .2 4.2-2.3a34.8 34.8 0 0 0-6-10l-3 3.8 14.7 10c1.3 1 4-.3 3.6-2.2a18.8 18.8 0 0 0-7.7-13.3c-2.3-1.7-5.2 2-3 4a75.4 75.4 0 0 0 16.8 11.3 2.5 2.5 0 0 0 3.6-2.8 20.5 20.5 0 0 0-6.8-11.3l-3 3.8 14.6 7.2a2.5 2.5 0 0 0 3.7-2.8 18.8 18.8 0 0 0-10-14c-2.3-1.3-5 2-3 4a35.3 35.3 0 0 0 20.5 8.8c2.2.2 3-2.3 2.2-3.8a22.8 22.8 0 0 0-9-10.6l-2.6 4.3 22.8 12a2.5 2.5 0 0 0 3.7-2.8 29.7 29.7 0 0 0-15-20.7l-2.4 4.3 17.7 7.5c1.8.8 4.5-.5 3.7-2.8a35 35 0 0 0-10.6-15.4l-3.5 3.7a43.3 43.3 0 0 0 22.3 9.5c2 .2 3-2.3 2.2-3.8a160.4 160.4 0 0 0-14-20.6l-3.5 3.6a45 45 0 0 0 19.3 13.6c2.2.8 4-2 3-3.7L249 1124l-4 3a64.5 64.5 0 0 0 16.4 12.3c2 1 4-.7 3.6-2.8a38.3 38.3 0 0 0-11.5-22.3l-3 4 13.3 8.2c1.8 1 4.4-.7 3.7-2.8a221.7 221.7 0 0 0-9.7-23.4l-4 3a92 92 0 0 0 17 15.5c1.8 1.2 4.4-1 3.7-2.8a79.7 79.7 0 0 0-18.8-31c-2-2-5.7.5-4 3a36.7 36.7 0 0 0 17 13.4c2 .7 3.7-1.4 3.2-3a38 38 0 0 0-10-17l-3.6 3.7a58.8 58.8 0 0 0 16.2 11.3c1.8.8 4.6-.6 3.7-2.8a90 90 0 0 0-11.6-20.8l-4 3 16 13c2 1.7 5.3-.4 3.8-3a144 144 0 0 0-18-24.5l-3 4 8.8 6.5c2.6 2 5-2.5 2.5-4.3l-8.8-6.5c-2.3-2-4.8 1.8-3 3.8a138 138 0 0 1 17.4 23.4l4-3-16-13c-2-1.6-5.8.6-4 3a85.5 85.5 0 0 1 11 19.7l3.8-3a54.8 54.8 0 0 1-15.2-10.4c-2.3-2.3-5.8 1.2-3.5 3.5a32.8 32.8 0 0 1 8.7 14.7l3-3a30.8 30.8 0 0 1-14-11.4l-4 3A74 74 0 0 1 270 1117l3.6-2.7a87 87 0 0 1-16-14.7c-2-2.2-5 .7-4 3a210.3 210.3 0 0 1 9.3 22.2l3.6-2.8-13.3-8.3c-2.4-1.5-5 2-3 4a34 34 0 0 1 10.2 20l3.7-2.8a60.2 60.2 0 0 1-15.3-11.6c-2-2-5.4.5-4 3l10.3 18.3 2.8-3.7a40.2 40.2 0 0 1-17-12.3c-2-2.5-5.6 1-3.6 3.5a152.4 152.4 0 0 1 13.2 19.6l2-3.8a37 37 0 0 1-18.7-8c-2.6-2-6 1.5-3.7 3.6a30.2 30.2 0 0 1 9.3 13l3.7-2.7-17.6-7.6c-3-1.2-5.4 2.7-2.5 4.3a25 25 0 0 1 12.5 17.7l3.7-2.8-22.8-12a2.5 2.5 0 0 0-2.5 4.2 18.4 18.4 0 0 1 7.4 8.8l2.2-3.8a29.5 29.5 0 0 1-17-7.3l-3 4a14.2 14.2 0 0 1 7.5 11l3.8-3-14.6-7c-2.4-1.3-5.3 2-3 3.8a16 16 0 0 1 5.6 9l3.7-2.7a70.5 70.5 0 0 1-16-10.6l-3 4a13 13 0 0 1 5.3 9l3.7-2.2-14.5-10c-2.5-1.7-4.8 2-3 4a27.2 27.2 0 0 1 4.6 8l4-2.6-9.2-8a2.5 2.5 0 0 0-4 3l2.5 5.5 3.3-3.4a20 20 0 0 1-6.7-7.5c-1.5-2.8-5.8-.3-4.3 2.5z"/>
    </g>
  </g>
</svg>
