<svg xmlns="http://www.w3.org/2000/svg" viewBox="0 0 525 600"><defs><style>.cls-1,.cls-2{fill:none;}.cls-1{stroke:#fff;stroke-linecap:round;stroke-linejoin:round;stroke-width:2px;}</style></defs><title>piotrek2</title><g id="Warstwa_2" data-name="Warstwa 2"><g id="Warstwa_1-2" data-name="Warstwa 1"><g id="Warstwa_2-2" data-name="Warstwa 2"><g id="Warstwa_1-2-2" data-name="Warstwa 1-2"><path class="cls-1" d="M34.43,190a6.44,6.44,0,0,0-7.83-.44c-2.08,1.49-3,4.08-3.76,6.54-1.19,4.09-1.75,9.2,1.49,12,3.66,3.11,9.25.91,13.31-1.66-4.34.13-6.81,5-8,9.13s-2.1,8.65-.33,12.54c2.32,5.08,9.1,7.31,14.24,5.14s8.25-8,7.83-13.59"/><path class="cls-1" d="M52.6,204.27l9.71-7.77"/><path class="cls-1" d="M45.62,197.26a42,42,0,0,0,15-14.36"/><path class="cls-1" d="M70.72,170.35a55.66,55.66,0,0,0,11,19.76l-6.65-13.69c-.87-1.79-1.44-4.5.39-5.29,1.34-.58,2.77.52,3.8,1.56a115.27,115.27,0,0,1,9.22,10.58,141.56,141.56,0,0,1-6.37-18.7c1.88-1.49,4.45.64,5.79,2.64a73.91,73.91,0,0,1,7.47,14.35l.73-2.79"/><path class="cls-1" d="M102.17,158.72c-.59-1.75-3.34-1-4.48.49a9.19,9.19,0,0,0,1.51,12.38c3,2.33,7.79,2.29,10.19-.61s.93-8.27-2.77-9"/><path class="cls-1" d="M97.59,132.74a5.45,5.45,0,0,1,2.74-7.18,2.8,2.8,0,0,1,2.8.2,3.46,3.46,0,0,1,1,1.87,23.16,23.16,0,0,1-1,14.42,109.45,109.45,0,0,0,17.28-14.73"/><path class="cls-1" d="M347.64,64.21a33.28,33.28,0,0,0,14.44-5c3,13.84,6.15,28.06,14.16,39.73l-11.16-61a2.66,2.66,0,0,1,.16-2,2.65,2.65,0,0,1,1.67-.85L424,21.9a43.44,43.44,0,0,0,1.76,13.65c.18.61.29,1.43-.25,1.76s-1-1-.39-.81"/><path class="cls-1" d="M343.8,156.84c-3.34,3.68-6.84,7.74-7.3,12.69s3.92,10.53,8.72,9.23a9.39,9.39,0,0,0,4.85-3.87,23.52,23.52,0,0,0,4.39-12.37,6.27,6.27,0,0,0-.77-3.94c-1.39-2-4.42-2.08-6.72-1.23-6.53,2.41-9.85,9.5-12.32,16a6.39,6.39,0,0,0-.51,4.31c1.17,3.05,5.74,2.34,8.54.66a33.82,33.82,0,0,0,13.44-15.16l-2,13.4c-.3,2-.37,4.46,1.38,5.42,1.43.79,3.22,0,4.56-.94A21.39,21.39,0,0,0,367,172.9"/><path class="cls-1" d="M380.39,158.32l-5.33,18.59"/><path class="cls-1" d="M372.54,164.77A27.15,27.15,0,0,0,383.47,167"/><path class="cls-1" d="M385.74,183.91a150.19,150.19,0,0,0,20-29.24A45.91,45.91,0,0,0,393.5,185.1c0,2.18.31,4.73,2.18,5.84,2.2,1.3,5-.23,6.85-2a28.46,28.46,0,0,0,8-12.93,16.45,16.45,0,0,0-18.06,8.66"/><path class="cls-1" d="M419.11,184.26a51.13,51.13,0,0,0,14.87,4"/><path class="cls-1" d="M417.72,174.07a108.26,108.26,0,0,0,21.1,8.81l-2.93-.2"/><path class="cls-1" d="M467.42,186.16a14.27,14.27,0,0,0-25.8,5.44,7.92,7.92,0,0,0,.4,4.87c2.14,4.45,8.55,3.95,13.34,2.75a3.31,3.31,0,0,0,2.12-1.16c.44-.7,0-1.91-.84-1.78"/><path class="cls-1" d="M40.34,311.86A513.47,513.47,0,0,0,55.8,365.32,674.34,674.34,0,0,1,52.71,274a743.84,743.84,0,0,0,24.86,71.56l-6.12-93.73a396.09,396.09,0,0,0,19.79,66.46l-.91-40.94a20.06,20.06,0,0,0,2,9.72l2-10,4.44,7.4a58.78,58.78,0,0,0,1.31-14.8l5.63,17.4q-.45-34.66.76-69.32a329.41,329.41,0,0,0,13.72,49.58c1.33,3.67-2.12,8.14-6,7.77s-6.45-5.39-4.46-8.75,7.63-3.53,9.82-.3"/><path class="cls-1" d="M234.84,57.86a17,17,0,0,0-2.22-12.64c-1.82-2.88-4.5-5.17-6.15-8.15-4.11-7.42,0-17.86,7.83-21.19s17.65.31,22.17,7.49c1.75,2.78,2.72,6.57.8,9.23-2,2.82-6.29,3-8.73,5.51-4.26,4.34-.36,11.89-2.36,17.64-.17.49-.53,1.06-1.05,1s-.21-1.14.15-.77"/><path class="cls-1" d="M462.34,255c3.89-6.11,1.79-15.23-4.38-19s-15.26-1.53-18.94,4.71c-3.09,5.23-2.34,12,.27,17.51s6.82,10,10.77,14.64a196.26,196.26,0,0,1,14,18.56,236.06,236.06,0,0,0,20.43-29.29c1.81-3.06,3.58-6.28,4-9.81s-1-7.49-4.16-9.13c-4.73-2.46-10.21,1.19-14.28,4.64l-7.56,6.42"/><path class="cls-1" d="M15.43,134.05l7.28-14.72L24,137"/><path class="cls-1" d="M31.56,117.5a51.48,51.48,0,0,0-.38,13.63,3.07,3.07,0,0,0,1.07,2.42c1.28.79,2.81-.53,3.69-1.75,1.52-2.13,2.92-4.48,3.13-7.09s-1.13-5.5-3.62-6.32-5.66,1.45-5.08,4"/><path class="cls-1" d="M44.62,125.36a37.48,37.48,0,0,1,2-11.46l1.73,15.36"/><path class="cls-1" d="M56.66,123.48a18.51,18.51,0,0,1,3-12.38l1.66,14.25"/><path class="cls-1" d="M71.05,105.39a12.93,12.93,0,0,0-3.3,5.21c-.5,2,.25,4.5,2.25,5.22,2.68,1,5.22-1.77,6.47-4.34,1.59-3.28,1.58-8.62-2-9.11-2-.27-3.8,1.42-4.39,3.33a12.85,12.85,0,0,0,.09,5.94"/><path class="cls-1" d="M88.87,108.85A52.91,52.91,0,0,1,91.36,95.1a10.08,10.08,0,0,1,1.27,12.1"/><path class="cls-1" d="M101.82,106A23.87,23.87,0,0,1,104,93.87l2.74,13.06"/><path class="cls-1" d="M118.07,91.21a17.53,17.53,0,0,0-1.59,10.62c.18,1.05.58,2.24,1.58,2.6,1.33.48,2.59-.78,3.44-1.91,2.11-2.81,4-7.36,1.07-9.3-1.72-1.15-4.19-.35-5.56,1.21a13.05,13.05,0,0,0-2.4,5.66"/><path class="cls-1" d="M137.76,91.34a10,10,0,0,0-.88,8.73c2.47-.32,5.16-.86,6.69-2.83s.61-5.68-1.88-5.72A4.42,4.42,0,0,0,139,92.75a15.53,15.53,0,0,0-5,7.38"/><path class="cls-1" d="M157.12,92.21a12.91,12.91,0,0,0-4.82,10.52c.05,1.2.49,2.63,1.66,2.9a2.9,2.9,0,0,0,2.24-.74,17.41,17.41,0,0,0,5.95-7.63,12.27,12.27,0,0,0-10.77-1.17"/><path class="cls-1" d="M10.78,26.63a34.41,34.41,0,0,1,5.67-11.31,33.31,33.31,0,0,1,4.86,17.81"/><path class="cls-1" d="M27.26,23.42A14.55,14.55,0,0,1,32.84,13.2a34.35,34.35,0,0,0,1.9,14.16"/><path class="cls-1" d="M42.64,13.64a7,7,0,0,0,.6,7.89c1.88,2.1,5.56,2.44,7.52.42s1.19-6.06-1.5-6.89-5.64,2.67-4.11,5"/><path class="cls-1" d="M65,13.64c-3.52,1.8-3.25,7.94.41,9.43s8.13-2.74,6.86-6.48A7,7,0,0,0,62,18.53"/><path class="cls-1" d="M84.48,21.47a12.2,12.2,0,0,1,3.23-8.2l2.32,17"/><path class="cls-1" d="M100.13,17.73c-2.55,3.09-1.12,8.72,2.77,9.67s7.73-4.39,5.21-7.49a4.63,4.63,0,0,0-7.41,1"/><path class="cls-1" d="M117.43,17.65a6.73,6.73,0,0,0-2.18,7.76c1.19,2.64,4.77,4,7.27,2.56s2.82-5.68.39-7.26c-3.46-2.26-7.69,1.82-9.12,5.7"/><path class="cls-1" d="M27.2,97.19a6.41,6.41,0,0,1,2-5.62,112.45,112.45,0,0,1,2.46,12.84L30,102.07"/><path class="cls-1" d="M41.88,89.54a9.12,9.12,0,0,0,1.52,10.82c2.54-2.17,5.25-4.64,5.7-7.95s-3-7.05-6-5.49a3.59,3.59,0,0,0-1.25,4.92q.09.15.19.29"/><path class="cls-1" d="M58.18,81.78c-2.43,2.33-.69,7.31,2.67,7.57s5.85-4.44,3.7-7-7.29-1-7.51,2.39"/><path class="cls-1" d="M74.78,76.11c-2.17,2.39-1.89,6.73.83,8.46s7.1-.36,7.06-3.59-5.15-5-6.88-2.25c-.49.77-.83,1.85-1.73,2s-.78-1.84-.12-1.2"/><path class="cls-1" d="M97.11,80.7a21.35,21.35,0,0,1,2.58-8.35,27.44,27.44,0,0,0,1.71,9.4l-2.4.88"/><path class="cls-1" d="M113.22,79.61a48.61,48.61,0,0,1,4-9.81L121,84.67"/><path class="cls-1" d="M130.06,72.93a9,9,0,0,1,1.79-4.59l3.89,16.28"/><path class="cls-1" d="M143.35,77.3l3.76-8.91a30.74,30.74,0,0,1,4.71,14.29"/><path class="cls-1" d="M476.54,514.48c2-2.42,5.85-2.74,8.57-1.19A10.74,10.74,0,0,1,490,521c1.46,9-6.79,18-15.86,17.85s-17-8.85-16.64-17.95c.57-16.72,22-24.52,28.57-39.93,3.66-8.65,2.09-18.52.45-27.77-.37-2.07-.92-4.41-2.76-5.42-2-1.12-4.73.11-6,2.06s-1.49,4.38-1.65,6.71c-3.07,44.77,1.7,89.77-.47,134.6-.06,1.19-.25,2.59-1.29,3.16a2.91,2.91,0,0,1-2.41-.08c-6.2-2.45-6.78-10.85-6.33-17.49"/><path class="cls-1" d="M14.08,75.95a7.85,7.85,0,0,1,2.17-6.88,34.16,34.16,0,0,0,3.06,10.7"/><path class="cls-1" d="M25.69,70.1a3.41,3.41,0,0,1,1.92-3.57L30.7,76.91"/><path class="cls-1" d="M39,66.58a3.6,3.6,0,1,0,2.51,6.69,5.11,5.11,0,0,0,2.14-2.52c1.12-2.51.69-5.95-1.68-7.34s-6.16,1-5.25,3.56"/><path class="cls-1" d="M50.67,64.28c-1.68.73-1.36,3.58.3,4.37s3.72-.14,4.82-1.61a12.1,12.1,0,0,0,1.79-5.15,4.12,4.12,0,0,0,0-2.11c-.56-1.58-2.9-1.82-4.27-.84s-2,2.67-2.54,4.26"/><path class="cls-1" d="M62.76,63.53A22.2,22.2,0,0,1,70,57.35L68.91,72.93"/><path class="cls-1" d="M74.81,66.17a19.51,19.51,0,0,1,7.57-9.36,46.83,46.83,0,0,1,1,15.15"/><path class="cls-1" d="M91.49,66.11A13.06,13.06,0,0,1,97.89,56,52.9,52.9,0,0,0,99.75,66.2"/><path class="cls-1" d="M108.16,59.65a8,8,0,0,1,3.8-6.07,32.27,32.27,0,0,1,.54,10.6"/><path class="cls-1" d="M125,61.16l5.83-11.49a94.53,94.53,0,0,1,2.66,11.69"/><path class="cls-1" d="M15.73,50.07c-2.2,1.26-1.83,5,.39,6.24s5.23,0,6.53-2.13c1.15-1.92,1-4.76-.85-6s-5,.19-4.73,2.41"/><path class="cls-1" d="M32.23,46.35c-2.48.87-1.68,5.22.88,5.79s5-1.8,5.52-4.38a5.09,5.09,0,0,0-1.76-5.06c-1.55-1.08-4.1-.61-4.8,1.14"/><path class="cls-1" d="M47.55,41a3.94,3.94,0,0,1,4.79,4.16,3.75,3.75,0,1,1-5.56-3.83"/><path class="cls-1" d="M62.06,39.89a7.52,7.52,0,0,0-2.45,5c3.61,1.69,9,2.8,10.65-.83,1.23-2.7-1.43-6-4.39-6.12s-5.6,2.14-6.88,4.81"/><path class="cls-1" d="M84.55,37.22c-2.85,0-4.92,3.63-3.6,6.15a4.76,4.76,0,0,0,7.28,1A5.2,5.2,0,0,0,87.69,37l-.2-.17a5.73,5.73,0,0,0-7.62,1.23"/><path class="cls-1" d="M101.95,39.43c-1.23-.19-2.22,1.34-1.84,2.53A3.4,3.4,0,0,0,103,44c2.62.36,5.47-1.66,5.55-4.3s-3.23-4.86-5.47-3.45"/><path class="cls-1" d="M117.61,40.18c-2.5,1.48-1,5.9,1.88,6.5s5.62-1.41,7.33-3.75a8.5,8.5,0,0,0-9.51-4.49"/><path class="cls-1" d="M23.29,430.47l9.09-1,17.21,46.21v-67.5c0-1.65,0-3.43,1-4.74a7.61,7.61,0,0,1,3.19-2.09,571,571,0,0,1,55-20.59l1.19,5.72"/><path class="cls-1" d="M82.39,433.84c-3.86-.72-7.84,1.79-9.61,5.29s-1.61,7.73-.4,11.46c1.47,4.52,5.13,8.93,9.89,9,5.35,0,9.27-5.73,9.22-11.09s-2.93-10.23-5.82-14.73a29.18,29.18,0,0,0,13.14,19,2.09,2.09,0,0,0,1.47.44A2,2,0,0,0,101.5,452a15.7,15.7,0,0,0,1.26-10"/><path class="cls-1" d="M18.76,407.82a70.93,70.93,0,0,0-.32,11.44,10.07,10.07,0,0,1,2.87-8.58,2.76,2.76,0,0,1,2.25-1c1.35.24,1.76,1.94,1.87,3.31l.55,6.43"/><path class="cls-1" d="M10.86,550.61a87.94,87.94,0,0,0,6,32.85"/><path class="cls-1" d="M18.74,544.91q2.46,16.54,6.38,32.81c.13.55.39,1.21,1,1.26s.59-1.13.08-.87"/><path class="cls-1" d="M9.82,569.34a67.93,67.93,0,0,0,11.47-8.07"/><path class="cls-1" d="M32,560.75a8.35,8.35,0,0,0,7.69-4.36"/><path class="cls-1" d="M26.27,553.07A42.48,42.48,0,0,0,38,549"/><path class="cls-1" d="M43.27,531.09A44.27,44.27,0,0,0,53.41,566.3a4.36,4.36,0,0,0,3,1.87c1.78,0,2.88-1.92,3.42-3.62,3.58-11.21.5-23.39-3.32-34.52-.17-.5-.47-1.09-1-1.09s-.46,1.09,0,.83"/><path class="cls-1" d="M69.5,533.07a20.74,20.74,0,0,0,2.37,14.6"/><path class="cls-1" d="M65,542.83a2.63,2.63,0,0,1-2.61.94L74.72,540"/><path class="cls-1" d="M73.19,519.66a199.16,199.16,0,0,0,9.23,32"/><path class="cls-1" d="M74.44,519.85A10.36,10.36,0,0,1,82,521.29a6.27,6.27,0,0,1,2.54,6.88c-.87,2.47-4.18,3.92-6.36,2.47"/><path class="cls-1" d="M87.55,516.64a50.78,50.78,0,0,0,7.25,25.13A290.61,290.61,0,0,0,98,500.13"/><path class="cls-1" d="M474.91,18.68,454.44,50.53l38.74.11"/><path class="cls-1" d="M475.56,17.33c-1.18,1.53-.45,3.73.34,5.49a276.8,276.8,0,0,0,15,28.73l.48-3.83"/><path class="cls-1" d="M380.71,465.19a21.93,21.93,0,0,1,3.16-9.86,47.48,47.48,0,0,1,7.41,11.58,38.58,38.58,0,0,1,4.62-10.46l5.75,7.43a10.11,10.11,0,0,1,2.17-6.34L408.7,464a33.94,33.94,0,0,1,5.61-9.14l5.49,7.09,5.36-6.19c.76-.16,1.29.76,1.39,1.53s.13,1.69.78,2.11,1.64-.77.91-1"/><path class="cls-1" d="M131.81,438.89a19.48,19.48,0,0,1,4.11-6.38A32.53,32.53,0,0,0,137.16,443a64,64,0,0,0,7.83-8.57,27.44,27.44,0,0,0,2.6,11.09l6.57-7.86,1.32,7.19,4.93-5,3.76,7.81a10.41,10.41,0,0,0,4.18-5.73l1.1,8.71a3.17,3.17,0,0,0,3-1.9"/><path class="cls-1" d="M129.78,462.25c.17-.58-1.06-.44-1,.16s.75.91,1.33,1.08a139.94,139.94,0,0,0,47.72,5.5l-5,.08"/><path class="cls-1" d="M127.81,476.61a165.63,165.63,0,0,0,46.11,2.83c.43,0,1-.16,1-.58s-.84-.42-.61-.06"/><path class="cls-1" d="M287,165.5a5.24,5.24,0,0,0-5.87-3.86c-4.51.85-5.53,7.54-2.7,11.16s7.67,4.86,12.15,5.89a25,25,0,0,0,6.2-10.95c.62-2.32.69-5.25-1.26-6.65-1.67-1.19-4.12-.6-5.64.79a13.62,13.62,0,0,0-3,5.29"/><path class="cls-1" d="M216.14,181.87c.6.9-1.41,1-2.1.12a24.73,24.73,0,0,1-4-6.94,4.24,4.24,0,0,1-.25-3.17c.67-1.5,2.8-1.81,4.27-1.07a9.2,9.2,0,0,1,3.28,3.58c-.83-2.65,3.13-4.89,5.44-3.34s2.51,5.06,1.18,7.51-3.74,4.07-6.07,5.59"/><path class="cls-1" d="M113.51,579.4a58.88,58.88,0,0,0,22.41-2.48"/><path class="cls-1" d="M115.78,561.78c-.1.77.87,1.19,1.64,1.32a76,76,0,0,0,31.85-1.32l-2.59-1.63"/><path class="cls-1" d="M387.31,592.11l2.9-6.28a21.77,21.77,0,0,0,2.26,9.19l5.28-8.33,3.46,7.42a8.91,8.91,0,0,1,3-6.58,22.45,22.45,0,0,0,2.5,5.5,18.33,18.33,0,0,0,4.59-4.33l2.35,6.5a11.25,11.25,0,0,1,4.4-5.9l2.7,4.28a5.41,5.41,0,0,1,2.24-4.7"/><path class="cls-1" d="M391,577.17a130.58,130.58,0,0,0,34.12,3.28"/><path class="cls-1" d="M393,569.54,425.19,573"/><path class="cls-1" d="M390.5,562.29a14.86,14.86,0,0,1,4.07-7.17,89.78,89.78,0,0,1,6,7.67l4.44-8.32,5.51,7.33a28.54,28.54,0,0,0,6.83-5.31,8.74,8.74,0,0,0,.9,4.47c.81,1.31,2.65,2.11,3.94,1.27.81-.53,1.24-1.58,2.15-1.92,1.53-.57,2.84,1.19,3.52,2.67"/><path class="cls-1" d="M393.93,545.88a59.61,59.61,0,0,0,36.9,2.9"/><path class="cls-1" d="M394.72,536.24l37.54,4c.43,0,1,.18,1.06.61s-.83.51-.65.11"/><path class="cls-1" d="M397.36,524.57l1.7-4.1a40.25,40.25,0,0,1,3,9.17,10,10,0,0,1,4.67-9.1,18.63,18.63,0,0,0,4.61,3.62,21.45,21.45,0,0,1,2.92-6.57,32.11,32.11,0,0,0,3.75,8.66,19.92,19.92,0,0,1,4.17-8.6,10,10,0,0,1,3.32,12.51,19,19,0,0,1,3.66-11.61l5,10,5.23-8"/><path class="cls-1" d="M267,281.75a3.91,3.91,0,0,0-1.86,4.53l1-28.4,8.59,16.37q-.39-13.3.35-26.6l10.74,24.71,2.06-9.37,9.43,8.66-7-40.15a172.17,172.17,0,0,0,24.12,30.73l-2.29-14.55a43.46,43.46,0,0,1,10.88,5L321.37,241a8.68,8.68,0,0,1,4.5,1.07,3.9,3.9,0,0,1,5.12-4"/><path class="cls-1" d="M118.5,541.87a3.87,3.87,0,0,1,3.13-3.68l1.61,6.46a2.65,2.65,0,0,0,.89,1.66c1.39.93,2.8-1.15,3.26-2.76s2.13-3.58,3.36-2.44c-.05,1.63,0,3.42,1,4.65s3.59,1.08,3.88-.53a8.19,8.19,0,0,0-.18-1.87c-.17-2.87,4.33-3.9,6.43-1.94s2.32,5.16,2.4,8c.84-1.87,1.8-3.87,3.62-4.81s4.66,0,4.69,2.09"/><path class="cls-1" d="M470.31,307.29c-.35-.53.73-1,1.14-.54a2,2,0,0,1,0,1.83q-7.2,22.37-15.17,44.48A237.08,237.08,0,0,1,486.59,306q-16.71,49.2-32.77,98.62a344,344,0,0,1,36.88-69Q475.34,378.76,463.26,423a348.35,348.35,0,0,1,30-50.33q-7.62,22-13,44.62a71.19,71.19,0,0,1,13.42-16,112.69,112.69,0,0,1-4.9,21.75,53.83,53.83,0,0,0,15.88-12.9,32.46,32.46,0,0,1-4.3,14.49l.62-6.28"/><path class="cls-1" d="M208.31,220.2a81.74,81.74,0,0,1-22.25,19.46c-1.4-5.91,1.8-11.9,5.36-16.82S199.15,213,200.1,207c-3.8-1.05-7.46,1.85-10.34,4.54L168.7,231.2c4.66-14.7,19.7-24.78,22.71-39.9-3.39,0-6.17,2.51-8.57,4.91q-19,18.94-37.47,38.34c6.79-23.16,28.9-38.57,39.19-60.4-17.66,7.85-31.52,22.11-44.91,36,3.8-17.46,21.89-29.09,25.64-46.56a127.78,127.78,0,0,0-23.84,18.73,105.31,105.31,0,0,1,14.78-23.07A35.71,35.71,0,0,0,145.4,166l5.9-13.13-8.65,8.41"/><path class="cls-1" d="M117.54,510.87c-1.78.33-.51,3.08,1,4a59.22,59.22,0,0,0,42,7.25"/><path class="cls-1" d="M132.69,372.85l-3.46,9.83,4.94-3.92-.14,7.8a8.15,8.15,0,0,0,4-1.56,11.45,11.45,0,0,1,.94,5.52,13.46,13.46,0,0,0,6.57-4.84l.33,11.33,3.76-4.18a26.83,26.83,0,0,0,2.9,6.5l4.34-5.26c0,2.17.19,4.6,1.82,6s5,.38,4.63-1.75a24.28,24.28,0,0,0,4,5.59L171,400.6a4.25,4.25,0,0,0,4.83,3.06"/><path class="cls-1" d="M375.71,421.49a3.51,3.51,0,0,0-.56,4.29c-1-1.61,1.28-3.64,3.09-3.12s2.83,2.44,3.37,4.25l1.72-4.38,3.89,3.68.48-8.09a40.66,40.66,0,0,1,4.81,9.88l1.32-10a19.75,19.75,0,0,1,6.26,9,15.06,15.06,0,0,0,2.07-9.76,27.53,27.53,0,0,1,5.91,9.77,29.28,29.28,0,0,1,2-10.71l6.35,10.7a23.72,23.72,0,0,0,1.14-10.22c1.57-.28,2.6,1.51,3.31,2.94s2.38,3,3.66,2a2.82,2.82,0,0,0,.88-1.69,29,29,0,0,0,.8-6.93,31,31,0,0,1,7.93,7.66,9.17,9.17,0,0,0,1.91-7.54,7,7,0,0,0,5.45,4.32l.6-6.35a16,16,0,0,0,3.55,4,13,13,0,0,0,1.13-5.78,26.13,26.13,0,0,0,3.68,6.16,5.88,5.88,0,0,0,2-5.44l2.71,1.9"/><path class="cls-1" d="M226.26,237c-5.55,2.17-11.6,4.79-14.14,10.18s1.74,13.64,7.5,12.13c-6,2.63-10.8,9.38-9,15.71s12.07,8.72,15.18,2.91c-3.14,5.18-2.8,12.59,1.67,16.68s12.87,3.12,15.44-2.36c-3.41,4.53-.34,11.86,5,13.72s11.54-.91,14.95-5.43a9.63,9.63,0,0,0,2.26-6.92c.8,6.6,8.49,11.39,14.77,9.19s9.29-10.74,5.8-16.4a10.12,10.12,0,0,0,17-11,13,13,0,0,0,20.21-15.73c1.69,4.18,8.18,4.49,11.35,1.27s3.46-8.35,2.33-12.72c3.81,3.06,10.41,1.23,12.1-3.35s-2.13-10.26-7-10.41"/><path class="cls-1" d="M419.58,133.45a8.47,8.47,0,0,1-4.61.71,6.38,6.38,0,0,0,.76,2.88c1.53,2.37,6.12.72,5.77-2.07s-5.25-3.22-6-.51c1.26,2.2,5.4,1.2,5.51-1.33-1.74-1.12-3.94-2.26-5.77-1.3s-.82,4.77,1,3.84c.26-2-3.16-3.05-4.07-1.25-1.11,2.19,2.43,4.32,4.56,3.09s2.79-3.94,3.26-6.35l8.6-44.36c-.84,7.55,5.86,13.73,12.43,17.56,2,1.15,4.12,2.34,5.16,4.37a5.63,5.63,0,0,1-9.81,5.49"/><path class="cls-1" d="M477.7,160.45a1.68,1.68,0,0,0-.1,2.92,4.61,4.61,0,0,0,3-2.18c-1.2-2.05-5-1.19-5.26,1.18a2,2,0,0,0,3-1.11c-1.09-1.86-4.6.47-3.32,2.2,3.44-.38,4.42-4.87,4.52-8.33l1.09-38.25a23.66,23.66,0,0,0,9.65,11.78c1.94,1.2,4.1,2.15,5.64,3.83s2.25,4.44.83,6.23c-1.9,2.4-5.71,1.33-8.5.06"/><path class="cls-1" d="M190.13,31.86,202,35.11"/><path class="cls-1" d="M191.14,21.16l12.68,2.61"/><path class="cls-1" d="M206.5,14.38l4.14,2.48"/><path class="cls-1" d="M266.81,21.24a14.93,14.93,0,0,0,9.85-.53"/><path class="cls-1" d="M268.65,34.9a27.15,27.15,0,0,0,10.93,2.25"/><path class="cls-1" d="M264.68,45.48a41.36,41.36,0,0,0,13,6.21"/><rect class="cls-2" width="525" height="600"/></g></g></g></g></svg>