<svg xmlns="http://www.w3.org/2000/svg" viewBox="0 0 525 600"><defs><style>.cls-1{fill:#fff;}.cls-2{fill:none;}</style></defs><title>piotrek</title><g id="Warstwa_2" data-name="Warstwa 2"><g id="Warstwa_1-2" data-name="Warstwa 1"><path class="cls-1" d="M35.37,188.38C26,181.85,20,193.93,20.05,201.93c0,3.61,1.49,7.15,4.94,8.72,4.57,2.07,9.65-.26,13.61-2.63,2-1.17.55-3.71-1.44-3.43-11.16,1.56-14.37,22.33-6,28.63,10.39,7.79,22.31-2.26,22-13.62-.06-2.41-3.81-2.42-3.75,0,.2,8.38-8.84,17.18-16.63,10.17-5.25-4.72-2.34-20.51,5.29-21.58l-1.44-3.43c-4.46,2.67-12.65,5.44-12.91-2.85-.15-4.8,3.12-14.91,9.68-10.31,2,1.39,3.86-1.86,1.89-3.24Z"/><path class="cls-1" d="M53.93,205.6l9.71-7.77c1.88-1.51-.78-4.15-2.65-2.65l-9.71,7.77c-1.88,1.51.78,4.15,2.65,2.65Z"/><path class="cls-1" d="M46.57,198.88a45.48,45.48,0,0,0,15.63-15c1.3-2-1.94-3.93-3.24-1.89a41.39,41.39,0,0,1-14.28,13.68c-2.09,1.21-.2,4.45,1.89,3.24Z"/><path class="cls-1" d="M68.91,170.85a61.57,61.57,0,0,0,11.47,20.59c1.45,1.72,3.82-.47,2.94-2.27L80,182.32c-.73-1.5-4.21-7.47-2.84-7.93,2.35-.79,8.4,8.18,10,10.21,1.13,1.44,3.84-.13,3.13-1.82a155.3,155.3,0,0,1-6.37-18.7L83,166.19c1.14-.53,3.56,2.66,4.2,3.47a27.92,27.92,0,0,1,2.29,3.88,77.07,77.07,0,0,1,4,8.52c.65,1.6,3.1,1.95,3.62,0l.73-2.79c.61-2.34-3-3.33-3.62-1l-.73,2.79h3.62c-2.14-5.33-7.67-22-16-18.1a1.89,1.89,0,0,0-.86,2.12,155.3,155.3,0,0,0,6.37,18.7l3.13-1.82c-2.44-3.13-10.83-16.55-16.09-11.8-2,1.79-1.33,4.57-.46,6.78,1.91,4.83,4.57,9.47,6.84,14.14L83,188.79a56.6,56.6,0,0,1-10.51-18.94c-.75-2.28-4.37-1.31-3.62,1Z"/><path class="cls-1" d="M103.79,157.77c-1.06-2-3.29-2.28-5.24-1.45a7.69,7.69,0,0,0-4.1,5.3c-1.27,4.71.74,10.24,5.22,12.46,4.19,2.07,10.2,1,12.17-3.6,1.71-4-.37-9.16-4.72-10.26-2.34-.59-3.34,3-1,3.62a3.78,3.78,0,0,1,2.36,5c-.91,2.53-4.17,3-6.43,2.23a6.62,6.62,0,0,1-4.18-5.66,7.29,7.29,0,0,1,.57-3.74c.25-.57,1.79-2.58,2.12-2,1.13,2.14,4.36.24,3.24-1.89Z"/><path class="cls-1" d="M99.4,132.24c-.62-1.73-.78-3.71,1.52-3.9q1.61-1,1.53.58a15.91,15.91,0,0,1,.45,3.54,23.81,23.81,0,0,1-1.63,9.08,1.89,1.89,0,0,0,2.75,2.12,119.8,119.8,0,0,0,17.66-15c1.68-1.74-1-4.39-2.65-2.65a114.85,114.85,0,0,1-16.9,14.44l2.75,2.12c1.51-4.11,4.39-17.29-2.12-19-5.43-1.43-8.5,5.48-7,9.7.81,2.25,4.43,1.28,3.62-1Z"/><path class="cls-1" d="M347.64,66.09A38.74,38.74,0,0,0,363,60.85l-2.75-1.12c3,14,6.32,28.09,14.35,40.18a1.88,1.88,0,0,0,3.43-1.44l-5.58-30.52L370,54.59c-.9-4.91-2.6-10.28-2.79-15.26-.14-3.69,2.91-3.09,5.88-3.77l7.61-1.76,13.32-3.07,30.44-7-2.37-1.81a50.2,50.2,0,0,0,.4,7.39c.22,1.58,2,5.86,1.36,7.07L426,35.5l.62.71-.86,2.12.29-.21c1.95-1.39.08-4.64-1.89-3.24l-.29.21a1.92,1.92,0,0,0-.86,2.12c.44,1.07.8,1.66,2,1.91a1.92,1.92,0,0,0,2.12-.86c.94-1.81.45-2.88,0-4.87a47.85,47.85,0,0,1-1.23-11.49,1.9,1.9,0,0,0-2.37-1.81L389.25,28l-17.12,4c-2.59.6-7.39.63-8.68,3.47-1.42,3.12.82,8.42,1.4,11.59L368,64.18l6.45,35.29L377.87,98c-7.85-11.83-11-25.6-14-39.29a1.89,1.89,0,0,0-2.75-1.12,34,34,0,0,1-13.5,4.73c-2.36.3-2.39,4.05,0,3.75Z"/><path class="cls-1" d="M342.48,155.51c-3.88,4.33-8.38,9.52-7.8,15.76.43,4.66,4.28,9.73,9.35,9.54,9.34-.34,18.92-23.58,7.13-25.74-5.3-1-10.26,3.26-13.1,7.22-2.56,3.57-7.65,11.81-5.55,16.31,2,4.33,7.75,3.2,11.11,1.33,6.27-3.48,11.08-9.44,14.11-15.83l-3.43-1.44c-.73,4.8-1.8,9.67-2.19,14.51-.19,2.35.07,5.12,2.37,6.43,5.62,3.18,12-5.79,14.06-9.75,1.13-2.13-2.1-4-3.24-1.89a22.5,22.5,0,0,1-3.17,4.71,20,20,0,0,1-3.09,2.76q-4.1-.13-3.07-3c-.58-3.48,1.41-9.32,1.94-12.81.29-1.9-2.43-3.54-3.43-1.44a34.67,34.67,0,0,1-5.79,8.82c-2,2.17-5.57,6-8.59,6.43-6.09.87-3.22-5-1.93-7.74a25.29,25.29,0,0,1,5.06-7.75,12.42,12.42,0,0,1,3.42-2.46c4.42-2,6.32,2.05,5.57,5.8-.71,3.59-3.23,10.84-7.5,11.64-5.47,1-7-6.17-5.79-9.79,1.11-3.47,3.84-6.36,6.2-9,1.61-1.79-1-4.45-2.65-2.65Z"/><path class="cls-1" d="M378.58,157.82l-5.33,18.59c-.67,2.32,3,3.32,3.62,1l5.33-18.59c.67-2.32-3-3.32-3.62-1Z"/><path class="cls-1" d="M372,166.58a30.17,30.17,0,0,0,11.43,2.32c2.41,0,2.42-3.72,0-3.75A27.45,27.45,0,0,1,373,163c-2.22-.93-3.19,2.7-1,3.62Z"/><path class="cls-1" d="M387.07,185.23a159.64,159.64,0,0,0,20.31-29.62c1-1.81-1.46-3.92-2.94-2.27a49.65,49.65,0,0,0-10.26,17.16c-1.8,5.23-3.83,12.95-2.07,18.41,1.54,4.79,6.33,5.26,10.16,2.68,5-3.39,8.27-9.42,10.06-15a1.89,1.89,0,0,0-1.31-2.31,18.64,18.64,0,0,0-20.18,9.52c-1.14,2.13,2.1,4,3.24,1.89A14.81,14.81,0,0,1,410,177.85l-1.31-2.31c-1.19,3.74-3.22,8.45-6.4,11-8.42,6.82-6.84-5.44-6.17-8.91A45,45,0,0,1,407.08,156l-2.94-2.27a155.31,155.31,0,0,1-19.72,28.86c-1.57,1.82,1.07,4.48,2.65,2.65Z"/><path class="cls-1" d="M418.16,185.88A57.8,57.8,0,0,0,434,190.16c2.39.3,2.37-3.46,0-3.75a51.41,51.41,0,0,1-13.92-3.77c-2.19-.94-4.11,2.29-1.89,3.24Z"/><path class="cls-1" d="M416.78,175.69a118,118,0,0,0,21.55,9l.5-3.68-2.93-.2c-2.41-.16-2.4,3.59,0,3.75l2.93.2c2.17.14,2.46-3.08.5-3.68a113,113,0,0,1-20.66-8.62c-2.12-1.14-4,2.09-1.89,3.24Z"/><path class="cls-1" d="M469,185.21c-4.12-5.36-10.75-8.37-17.5-6.57-6.56,1.75-12.41,8.4-11.93,15.44.46,6.66,6.77,8.32,12.46,7.65,2.27-.27,6-.55,7.14-2.95.94-2-.26-3.65-2.06-4.31-2.27-.84-3.24,2.78-1,3.62-2.9-1.07-6,.8-9.16-.13-5.62-1.66-3.56-8.2-.91-11.43a12.48,12.48,0,0,1,19.71.58c1.45,1.89,4.71,0,3.24-1.89Z"/><path class="cls-1" d="M38.53,312.36A531.48,531.48,0,0,0,54,365.82c.65,1.86,3.91,1.74,3.68-.5a688.59,688.59,0,0,1-3.09-91.37l-3.68.5Q61.55,310.83,75.76,346c.72,1.79,3.83,1.8,3.68-.5l-6.12-93.73-3.68.5a406.59,406.59,0,0,0,19.79,66.46c.72,1.84,3.73,1.77,3.68-.5L92.2,277.3a1.88,1.88,0,0,0-3.75,0A25.4,25.4,0,0,0,90.69,288c.64,1.47,3.12,1.05,3.43-.45l2.05-10.06-3.43.45,4.44,7.4c.78,1.3,3.1,1.19,3.43-.45a68.8,68.8,0,0,0,1.38-15.3l-3.68.5,5.62,17.47c.63,2,3.71,1.69,3.68-.5q-.42-34.67.76-69.32l-3.68.5c2.09,10.61,4.64,21.11,7.74,31.47q2.18,7.31,4.7,14.51a19.4,19.4,0,0,1,1.28,3.59q1,4.19-2.94,4.18-2.42,2-3.38-.49c-3.48-4.11,3-7.77,6.16-4.14,1.59,1.83,4.23-.84,2.65-2.65-3.84-4.42-12.18-3.57-13.52,2.74-1.22,5.75,4.64,11.42,10.26,8.85,9.08-4.15,2.1-15.79.09-22.12a337.71,337.71,0,0,1-9.42-36.94c-.42-2.14-3.61-1.54-3.68.5q-1.18,34.65-.76,69.32l3.68-.5-5.62-17.47c-.63-2-3.73-1.69-3.68.5A64.08,64.08,0,0,1,97,283.86l3.43-.45L96,276c-.78-1.31-3.09-1.18-3.43.45L90.5,286.53l3.43-.45a20.67,20.67,0,0,1-1.72-8.78H88.45l.91,40.94,3.68-.5a406.59,406.59,0,0,1-19.79-66.46c-.42-2.05-3.82-1.62-3.68.5l6.12,93.73,3.68-.5q-14.21-35.15-24.86-71.56a1.88,1.88,0,0,0-3.68.5,688.59,688.59,0,0,0,3.09,91.37l3.68-.5a531.48,531.48,0,0,1-15.46-53.46c-.55-2.35-4.16-1.35-3.62,1Z"/><path class="cls-1" d="M236.65,58.35a20.27,20.27,0,0,0-.84-10.92c-1.64-4.23-5.09-6.87-7.33-10.69-5.26-8.94,2.27-20.33,12.28-20.23a17.41,17.41,0,0,1,12.34,5.55c2.51,2.73,5.14,7.26,1.35,10.62-1.26,1.12-3.3,1.46-4.74,2.3a9.54,9.54,0,0,0-5,7.41c-.29,2.15,1.51,11.87-.52,12.73l2.27.29.32,1.07L245,57.85l.32,0c2.4-.13,2.42-3.88,0-3.75l-.32,0a1.92,1.92,0,0,0-1.81,1.38,2.47,2.47,0,0,0,.65,2.58,1.92,1.92,0,0,0,2.27.29c3.86-1.64,2.48-8.78,2.31-11.95-.26-5.1,1.3-7.22,5.61-9.3,1.86-.9,3.69-1.8,4.89-3.55,5.76-8.4-5.88-18.12-13.05-20.05-9.13-2.46-18.43,2-21.73,10.95a16.64,16.64,0,0,0,.19,12.44,29.25,29.25,0,0,0,4.33,6.19c3.47,4.34,5.36,8.59,4.41,14.29-.4,2.36,3.22,3.38,3.62,1Z"/><path class="cls-1" d="M464,256c3.82-6.76,2.5-15.85-3.82-20.71s-15.71-3.55-20.94,2.1c-6.36,6.88-4.37,17.4,0,24.72,3,4.92,7,9.1,10.65,13.48a199.84,199.84,0,0,1,12.58,16.81,1.89,1.89,0,0,0,2.94.38,249.35,249.35,0,0,0,15.06-20.56c4.06-6.21,10.41-14,9.87-21.88-.36-5.33-4.09-9.89-9.7-9.76-7.59.18-14.18,7.84-19.51,12.37-1.84,1.56.82,4.21,2.65,2.65,4.35-3.69,9.38-9.63,15.11-11s8.51,4.16,7.46,9c-.65,3-2.37,5.78-3.93,8.39a236.41,236.41,0,0,1-19.68,28.14l2.94.38a212.24,212.24,0,0,0-14.32-18.94c-4.95-5.82-10.8-11.8-12.2-19.63-1.51-8.38,3.73-16.41,12.78-15.85,8.86.54,12.8,10.85,8.75,18-1.19,2.1,2,4,3.24,1.89Z"/><path class="cls-1" d="M17.05,135l7.28-14.72-3.49-.95L22.18,137c.18,2.39,3.93,2.41,3.75,0l-1.34-17.69c-.13-1.7-2.6-2.75-3.49-.95l-7.28,14.72c-1.07,2.16,2.17,4.06,3.24,1.89Z"/><path class="cls-1" d="M29.75,117a57.46,57.46,0,0,0-.7,10.41c.07,2.12-.14,5.27,1.39,7,3.8,4.34,8.34-3,9.57-5.94,1.65-4,1.11-9.48-3.22-11.54-3.8-1.8-8.67,1.12-8.29,5.45.21,2.39,4,2.41,3.75,0a2.09,2.09,0,0,1,3-2c1.18.54,1.83,2.28,1.92,3.47.16,2.24-1.09,4.43-2.32,6.21-.89,1.28-1.75,2.17-1.95-.15-.1-1.24-.16-2.48-.17-3.73a52.12,52.12,0,0,1,.6-8.17c.35-2.36-3.26-3.38-3.62-1Z"/><path class="cls-1" d="M46.5,125.36a39.35,39.35,0,0,1,1.93-11l-3.68-.5,1.73,15.36c.27,2.37,4,2.4,3.75,0L48.49,113.9a1.88,1.88,0,0,0-3.68-.5,43,43,0,0,0-2.06,12c-.08,2.41,3.67,2.41,3.75,0Z"/><path class="cls-1" d="M58.53,123.48A17.68,17.68,0,0,1,61.23,112l-3.49-.95,1.66,14.25c.28,2.37,4,2.4,3.75,0l-1.66-14.25a1.89,1.89,0,0,0-3.49-.95,21,21,0,0,0-3.21,13.33c.23,2.38,4,2.41,3.75,0Z"/><path class="cls-1" d="M69.73,104.06c-3,3.36-6.61,9.8-1.29,13.08,4.65,2.87,9.19-2.6,10.39-6.63,1.07-3.62.62-9.08-3.9-9.94a5.89,5.89,0,0,0-5.85,2.83c-1.69,2.65-1.24,5.82-.75,8.74.4,2.37,4,1.37,3.62-1-.26-1.55-.65-3.4-.09-4.94.42-1.15,1.9-2.77,3.15-1.54,1.09,1.08.59,3.59.21,4.84-.49,1.63-2.75,5.91-5,4.26-2.48-1.79,1-5.73,2.19-7.07,1.59-1.81-1.05-4.47-2.65-2.65Z"/><path class="cls-1" d="M90.74,108.85A54.51,54.51,0,0,1,93.17,95.6L90,96.42a8.31,8.31,0,0,1,1,9.83c-1.21,2.09,2,4,3.24,1.89a12.17,12.17,0,0,0-1.56-14.37,1.89,1.89,0,0,0-3.13.83A58.66,58.66,0,0,0,87,108.85c-.13,2.41,3.62,2.4,3.75,0Z"/><path class="cls-1" d="M103.69,106a23.23,23.23,0,0,1,1.88-11.14l-3.43-.45,2.74,13.06c.5,2.36,4.11,1.36,3.62-1l-2.74-13.06c-.31-1.49-2.77-1.92-3.43-.45a27.15,27.15,0,0,0-2.39,13c.16,2.39,3.91,2.41,3.75,0Z"/><path class="cls-1" d="M116.45,90.26c-1.81,3.88-3.74,10.95-.66,14.73,3.48,4.28,7.87-1.7,9.19-4.76,1.53-3.54,1.26-8.58-3.41-9.35-5.3-.87-7.73,4.53-8.78,8.7-.59,2.34,3,3.34,3.62,1,.5-2,1.08-5.23,3.41-5.87,3.27-.9,2.32,2.86,1.53,4.5a7.47,7.47,0,0,1-1.63,2.55c-1.45,1-1.48-.33-1.56-1.74a16.15,16.15,0,0,1,1.54-7.87c1-2.17-2.22-4.08-3.24-1.89Z"/><path class="cls-1" d="M136.14,90.39a12.11,12.11,0,0,0-1.07,10.18,2,2,0,0,0,2.31,1.31c2.85-.39,6.07-1.16,7.81-3.69a6,6,0,0,0-.24-6.93c-4.85-5.83-11.44,4.37-12.76,8.37-.76,2.3,2.86,3.28,3.62,1,.42-1.28,4.69-9.14,6.41-6.76.74,1-.08,2.37-.92,3a11,11,0,0,1-4.91,1.43l2.31,1.31a8.43,8.43,0,0,1,.69-7.29c1.23-2.08-2-4-3.24-1.89Z"/><path class="cls-1" d="M155.79,90.89c-3.61,3-7.84,10.78-4.25,15.28,4.18,5.23,10.83-4.7,12.22-8a1.93,1.93,0,0,0-.67-2.57,14.57,14.57,0,0,0-12.22-1.36c-2.28.75-1.3,4.38,1,3.62a10.89,10.89,0,0,1,9.33,1l-.67-2.57a17.27,17.27,0,0,1-2.66,4.49,16.74,16.74,0,0,1-1.72,1.74c-1,.84-1.55,1.33-2,.18-.51-1.4.47-4,1.08-5.24a12,12,0,0,1,3.19-3.95c1.85-1.56-.82-4.2-2.65-2.65Z"/><path class="cls-1" d="M12.59,27.13a35.81,35.81,0,0,1,5.48-10.86H14.83a33,33,0,0,1,4.6,16.86c0,2.41,3.76,2.42,3.75,0a36.92,36.92,0,0,0-5.12-18.75,1.9,1.9,0,0,0-3.24,0A38.78,38.78,0,0,0,9,26.13c-.71,2.31,2.91,3.3,3.62,1Z"/><path class="cls-1" d="M29.14,23.42a13.26,13.26,0,0,1,5-8.9L31,13.2a37.84,37.84,0,0,0,2,14.66c.77,2.27,4.4,1.3,3.62-1A35.05,35.05,0,0,1,34.71,13.2c.11-1.78-2.05-2.26-3.2-1.33a17,17,0,0,0-6.12,11.55c-.27,2.39,3.48,2.37,3.75,0Z"/><path class="cls-1" d="M41,12.69C39.1,16.42,39.47,21.53,43.25,24c3.32,2.15,8.47,1.36,10-2.58,1.35-3.4-.59-8.12-4.6-8.33s-7.1,4.39-5.15,8c1.16,2.12,4.4.23,3.24-1.89C46.12,18,47.83,16.36,49,17s1.26,2.87.31,3.77c-1.25,1.18-3.48.74-4.59-.39-1.49-1.52-1.37-4-.46-5.77,1.1-2.14-2.13-4-3.24-1.89Z"/><path class="cls-1" d="M64.05,12a7.43,7.43,0,0,0-2.61,9.68c1.92,3.88,6.73,4.49,10,1.9a7.5,7.5,0,0,0,2.89-5.05c.24-2.5-.95-3.94-3.23-4.78A9,9,0,0,0,60.4,17.58a1.88,1.88,0,0,0,3.24,1.89,5.13,5.13,0,0,1,5-2.46c.85.1,1.82.28,1.93,1,.14,1-.94,2.21-1.66,2.72-3.82,2.71-6.39-3.57-3-5.52,2.09-1.21.2-4.45-1.89-3.24Z"/><path class="cls-1" d="M86.36,21.47A11,11,0,0,1,89,14.59l-3.13-.83,2.32,17c.33,2.38,3.94,1.37,3.62-1l-2.32-17a1.88,1.88,0,0,0-3.13-.83,15.15,15.15,0,0,0-3.78,9.53c-.11,2.41,3.64,2.41,3.75,0Z"/><path class="cls-1" d="M98.51,16.79a8.42,8.42,0,0,0,.29,10.06,6.43,6.43,0,0,0,9.69.52c2.62-2.57,3.3-7.1.12-9.53a6.57,6.57,0,0,0-9.54,2.09c-1.13,2.13,2.1,4,3.24,1.89.74-1.39,2.9-2.1,4.17-.9s0,3.57-1.33,4.33c-1.61.92-3.21,0-4-1.57a4.74,4.74,0,0,1,.55-5c1.45-1.93-1.8-3.8-3.24-1.89Z"/><path class="cls-1" d="M116.11,16.33c-3.4,2.9-4.53,8.47-1.17,11.87,2.87,2.9,8.25,3.18,10.53-.6,2.08-3.45.64-8.36-3.51-9.28-4.72-1-8.46,3.79-10,7.6-.9,2.24,2.73,3.21,3.62,1,.76-1.9,2.46-4.46,4.63-4.9s3.12,2,2,3.68-3.72,1-4.82-.34c-1.68-2.07-.42-4.88,1.35-6.39s-.82-4.21-2.65-2.65Z"/><path class="cls-1" d="M29.08,97.19a5,5,0,0,1,1.47-4.29l-3.13-.83a120.92,120.92,0,0,1,2.46,12.84l3.43-1.44-1.63-2.34c-1.37-2-4.62-.1-3.24,1.89l1.63,2.34a1.88,1.88,0,0,0,3.43-1.44A120.92,120.92,0,0,0,31,91.07a1.89,1.89,0,0,0-3.13-.83,8.61,8.61,0,0,0-2.57,6.95c.2,2.39,4,2.41,3.75,0Z"/><path class="cls-1" d="M40.27,88.59a11.22,11.22,0,0,0,1.81,13.09,1.92,1.92,0,0,0,2.65,0c4.41-3.79,9.62-10.84,3.36-15.69a5.26,5.26,0,0,0-7.65,7.07c1.32,2,4.57.13,3.24-1.89-.75-1.14-.39-3,1.33-2.68,1.28.21,2.21,2.1,2.25,3.24.12,3-3.16,5.54-5.19,7.29h2.65a7.35,7.35,0,0,1-1.22-8.55c1.11-2.14-2.12-4-3.24-1.89Z"/><path class="cls-1" d="M56.86,80.46a6.63,6.63,0,0,0,.61,9.36c3,2.67,7.42,1.19,9.06-2.27s.13-7.56-3.76-8.27a6.4,6.4,0,0,0-7.61,5.43c-.28,2.39,3.48,2.37,3.75,0,.31-2.72,6-2.31,4.23,1.26s-5.83-.54-3.64-2.85c1.66-1.75-1-4.41-2.65-2.65Z"/><path class="cls-1" d="M73.46,74.79c-2.44,2.94-2.81,7.54,0,10.42a6.68,6.68,0,0,0,9.6-.43,5.39,5.39,0,0,0-1.57-8.49,6.2,6.2,0,0,0-4.88-.46,4.71,4.71,0,0,0-1.93,1.28,6.48,6.48,0,0,0-.71,1q-.19.36-.4.72,2.5.4,1.37,1.91l-1.33.55L73,81.16c2,1.31,3.92-1.94,1.89-3.24-2.77-1.77-4.64,2.88-2.11,4.37a2.89,2.89,0,0,0,3.66-1c.76-.94.91-2.2,2.37-2,2.84.42,2.16,3.43-.25,4-3.28.72-4.14-3.76-2.44-5.81,1.53-1.84-1.11-4.51-2.65-2.65Z"/><path class="cls-1" d="M99,80.7a20.45,20.45,0,0,1,2.32-7.4l-3.49-.95a31,31,0,0,0,1.78,9.9L100.9,80l-2.4.88c-2.25.82-1.28,4.45,1,3.62l2.4-.88a1.9,1.9,0,0,0,1.31-2.31,27.74,27.74,0,0,1-1.65-8.91c0-1.79-2.59-2.64-3.49-.95a25.35,25.35,0,0,0-2.83,9.29c-.26,2.4,3.49,2.38,3.75,0Z"/><path class="cls-1" d="M115,80.11a51.19,51.19,0,0,1,3.84-9.36l-3.43-.45,3.73,14.87c.59,2.34,4.2,1.35,3.62-1L119.06,69.3a1.9,1.9,0,0,0-3.43-.45,56.18,56.18,0,0,0-4.22,10.26c-.69,2.32,2.92,3.31,3.62,1Z"/><path class="cls-1" d="M131.87,73.43a9.49,9.49,0,0,1,1.6-4.14L130,68.84l3.89,16.28c.56,2.35,4.18,1.35,3.62-1l-3.89-16.28a1.9,1.9,0,0,0-3.43-.45,11.8,11.8,0,0,0-2,5c-.36,2.36,3.26,3.38,3.62,1Z"/><path class="cls-1" d="M145,78.25l3.76-8.91H145.5A30.12,30.12,0,0,1,150,82.68c.21,2.39,4,2.41,3.75,0a34.34,34.34,0,0,0-5-15.24c-.66-1.07-2.66-1.37-3.24,0l-3.76,8.91c-.93,2.2,2.3,4.11,3.24,1.89Z"/><path class="cls-1" d="M477.87,515.81c4.21-4,8.87.2,10,4.36a11.85,11.85,0,0,1-.74,7.91c-2.37,5.46-8.06,9.41-14.12,8.78-11.24-1.18-16.33-13.94-11.7-23.39,7.3-14.9,25.58-20.92,28.41-38.68a50.63,50.63,0,0,0-.19-14.55c-.51-3.9-.54-9.44-3.19-12.64-4.86-5.86-11,1-11.83,6.16-2,12.08-1.34,25.19-1.35,37.41,0,12.54.31,25.09.61,37.62.34,14.19.68,28.38.54,42.58q-.05,5.44-.21,10.88c-.06,2,.85,10-2.33,9.83-2.34-.15-3.61-4.87-4-6.76a34.11,34.11,0,0,1-.32-8.59c.14-2.41-3.61-2.4-3.75,0-.34,6,.39,20.07,9.67,19.64,4.67-.22,4.15-5.88,4.28-9.18.3-7.58.41-15.17.41-22.76,0-30.69-1.89-61.38-.9-92.07q.16-4.94.42-9.88c.11-2,.16-4,.36-5.93l.11-1.4q-.17-4.68,5.71-4.67c1.36,1.71,1.48,6.43,1.79,8.48a54.38,54.38,0,0,1,.66,13.6c-1.26,12-10.41,19.2-18.48,27-6,5.77-11.92,12.59-12.14,21.34-.23,8.95,6.51,17.61,15.3,19.46,9.73,2.05,19.74-5.61,20.95-15.37,1.11-8.94-8.23-19.85-16.65-11.83-1.75,1.67.9,4.31,2.65,2.65Z"/><path class="cls-1" d="M15.89,75.45a6.13,6.13,0,0,1,1.68-5.06l-3.2-1.33a39.26,39.26,0,0,0,3.32,11.64c1,2.19,4.24.29,3.24-1.89a33.32,33.32,0,0,1-2.81-9.75c-.19-1.48-2-2.64-3.2-1.33a10.17,10.17,0,0,0-2.65,8.71c.33,2.38,3.95,1.37,3.62-1Z"/><path class="cls-1" d="M27.57,70.1a1.75,1.75,0,0,1,1-2L25.8,67l3.09,10.38c.69,2.31,4.31,1.32,3.62-1L29.42,66a1.9,1.9,0,0,0-2.75-1.12,5.39,5.39,0,0,0-2.84,5.19c.18,2.39,3.93,2.41,3.75,0Z"/><path class="cls-1" d="M38.49,64.77c-4,1.28-5.66,6.48-2.27,9.37s7.91.71,9.33-3.14c1.3-3.53.21-8.69-3.92-9.74-3.7-.94-7.69,2.37-6.72,6.2.59,2.34,4.21,1.35,3.62-1-.28-1.12,1.41-1.81,2.3-1.52,1.52.51,1.7,2.77,1.42,4.06s-1.31,3.21-3,2.64a1.71,1.71,0,0,1,.2-3.27c2.29-.74,1.31-4.36-1-3.62Z"/><path class="cls-1" d="M49.73,62.66c-2.79,1.62-2.61,5.87.12,7.5,3.54,2.11,7.35-1,8.63-4.21,1.21-3.07,2.26-8.21-2-9.32s-6.36,2.8-7.5,6.07c-.8,2.28,2.82,3.26,3.62,1,.38-1.08.85-2.87,2.05-3.36,1.87-.77,1,2,.75,2.87-.33,1.35-.84,3.06-2.25,3.65-.44.19-1.14.4-1.52,0-.24-.26-.29-.77,0-.93,2.09-1.21.2-4.45-1.89-3.24Z"/><path class="cls-1" d="M64.08,64.86A22.89,22.89,0,0,1,70.92,59L68.1,57.35,67,72.93c-.17,2.41,3.59,2.4,3.75,0l1.07-15.58A1.89,1.89,0,0,0,69,55.73a25.46,25.46,0,0,0-7.6,6.47c-1.48,1.87,1.16,4.55,2.65,2.65Z"/><path class="cls-1" d="M76.62,66.66a18.31,18.31,0,0,1,6.71-8.24L80.57,57.3a48.23,48.23,0,0,1,1,14.66c-.2,2.41,3.55,2.39,3.75,0a51.61,51.61,0,0,0-1.11-15.65,1.89,1.89,0,0,0-2.75-1.12A22.77,22.77,0,0,0,73,65.67c-.91,2.23,2.71,3.2,3.62,1Z"/><path class="cls-1" d="M93.37,66.11a11.35,11.35,0,0,1,5.48-8.55L96,55.95A59.48,59.48,0,0,0,97.95,66.7c.64,2.32,4.26,1.34,3.62-1a54,54,0,0,1-1.79-9.75A1.9,1.9,0,0,0,97,54.33a15.31,15.31,0,0,0-7.33,11.78c-.24,2.4,3.51,2.38,3.75,0Z"/><path class="cls-1" d="M110,59.65a6.27,6.27,0,0,1,2.88-4.45l-2.75-1.12a32.77,32.77,0,0,1,.48,10.1c-.25,2.4,3.5,2.38,3.75,0a36,36,0,0,0-.61-11.1A1.89,1.89,0,0,0,111,52a10.34,10.34,0,0,0-4.73,7.69C106,62,109.73,62,110,59.65Z"/><path class="cls-1" d="M126.61,62.1l5.83-11.49L129,50.17a101.62,101.62,0,0,1,2.66,11.69c.4,2.38,4,1.37,3.62-1a101.62,101.62,0,0,0-2.66-11.69,1.9,1.9,0,0,0-3.43-.45l-5.83,11.49c-1.09,2.15,2.14,4,3.24,1.89Z"/><path class="cls-1" d="M14.78,48.45A5.65,5.65,0,0,0,14,57c2.7,2.82,7.33,1.82,9.65-.95s2.32-7.63-1-9.6c-3-1.78-7.57.44-7.4,4.13.12,2.4,3.87,2.42,3.75,0-.05-1.09,1.54-1.3,2.14-.54.93,1.18.3,3.09-.7,4s-2.62,1.41-3.65.45c-.69-.64-.94-2.17-.06-2.75,2-1.33.13-4.58-1.89-3.24Z"/><path class="cls-1" d="M31.28,44.73c-2.8,1.25-3,5-1.41,7.26,2.12,3.09,6.37,2.42,8.68-.08s2.87-7.11.39-9.85c-2.31-2.56-6.85-2.41-8.49.84-1.08,2.15,2.15,4.05,3.24,1.89.61-1.21,2.11-.9,2.73.17a3.85,3.85,0,0,1-.52,4.3c-.67.78-2,1.6-2.9.69a1.21,1.21,0,0,1,.17-2c2.2-1,.3-4.21-1.89-3.24Z"/><path class="cls-1" d="M48,42.75c2.27-.55,3.45,2.83.93,3.48-2,.52-2.83-2.32-1.25-3.34,2-1.3.15-4.54-1.89-3.24a5.88,5.88,0,0,0-2.27,7,5.3,5.3,0,0,0,6.71,3.06,5.47,5.47,0,0,0,3.78-6.54,5.92,5.92,0,0,0-7-4.08c-2.34.57-1.35,4.18,1,3.62Z"/><path class="cls-1" d="M60.73,38.56a10.18,10.18,0,0,0-3,6.37,1.8,1.8,0,0,0,.93,1.62c2.77,1.25,6,2.32,9.08,1.64a5.72,5.72,0,0,0,4.59-6.53,7,7,0,0,0-6.78-5.56c-3.63,0-6.59,2.66-8.18,5.74-1.11,2.14,2.13,4,3.24,1.89A6.87,6.87,0,0,1,64.51,40c1.74-.5,4.26.6,4.15,2.7-.19,3.55-6.39,1.37-8.11.59l.93,1.62a6.07,6.07,0,0,1,1.9-3.71c1.72-1.7-.94-4.35-2.65-2.65Z"/><path class="cls-1" d="M84.55,35.35c-4.1.25-7.12,4.73-5.38,8.6,1.56,3.47,6.32,4.51,9.42,2.49,3.45-2.25,3.61-7.52.86-10.38-3-3.08-8.26-2.51-10.91.67-1.53,1.84,1.11,4.51,2.65,2.65a4,4,0,0,1,5-1.17A3.29,3.29,0,0,1,86.9,43a2.92,2.92,0,0,1-4.13-.25,2.48,2.48,0,0,1,1.78-3.66c2.4-.14,2.41-3.9,0-3.75Z"/><path class="cls-1" d="M101.95,37.55c-3.37,0-4.91,4.11-2.74,6.54s5.95,2.33,8.44.55,3.58-4.92,2-7.6a5.7,5.7,0,0,0-7.57-2.37C100,35.8,101.88,39,104,37.91c1.71-.91,3.2,1.48,2.26,2.91a3.34,3.34,0,0,1-2.41,1.39,2.53,2.53,0,0,1-1.28-.2s-1-.7-.62-.7c2.41,0,2.42-3.74,0-3.75Z"/><path class="cls-1" d="M116.66,38.56c-3.19,2.24-2.59,6.85.41,9,4,2.93,8.85-.46,11.36-3.72a1.86,1.86,0,0,0,0-1.89,10.49,10.49,0,0,0-11.63-5.35c-2.36.52-1.36,4.13,1,3.62a6.71,6.71,0,0,1,7.39,3.63V42c-1.11,1.45-3.57,3.71-5.61,2.78-.8-.36-2.05-2.24-1-3,2-1.38.09-4.63-1.89-3.24Z"/><path class="cls-1" d="M23.29,432.34l9.09-1L30.57,430l17.21,46.21c.71,1.9,3.68,1.74,3.68-.5,0-22.17-.15-44.34,0-66.5,0-6.65,7.3-8,12.45-10.08q7.44-3.07,15-5.94,15.06-5.72,30.42-10.59L107,381.26l1.19,5.72c.49,2.36,4.11,1.36,3.62-1l-1.19-5.72a1.89,1.89,0,0,0-2.31-1.31q-17.15,5.47-34,12-8.18,3.17-16.25,6.59c-3.45,1.46-8.12,2.53-9.77,6.29-1.77,4.05-.61,10-.61,14.33V437l0,38.71,3.68-.5L34.19,429a1.92,1.92,0,0,0-1.81-1.38l-9.09,1c-2.37.26-2.4,4,0,3.75Z"/><path class="cls-1" d="M82.39,432c-16-1.35-16.4,23.92-3.56,28.78,5.6,2.12,11-1.4,13.29-6.54,3.31-7.47-.85-15.15-4.84-21.43a1.88,1.88,0,0,0-3.43,1.44c1.71,7.66,6.62,16.52,14,20.12,7,3.4,7.31-8.92,6.71-12.94-.36-2.38-4-1.37-3.62,1,.2,1.31.72,8-1.2,8.71-1.06.39-5.17-4.18-5.85-4.94a28.44,28.44,0,0,1-6.43-12.94L84,434.67c3.59,5.65,10.69,19.95-.4,22.64-11.27,2.73-15.47-22.79-1.25-21.59,2.4.2,2.39-3.55,0-3.75Z"/><path class="cls-1" d="M16.89,407.82a76.63,76.63,0,0,0-.32,11.44h3.75a9.19,9.19,0,0,1,.24-3.79c.25-.82,1.12-3.13,2.08-3.46,1.23-.43,1,1.53,1,2.36l.43,5.05c.2,2.39,4,2.41,3.75,0-.27-3.16.45-12.13-4.91-11.61-4.82.47-6.83,7.49-6.38,11.44.26,2.34,3.86,2.46,3.75,0a76.63,76.63,0,0,1,.32-11.44c.25-2.4-3.5-2.38-3.75,0Z"/><path class="cls-1" d="M9,550.61A93.66,93.66,0,0,0,15.08,584c.85,2.23,4.47,1.27,3.62-1a90.77,90.77,0,0,1-6-32.35,1.88,1.88,0,0,0-3.75,0Z"/><path class="cls-1" d="M16.93,545.41c1.08,7.13,2.33,14.23,3.8,21.3.81,3.91.86,11.41,4.39,13.9a1.83,1.83,0,0,0,1.89,0,2.56,2.56,0,0,0,1.34-2.37A1.92,1.92,0,0,0,27,576.43l-.33-.13c-2.25-.88-3.22,2.75-1,3.62L26,580l-1.38-1.81,2.33-1-.46-1.91a28.6,28.6,0,0,0-1.09-4.79q-1-4.32-1.82-8.66c-1.14-5.79-2.13-11.61-3-17.44-.36-2.38-4-1.37-3.62,1Z"/><path class="cls-1" d="M10.77,571a74.41,74.41,0,0,0,11.85-8.36c1.83-1.58-.83-4.22-2.65-2.65a69.43,69.43,0,0,1-11.09,7.77c-2.1,1.19-.21,4.43,1.89,3.24Z"/><path class="cls-1" d="M32,562.63a10.37,10.37,0,0,0,9.31-5.29c1.18-2.11-2.05-4-3.24-1.89A6.61,6.61,0,0,1,32,558.88c-2.41-.07-2.41,3.68,0,3.75Z"/><path class="cls-1" d="M26.77,554.88a47,47,0,0,0,12.15-4.31c2.15-1.1.25-4.34-1.89-3.24a43.32,43.32,0,0,1-11.25,3.93c-2.36.48-1.36,4.1,1,3.62Z"/><path class="cls-1" d="M41.46,530.6A47.21,47.21,0,0,0,44.36,555c1.68,4.12,6.58,15.69,12.52,15,7-.81,6.59-14.48,6.27-19.22a69.29,69.29,0,0,0-2.71-14.44c-.79-2.76-1.29-7.44-4-9a2,2,0,0,0-2.27.29,2.23,2.23,0,0,0-.88,2.06,1.93,1.93,0,0,0,1.38,1.81l.32.1c2.31.71,3.3-2.91,1-3.62l-.32-.1L57,529.68l-.22.6-2.27.29c1.38.8,2.39,7.08,2.76,8.48a65.11,65.11,0,0,1,1.95,10c.33,3.17.54,20.23-5.35,14.92-3.77-3.39-6.21-9.95-7.57-14.64a43.05,43.05,0,0,1-1.26-17.71c.32-2.36-3.3-3.38-3.62-1Z"/><path class="cls-1" d="M67.7,532.57a23.58,23.58,0,0,0,2.56,16c1.17,2.11,4.41.22,3.24-1.89a19.44,19.44,0,0,1-2.18-13.16c.44-2.36-3.17-3.37-3.62-1Z"/><path class="cls-1" d="M63.65,541.51l-1.29.39.5,3.68,12.36-3.82c2.3-.71,1.32-4.33-1-3.62L61.87,542a1.88,1.88,0,0,0,.5,3.68,4.75,4.75,0,0,0,3.94-1.49c1.75-1.67-.91-4.32-2.65-2.65Z"/><path class="cls-1" d="M71.38,520.16a210.4,210.4,0,0,0,9.23,32c.84,2.24,4.47,1.27,3.62-1a210.4,210.4,0,0,1-9.23-32c-.48-2.36-4.1-1.36-3.62,1Z"/><path class="cls-1" d="M74.44,521.73c2.85-.37,6.4-.1,7.93,2.76,1.16,2.17-.33,6.16-3.27,4.53-2.11-1.17-4,2.06-1.89,3.24,4.55,2.53,9.87-1.43,9.42-6.44-.55-6-6.87-8.52-12.18-7.83-2.36.31-2.39,4.06,0,3.75Z"/><path class="cls-1" d="M85.68,516.64a55.5,55.5,0,0,0,7.51,26.07c.74,1.27,3.19,1.22,3.43-.45a307.63,307.63,0,0,0,3.22-42.13c0-2.41-3.73-2.42-3.75,0A300.43,300.43,0,0,1,93,541.27l3.43-.45a51.24,51.24,0,0,1-7-24.18c-.09-2.41-3.84-2.42-3.75,0Z"/><path class="cls-1" d="M473.29,17.73,452.82,49.58a1.89,1.89,0,0,0,1.62,2.82l38.74.11c2.41,0,2.42-3.74,0-3.75l-38.74-.11,1.62,2.82,20.47-31.85c1.31-2-1.94-3.92-3.24-1.89Z"/><path class="cls-1" d="M473.94,16.38c-2.25,5.07,1.79,10.65,4,15.15,3.48,7.15,7.29,14.12,11.35,21,1,1.74,3.28.79,3.49-.95l.48-3.83c.3-2.39-3.45-2.37-3.75,0L489,51.54l3.49-.95c-2.92-4.92-5.73-9.91-8.36-15q-1.75-3.39-3.41-6.82c-1.17-2.42-4.78-7.77-3.57-10.51,1-2.19-2.26-4.1-3.24-1.89Z"/><path class="cls-1" d="M382.58,465.19a22.8,22.8,0,0,1,2.91-8.91l-2.94.38a51.48,51.48,0,0,1,7.12,11.2c.72,1.52,3,1,3.43-.45a42.46,42.46,0,0,1,4.43-10l-2.94.38,5.75,7.43c1.08,1.4,3.12.11,3.2-1.33a9.88,9.88,0,0,1,1.92-5.39H402.2l4.88,6.45c.74,1,2.6,1.44,3.24,0a37.13,37.13,0,0,1,5.32-8.76H413l5.49,7.09a1.88,1.88,0,0,0,2.65,0l5.36-6.19-2.27.29c1.17.52.78,3,2.4,3.74a2.69,2.69,0,0,0,3.19-.94,2,2,0,0,0,.29-2.27l-.23-.48c-1.06-2.17-4.3-.27-3.24,1.89l.23.48.29-2.27c.94-1.09,1.54-.8.57-2.3a3.12,3.12,0,0,0-1.62-1.09,1.94,1.94,0,0,0-2.27.29l-5.36,6.19h2.65l-5.49-7.09a1.88,1.88,0,0,0-2.65,0,40.66,40.66,0,0,0-5.91,9.52h3.24l-4.88-6.45a1.91,1.91,0,0,0-3.24,0,13.44,13.44,0,0,0-2.43,7.28l3.2-1.33-5.75-7.43c-.76-1-2.39-.54-2.94.38a46.23,46.23,0,0,0-4.81,10.91l3.43-.45a55.49,55.49,0,0,0-7.7-12,1.89,1.89,0,0,0-2.94.38,27.74,27.74,0,0,0-3.42,10.8c-.27,2.39,3.48,2.38,3.75,0Z"/><path class="cls-1" d="M133.43,439.84a21.72,21.72,0,0,1,3.81-6l-3.2-1.33a39.89,39.89,0,0,0,1.3,11,1.89,1.89,0,0,0,3.13.83,74.15,74.15,0,0,0,7.83-8.57l-3.2-1.33a33.87,33.87,0,0,0,2.86,12,1.88,1.88,0,0,0,2.94.38l6.57-7.86-3.13-.83,1.32,7.19a1.89,1.89,0,0,0,3.13.83l4.93-4.95-2.94-.38,3.76,7.81c.58,1.2,2.08,1.05,2.94.38a13.64,13.64,0,0,0,4.66-6.56l-3.68-.5,1.1,8.71a1.92,1.92,0,0,0,2.37,1.81,5.51,5.51,0,0,0,4.15-2.76c1.38-2-1.87-3.86-3.24-1.89l-1.91,1,2.37,1.81-1.1-8.71a1.89,1.89,0,0,0-3.68-.5,10.31,10.31,0,0,1-3.69,4.9l2.94.38L162,438.94a1.89,1.89,0,0,0-2.94-.38l-4.93,4.95,3.13.83L156,437.14a1.89,1.89,0,0,0-3.13-.83l-6.57,7.86,2.94.38a28.54,28.54,0,0,1-2.34-10.15c-.07-1.44-2.12-2.71-3.2-1.33a74.15,74.15,0,0,1-7.83,8.57l3.13.83a36.49,36.49,0,0,1-1.17-10,1.89,1.89,0,0,0-3.2-1.33,25.09,25.09,0,0,0-4.4,6.76c-1,2.19,2.27,4.1,3.24,1.89Z"/><path class="cls-1" d="M131.4,461.3l-.2-.35a2,2,0,0,0-2.12-.86,2.38,2.38,0,0,0-1.93,1.37,1.85,1.85,0,0,0,0,1.89c1.67,2.49,5.1,2.72,7.83,3.41a141,141,0,0,0,14.57,2.87,146.18,146.18,0,0,0,28.28,1.23c2.39-.12,2.43-3.79,0-3.75l-5,.08c-2.41,0-2.42,3.79,0,3.75l5-.08v-3.75a144.88,144.88,0,0,1-23.17-.59q-6.21-.68-12.34-1.93-2.73-.56-5.43-1.22-1.35-.33-2.7-.69-2.34-1.36-4.1,1l-2.12-.86.2.35c1.18,2.11,4.42.22,3.24-1.89Z"/><path class="cls-1" d="M127.31,478.42a174.68,174.68,0,0,0,27.31,3.29q6.75.26,13.51,0c2.4-.1,6.35.53,8.15-1.48a1.9,1.9,0,0,0,0-2.65l-.36-.32a1.91,1.91,0,0,0-2.65,0l-.24.26c-1.65,1.76,1,4.41,2.65,2.65l.24-.26h-2.65l.36.32v-2.65c-.45.5-4.91.36-5.49.39q-2.89.13-5.79.15-5.31,0-10.62-.25a168.54,168.54,0,0,1-23.42-3c-2.36-.47-3.37,3.15-1,3.62Z"/><path class="cls-1" d="M288.85,165c-2.51-7.39-12.28-6.51-13.66,1.08-1.66,9.12,7.81,12.76,14.94,14.41a1.89,1.89,0,0,0,1.82-.48c3.84-4.14,9.88-13.11,6.11-18.92a5.75,5.75,0,0,0-7.09-2c-3.27,1.29-4.69,4.54-5.9,7.6-.89,2.24,2.74,3.22,3.62,1,.48-1.21,1.56-4.41,3-4.79l3.48.81.16,1.29a6.72,6.72,0,0,1-.48,2.81,23.65,23.65,0,0,1-5.56,9.57l1.82-.48c-3.94-.91-9.22-1.93-11.49-5.69a6.47,6.47,0,0,1-.66-4.9c.9-3.16,5-4.08,6.26-.29.77,2.27,4.39,1.3,3.62-1Z"/><path class="cls-1" d="M214.33,182.37l.1.38.48-1.82q1.17-.38-.34-1.3-.52-.73-1-1.5a23.53,23.53,0,0,1-1.26-2.37c-.3-.66-1.84-3.43.54-3.39,1.18,0,2.31,2.17,2.82,3a1.88,1.88,0,0,0,3.43-1.44c-.3-1.66,2.37-1.58,3.1-.75a4,4,0,0,1,.44,3.62c-.8,2.66-3.57,4.33-5.74,5.77-2,1.32-.13,4.57,1.89,3.24,4.63-3.05,10.74-8.75,6.54-14.74-3.2-4.57-10.87-1.73-9.85,3.86l3.43-1.44c-1.67-2.62-4-5.44-7.48-4.8-3.26.59-4.29,3.59-3.37,6.52.87,2.77,2.8,7.29,5.45,8.8,2.05,1.17,5.14.14,4.42-2.58-.62-2.33-4.24-1.34-3.62,1Z"/><path class="cls-1" d="M113.51,581.27a64,64,0,0,0,22.91-2.55c2.31-.69,1.32-4.31-1-3.62a61.11,61.11,0,0,1-21.91,2.42c-2.41-.17-2.4,3.58,0,3.75Z"/><path class="cls-1" d="M114.16,562.72c2.21,4,10.63,3.24,14.54,3.33a80.92,80.92,0,0,0,21.08-2.47,1.9,1.9,0,0,0,.45-3.43l-2.59-1.63c-2.05-1.29-3.93,2-1.89,3.24l2.59,1.63.45-3.43a77.57,77.57,0,0,1-16.3,2.32c-2.49.07-13.82.83-15.08-1.45-1.16-2.12-4.4-.23-3.24,1.89Z"/><path class="cls-1" d="M388.93,593.06l2.9-6.28-3.49-.95A27.87,27.87,0,0,0,390.85,596c.61,1.35,2.55,1.08,3.24,0l5.28-8.33h-3.24l3.46,7.42c.86,1.85,3.34.7,3.49-.95a7.07,7.07,0,0,1,2.47-5.25l-3.13-.83A31.61,31.61,0,0,0,405.1,594a1.89,1.89,0,0,0,2.57.67,25.46,25.46,0,0,0,5-4.62l-3.13-.83,2.35,6.5a1.89,1.89,0,0,0,3.62,0,11.31,11.31,0,0,1,3.92-5.07l-2.94-.38,2.7,4.28a1.89,1.89,0,0,0,3.49-.95l1.69-3.37c1.78-1.64-.88-4.29-2.65-2.65a8,8,0,0,0-2.79,6l3.49-.95-2.7-4.28a1.91,1.91,0,0,0-2.94-.38,14.7,14.7,0,0,0-4.88,6.73h3.62l-2.35-6.5c-.43-1.19-2.17-2-3.13-.83a21,21,0,0,1-4.21,4l2.57.67A27,27,0,0,1,406,587a1.9,1.9,0,0,0-3.13-.83,12.2,12.2,0,0,0-3.56,7.9l3.49-.95-3.46-7.42c-.63-1.34-2.55-1.09-3.24,0l-5.28,8.33h3.24a22.57,22.57,0,0,1-2-8.24c-.1-1.69-2.65-2.77-3.49-.95l-2.9,6.28c-1,2.18,2.23,4.08,3.24,1.89Z"/><path class="cls-1" d="M390.54,579a139.63,139.63,0,0,0,34.62,3.34c2.41-.07,2.42-3.82,0-3.75a135.49,135.49,0,0,1-33.62-3.21c-2.35-.53-3.35,3.09-1,3.62Z"/><path class="cls-1" d="M393,571.42l32.19,3.51c2.4.26,2.38-3.49,0-3.75L393,567.67c-2.4-.26-2.38,3.49,0,3.75Z"/><path class="cls-1" d="M392.3,562.78a14.76,14.76,0,0,1,3.58-6.34h-2.65c2,2.35,3.93,4.77,5.74,7.29a1.9,1.9,0,0,0,3.24,0l4.44-8.32h-3.24l5.51,7.33a1.92,1.92,0,0,0,2.57.67,36.82,36.82,0,0,0,7.21-5.6l-3.2-1.33c.13,2.94.6,6.21,3.62,7.52,2.14.93,6.14-1.91,7.15-.1,1.17,2.11,4.41.22,3.24-1.89-1-1.81-2.31-3.66-4.59-3.61-1.07,0-1.33.58-2.28.8a4,4,0,0,0-1,1q-3.11-.61-2.35-3.75a1.9,1.9,0,0,0-3.2-1.33,33,33,0,0,1-6.45,5l2.57.67-5.51-7.33a1.9,1.9,0,0,0-3.24,0L399,561.84h3.24c-2-2.79-4.09-5.46-6.32-8.05a1.89,1.89,0,0,0-2.65,0,19.06,19.06,0,0,0-4.55,8c-.67,2.32,2.95,3.31,3.62,1Z"/><path class="cls-1" d="M393.43,547.69a63.1,63.1,0,0,0,37.9,2.9c2.35-.54,1.36-4.15-1-3.62a59.64,59.64,0,0,1-35.91-2.9c-2.24-.9-3.21,2.73-1,3.62Z"/><path class="cls-1" d="M394.72,538.12l18.77,2,8.89,1c1.9.2,8.43-.2,9.61,1.11v-2.65l-.36.36h2.65l-.29-.25c-1.81-1.59-4.47,1.06-2.65,2.65l.29.25a1.91,1.91,0,0,0,2.65,0l.36-.36a1.92,1.92,0,0,0,0-2.65c-1.16-1.3-2.69-1.19-4.36-1.37l-11.85-1.27-23.71-2.54c-2.4-.26-2.38,3.5,0,3.75Z"/><path class="cls-1" d="M399.16,525.06l1.7-4.1-3.43.45a45.35,45.35,0,0,1,2.82,8.73c.46,2.09,3.69,1.59,3.68-.5a8.55,8.55,0,0,1,3.74-7.48l-2.27-.29a26.1,26.1,0,0,0,5,3.91,1.89,1.89,0,0,0,2.75-1.12,24.36,24.36,0,0,1,2.73-6.12l-3.43-.45a39.69,39.69,0,0,0,3.94,9.11,1.9,1.9,0,0,0,3.43-.45,21.62,21.62,0,0,1,4-8.15l-2.57.67a8.28,8.28,0,0,1,2.65,9.94l3.49.95a19.05,19.05,0,0,1,3.41-10.66h-3.24l5.05,10a1.89,1.89,0,0,0,3.24,0l5.23-8c1.33-2-1.92-3.9-3.24-1.89l-5.23,8h3.24l-5.05-10a1.89,1.89,0,0,0-3.24,0,22.54,22.54,0,0,0-3.92,12.55c0,1.74,2.74,2.72,3.49.95a12.22,12.22,0,0,0-4-15.08c-.87-.67-2,0-2.57.67a24.11,24.11,0,0,0-4.36,9l3.43-.45a36,36,0,0,1-3.56-8.22,1.9,1.9,0,0,0-3.43-.45,27.94,27.94,0,0,0-3.11,7l2.75-1.12a22.28,22.28,0,0,1-4.23-3.32,1.9,1.9,0,0,0-2.27-.29,12.54,12.54,0,0,0-5.6,10.72l3.68-.5a50,50,0,0,0-3.2-9.62c-.74-1.66-2.89-.85-3.43.45l-1.7,4.1c-.92,2.23,2.7,3.2,3.62,1Z"/><path class="cls-1" d="M265.67,280.43a5.83,5.83,0,0,0-2.41,5.85c.29,2.34,3.66,2.48,3.75,0l1-28.4-3.49.95,8.59,16.37a1.89,1.89,0,0,0,3.49-.95q-.35-13.31.35-26.6l-3.49.95,10.74,24.71c.65,1.49,3.1,1,3.43-.45l2.06-9.37-3.13.83L296,273a1.89,1.89,0,0,0,3.13-1.82l-7-40.15-3.43,1.44a182,182,0,0,0,24.42,31.11c1.42,1.45,3.41-.1,3.13-1.82L314,247.19l-2.31,2.31a48,48,0,0,1,10.43,4.76c1.54.93,3-.6,2.75-2.12l-1.7-11.61-1.81,2.37,3.55.81a1.9,1.9,0,0,0,2.82-1.62l2.74-2.16c2.35.53,3.35-3.08,1-3.62a5.88,5.88,0,0,0-7.49,5.78l2.82-1.62a14.54,14.54,0,0,0-5.44-1.32,1.9,1.9,0,0,0-1.81,2.37l1.7,11.61L324,251a52.06,52.06,0,0,0-11.33-5.14c-1.49-.48-2.51,1-2.31,2.31l2.29,14.55,3.13-1.82A177.51,177.51,0,0,1,292,230.56a1.88,1.88,0,0,0-3.43,1.44l7,40.15,3.13-1.82-9.43-8.66a1.89,1.89,0,0,0-3.13.83l-2.06,9.37,3.43-.45-10.74-24.71c-.8-1.84-3.41-.73-3.49.95q-.71,13.3-.35,26.6l3.49-.95-8.59-16.37c-.9-1.72-3.43-.82-3.49.95l-1,28.4H267l1.31-3.2c1.89-1.49-.78-4.13-2.65-2.65Z"/><path class="cls-1" d="M120.31,542.37l1.82-2.37-2.31-1.31c.66,2.65.8,8.17,3.8,9.43,3.7,1.55,5.67-5.52,6.62-5.2l-1.38-1.81c0,3.41,1.27,8.33,5.84,7.2a3.73,3.73,0,0,0,2.74-2.57c.26-.59-.25-1.42,0-1.93q1.6-4,4.62,1.79a21.64,21.64,0,0,1,.37,3.86c.07,1.71,2.66,2.74,3.49.95.13-.28,3.75-7.67,4.88-3.17.59,2.34,4.2,1.35,3.62-1a5,5,0,0,0-5.52-3.78c-3.25.33-5,3.4-6.21,6l3.49.95c-.18-4.46-1.14-10.54-6.73-10.87a5.85,5.85,0,0,0-4.8,1.85c-.56.68-.54,1.9-1,2.43a1.89,1.89,0,0,0,0,1,2.55,2.55,0,0,1-1-2.75,1.92,1.92,0,0,0-1.38-1.81c-2.06-.68-3.55,0-4.79,1.89,0,0-1.31,3-1.41,3s-1.47-5.91-1.61-6.46a1.89,1.89,0,0,0-2.31-1.31,6.12,6.12,0,0,0-4.44,5c-.46,2.36,3.15,3.37,3.62,1Z"/><path class="cls-1" d="M472.18,307.29q-3-.16-3.1,2.66l-.6,1.86q-.91,2.79-1.83,5.58-2,6-4,12.07-3.94,11.59-8.09,23.1c-.71,2,2.49,3.35,3.43,1.44a242.3,242.3,0,0,1,30-46.67l-3.13-1.82q-16.7,49.21-32.77,98.62c-.76,2.34,2.74,3.19,3.62,1a349.46,349.46,0,0,1,36.69-68.56l-3.43-1.44q-15.33,43.16-27.44,87.36c-.55,2,2.47,3.4,3.43,1.44a359.11,359.11,0,0,1,30-50.33l-3.43-1.44q-7.58,22-13,44.62a1.88,1.88,0,0,0,3.43,1.44A75.07,75.07,0,0,1,495,402.62l-3.2-1.33a119.71,119.71,0,0,1-4.83,21.25,1.9,1.9,0,0,0,2.75,2.12A58.89,58.89,0,0,0,506,411.47l-3.2-1.33a32.92,32.92,0,0,1-4,13.55l3.49.95.62-6.28c.24-2.4-3.51-2.38-3.75,0l-.62,6.28c-.19,1.88,2.65,2.51,3.49.95a37.9,37.9,0,0,0,4.55-15.44,1.89,1.89,0,0,0-3.2-1.33,56.11,56.11,0,0,1-15.5,12.6l2.75,2.12a125.06,125.06,0,0,0,5-22.25c.23-1.74-2.13-2.3-3.2-1.33a78.78,78.78,0,0,0-13.71,16.36l3.43,1.44q5.46-22.62,13-44.62c.74-2.14-2.27-3.07-3.43-1.44a359.11,359.11,0,0,0-30,50.33l3.43,1.44q12.11-44.18,27.44-87.36c.75-2.11-2.29-3.1-3.43-1.44A353.64,353.64,0,0,0,452,404.13l3.62,1q16.06-49.42,32.77-98.62c.58-1.72-1.94-3.28-3.13-1.82a246.39,246.39,0,0,0-30.56,47.43l3.43,1.44q7-19.35,13.36-38.89c.7-2.14,3.76-7.6.91-9.54-1.9-1.29-3.78.24-4,2.16-.23,2.4,3.52,2.38,3.75,0Z"/><path class="cls-1" d="M207,218.87A84.33,84.33,0,0,1,185.11,238l2.75,1.12c-2-12.11,11.69-20.38,14-31.64a1.9,1.9,0,0,0-1.31-2.31c-6.08-.94-10.1,3.1-14.27,7l-19,17.7,3.13,1.82c5-14.76,19.21-24.4,22.71-39.9a1.89,1.89,0,0,0-1.81-2.37c-3.9.37-6.59,2.28-9.37,4.94-4.32,4.14-8.47,8.48-12.67,12.74q-12.77,13-25.33,26.12l3.13,1.82c7.21-23.34,28.52-38.35,39-60a1.89,1.89,0,0,0-2.57-2.57c-17.93,8.2-31.82,22.33-45.29,36.34l3.13,1.82c4.27-17.74,21.4-28.73,25.64-46.56a1.9,1.9,0,0,0-2.75-2.12,137.34,137.34,0,0,0-24.22,19l2.94,2.27a109.67,109.67,0,0,1,14.48-22.69c1-1.25.1-3.93-1.82-3.13a43,43,0,0,0-11.65,7.13L147,166.9l5.9-13.13c.83-1.86-1.32-3.85-2.94-2.27l-8.65,8.41c-1.73,1.69.92,4.34,2.65,2.65l8.65-8.41-2.94-2.27L143.78,165a1.88,1.88,0,0,0,2.94,2.27,37.12,37.12,0,0,1,10-6.17L154.89,158a113.65,113.65,0,0,0-15.07,23.45c-.89,1.85,1.35,3.84,2.94,2.27a133,133,0,0,1,23.46-18.43l-2.75-2.12c-4.22,17.76-21.35,28.75-25.64,46.56a1.89,1.89,0,0,0,3.13,1.82c13.27-13.8,26.87-27.68,44.53-35.75l-2.57-2.57c-10.64,21.93-32,37.1-39.38,60.85a1.89,1.89,0,0,0,3.13,1.82q10.58-11.08,21.3-22,5.36-5.47,10.76-10.9c3.36-3.38,7.54-9.3,12.65-9.78l-1.81-2.37c-3.47,15.37-17.67,25.16-22.71,39.9-.64,1.86,1.84,3,3.13,1.82l13.34-12.45c3.85-3.6,10.3-12.18,16.24-11.26l-1.31-2.31c-2.58,12.39-16.35,19.85-14,33.64a1.89,1.89,0,0,0,2.75,1.12,87.22,87.22,0,0,0,22.63-19.75c1.5-1.86-1.13-4.53-2.65-2.65Z"/><path class="cls-1" d="M116.59,509.25c-7.69,4.84,9.18,11.41,12.08,12.44a62.21,62.21,0,0,0,32.42,2.25c2.37-.45,1.37-4.06-1-3.62a58.22,58.22,0,0,1-21.52.14,59.35,59.35,0,0,1-8.91-2.38c-.55-.19-11.26-5.55-11.19-5.59,2-1.28.16-4.53-1.89-3.24Z"/><path class="cls-1" d="M130.89,372.35l-3.46,9.83c-.69,2,1.83,2.86,3.13,1.82l4.94-3.92-3.2-1.33-.14,7.8a1.9,1.9,0,0,0,2.37,1.81,12.62,12.62,0,0,0,4.38-1.72l-2.75-1.12a13.19,13.19,0,0,1,.87,5,1.89,1.89,0,0,0,2.37,1.81,17,17,0,0,0,7.39-5.33l-3.2-1.33.33,11.33a1.9,1.9,0,0,0,3.2,1.33l3.76-4.18-3.13-.83a37.34,37.34,0,0,0,3.09,6.95,1.89,1.89,0,0,0,2.94.38l4.34-5.26-3.2-1.33c.12,3.37.81,7.91,4.89,8.51a4.42,4.42,0,0,0,5.31-4.21l-3.49.95a34,34,0,0,0,4.25,6,1.91,1.91,0,0,0,2.65,0l3.83-3.37-2.94-.38a6.28,6.28,0,0,0,6.45,4c2.41-.09,2.42-3.84,0-3.75l-3.21-2.13c-.51-1.19-2.14-1.08-2.94-.38l-3.83,3.37h2.65a28.28,28.28,0,0,1-3.66-5.21,1.89,1.89,0,0,0-3.49.95q-3-1.47-2.7-4.29c-.05-1.48-2.1-2.66-3.2-1.33L151.13,398l2.94.38a32.81,32.81,0,0,1-2.71-6.05,1.89,1.89,0,0,0-3.13-.83l-3.76,4.18,3.2,1.33-.33-11.33c0-1.48-2.12-2.67-3.2-1.33a13.45,13.45,0,0,1-5.74,4.36l2.37,1.81a15.68,15.68,0,0,0-1-6A1.9,1.9,0,0,0,137,383.4a6.89,6.89,0,0,1-3.48,1.34l2.37,1.81.14-7.8c0-1.77-2-2.28-3.2-1.33l-4.94,3.92,3.13,1.82,3.46-9.83c.8-2.28-2.82-3.26-3.62-1Z"/><path class="cls-1" d="M374.09,420.54a5.45,5.45,0,0,0-.75,5.73,1.88,1.88,0,0,0,3.62-1l2.84,2.12a1.89,1.89,0,0,0,3.62,0l1.72-4.38-3.13.83,3.89,3.68a1.9,1.9,0,0,0,3.2-1.33l.48-8.09-3.49.95a44.59,44.59,0,0,1,4.62,9.43,1.89,1.89,0,0,0,3.68-.5l1.32-10-3.2,1.33a20.14,20.14,0,0,1,5.78,8.17c.54,1.4,2.6,2,3.43.45A18.8,18.8,0,0,0,404,417.27l-3.2,1.33a28.46,28.46,0,0,1,5.43,8.95,1.88,1.88,0,0,0,3.68-.5,32.5,32.5,0,0,1,2-10.21l-3.43.45L414.8,428a1.9,1.9,0,0,0,3.43-.45,28.69,28.69,0,0,0,1.21-10.72l-1.87,1.88c1.44.19,2.46,3.59,3.79,4.43a3.7,3.7,0,0,0,3.68.45c3.28-1.49,3-7.5,3-10.43l-2.82,1.62a32.32,32.32,0,0,1,7.25,7,1.91,1.91,0,0,0,3.24,0,11.69,11.69,0,0,0,2.16-8.48l-3.49.95a9.62,9.62,0,0,0,6.57,5.18,1.9,1.9,0,0,0,2.37-1.81l.6-6.35-3.49.95a22.59,22.59,0,0,0,3.85,4.35,1.9,1.9,0,0,0,3.13-.83,18.13,18.13,0,0,0,1.19-6.28l-3.49.95a32,32,0,0,0,3.68,6.16,1.9,1.9,0,0,0,2.94.38,8.49,8.49,0,0,0,2.53-6.76l-2.82,1.62,2.71,1.9c2,1.39,3.86-1.86,1.89-3.24l-2.71-1.9a1.89,1.89,0,0,0-2.82,1.62l-1.43,4.11,2.94.38a32,32,0,0,1-3.68-6.16c-.81-1.78-3.46-.78-3.49.95a14,14,0,0,1-1.06,5.28l3.13-.83a18,18,0,0,1-3.26-3.59,1.89,1.89,0,0,0-3.49.95l-.6,6.35,2.37-1.81a5.32,5.32,0,0,1-4.33-3.46c-.83-1.58-3.69-.93-3.49.95a9.64,9.64,0,0,1-1.65,6.59h3.24a38.46,38.46,0,0,0-8.6-8.33,1.89,1.89,0,0,0-2.82,1.62c0,.58-.11,6.33-.73,6.43-.91.15-2-2.39-2.44-2.88a4.78,4.78,0,0,0-3.6-1.76,1.88,1.88,0,0,0-1.87,1.88,26.24,26.24,0,0,1-1.08,9.72l3.43-.45-6.32-10.68a1.9,1.9,0,0,0-3.43.45A35.71,35.71,0,0,0,406.2,427l3.68-.5a33.94,33.94,0,0,0-6.39-10.6,1.89,1.89,0,0,0-3.2,1.33,15,15,0,0,1-1.81,8.81l3.43.45a24.05,24.05,0,0,0-6.75-9.82A1.9,1.9,0,0,0,392,418l-1.32,10,3.68-.5a48.94,48.94,0,0,0-5-10.32,1.89,1.89,0,0,0-3.49.95l-.48,8.09,3.2-1.33-3.89-3.68a1.9,1.9,0,0,0-3.13.83l-1.72,4.38h3.62c-1-2.82-3-6.19-6.54-5.62a4.31,4.31,0,0,0-3.54,5.49l3.62-1,.37-2.84c1.43-1.95-1.82-3.82-3.24-1.89Z"/><path class="cls-1" d="M225.76,235.16c-6.55,2.6-15.62,6.48-16.22,14.68-.45,6.2,4,12.3,10.57,11.25l-1.44-3.43c-7.2,3.53-14.19,13.56-8,21.15,4.24,5.23,13,6,16.83,0L224.22,277c-3.51,6.53-3.27,16,3.7,20.25,5.62,3.43,13.4,1.75,16.64-4a1.88,1.88,0,0,0-3.24-1.89c-4.24,6.75.49,15.73,8.18,16.94,8.41,1.31,17.79-5.9,17.54-14.63l-3.68.5c1.43,7.6,9.76,13.13,17.3,10.4s10.32-12.24,6.69-19.06l-2.94,2.27c9.31,11.62,26.58-.2,19.95-13.24l-2.94,2.27a15,15,0,0,0,23.16-18l-3.24,1.89c2.42,4.51,8.28,5.56,12.57,3,5.41-3.27,5.75-10.34,4.53-15.86l-2.75,2.12c4.93,3.31,12.55,1.6,14.76-4.24,2.35-6.22-2.67-12.25-8.73-13-2.39-.3-2.37,3.45,0,3.75,4.1.51,7.37,5.75,4.37,9.26a6.35,6.35,0,0,1-8.51,1c-1.44-1-3.08.62-2.75,2.12.72,3.24,1,7.26-1.22,10s-7,3.74-9,0c-1.17-2.18-4.18-.26-3.24,1.89a11.26,11.26,0,0,1-17.27,13.46,1.88,1.88,0,0,0-2.94,2.27c4.79,9.42-7.59,16.76-14.06,8.7-1.38-1.72-3.9.47-2.94,2.27,2.59,4.88.6,11.84-4.93,13.66S268,298.53,267,293.08c-.39-2.09-3.74-1.59-3.68.5.18,6.1-6.42,11.48-12.35,11-5.47-.45-9.53-6.39-6.38-11.4l-3.24-1.89a8.23,8.23,0,0,1-11.76,2.48c-4.8-3.44-4.66-10.16-2.11-14.91a1.88,1.88,0,0,0-3.24-1.89c-2.74,4.25-9.52,2.28-11.43-1.76-2.81-5.94,2.89-11.9,7.77-14.3,2.05-1,.49-3.74-1.44-3.43-6.36,1-6.57-8.09-4.07-11.45,2.78-3.73,7.52-5.59,11.71-7.25,2.22-.88,1.25-4.51-1-3.62Z"/><path class="cls-1" d="M419.08,131.65a7.21,7.21,0,0,1-4.11.64,1.9,1.9,0,0,0-1.81,2.37c.4,2.81,1.63,5.33,4.82,5.39a5.36,5.36,0,0,0,5.3-3.95c1.08-5.53-7.14-7.09-9.45-2.59a2,2,0,0,0,.29,2.27,5,5,0,0,0,8.64-2.16,1.92,1.92,0,0,0-.86-2.12c-2.84-1.67-8.26-3.44-9.45,1.16a3.7,3.7,0,0,0,4.26,4.8,1.92,1.92,0,0,0,1.31-2.31c-.59-3.63-6.16-5.12-7.68-1.25-1.64,4.16,4,7,7.31,5.21,2.3-1.23,3.25-3.91,3.87-6.25,1.26-4.8,1.93-9.85,2.87-14.72l6-30.86-3.68-.5c-.27,5.37,2.15,9.94,5.94,13.64a38,38,0,0,0,6.19,4.79,27.7,27.7,0,0,1,3.6,2.2c5.23,4.63-.8,10.46-4.75,5.47-1.5-1.89-4.13.78-2.65,2.65,4.78,6.05,14.82,2.29,13.43-5.67-.71-4.11-4.56-5.86-7.74-7.88-5.41-3.44-10.62-8.3-10.27-15.19.1-2.08-3.28-2.59-3.68-.5l-4.86,25.07-2.24,11.57c-.37,1.93-.74,3.86-1.12,5.79q-.29,1.58-.63,3.15a5.45,5.45,0,0,1-3.5,4.29l1.31-2.31a3.57,3.57,0,0,1,4.29.89l-.86-2.12-2.37.51.29,2.27a4.41,4.41,0,0,1-.3-1.74L415,136a12.93,12.93,0,0,0,5.11-.78c2.26-.8,1.29-4.42-1-3.62Z"/><path class="cls-1" d="M476.37,159.12a3.57,3.57,0,0,0-.1,5.57,1.85,1.85,0,0,0,1.82.48,7.71,7.71,0,0,0,3.78-2.66,1.93,1.93,0,0,0,0-2.65,4.9,4.9,0,0,0-8.39,2,1.93,1.93,0,0,0,1.31,2.31,3.84,3.84,0,0,0,5.17-2,1.92,1.92,0,0,0-.29-2.27c-2.89-2.69-7.87.12-6.45,4a1.92,1.92,0,0,0,2.31,1.31c6.73-1.73,5.91-10.51,6.06-15.88l.93-32.51-3.68.5a27,27,0,0,0,7.8,10.95c1.77,1.46,3.79,2.41,5.67,3.69a8.67,8.67,0,0,1,2.82,2.54l-1.63,3.72c-.93.54-3.9-1-4.73-1.31-2.22-.93-3.19,2.69-1,3.62,4.84,2,12.74,1.82,11.45-5.52-.55-3.14-3-5.07-5.6-6.65-5-3.07-8.89-6.5-11.16-12-.77-1.87-3.62-1.76-3.68.5l-.65,22.95-.33,11.47c-.09,3,.64,9.35-3.25,10.35l2.31,1.31.18-.37-.29-2.27-.93.25,1.31,2.31,2.12-.35v-2.65l-.2,1.91c1.83-1.58-.83-4.22-2.65-2.65Z"/><path class="cls-1" d="M189.64,33.67l11.83,3.25a1.88,1.88,0,0,0,1-3.62l-11.83-3.25a1.88,1.88,0,0,0-1,3.62Z"/><path class="cls-1" d="M190.64,23l12.68,2.61c2.36.48,3.36-3.13,1-3.62l-12.68-2.61c-2.36-.48-3.36,3.13-1,3.62Z"/><path class="cls-1" d="M205.55,16l4.14,2.48c2.08,1.24,4-2,1.89-3.24l-4.14-2.48c-2.08-1.24-4,2-1.89,3.24Z"/><path class="cls-1" d="M266.31,23a17.3,17.3,0,0,0,10.85-.53c2.23-.86,1.26-4.49-1-3.62a13.85,13.85,0,0,1-8.85.53c-2.33-.63-3.33,3-1,3.62Z"/><path class="cls-1" d="M268.15,36.71A30.17,30.17,0,0,0,279.58,39c2.41,0,2.42-3.72,0-3.75a27.45,27.45,0,0,1-10.43-2.19c-2.22-.93-3.19,2.7-1,3.62Z"/><path class="cls-1" d="M263.73,47.1a45.29,45.29,0,0,0,13.44,6.4c2.32.67,3.31-2.95,1-3.62a42.08,42.08,0,0,1-12.54-6c-2-1.39-3.86,1.86-1.89,3.24Z"/><rect class="cls-2" width="525" height="600"/></g></g></svg>