<svg xmlns="http://www.w3.org/2000/svg" viewBox="0 0 525 600"><defs><style>.cls-1,.cls-2{fill:none;}.cls-1{stroke:#fff;stroke-linecap:round;stroke-linejoin:round;stroke-width:2px;}</style></defs><title>tomek2</title><g id="Warstwa_2" data-name="Warstwa 2"><g id="Warstwa_1-2" data-name="Warstwa 1"><g id="Warstwa_2-2" data-name="Warstwa 2"><g id="Warstwa_1-2-2" data-name="Warstwa 1-2"><path class="cls-1" d="M236.25,261c10.58,2.53,20.91-4.52,31.67-6.13a2,2,0,0,1,2.71,2.41c.14,10.36-5.71,19.74-11.35,28.43-1.06,1.63-2.44,3.45-4.39,3.46-1.48,0-2.72-1.07-3.8-2.09L233.89,271c-1.5-1.4-3.1-3-3.13-5.08s2.7-3.91,4.1-2.42"/><path class="cls-1" d="M246.74,285.74c-4.25,10.31-2.65,22-1,33l8.58,56.52"/><path class="cls-1" d="M262.91,284.33c5.2,2.33,8,7.94,10.27,13.15,3.4,7.73,6.64,15.54,9.26,23.58,5.47,16.8,8.16,34.35,10.82,51.81"/><path class="cls-1" d="M254.58,464.74l2.33,11.16c1.91,9.12,4,18.64,10,25.8,3.82,4.58,9,7.85,14,11l14,8.85a129.86,129.86,0,0,1,9.71-20.08,36.64,36.64,0,0,0,4-7.9c2.32-7.66-1.29-15.74-4.82-22.93"/><path class="cls-1" d="M364.31,369.29l26.48-2.39c11.49-1,23.74-2.38,32.64-9.71"/><path class="cls-1" d="M334,411a54.75,54.75,0,0,1,21.7,49.72"/><path class="cls-1" d="M347.68,402.77c6.6,7.27,13.25,14.59,18.35,23s8.6,18,8.3,27.84"/><path class="cls-1" d="M119.49,415.44l-2.19-12.66,14.7,7.55a23.66,23.66,0,0,0-5.9-10.13,75,75,0,0,1,15.67,5.21,24.7,24.7,0,0,0-1.44-8.81l8.32,4a11.66,11.66,0,0,0-1.05-9.76,21.13,21.13,0,0,1,6.65,3.25,13,13,0,0,0,.28-8.78l5.08,2a37.4,37.4,0,0,0,1-11,25.73,25.73,0,0,1,8.7,5.51c-.8-1.85.79-4.15,3.09-4.47"/><path class="cls-1" d="M262.57,440.36l-9.33,6a23.25,23.25,0,0,1,6.68-11.07l-13.48,3A30.61,30.61,0,0,1,259,431.42l-17.16-6.5,14.33-4.2a101.4,101.4,0,0,1-15.85-2.32L253,411.48a36.64,36.64,0,0,0-14.76-3,96.93,96.93,0,0,1,15-4.48,103.1,103.1,0,0,1-15.87-9.16l11.51-2.47L239.36,391a20.9,20.9,0,0,0,8.62-6.14,17.92,17.92,0,0,0-9.46.71"/><path class="cls-1" d="M408.54,440.56a48.41,48.41,0,0,1-14.66-2.49,23.74,23.74,0,0,1,11.18-6.79l-6.36-8.65a24.2,24.2,0,0,1,9.25,2.23,60.08,60.08,0,0,0,.65-13,28.36,28.36,0,0,1,7.25,4.33l.18-11.93A7.81,7.81,0,0,1,421.8,407a28.69,28.69,0,0,1,2-9.73,9.43,9.43,0,0,0,2.57,4c1.27,1,3.33,1.13,4.35-.11l2.09,6"/><path class="cls-1" d="M211.77,90.19A74.66,74.66,0,0,0,198.11,79c-22-14.68-50.69-22.74-75.26-12.85a184.18,184.18,0,0,0,24.48,54.77c3.88,5.87,8.25,11.66,14.23,15.38,10.15,6.31,23,5.6,34.9,4.69"/><path class="cls-1" d="M289,96.18c1.09-20.06,19.23-35.85,38.63-41,20.11-5.39,43-1.39,58.81,12.14-3.31,20.11-19.4,35.38-35.06,48.42-7.45,6.2-15.19,12.37-24.26,15.79s-19.83,3.73-28-1.48"/><path class="cls-1" d="M292.43,105.36c-.63-6.81,3.36-13.46,8.89-17.5S313.7,82,320.47,81s13.74-1.21,20.28.73A3.91,3.91,0,0,1,343,83c.69,1,.4,2.32,0,3.47-5.61,17.79-24.56,30.35-43.13,28.6"/><path class="cls-1" d="M201,102.88a47.59,47.59,0,0,0-46-17.15l7.66,9.83a79.31,79.31,0,0,0,9.66,10.95,40.08,40.08,0,0,0,28,9.91"/><path class="cls-1" d="M220.7,84.14l-.82-21.69,15.74,15.76"/><path class="cls-1" d="M269.44,80.45a25.92,25.92,0,0,1,3.92-16.68A100.48,100.48,0,0,1,279,85.94"/><path class="cls-1" d="M27,563.57,23.2,529.7a127.4,127.4,0,0,0,16.24,35.66L39,527.92,45.46,561a129.36,129.36,0,0,1,7.86-39.32c3.79,8.9,3.81,18.86,4.74,28.49S61.23,570,68.19,576.69a302.4,302.4,0,0,1-1.94-60.48,130.2,130.2,0,0,0,10.13,48.47A101.26,101.26,0,0,0,75.64,539a106.57,106.57,0,0,0,3.15,18.25l2.68-15.34a96.57,96.57,0,0,1,4.07,16.59l3.08-19.74a124.91,124.91,0,0,0,6.67,23.58l3.06-28.81a74.63,74.63,0,0,0,11.56,34,71.77,71.77,0,0,0,2.54-23.62,94.31,94.31,0,0,0,7,20.85,131.11,131.11,0,0,0,3.22-24.87l2.69,11.63A39.25,39.25,0,0,1,126.77,539l7.31,18.18a64.73,64.73,0,0,0,.57-16,30,30,0,0,0,3.87,10.51,21.09,21.09,0,0,0,4.12-6.48l5.25,12.26c-.18-2-.28-4.22,1-5.72s4.52-1,4.51,1"/><path class="cls-1" d="M368.88,540.62l-1,6.89a54.24,54.24,0,0,1,7.94-24.8,97.24,97.24,0,0,0,8.28,27.12l3.25-20.71,13.3,26.37a83.28,83.28,0,0,1,5-34.62l5.52,35.35a128.63,128.63,0,0,1,4.29-40.41l1.9,22.23c.89,10.41,1.91,21.22,7.25,30.19a239,239,0,0,1,4.63-50.63,191.42,191.42,0,0,1,6.24,33.29,101.37,101.37,0,0,1,2.93-33.24l9.48,44.68c1.36-15.76,2.74-31.61,6.67-46.94l8.71,38.21a98.78,98.78,0,0,0,.81-19l4.65,10.27,3-15.48a88.83,88.83,0,0,1,3.47,20.22l5.4-19.08a155.16,155.16,0,0,0,2.75,20l5.94-15.61a53.2,53.2,0,0,1,.5,21.3l3.82-18,.07,15.31,3.9-6.16A11.94,11.94,0,0,1,500.9,560l.91-8.26"/><path class="cls-1" d="M453.25,246.57c-.9-4.5-4.24-8.67-8.72-9.67s-9.72,1.93-10.47,6.46,4.2,9.21,8.49,7.58a25.75,25.75,0,0,0-8.73,15.91,9,9,0,0,0,.2,4.21c1,2.74,4,4.27,6.91,4.44,6.81.41,13.15-6.2,12.47-13-1.45,3,.53,6.84,3.51,8.4s6.55,1.35,9.85.71,6.41-1.69,8.67-4,3.26-6.12,1.54-8.86-5.59-3.55-9-4a14.13,14.13,0,0,0,14.69-10.44,5,5,0,0,0-.37-4,5.86,5.86,0,0,0-2.65-1.84c-3.13-1.37-6.48-2.54-9.88-2.25s-6.86,2.39-7.76,5.69c2.71-4.15-1.09-10.7-6-10.42s-8,7.23-4.8,11"/><path class="cls-1" d="M451.14,443c-3.18-3.24-8.73-4-12.44-1.43s-4.72,8.54-1.73,12c2.38,2.72,6.53,3.37,10,2.38s6.4-3.35,9-5.89c-3.09,4.1.45,11.13,5.58,11.1a10.87,10.87,0,0,0,6.65-2.94c2.84-2.38,5.22-5.71,5.19-9.41s-3.33-7.44-7-6.85a10.33,10.33,0,0,0,8.2-3.12c3.77-4.18,1.9-11.87-3.27-14.09s-11.87,1.43-13.06,6.94c1.34-4-3.13-7.69-7.28-8.62a8.6,8.6,0,0,0-4.87.06c-3.3,1.24-4.55,5.68-3.14,8.91s4.75,5.26,8.17,6.12"/><path class="cls-1" d="M460.09,342.76c-4.5-2.74-9-6.13-10.88-11s.06-11.6,5.1-13.11c3.37-1,7.11.57,9.51,3.13s3.7,6,4.7,9.33a10.66,10.66,0,1,1,7.81,15,14.43,14.43,0,0,1,10.23,6.51c2.11,3.61,1.93,8.62-1,11.64a12.67,12.67,0,0,1-6,3.19c-3.71,1-7.84,1.06-11.23-.74s-5.78-5.79-4.88-9.53a32,32,0,0,1-7.37,4.72,4.21,4.21,0,0,1-2.63.53,3.76,3.76,0,0,1-1.83-1.23,11.31,11.31,0,0,1,9.59-18.9"/><path class="cls-1" d="M368.41,179.54c-2.54-1.79-5.51-3.34-8.6-3.06a7.92,7.92,0,1,0,8.6,8.55c-1.54,4-.88,9,2.18,12.09s8.57,3.55,11.74.59,3.09-8.07.52-11.33a11.22,11.22,0,0,0-11.25-3.55,36.68,36.68,0,0,0,10.16-3.4c2.41-1.22,5-3.9,3.6-6.2a4.84,4.84,0,0,0-2.81-1.79c-3.17-1-6.74-1.38-9.73.08s-5,5.21-3.66,8.25c.21-2.69,1.55-5.13,2.37-7.7s1-5.67-.82-7.67c-2.19-2.42-6.6-1.8-8.48.86s-1.35,6.57.75,9.06a11.8,11.8,0,0,0,8.71,3.79"/><path class="cls-1" d="M439.7,23.85c.91-4.12-3.07-8.32-7.29-8.26s-7.88,3.69-8.71,7.83.8,8.51,3.58,11.69c1.69,1.94,4,3.58,6.53,3.73s5.34-1.65,5.56-4.21A19.83,19.83,0,0,0,437,45.53c.26,3.72,2.22,7.9,5.89,8.52a7.71,7.71,0,0,0,5.37-1.42,11.8,11.8,0,0,0,5.43-10.81,9.37,9.37,0,0,0-8.29-8.28C448.93,35,452.86,36,456.57,35s7-4.47,6.5-8.27c-.61-4.7-6.12-7-10.85-7.27-3.55-.18-8.06,1.18-8.4,4.72"/><path class="cls-1" d="M151.16,197.36c4.91-4.64,3.55-14.08-2.47-17.15-3.87-2-9.78-.43-10.51,3.85-.77,4.54,4.27,7.69,8.51,9.49-4.11-3-10.79-1.18-12.78,3.48s1.43,10.78,6.46,11.41,9.89-4.6,8.8-9.54c-1.17,4.24,2.63,8.9,7,9.12,5.46.28,10.05-6.13,8-11.21s-9.75-6.59-13.53-2.65"/><path class="cls-1" d="M182.72,19.62c-.07-3.16-3.58-5.52-6.7-5s-5.55,3.24-6.45,6.26A9.7,9.7,0,0,0,171,29.59,7.35,7.35,0,0,0,179.26,32c-1.92,2.5-3.91,5.14-4.37,8.26s1.22,6.79,4.32,7.38,5.87-2,6.71-5,.18-6.08-.48-9.07a4.86,4.86,0,0,0,3.78,5,6.67,6.67,0,0,0,6.2-2.16c2.31-2.51,2.65-6.85.22-9.24s-7.4-1.44-8.24,1.87"/><path class="cls-1" d="M92.8,456.77A8,8,0,0,0,91.64,442a7.65,7.65,0,0,0-9.31,4.29c-1.31,3.56,1.28,8.07,5,8.48a14.48,14.48,0,0,0-15.43,6,4.62,4.62,0,0,0-.9,2.42c0,1.72,1.55,3,3.11,3.74A12.94,12.94,0,0,0,90,462.09c-1.82,2,1,5,3.54,5.92,3.89,1.39,9.34,1.12,10.82-2.74,1.17-3.06-1.2-6.56-4.25-7.77s-6.47-.74-9.69-.16"/><path class="cls-1" d="M49.13,414.25a7.12,7.12,0,0,0-6.1-8q-.35,0-.7-.06a7.12,7.12,0,0,0-6.53,8.3c1.26,5.62,8.38,7.21,14.13,7.67a22.16,22.16,0,0,0-13.27,13.61,6.57,6.57,0,0,0-.42,3.19c.32,1.81,1.89,3.15,3.54,4a12.74,12.74,0,0,0,15.15-3.5,8,8,0,0,0,1.85-6.21,4.81,4.81,0,0,0-4.64-4,14.12,14.12,0,0,0,11,2.76c5.34-.93,10.21-6.69,7.95-11.61-1.3-2.83-4.51-4.39-7.61-4.6s-6.17.69-9.15,1.58-6.56,3.35-5.1,6"/><path class="cls-1" d="M300.72,13.17c1.18-3.66-3.2-7-7-6.84-4.4.18-8.72,3.84-8.62,8.24s5.78,7.9,9.35,5.32c-2-1.15-4.24,1.06-5.51,3-2.44,3.74-4.73,9.17-1.41,12.15,2.37,2.13,6.37,1.26,8.59-1s3.09-5.54,3.78-8.65c-1.51,3.42,2.34,7.12,6.07,7.38,4.81.33,9.65-3.39,10.27-8.17s-3.38-9.74-8.19-9.86-8.73,3.93-11.79,7.73"/><path class="cls-1" d="M222.5,71.67l-.16,7.54V69.74a65.18,65.18,0,0,0,3.2,9.38c1,.29,1.31-1.58.36-1.91s-1.93.69-2,1.69a4.91,4.91,0,0,0,1.1,2.76l-2.55-6.13a9.93,9.93,0,0,0,.9,5.5l-.11-7.67a4.78,4.78,0,0,0,3,3,3.29,3.29,0,0,0-.85-3.93,5.49,5.49,0,0,0,4.08,4.68,23.69,23.69,0,0,0-4.71-6.32,15.89,15.89,0,0,0,8,5.47A17.55,17.55,0,0,1,225,82.63"/><path class="cls-1" d="M269.4,76.77V71.38a28.92,28.92,0,0,0,.94,8.88l-.07-8.9,1,7.11V71.4l1.87,9.91V71.9a12.68,12.68,0,0,0,1.66,7.3,6.36,6.36,0,0,0-.6-5,23.23,23.23,0,0,0,1.71,10.86"/><path class="cls-1" d="M414.85,119.09c1.91-4.92,3.64-11.06.14-15-3.89-4.4-11.72-2.27-15.1,2.53a12.68,12.68,0,0,0-2.18,10,9.63,9.63,0,0,0,7,7.2,19.54,19.54,0,0,0-18.36,6.44,5.54,5.54,0,0,0-1.5,3,5.41,5.41,0,0,0,.81,2.93c2.58,4.83,8,8.27,13.41,7.81s10.42-5.32,10.31-10.79A12.58,12.58,0,0,0,415,148.78a5.63,5.63,0,0,0,3.75.71,5.74,5.74,0,0,0,2.3-1.26c5.48-4.51,6.35-13.6,1.84-19.07-.68-.82-1.67-1.63-2.71-1.36-1.25.33-1.57,2.16-.8,3.21a4.6,4.6,0,0,0,3.44,1.54,11.79,11.79,0,0,0,12-8c1.47-5-1.39-11-6.3-12.65s-11,1.51-12.15,6.59"/><path class="cls-1" d="M438.45,177.11c-.91-3.39-1.83-6.87-1.47-10.36s2.29-7,5.57-8.31c5-1.94,10.77,2.72,11.59,8.06a12.65,12.65,0,0,1-7.37,13.17,17.84,17.84,0,0,1,9.92-1.31,9.9,9.9,0,0,1,7.55,6.07c1.79,5.2-2.81,11.1-8.27,11.83s-10.84-2.7-13.81-7.32c2.18,4.93.15,11.43-4.61,14s-11.51.4-13.67-4.53,1.12-11.54,6.42-12.53c-3.1,1-6.54-.72-8.58-3.25s-3-5.75-3.87-8.88c-.57-2-1.08-4.32.16-6s4.15-1.79,6.27-1A12.4,12.4,0,0,1,432,177.23"/><path class="cls-1" d="M61.79,85.57C54,87.78,45,81.82,44,73.79a3.32,3.32,0,0,1,.4-2.44,3.51,3.51,0,0,1,2-1.07,19.55,19.55,0,0,1,12.72.82,12.83,12.83,0,0,1,7.57,9.85,13.2,13.2,0,0,1,5-13.4,10.07,10.07,0,0,1,4.78-1.94c5.1-.54,9.89,4.6,9.24,9.69s-6.26,8.84-11.27,7.77c5.33.77,10.72,3.68,12.82,8.64s-.52,11.84-5.81,12.84c-5.95,1.13-10.63-4.8-13.76-10-.82,2.54-.17,5.28,0,7.94s-.49,5.75-2.85,7a7.39,7.39,0,0,1-3.35.67c-5.48.12-12-2.56-12.66-8s4.8-9.47,9.57-12.19"/><path class="cls-1" d="M55.39,260.68a19.58,19.58,0,0,1-14.14-9.28,9.94,9.94,0,0,1-1.62-5.27c.17-5.62,7.66-8.59,12.84-6.37S60.69,247.3,63,252.43a16.77,16.77,0,0,1,1.68-11,11,11,0,0,1,6-5.48c5.31-1.72,11.29,3.13,11.6,8.7s-4.17,10.7-9.56,12.18c5-1.47,10.89.14,13.93,4.34s2.47,10.8-1.63,14c-3.11,2.41-7.6,2.56-11.23,1a19.49,19.49,0,0,1-8.56-7.88,12.35,12.35,0,0,1-2.68,11.41c-4.62,5.11-14.11,4.76-17.9-1s.29-15,7.16-15.64"/><path class="cls-1" d="M62,170.57A24,24,0,0,1,49.17,154.9a4.4,4.4,0,0,1,2.93-6,23.78,23.78,0,0,1,10.25-2.29,10,10,0,0,1,5.16,1.16c2.57,1.55,3.7,4.81,3.55,7.8s-1.37,5.82-2.57,8.58a11.42,11.42,0,0,1,22.49-2,8,8,0,0,1,0,4.21c-.82,2.73-3.51,4.56-6.28,5.2a24.44,24.44,0,0,1-8.5-.08A11.06,11.06,0,1,1,71.06,193a11.51,11.51,0,0,1-7.16-14.42c-2.25,7.53-12.75,11-19.09,6.4a8.27,8.27,0,0,1-3.12-4c-1.12-3.57,1.33-7.49,4.63-9.24s7.21-1.84,11-1.74"/><path class="cls-1" d="M51.76,346.13c-2.81.12-5.38-1.48-7.63-3.16-3.14-2.34-6.18-5.06-7.73-8.66s-1.26-8.23,1.61-10.89c4.42-4.1,11.67-1.48,16.44,2.21,4,3.12,7.89,8,6.36,12.85.67-3.56,3.46-6.29,6.17-8.7,2.29-2,4.74-4.06,7.72-4.75,6.59-1.53,13.35,5.31,12.39,12S78.62,348.42,72,347c3.72-1.3,8,.25,10.71,3.14S86.59,357,86.87,361a8.54,8.54,0,0,1-.75,4.81,7.83,7.83,0,0,1-3.39,2.92A17.24,17.24,0,0,1,58,356.8a6.86,6.86,0,0,1-.16,10.33,10.73,10.73,0,0,1-4.51,1.75c-4.64.89-9.68.57-13.73-1.86s-6.84-7.24-6-11.89a10.19,10.19,0,0,1,11.67-7.86"/><path class="cls-1" d="M279.06,378.08c-2.7,8.25,0,17.22,3.09,25.34q4.47,11.78,10,23.12"/><path class="cls-1" d="M209.41,381c-2.54,1.92-2.14,6-.3,8.63s4.69,4.29,6.94,6.55c2.41,2.42,4.17,5.81,3.61,9.18s-4.17,6.24-7.4,5.13"/><path class="cls-1" d="M209,403.92a4.52,4.52,0,0,0-5.26.38,6.55,6.55,0,0,0-1.84,3.19,12.85,12.85,0,0,0,4.77,13.68c1.87,1.33,4.08,2.12,6,3.38,3.51,2.3,6,6.63,5,10.71s-6.33,6.8-9.76,4.38"/><path class="cls-1" d="M206.88,433.9a3.1,3.1,0,0,0-3.05-2.13c-2.4.14-3.68,2.88-4.19,5.23s-.81,5.29.53,7.47c1.6,2.61,4.88,3.49,7.61,4.87s5.38,4.4,4.12,7.19"/><path class="cls-1" d="M318.27,414.29h-1.84"/><path class="cls-1" d="M320.12,422.59l-.92.92"/><path class="cls-1" d="M322,433.66l-.92.92"/><path class="cls-1" d="M322,442.88l-.92.92"/><path class="cls-1" d="M320.12,453l-.92.92"/><path class="cls-1" d="M318.27,462.25l-.92.92"/><path class="cls-1" d="M310.9,373.72l-.92.92"/><path class="cls-1" d="M312.74,383.86l-.92.92"/><path class="cls-1" d="M313.66,392.16l-.92.92"/><path class="cls-1" d="M313.66,402.31l-.92.92"/><path class="cls-1" d="M207.58,239a3.28,3.28,0,0,1,2.33-2.64l2.72,8.18,2.48-1.81a21.17,21.17,0,0,1,3.6,3.49l9-8.79a42.29,42.29,0,0,1-1.65,16.37"/><path class="cls-1" d="M386.56,347.2a38.4,38.4,0,0,0,5.59,12.23,14.42,14.42,0,0,1,3.47-5.52l3.56,3.94,2.27-4.1a15.23,15.23,0,0,0,4.43,3.73,24.87,24.87,0,0,0,1.84-11.38"/><path class="cls-1" d="M81.5,23.59l2-4.77A4.84,4.84,0,0,0,84,16a4,4,0,0,0-1.74-2.23,12,12,0,0,0-19.06,9c-.3,4.72,4,10.08,8.43,8.53-3.68.37-7.47,1.12-10.46,3.3s-5,6.08-4,9.63c1.18,4.07,6.1,6.29,10.23,5.32s7.4-4.55,9-8.45c-1.81,2.32-1.39,5.9.53,8.14a9.94,9.94,0,0,0,8,3.08,8.22,8.22,0,0,0,5.29-1.94A5.88,5.88,0,0,0,85.08,40.3c3.48,2.28,8.73.7,10.71-3a9.15,9.15,0,0,0-2.6-11.18,11,11,0,0,0-11.78-.71"/><path class="cls-1" d="M455.11,95.8a18.93,18.93,0,0,1-5.42-8.62,10.05,10.05,0,0,1-.29-5.49c1.4-5,8.77-6.58,12.83-3.28s4.68,9.62,2.47,14.36a12.26,12.26,0,0,1,12-.39,10.2,10.2,0,0,1,5,10.66c-.9,4.11-5.13,7.33-9.29,6.74s-7-4.15-9.47-7.45c1.11,4.1,1.73,9.49-1.92,11.65a7.35,7.35,0,0,1-4.34.78c-4.53-.36-9-3.37-10.08-7.79s2.63-9.63,7.16-9.26"/><path class="cls-1" d="M108.38,127.88c-3.14,1.33-5.65-3-6-6.37a3.6,3.6,0,0,1,.4-2.52c1.17-1.58,3.81-.39,4.75,1.33s1.16,3.87,2.53,5.26c2.61-.93,5.48-1.57,8.14-.77s4.92,3.44,4.42,6.17a5.72,5.72,0,0,1-5.07,4.27,11.75,11.75,0,0,1-6.79-1.65c2.7,1,2.51,5.42.05,6.9s-5.77.51-7.93-1.38a7.51,7.51,0,0,1-2.82-5.84c.13-2.23,2-4.41,4.22-4.38"/><path class="cls-1" d="M379.23,25.74c-3.2-1.94-5.5-6.9-2.52-9.16,2.14-1.62,5.47-.22,6.79,2.12s1.23,5.19,1.09,7.87c3.82-2.31,8.74-4.62,12.45-2.14,3.54,2.36,3.12,8.48-.47,10.75s-8.9.52-10.9-3.24c-.8,2.2-1.71,4.55-3.68,5.82a5.65,5.65,0,0,1-8.11-3.1,5.65,5.65,0,0,1,5.38-6.81"/><rect class="cls-2" width="525" height="600"/></g></g></g></g></svg>