<svg xmlns="http://www.w3.org/2000/svg" viewBox="0 0 525 600.3"><defs><style>.cls-1{fill:#fff;}.cls-2{fill:#c62f84;}.cls-3{fill:none;}</style></defs><title>wojtek</title><g id="Warstwa_2" data-name="Warstwa 2"><g id="Warstwa_1-2" data-name="Warstwa 1"><path class="cls-1" d="M90.73,18.29l1.48,86.56A1.89,1.89,0,0,0,95,106.46l47.6-29.06,11.9-7.27c3.81-2.32,8.51-4.37,11.9-7.27,4.2-3.59.68-6.62-2.19-10.18-17.62-21.81-43.62-35.84-71.35-39.37-2.39-.3-2.37,3.45,0,3.75A106.3,106.3,0,0,1,159.13,52.4c1.15,1.32,5.71,5.5,5.42,7.23-.24,1.4-8.75,5.34-10.2,6.23l-20.4,12.46-40.8,24.91L96,104.84,94.48,18.29c0-2.41-3.79-2.42-3.75,0Z"/><path class="cls-1" d="M95.8,35.61a1.88,1.88,0,0,0,0-3.75,1.88,1.88,0,0,0,0,3.75Z"/><path class="cls-1" d="M94.84,34.72c24.14-3,42.37,15,57.15,31.5l.83-3.13-2.43.8c-2.28.76-1.3,4.38,1,3.62l2.43-.8a1.9,1.9,0,0,0,.83-3.13c-15.39-17.21-34.7-35.76-59.8-32.6-2.36.3-2.39,4.05,0,3.75Z"/><path class="cls-1" d="M100.44,73.17c-4.85,3.32-5.78,10.37-.91,14.17a8.61,8.61,0,0,0,13.33-3.75c2.24-5.57-1.72-11.39-7.49-12.19-6.08-.84-10.93,4.69-10.64,10.52.12,2.4,3.87,2.42,3.75,0-.17-3.3,2-6.83,5.63-6.88,3.18,0,6.21,2.84,5.6,6.11a4.87,4.87,0,1,1-7.39-4.74c2-1.36.11-4.61-1.89-3.24Z"/><path class="cls-1" d="M127.77,79.24c-3.5-2.64-3.66-8.92.09-11.44s9-.27,10.62,3.61c.94,2.21,4.17.31,3.24-1.89-2.63-6.19-11.41-8.63-16.69-4.27s-4.52,13.19.85,17.22c1.93,1.45,3.8-1.8,1.89-3.24Z"/><path class="cls-1" d="M106.42,55.66c3.72-2.42,8.33,2.69,4.34,5.68-3.7,2.78-7.38-2.57-4.5-5.53,1.68-1.73-1-4.39-2.65-2.65a7.81,7.81,0,0,0-.67,9.79,7,7,0,0,0,10.13,1.32c3.22-2.47,4.17-7.06,1.4-10.25a7.83,7.83,0,0,0-9.94-1.6c-2,1.31-.14,4.56,1.89,3.24Z"/><path class="cls-1" d="M429.15,20.75C415.58,18,395.24,23.54,392,39.22c-3.28,16.06,17.31,21.59,29,23.47,18.15,2.91,38.62,1.72,55.66-5.66,6.15-2.66,11.62-7.16,12.24-14.26s-3.39-13.4-8.74-17.64c-15.52-12.3-38.33-13.85-56.41-7-2.24.84-1.27,4.47,1,3.62,16.44-6.19,36.24-5.2,51,4.85,8.56,5.81,14.05,18,3.36,25-7,4.56-16.43,6.3-24.52,7.57a105.49,105.49,0,0,1-27.72.64c-8.18-.89-17.56-2.31-24.62-6.91-9-5.86-8.26-15.86-.21-22.46,7.21-5.91,17-7.8,26-6,2.36.47,3.36-3.14,1-3.62Z"/><path class="cls-1" d="M398.67,51.06c-5.15-1.75-13.26-2.8-14.45,4.43a5.49,5.49,0,0,0,1.59,5.2c2.66,2.25,11.34.52,8.23,6.75a1.89,1.89,0,0,0,1.62,2.82c3.38-.18,12.22-2.11,14.58.92,1.12,1.43.92,3.21,2.63,4.36,2.93,2,5.51-.1,7.46-2.35s3.07-4.84,5.47-1.11c.94,1.46.82,3.12,2.39,4.28,3.84,2.84,7.15-1.19,8.47-4.52l-1.81,1.38c5.82-.72,12.63,11.23,18.39,3.72a12.54,12.54,0,0,0,1.57-3.5c.2-.54.4-2.1.86-2.41,1-.66,2.8.88,3.51,1.37,2.09,1.45,3.45,3.13,6.25,2.66,2.33-.4,4.06-2.3,5.61-3.92,1.06-1.11,2.25-2.8,3.7-3.42,2.23-.95,3.93.47,6,1,6.93,1.69,7.34-5.24,4.48-9.68l-.29,2.27c1.42-1.57,5,.22,7-.44a4.6,4.6,0,0,0,3-3c1.47-4.5-2.9-7.12-6.37-8.59l.45,3.43a9.6,9.6,0,0,1,9.15-.6A1.9,1.9,0,0,0,500.94,51c1.75-8.18-6.72-10.33-13.08-10.21-2.41,0-2.42,3.79,0,3.75,3-.05,10.73-.44,9.47,5.47l2.75-1.12a13.64,13.64,0,0,0-12.94.6c-1.54.88-1,2.84.45,3.43q2.85.21,1.84,2.68.7,2.43-1.27,1.62c-.78.18-1.83-.26-2.66-.18a4.61,4.61,0,0,0-3.25,1.64,1.92,1.92,0,0,0-.29,2.27q1.76,1.83-.25,4.18-1.2-.42-2.38-.9a10.58,10.58,0,0,0-2.92-.65,7.76,7.76,0,0,0-4.74,1.77c-1.84,1.35-3.11,3.87-5,5-3.53,2-4.62-1.12-7.23-2.74-3.28-2-6.18-.35-7.56,2.92-.37.88-.43,2.22-1,3-2.9,4.1-6.17.33-8.22-1.22-2.43-1.85-4.65-3.16-7.78-2.77A2,2,0,0,0,433,70.84c-2.26,5.72-4.34-2.1-4.92-2.9a5.11,5.11,0,0,0-2.47-2c-2.86-1-5.06,1.16-6.78,3.14-1.23,1.42-2.51,4.45-4.65,2.15-1-1.1-.93-3-2.21-4.1s-2.78-1.2-4.48-1.26c-3.91-.13-8,.43-11.88.64l1.62,2.82a7.75,7.75,0,0,0-1.36-9.21c-1.28-1.24-2.55-1.47-4.16-2-2.51-.74-5.43-1.13-1.92-3.54,2.8-1.92,4.83-1,7.83,0,2.29.78,3.27-2.85,1-3.62Z"/><path class="cls-1" d="M393.39,61.6c-4.1,1.47-5.94,5.36-5.26,9.61.71,4.44,4,7.28,8.08,8.83,6.85,2.62,15.18,2.5,22.39,3.31,8.55,1,17.1,2.07,25.67,2.85,14.57,1.32,28.72-1,41.15-9,4.48-2.91,10.44-6.83,12.55-12a6.25,6.25,0,0,0-.28-6.12c-1.16-1.76-4.89-2.47-5.2-4.59-.35-2.38-4-1.37-3.62,1,.45,3,2.87,3,4.72,4.88,4.36,4.38-7,11.58-10.06,13.55a56,56,0,0,1-30.68,9c-11.41,0-22.93-2-34.25-3.32-5.93-.67-12.06-1-17.89-2.2-2.6-.55-5.62-1.43-7.41-3.54-2-2.37-2.49-7.37,1.1-8.66,2.25-.81,1.28-4.43-1-3.62Z"/><path class="cls-1" d="M400,77.87A4.22,4.22,0,0,0,398,83.44c1.53,3.58,6.48,3.74,9.71,4.26a295.33,295.33,0,0,0,37.19,3.71c15.85.56,47.64,3,49.05-20,.15-2.41-3.6-2.4-3.75,0C489,89.65,463.4,88,450.69,87.81q-11.65-.18-23.26-1.29-6.52-.62-13-1.54-3.36-.48-6.72-1c.13,0-7.79-1.88-5.8-2.83,2.18-1,.28-4.27-1.89-3.24Z"/><path class="cls-1" d="M389.76,74.83c-4.53,0-7.44,4.28-6.79,8.64.76,5.07,5.89,7.7,10.12,9.53,16,6.92,32.86,9.47,50.09,11,8.26.72,16.6,1.4,24.84.11,8.42-1.32,17.48-4.41,25.48-7.36C505,92.46,505.17,75.81,492,73.95c-2.36-.33-3.38,3.28-1,3.62,8.36,1.18,10,11,2.72,15-4.44,2.43-10.45,3.39-15.26,5-11.15,3.65-21.8,3.88-33.39,2.89-10.78-.91-21.53-1.95-32-4.61a127.29,127.29,0,0,1-15.56-5,43.4,43.4,0,0,1-6.68-3c-1.65-1-3.22-2.21-3.75-4.15s-.33-5,2.74-5a1.88,1.88,0,0,0,0-3.75Z"/><path class="cls-1" d="M412.33,43.31h1a1.88,1.88,0,0,0,0-3.75h-1a1.87,1.87,0,0,0,0,3.75Z"/><path class="cls-1" d="M423.92,47.18a1.88,1.88,0,0,0,0-3.75,1.88,1.88,0,0,0,0,3.75Z"/><path class="cls-1" d="M423.92,36.56a1.88,1.88,0,0,0,0-3.75,1.88,1.88,0,0,0,0,3.75Z"/><path class="cls-1" d="M432.61,44.28a1.88,1.88,0,0,0,0-3.75,1.88,1.88,0,0,0,0,3.75Z"/><path class="cls-1" d="M432.61,57.8a1.88,1.88,0,0,0,0-3.75,1.88,1.88,0,0,0,0,3.75Z"/><path class="cls-1" d="M431.64,34.62a1.88,1.88,0,0,0,0-3.75,1.88,1.88,0,0,0,0,3.75Z"/><path class="cls-1" d="M449,45.25a1.88,1.88,0,0,0,0-3.75,1.88,1.88,0,0,0,0,3.75Z"/><path class="cls-1" d="M438.4,32.69a1.88,1.88,0,0,0,0-3.75,1.88,1.88,0,0,0,0,3.75Z"/><path class="cls-1" d="M440.33,53a1.88,1.88,0,0,0,0-3.75,1.88,1.88,0,0,0,0,3.75Z"/><path class="cls-1" d="M451,33.66a1.88,1.88,0,0,0,0-3.75,1.88,1.88,0,0,0,0,3.75Z"/><path class="cls-1" d="M468.34,45.25a1.88,1.88,0,0,0,0-3.75,1.88,1.88,0,0,0,0,3.75Z"/><path class="cls-1" d="M456.75,51a1.88,1.88,0,0,0,0-3.75,1.88,1.88,0,0,0,0,3.75Z"/><path class="cls-1" d="M477,40.42a1.88,1.88,0,0,0,0-3.75,1.88,1.88,0,0,0,0,3.75Z"/><path class="cls-1" d="M459.65,31.73a1.88,1.88,0,0,0,0-3.75,1.88,1.88,0,0,0,0,3.75Z"/><path class="cls-1" d="M438.4,26.9a1.88,1.88,0,0,0,0-3.75,1.88,1.88,0,0,0,0,3.75Z"/><path class="cls-1" d="M408.47,37.52a1.88,1.88,0,0,0,0-3.75,1.88,1.88,0,0,0,0,3.75Z"/><path class="cls-1" d="M48.78,163.7a55.55,55.55,0,0,0,41.29-9.22l-2.57-.67c5.59,12.36,10.39,26.09,11.93,39.64,1.38,12.14-2.48,27.85-16.71,30C69.16,225.55,62.11,207,58,197.08a129,129,0,0,1-9.19-38.8c-.19-2.39-3.94-2.41-3.75,0A133.22,133.22,0,0,0,57.45,205c5.06,10.63,12.59,24.88,26.68,22.08,13.29-2.65,19.55-16.06,19.39-28.5-.2-15.83-6.33-32.39-12.78-46.64a1.88,1.88,0,0,0-2.57-.67,51.78,51.78,0,0,1-38.4,8.84c-2.36-.39-3.38,3.22-1,3.62Z"/><path class="cls-1" d="M97.85,169.08a6.24,6.24,0,0,1,3.12-5.15l2.13-.86a8.35,8.35,0,0,1,8.07,1.91c2,2.09,2.65,8.86,3.14,11.52.69,3.78,2.17,10-.22,13.34-2.6,3.66-7.14,2.45-11,1.43-2.33-.62-3.33,3-1,3.62,5.91,1.57,14.17,2.33,16.43-5,1.31-4.22.28-9.26-.44-13.52-.81-4.75-1.83-10.47-4.31-14.68-3.32-5.63-13.32-3.37-17.11.86-2.63,2.94-2.83,12.64,3.08,9.72,2.16-1.07.27-4.31-1.89-3.24Z"/><path class="cls-1" d="M61.56,151c-3.34.51-5.54-3-5.93-5.69a17.68,17.68,0,0,1,.58-6.4c.56-2.56,1.36-5,1.73-7.64.55-3.88.27-7.82-1.91-11.2-4.06-6.29-12.35-7.95-19.26-8.48-2.41-.18-2.39,3.57,0,3.75,5.05.39,10.95,1.35,14.72,5.07,5.42,5.35,1.93,13,.72,19.28-1.37,7.17,1.52,16.27,10.36,14.91,2.38-.36,1.37-4-1-3.62Z"/><path class="cls-1" d="M68.19,146.37c-6.89-1.74-3.87-10.92-2.78-15.5.93-3.94,1.37-8-.53-11.75-3.46-6.81-12-9.12-18.87-10.55-2.35-.49-3.36,3.12-1,3.62,4.5.94,9.25,2.05,13,4.8,6.21,4.52,4.06,10.87,2.6,17.31-1.36,6-.43,13.93,6.54,15.69,2.34.59,3.34-3,1-3.62Z"/><path class="cls-1" d="M73.06,143.29c-5.7-5.49-.44-15.69-2.42-22.72A21.61,21.61,0,0,0,59.16,107c-2.16-1.06-4.06,2.18-1.89,3.24,8.61,4.22,11,12,9.87,21-.69,5.38-.92,10.63,3.27,14.66,1.74,1.67,4.4-1,2.65-2.65Z"/><path class="cls-1" d="M412.29,241.74q13.7,31.42,25.84,63.47c.58,1.53,3.29,2,3.62,0a312.41,312.41,0,0,0,4.08-44.49q.21-11.53-.47-23.06c-.2-3.36,0-8.45-4.44-8.6-2.41-.08-2.41,3.67,0,3.75,2,.07,1.06,32.47.93,35.59a305.43,305.43,0,0,1-3.71,35.81h3.62q-12.32-32.5-26.22-64.37c-1-2.21-4.19-.3-3.24,1.89Z"/><path class="cls-1" d="M412.82,240.75l29-7.51c2.33-.6,1.34-4.22-1-3.62l-29,7.51c-2.33.6-1.34,4.22,1,3.62Z"/><path class="cls-1" d="M412.24,236.21a11.79,11.79,0,0,1-7.38-2.83c-2.57-2.26-3.48-4.06-1.91-7.09,2.21-4.28,7.58-6.94,11.46-9.77a1.94,1.94,0,0,0,.86-2.12c-.81-2.73-3-3.13-5.53-3.37-.49,0-2.88.18-3.22-.28-1.54-2.11,3.58-2.87,4.36-3.14a9.43,9.43,0,0,0,4.24-2.57c2-2.45,1.2-4.87-1.07-6.7-2.64-2.13-5.13-3.71-5.22-7.58-.12-5.09,4.73-8.53,9.57-7.81l-.45-3.43a8.88,8.88,0,0,0-2.39,11.86,7.58,7.58,0,0,0,5.29,3.67c2.9.58,6.77.29,7.49,3.67.5,2.34-1.18,3.62-1.27,5.9-.27,6.94,9.18.42,12.18.28,7.67-.37,8.91,12.28,4.6,16.61-3.33,3.34-8.84,2.93-13.19,2.66-2.41-.15-2.4,3.6,0,3.75,6.74.41,15.51,0,18.38-7.38,2.44-6.28.84-17.22-6.69-19.13-3.27-.83-7.55.13-10.45,1.71-.7.38-2,.39-1.41,1.14.81,1.1,1-1.09,1.27-1.82a8.31,8.31,0,0,0,.61-4.24,7.7,7.7,0,0,0-4.89-6.1c-2.57-.92-6,.25-8.11-1.79a5.25,5.25,0,0,1,.48-7.53c1.13-.82,1.32-3.16-.45-3.43-11.85-1.77-19.79,12.89-9.63,20.71a13,13,0,0,0,2,1.23q-.61,2.82-3.06,3c-1.32.65-2.76.74-4,1.62s-2.71,2.4-2.7,4.23a4.45,4.45,0,0,0,2.8,3.92c1.22.57,6.57.24,6.9,1.33l.86-2.12c-3.82,2.78-8,5.36-11.57,8.46-2.24,1.94-3.35,4.17-2.89,7.17,1,6.72,7.92,10.7,14.18,11.05,2.41.13,2.4-3.62,0-3.75Z"/><path class="cls-1" d="M440,394.24l12.74,34.46A1.88,1.88,0,0,0,454,430a132.25,132.25,0,0,0,26.55,1.3,1.91,1.91,0,0,0,1.81-1.38l6.47-38.63a1.9,1.9,0,0,0-2.31-2.31,102.38,102.38,0,0,1-42.64,0c-2.35-.5-3.36,3.12-1,3.62a107.14,107.14,0,0,0,44.63,0l-2.31-2.31-6.47,38.63,1.81-1.38a129.05,129.05,0,0,1-14.92,0,42.31,42.31,0,0,1-7.43-.7c-3.31-.84-3.18-2.65-4.23-5.49L443.6,393.24c-.83-2.24-4.46-1.27-3.62,1Z"/><path class="cls-1" d="M452.83,401.18a200.63,200.63,0,0,0,5.61,24c.69,2.31,4.31,1.32,3.62-1a200.63,200.63,0,0,1-5.61-24c-.4-2.37-4-1.37-3.62,1Z"/><path class="cls-1" d="M462.57,404.51l2.3,19.27c.28,2.37,4,2.4,3.75,0l-2.3-19.27c-.28-2.37-4-2.4-3.75,0Z"/><path class="cls-1" d="M471.35,404.5a121,121,0,0,1-.5,21.28c-.27,2.39,3.48,2.38,3.75,0a121,121,0,0,0,.5-21.28c-.15-2.4-3.91-2.41-3.75,0Z"/><path class="cls-1" d="M448.73,387.94c-1.6-.43-4.68-1.14-5.63-2.75-1.35-2.28.69-3.92,2.07-5.41,2.88-3.13,5.84-6.2,8.75-9.29a1.9,1.9,0,0,0-1.33-3.2,2.14,2.14,0,0,1-1.64-2.58,3.76,3.76,0,0,1,3.45-3.54,17.5,17.5,0,0,1,6.25-.18,1.9,1.9,0,0,0,1.81-1.38c.68-2,0-3.28-1.63-4.41-2-1.36-3.88,1.89-1.89,3.24l-.09.17,1.81-1.38c-4.8-.38-11.51-.07-13.15,5.53-1.15,3.92,1,7.86,5.09,8.28l-1.33-3.2c-2.92,3.1-5.85,6.18-8.75,9.29-1.66,1.77-3.59,3.51-3.81,6.07-.42,4.93,5.11,7.31,9,8.36,2.33.62,3.33-3,1-3.62Z"/><path class="cls-1" d="M473,361.54c3-3,7.87,7.33,2.5,7.91a1.9,1.9,0,0,0-1.62,2.82c1.15,2.17,2.75,2,5,2.13,4,.21,8,1.79,6.33,6.64-1.24,3.59-5,4.4-8.24,3.7-2.35-.51-3.36,3.1-1,3.62,5.88,1.28,12.44-1.54,13.21-8.08a8.74,8.74,0,0,0-2.91-7.74,8.53,8.53,0,0,0-4.29-2c-.63-.09-4.42.59-4.83-.19l-1.62,2.82c12-1.29,3.51-23-5.15-14.31-1.7,1.71.95,4.37,2.65,2.65Z"/><path class="cls-1" d="M459.28,353.74c-1.39,1.63-2.11,4.22-.75,6.14,1.12,1.59,4,1.35,5.65.9,4.18-1.14,7-5.52,5.06-9.67-1.7-3.67-6.68-5.68-9.82-2.47-2.57,2.64-2.38,7.33.85,9.3,2.07,1.26,4-2,1.89-3.24-2.27-1.38.47-5.67,3-3,3,3.12-1.4,6.27-4.53,5.43l1.12.86a1.37,1.37,0,0,1,.16-1.6c1.55-1.83-1.09-4.5-2.65-2.65Z"/><path class="cls-1" d="M464.82,348.44c-.8-9.4-1.52-21,7.72-26.63l-2.75-2.12c-1.23,4.36-2,9.47,1,13.28a8,8,0,0,0,8.67,2.86,1.89,1.89,0,0,0,1.38-1.81A17,17,0,0,0,470,319.54c-2.23-.91-3.2,2.71-1,3.62A12.9,12.9,0,0,1,477.1,334l1.38-1.81c-7,1.93-6.17-7.69-5.08-11.53a1.9,1.9,0,0,0-2.75-2.12c-10.5,6.39-10.5,19-9.58,29.87.2,2.39,4,2.41,3.75,0Z"/><path class="cls-1" d="M13.06,391.43q18-29.94,33.41-61.33L43,329.15a308,308,0,0,0,15.27,63.48,58.91,58.91,0,0,1,2.2,6.31c.7,3,.82,4.32-1.65,6.27a8,8,0,0,1-4.44,2.13,76.63,76.63,0,0,1-18.46,2.06c-10.56-.35-21.12-4.91-25.67-15-1-2.2-4.23-.29-3.24,1.89,4.26,9.41,13.72,14.88,23.68,16.36a61.44,61.44,0,0,0,19-.66c4.57-.76,11.45-1.07,14-5.7,2.27-4.07.18-9-1.24-13-2.52-7-4.84-14-6.87-21.17a304.49,304.49,0,0,1-8.9-43.06c-.22-1.62-2.57-2.83-3.49-.95Q27.85,359.57,9.82,389.53c-1.25,2.07,2,4,3.24,1.89Z"/><path class="cls-1" d="M4.9,395.5c-10.4,10.5,12,19.25,19.1,21.1a58.51,58.51,0,0,0,40.61-4.21c2.17-1.06.27-4.3-1.89-3.24a54.16,54.16,0,0,1-28.9,5.37c-4.66-.43-34.66-7.89-26.26-16.37,1.7-1.72-1-4.37-2.65-2.65Z"/><path class="cls-1" d="M17.9,390.53c3.31-.94,6.39,2.11,9.85.52a7.78,7.78,0,0,0,4.15-5.95c1-6.52-5-10.44-10.26-12.46-2.26-.86-3.23,2.76-1,3.62,3.63,1.38,9.08,4.47,7.33,9.22-1.69,4.59-7.5.42-11.06,1.43-2.32.66-1.33,4.28,1,3.62Z"/><path class="cls-1" d="M37.75,398.35c-.3,4.17,3.53,7.56,7.54,7.68,4.29.13,7.17-3.7,6.79-7.78s-3.78-7.65-8.12-7a8.44,8.44,0,0,0-7,9.6c.36,2.38,4,1.37,3.62-1A4.66,4.66,0,0,1,45,394.89c2.05,0,3.28,1.94,3.41,3.81.36,5.16-7.2,4.15-6.87-.35.18-2.41-3.58-2.4-3.75,0Z"/><path class="cls-1" d="M35.73,366.83a6.86,6.86,0,0,0,6.19,8c3.82.34,6.55-3,6.46-6.6s-2.92-6.91-6.74-6.55A7.32,7.32,0,0,0,35.15,370c.33,2.38,3.95,1.37,3.62-1-.25-1.76,1.62-3.53,3.29-3.6s2.49,1.38,2.56,2.83-.69,3-2.3,2.89-3.31-1.63-3-3.28c.46-2.36-3.15-3.37-3.62-1Z"/><path class="cls-1" d="M24.21,519.14c-9.32-.45-21,14.4-17.63,23.41,2,5.31,8,7.09,12.94,8.35a70.61,70.61,0,0,0,21,2,72,72,0,0,0,38.61-13.51c4.15-3.05,8.64-7.19,7.78-12.88s-6.59-7.08-11.24-8.35a91.59,91.59,0,0,0-52.14,1.36c-2.29.74-1.31,4.36,1,3.62a88.15,88.15,0,0,1,43.17-3c5.87,1.09,21.16,3.68,13.37,12.68-4.14,4.79-10.95,8.18-16.66,10.67a69.21,69.21,0,0,1-37.63,5c-5.46-.82-16.83-2.19-17-9.45-.15-6.06,8.2-16.5,14.49-16.19,2.41.12,2.41-3.63,0-3.75Z"/><path class="cls-1" d="M12.06,544C6.86,544.8.59,548,1.66,554.25a6.84,6.84,0,0,0,3.47,5c2.86,1.43,4.35-.75,7-.85,3.33-.12,2.2,4.06,3.58,6.33a8,8,0,0,0,6,3.87,8.42,8.42,0,0,0,5.93-1.87c1.15-.93,1.53-2.1,2.38-3.23,2.31-3.06,2.82-1.2,5,1,1.84,1.87,4.06,3.3,6.8,2.93,3.06-.42,3-2.36,4.49-4.44,4-5.68,11.54,6.28,17.59,1.22,2-1.69,1.24-3.06,1.63-5.24.74-4,4.3-1.86,6.93-1.13a14.21,14.21,0,0,0,4.5.68,7.93,7.93,0,0,0,5.9-2.68c2.38-3.12-.65-7.2,4.12-8.56,2.9-.83,5.3-.57,7.27-3.28a7.82,7.82,0,0,0,1.06-7.24c-2.05-5.29-9-5.57-12.58-1.82-1.67,1.75,1,4.4,2.65,2.65,3.41-3.58,9.19,1,5.53,4.64-1.26,1.26-3.49,1.16-5.08,1.43s-3.36.51-4.63,1.77c-1.61,1.59-1,2.65-1.35,4.65-1.41,8-7,3.29-11.52,2.75-5.15-.62-6.33,1.32-6.74,5.71-.61,6.51-5.84,1-8.94-.45a8.51,8.51,0,0,0-6.25-.67c-1.91.66-2.1,2.17-3.31,3.34-5.26,5.08-5.71-1-9.28-3-4.41-2.49-5.54,2.15-7.53,4.82-3,4-7.31,2.07-7.94-2.2-.15-1,.33-2.18,0-3.18a4.26,4.26,0,0,0-2.5-2.69c-2-.83-3.82-.12-5.65.63-2.3.94-5.74.73-4.81-3.18.77-3.23,5-4,7.66-4.35,2.38-.35,1.37-4-1-3.62Z"/><path class="cls-1" d="M4.3,558.23C.59,569.12,10.82,576.78,20,579.68c12.5,3.94,25.9,1.64,38.07-2.3,11.32-3.66,24.44-7.78,33.62-15.66,3.32-2.85,6.39-7.09,4.55-11.67-1.69-4.19-5.6-4.43-9.46-3.44-2.34.6-1.35,4.22,1,3.62q8.41,1.13,3.48,6.72a20.09,20.09,0,0,1-2.22,2.13A38,38,0,0,1,84,562.63a80.23,80.23,0,0,1-11.7,5.56,176,176,0,0,1-22.2,7.62c-8.13,2-16.65,3-24.94,1.33S4.32,569.78,7.92,559.23c.78-2.29-2.84-3.27-3.62-1Z"/><path class="cls-1" d="M7.49,569.26C3,570.81.73,575.14,1.29,579.81c.71,5.91,6,9.51,11.13,11.58C25,596.51,39.56,597.25,52.88,595a80.94,80.94,0,0,0,37.19-16.6c4.34-3.49,11.7-9,11.43-15.38-.19-4.32-4.45-8-8.66-6.24-2.2.9-1.24,4.53,1,3.62l3.81,2-.93,4.06c-.58,1.36-2.13,2.75-3.2,3.84-1.39,1.42-2.85,2.76-4.36,4.05a72.93,72.93,0,0,1-11.81,8.18,78.67,78.67,0,0,1-25.44,8.88A75.85,75.85,0,0,1,24.75,591c-4.5-.9-9.48-2.07-13.52-4.31-4.3-2.38-10.6-11.19-2.75-13.86,2.27-.77,1.3-4.4-1-3.62Z"/><path class="cls-1" d="M27.72,533l.45.45a1.88,1.88,0,0,0,2.65-2.65l-.45-.45A1.88,1.88,0,0,0,27.72,533l.45.45a1.88,1.88,0,0,0,2.65-2.65l-.45-.45A1.88,1.88,0,0,0,27.72,533Z"/><path class="cls-1" d="M42.57,537.38a1.88,1.88,0,0,0,0-3.75,1.88,1.88,0,0,0,0,3.75Z"/><path class="cls-1" d="M31.94,546.07a1.88,1.88,0,0,0,0-3.75,1.88,1.88,0,0,0,0,3.75Z"/><path class="cls-1" d="M35.81,531.59a1.88,1.88,0,0,0,0-3.75,1.88,1.88,0,0,0,0,3.75Z"/><path class="cls-1" d="M55.12,534.48a1.88,1.88,0,0,0,0-3.75,1.88,1.88,0,0,0,0,3.75Z"/><path class="cls-1" d="M50.29,546.07a1.88,1.88,0,0,0,0-3.75,1.88,1.88,0,0,0,0,3.75Z"/><path class="cls-1" d="M46.43,527.72a1.88,1.88,0,0,0,0-3.75,1.88,1.88,0,0,0,0,3.75Z"/><path class="cls-1" d="M65.74,529.66a1.88,1.88,0,0,0,0-3.75,1.88,1.88,0,0,0,0,3.75Z"/><path class="cls-1" d="M74.43,535.45a1.88,1.88,0,0,0,0-3.75,1.88,1.88,0,0,0,0,3.75Z"/><path class="cls-1" d="M56.09,543.17a1.88,1.88,0,0,0,0-3.75,1.88,1.88,0,0,0,0,3.75Z"/><path class="cls-1" d="M19.39,543.17a1.88,1.88,0,0,0,0-3.75,1.88,1.88,0,0,0,0,3.75Z"/><path class="cls-1" d="M317.33,540.76a8.45,8.45,0,0,0-9.43-4.61c-4.83.94-7.76,5.5-8.81,10-1.22,5.23.34,8.88,4.63,11.93,6.42,4.56,13.47,8.45,20.15,12.62,1.11.7,3-.19,2.82-1.62-1.12-9.86,14.29-19.91,6.81-30-4.68-6.28-19.28-6.39-17.81,3.8.34,2.38,4,1.37,3.62-1-.8-5.51,8-3.12,9.59-2a6.58,6.58,0,0,1,2.53,6.24c-.3,3.16-1.89,5.87-3.54,8.51-2.83,4.53-5.58,8.86-4.95,14.4l2.82-1.62c-6.31-3.94-12.77-7.71-19-11.85-4.46-3-5.45-7.36-2.8-12,2.08-3.68,7.81-5.91,10.08-.93,1,2.19,4.23.29,3.24-1.89Z"/><path class="cls-1" d="M81.66,430.07c11.69,6.21,24.58,10.6,37.82,11.83,13.06,1.21,25.21-7.25,36.55-12.69l-2.27-2.94a8.27,8.27,0,0,1-3.66,2.5c-2.21.89-1.24,4.52,1,3.62a15,15,0,0,0,5.31-3.46c1.57-1.57-.41-3.84-2.27-2.94-10.64,5.1-22.46,13.36-34.66,12.18a97.47,97.47,0,0,1-35.93-11.31c-2.13-1.13-4,2.1-1.89,3.24Z"/><path class="cls-1" d="M80.55,459.88c.4-2.49.92-8,4.41-8.27,3.65-.3,3.47,3.38,4.46,5.54a7.26,7.26,0,0,0,3.82,4c6,2.3,6.82-5.94,7.91-9.77l-3.43.45q4.17,5.83,8,11.91a1.9,1.9,0,0,0,3.24,0A43,43,0,0,0,114.49,452l-3.43.45,5.87,10.28a1.9,1.9,0,0,0,3.43-.45,17.87,17.87,0,0,1,3.57-7.9L121,454l3.49,5.67a1.9,1.9,0,0,0,2.94.38l5.22-4.59-3.13-.83a27.47,27.47,0,0,0,3.12,6.88,1.9,1.9,0,0,0,2.94.38,22.88,22.88,0,0,0,6.11-10.35l-3.43.45a32.37,32.37,0,0,0,6.51,9.54c1.69,1.73,4.34-.92,2.65-2.65a29.48,29.48,0,0,1-5.92-8.78c-.69-1.54-3-1-3.43.45a18.89,18.89,0,0,1-5.14,8.69l2.94.38a24.21,24.21,0,0,1-2.74-6,1.9,1.9,0,0,0-3.13-.83l-5.22,4.59,2.94.38-3.49-5.67a1.89,1.89,0,0,0-2.94-.38,21.78,21.78,0,0,0-4.53,9.56l3.43-.45-5.87-10.28a1.9,1.9,0,0,0-3.43.45,39.48,39.48,0,0,1-5.2,10.82h3.24q-3.78-6.09-8-11.91a1.9,1.9,0,0,0-3.43.45c-.25.87-1.11,6.07-1.82,6.39-2.84,1.28-3.44-3.17-4-4.5-.91-2-2.15-3.76-4.45-4.3-6.76-1.58-9.48,5.8-10.3,11-.38,2.36,3.23,3.38,3.62,1Z"/><path class="cls-1" d="M397.91,586l.16-7.43-3.2,1.33,5.17,5.33a1.89,1.89,0,0,0,3.13-.83l1.52-7.13-3.13.83a32.7,32.7,0,0,1,4.6,6.48c.73,1.33,3.15,1.17,3.43-.45l1.86-10.74-3.43.45,5.09,6.88a1.9,1.9,0,0,0,3.43-.45l2.39-6.79-3.13.83a30.65,30.65,0,0,1,5.87,7.28,1.88,1.88,0,0,0,3.24-1.89,33.56,33.56,0,0,0-6.46-8,1.9,1.9,0,0,0-3.13.83l-2.39,6.79,3.43-.45L411.25,572c-.84-1.14-3.12-1.31-3.43.45L406,583.17l3.43-.45a36.56,36.56,0,0,0-5.18-7.24,1.89,1.89,0,0,0-3.13.83l-1.52,7.13,3.13-.83-5.17-5.33a1.9,1.9,0,0,0-3.2,1.33l-.16,7.43c-.05,2.41,3.7,2.41,3.75,0Z"/><path class="cls-1" d="M388,547.76c13.79,3.78,26.47-1.08,36.18-11.1,1.68-1.73-1-4.39-2.65-2.65-8.8,9.07-20,13.57-32.53,10.14a1.88,1.88,0,0,0-1,3.62Z"/><path class="cls-1" d="M131.85,595.54a107.61,107.61,0,0,0,48.29-29c1.67-1.74-1-4.4-2.65-2.65a103.75,103.75,0,0,1-46.64,28c-2.32.66-1.33,4.28,1,3.62Z"/><path class="cls-1" d="M141.46,108.68c-5.27.73-11.31,2.54-14.26,7.38-3.1,5.08-1.2,11.34,2.75,15.35,5.51,5.58,14.46,7.12,21.65,9.31,4.46,1.36,9.89,4.07,14.55,4.32,1.88.1,3.31-.37,4.29-2.05,1.58-2.71,1.31-7.12,1.7-10.13.57-4.45,1.24-8.9,1.67-13.37.67-6.88.29-14.3-4.38-19.83C165.92,95.49,160,93,154.73,95.6c-6,2.94-6.35,11.47-6.9,17.24l1.88-1.87a16.65,16.65,0,0,1-8.42-1.93c-2.14-1.1-4,2.13-1.89,3.24a20.89,20.89,0,0,0,10.31,2.44,1.93,1.93,0,0,0,1.88-1.87c.48-5,1-14.68,8-14.53,6.21.13,9.68,6.68,10.5,12,.73,4.77,0,9.6-.59,14.35q-.47,3.63-.93,7.27c-.21,1.61-.15,7.81-1.18,8.79-1.91,1.81-12.35-2.92-14.73-3.64-5-1.51-10.32-2.69-15-5-5.3-2.58-11.16-9.09-6.55-14.91,2.66-3.35,7.39-4.36,11.41-4.92,2.38-.33,1.37-3.94-1-3.62Z"/><path class="cls-1" d="M40.68,18.37c-5.35-.06-11.18.63-15,4.82a10.42,10.42,0,0,0-1.87,11.7c2.34,4.87,7.42,7.25,12.44,8.36,7.24,1.6,14.83,2.17,22.17,3.19a1.92,1.92,0,0,0,2.37-1.81C61.56,34,66.13,16,54.79,9.3c-10.27-6.09-16,5.29-17,13.79-.29,2.39,3.46,2.37,3.75,0,.41-3.4,1.14-7.71,3.87-10.1,5.07-4.44,10.83,1.21,12.24,6.1,2.23,7.71,0,17.68-.55,25.55l2.37-1.81c-7.78-1.07-16.26-1.37-23.81-3.57-4.5-1.31-10.35-4.83-8.94-10.45,1.51-6.05,9-6.74,14-6.68,2.41,0,2.42-3.72,0-3.75Z"/><path class="cls-1" d="M379.83,121.61c-5.47-3-12.41-5.09-18.32-1.94-4.11,2.19-7.19,7.06-6.42,11.81.87,5.37,5.89,7.82,10.63,9.15,8.28,2.33,15.55,4.76,22.57,10a1.88,1.88,0,0,0,2.75-1.12,96.51,96.51,0,0,0,1.14-22.57c-.4-5.47-.59-12.83-4.41-17.22-2.63-3-6.84-3.67-10-1-4.68,4-3.1,10.34-1.29,15.33.82,2.25,4.44,1.28,3.62-1a21.71,21.71,0,0,1-1.74-6.51c-.11-4.13,4.11-7.56,7-3.78,2.22,2.87,2.44,8.09,2.79,11.41a91.73,91.73,0,0,1-.76,24.33l2.75-1.12c-7.27-5.41-14.87-8-23.46-10.36-5.29-1.48-10.39-5.33-6.56-11.21,4-6.21,12.51-3.8,17.79-1,2.12,1.15,4-2.09,1.89-3.24Z"/><path class="cls-1" d="M15.47,279.53l5.3,13.68c1.36,3.5,2.52,7.32,4.74,10.4,4.3,6,13.07,6.73,19.89,6.36,6.48-.35,11.77-3.55,13.54-10,2.43-8.93,1.09-19.71.92-28.87a1.9,1.9,0,0,0-2.37-1.81C50,271,42.42,272.48,34.8,273.63c-3.83.58-7.7,1.2-11.57,1.48a13.14,13.14,0,0,1-4.09,0c-5.52-1.37-4.09-5.92-.92-8.31,3-2.25,8.63-2.36,7.87-7.46-.67-4.53-5.41-5.43-9.19-5.64L18.7,255c-.86-2.73.16-6,3.19-7,2.16-.68,4.47.44,6.66.17a6.1,6.1,0,0,0,5-3.22c.86-1.86.41-3.39-.81-5-1.65-2.14-3.68-3.46-4.46-6.29-1-3.61.67-7.17,4.39-8.09l-2.12-2.75c-2.15,4.24-1.92,9.42,1.6,12.92,2,2,4.72,2.88,7.32,3.87,1.86.71,3.84,1.2,5.36,2.58,2.59,2.37,2.2,3.84.32,6.67-2,3-2.15,6.34,2.12,7.67a8.71,8.71,0,0,0,3,.2c3.85-.13,7,.35,7.35,5.1.1,1.57,0,3.8-1.2,4.88s-5.11,1.22-6.57,1.57c-2.35.56-1.35,4.18,1,3.62l8.21-2a1.85,1.85,0,0,0,1.31-1.31c1.11-4.8,2-10.66-2.26-14.27-1.6-1.35-3.12-1.38-5-1.73-1-.17-4.69.27-4.86-1.5a21.58,21.58,0,0,0,1.93-2.3c1.72-3.68-.68-7.85-3.64-10.06-5.09-3.8-17.65-4.36-12.73-14a1.9,1.9,0,0,0-2.12-2.75,9.61,9.61,0,0,0-7.24,7.48,11.57,11.57,0,0,0,.74,6.63c.78,1.93,2.75,3.35,3.47,5.13,1.81,4.45-4.53,2.62-6.59,2.94a8.32,8.32,0,0,0-4.41,2.13A9.15,9.15,0,0,0,15.08,256a1.94,1.94,0,0,0,1.81,1.38q3.39-.44,3.69,4.05-.83.28-1.63.63c-.7.65-2.24,1.06-3.07,1.64a10.2,10.2,0,0,0-4.21,5.65,7.33,7.33,0,0,0,4.95,9c5.32,1.78,11.9,0,17.27-.82,8.26-1.19,16.46-2.77,24.59-4.66l-2.37-1.81c.13,7,.19,14,0,20.93-.11,3.48-.18,7.27-2.26,10.22-2.34,3.31-6.09,4-9.91,4a35.85,35.85,0,0,1-8.84-.89c-4.82-1.22-7-4-8.85-8.42-2.55-6.06-4.77-12.28-7.14-18.41-.86-2.23-4.49-1.26-3.62,1Z"/><path class="cls-1" d="M28.43,285.2a106.09,106.09,0,0,0,7.23,17.2c1.13,2.14,4.36.24,3.24-1.89A100.42,100.42,0,0,1,32,284.21c-.73-2.29-4.35-1.31-3.62,1Z"/><path class="cls-1" d="M37.57,286.48a68.7,68.7,0,0,1,4.76,14.32c.51,2.36,4.13,1.36,3.62-1a73.1,73.1,0,0,0-5.14-15.21c-1-2.19-4.24-.29-3.24,1.89Z"/><path class="cls-1" d="M47.54,282.82a106.13,106.13,0,0,0,1.1,11.06c.17,1,.29,2.41,1.12,3.17,1.31,1.21,2.89.25,3.39-1.19.79-2.28-2.83-3.27-3.62-1l.29-.47,1.33-.55h-.07l1.33.55c.45.37.07.25.08-.23a6.48,6.48,0,0,0-.2-1.08c-.2-1.21-.33-2.44-.46-3.67-.23-2.2-.42-4.4-.54-6.61-.13-2.4-3.88-2.42-3.75,0Z"/><path class="cls-1" d="M34.93,270.21a1.88,1.88,0,0,0,0-3.75,1.88,1.88,0,0,0,0,3.75Z"/><path class="cls-1" d="M43.62,263.45a1.88,1.88,0,0,0,0-3.75,1.88,1.88,0,0,0,0,3.75Z"/><path class="cls-1" d="M32,253.79A1.88,1.88,0,0,0,32,250a1.88,1.88,0,0,0,0,3.75Z"/><path class="cls-1" d="M37.77,256.75v-1a1.87,1.87,0,0,0-3.75,0v1a1.87,1.87,0,0,0,3.75,0Z"/><path class="cls-1" d="M31.42,269.66l1-1A1.88,1.88,0,1,0,29.74,266l-1,1a1.87,1.87,0,0,0,2.65,2.65Z"/><path class="cls-1" d="M367.36,211.56c-3.15-5.79-8.75-10.4-15.68-9.91A12.53,12.53,0,0,0,340,211.57c-3.09,15.1,17.19,26.2,28.09,31.63,2.34,1.17,4.14,2.08,6.49.52s4.71-5.3,6.23-7.71c4.13-6.51,7-14.59,6.69-22.38-.21-5.56-2.84-11.68-8.93-12.81-7.71-1.43-8.11,6.71-14,8.71-2.27.77-1.3,4.4,1,3.62,2.58-.88,4.14-2.52,5.8-4.63,1.83-2.31,3.57-4.44,6.8-3.74,4,.86,5.4,5.17,5.55,8.85a34.4,34.4,0,0,1-3.23,14.94,42.26,42.26,0,0,1-3.4,6.23c-1.79,2.7-3.44,6.27-7.14,5.17-4.18-1.24-8.61-4.79-12.17-7.24-4.29-3-8.81-6.22-11.78-10.6-3.57-5.26-3.77-14,3.44-16.26,6.32-2,11.75,2.32,14.62,7.59,1.15,2.12,4.39.23,3.24-1.89Z"/><path class="cls-1" d="M44.31,472.3c-7.27-7.67-22.81-6.39-23.6,6.19-.4,6.36,4.62,11.38,9.1,15.16a68.07,68.07,0,0,0,18.08,10.84,1.88,1.88,0,0,0,2.31-1.31c1.22-7.41,4.38-13.19,8.11-19.57,2.53-4.32,4.62-9.44,1.95-14.23a10.12,10.12,0,0,0-17.93.48q-.27.53-.49,1.08-1.09,1.9,1,3.13c.3-2.39-3.45-2.37-3.75,0a2.75,2.75,0,0,0,3.73,2.87,4.08,4.08,0,0,0,2-2.34c.78-1.67.67-3.18,2.15-4.63,2-1.93,4.53-2.8,7.25-1.42,7.86,4,.59,13.24-2.2,18.08a45.84,45.84,0,0,0-5.46,15.56l2.31-1.31c-7.73-3.2-15.57-7.91-21.08-14.32-3.78-4.39-4.94-10.9.87-14.41,4.47-2.7,9.69-.68,13,2.81,1.66,1.76,4.31-.9,2.65-2.65Z"/><path class="cls-2" d="M221.09,147.47c-3.48,4.07-2,11.26,3.71,12.38s10.72-4.45,8.45-9.83-9.53-6.45-12.82-1.37a7.19,7.19,0,0,0,5.41,11.3,7.29,7.29,0,0,0,7.64-9.87c-2-5.76-9.2-6.7-13-2.08s-.66,11.44,5.13,12.37c3.21.51,5.29-.76,5.84-4,.43-2.54-.49-5.56-3.07-6.56s-5.81.29-6.46,3,1.77,4.78,4.34,4.63a3.74,3.74,0,0,0,3.26-5.49,4.32,4.32,0,0,0-6.73-1c-1.68,1.74,1,4.39,2.65,2.65.24-.25.31,0,.56,0,0,0,.45.06.18.08-.57.06-.87-.09-.1-.34,2.32-.76,1.73,2.81,1.14,3.94l1.12-.86c-2.37.82-5.59-.53-5.9-3.28a4.29,4.29,0,0,1,5.1-4.32c2.2.62,3.36,3.69,2.34,5.67s-3.94,2.26-5.68,1.07c-2-1.35-1.55-4.16,0-5.65,2.22-2.08,5.8-.11,5.87,2.79.06,2.33-2.66,4-4.81,3.43-2.45-.7-3.09-4.18-1.54-6s-1.08-4.49-2.65-2.65Z"/><path class="cls-2" d="M309.18,152.59c-2.35-2.64-6.93-.45-7,2.95,0,3.71,4.62,5.2,7.51,3.83,3.48-1.65,4.39-6.28,2.65-9.53s-6-4.26-9.34-2.67c-8.57,4.1-3.25,16.88,5.56,15.43A9,9,0,0,0,310,145.05c-4.21-1.39-10.21,1-9.86,6.12.3,4.35,5.45,7.12,9.34,5.69,2.25-.83,1.27-4.45-1-3.62-1.69.62-5.06-.4-4.59-2.8.62-3.19,5.28-2.1,6.91-.68a5.25,5.25,0,0,1-3.74,9.21c-4.91-.09-6.76-7.87-1.32-8.79a3.15,3.15,0,0,1,3.73,3.65,2.47,2.47,0,0,1-1.8,2.29,1.9,1.9,0,0,1-1.59-.37q-.28-.47.42-.51c1.61,1.81,4.25-.85,2.65-2.65Z"/><path class="cls-1" d="M494.52,445c-5.57-1.2-22.3.73-18,10.21,2,4.52,8.26,6.77,12.54,8.37,3.62,1.35,10.84,4.2,14.74,2.41,4.07-1.87,4.59-9.48,5.15-13.18.73-4.78,1.73-11.14-.43-15.74a6.79,6.79,0,0,0-8.62-3.81c-5,1.77-6.26,7.11-6.94,11.75-.34,2.36,3.27,3.38,3.62,1a28.91,28.91,0,0,1,.54-3.3,6.64,6.64,0,0,1,1.34-3.21q.81-3.19,3.94-.79c3.38.9,3.21.67,3.44,3.59a32.22,32.22,0,0,1,0,3.47c-.15,4.56-.32,16.82-6.49,16.61-4.9-.17-10.69-2.61-14.85-4.95-.86-.48-3-1.37-3.39-2.25-.85-1.92.33-4.48,1.78-5.49,2.83-2,7.5-1.74,10.66-1.07,2.35.51,3.36-3.11,1-3.62Z"/><path class="cls-1" d="M190.76,225.38c-5-2.75-10.81,2.74-9.41,8.1,1.9,7.29,11.51,5.66,15.66,1.72l-2.65-2.65a17.26,17.26,0,0,0-4.87,12.1,1.93,1.93,0,0,0,1.88,1.88,18.76,18.76,0,0,0,13.25-3.15l-1.89-3.24c-3.58,2.45-4.94,7.9-1.38,11.11s8.95,1.41,10.9-2.5l-3.49-.95-.35,11.27a1.89,1.89,0,0,0,1.88,1.88,17.21,17.21,0,0,0,11.86-5.27l-2.94-2.27c-3,4.41-4.28,12.27,1.57,15.14,4,2,9.69,0,10.4-4.67l-3.68-.5c-.29,4.54-3,14.18,2.49,16.68,5.27,2.38,9-3,10.76-7.05l-2.94.38c2,2-.83,6.73-.78,9.24a6,6,0,0,0,2.21,4.83c4.15,3.14,9.31-1.3,11.8-4.5l-3.2-1.33c-.55,5.17-.65,13.25,5.72,14.92,4.09,1.07,9.35-1.47,8.74-6.19l-3.68.5c1.22,4.64,1.74,15.78,8.28,16.22,6.27.43,7.76-6.52,8-11.29.1-2.09-3.26-2.59-3.68-.5-1.05,5.25,3.21,11.26,9.06,10,5.45-1.21,7.36-8.14,4.38-12.43l-2.94,2.27,5.58,6a1.89,1.89,0,0,0,2.94-.38,52,52,0,0,0,5.66-15.23h-3.62c1,4.76,6.58,6.64,10.84,4.72,6-2.7,5.8-10.4,4.21-15.71l-3.13,1.82c9.1,7.43,20.42-4.92,11.67-13L314,266.49a8.34,8.34,0,0,0,9.6-10.27,1.88,1.88,0,0,0-1.31-1.31,11.64,11.64,0,0,0-5.06-.27l1,3.62a6.14,6.14,0,0,0,4.65-7.94,1.85,1.85,0,0,0-1.31-1.31l-4.67-.9c-2.36-.45-3.37,3.16-1,3.62l2.33.45q2.45.11-1,2.47c-2.42.56-1.32,3.93,1,3.62q2.59,1.42.95,2.8a4,4,0,0,1-4.18,1.82c-1.69-.26-3.34,1.73-1.82,3.13,4.79,4.43-.76,12.3-6.37,7.72-1.35-1.1-3.71-.12-3.13,1.82.88,2.94,1.56,6.24-.14,9-1.53,2.51-6.68,4.5-7.68,0a1.89,1.89,0,0,0-3.62,0A48.69,48.69,0,0,1,287,298.89l2.94-.38-5.58-6c-1.42-1.54-4.17.5-2.94,2.27.9,1.29,1.57,3.94.19,5.29a4,4,0,0,1-6.78-3.72l-3.68-.5c0,.89.15,3.37-.42,4l-5.71.65-.7-2.64-2.09-7.91c-.52-2-4-1.65-3.68.5.2,1.58-1.59,2.73-2.94,2.7-2.62-.06-3.63-2.42-4.09-4.64a22.12,22.12,0,0,1,.08-6.79c.16-1.54-2.23-2.58-3.2-1.33-1.59,2-4,5.2-6.42,3.32-2-1.6-.49-4.08,0-6.31.51-2.55.4-4.65-1.48-6.58a1.89,1.89,0,0,0-2.94.38c-.49,1.11-.92,2.75-1.87,3.53q-.82,2.17-2.85,0-3-.13-2.08-2.69c-.39-2.63.38-5.89.55-8.55.13-2.08-3.37-2.6-3.68-.5-.51,3.39-4.91,3.48-6.59.8s0-6.14,1.48-8.38c1.2-1.79-1.47-3.76-2.94-2.27a13.32,13.32,0,0,1-9.21,4.17l1.88,1.88.35-11.27c.06-1.81-2.66-2.62-3.49-.95-2.51,5-8.75-.49-4.39-3.48,2-1.35.13-4.59-1.89-3.24a15.76,15.76,0,0,1-11.35,2.64l1.88,1.88A13.35,13.35,0,0,1,197,235.2a1.88,1.88,0,0,0-2.65-2.65c-1.75,1.66-4.2,2.93-6.64,2.06-4.14-1.46-2.37-7.92,1.15-6,2.12,1.16,4-2.08,1.89-3.24Z"/><path class="cls-1" d="M259.88,597.41c-.78-1.63-1.54-3.28-2.28-4.93-.52-1.17-2.14-1.1-2.94-.38-9,8-20.19-6.08-10.3-13,1.38-1,1.07-3.66-.95-3.49-3.45.28-7.6-.12-10.25-2.67-3.24-3.11-3.51-9.43,1.35-11.27l-1.44-3.43c-2.37,1.15-5.2-.39-6.29-2.45a5,5,0,0,1,.54-6.11A9.38,9.38,0,0,1,235.5,547l.5-3.68c-4-.54-8.54-3-9.87-7.11-1.63-5.07,3.21-10.61,8.46-8.85,2.29.77,3.28-2.85,1-3.62-6.7-2.26-13.61,3.48-13.56,10.44,0,7.46,7.38,12,14,12.89,2.07.28,2.59-3.4.5-3.68-6.13-.83-13.84,2.27-14.35,9.32A9.1,9.1,0,0,0,235,561.51c1.89-.92.55-4.18-1.44-3.43a10.28,10.28,0,0,0-5.67,13.74c2.55,6,9.55,8.05,15.56,7.57l-.95-3.49c-5.62,3.91-7.79,12-3.47,17.72s13.11,5.76,18.31,1.14l-2.94-.38c.74,1.66,1.49,3.3,2.28,4.93,1,2.17,4.28.27,3.24-1.89Z"/><path class="cls-1" d="M233.93,523.11a22.82,22.82,0,0,1-7-6.81,20.47,20.47,0,0,1-2.05-4.06l-.39-1.18q-1.29-2.94,2.51-4.75a1.88,1.88,0,0,0,2.65-2.65c-1.87-2.3-3.84-5.66-3.29-8.75.64-3.64,6.26-7.21,8.6-2.54,1.09,2.18,4.23.27,3.24-1.89-1.63-3.54-2.07-8.41.64-11.57,3.07-3.58,10.56-2.71,10.79,2.83h3.75c-.35-6.07-.33-13.38,4.12-18.1s16.22-3.86,13.65,4.66l3.62,1c.84-2.82,1.69-5.73,3.46-8.13,2-2.64,9.9-5.57,9.91.74l3.68-.5c-.62-3.69,2.15-8,6.2-8s6.8,4.34,6.17,8c-.33,1.94,2.39,3.48,3.43,1.44A7.72,7.72,0,0,1,320,461.26c3.27,3.41,3.07,8.62,1.54,12.73-.65,1.75,1.93,3.2,3.13,1.82,6-6.88,16.71,1.71,10.84,8.81a1.89,1.89,0,0,0,1.82,3.13,25.13,25.13,0,0,1,7.49-.68,6.27,6.27,0,0,1,4.18,1.63c1.46,1.49,2.5,5.51-.4,6.52-1.91.67-1.72,3.73.5,3.68,9.79-.22,9.68,14-.34,13.31-2.09-.14-2.58,3.29-.5,3.68,6.5,1.23,10.23,9.58,5.92,15-.8,1-.7,2.83.83,3.13,7.42,1.49,7.75,12.56-.18,13.47-1.9.22-2.77,3.28-.5,3.68a13,13,0,0,1,5.8,23.1c-1,.8-.52,2.35.38,2.94a11.78,11.78,0,0,1,.58,19.45c-1.92,1.42-.05,4.67,1.89,3.24a15.59,15.59,0,0,0-.58-25.93l.38,2.94c11.08-8.8,6.47-26.91-7.46-29.37l-.5,3.68c11.8-1.35,13.12-18.43,1.18-20.84l.83,3.13c5.89-7.42,2-19.46-7.58-21.27l-.5,3.68c5.79.38,11.57-3.88,11.81-10,.25-6.31-5.5-11-11.47-10.84l.5,3.68c4.88-1.71,5.83-7.61,3-11.68-3.64-5.18-10.89-4.07-16.23-3l1.82,3.13c8.91-10.77-6.93-24.68-16.14-14.11l3.13,1.82c2.34-6.3,1.33-14.59-4.93-18.29-5.46-3.23-12.94-1.35-15.83,4.31l3.43,1.44c1-6.11-3.1-12.75-9.79-12.79s-10.84,6.69-9.82,12.76c.36,2.12,3.68,1.57,3.68-.5,0-5.41-5.52-8.43-10.53-7.32-6.24,1.4-8.58,8.31-10.2,13.7-.69,2.32,2.92,3.31,3.62,1,2.54-8.43-6.44-14.35-14.13-12-10.2,3.06-11.52,15.62-11,24.49.14,2.39,3.85,2.42,3.75,0-.27-6.74-7.92-10.73-14-8-7.07,3.24-7.29,12.43-4.45,18.59l3.24-1.89c-2.56-5.13-9.75-5-13.39-1.05-4.59,5-1.5,12.35,2.19,16.88l2.65-2.65c-4.42-3.85-9.69.26-9.32,5.56.49,7.12,6,13.44,11.71,17.13,2,1.31,3.92-1.93,1.89-3.24Z"/><path class="cls-1" d="M77.4,391.24A7.83,7.83,0,0,1,81.61,381c2.21-1,.3-4.19-1.89-3.24a11.46,11.46,0,0,0-5.93,14.45c.89,2.21,4.52,1.25,3.62-1Z"/><path class="cls-1" d="M82.69,395.43l1.16-1.49a1,1,0,0,1,.52,0,1.44,1.44,0,0,1,1.28,1.48,1.88,1.88,0,0,0-1.87-1.87,1.93,1.93,0,0,0-1.87,1.88,2.27,2.27,0,0,0,4.54,0,1.88,1.88,0,0,0-3.75,0Z"/><path class="cls-1" d="M78.33,383.32a29.6,29.6,0,0,1,3.79,13l3.68-.5c-.21-1.31-1.21-10.63.62-11.26,1.15-.39,2.7,2.73,3,3.56A22,22,0,0,1,90.58,394h3.75c-.32-3.22.59-11.34,5.17-10.32q2.55-.54,1.7,1.91v8.53c0,2.43,3.61,2.4,3.75,0a18.15,18.15,0,0,1,8.53-14.57l-2.57-.67a27.9,27.9,0,0,1,3.1,14.13l3.68-.5-.41-2.87q-.89-5.1,2.82-1.25c3.29,2,2.65,1.8,1.55,4.94l3.68.5a19.85,19.85,0,0,1,.59-4.6q5.55-4.29,5.8-.37c.51,1.47.19,3.29,0,4.79h3.75a20.08,20.08,0,0,1,0-2.77c.4-3.65,3.36-4.56,5.48-.54,1.25,2.39,1.07,5.93,1,8.54h3.75c-.09-1.2-.49-2.84,0-4q-.29-2.05,2.1-1.3,2.65-1.2,1.87,1.09c.44,1.57-.32,3.89,0,5.65.36,2.09,3.77,1.6,3.68-.5a11.51,11.51,0,0,1,.37-4.29c1.15-3.36,5.21-3.34,6.91-.24,2.26,4.13-.94,8.81-3.19,12.3-1.31,2,1.93,3.92,3.24,1.89,3.78-5.85,8-16.22-.83-20.15-7-3.12-10.49,4.82-10.25,10.48l3.68-.5c-.67-3.93,1.92-11.68-4.87-11.62-5.9.06-6.8,6.65-6.44,11.15a1.88,1.88,0,0,0,3.75,0c.18-4.64-.23-14.91-6.24-16-6.33-1.18-7.82,6.21-7.68,10.8.08,2.46,3.49,2.35,3.75,0,.47-4.19.08-10.33-5.09-11.27-6.66-1.21-8.55,6.53-8.81,11.46-.12,2.22,3,2.4,3.68.5,1.61-4.6,2.61-13.71-4.8-13.94-7-.22-7.22,8.28-6.39,13.11.37,2.15,3.62,1.53,3.68-.5a32.09,32.09,0,0,0-3.61-16,1.89,1.89,0,0,0-2.57-.67,22.07,22.07,0,0,0-10.39,17.8h3.75c0-4.1,2.37-17-5.31-15.87-6.69,1-9.61,10.06-9,15.75.24,2.37,4,2.41,3.75,0-.38-4.06-1.61-14.43-7.57-14.11-6.49.35-5.21,12.88-4.57,16.93.33,2.08,3.81,1.6,3.68-.5a34.36,34.36,0,0,0-4.31-14.93c-1.17-2.11-4.41-.22-3.24,1.89Z"/><path class="cls-1" d="M369.41,402.42q-3.44-2.43-.59-5.25a13.78,13.78,0,0,1,1.75,2.66,23.36,23.36,0,0,1,2.19,6.16,1.88,1.88,0,0,0,3.68-.5c-.07-1.73-.91-5.31-.26-6.89q-.59-2.78,3.4-.54a20,20,0,0,1,.54,3.06c.27,2,3.11,1.58,3.62,0a12.86,12.86,0,0,0,.46-4.93,8.08,8.08,0,0,1-.2-2.3q-.5-2.37,1.8-.05a2.2,2.2,0,0,1,2.1,2.68c.37,2.14,3.64,1.55,3.68-.5l.1-4.61c0-1.64-.75-4.29,1.37-1.18a33.25,33.25,0,0,1,3.83,9.06c.72,2.37,4,1.34,3.62-1-.24-1.61-.48-3.21-.68-4.82s-1.28-3.44.86-3.88,1.73.86,2.22,2.62c.32,1.18.59,2.29,1,3.45.84,2.24,4.47,1.27,3.62-1-1.47-3.92-2.33-11.64-8.56-10.32-6,1.27-2.69,11-2.1,14.95l3.62-1c-1.16-3.79-3.66-13.37-8.55-14-5.58-.77-4.05,9-4.11,11.77l3.68-.5c-.66-3.86-3.55-10-8.63-7.43-4.53,2.29-1.57,8.31-2.76,12h3.62c-.54-4-2.62-9.42-7.76-8.23-5.54,1.28-3.43,9.74-3.29,13.59l3.68-.5c-.88-3.83-4.13-14.3-10-12-5.18,2-2.26,9.39.42,12.09,1.7,1.71,4.35-.94,2.65-2.65Z"/><path class="cls-1" d="M113.09,554.53a4.94,4.94,0,0,1,4.87.33A14.19,14.19,0,0,0,120.3,556a1.94,1.94,0,0,0,2.57-.67,7.28,7.28,0,0,0,1.22-3.86c.11-1.52-.81-4.07,2.22-4.09.59,0,1.58,1,2,1.29,2,1.26,4.42,2.91,6.86,1.66,3.16-1.62,1.69-4.48,2.28-7.12.84-3.73,4.87,1.23,7.68,1.06,2.39-.15,3.76-2.07,3.84-4.33s-2.81-7.66,2.85-4.14c1.7,1.06,2.41,3.21,4.39,4.09,2.24,1,5.36.66,6.61-1.7,1.83-3.45-1.7-6.27-4.31-7.72-2.11-1.17-4,2.06-1.89,3.24,1.89,1.05.67,1.8-.73,1.13-.69-.33-1.36-1.66-1.93-2.21a7.63,7.63,0,0,0-3.48-2.07,4.7,4.7,0,0,0-5.71,2.85,7.08,7.08,0,0,0-.11,3.29c.13,1.07.86,2,0,2.89s-.57.34-1.75-.05c-2.42-.8-3.91-3-6.72-1.73-2.21,1-2.5,3.22-2.44,5.42.15,5.79-3.42,1.7-6.37.55-2-.78-4.06-.86-5.66.77-2.51,2.54-.27,6.21-2.1,8.93l2.57-.67c-3.32-1.47-8.63-5.33-12-1.53-2.21,2.52-1,5.81,1.87,6.93,2.25.89,3.22-2.74,1-3.62Z"/><path class="cls-1" d="M223.05,245.69l-1.75,2.52,3.24,1.89a114.16,114.16,0,0,1,12.95-22.51l-3.49-.95a93.15,93.15,0,0,0,7.39,26.55c.67,1.5,3.07,1,3.43-.45A43.22,43.22,0,0,1,251,238.64l-3.43-.45a148.75,148.75,0,0,0,13.94,27.73c1,1.5,3.55,1,3.49-.95a159.1,159.1,0,0,1,2.1-30.91h-3.62A134.36,134.36,0,0,0,282,268.4a1.89,1.89,0,0,0,3.49-.95l.33-18-3.2,1.33,11.08,13.34c1.35,1.63,3.35-.22,3.13-1.82l-1.54-11.17-2.75,2.12q7.5,4.32,14.71,9.11c1.63,1.08,3.42-1,2.57-2.57l-1.34-2.44c-1.16-2.12-4.4-.23-3.24,1.89l1.34,2.44,2.57-2.57q-7.21-4.79-14.71-9.11c-1.56-.9-3,.58-2.75,2.12l1.54,11.17,3.13-1.82-11.08-13.34c-1.09-1.31-3.17-.18-3.2,1.33l-.33,18,3.49-.95a131.05,131.05,0,0,1-18.06-33.43c-.56-1.55-3.28-2-3.62,0A164.27,164.27,0,0,0,261.3,265l3.49-.95a144.08,144.08,0,0,1-13.57-26.84,1.9,1.9,0,0,0-3.43-.45,46,46,0,0,0-6.61,15l3.43-.45a86.92,86.92,0,0,1-6.88-24.66,1.89,1.89,0,0,0-3.49-.95,114.16,114.16,0,0,0-12.95,22.51,1.88,1.88,0,0,0,3.24,1.89l1.75-2.52c1.38-2-1.87-3.86-3.24-1.89Z"/><path class="cls-1" d="M287.19,49.59c-5-2.57-5.27-8.88-.1-11.29,3.85-1.79,8-.67,11.12,2a21.26,21.26,0,0,1,6.11,9.44c2.62,9.58-7.51,6.31-11.79,4-2.13-1.14-4,2.09-1.89,3.24,5.28,2.84,14.52,5.94,17.7-1.65,2.56-6.12-4.34-15.59-9-18.94-5-3.56-12.66-4-17.18.71-4.78,4.95-2.65,12.7,3.15,15.67,2.14,1.1,4-2.14,1.89-3.24Z"/><path class="cls-1" d="M232.41,59c2.67-6.65.49-14.85-5.82-18.64a14.84,14.84,0,0,0-19.28,22c4.54,5.47,13,6.26,17.54.44,1.48-1.88-1.16-4.55-2.65-2.65-3.72,4.73-10.16,3.29-13-1.6a11.35,11.35,0,0,1,2.54-14c9.35-7.84,21.23,3.05,17,13.46-.9,2.24,2.73,3.21,3.62,1Z"/><path class="cls-1" d="M263.4,103.12,260.25,105l2.27.29L261,103.14a1.9,1.9,0,0,0-3.43-.45l-1.83,2.52,3.49.95c.27-2.77-.76-4.51-3-6a1.89,1.89,0,0,0-2.57.67l-1.59,3.09,3.43.45a12,12,0,0,0-4.07-6.17,1.91,1.91,0,0,0-2.65,0,6.69,6.69,0,0,0-1.91,4.7l2.82-1.62a6.57,6.57,0,0,0-6.38-.12l2.75,1.12a7.17,7.17,0,0,0-3.52-4.53,1.9,1.9,0,0,0-2.75,1.12l-1.55,4,2.31-1.31c-1.75-.28-4.66-1.45-6.41-.86-1.55.52-2.84,2.63-3.92,3.78-1.65,1.76,1,4.42,2.65,2.65,2.5-2.67,3.1-2.53,6.68-2a2,2,0,0,0,2.31-1.31l1.55-4-2.75,1.12,1.8,2.29a1.91,1.91,0,0,0,2.75,1.12l2.59.12a1.9,1.9,0,0,0,2.82-1.62l.81-2h-2.65a8.71,8.71,0,0,1,3.11,4.52,1.9,1.9,0,0,0,3.43.45l1.59-3.09-2.57.67,1.13,2.8c-.2,2,2.53,2.28,3.49.95l1.83-2.52-3.43-.45a8.87,8.87,0,0,0,2.49,3.79,1.93,1.93,0,0,0,2.27.29l3.15-1.86c2.08-1.22.19-4.47-1.89-3.24Z"/><path class="cls-1" d="M275.57,104.29l-.92.1V107a6.58,6.58,0,0,1,6.59-1.09,1.84,1.84,0,0,0,1.82-.48l2-2.33-2.27.29,2.62,1.84a1.88,1.88,0,0,0,2.27-.29l3.89-4.29-3.13-.83,1.37,4.19a1.9,1.9,0,0,0,3.43.45l1.07-.35a2,2,0,0,0,2.57-.67l1.78-2.4-3.43-.45c1.48,3.63,4.62,5.41,8.49,4.44l-2.12-.86,1.78,3.38c1.12,2.14,4.36.24,3.24-1.89l-1.78-3.38a1.91,1.91,0,0,0-2.12-.86l-3.88-1.82a1.91,1.91,0,0,0-3.43-.45l-1.78,2.4,2.57-.67c-2.58-1.12-4.57-.63-6.2,1.7l3.43.45L292,98.86a1.89,1.89,0,0,0-3.13-.83L285,102.33l2.27-.29-2.62-1.84a1.88,1.88,0,0,0-2.27.29c-1.71,2-2.44,1-4.92,1.34A10.86,10.86,0,0,0,272,104.4a1.88,1.88,0,0,0,0,2.65c2.08,1.74,4.21,1.79,6.22-.1,1.76-1.66-.89-4.3-2.65-2.65Z"/><path class="cls-1" d="M174.41,399.34c-5-10.59,5.9-18.65,15.08-20.46,5.91-1.17,11.47-1.41,13.94-7.79,2.7-7,.64-14.64,7.5-19.63,5.68-4.14,13.41-4.91,20.22-5.12,9.29-.29,18.63,0,27.92.07,9,0,18-.27,27,.27,7.39.44,16,1.85,20.73,8.14,4.15,5.49,4.07,13,8,18.62,4.83,7,12.44,5.06,19.53,7.3,9.28,2.93,15,13.17,13.08,22.58l1.81-1.38-25.81,2.38,1.88,1.88c.75-10-7.29-21.53-18.32-20-9.52,1.32-15.83,13.06-10.53,21.35l1.62-2.82q-35.84-2-71.35-7.5L228,399c0-11.22-11.6-20.16-22.23-15a16.5,16.5,0,0,0-9.14,12.5c-.2,1.57.42,3.73-1.36,4.74-1.5.85-5.26.1-7,.07l-14.49-.25c-2.41,0-2.41,3.71,0,3.75,6.75.11,13.94,1,20.66.3,3.42-.34,5.17-1.8,5.76-5.12s.26-5.5,2.29-8.38a12.8,12.8,0,0,1,8-5.29C218,385,224.25,392,224.25,399a1.89,1.89,0,0,0,1.38,1.81q36,5.55,72.35,7.64a1.89,1.89,0,0,0,1.62-2.82c-4.11-6.43,1.44-15.75,9-15.84,8.38-.09,13.43,9,12.88,16.39a1.88,1.88,0,0,0,1.88,1.88l25.81-2.38a1.93,1.93,0,0,0,1.81-1.38,23.56,23.56,0,0,0-4.68-19.47,23.11,23.11,0,0,0-8.69-6.85c-4.12-1.82-8.29-1.51-12.61-2.39-10.23-2.09-9.52-13.21-13.69-20.73-3.55-6.4-10.22-9.65-17.17-11-9.19-1.79-18.83-1.16-28.13-1.2-11.39,0-22.81-.37-34.19-.12-7.07.16-14.71,1-21,4.49s-8.64,8.89-9.58,15.66c-.36,2.64-.43,5.66-1.75,8.05-1.73,3.14-4.88,3.53-8,4-4.83.77-9.51,1.91-13.61,4.72-7.13,4.88-10.45,13.71-6.69,21.71,1,2.18,4.26.28,3.24-1.89Z"/><path class="cls-1" d="M296,410.75c2.32,6.12,8.43,10.37,15.12,9.24,6.86-1.16,11.42-7.78,11-14.52-.13-2.4-3.89-2.42-3.75,0,.63,11.23-14.68,15.1-18.79,4.28-.85-2.23-4.48-1.27-3.62,1Z"/><path class="cls-1" d="M482.26,167.73l-9.71-29.18c-1.62-4.86-3.19-9.74-4.85-14.59-.77-2.23-1.46-4.22-4-4.77a1.86,1.86,0,0,0-1.82.48l-.41.52c-1.49,1.87,1.15,4.54,2.65,2.65-1.36,1.7,2.38,9.45,3,11.24l3.94,11.85,7.58,22.8c.76,2.28,4.38,1.3,3.62-1Z"/><path class="cls-1" d="M492.12,274.78c-1.79-5.24-6.7-8.94-12.42-7.72-6,1.29-8.38,6.5-8.78,12.1-.53,7.39.73,14.13,6.55,19.12a40.6,40.6,0,0,0,7.67,5c3.55,1.86,7.57,4.51,11.45,5.53,5.67,1.49,9.82-6.45,12.1-10.47,3.7-6.52,6.68-14.71,5.91-22.32-.57-5.63-4.21-11.29-10.2-12.16-7.14-1-11.77,6.44-15.81,11.05-1.58,1.81,1.06,4.47,2.65,2.65,2.68-3.07,6.23-8.86,10.41-9.9,6.82-1.7,9.49,6.49,9.28,11.55a38.14,38.14,0,0,1-4,14.4c-1.74,3.64-4.47,9.75-8.56,10.69-3.77.87-9.2-3.06-12.62-5-3.61-2-7.32-4.36-9.38-8.06-2.18-3.91-2.43-10.16-1.43-14.54,1.67-7.3,11.06-8.25,13.57-.94.78,2.27,4.4,1.3,3.62-1Z"/><path class="cls-1" d="M196.6,398.44c-2.14,4-1.48,8.37,1.16,12s8.06,8.43,12.63,9.42C221.57,422.33,225,409,225,400.76c0-2.41-3.76-2.42-3.75,0,0,5.6-1.15,16-9,15.61-6.1-.32-15.65-9.88-12.38-16,1.13-2.13-2.11-4-3.24-1.89Z"/><path class="cls-1" d="M432.94,512.42q18.77,26.41,37.6,52.77c1,1.36,3.67,1.09,3.49-.95-.9-10.53.44-20.92,1.46-31.39s1.58-21,1.72-31.56c0-2.41-3.72-2.42-3.75,0-.14,10.54-.69,21.07-1.72,31.56s-2.36,20.86-1.46,31.39l3.49-.95q-18.83-26.37-37.6-52.77c-1.39-2-4.64-.08-3.24,1.89Z"/><path class="cls-1" d="M462.93,510.07l30,46.31a1.89,1.89,0,0,0,3.49-.95l3.44-45.63c.27-3.56.58-7.12.81-10.68.1-1.54.55-3.9-.86-5.12a2.64,2.64,0,0,0-4.37,2c-.11,2.41,3.64,2.41,3.75,0q-2.89.39-2.27,3.08L496.6,503l-.59,7.77-1.1,14.56-2.27,30.1,3.49-.95-30-46.31c-1.31-2-4.55-.14-3.24,1.89Z"/><path class="cls-1" d="M240.92,356.72q6.27,17.66,12.57,35.31c.57,1.6,3.22,2,3.62,0,2.4-11.85,8.25-22.95,11.73-34.52.7-2.32-2.92-3.31-3.62-1-3.48,11.58-9.33,22.68-11.73,34.52h3.62q-6.31-17.65-12.57-35.31c-.8-2.26-4.43-1.29-3.62,1Z"/><path class="cls-1" d="M258,360.16l9.35,30.51a1.89,1.89,0,0,0,3.62,0l7.2-19.59,3.43-9.33c.64-1.73,1.44-3.1,1.07-4.9a1.86,1.86,0,0,0-1.31-1.31l-.51-.15a1.93,1.93,0,0,0-2.12.86l-.26.36c-1.39,2,1.86,3.85,3.24,1.89l.26-.36-2.12.86c-1.6-.46-.31-1.41-1.53.81a35.56,35.56,0,0,0-1.71,4.67l-3.09,8.4-6.17,16.79H271l-9.35-30.51c-.71-2.3-4.33-1.32-3.62,1Z"/><path class="cls-1" d="M477.37,172.39A98.46,98.46,0,0,1,490,173.83c2.31.43,8.16.77,9.11,3.29.58,1.54,0,3.35.86,5.1,1.23,2.64,3.47,4.61,5,7,7.07,11.18,3,30.83-12,31.83-12.72.85-29.55-7.3-29.12-21.7.2-6.75,4.19-10.11,8-15.06,2.82-3.63,4-7.51,2.08-11.81-1-2.21-4.2-.3-3.24,1.89,2.4,5.47-4,9.47-6.69,13.19a20.15,20.15,0,0,0-3.4,7.44,22.56,22.56,0,0,0,2.64,16.45c3.64,6,10.09,8.85,16.45,11.07,6.59,2.3,13.92,3.45,20.55.64,12-5.09,14-22.27,9.35-33.12-1.42-3.29-4-5.49-5.77-8.56-1.55-2.71.2-6.06-2.06-8.32s-7.93-2.47-10.82-3a105.62,105.62,0,0,0-13.59-1.58c-2.41-.13-2.4,3.62,0,3.75Z"/><rect class="cls-3" width="525" height="600"/></g></g></svg>