<svg xmlns="http://www.w3.org/2000/svg" viewBox="0 0 756.25 1183.68"><defs><style>.cls-1{fill:#fff;}</style></defs><title>Zasób 1</title><g id="Warstwa_2" data-name="Warstwa 2"><g id="Warstwa_1-2" data-name="Warstwa 1"><path class="cls-1" d="M293.64,186.29c.62,6.18,6.16,8.42,11.34,10.43a111.34,111.34,0,0,0,23.67,6.09c16.31,2.46,32.83,2.22,49.27,1.91,16.86-.31,34.07-.75,50.28-5.91a98.57,98.57,0,0,0,38.59-23.25c2.32-2.24-1.22-5.78-3.54-3.54a93,93,0,0,1-34.83,21.46c-14.48,4.89-29.82,5.77-45,6.13-14.24.33-28.55.71-42.76-.43a137.41,137.41,0,0,1-21.86-3.38,103.46,103.46,0,0,1-10-3c-2.85-1-9.75-2.73-10.13-6.52-.32-3.17-5.32-3.2-5,0Z"/><path class="cls-1" d="M297.69,188.34l3.82-13.21-3.67,1.49a184.39,184.39,0,0,0,85.89,15.17,181.58,181.58,0,0,0,43.18-8.08c12.29-3.92,25.08-8.91,33.37-19.28L456,162.67l.69,10.09c.22,3.19,5.22,3.22,5,0L461,162.67c-.13-1.92-2.8-3.61-4.27-1.77-8.3,10.39-21.31,15-33.65,18.76A176.25,176.25,0,0,1,382,186.9a179,179,0,0,1-81.64-14.59,2.55,2.55,0,0,0-3.67,1.49L292.87,187c-.9,3.1,3.93,4.42,4.82,1.33Z"/><path class="cls-1" d="M466.45,166.27l.38-.36a2.5,2.5,0,0,0,.64-2.43c-1.18-4.1-8.09-2.2-7.25,2,.54,2.73,4.33,4.59,6.11,6.37a32.56,32.56,0,0,0,10.35,6.74c3.57,1.58,7.35,3,10.37,5.49,4.25,3.55,5.82,8.92,6.65,14.2,1.48,9.34,1.75,18.8,3.46,28.14,3.29,17.93,9.27,35.65,18.94,51.18a105.35,105.35,0,0,0,16.35,20.35c7.15,6.87,15.49,12.09,23.59,17.73,9.72,6.76,17.93,14.68,22.79,25.64a54.88,54.88,0,0,1,3.38,33.78l4.18-1.1a25.84,25.84,0,0,0-26.23-4.7l2.82,3.67c7.69-11.18,3.31-25.91-4.93-35.52-11-12.81-27.65-19-39-31.58-25-27.6-28.55-66.77-32.94-102-1-7.85-.73-18.25-5-25.14-2.08-3.32-5.8-5.39-8.48-8.22a46.42,46.42,0,0,1-8.28-12.44c-1.36-2.91-5.67-.38-4.32,2.52A49.44,49.44,0,0,0,473,177.77c3,2.5,4.77,4.81,5.6,8.72,1,4.76,1.47,9.68,2.09,14.5,2.25,17.68,4,35.49,8,52.88,3.48,15,8.83,29.9,17.19,42.95s19.18,22,31.8,30.47c13,8.71,32.93,25.7,20.94,43.13-1.19,1.72.81,4.44,2.82,3.67a20.88,20.88,0,0,1,21.36,3.42c1.34,1.13,3.75.87,4.18-1.1a60.09,60.09,0,0,0-9.09-46.89C567.2,314.13,549.23,307.13,536,294.4c-12.81-12.31-21.79-28.09-27.59-44.78a166.76,166.76,0,0,1-6.68-26.06c-1.5-8.58-1.81-17.26-3.08-25.86s-4.74-16-12.66-20.33c-3.75-2-7.89-3.29-11.57-5.45a26,26,0,0,1-5.34-4.66,16.21,16.21,0,0,0-1.36-1.26l-1-.68q-1.57-1.65-2.34,1l-1.75-1.75.08.26.64-2.43-.38.36c-2.32,2.24,1.22,5.77,3.54,3.54Z"/><path class="cls-1" d="M467.48,162.17c12.17,7.94,28.66,12,37,24.76,4.14,6.34,3.74,13.62,5.15,20.77a58.3,58.3,0,0,0,7,18.2c13.72,23.28,41.88,33.86,67.66,26.21L581.21,249a71.92,71.92,0,0,1-10,19.12,68.79,68.79,0,0,1-7.15,8.24c-3.74,3.69-6.91,1.1-10.33-1.31a140.06,140.06,0,0,1-27.87-26.18,144,144,0,0,1-30.53-69.39c-.47-3.17-5.29-1.82-4.82,1.33a148.62,148.62,0,0,0,37.83,78.53,143.84,143.84,0,0,0,16.84,15.54c4,3.13,10.38,9.77,15.89,9.25s11-8.77,14-12.81a77.11,77.11,0,0,0,11-21,2.52,2.52,0,0,0-3.08-3.08c-27.72,8.23-57.62-6.65-66.77-34.33-2.13-6.45-2.09-13.12-3.62-19.67a30.63,30.63,0,0,0-7.85-14c-9.54-10.06-23.35-14-34.72-21.43-2.7-1.76-5.21,2.56-2.52,4.32Z"/><path class="cls-1" d="M528.68,966.22a50.89,50.89,0,0,0,32.63,22.95c4.17.87,13.47,3.05,17-.48,3.17-3.18-.57-6.79-4.11-5.18a2.52,2.52,0,0,0-1.15,2.82l.12.47c.77,3.12,5.59,1.8,4.82-1.33l-.12-.47-1.15,2.82,0,.17-2.16-1.24.3.55v-2.52c-1.07,2-11.33-.24-12.92-.59a46,46,0,0,1-11.15-4.05A45.48,45.48,0,0,1,533,963.7c-1.7-2.73-6-.22-4.32,2.52Z"/><path class="cls-1" d="M539.89,951.69a54.27,54.27,0,0,0,22.9,12.58,53.6,53.6,0,0,0,12.3,1.71c3.22.07,8.3.59,10.57-2.18a2.59,2.59,0,0,0,.39-3,3.33,3.33,0,0,0-3.11-1.78,2.55,2.55,0,0,0-2.41,1.84l-.16.42c-1.12,3,3.71,4.33,4.82,1.33l.16-.42L582.93,964l.64,0-2.16-1.24.31.5.39-3c-1.29,1.58-7.64.74-9.38.62a48.58,48.58,0,0,1-29.31-12.72c-2.37-2.16-5.92,1.36-3.54,3.54Z"/><path class="cls-1" d="M536.93,933.49l1.5,1.5a2.5,2.5,0,0,0,3.54-3.54l-1.5-1.5a2.5,2.5,0,0,0-3.54,3.54Z"/><path class="cls-1" d="M547,936.31q-.21-.32.12.33a1.75,1.75,0,0,1,0,.94q-.31.65-.13.32-.43.52-.23.3t-.31.22q.33-.19-.32.12.38-.09-.38.05-1.46-.55-.89-.21a2.52,2.52,0,0,0,3.42-.9,2.55,2.55,0,0,0-.9-3.42,3.48,3.48,0,0,0-4.72,4.76,2.5,2.5,0,1,0,4.32-2.52Z"/><path class="cls-1" d="M549,934.57a7.76,7.76,0,0,0-2.17,6.08c.13,1.22,1,2.67,2.5,2.5a5.55,5.55,0,0,0,5.14-5.41,2.5,2.5,0,0,0-5,0q0,.41,0,.14t-.06.13q.12-.29,0-.06t0,0l-.17.17q.3-.2-.07,0c.42-.18-.41.07.13,0l2.5,2.5a5.43,5.43,0,0,1,0-1c0,.4.1-.38.13-.49a2.71,2.71,0,0,1,.61-1,2.5,2.5,0,0,0-3.54-3.54Z"/><path class="cls-1" d="M562.7,939.72h-1.5a2.5,2.5,0,0,0,0,5h1.5a2.5,2.5,0,0,0,0-5Z"/><path class="cls-1" d="M573.2,947.72h1.5a2.5,2.5,0,0,0,0-5h-1.5a2.5,2.5,0,0,0,0,5Z"/><path class="cls-1" d="M576.2,947.72h3a2.5,2.5,0,0,0,0-5h-3a2.5,2.5,0,0,0,0,5Z"/><path class="cls-1" d="M586.7,947.72c3.22,0,3.22-5,0-5s-3.22,5,0,5Z"/><path class="cls-1" d="M161.73,590.44a54.48,54.48,0,0,1,12.51-18.2L170,570.47l.62,21.74c.06,2.08,2.74,3.4,4.27,1.77l14.32-15.35-4.18-1.1a48,48,0,0,0,6.62,16.93,2.52,2.52,0,0,0,3.93.51L207.8,580.6l-4.18-1.1a194.15,194.15,0,0,1,2.85,25.17,2.53,2.53,0,0,0,3.76,2.16l8.78-4.34c2.88-1.43.35-5.74-2.52-4.32l-8.78,4.34,3.76,2.16a204.48,204.48,0,0,0-3-26.5,2.51,2.51,0,0,0-4.18-1.1L192,591.44l3.93.51a44.47,44.47,0,0,1-6.12-15.74,2.52,2.52,0,0,0-4.18-1.1l-14.32,15.35,4.27,1.77L175,570.47a2.53,2.53,0,0,0-4.27-1.77,60.49,60.49,0,0,0-13.79,20.41c-1.24,3,3.6,4.26,4.82,1.33Z"/><path class="cls-1" d="M545.56,619.74a55.14,55.14,0,0,1,5-24H546.2a207,207,0,0,0,12.56,20.59c1,1.43,3.41,1.8,4.32,0l8.11-16.11-3.93.51a57.85,57.85,0,0,1,9.73,13.8,2.52,2.52,0,0,0,4.32,0,133,133,0,0,0,8.39-20.13l-4.57.6a66.34,66.34,0,0,0,15.37,16,2.5,2.5,0,0,0,3.42-.9,107.48,107.48,0,0,0,6.39-19.65l-4.57.6q5.92,11.13,12.84,21.64c1.07,1.63,4.16,1.67,4.57-.6a65,65,0,0,1,6.34-18.77h-4.32a44,44,0,0,1,5.36,12.07c.86,3.1,5.68,1.78,4.82-1.33a48.62,48.62,0,0,0-5.87-13.26,2.52,2.52,0,0,0-4.32,0,69.4,69.4,0,0,0-6.85,20l4.57-.6q-6.93-10.53-12.84-21.64a2.53,2.53,0,0,0-4.57.6,101,101,0,0,1-5.88,18.45l3.42-.9a59.18,59.18,0,0,1-13.58-14.23,2.54,2.54,0,0,0-4.57.6A124.91,124.91,0,0,1,577,612h4.32a62.41,62.41,0,0,0-10.51-14.81,2.52,2.52,0,0,0-3.93.51l-8.11,16.11h4.32a207,207,0,0,1-12.56-20.59c-.83-1.55-3.54-1.71-4.32,0a61,61,0,0,0-5.64,26.48c0,3.21,5,3.22,5,0Z"/><path class="cls-1" d="M577.17,988.17c6.6,43.75,13.35,90.45-4.22,132.63-15,36-52.86,66.7-93.76,56-34.05-8.9-86.17-50.58-54.32-88.12,9.45-11.14,24-20.82,25.71-36.54.85-7.73-3.13-12.78-10.79-13.64-3.71-.41-7.64-.34-10-3.69-2.23-3.12-2.16-7.55-1.25-11.11,2.72-10.67,13.84-13.93,23.36-16.23,10-2.42,19.49-5,28.38-10.43,17.8-10.86,30.77-27.82,43.15-44.22l-3.93.51A133.1,133.1,0,0,0,576.78,993a2.53,2.53,0,0,0,2.82-1.15,35.75,35.75,0,0,0,3.06-31.09,2.57,2.57,0,0,0-3.08-1.75,48.27,48.27,0,0,1-47.44-16,2.5,2.5,0,0,0-3.54,0l-13.69,17.36c-2,2.5,1.54,6.06,3.54,3.54l13.69-17.36h-3.54a53.25,53.25,0,0,0,52.31,17.3l-3.08-1.75a30.92,30.92,0,0,1-2.55,27.23l2.82-1.15A128.2,128.2,0,0,1,523,949.81c-1.15-1.36-3-.66-3.93.51-12.42,16.46-25.63,33.77-44,44-9.74,5.41-20.27,6.82-30.75,10-7.51,2.3-15.17,6-18.85,13.32-2.86,5.68-3.74,13.15-.54,18.9a12.56,12.56,0,0,0,5.86,5.39c3.75,1.66,9.47.27,12.68,2.66,4.5,3.36,1.58,11.3-.41,15.28a49.62,49.62,0,0,1-8.33,11.29c-5.59,6-11.82,11.47-16.68,18.13-11.74,16.07-9.21,37.39,1.79,53.19,11.42,16.4,30.52,28.74,48.83,36.1,38.51,15.48,80.2-6,100.68-39.7,27.9-45.84,20.21-101.73,12.62-152-.48-3.17-5.3-1.82-4.82,1.33Z"/><path class="cls-1" d="M413.29,1110.88l2,9.82c.56,2.76,5,2.14,4.91-.66l-.54-13.75a2.5,2.5,0,0,0-5,0,35.59,35.59,0,0,0,6.22,22.36,2.52,2.52,0,0,0,4.66-1.26,84.81,84.81,0,0,0-3.71-25.69L417,1103l10.2,31.9c.82,2.56,5.13,2.28,4.91-.66A132.77,132.77,0,0,0,425.3,1101a2.5,2.5,0,0,0-4.82,1.33,90.82,90.82,0,0,0,14,34.88c1.51,2.26,5.44.91,4.57-1.93L429.09,1103c-.94-3.07-5.66-1.79-4.82,1.33a189.5,189.5,0,0,0,13.93,36.41c1.07,2.11,5,1.22,4.66-1.26q-2.82-22.59-7.83-44.8c-.72-3.18-5.37-1.79-4.82,1.33a173,173,0,0,0,14.25,44.59c1.32,2.78,5,.63,4.57-1.93a437,437,0,0,0-10.24-49.16c-.85-3.15-5.39-1.79-4.82,1.33a166.45,166.45,0,0,0,20.1,54.12,2.51,2.51,0,0,0,4.57-1.93l-15.06-60.4c-.78-3.13-5.53-1.8-4.82,1.33a313.61,313.61,0,0,0,24.41,69c1.27,2.59,5.28.76,4.57-1.93l-18.59-70.58c-.83-3.16-5.38-1.79-4.82,1.33A220.94,220.94,0,0,0,473.25,1158c1.52,2.49,5.11.81,4.57-1.93q-7.76-39.37-16.8-78.47c-.74-3.18-5.35-1.79-4.82,1.33A268.41,268.41,0,0,0,479,1150.33c1.3,2.7,5.06.69,4.57-1.93q-8.07-42.63-19.11-84.61c-.69-2.64-5.25-2.2-4.91.66a337.77,337.77,0,0,0,24.77,93.26c1.15,2.71,5.15.7,4.57-1.93L465.07,1048c-.7-3.15-5.45-1.81-4.82,1.33A810.45,810.45,0,0,0,490,1158a2.5,2.5,0,0,0,4.82-1.33q-10.2-57.19-23.68-113.72c-.75-3.14-5.48-1.8-4.82,1.33A671.87,671.87,0,0,0,500,1155.39c1.17,2.93,5.55,1.88,4.82-1.33l-26.61-116.67-4.82,1.33a856.66,856.66,0,0,0,33.08,107.77,2.5,2.5,0,0,0,4.82-1.33q-10.81-56.34-25.65-111.78c-.84-3.13-5.48-1.8-4.82,1.33a1012.53,1012.53,0,0,0,28.21,105.07,2.5,2.5,0,0,0,4.82-1.33L490,1030.18c-.7-3.18-5.35-1.79-4.82,1.33a512.63,512.63,0,0,0,28.09,101.6,2.5,2.5,0,0,0,4.82-1.33q-7.83-55.76-20.59-110.65c-.73-3.15-5.47-1.81-4.82,1.33,8.49,41.23,17.26,82.71,35,121.13,1.28,2.78,5,.63,4.57-1.93A1045.7,1045.7,0,0,0,507.38,1026c-.87-3.15-5.38-1.79-4.82,1.33A1009.21,1009.21,0,0,0,527.4,1133.4c.92,3.15,5.35,1.79,4.82-1.33q-10-59-23.91-117.17c-.76-3.15-5.44-1.8-4.82,1.33A944.13,944.13,0,0,0,530.39,1121c.81,2.54,5.22,2.27,4.91-.66A1050.91,1050.91,0,0,0,517,1006.66c-.59-2.71-5.15-2.17-4.91.66a487.67,487.67,0,0,0,23.72,114.17c.84,2.49,5.31,2.29,4.91-.66a1102.27,1102.27,0,0,0-23.43-122.37c-.79-3.15-5.44-1.8-4.82,1.33a822.74,822.74,0,0,0,27.08,101.72c.84,2.51,5.2,2.3,4.91-.66a839.54,839.54,0,0,0-17-105.9c-.72-3.17-5.37-1.79-4.82,1.33a830.17,830.17,0,0,0,26.53,107.59c.82,2.57,5.1,2.27,4.91-.66a781.71,781.71,0,0,0-14.43-107c-.57-2.74-5.07-2.15-4.91.66a382.5,382.5,0,0,0,16.62,92c.81,2.59,5.07,2.26,4.91-.66a464.07,464.07,0,0,0-12.77-85.65c-.66-2.68-5.12-2.19-4.91.66a303.51,303.51,0,0,0,18.2,83.41c.91,2.45,5.13,2.35,4.91-.66a492.7,492.7,0,0,0-14.26-87.28c-.68-2.65-5.27-2.19-4.91.66a422.52,422.52,0,0,0,23.16,94.91c.91,2.46,5.09,2.35,4.91-.66A448.16,448.16,0,0,0,551.36,988c-.79-2.56-5.2-2.26-4.91.66a317.2,317.2,0,0,0,22.42,89.66c1,2.37,5.09,2.42,4.91-.66a402.34,402.34,0,0,0-13-80.74c-.86-3.21-5.24-1.76-4.82,1.33a216.89,216.89,0,0,0,16.57,58.31c1,2.29,4.79,1.11,4.66-1.26a316.73,316.73,0,0,0-11.9-70.7c-.9-3.11-5.49-1.81-4.82,1.33l7.89,37c.58,2.73,5.11,2.16,4.91-.66a188.8,188.8,0,0,0-9.71-48.13c-.87-2.53-5.07-2.3-4.91.66a147.55,147.55,0,0,0,6.67,36.65,2.51,2.51,0,0,0,4.91-.66,84.6,84.6,0,0,0-3.84-34.55c-.85-2.59-5-2.26-4.91.66a65.49,65.49,0,0,0,5.64,25.2c1.1,2.51,4.46.91,4.66-1.26a76.15,76.15,0,0,0-3-29.24c-.79-2.62-5-2.24-4.91.66l.91,21.59c.13,3,3.86,3.19,4.91.66a39.08,39.08,0,0,0,3-17.21c-.16-3.2-5-3.24-5,0l0,14.39c0,3.22,5,3.22,5,0l0-14.39h-5a35.89,35.89,0,0,1-2.78,15.88l4.91.66-.91-21.59L564,973a72.23,72.23,0,0,1,2.79,27.91l4.66-1.26a59.08,59.08,0,0,1-5-22.68l-4.91.66a81,81,0,0,1,3.66,33.22l4.91-.66a142.07,142.07,0,0,1-6.49-35.32l-4.91.66a183.59,183.59,0,0,1,9.54,46.81l4.91-.66-7.89-37L560.51,986a310.63,310.63,0,0,1,11.72,69.37l4.66-1.26A212.62,212.62,0,0,1,560.83,997L556,998.29a395.57,395.57,0,0,1,12.78,79.41l4.91-.66a312.86,312.86,0,0,1-22.24-88.33l-4.91.66a442.42,442.42,0,0,1,19,104.15l4.91-.66a417.1,417.1,0,0,1-23-93.58l-4.91.66a485.09,485.09,0,0,1,14.08,86l4.91-.66a298.76,298.76,0,0,1-18-82.08l-4.91.66a456.69,456.69,0,0,1,12.6,84.32l4.91-.66a376.86,376.86,0,0,1-16.44-90.64l-4.91.66a771.84,771.84,0,0,1,14.25,105.72l4.91-.66A830.17,830.17,0,0,1,527.44,995l-4.82,1.33a829,829,0,0,1,16.85,104.57l4.91-.66a822.74,822.74,0,0,1-27.08-101.72l-4.82,1.33a1090.63,1090.63,0,0,1,23.25,121l4.91-.66a482.11,482.11,0,0,1-23.54-112.84l-4.91.66a1038.63,1038.63,0,0,1,18.1,112.38l4.91-.66A944.13,944.13,0,0,1,508.3,1014.9l-4.82,1.33q13.95,58.16,23.91,117.17l4.82-1.33A1009.21,1009.21,0,0,1,507.38,1026l-4.82,1.33A1045.7,1045.7,0,0,1,527.45,1143l4.57-1.93c-17.55-38-26.1-79.17-34.5-119.93l-4.82,1.33q12.75,54.84,20.59,110.65l4.82-1.33A512.63,512.63,0,0,1,490,1030.18l-4.82,1.33,23.87,108.27,4.82-1.33a1012.53,1012.53,0,0,1-28.21-105.07l-4.82,1.33q14.84,55.41,25.65,111.78l4.82-1.33a856.66,856.66,0,0,1-33.08-107.77c-.74-3.13-5.54-1.81-4.82,1.33L500,1155.39l4.82-1.33a671.87,671.87,0,0,1-33.72-111.15l-4.82,1.33Q479.8,1100.75,490,1158l4.82-1.33A810.45,810.45,0,0,1,465.07,1048l-4.82,1.33,23.84,107.75,4.57-1.93a329.46,329.46,0,0,1-24.09-90.73l-4.91.66q11,42,19.11,84.61l4.57-1.93A263.86,263.86,0,0,1,461,1077.56l-4.82,1.33q9,39.09,16.8,78.47l4.57-1.93a217.12,217.12,0,0,1-28.42-75l-4.82,1.33,18.59,70.58,4.57-1.93a308,308,0,0,1-23.91-67.79l-4.82,1.33,15.06,60.4,4.57-1.93a162.37,162.37,0,0,1-19.6-52.92l-4.82,1.33A437,437,0,0,1,444.21,1140l4.57-1.93a168.31,168.31,0,0,1-13.74-43.4l-4.82,1.33q4.88,21.54,7.65,43.47l4.66-1.26A183.05,183.05,0,0,1,429.09,1103l-4.82,1.33,9.91,32.22,4.57-1.93A87.37,87.37,0,0,1,425.3,1101l-4.82,1.33a127.5,127.5,0,0,1,6.63,32l4.91-.66-10.2-31.9c-1-3-5.77-1.77-4.82,1.33a80.27,80.27,0,0,1,3.53,24.36l4.66-1.26a31.08,31.08,0,0,1-5.54-19.84h-5l.54,13.75,4.91-.66-2-9.82c-.64-3.15-5.46-1.82-4.82,1.33Z"/><path class="cls-1" d="M510.37,976a112.5,112.5,0,0,0,7.78,23c1.14,2.48,4.46.94,4.66-1.26a129.79,129.79,0,0,0-.94-30.64L517,968.45l7.6,31c.56,2.29,4.39,2.48,4.82,0A88.35,88.35,0,0,0,528.9,966c-.66-3.16-5.41-1.81-4.82,1.33l5.83,30.84c.55,2.94,4.7,2,4.91-.66a170.79,170.79,0,0,0-1.25-38.1c-.41-2.84-4.9-2.08-4.91.66a115.79,115.79,0,0,0,5.26,34.9c.88,2.81,4.64,2.08,4.91-.66a214,214,0,0,0,.83-30.75,2.5,2.5,0,0,0-5,0,87.15,87.15,0,0,0,6.07,36.27c.8,2,4.36,2.71,4.82,0a81.33,81.33,0,0,0-2.78-39.16,2.51,2.51,0,0,0-4.91.66,90.74,90.74,0,0,0,6,38.37c.79,2,4.36,2.7,4.82,0a76.49,76.49,0,0,0-1.9-34.6c-.75-2.59-5.24-2.23-4.91.66a82.1,82.1,0,0,0,10,31.18c1.34,2.38,4.36,1,4.66-1.26a72.66,72.66,0,0,0-2.24-29.6c-.76-2.66-5-2.21-4.91.66a64.65,64.65,0,0,0,8.3,30.21,2.53,2.53,0,0,0,4.57-.6,61.69,61.69,0,0,0,.27-26.55c-.58-2.82-4.87-2.09-4.91.66a77,77,0,0,0,5.15,29.05c.86,2.22,4.08,2.52,4.82,0a45.75,45.75,0,0,0,.59-24c-.75-3.13-5.53-1.81-4.82,1.33l6.16,27.23c.54,2.4,4.26,2.37,4.82,0a14.39,14.39,0,0,0-.35-8.5c-1-3-5.87-1.73-4.82,1.33a9.58,9.58,0,0,1,.35,5.84h4.82l-6.16-27.23-4.82,1.33a40.48,40.48,0,0,1-.59,21.35h4.82a73,73,0,0,1-5-27.72l-4.91.66a55.47,55.47,0,0,1-.27,23.89l4.57-.6a59,59,0,0,1-7.61-27.69l-4.91.66a69,69,0,0,1,2.06,28.27l4.66-1.26a75.78,75.78,0,0,1-9.36-28.66l-4.91.66a70.69,70.69,0,0,1,1.9,31.94h4.82a87.26,87.26,0,0,1-5.86-37l-4.91.66a75.94,75.94,0,0,1,2.78,36.5h4.82a83.66,83.66,0,0,1-5.89-34.94h-5a214,214,0,0,1-.83,30.75l4.91-.66a111.13,111.13,0,0,1-5.08-33.57l-4.91.66a165.12,165.12,0,0,1,1.08,36.77l4.91-.66L528.9,966l-4.82,1.33a81.46,81.46,0,0,1,.57,30.79h4.82l-7.6-31c-.78-3.2-5.28-1.77-4.82,1.33a124.3,124.3,0,0,1,.76,29.31l4.66-1.26a106.59,106.59,0,0,1-7.27-21.85c-.69-3.14-5.51-1.81-4.82,1.33Z"/><path class="cls-1" d="M432.7,1020.22l0,7.41h5l-.29-5.29c-.16-3-3.85-3.2-4.91-.66a20.91,20.91,0,0,0-1.56,6.86c-.2,2.86,4.16,3.32,4.91.66l3.51-12.41h-4.82l5.46,15.77a2.51,2.51,0,0,0,4.91-.66l.56-21-4.91.66,5.58,19.46a2.52,2.52,0,0,0,4.82,0,43.53,43.53,0,0,0,1.74-17.33l-4.91.66a106.64,106.64,0,0,0,9.94,32.24c1.08,2.22,4.8,1.16,4.66-1.26q-.92-16.34-3.3-32.53l-4.82,1.33a378.15,378.15,0,0,1,10.3,39.1c.6,2.88,4.77,2,4.91-.66a219.28,219.28,0,0,0-2.14-44.18l-4.82,1.33A199.28,199.28,0,0,0,473.71,1048c1,2.46,4.93,2.37,4.91-.66q-.12-21.49-2.09-42.9l-4.91.66a211.91,211.91,0,0,0,8.22,33.37,2.51,2.51,0,0,0,4.91-.66,264.88,264.88,0,0,0,1-34.59h-5a84.11,84.11,0,0,0,11.55,33.26c1.23,2,4.81,1.3,4.66-1.26q-1.22-21.39-4-42.63l-4.91.66a138.81,138.81,0,0,0,10.76,29.84c.89,1.8,4.28,1.54,4.57-.6a115.49,115.49,0,0,0-1-37.39l-4.82,1.33A196.09,196.09,0,0,0,507.79,1020c.85,2.09,4.19,2.64,4.82,0A83.21,83.21,0,0,0,512.3,980c-.68-2.66-5.18-2.2-4.91.66a90.29,90.29,0,0,0,9,31.88,2.52,2.52,0,0,0,4.32,0,23.58,23.58,0,0,0,.78-19.91c-1.22-2.93-6.06-1.64-4.82,1.33a19,19,0,0,1-.28,16.06h4.32a83.42,83.42,0,0,1-8.35-29.36l-4.91.66a77.58,77.58,0,0,1,.31,37.41h4.82a196.09,196.09,0,0,1-10.22-33.57c-.66-3.16-5.42-1.81-4.82,1.33a107.84,107.84,0,0,1,1,34.73l4.57-.6a133,133,0,0,1-10.26-28.65c-.63-2.68-5.28-2.17-4.91.66q2.79,21.24,4,42.63l4.66-1.26a78.18,78.18,0,0,1-10.87-30.74c-.4-3.09-5.12-3.31-5,0a264.88,264.88,0,0,1-1,34.59l4.91-.66a211.91,211.91,0,0,1-8.22-33.37c-.45-2.76-5.17-2.14-4.91.66q2,21.4,2.09,42.9l4.91-.66a199.28,199.28,0,0,1-11.15-38.36c-.59-3.2-5.29-1.79-4.82,1.33a212.88,212.88,0,0,1,2,42.86l4.91-.66a378.15,378.15,0,0,0-10.3-39.1c-1-3.14-5.28-1.79-4.82,1.33q2.27,15.53,3.13,31.2l4.66-1.26a102.58,102.58,0,0,1-9.44-31c-.39-2.76-5.19-2.14-4.91.66a40,40,0,0,1-1.56,16H451l-5.58-19.46a2.51,2.51,0,0,0-4.91.66l-.56,21,4.91-.66-5.46-15.77a2.52,2.52,0,0,0-4.82,0l-3.51,12.41,4.91.66a16,16,0,0,1,1.38-5.53l-4.91-.66.29,5.29c.18,3.19,5,3.24,5,0l0-7.41c0-3.22-5-3.22-5,0Z"/><path class="cls-1" d="M469.32,1155.92l1.73-7h-4.82l5.28,15.6c.71,2.11,4.39,2.63,4.82,0l4-24.39h-4.82a104.57,104.57,0,0,1,5.22,21.44,2.5,2.5,0,0,0,5,0l3.4-27.39-4.91.66L491,1161.1c.61,2.32,4.28,2.44,4.82,0a77,77,0,0,0,1.6-23.49l-4.91.66,5,28.05c.54,3,4.6,1.88,4.91-.66a206.72,206.72,0,0,0,1.2-36.31c-.17-3.19-5-3.24-5,0a139.65,139.65,0,0,0,6.15,41.08c.88,2.88,4.56,2,4.91-.66a202,202,0,0,0,1.14-41.87l-4.91.66,7.19,32.84c.61,2.76,5,2.14,4.91-.66l-.93-46.3-4.91.66,4.72,34.39c.38,2.77,5.11,2.14,4.91-.66a187.85,187.85,0,0,1,1.56-41.66h-4.82l5.8,40c.42,2.92,4.75,2,4.91-.66l2.49-41.35h-5l5.25,46.12a2.5,2.5,0,0,0,5,0l4.51-48.36-4.91.66a110.6,110.6,0,0,1,3.9,34.83h5l.56-47.49h-5a255.23,255.23,0,0,0,6.29,38.13c.68,2.78,4.85,2.12,4.91-.66l1.17-55.18-4.91.66,7.83,37.46c.58,2.78,5,2.13,4.91-.66l-.74-50.37-4.91.66,8.27,43.61c.44,2.33,4.48,2.44,4.82,0a294.21,294.21,0,0,0,2.83-49.29h-5l4.73,38.12a2.5,2.5,0,0,0,5,0,290.78,290.78,0,0,0,.8-36.75c-.13-3.21-4.93-3.23-5,0a77.27,77.27,0,0,0,2.54,21.43c.72,2.73,4.9,2.16,4.91-.66q0-18.85-1-37.67c-.18-3.2-5.18-3.22-5,0q1.06,18.82,1,37.67l4.91-.66a72.32,72.32,0,0,1-2.36-20.1h-5a290.78,290.78,0,0,1-.8,36.75h5l-4.73-38.12c-.38-3.09-5.09-3.31-5,0a286.49,286.49,0,0,1-2.65,48h4.82l-8.27-43.61c-.53-2.8-5-2.11-4.91.66l.74,50.37,4.91-.66-7.83-37.46c-.59-2.82-4.85-2.09-4.91.66l-1.17,55.18,4.91-.66a246.28,246.28,0,0,1-6.11-36.8c-.28-3.16-5-3.27-5,0l-.56,47.49c0,3.23,4.85,3.2,5,0a115.1,115.1,0,0,0-4.07-36.16c-.79-2.86-4.66-2-4.91.66L532,1151.25h5l-5.25-46.12a2.5,2.5,0,0,0-5,0l-2.49,41.35,4.91-.66-5.8-40c-.35-2.39-4.46-2.38-4.82,0a193.61,193.61,0,0,0-1.74,43l4.91-.66L517,1113.78c-.39-2.82-5-2.1-4.91.66l.93,46.3,4.91-.66-7.19-32.84c-.59-2.72-5.13-2.17-4.91.66a202,202,0,0,1-1.14,41.87l4.91-.66a134.9,134.9,0,0,1-6-39.75h-5a206.72,206.72,0,0,1-1.2,36.31l4.91-.66-5-28.05c-.49-2.75-5.15-2.15-4.91.66a72.43,72.43,0,0,1-1.43,22.17h4.82L489,1133.5c-.77-2.94-4.58-2-4.91.66l-3.4,27.39h5a110.61,110.61,0,0,0-5.4-22.77c-.74-2.08-4.39-2.66-4.82,0l-4,24.39h4.82l-5.28-15.6c-.75-2.23-4.2-2.52-4.82,0l-1.73,7c-.77,3.12,4.05,4.46,4.82,1.33Z"/><path class="cls-1" d="M428.89,1141.91c-1.67,4.94,1.46,10.71,6.85,11.29,5.16.56,9.56-4.58,8.82-9.59s-6.59-7.82-11.19-6.08c-6.7,2.54-2.76,11.35-.31,15.88a2.52,2.52,0,0,0,4.32,0,37.83,37.83,0,0,0,3.56-12.66l-4.91.66,3.16,16.11c.51,2.59,4.09,2.15,4.82,0a63.86,63.86,0,0,0,3.43-21.51l-4.91.66L449.9,1164c.76,2.8,4.75,2.09,4.91-.66l1.41-24.64-4.91.66,7.29,27.95c.65,2.51,4,2.24,4.82,0a54.29,54.29,0,0,0,2.71-23.67c-.33-3.15-5.3-3.22-5,0A86.94,86.94,0,0,0,470,1174.8c1,1.93,4.07,1.42,4.57-.6a116.14,116.14,0,0,0,3.37-27.95l-4.91.66,6.52,23.76c.69,2.5,4,2.24,4.82,0a51.71,51.71,0,0,0,2.75-22.7l-4.91.66a166.89,166.89,0,0,0,7.23,25.9c.77,2.1,4.3,2.63,4.82,0a114.41,114.41,0,0,0,2.23-23.63l-4.91.66a67.21,67.21,0,0,0,6.93,17.54c1,1.8,4.12,1.54,4.57-.6a95.88,95.88,0,0,0,2.06-22.89h-5a51.4,51.4,0,0,0,6.74,24c1,1.75,4.19,1.58,4.57-.6a103.59,103.59,0,0,0,1.52-22.51l-4.91.66a42.46,42.46,0,0,0,6.62,16.7,2.52,2.52,0,0,0,4.66-1.26l1.43-27.54-4.66,1.26a57.08,57.08,0,0,1,7.2,21.22c.33,2.54,4.24,3.68,4.91.66a167.78,167.78,0,0,0,4-36.77c0-3.23-4.85-3.2-5,0a53.18,53.18,0,0,0,6.69,28.57c1,1.77,4.2,1.56,4.57-.6a108.49,108.49,0,0,0,1.57-22.33h-5a53.58,53.58,0,0,0,5.89,20.58c1.25,2.41,4.43,1,4.66-1.26l3.63-35.31-4.91.66,6.8,25c.63,2.31,4.26,2.45,4.82,0a210.76,210.76,0,0,0,5-35.86l-4.91.66,4.72,20.12c.56,2.4,4.23,2.36,4.82,0a190.74,190.74,0,0,0,4.87-28.67l-4.27,1.77a13.86,13.86,0,0,1,3,9c0,3.23,4.86,3.2,5,0l1.53-34c.14-3.22-4.86-3.21-5,0l-1.53,34h5a19.36,19.36,0,0,0-4.48-12.57c-1.49-1.88-4.09-.13-4.27,1.77a181.81,181.81,0,0,1-4.7,27.34h4.82l-4.72-20.12c-.67-2.84-4.77-2.06-4.91.66a202.8,202.8,0,0,1-4.84,34.53h4.82l-6.8-25c-.78-2.88-4.63-2-4.91.66l-3.63,35.31,4.66-1.26a47.16,47.16,0,0,1-5.2-18.05c-.26-3.16-5.11-3.25-5,0a101.94,101.94,0,0,1-1.39,21l4.57-.6a48.09,48.09,0,0,1-6-26h-5a161.5,161.5,0,0,1-3.81,35.44l4.91.66a63.47,63.47,0,0,0-7.88-23.74c-1.28-2.24-4.53-1.14-4.66,1.26l-1.43,27.54,4.66-1.26a39.27,39.27,0,0,1-6.12-15.51c-.47-2.78-5-2.13-4.91.66a97.41,97.41,0,0,1-1.34,21.18l4.57-.6a45.82,45.82,0,0,1-6.06-21.43c-.11-3.21-5.1-3.22-5,0a90.11,90.11,0,0,1-1.88,21.56l4.57-.6a62.43,62.43,0,0,1-6.43-16.35c-.66-2.75-4.94-2.15-4.91.66a107.8,107.8,0,0,1-2,22.3h4.82a166.89,166.89,0,0,1-7.23-25.9c-.53-2.73-5.19-2.15-4.91.66a48.42,48.42,0,0,1-2.57,21.38h4.82l-6.52-23.76a2.51,2.51,0,0,0-4.91.66,110.38,110.38,0,0,1-3.2,26.62l4.57-.6a80.14,80.14,0,0,1-8.17-28.65h-5A51,51,0,0,1,458.6,1166h4.82L456.14,1138c-.73-2.82-4.75-2.08-4.91.66l-1.41,24.64,4.91-.66-7.37-27.33c-.73-2.71-4.94-2.18-4.91.66a59.64,59.64,0,0,1-3.25,20.18H444l-3.16-16.11c-.58-3-4.64-1.93-4.91.66a30.3,30.3,0,0,1-2.87,10.14h4.32c-.93-1.72-4.92-10-.14-8.64,2.28.66,3.92,7-1.28,6-2.21-.42-2.83-3.24-2.24-5,1-3.06-3.8-4.37-4.82-1.33Z"/><path class="cls-1" d="M141.22,1127.71c3.22,0,3.22-5,0-5s-3.22,5,0,5Z"/><path class="cls-1" d="M139.33,901.71a66.64,66.64,0,0,0,61.77-13.65c2.44-2.11-1.11-5.63-3.54-3.54a61.46,61.46,0,0,1-56.91,12.36c-3.1-.89-4.42,3.93-1.33,4.82Z"/><path class="cls-1" d="M133.55,903.28l-5.37,91.24c-1.78,30.33-4.08,60.78-2.32,91.17,1.31,22.72,4.24,47,16.44,66.74,12.53,20.31,34,29.2,57.42,28,42.5-2.1,83.35-36,89.16-78.95,1.4-10.36.57-21.31-4.23-30.74-5.17-10.16-14.75-15.73-24.1-21.53-11.5-7.14-19.77-17.1-23.83-30.22-1.25-4-1.5-9.23,3.95-9.95,2.49-.33,5.19.45,7.62.87,4.54.8,9.33,1.53,13.61-.66,8.3-4.23,10.18-15.62,7.77-23.83-3.69-12.58-16.43-19.83-23.46-30.28-8.35-12.41-12.65-27.3-20.13-40.27a202.58,202.58,0,0,0-26.32-35.74c-2.18-2.38-5.71,1.17-3.54,3.54A196.26,196.26,0,0,1,220,914.43c6.47,10.78,11.11,22.26,16.51,33.57,5.13,10.75,12.62,18.07,20.52,26.71,6.48,7.09,13.16,19.37,5.19,28.15-6.9,7.59-18.15-2-26.31,2.54-9.33,5.23-3.34,17.29,0,24.26,5,10.32,11.77,17.47,21.46,23.52,10,6.22,20.08,11.92,24.43,23.51,7.7,20.49-1.19,44.57-13.55,61.28A94.5,94.5,0,0,1,216,1173c-23,5.79-49.45,2.51-65-16.86-14-17.36-17.83-41.09-19.59-62.64-2.56-31.32-.35-62.78,1.49-94.08l5.66-96.15c.19-3.21-4.81-3.2-5,0Z"/><path class="cls-1" d="M546.43,151.36,642.17,267c1.85,2.24,5.29-.63,3.93-3L575.87,139.76l-3.93,3,81.39,90.07c1.94,2.15,5.29-.6,3.93-3L583.34,98l-3.93,3L681.74,221.49c1.91,2.25,5.18-.62,3.93-3L626,103.4l-3.93,3,40.63,49.05c1.73,2.09,4.62-.22,4.18-2.43a228.51,228.51,0,0,0-12.68-42L650,113.45l28,33c1.66,2,4.81-.14,4.18-2.43a495.12,495.12,0,0,0-22.1-62.82l-3.93,3,36,38.19c1.81,1.92,4.66-.11,4.18-2.43a546.51,546.51,0,0,0-27.56-91.77l-4.57,1.93a567.15,567.15,0,0,0,87.83,108.71c2.18,2.1,5-.54,3.93-3A750.6,750.6,0,0,0,695.44,23l-3.93,3L743.6,83.43c1.86,2.05,4.5-.21,4.18-2.43a152,152,0,0,0-12.06-40.94l-4.32,2.52L736,52.53c1.36,2.91,5.67.38,4.32-2.52l-4.62-9.94c-1.36-2.92-5.63-.38-4.32,2.52A147.67,147.67,0,0,1,743,82.33l4.18-2.43L695.05,22.45c-1.89-2.09-5.48.64-3.93,3a750.6,750.6,0,0,1,60.57,112.88l3.93-3a561.72,561.72,0,0,1-87-107.7c-1.42-2.29-5.66-.81-4.57,1.93a546.51,546.51,0,0,1,27.56,91.77l4.18-2.43-36-38.19c-2.1-2.23-5,.6-3.93,3a485.69,485.69,0,0,1,21.6,61.62l4.18-2.43-28-33c-1.56-1.84-5.12.13-4.18,2.43a228.51,228.51,0,0,1,12.68,42l4.18-2.43L625.6,102.9c-1.89-2.28-5.17.62-3.93,3L681.35,221l3.93-3L583,97.53c-1.88-2.21-5.28.62-3.93,3l73.91,131.79,3.93-3-81.39-90.07c-1.94-2.14-5.3.6-3.93,3l70.23,124.18,3.93-3L550,147.82c-2.05-2.48-5.57,1.07-3.54,3.54Z"/><path class="cls-1" d="M640.39,344.47l1.26-7.41-4.82-1.33-12.18,82.05c-.46,3.1,3.86,4.49,4.82,1.33a483.74,483.74,0,0,1,42.87-99.62l-4.57-1.93L638.06,448.14c-.72,3.18,3.7,4.31,4.82,1.33a860.77,860.77,0,0,1,44.39-98.62l-4.57-1.93L642.26,502.86c-.82,3.12,3.91,4.41,4.82,1.33a386.07,386.07,0,0,1,53.05-110.33l-4.57-1.93-42,169.16c-.79,3.17,3.72,4.31,4.82,1.33L684.69,491l13-35.23c3.77-10.25,7.17-21.19,15.82-28.45l-4.18-2.43L671,591.06c-.6,2.61,3.38,4.64,4.57,1.93l54.1-123.15L725,468.57c-1.35,32.35-9.22,63.81-17.15,95.06-.69,2.72,3.12,4.42,4.57,1.93L747.06,506l-4.66-1.26a610.75,610.75,0,0,1-12,66.27l4.91.66-.93-13.36c-.22-3.19-5.22-3.22-5,0l.93,13.36c.19,2.68,4.22,3.56,4.91.66a622.8,622.8,0,0,0,12.14-67.59c.32-2.57-3.5-3.25-4.66-1.26L708.12,563l4.57,1.93c8-31.68,16-63.59,17.33-96.39.1-2.36-3.64-3.57-4.66-1.26l-54.1,123.15,4.57,1.93,38.3-166.16a2.52,2.52,0,0,0-4.18-2.43c-7.6,6.39-11.47,15.47-14.86,24.57-4.67,12.52-9.23,25.08-13.85,37.61L653.6,561.09l4.82,1.33,42-169.16a2.51,2.51,0,0,0-4.57-1.93,390.39,390.39,0,0,0-53.56,111.53l4.82,1.33,40.44-153.94c.7-2.68-3.22-4.49-4.57-1.93a871.17,871.17,0,0,0-44.9,99.82l4.82,1.33,29.71-130.58c.61-2.7-3.12-4.47-4.57-1.93a489.77,489.77,0,0,0-43.37,100.81l4.82,1.33,12.18-82.05c.46-3.13-4.28-4.52-4.82-1.33l-1.26,7.41c-.54,3.15,4.28,4.5,4.82,1.33Z"/><path class="cls-1" d="M227.76,199.45l-24.9,56.91-12.25,28-6.32,14.45c-1.53,3.5-4.19,12.05-9.4,11l1.84,2.41c2.21-26.11,11-50.92,20.24-75.23,9.49-24.89,19.12-49.73,28.68-74.59.83-2.16-1.91-3.77-3.67-2.82-21.94,11.78-33.81,35.49-46.19,56l-47.74,79,4.66,1.26c2.53-29.79,17.55-57.93,28.95-85.1l36.52-87c.84-2-2-4-3.67-2.82-11.56,8.09-20.14,19.15-27.67,31-8.75,13.71-16.86,27.86-25.23,41.81L87.4,283.95l2.82-1.15c-6.23-2.34,1.86-17.26,3.12-20.38l10.46-25.84L125.1,184,167.31,79.7c1.15-2.83-3-4-4.57-1.93L58.83,218.62l4.57,1.93c18.06-64.09,64-116.34,79.9-181.24.55-2.24-2.51-4.48-4.18-2.43L42,155.51l4.18,1.1c-1.83-10.35,2.65-20.09,7-29.21q6-12.61,12.08-25.2l25-52.2c1.15-2.4-1.92-5.3-3.93-3l-63,71.27,4.18,2.43a218.59,218.59,0,0,1,39.75-86c1.72-2.26-2-5.12-3.93-3A573.77,573.77,0,0,0,18.89,87.38C17,90,21.37,92.52,23.21,89.9A563.37,563.37,0,0,1,66.87,35.13l-3.93-3a222,222,0,0,0-40.25,87.24c-.49,2.27,2.42,4.42,4.18,2.43l63-71.27-3.93-3-27.62,57.6C53.85,114.41,49,123.66,45,133.23c-3.32,8-5.24,16.07-3.72,24.71a2.51,2.51,0,0,0,4.18,1.1L142.66,40.41,138.48,38c-15.94,64.87-61.83,117.14-79.9,181.24-.82,2.9,3,4.1,4.57,1.93L167.05,80.3l-4.57-1.93L115.79,193.73,92.63,250.94c-3.2,7.91-8.19,16.48-9.32,25-.67,5,.51,9.77,5.58,11.67a2.52,2.52,0,0,0,2.82-1.15l52.13-86.88c8.21-13.69,16.29-27.46,24.67-41C176.24,146,184.8,133.76,197,125.22l-3.67-2.82L156,211.24c-11.39,27.14-25.84,54.85-28.36,84.6-.22,2.58,3.45,3.26,4.66,1.26L178,221.52c12.5-20.67,24.27-45.67,46.45-57.58l-3.67-2.82C211,186.56,201.15,212,191.46,237.46c-9.2,24.2-17.56,48.85-19.75,74.8a2.5,2.5,0,0,0,1.84,2.41c8.44,1.66,12.24-6.92,15-13.33l14.63-33.42L232.08,202c1.28-2.92-3-5.47-4.32-2.52Z"/><path class="cls-1" d="M159.88,376.1a83.35,83.35,0,0,0,.73,37.28l4.82-1.33-16.51-49.42a2.51,2.51,0,0,0-4.91.66,539.59,539.59,0,0,0,5.1,91.16l4.57-1.93a591.82,591.82,0,0,1-31.51-87.86c-.86-3.18-5.3-1.78-4.82,1.33l17.82,114.63,4.82-1.33a973.15,973.15,0,0,1-39.7-121.92c-.59-2.32-4.31-2.45-4.82,0-3.66,17.33-2.35,34.87,0,52.28s5.07,35,7.62,52.48L119,571.25l4.82-1.33-38.4-106C74.59,434,64.2,403.1,43.47,378.3c-1.77-2.12-4.55.25-4.18,2.43L77.58,608.17l4.57-1.93A725.9,725.9,0,0,1,30.74,437.7c-.53-3-4.61-1.89-4.91.66-6.2,53.35,5.41,106.37,17,158.17l4.82-1.33L9.86,493.91c-.92-2.46-5.07-2.35-4.91.66A1011.39,1011.39,0,0,0,24.78,646.15l4.57-1.93c-9.45-20.1-16.74-41.09-24-62.06a2.51,2.51,0,0,0-4.91.66,90.08,90.08,0,0,0,3.6,36c.95,3.06,5.78,1.76,4.82-1.33a86.43,86.43,0,0,1-3.42-34.67l-4.91.66C7.93,604.87,15.39,626.25,25,646.74c1.26,2.69,5.12.7,4.57-1.93A1002.34,1002.34,0,0,1,9.95,494.58L5,495.24l37.79,101.3a2.5,2.5,0,0,0,4.82-1.33c-11.5-51.4-23-103.9-16.83-156.85l-4.91.66A730.93,730.93,0,0,0,77.83,608.76c1.24,2.78,5,.64,4.57-1.93L44.12,379.4l-4.18,2.43c21,25.1,31.08,56.92,42,87.19l37,102.22a2.5,2.5,0,0,0,4.82-1.33L108.49,464.75c-2.53-17.3-5.13-34.6-7.57-51.92-2.54-17.95-4.41-36.2-.62-54.11H95.47a973.15,973.15,0,0,0,39.7,121.92,2.5,2.5,0,0,0,4.82-1.33L122.17,364.68,117.34,366a600,600,0,0,0,32,89.06c1.27,2.82,4.93.6,4.57-1.93A532,532,0,0,1,149,363.3l-4.91.66,16.51,49.42c1,3,5.6,1.82,4.82-1.33a77.38,77.38,0,0,1-.73-34.62c.65-3.14-4.17-4.48-4.82-1.33Z"/><path class="cls-1" d="M285.47,123.66q6.23-11.25,12.28-22.6c1.07-2-1.28-5-3.42-3.42l-54.12,40.72,3.67,2.82c2-7.71,7.25-14.37,11.47-21L269.83,97.5,298.23,53a2.55,2.55,0,0,0-.39-3c-4.69-5.17-11.68-1.64-16.44,1.58a227.47,227.47,0,0,0-20.32,15.88c-13.76,11.77-27.18,24.12-43.68,32l3.76,2.16c-.26-7.55,4.2-13.46,8.94-18.89,4.57-5.23,9.23-10.33,13.51-15.82a215,215,0,0,0,22.44-35.62c.88-1.76-.62-4.51-2.82-3.67-24.57,9.29-40.4,32-64.14,42.7l3.42,3.42Q221.3,45.9,241.89,19.43c1.6-2.06-.41-5.58-3-3.93L199.52,40.43l3.67,2.82a71.65,71.65,0,0,1,18.35-27.11c2.36-2.2-1.18-5.73-3.54-3.54a77.1,77.1,0,0,0-19.63,29.31c-.78,2.06,1.92,3.93,3.67,2.82l39.34-24.92-3-3.93q-21,27-40.16,55.24c-1.55,2.28,1.37,4.34,3.42,3.42,23.33-10.5,38.88-33.1,62.95-42.2l-2.82-3.67a209.44,209.44,0,0,1-25.68,39.62c-8,9.73-20.38,19.4-19.9,33.24a2.53,2.53,0,0,0,3.76,2.16C233.32,97.33,244.82,88,256,78.4c5.76-4.95,11.44-10,17.38-14.73,3.4-2.72,16.5-15.06,20.93-10.17l-.39-3L264.44,96.66,250,119.34c-4.16,6.52-9,12.91-10.91,20.51-.49,1.92,1.83,4.21,3.67,2.82l54.12-40.72-3.42-3.42q-6.05,11.35-12.28,22.6c-1.56,2.82,2.76,5.34,4.32,2.52Z"/><path class="cls-1" d="M452.72,105.82,425.16,75.28l-3.54,3.54a205.18,205.18,0,0,0,50.22,33c1.76.82,4.51-.58,3.67-2.82A449,449,0,0,0,446.8,47l-3.93,3a301.65,301.65,0,0,0,81.42,67.37c1.74,1,4.5-.69,3.67-2.82Q505.6,56.69,477.89,1.13l-4.32,2.52,68.84,91.18A2.51,2.51,0,0,0,547,92.9a299.67,299.67,0,0,0-21.22-68.11l-4.32,2.52,8.7,14c1.69,2.73,6,.22,4.32-2.52l-8.7-14c-1.73-2.79-5.61-.36-4.32,2.52a294.48,294.48,0,0,1,20.72,66.92l4.57-1.93L477.89,1.13a2.5,2.5,0,0,0-4.32,2.52Q501,58.57,523.15,115.87l3.67-2.82a297.71,297.71,0,0,1-80.41-66.59c-1.88-2.22-5.27.62-3.93,3a440.46,440.46,0,0,1,28.2,60.83l3.67-2.82a200.78,200.78,0,0,1-49.2-32.22,2.5,2.5,0,0,0-3.54,3.54l27.56,30.54c2.16,2.39,5.69-1.15,3.54-3.54Z"/><path class="cls-1" d="M148.59,1137.33l18.7,17,3-3.93a94.65,94.65,0,0,1-25.3-22.91l-3.93,3,32.09,32,3-3.93a252.48,252.48,0,0,1-35.64-22l-2.52,4.32,33.43,18.62c2.45,1.37,5.08-1.89,3-3.93a360.27,360.27,0,0,1-32.69-37.09l-3.93,3,43.84,37.14,3-3.93c-10.53-5-17.52-15.48-24.81-24.18l-24.71-29.52c-2.09-2.5-5.47,1.05-3.54,3.54A227.78,227.78,0,0,0,192.6,1159c2.52,1.55,4.83-1.86,3-3.93a566.6,566.6,0,0,0-62.25-61.34l-2.43,4.18c15.69,6.52,26,22.1,38.38,33.14a211.27,211.27,0,0,0,41.4,28.87l1.26-4.66c-9,.05-15.21-8.35-20.79-14.35q-9.37-10.07-18.66-20.23c-12.55-13.8-24.8-27.88-36.32-42.55l-3.54,3.54a440,440,0,0,0,87.8,71.61c2.81,1.74,5-2.43,2.52-4.32-29.26-22-55.67-47.49-82-72.89l-3.54,3.54c26.7,24.24,54.71,48,88.83,60.94,2.3.88,4.31-2.61,2.43-4.18a423.42,423.42,0,0,0-56.47-39.91c-2.78-1.64-5.3,2.68-2.52,4.32a415.56,415.56,0,0,1,55.46,39.12l2.43-4.18C194.37,1123,167,1099.65,141,1076c-2.37-2.15-5.87,1.29-3.54,3.54,26.64,25.71,53.4,51.36,83,73.68l2.52-4.32a434.81,434.81,0,0,1-86.78-70.82c-2.27-2.4-5.47,1.08-3.54,3.54,12.69,16.17,26.27,31.6,40.15,46.76,6.7,7.31,13.35,14.71,20.26,21.83,5.17,5.33,11.13,10.05,18.89,10,2.41,0,3.49-3.47,1.26-4.66A205.64,205.64,0,0,1,169,1124c-11.7-11-21.51-24.59-36.77-30.93-2.3-1-4.27,2.62-2.43,4.18a566.6,566.6,0,0,1,62.25,61.34l3-3.93a224,224,0,0,1-59.87-53.6l-3.54,3.54,25.94,31c7.23,8.63,14.14,18.53,24.58,23.49,2.38,1.13,5.35-2,3-3.93L141.43,1118c-2-1.69-5.77.61-3.93,3a369.35,369.35,0,0,0,33.47,38.1l3-3.93-33.43-18.62c-2.88-1.6-5.06,2.45-2.52,4.32a252.48,252.48,0,0,0,35.64,22c2.46,1.25,5.12-1.85,3-3.93l-32.09-32c-1.94-1.93-5.7.71-3.93,3a101.3,101.3,0,0,0,27.1,24.7c2.38,1.48,5.15-2,3-3.93l-18.7-17c-2.38-2.16-5.92,1.37-3.54,3.54Z"/><path class="cls-1" d="M143.93,1076a285.85,285.85,0,0,0,95.67,60.36c2.7,1,4.3-3.17,1.93-4.57a596.2,596.2,0,0,1-100.08-74.14l-3.54,3.54a753,753,0,0,0,112,74.48l2.52-4.32c-20-10.33-37.88-24.11-55.06-38.6-18.49-15.6-36.72-31.52-55.05-47.3-2.41-2.08-5.85,1.24-3.54,3.54a321.53,321.53,0,0,0,112.93,72.35c2.71,1,4.29-3.15,1.93-4.57a931.69,931.69,0,0,1-107.28-75.24c-2.45-2-6,1.33-3.54,3.54a325.63,325.63,0,0,0,109.57,65.88c2.65.95,4.46-3.3,1.93-4.57a639.29,639.29,0,0,1-117.08-75.48l-3,3.93c42.81,27.49,86,55,134,72.63,2.65,1,4.46-3.31,1.93-4.57a917.17,917.17,0,0,1-124.56-75l-2.52,4.32a470.55,470.55,0,0,0,123.57,62c2.84.93,4.14-3,1.93-4.57a928.38,928.38,0,0,0-118.11-69.74c-2.87-1.42-5.26,2.58-2.52,4.32a867.65,867.65,0,0,0,125.11,65.6c2.87,1.22,5.42-2.72,2.52-4.32L149.13,1015.7c-2.82-1.55-5.33,2.72-2.52,4.32,34.16,19.43,68.56,38.82,105.85,51.67,2.65.91,4.5-3.35,1.93-4.57a608.55,608.55,0,0,1-111.54-68.43l-3,3.93a554.37,554.37,0,0,0,96,56.52c2.87,1.32,5.37-2.68,2.52-4.32A409.66,409.66,0,0,1,138.45,974l-3.54,3.54a301,301,0,0,0,94.87,63.29c2.62,1.1,4.39-3.25,1.93-4.57a320.64,320.64,0,0,1-86.59-67.46l-3.54,3.54A389.79,389.79,0,0,0,215.69,1021a2.5,2.5,0,0,0,2.52-4.32,584.32,584.32,0,0,1-72-56.66l-3.54,3.54A300.1,300.1,0,0,0,224,1011.38c2.85,1.12,4-3,1.93-4.57l-77.34-57.32-2.52,4.32,77.1,49.38c2.77,1.77,5-2.44,2.52-4.32a636,636,0,0,1-77.61-68.18l-3.54,3.54A291.94,291.94,0,0,0,227,990.87a2.5,2.5,0,0,0,2.52-4.32,547.81,547.81,0,0,1-62.79-51.19c-2.34-2.21-5.87,1.31-3.54,3.54a299.94,299.94,0,0,0,83.05,56c2.37,1.07,5.36-1.93,3-3.93q-35.46-30.39-73.54-57.49c-2.32-1.65-5.1,2-3,3.93a175.69,175.69,0,0,0,48.76,31.88c2.34,1,5.46-2,3-3.93l-54.77-43.67c-2.46-2-6,1.39-3.54,3.54a268.36,268.36,0,0,0,60.53,39.66,2.51,2.51,0,0,0,3-3.93,250.45,250.45,0,0,0-47.87-41.79c-2.34-1.57-5.16,2-3,3.93a157.49,157.49,0,0,0,39.53,25.57c2.5,1.12,5.09-1.74,3-3.93a435.29,435.29,0,0,0-36.12-34.13l-3,3.93,37.25,23.84c2.58,1.65,4.66-1.86,3-3.93A130.74,130.74,0,0,0,198.46,911c-2.25-1.7-5.2,2.1-3,3.93a101.4,101.4,0,0,0,24.46,15.28c2,.87,5.11-1.17,3.42-3.42A85.18,85.18,0,0,0,198,904.07c-2.57-1.5-4.79,1.83-3,3.93a43.17,43.17,0,0,0,15.94,11.94,2.51,2.51,0,0,0,3-3.93,72.33,72.33,0,0,0-15.18-14.1l-2.52,4.32,10.49,6c1.26.73,3.42.14,3.67-1.49.38-2.43.15-4-1.55-6-.93-1.09-8.13-5.37-7.51-6.32-1.75,2.71,2.57,5.22,4.32,2.52,2.5-3.86-2.9-7-6.23-5.09a4.45,4.45,0,0,0-1.83,5.09c.71,2.63,8.26,6.68,8,8.45l3.67-1.49-10.49-6c-2.83-1.63-5.13,2.5-2.52,4.32a67.84,67.84,0,0,1,14.17,13.31l3-3.93a40.07,40.07,0,0,1-14.93-11.16l-3,3.93A79.08,79.08,0,0,1,219,929.28l3.42-3.42A96.88,96.88,0,0,1,199,911.36l-3,3.93A126.11,126.11,0,0,1,219,938l3-3.93-37.25-23.84c-2.35-1.51-5.22,2.08-3,3.93a435.29,435.29,0,0,1,36.12,34.13l3-3.93a153.21,153.21,0,0,1-38.52-24.79l-3,3.93a245.34,245.34,0,0,1,46.86,41l3-3.93a263.63,263.63,0,0,1-59.52-38.88l-3.54,3.54L221,968.88l3-3.93a171.76,171.76,0,0,1-47.75-31.1l-3,3.93q37.53,26.71,72.53,56.71l3-3.93a296,296,0,0,1-82-55.19l-3.54,3.54a556.57,556.57,0,0,0,63.8,52l2.52-4.32a288,288,0,0,1-81.43-55.87c-2.31-2.25-5.78,1.22-3.54,3.54a643.68,643.68,0,0,0,78.62,69l2.52-4.32-77.1-49.38c-2.77-1.77-5,2.45-2.52,4.32l77.34,57.32,1.93-4.57a292.57,292.57,0,0,1-79.1-46.49c-2.44-2-5.94,1.32-3.54,3.54a592.64,592.64,0,0,0,73,57.44l2.52-4.32a384.27,384.27,0,0,1-73.1-47.88,2.5,2.5,0,0,0-3.54,3.54,324.72,324.72,0,0,0,87.61,68.24l1.93-4.57a294.64,294.64,0,0,1-92.66-62c-2.3-2.28-5.68,1.16-3.54,3.54a414,414,0,0,0,100.94,81.55l2.52-4.32a554.37,554.37,0,0,1-96-56.52c-2.27-1.66-5.28,2.19-3,3.93a614.07,614.07,0,0,0,112.55,69.21l1.93-4.57c-36.87-12.7-70.88-32-104.65-51.16l-2.52,4.32,126.47,69.77,2.52-4.32a867.65,867.65,0,0,1-125.11-65.6l-2.52,4.32a928.38,928.38,0,0,1,118.11,69.74l1.93-4.57a466,466,0,0,1-122.37-61.47c-2.64-1.86-5.11,2.46-2.52,4.32a917.17,917.17,0,0,0,124.56,75l1.93-4.57c-47.57-17.46-90.43-44.88-132.85-72.13-2.34-1.51-5.26,2.12-3,3.93a645,645,0,0,0,118.1,76.26l1.93-4.57a319.37,319.37,0,0,1-107.36-64.6l-3.54,3.54a940.72,940.72,0,0,0,108.29,76l1.93-4.57a315.6,315.6,0,0,1-110.72-71.07L138.8,1049c18.78,16.17,37.43,32.5,56.41,48.44,17.07,14.34,34.83,28,54.72,38.24,2.85,1.47,5.37-2.78,2.52-4.32a746,746,0,0,1-111-73.7c-2.45-2-6,1.32-3.54,3.54A602.52,602.52,0,0,0,239,1136.11l1.93-4.57a279.65,279.65,0,0,1-93.47-59.07c-2.33-2.22-5.87,1.31-3.54,3.54Z"/><path class="cls-1" d="M174.51,1151.29A69.7,69.7,0,0,0,205.4,1162c2.15.22,3.31-2.89,1.77-4.27l-9.85-8.82-1.77,4.27,26,3.31c2.61.33,3.19-3.47,1.26-4.66a24.62,24.62,0,0,1-8.11-8l-2.82,3.67a65.94,65.94,0,0,0,23.12,4.32,2.53,2.53,0,0,0,1.77-4.27,214.25,214.25,0,0,0-21.51-20.74l-3,3.93A66.55,66.55,0,0,0,236,1141.47c1.68.39,3.82-1.19,3.08-3.08a24.42,24.42,0,0,0-12.72-13.75c-2.87-1.33-5.4,2.76-2.52,4.32a85.65,85.65,0,0,0,29.87,9.6c1.81.24,3.22-2.33,2.16-3.76a111,111,0,0,0-16.22-17.59l-2.43,4.18a123.81,123.81,0,0,1,24.47,8.77c1.77.85,4.5-.6,3.67-2.82a58.45,58.45,0,0,0-23.75-29.41c-2.74-1.73-5.18,2.54-2.52,4.32a132.74,132.74,0,0,0,24.89,13c2.11.83,3.85-1.93,2.82-3.67a83.3,83.3,0,0,0-22.13-24.66l-2.52,4.32,27.23,16.56c2,1.23,4.93-1.34,3.42-3.42a124.85,124.85,0,0,0-24.5-25.42l-3,3.93,32.11,18.7a2.52,2.52,0,0,0,3.42-3.42,80.46,80.46,0,0,0-28.07-27.74l-2.52,4.32,17.8,8.68c2.12,1,4.83-1.16,3.42-3.42a65.25,65.25,0,0,0-16.52-17.89l-2.52,4.32a80.84,80.84,0,0,0,14.46,7.55c1.78.72,3.62-1.39,3.08-3.08a23.42,23.42,0,0,0-8.92-12.23c-2.61-1.89-5.11,2.44-2.52,4.32a17.71,17.71,0,0,1,6.63,9.24l3.08-3.08a74.54,74.54,0,0,1-13.26-7c-2.74-1.81-5,2.44-2.52,4.32A58.69,58.69,0,0,1,267,1082.49l3.42-3.42-17.8-8.68c-2.86-1.4-5.33,2.66-2.52,4.32a75.1,75.1,0,0,1,26.28,25.95l3.42-3.42-32.11-18.7c-2.37-1.38-5.33,2.14-3,3.93a120.52,120.52,0,0,1,23.72,24.41l3.42-3.42-27.23-16.56c-2.82-1.72-5,2.44-2.52,4.32a77.18,77.18,0,0,1,20.34,22.87l2.82-3.67a126.71,126.71,0,0,1-23.69-12.48l-2.52,4.32a52.87,52.87,0,0,1,21.45,26.42l3.67-2.82a130.11,130.11,0,0,0-25.67-9.27c-2.28-.56-4.41,2.46-2.43,4.18a105.27,105.27,0,0,1,15.44,16.58l2.16-3.76a78.81,78.81,0,0,1-27.35-8.92l-2.52,4.32a19.62,19.62,0,0,1,10.43,10.76l3.08-3.08a62.92,62.92,0,0,1-22.53-10.23c-2.29-1.64-5.21,2.1-3,3.93a214.25,214.25,0,0,1,21.51,20.74l1.77-4.27a62,62,0,0,1-21.79-4.15c-2.05-.78-3.94,1.92-2.82,3.67a30.47,30.47,0,0,0,9.9,9.76l1.26-4.66-26-3.31c-2.16-.28-3.28,2.91-1.77,4.27l9.85,8.82,1.77-4.27A64.28,64.28,0,0,1,177,1147c-2.72-1.74-5.23,2.59-2.52,4.32Z"/><path class="cls-1" d="M143.95,959l7.24,7.1a2.51,2.51,0,0,0,3.93-3l-14.2-25.61-3.93,3,20.48,19.83a2.51,2.51,0,0,0,3.93-3A288.28,288.28,0,0,0,138,919.39l-3.93,3,19.72,20.52c1.81,1.89,4.68-.09,4.18-2.43a40.89,40.89,0,0,0-12.73-22L141.72,922q12.35,10.09,25.61,18.95c2.3,1.54,4.33-1.36,3.42-3.42a92.36,92.36,0,0,0-18.6-27.44c-2.3-2.36-5.5,1.08-3.54,3.54a64.6,64.6,0,0,0,21.23,17.24c1.74.89,4.53-.63,3.67-2.82a70.52,70.52,0,0,0-11.77-19.94l-3.54,3.54a113.56,113.56,0,0,0,18.21,15.6c1.81,1.25,4.28-.82,3.67-2.82a49.62,49.62,0,0,0-13.82-22.24c-2-1.83-5.7.66-3.93,3a54,54,0,0,0,17.31,15.17,2.53,2.53,0,0,0,3.67-2.82A39.69,39.69,0,0,0,175.21,902l-3.54,3.54,15.81,12.38c1.78,1.39,5,.2,4.18-2.43a56.17,56.17,0,0,0-8.91-17.13l-3.42,3.42A59.64,59.64,0,0,0,196.63,911a2.52,2.52,0,0,0,3.16-2.41,22.68,22.68,0,0,0-3.08-11.6l-3.42,3.42,14.13,8c2.8,1.59,5.32-2.73,2.52-4.32l-14.13-8a2.52,2.52,0,0,0-3.42,3.42,17.36,17.36,0,0,1,2.39,9.08l3.16-2.41a55.66,55.66,0,0,1-16.1-8.72c-1.94-1.5-4.91,1.48-3.42,3.42a52.24,52.24,0,0,1,8.41,15.94l4.18-2.43L175.21,902a2.5,2.5,0,0,0-3.54,3.54,33.84,33.84,0,0,1,6.83,13.36l3.67-2.82a48.19,48.19,0,0,1-15.51-13.38l-3.93,3a44.46,44.46,0,0,1,12.54,20l3.67-2.82a107.45,107.45,0,0,1-17.2-14.82c-2.24-2.38-5.57,1.1-3.54,3.54a63.15,63.15,0,0,1,10.48,17.73l3.67-2.82a61.26,61.26,0,0,1-20.22-16.46l-3.54,3.54a88.57,88.57,0,0,1,17.82,26.43l3.42-3.42q-12.74-8.5-24.6-18.17c-2.45-2-6,1.35-3.54,3.54a36.3,36.3,0,0,1,11.44,19.84l4.18-2.43-19.72-20.52c-1.92-2-5.63.69-3.93,3a288.28,288.28,0,0,1,23.38,37.88l3.93-3-20.48-19.83a2.51,2.51,0,0,0-3.93,3l14.2,25.61,3.93-3-7.24-7.1c-2.3-2.25-5.84,1.28-3.54,3.54Z"/><path class="cls-1" d="M153.88,1058a130.75,130.75,0,0,0-19.56-29.22l-3.54,3.54L149.52,1051c2.1,2.1,5.11-.55,3.93-3a160.5,160.5,0,0,0-15.3-25.68l-3.42,3.42,20.07,15c2.07,1.54,4.64-1.41,3.42-3.42l-22.62-37.36-3.93,3,30.27,34.51c2,2.25,5.1-.61,3.93-3a293.06,293.06,0,0,0-29.19-47.71l-3.93,3a377.45,377.45,0,0,0,33.38,36.31c1.71,1.64,5,0,4.18-2.43a152.39,152.39,0,0,0-20.07-39.35l-3.93,3,19,22.34c1.67,2,4.8-.15,4.18-2.43a54.38,54.38,0,0,0-14.5-24.73c-2.3-2.26-5.84,1.28-3.54,3.54a49.15,49.15,0,0,1,13.22,22.53l4.18-2.43-19-22.34c-1.82-2.14-5.58.71-3.93,3A147.84,147.84,0,0,1,165.48,1025l4.18-2.43a377.45,377.45,0,0,1-33.38-36.31c-1.76-2.19-5.64.76-3.93,3A293.06,293.06,0,0,1,161.54,1037l3.93-3L135.2,999.43c-1.88-2.15-5.38.62-3.93,3l22.62,37.36,3.42-3.42-20.07-15c-2-1.47-4.86,1.45-3.42,3.42a160.5,160.5,0,0,1,15.3,25.68l3.93-3-18.74-18.77c-2.29-2.3-5.65,1.14-3.54,3.54a125.93,125.93,0,0,1,18.78,28.21c1.41,2.89,5.73.36,4.32-2.52Z"/><path class="cls-1" d="M169.1,1162.45a25.23,25.23,0,0,0,8.52,9.28c2.3,1.53,4.33-1.36,3.42-3.42l-2.45-5.56-3.93,3,9.33,8.08c1.7,1.48,5.13.11,4.18-2.43a34.77,34.77,0,0,0-5.89-10.14l-3,3.93,14.57,10c1.46,1,4-.3,3.76-2.16a18.75,18.75,0,0,0-7.67-13.31c-2.25-1.71-5.15,2.06-3,3.93A75.37,75.37,0,0,0,203.78,1175a2.53,2.53,0,0,0,3.67-2.82,20.47,20.47,0,0,0-6.86-11.3l-3,3.93,14.6,7.16a2.54,2.54,0,0,0,3.67-2.82,18.83,18.83,0,0,0-9.75-13.91c-2.4-1.34-5.24,2-3,3.93a35.25,35.25,0,0,0,20.44,8.78c2.11.2,2.81-2.22,2.16-3.76a22.84,22.84,0,0,0-9.11-10.57l-2.52,4.32L236.81,1170a2.53,2.53,0,0,0,3.67-2.82,29.67,29.67,0,0,0-14.88-20.7l-2.52,4.32,17.62,7.51c1.78.76,4.5-.53,3.67-2.82a35,35,0,0,0-10.57-15.36l-3.54,3.54a43.32,43.32,0,0,0,22.39,9.51c2,.25,3-2.28,2.16-3.76a160.42,160.42,0,0,0-14-20.59l-3.54,3.54a45,45,0,0,0,19.37,13.59c2.13.79,3.82-1.9,2.82-3.67L249.18,1124l-3.93,3a64.49,64.49,0,0,0,16.32,12.32c2.08,1.11,4-.71,3.67-2.82a38.29,38.29,0,0,0-11.5-22.29l-3,3.93,13.3,8.3c1.78,1.11,4.4-.75,3.67-2.82a221.67,221.67,0,0,0-9.72-23.38l-3.93,3a92,92,0,0,0,17,15.43c1.77,1.25,4.33-.83,3.67-2.82a79.72,79.72,0,0,0-18.82-31c-1.93-2-5.58.65-3.93,3a36.71,36.71,0,0,0,17.11,13.55c1.81.72,3.56-1.39,3.08-3.08a38,38,0,0,0-10-16.79l-3.54,3.54a58.83,58.83,0,0,0,16.2,11.26c1.73.81,4.56-.59,3.67-2.82a90.1,90.1,0,0,0-11.58-20.84l-3.93,3,15.9,13c2.09,1.7,5.46-.42,3.93-3a144.14,144.14,0,0,0-18.1-24.43l-3,3.93,8.88,6.5c2.6,1.9,5.1-2.43,2.52-4.32l-8.88-6.5c-2.38-1.74-4.86,1.93-3,3.93a137.91,137.91,0,0,1,17.32,23.42l3.93-3-15.9-13c-2-1.63-5.77.57-3.93,3a85.48,85.48,0,0,1,11.08,19.65l3.67-2.82a54.75,54.75,0,0,1-15.18-10.48c-2.31-2.25-5.83,1.27-3.54,3.54a32.79,32.79,0,0,1,8.71,14.59l3.08-3.08a30.78,30.78,0,0,1-14.12-11.26l-3.93,3a74.06,74.06,0,0,1,17.53,28.77l3.67-2.82a87,87,0,0,1-16-14.65c-2-2.28-5.09.62-3.93,3a210.27,210.27,0,0,1,9.22,22.18l3.67-2.82-13.3-8.3c-2.41-1.5-5.07,2-3,3.93a33.94,33.94,0,0,1,10.21,20.09l3.67-2.82a60.21,60.21,0,0,1-15.3-11.54c-2-2.07-5.31.57-3.93,3l10.33,18.29,2.82-3.67a40.2,40.2,0,0,1-17.16-12.3c-2.07-2.5-5.51,1.06-3.54,3.54a152.36,152.36,0,0,1,13.18,19.57l2.16-3.76a37.1,37.1,0,0,1-18.85-8c-2.47-2-6,1.45-3.54,3.54a30.24,30.24,0,0,1,9.29,13.15l3.67-2.82-17.62-7.51c-2.87-1.22-5.41,2.7-2.52,4.32a24.85,24.85,0,0,1,12.59,17.71l3.67-2.82-22.78-12.14a2.5,2.5,0,0,0-2.52,4.32,18.38,18.38,0,0,1,7.32,8.78l2.16-3.76a29.5,29.5,0,0,1-16.9-7.31l-3,3.93a14.22,14.22,0,0,1,7.45,10.93l3.67-2.82-14.6-7.16c-2.38-1.17-5.33,2-3,3.93a16,16,0,0,1,5.57,9.09l3.67-2.82a70.51,70.51,0,0,1-15.88-10.54l-3,3.93a13.08,13.08,0,0,1,5.19,9l3.76-2.16-14.57-10c-2.5-1.71-4.72,1.89-3,3.93a27.23,27.23,0,0,1,4.6,7.93l4.18-2.43-9.33-8.08a2.51,2.51,0,0,0-3.93,3l2.45,5.56,3.42-3.42a20,20,0,0,1-6.73-7.49c-1.52-2.84-5.84-.31-4.32,2.52Z"/></g></g></svg>