<svg xmlns="http://www.w3.org/2000/svg" viewBox="0 0 525 600"><defs><style>.cls-1,.cls-3{fill:none;}.cls-1,.cls-2{stroke:#fff;stroke-linecap:round;stroke-linejoin:round;stroke-width:2px;}.cls-2{fill:#fff;}</style></defs><title>adam_g2</title><g id="Warstwa_2" data-name="Warstwa 2"><g id="Warstwa_1-2" data-name="Warstwa 1"><g id="Warstwa_2-2" data-name="Warstwa 2"><g id="Warstwa_1-2-2" data-name="Warstwa 1-2"><path class="cls-1" d="M330.45,50.27c7.91.14,15.35-4.24,20.7-10.07s8.93-13,12.44-20.1L369.4,8.37c.7,11.9,1.31,24.36-3.66,35.2-4.81,10.5-14.22,18.06-23.42,25"/><path class="cls-1" d="M280.69,43.65c-4.52,3.13-10.79.59-15.08-2.84A42.06,42.06,0,0,1,252,21.16c-1.91-5.85-2.59-12.25-6-17.4-1.3,8-1.43,16.19-1.46,24.32,0,5.54,0,11.19,1.79,16.44s5.65,10.09,11,11.59"/><path class="cls-1" d="M390.87,547.17C383,522.83,379,497,381.41,471.51s11.55-50.6,27.77-70.4"/><path class="cls-1" d="M463.66,369.25c15.78-13.31,28.56-30.82,33.54-50.86s1.38-42.65-11.87-58.48c-12.13-14.49-32.41-24.73-34.37-43.52-1.25-11.94,5.72-23,11.77-33.35s11.58-22.75,7.4-34c-2.41-6.49-7.77-11.55-10.15-18.06-3-8.2-.77-17.45,3-25.32,2.53-5.27,5.84-10.75,4.92-16.52S458.75,79,455.2,83.68a35.93,35.93,0,0,0,20.31-3,64.05,64.05,0,0,0-12.33-16.62,68.59,68.59,0,0,1-9,17.61"/><path class="cls-1" d="M124.43,375.19a79.21,79.21,0,0,0,48.73,9.94"/><path class="cls-1" d="M131.7,364.35l-2.7-2.58a63.21,63.21,0,0,0,46,9.12"/><path class="cls-1" d="M127.94,361.52v14a72.28,72.28,0,0,0-1-10.29l.26,8.18,2.55-5.8a32.53,32.53,0,0,0,.68,8.78l3-6.17.43,6.14,2.39-4,1.49,4.12,2.42-3.15a7,7,0,0,0,1.41,5.7l2.51-2.94,2.4,3.93,3.07-5.78a10.12,10.12,0,0,0,1,5.39,6.64,6.64,0,0,0,2.64-3.75,8.35,8.35,0,0,0,3.06,4.14l1.65-3.31,3.05,6.29a25.33,25.33,0,0,0,2.93-7.91l2.69,8.43a10.72,10.72,0,0,0,2.88-7.56,4.44,4.44,0,0,0,1.88,4.85,10.2,10.2,0,0,0,1.1-4.91l2.48,6.44"/><path class="cls-1" d="M126.11,517a32.91,32.91,0,0,1,1-12.4,22.48,22.48,0,0,1,11.82,6.06,14.45,14.45,0,0,1,3.1-9.28l8.57,7a14.52,14.52,0,0,1,5.68-8.18l3.81,4.14c.72-1.66,1.87-3.35,3.63-3.76s3.9,1.32,3.23,3"/><path class="cls-1" d="M340.24,149.34a12,12,0,1,0,7.61,4.61"/><path class="cls-1" d="M126,16.33a390.57,390.57,0,0,0,9,41.42c.37,1.36,1.19,3,2.59,2.88a3,3,0,0,0,1.65-1,110,110,0,0,0,19.47-26.25,3.06,3.06,0,0,0,.5-1.65c-.08-1-1-1.6-1.84-2.09a133.29,133.29,0,0,0-30.64-13.15"/><path class="cls-1" d="M43.35,11.41A272,272,0,0,1,26.27,42.75l33.52,9.1L26.1,84q17.6,4.35,35,9.51Q44,112.41,25.42,129.87l1.08-15.54a71.63,71.63,0,0,1,1,14.78,76.53,76.53,0,0,0,16-3.61c.79-.27,1.86-.39,2.28.32s-1.22,1.4-1.1.57"/><path class="cls-1" d="M40.3,143a179.69,179.69,0,0,1-9.39,40.71A71.19,71.19,0,0,0,46.18,169.8l18.26,27.95a6.34,6.34,0,0,0,2.33,2.46c2.34,1.12,4.91-.87,6.73-2.71l7.31-7.37a2.06,2.06,0,0,0,.68-1.06c.11-.71-.52-1.3-1.08-1.75A110.5,110.5,0,0,1,60,165.79l15.58-3.14L41.24,144"/><path class="cls-1" d="M120.82,481.91c.28-.41-.78-.44-.71,0s.69.66,1.18.71a65.52,65.52,0,0,0,43.85-11.23"/><path class="cls-1" d="M118.52,466.35a97.88,97.88,0,0,0,47.12-13.81,2.92,2.92,0,0,0-1.93-2.38"/><path class="cls-2" d="M258.87,343.78c6.17-.27,10.73,6.17,16.84,7.11,6.54,1,12.08-4.43,18.11-7.17,11.57-5.26,26.94,1,31.49,12.91a34.12,34.12,0,0,0,7.7,58.11q-10.24,15.52-21.12,30.6c-3.15,4.37-7.06,9.12-12.44,9.43-4.57.27-8.56-2.79-12.67-4.8a29.67,29.67,0,0,0-23.46-1c-3,1.16-5.8,2.82-8.93,3.47-7.29,1.52-14.6-2.73-19.88-8-17.73-17.62-20.07-45.65-16.22-70.35.85-5.44,2-10.93,4.57-15.78,6.66-12.45,23.52-18.23,36.42-12.51"/><path class="cls-2" d="M272.5,341.67a30.9,30.9,0,0,1,30.68-35.46c-1.61,8.55-4.09,17.13-9,24.3s-12.63,12.83-21.3,13.6"/><path class="cls-1" d="M41,250.41c2,2.78,6.19,1,9.38-.16a17.53,17.53,0,0,1,17,3.2A2.85,2.85,0,0,1,68.45,255c.2,1.08-.75,2-1.53,2.77-6.64,6.63-4.71,19.57,3.59,24a6.14,6.14,0,0,1,2.58,1.87c1.13,1.83-.38,4.11-1.82,5.72Q65.25,296,59,302.53a4.48,4.48,0,0,1-1.71,1.29,4.68,4.68,0,0,1-3.21-.55c-4.63-2-10.1-3.42-14.52-1-2.37,1.28-4.29,3.6-7,3.93-3.56.45-6.4-2.78-8.52-5.67-4.41-6-8.93-12.27-10.46-19.57a35.85,35.85,0,0,1,.09-13.52c1.18-6.73,4.26-13.94,10.59-16.5,5.52-2.23,11.74-.25,17.36,1.73l4.15,1.47"/><path class="cls-1" d="M43.47,244.21a12.26,12.26,0,0,1,14.2-16.29c-2,3.16-2.4,7.08-4,10.48s-5.31,6.48-8.8,5.11"/><path class="cls-1" d="M26.78,392.17c1.26-3.58.79-7.5,1.07-11.28s1.68-8,5.12-9.54c1.94-.89,4.17-.79,6.31-.67l46.45,2.59c3.39.19,7.1.51,9.53,2.89,3,2.94,2.83,7.74,2.39,11.92q-1.35,12.63-3.46,25.15a6.3,6.3,0,0,1-2.9-4.91"/><path class="cls-1" d="M28,386.64l.23,19.92c0,2.69.29,5.82,2.53,7.31a8.36,8.36,0,0,0,4.06,1l46.86,3.58c3.39.26,7.13.42,9.81-1.66s2.8-7.3-.47-8.23"/><path class="cls-1" d="M32.61,410.13,12.16,425.47c-3.66,2.74-7.72,6.4-7.1,10.93.75,5.46,7.46,7.49,12.91,8.32,16.74,2.54,33.52,5,50.41,6.19a7.22,7.22,0,0,0,4.29-.6,7.27,7.27,0,0,0,2.11-2.37L92,421.5a4.75,4.75,0,0,0,1.12-3.41c-.25-1.21-2.06-2-2.73-.94"/><path class="cls-1" d="M35.8,378.17l-1.26,21.15c-.07,1.25-.1,2.64.72,3.59a4.91,4.91,0,0,0,3,1.26q22.38,3.66,44.81,7.07a2.13,2.13,0,0,0,3-2.22l2.46-19.25a6.58,6.58,0,0,0-.27-3.79c-1-2.07-3.79-2.42-6.1-2.54a255.55,255.55,0,0,1-44-6.16"/><path class="cls-1" d="M187.29,161.69c-1.64-4.83-9.21-5.34-12.55-1.48s-2.8,10-.14,14.31,7,7.37,11.21,10.25l8.7,6a2.44,2.44,0,0,0,1.24.54c.85,0,1.45-.8,1.89-1.54q4.41-7.44,8.37-15.13c2.23-4.33,4.39-9.37,2.64-13.92-1.57-4.09-6.23-6.54-10.59-6.14a14.12,14.12,0,0,0-10.48,7.09"/><path class="cls-1" d="M490.55,22.89c-2.39.36-4.55-1.46-6.93-1.89-5.21-1-9.36,5.38-8.42,10.59s5,9.2,8.91,12.81l17,15.81a82.33,82.33,0,0,0,9.41-17.12c1.84-4.55,3.28-9.42,2.77-14.3s-3.35-9.76-7.94-11.5-10.67.79-11.69,5.58"/><path class="cls-1" d="M490.67,206.43c-2.13-2.67-6.71-2.31-9,.21s-2.53,6.44-1.35,9.65,3.54,5.82,6,8.19a75.19,75.19,0,0,0,10.41,8.33,7.85,7.85,0,0,0,3.61,1.56c1.84.14,3.52-.95,5-2,5.2-3.59,10.6-7.62,12.86-13.52s-.27-14-6.44-15.4c-5.93-1.3-11.12,3.86-15,8.53a12.13,12.13,0,0,0-7.51-8.3"/><path class="cls-1" d="M411.65,378.13c-.93-2,1.09-4.59,3.33-4.53a4.76,4.76,0,0,1,4.26,4.41l8.81-7c.29,2.1.63,4.33,2,6s4.14,2.25,5.59.7c.81-.86,1-2.12,1.45-3.21a6.45,6.45,0,0,1,12.12.67l3.51-6.91a17.94,17.94,0,0,0,4.47,5.2l4.67-5.51"/><path class="cls-1" d="M418,402.08a15.68,15.68,0,0,1,5.31-6.81,17.06,17.06,0,0,0,5.72,5.9l6.57-7.5,5.41,5.21a24.38,24.38,0,0,1,3.94-5l4,5.86a21,21,0,0,1,4.31-6.91l2.08,3.86c.69-2.24,4.7-2,5.13.29,1.37-1,2.24-3.84.53-3.79"/><path class="cls-1" d="M422.48,418.33a60.73,60.73,0,0,0,44.83-9l.27-.18"/><path class="cls-1" d="M311.12,240.86a49.31,49.31,0,0,1,2.2-14.76,59.82,59.82,0,0,1,6.25,12.65,160.56,160.56,0,0,1,.78-21.07,99.25,99.25,0,0,0,7.86,20.13l.11-6.34L332.8,234a81.82,81.82,0,0,0-3.38-22.72l11.7,15.84"/><path class="cls-1" d="M58.6,588c-9.66,3-20.65-2.32-26-10.89s-5.79-19.55-3.17-29.32c2.73-10.15,8.45-19.33,10.79-29.57s0-22.89-9.26-27.76a35.54,35.54,0,0,1,17.22,30.68c-.1,5.27-1.39,10.55-.69,15.77S51.74,547.59,57,548c-7.73-11.62,3.15-27.64-.92-41-1.88-6.15-6.71-10.9-11.57-15.12s-10-8.35-13.1-14-3.31-13.43,1.28-17.94c-.71,11.19,9.19,19.91,18.4,26.3s19.62,13.87,20.79,25c.52,5-1,9.93-1.52,14.91s.08,10.61,3.85,13.92c-4-4.6-2.58-11.82.38-17.16s7.24-10.1,8.67-16c.8,9.28,6.14,17.52,8.62,26.5a43.8,43.8,0,0,1-37.76,55.2"/><path class="cls-1" d="M53.69,477.14A48.56,48.56,0,0,1,72.4,493"/><path class="cls-1" d="M55,475.54c3.06,2.22,7,2.79,10.72,3.35s7.66,1.23,10.62,3.59,4.47,7,2.23,10-7.24,3-10.27.62"/><path class="cls-1" d="M101.24,126.68c1.34,5.87,8.28,9,14.25,8.21s11.13-4.39,16-7.9c13.21-9.47,26.44-19,38.59-29.77,6.93-6.17,13.75-13.17,16.29-22.09,1-3.43,1.24-7.23-.28-10.45s-5.24-5.56-8.69-4.65"/><path class="cls-1" d="M130.87,136.73c-1.09-1.45-3.73-.29-4,1.5s.94,3.49,2.36,4.64a7.43,7.43,0,0,0,3.2,1.63c3.56.69,7.06-3.43,5.81-6.83s-6.57-4.29-8.85-1.46"/><path class="cls-1" d="M189.65,94.05c-1.92-1.21-4.26,1.45-4,3.71a5.62,5.62,0,0,0,6,4.82,5.26,5.26,0,0,0,4.29-6.08l0-.24a4.94,4.94,0,0,0-6.9-2.85"/><path class="cls-1" d="M396.77,132.6a7.91,7.91,0,0,0-14.3,5.31c.37,4.23,4,7.39,7.55,9.7,8.16,5.27,17.42,8.51,26.59,11.72l3.33-14.77c.86-3.83,1.73-7.77,1.18-11.66a16.33,16.33,0,0,0-4.54-9.12c-3-3.07-7.72-4.85-11.83-3.47s-6.85,6.52-4.84,10.35"/><path class="cls-1" d="M501.46,527.26c-4.16-3.45-10.43-3.7-15.27-1.31s-8.29,7.09-10,12.21a23,23,0,0,0,1.3,18.24,17.73,17.73,0,0,0,15.32,9.3c7.75-.12,14.15-5.78,19.78-11.12-5.73.5-11.56,3.3-17,1.39-5.65-2-8.56-8.93-7.14-14.75s6.32-10.33,11.86-12.61"/><path class="cls-1" d="M135.8,325.66l2.13,19.61a63,63,0,0,1,4.25-11.82l5.57,11.34a13.16,13.16,0,0,1,3-8.91,71.46,71.46,0,0,0,9.58,23.53l.3-20.85c0-1.16-1.51-2.64-1.79-1.52"/><path class="cls-1" d="M136.06,560.88c10.83,2.5,23-3.6,27.49-13.77"/><path class="cls-1" d="M129.88,549.19c6.68,1.16,13.62-1.31,19-5.41s9.47-9.69,13.1-15.42"/><path class="cls-1" d="M414.67,488a81.74,81.74,0,0,0,41.67,16c.9.08,2,.33,2.21,1.22s-1.78.87-1.27.13"/><path class="cls-1" d="M122.86,209.14a6.23,6.23,0,0,0,8.6,8.65c3.26-2.12,3.65-7.4.89-10.14a7.53,7.53,0,0,0-10.43.42"/><path class="cls-1" d="M107.6,197.39c-4.78,2.83-7.12,8.65-7.24,14.2s1.63,10.95,3.36,16.22c.73,2.23,1.53,4.56,3.27,6.14a12.64,12.64,0,0,0,6,2.53,83.33,83.33,0,0,0,20,1.8c3-.09,6.19-.4,8.73-2.06a15.19,15.19,0,0,0,4.37-4.94c7.33-11.92,7.76-28.83-1.86-39a25.67,25.67,0,0,0-40.74,4.63"/><path class="cls-1" d="M122.76,192.85h.94"/><path class="cls-1" d="M137.84,203.22"/><path class="cls-1" d="M127.47,197.56"/><path class="cls-1" d="M108.63,212.64"/><path class="cls-1" d="M113.34,202.27"/><path class="cls-1" d="M115.23,224.88"/><path class="cls-1" d="M135,229.59"/><path class="cls-1" d="M142.55,219.23"/><path class="cls-1" d="M125.59,226.77"/><path class="cls-1" d="M129.36,233.36h.94"/><path class="cls-1" d="M141.6,211.69"/><path class="cls-1" d="M389.26,95a44.09,44.09,0,0,0-2.37-12.37c4.54,8.76,9.16,17.64,15.85,24.9L397.47,76.6c-.56-3.27-1-7,1.18-9.54a93.9,93.9,0,0,1,13.28,26.61,75,75,0,0,1-5.27-37.44c9.62,14.42,11,32.94,19.64,48l-10-65.56a129.63,129.63,0,0,0,17.41,37.92l-3.42-24.46a32.06,32.06,0,0,0,5.46,12.68,45.62,45.62,0,0,0,1.82-12.3,20.07,20.07,0,0,1,3.06,6.77,12.12,12.12,0,0,0-1.32-5.83"/><path class="cls-1" d="M104.32,304.42a115.49,115.49,0,0,1,9.07,23,134.78,134.78,0,0,0-17-21.65,266.39,266.39,0,0,1,12.07,39.7c-13.71-8-16.28-27.85-29.41-36.77l11.95,34a227.74,227.74,0,0,0-29.3-26.9l17.79,34.84A146.43,146.43,0,0,1,59.7,330.4a35.54,35.54,0,0,0,5.5,13,11.26,11.26,0,0,1-8.56-1.4,5.62,5.62,0,0,0,.06,5.36L53.23,345l-.2,2.91"/><path class="cls-1" d="M369.86,189.21l6.34-9.4a121.45,121.45,0,0,1-5.38,19.63Q376.61,189,383,179l-5.54,22.8A49.4,49.4,0,0,1,387.8,184a124.53,124.53,0,0,0-5.15,21.26L395.19,180q-2.88,14.73-7.19,29.12c3.9-14.07,12.92-26.06,21.75-37.69a337.28,337.28,0,0,0-16.39,50.34,263.44,263.44,0,0,1,27.47-45.88,314.86,314.86,0,0,0-12.59,38.78l17-26.21A158.26,158.26,0,0,1,418.86,211a59.27,59.27,0,0,0,12.09-14.67l-4.17,16.88a6.47,6.47,0,0,0,.35-5.3"/><path class="cls-1" d="M408.11,538.69l16.53,5.78a2.09,2.09,0,0,1,1.07.64,2,2,0,0,1,.19,1.43A53.71,53.71,0,0,1,422.76,558l-3.61,10.09a.56.56,0,0,1-.62.49l-.16,0a52.61,52.61,0,0,1-20.58-8q2.65-11.1,6-22"/><path class="cls-1" d="M424.86,556q3.35,1,6.6,2.22"/><path class="cls-1" d="M421.54,563.32a38.14,38.14,0,0,0,7.76,2.84"/><path class="cls-1" d="M399.3,545l-2-.67"/><path class="cls-1" d="M398,553.89l-4.17-.27"/><rect class="cls-3" width="525" height="600"/></g></g></g></g></svg>