<svg xmlns="http://www.w3.org/2000/svg" viewBox="0 0 525 600"><defs><style>.cls-1,.cls-2{fill:none;}.cls-1{stroke:#fff;stroke-linecap:round;stroke-linejoin:round;stroke-width:2px;}</style></defs><title>lysy2</title><g id="Warstwa_2" data-name="Warstwa 2"><g id="Warstwa_1-2" data-name="Warstwa 1"><g id="Warstwa_2-2" data-name="Warstwa 2"><g id="Warstwa_1-2-2" data-name="Warstwa 1-2"><path class="cls-1" d="M128,6.44c-5.54,5.34-10.4,12.79-10.71,20.71-.28,7.08,6.48,16.59,14.45,12.19-8.1,6.76-14.39,17.48-12.57,28.34,1.55,9.29,9.65,18.15,19.56,17.8-5.92,7.25-11.13,16.85-9.29,26.52,1.44,7.56,7.54,13.81,15.49,14.05a11.42,11.42,0,0,0,10.18-5.32c-6.31,6.66-8.72,18.7-2.19,26,5.62,6.31,17.88,7.18,22.62-.69-.54,6.52,5.23,12.83,11.79,12.82S199.6,152.48,199,146"/><path class="cls-1" d="M273.67,135.27c1.65,6.11,9.46,9.58,15.08,6.63s7.15-11.4,3-16.2c7.06.94,15.92-2.43,18.11-9.8,2-6.54-3.17-15.54-10.68-14.53,11.3-3.77,19.08-16,17.69-27.82,6.77,4.66,13.77-5.08,12.81-11.31-1.17-7.63-9.3-12.13-15.67-15,10.45-8.47,2-26.34-11.15-23.66.92-6.52,2-13.61-.68-19.88"/><path class="cls-1" d="M195.54,204.82c.87-3-.68-6.35-3.13-8.31a16.92,16.92,0,0,0-8.75-3.12,8.79,8.79,0,0,0-3.7.16c-3.68,1.19-4.59,6.53-2.34,9.67s6.44,4.29,10.3,4.24c-4.15,1.67-8.49,3.67-10.87,7.46s-1.6,9.84,2.57,11.45c4.48,1.73,9.28-2.93,9.76-7.71a22.7,22.7,0,0,0,3,7.36c1.55,2.16,4.12,3.8,6.77,3.5,3.57-.4,6-4.32,5.69-7.9s-2.69-6.68-5.5-8.92c3.17,1.47,7.31-.47,8.59-3.73a8.25,8.25,0,0,0-3-9.29,10.79,10.79,0,0,0-10-1.14"/><path class="cls-1" d="M217.57,238a13.86,13.86,0,0,0-1.22-15.23,6.62,6.62,0,0,0-4.77-2.78,6.15,6.15,0,0,0-3.75,1.46c-5.56,4.31-4.63,14.45,1.63,17.68-5.51-.35-11.87-.36-15.49,3.81s-2.09,11.62,2.87,14,11.76-1,12.79-6.42c.72,2.74-.18,5.62-.42,8.44s.52,6.2,3.14,7.3c4,1.67,7.47-3.13,9.14-7.11.87-2.06,1.76-4.24,1.54-6.46s-1.94-4.49-4.18-4.47c2.37,4,8.82,4.67,12.07,1.3s2.57-9.58-1.21-12.34-9.71-1.68-12.46,2.11"/><path class="cls-1" d="M240.5,266.71c-1.05-3.19-2.22-6.56-4.82-8.68s-7.11-2.27-8.87.59a8.77,8.77,0,0,0-1,3.43c-.47,3.29-.84,6.84.7,9.79s5.75,4.71,8.31,2.58c-2.28,3.63-4.53,7.61-4.29,11.88s4.1,8.6,8.28,7.67c3.7-.82,5.53-4.93,6.58-8.58.91-3.15.92-7.66-2.26-8.44a15.57,15.57,0,0,0,5.26,4.13c4,1.89,9.15,1.73,12.27-1.35s2.85-9.23-1-11.23c-3.73-1.91-8.12.49-11.61,2.81-.32-2.71,2.56-4.62,3.73-7.09,2-4.29-2.55-9.77-7.24-9.09s-7.63,6.41-6,10.87"/><path class="cls-1" d="M270.94,261.91c-5.81-.64-9.34-8.29-6.35-13.31s11-5.8,15.14-1.72,3.84,11.68-.42,15.67c2.46-3.35,7.82-3.44,11.19-1s5,6.65,5.59,10.76c.6,4.34-.9,10-5.26,10.49a7.6,7.6,0,0,1-4.44-1.23,18.23,18.23,0,0,1-7.15-7.5c1.25,4.51,1.15,9.71-1.69,13.43s-9,5-12.28,1.68c-2.19-2.18-2.6-5.72-1.6-8.65a15.85,15.85,0,0,1,5.67-7.16,9.25,9.25,0,0,1-8.53-2.56c-2.06-2.32-2.31-6.24-.15-8.47s6.59-1.74,7.81,1.12"/><path class="cls-1" d="M296.56,260.59a12,12,0,0,1-2.47-14.16,5.88,5.88,0,0,1,3.57-3.16c2.51-.58,5,1.56,5.75,4s.23,5.12-.3,7.64c2.46-5.41,10.83-6.79,14.9-2.46s2.17,12.6-3.38,14.72c-1.54.59-3.52.65-4.61-.59a8.64,8.64,0,1,1-11.51,6.14"/><path class="cls-1" d="M309.13,229.34a13.37,13.37,0,0,1-.91-12.35c1-2.25,3.35-4.43,5.66-3.58a5.12,5.12,0,0,1,2.53,2.67,15.93,15.93,0,0,1-.08,14.37,10.94,10.94,0,0,1,15,.53c1.66,1.82,2.65,4.52,1.65,6.77-1.36,3.08-5.38,3.69-8.74,3.88l-7.16.39c-.24,1.83,1.08,3.53,1.1,5.37s-3.1,3.23-3.38,1.41"/><path class="cls-1" d="M308.31,229.66a14.14,14.14,0,0,0-6.6-1c-.88,1.79.27,4,2,5.06a12.11,12.11,0,0,0,5.79,1.22c-2.49.93-4.87,2.65-5.73,5.17s.42,5.8,3,6.41,5.31-2.75,3.72-4.87"/><path class="cls-1" d="M317.12,211.22c-4-3.25-4.6-9.92-1.12-13.69s10.45-3.49,13.41.69.66,11.07-4.3,12.38c3.79-1.82,8.19-2.89,12.2-1.65s7.32,5.37,6.51,9.49-5.12,6.59-9.23,6.76-8-1.5-11.83-3.13"/><path class="cls-1" d="M317.88,194.34c-1.79-2.62-3.64-5.41-3.82-8.58s2-6.7,5.22-6.7c2.48,0,4.54,2.15,5.27,4.52s.43,4.91.12,7.37c1-4.39,7.78-5.91,10.56-2.37s-.32,9.77-4.82,9.69"/><path class="cls-1" d="M402.21,213.36l15.34-1.89a4.49,4.49,0,0,0,2.42-.79c.94-.8,1-2.18,1.07-3.41a170.87,170.87,0,0,0-1.71-22.82L417.59,170c-.67-5.56-1.36-11.23-3.7-16.33s-6.14-9.29-9.9-13.42c-.75-.82-2.12-1.64-2.8-.76"/><path class="cls-1" d="M399.57,142.17a33.38,33.38,0,0,0-3.77,19.93,31.16,31.16,0,0,1,0-30.7,39.49,39.49,0,0,0-24.89,29.21c-5.94-15.36,5.84-34.77,22.21-36.6-6.86-6.76-18.89-7.33-26.36-1.25,4.28-4.37,9-8.56,14.83-10.53s12.86-1.27,17.1,3.14c.46-5.08,1-10.45,4-14.56s9.43-6.18,13.34-2.89a18.76,18.76,0,0,0-11.48,15.85c2.9-5.57,10.75-6.86,16.55-4.45s10,7.47,14,12.34a25.37,25.37,0,0,0-22.66-1.13A32.82,32.82,0,0,1,435.54,146a38.64,38.64,0,0,0-21.14-12.14A138.09,138.09,0,0,1,428.07,198q9.88-37.35,22-74.08A25.73,25.73,0,0,0,431,133.21c-.55-14.09,11.47-27.5,25.54-28.48-4.42-3.47-9.52-6.36-15.1-7s-11.7,1.44-14.8,6.12a19.6,19.6,0,0,1,34.59-4.7c.51-8.39-7.86-16.13-16.18-15,10.78-3.1,23.08,7,22.12,18.2-.3-7.73,10.72-11.54,17.43-7.68s9.75,11.77,12.32,19.08A14.24,14.24,0,0,0,479.76,107c8.83,1.15,16,8.31,19.36,16.56s3.43,17.45,2.69,26.32c-2.58-13.77-17-21.49-29.75-27.25,5.61,2.53,7.93,9.62,6.91,15.68s-4.6,11.34-8.1,16.4c5.09-10.35.82-24.3-9.18-30-14.14,26.34-15.18,57.5-15.9,87.38a68.55,68.55,0,0,0,24.63,1.74l-4.41.95"/><path class="cls-1" d="M448,13.4"/><path class="cls-1" d="M448,13.58c-3.36.7-6.92,1.51-9.35,3.94A11.4,11.4,0,0,0,435.8,23c-1.94,8.09,4,17.29,12.2,18.59s16.81-5.93,16.64-14.26-9.41-15.23-17.37-12.79"/><path class="cls-1" d="M436.45,46.08l-7.76,10.66,1.3-1.59"/><path class="cls-1" d="M450.46,49.42V60.07"/><path class="cls-1" d="M466,43.67a41.43,41.43,0,0,1,8.14,11.5"/><path class="cls-1" d="M473.45,29.64l9.91,5.58"/><path class="cls-1" d="M472.54,14.18A27,27,0,0,1,484,11.74"/><path class="cls-1" d="M402.87,597.1c-.66-5.85-1.21-11.72-2-17.56-.47-3.61-1.27-8.44-5.15-9.94"/><path class="cls-1" d="M179,510.11c35,8.39,70.2,16.82,106.12,18.11s73-5,103.43-24.23c1.13-.72,2.41-1.8,2.11-3.11s-3-.56-2.09.45"/><path class="cls-1" d="M171.12,583.66"/><path class="cls-1" d="M170.68,582l-1.81,15.12"/><path class="cls-1" d="M280.76,550.89c-4.69,1.35-6,8.73-2,11.62s10.57-.57,10.48-5.45-6.83-8.09-10.68-5.1"/><path class="cls-1" d="M251.84,597.47c1.44-2.8-1-5.83-3.75-6.51-3.27-.82-6.53,1.37-8.62,3.68"/><path class="cls-1" d="M240.8,593.34a10.12,10.12,0,0,0,1.94,4.15"/><path class="cls-1" d="M227.39,532.14a8.29,8.29,0,0,0-1.31,4.73c.25,3.38,4.09,6.09,7.28,4.94s4.31-6,1.77-8.27-7.44-.25-7.45,3.15"/><path class="cls-1" d="M347.57,534.49a6.41,6.41,0,0,0,1,7.94,5.52,5.52,0,0,0,7.73-.62c1.75-2.31.74-6.24-2-7.2s-6.09,1.77-5.48,4.61"/><path class="cls-1" d="M372.44,572.53c-3.55,2.11-2,8.61,2,9.35s7.81-4,6.61-7.94-6.28-5.94-10-4.34"/><path class="cls-1" d="M374.46,78.13c1.11-2.88,2.44-6,5.22-7.38s7.08.7,6.45,3.72c1.54-2.33,3.3-4.82,6-5.59s6.21,1.47,5.49,4.16"/><path class="cls-1" d="M425.43,78.71a5.43,5.43,0,1,1,10-4c1.67-3.4,7.55-3.27,9.07.2"/><path class="cls-1" d="M134.74,536.22a36.21,36.21,0,0,0,27.54-21.33"/><path class="cls-1" d="M142.34,545.28"/><path class="cls-1" d="M146.18,542.4v1"/><path class="cls-1" d="M150,540.48"/><path class="cls-1" d="M154.81,538.56"/><path class="cls-1" d="M158.65,534.72v-1"/><path class="cls-1" d="M164.41,529l-1,1"/><path class="cls-1" d="M167.28,526.09v1"/><path class="cls-1" d="M171.12,523.21l-1,1"/><path class="cls-1" d="M18,202c1.9-4-.3-9.64,3-12.59,2.22-2,5.9-1.36,8.16.57s3.46,4.81,4.58,7.57a10.94,10.94,0,0,1,5-13.18,10.94,10.94,0,0,1,13.65,3.56l-1.08-2.46"/><path class="cls-1" d="M54.88,50.07a86.18,86.18,0,0,1,3.19-8.65c1.08-2.49,2.36-5,4.58-6.61,4.52-3.19,12,0,12.72,5.51A11.35,11.35,0,0,1,97,36.91c1,.12,1.29-1.66.34-1.89"/><path class="cls-1" d="M146,6.21c-2,12.3,16.06,16.42,19.2,4.46"/><path class="cls-1" d="M153.1,14.68c-2.18-4.47-8.43-4.73-12.21-2.31s-5.69,6.78-6.62,10.89c-1.33,5.85-.91,15.13,7,15.37,8.81.27,14.76-9.35,11.21-17.22-1.79-4-7.26-8.56-11.78-5.78-4.74,2.91.51,7.25,4,7.64,8.83,1,13.74-10.25,11.67-17.55"/><path class="cls-1" d="M138.71,6.34c-4.31,4.62-8.06,16.67.45,18.93,4.57,1.21,10.06,1.44,14.57-.12,3.32-1.15,8-4.14,8.52-8,.7-4.77-4.9-2.59-6.74-.69a16.52,16.52,0,0,0-4.39,11.09c0,7.49,7.11,14.89,14.94,12.72,6.73-1.87,10.17-11.07,4.7-16.11-5.92-5.44-14.62-2.41-19.62,2.59-5.78,5.77-11.64,15.44-10.65,23.89.88,7.48,8.18,14.1,15.61,9.74a9.63,9.63,0,0,0-1.35-17.12c-8-3.18-16.24,4.28-18,11.68a13.7,13.7,0,0,0,10,16.58l.61.14A11.49,11.49,0,0,0,160.84,60.1c-.25-15.34-31-15.08-30.77.27.11,7.46,9,12.87,15.3,8.28,5-3.62,7-15.61-1.5-16.32-3.33-.28-6.58,2.4-7.68,5.42-1.36,3.73.47,7.75,3,10.47,6.65,7.07,15.37,6.49,21.12-1,1.51-2,6.12-8,1-8.5-3.33-.33-6.63,2.63-8.39,5.11-3.88,5.45-6.84,16.42-2.62,22.32,1.92,2.69,6,4.49,9,2.44"/><path class="cls-1" d="M194.63,3.74c-3.71,2.59-21.32,21.13-11,24.64,5,1.7,8.34-3.74,6.92-8.06-1.71-5.23-7.22-8.64-12.43-9.42-5.48-.83-11,1-15.54,4.09-3.24,2.21-10.35,8-9.67,12.57.91,6.08,8.42-.14,9.43-3.09A10.09,10.09,0,0,0,158.58,13c-6.47-4.18-16.32,0-20.89,5.21-2.7,3.1-7.08,12-.83,14.12,4.72,1.58,7-4.83,6.07-8.4-2-8-14.87-12.07-19.44-4.1-3.75,6.54,1.72,15.22,9.39,11.9,6.51-2.82,4.9-12.91-1.78-14.44-4.18-1-8.38,2.62-9,6.66-.95,6,4.89,9.19,10,9.69a22.15,22.15,0,0,0,9.17-1c.47,6.08-5.39,13.92,0,19,4.79,4.53,10.44-1.69,5.14-5-9.51-6-16.68,16.06-9.7,21.58,5.25,4.16,9-4.67,6.18-8.81-4.54-6.57-13.52-.35-15.71,5-1.29,3.17-1.24,7.21,1.23,9.82,2.21,2.34,6.63,3.19,9.16.85,4.36-4.05-1.77-10.71-6.18-6.78-4.7,4.19-3.18,14.29,2.18,17.2,5.69,3.08,15.33-4.4,10.38-10.28-4.4,3.63-9.45,11.7-3.65,16.45,4.3,3.52,12.25-2.47,7.42-6.39-2.46,2.81-6,7-4.79,11,.79,2.57,7.86,6.3,8.56,1.91.41-2.58-3.26-2-4.66-1.37a17,17,0,0,0-5.19,4.3c-2.77,3.13-5.2,7.32-4.1,11.63.86,3.4,4.06,6.31,7.62,4.33,3.72-2.07,2.8-6.58-1.1-7.69-3.23-.92-6.54,1.22-7.87,4.14-1.6,3.5.07,7.14,3.1,9.24,7.4,5.13,15.89-4,15.9-11.32-3.12,4.16-1.47,11,3.29,13.19,4.91,2.26,11.32-1.28,12.2-6.57-10.1,1-9.8,16.72.3,17.41-4.17-7.91-16.49,1.71-10.14,9.32s17.12.31,19.07-7.37c-3.72.69-12.85,5.59-8.09,10.07,5.88,5.55,12.52-3.68,17.82-5.43-5.29,2.43-.38,9.11,3.89,9,5.57-.13,8.61-6.13,10.58-10.53"/><path class="cls-1" d="M246.73,3.79a25.12,25.12,0,0,0-11,16.42c3.92.6,5-3.38,4.53-6.49-.73-4.5-4.88-7.84-8.5-10.17"/><path class="cls-1" d="M277.68,3.82c-.73,2.75-.16,6.29,2.82,7.41a24.15,24.15,0,0,0-7.68-7.5"/><path class="cls-1" d="M243.62,3.9c5.27,8.88,17.88,17.42,27.06,8.57-10.45,2.17-17.07,14.2-11.34,23.73,5.62,9.33,20.91,9.46,24.63-1.76-2.21,4.55-3.44,13.23,1.87,16.23,3,1.67,8,1,9.76-2.13,2.13-3.63-2.13-5-5-5a9.76,9.76,0,0,0-8.3,15.26c4.29,6.26,14.58,4.78,17.12-2.35,1.23-3.45.09-7.54-3.71-8.61-4.44-1.25-9.22,1.87-11.64,5.4-4.9,7.15-2.28,17.13,6.83,18.71,8.31,1.43,15.48-5.8,11.51-13.92-4.25-8.68-13.56-6.59-18.84-.26-4.48,5.38-6.91,14.06-.82,19.38,7,6.07,15.24-3.54,15.9-10.41.35-3.62-1.59-5.66-5.2-4.41s-6.33,4.4-8.2,7.59c-2.65,4.52-7.31,18,1.48,19,4.52.52,7.54-3.15,9.2-6.85,1.13-2.51,3.14-6.82,1.87-9.56-3.2-6.94-10.89,6.61-12,9.43-2.23,5.62-2.84,14.83,4.81,16.49,5.18,1.13,11.59-6.13,6.19-10-7.19-5.12-17,4.22-16.83,11.53.14,5.22,7.08,11.67,12.06,7.47,2.91-2.45,3.1-7.19-.17-9.36-3.78-2.51-8.33-.46-10.88,2.74s-4.77,8.78-2.85,12.82c1.8,3.79,6.49,4.12,9.76,2,3.55-2.25,4.86-6.68,5.68-10.56-9.85,0-16.92,12.68-11.74,21.06a8.34,8.34,0,0,0,4.12-8.63c-3.34,2.18-7.61,5.2-7.26,9.72s4.54,5.87,8,3.46c7.49-5.17,9.8-16.83,7.24-25.08-4,2.71,1.67,6.22,4.62,5.32,4.26-1.3,4.72-7.52,2.24-10.59-4.48-5.57-13.88,1.29-10.76,7.45a50.68,50.68,0,0,0,4.61-42.23c-5.67,3.66.28,11.25,5.73,9.9,5.76-1.42,7.11-8.66,5.12-13.51-2.58,2.8-5.55,6-5.75,10.05-.15,3,1.38,6.53,4.54,7.23,3.52.78,6.44-2.47,7.18-5.62,1-4.28-1.51-8.5-3.63-12-2.91,2.14-6.58,4.93-6.55,8.94,0,3.24,2.48,6.09,5.86,5.34,5.41-1.21,7.83-9.08,8.61-13.78.38-2.28,1.24-7.53-1.34-8.73-3.37-1.58-7.27,3.44-7.43,6.32-.33,6.1,8.35,8.76,12.06,4.3,2-2.4,2.44-9-1.29-10.24-3.24-1.1-5.52,4.11-5.53,6.59,6.76-3.78,3.25-13.67-2.9-15.9-3.7-1.34-8.77-1.06-11.84,1.64-2.72,2.39-1.46,5.32,2.26,5.18,5.67-.21,8.44-8.88,9.06-13.39.73-5.32-3.51-12.18-9.69-11.21-3.57.56-5.24,4.87-4.19,8.07,1.41,4.29,4.43,3.22,5.74-.21,2.1-5.46,1.06-14.33-5.61-16.13-6.17-1.66-12,7-6,10.88,6.44,4.14,8.51-5.84,8.16-10.1-.33-4-1.9-9-5.2-11.6-2.6-2.05-8.08-3-9.75.74-1,2.2.51,7.63,3.73,6.17,2.59-1.18,4.61-8.4,5.27-10.74"/><path class="cls-1" d="M260.71,3.77c2.4,3,6.9,1.89,9.55-.11"/><path class="cls-1" d="M271.14,3.56c-6.23,2.15-3.26,11.3,2.27,12.18,6.65,1.06,10.83-6.46,9.63-12.18"/><path class="cls-1" d="M228,3.62c3.1,14.92,24.95,17.21,30.63,2.89A24.88,24.88,0,0,0,242,23c-1,3.17-2,7.58-.16,10.64,2.23,3.69,6.92,3,10.34,1.69,3.15-1.23,19.58-11.33,15-15.78-2.79-2.72-7.7,0-8.91,2.9-1.56,3.74.52,7.83,3.51,10.13,4.45,3.44,11.72,4.06,17,2.42a9,9,0,0,0,5.91-4.75c.69-1.6,1.37-7.23-1.2-7.71-2.17-.4-5.1,4.73-6.09,6.23a31.12,31.12,0,0,0-4.69,12.14c-.51,3.18-.77,7.29,2,9.58,3.47,2.91,8.31.41,11.25-2.06s6.18-6.49,4.92-10.51c-1.09-3.48-5.16-5.39-8.6-5-6.45.73-9.92,8-10.34,13.76-1.31,17.81,26.43,14.54,21.17-2.07-5-15.89-28.28-8.19-26,7.08,1,6.71,7.41,8.77,13,5.51,6.32-3.67,8.44-12.3,6.44-19-2.27-7.59-9.49-12.29-17.34-10.63-7,1.48-14,8.42-11.19,16,4,10.79,14.92-1.43,18-6.24,4.59-7.26,8-17.28,6.16-25.94-.77-3.57-2.84-6.83-6.51-7.9"/><path class="cls-1" d="M224.86,3.6c.53,4.19,3,9.09,7.82,9,4.55-.06,7.42-4.71,7.17-8.92"/><path class="cls-1" d="M240.81,3.58C236,5,225.91,12.8,230.75,18.8c2.49,3.09,6.8-.12,8.59-2.39a19.92,19.92,0,0,0,4-12.47"/><path class="cls-1" d="M204.23,3.59c-8.69,2.6-14.5,11.43-16.12,20-.85,4.49-.75,10.74,4.63,12.14C200.06,37.64,212,29.08,208.26,21c-4.1-8.86-14.57-5.69-19.9-.13-3.84,4-6.23,9.77-7.15,15.2-.33,1.92-.74,4.85.91,6.34,2.11,1.91,6.14.33,7.78-1.44a6.35,6.35,0,0,0-1.09-9.39c-3.8-2.91-9.18-2-12.76.79-6.35,5-9.73,15.75-6.73,23.33,1.94,4.91,9.77,9.12,14.57,5.42,2.66-2,2.71-6.29.84-8.87-2.22-3.07-6.52-4.1-10.09-3.52-7.38,1.21-18.56,10.94-11.79,18.84,7.41,8.65,19-5.4,21.52-11.88a15.93,15.93,0,0,0,0-12.47c-.78-1.82-4.88-7.12-6.05-2.31-.72,2.94,3.78,5.63,6.16,5.84,3.89.33,7.43-2.38,9.92-5.06C197.81,38,206,26.4,201.3,21.38c-5.88-6.26-13.7,7.8-7.56,13.33,6.59,5.94,16.46.66,17.95-7.21.52-2.74.25-7.16-2.05-9.15-3.16-2.73-5.82,1.78-6.54,4.48-.87,3.32-1,8.11,2,10.48,3.18,2.54,7.82,1,10.23-1.86,2.9-3.37,3.12-8.2,3.31-12.42-5.17,4.14-13.29,16.06-3.43,19.9,7.69,3,15.1-7.4,8.37-13.06-2.4,3.39-5.2,7.36-4.76,11.74.36,3.6,3.3,7.57,7.31,7,6.31-.9,5.28-10,3.57-14.21-2.7,2.74-9.41,17.6-1.81,18.48,3.22.37,6.61-3.81,8.18-6.09A21.52,21.52,0,0,0,239.56,33c.28-2.35.29-7.27-3.27-4.56a6,6,0,0,0-1.9,7.38c2.84,5.29,10.91,5.08,14.25.63,2-2.67,3.08-6.9,1.9-10.13s-4.5-4.65-7.29-2.46c-4.15,3.24-3.78,10.57.13,13.82,5.49,4.58,13.28-1.87,14.45-7.6,1.77-8.7-11.91-10.42-10.57-3.36.69,3.62,5.08,5.54,8.29,4.16,3.42-1.47,5.28-5.61,5.7-9.1.93-7.73-4.22-16-11.72-18.3"/><path class="cls-1" d="M208.15,3.86c-3.31,6.09-7,18.4,2.63,21,7.22,2,13.55-6.1,11.76-12.78A12.46,12.46,0,0,0,214,3.61"/><path class="cls-1" d="M201.44,3.68c3.16,12,17.61,8.38,22.71.16"/><path class="cls-1" d="M191.47,3.92c.57,6.72,4.49,14.52,12.19,14.41,7.94-.12,12.72-8,14.63-14.79"/><path class="cls-1" d="M189.16,4.41a7.91,7.91,0,0,0,8.4-.63"/><path class="cls-1" d="M178.94,4.95c-1.38,5.58-2.19,14.37,2.89,18.46,6.75,5.44,15.69-1.69,19.56-7.19a34.83,34.83,0,0,0,5.68-13.16"/><path class="cls-1" d="M161.4,5.61c-2.53,9.63,5.91,18,15.26,18.08,10.33.08,20.08-9.29,20.58-19.59"/><path class="cls-1" d="M159.62,82.81c-4.27,3.51-9.09,7.56-11.59,12.59-2.72,5.47,2.12,11.36,7.89,7.76,4.78-3,9.26-11.74,5.86-17-4.15-6.44-13-3.56-16.89,1.44-4.23,5.46-6.36,14.13-4.42,20.87,2.33,8.08,11.09,8.85,16.33,2.68,3.05-3.6,8.72-14.06,1-15.24s-13.46,7.35-7.94,13.64a9.17,9.17,0,0,0,10,2.66c2.52-1,6.76-4.14,6.63-7.18-.22-5-12.1.12-9.48,7.17s10.89,7.46,15.81,3c4.2-3.8,5.9-10.85-1.61-11.69-14.79-1.66-16.75,30,.6,27.08,3.37-.57,7.06-2.7,8.23-6.08,1-3-.28-7.77-4.07-7.74-4,0-6.31,5.6-6.93,8.84a12.52,12.52,0,0,0,2.88,10.85c5.57,6.27,17.19,3.54,16.25-6-.43-4.41-3.74-2.17-5.45.37a8.72,8.72,0,0,0-.39,9c4.15,7.1,15.38,2.7,15.74-4.79.35-7.32-7.83-12.17-14.26-9.32a11.79,11.79,0,0,0-6.81,9.79c9.32-7.31,8.59-22.46-1.39-28.83-4-2.58-13.89-5.67-17,.09-1.07,2,.11,3.79,2.09,4.57,2.66,1,5.18-.25,6.94-2.23,8.37-9.41,4.54-25.82-3.79-33.9-2.25-2.18-11.27-8.09-12.08-1.46-.72,6,7.15,4.92,9.89,2.12,8.58-8.75,7.39-24.31.87-33.83-2.79-4.08-7.57-5.83-10.19-.48-2,4.11-1.75,9.87,1.45,13.28a11.32,11.32,0,0,0,16,.36l.36-.36c4.79-5,5.72-12.79,4.44-19.29a29.64,29.64,0,0,0-7.34-14.3c-3.3-3.54-6.81-4.29-8.42,1-2.23,7.39,1.57,20.93,11.63,17.44,10.44-3.62,10.66-18.15,8.83-27.06A29.2,29.2,0,0,0,176.73,5"/><path class="cls-1" d="M32.57,108.06c-1.9-2.34-3.89-4.87-4.16-7.87s2-6.42,5-6.09c2.4.27,3.94,2.61,5.12,4.72-2-3.91-2.63-8.85-.3-12.56s8.35-5,11.17-1.62"/><path class="cls-1" d="M50.91,147.6c-2.47-3.33-2.46-8.58.69-11.28s9.09-1.23,9.92,2.83a9.34,9.34,0,0,1,17.77-5.06"/><path class="cls-1" d="M86.76,332.31a31.39,31.39,0,0,1,8.88-10.62,50.6,50.6,0,0,0,5.91,15.51,28.3,28.3,0,0,1,6.34-11,70.81,70.81,0,0,1,6,10.83,15.59,15.59,0,0,1,3.93-7.28,49.29,49.29,0,0,1,2.62,16.53,52.12,52.12,0,0,1,7-11.44,59.15,59.15,0,0,1,3.94,15l4.5-7.22c.81-1.29,2.14-2.78,3.56-2.22a3.33,3.33,0,0,1,1.47,1.58l4.23,7.29a7.66,7.66,0,0,1,3.13-6.38l2.8,8.27a15.18,15.18,0,0,0,3-7.41"/><path class="cls-1" d="M378.53,334.15a14.21,14.21,0,0,1,1.64-10.54,23.65,23.65,0,0,1,7.59,6.87,32.13,32.13,0,0,0,1.32-10.67l6.6,6.56a19.45,19.45,0,0,0,1-8.5,33.27,33.27,0,0,1,7.67,5.61l-1.79-14.13a26.84,26.84,0,0,0,8.66,12.27,35.65,35.65,0,0,0,1-9.72l7.83,6.5A23.12,23.12,0,0,0,418,305.32"/><path class="cls-1" d="M87.31,328.56c2.08-25.71,4.23-51.7,12.38-76.17a38.57,38.57,0,0,1,4.47-9.83c2.31-3.35,5.49-6,8.63-8.56,11.74-9.67,23.66-19.44,37.48-25.79,5.11-2.35,10.49-4.24,15.15-7.4,12.21-8.28,17.34-23.65,27.46-34.38,15.24,24.69,32.32,51,59.41,61.37,5.7,2.19,12.28,3.54,17.78.88,10-4.83,10.4-19,17.5-27.55"/><path class="cls-1" d="M343.85,192.51c4.69-.21,9.44-.41,14,.52,16.85,3.43,26.88,20.53,33.57,36.37a351.37,351.37,0,0,1,21.72,72.29"/><path class="cls-1" d="M377,338.1a378.42,378.42,0,0,0,13.4,161"/><path class="cls-1" d="M156.33,345.29c6.7,24.91,13.46,50.32,12.14,76.07-.5,9.88-2.2,19.67-2.5,29.55a105.9,105.9,0,0,0,14,55.87"/><path class="cls-1" d="M34.41,359.88c13.24-28.49,13.6-61.07,13.1-92.48-.1-6-.71-13-5.69-16.32-4.48-3-10.93-1.5-14.79,2.28s-5.56,9.25-6.32,14.6c-.57,4-.57,8.54,2,11.7s8.51,3.54,10.23-.15c1.16-2.49,0-5.38-1.22-7.86A13.43,13.43,0,0,0,30,279.43"/><path class="cls-1" d="M492.8,580.12a282.41,282.41,0,0,1-25-57.06c-2.35-7.52-4.4-15.25-4.36-23.13s2.41-16,7.87-21.68c3.6-3.75,9.06-6.33,14-4.76,5.48,1.74,8.31,7.68,10.18,13.12,1.66,4.81,3.07,10.06,1.54,14.91s-7.18,8.69-11.78,6.52-5.3-8.3-5.35-13.39a8.44,8.44,0,0,1,5.66,3.87"/><rect class="cls-2" width="525" height="600"/></g></g></g></g></svg>