<svg xmlns="http://www.w3.org/2000/svg" viewBox="0 0 525 600"><defs><style>.cls-1,.cls-2{fill:none;}.cls-1{stroke:#fff;stroke-linecap:round;stroke-linejoin:round;stroke-width:2px;}</style></defs><title>marta_z</title><g id="Warstwa_2" data-name="Warstwa 2"><g id="Warstwa_1-2" data-name="Warstwa 1"><path class="cls-1" d="M20,293.13A802.6,802.6,0,0,0,66.73,226q21.74,36.7,46.89,71.24"/><path class="cls-1" d="M91,265.93a76.82,76.82,0,0,0,33.18-22.56c15,11.7,21.61,31.91,36.79,43.44"/><path class="cls-1" d="M53.81,246.66a6,6,0,0,1,4.4,4.42c1.7.25,3.07-1.24,4.33-2.41s3.38-2.07,4.55-.82c.86.92.77,2.68,1.95,3.13L72,246.66c.17-.26.38-.54.69-.58a1.12,1.12,0,0,1,.84.43l5.77,5.63"/><path class="cls-1" d="M114.46,255.37a9.9,9.9,0,0,0,3.34,3.29c1.42.69,3.39.53,4.26-.79.44-.67.64-1.62,1.4-1.85,2-.62,2.11,4.57,4.13,3.92.69-.22.93-1.05,1.4-1.59a2.78,2.78,0,0,1,3.19-.44,8.15,8.15,0,0,1,2.59,2.24,11,11,0,0,1,.77-2.9"/><path class="cls-1" d="M388.34,292.47q13.83-24.16,29.69-47.08l67.28,48.67"/><path class="cls-1" d="M465.82,279.49l22.31-13.89a.67.67,0,0,1,1,.11A221,221,0,0,1,512,291.82"/><path class="cls-1" d="M405.63,265a24.53,24.53,0,0,1,6.24,4.27,28.2,28.2,0,0,1,4.23-5.5,1.32,1.32,0,0,1,1-.52c.39,0,.67.4.88.73l2,3a18.69,18.69,0,0,1,5.61-5.19l2.18,5.72c1.49-.87.95-3.56,2.47-4.36s3.07,1.26,3.64,3l.21-6.36"/><path class="cls-1" d="M480.55,271.65l4.51,5.8,3.42-3.28a5,5,0,0,0,2.53,2.07,8,8,0,0,1,2.48-2.95"/><path class="cls-1" d="M228.65,67.68a172.84,172.84,0,0,0,120.88,6.81"/><path class="cls-1" d="M225.66,71.4c37.7,16.75,86.67,19.51,126,7.1"/><path class="cls-1" d="M294.37,67.9c-.3-1.9-3-2.76-4.52-1.57a3.66,3.66,0,0,0-.25,5.13,4.92,4.92,0,0,0,5.32,1.08A3.3,3.3,0,0,0,296.78,71c.88-1.8-.82-3.74-2.36-5"/><path class="cls-1" d="M235.62,57.77c-1.52-.87-3.25,1.55-2.38,3.07s3,1.84,4.68,1.44l1-4.29a3.8,3.8,0,0,0-4-.17"/><path class="cls-1" d="M263.91,56.4c1.75-.73,3.85-1.44,5.43-.39a5.14,5.14,0,0,1,1.79,2.9,7.31,7.31,0,0,1,.3,4.11c-.74,2.59-3.58,3.88-6.09,4.84l-9,3.44a1.7,1.7,0,0,1-.94.17,1.6,1.6,0,0,1-.84-.63,18.29,18.29,0,0,1-3.61-8.76,11.32,11.32,0,0,1,0-4.52,5.06,5.06,0,0,1,2.68-3.49,4.55,4.55,0,0,1,4.54.7c.79.62,1.45,2.74,2.22,3C261.46,58.24,262.76,56.88,263.91,56.4Z"/><path class="cls-1" d="M261.57,51.66c.83-1.9,1.76-3.92,3.54-5a8.66,8.66,0,0,1,3.29-1c2.67-.37,5.59-.33,7.81,1.2a9,9,0,0,1,3.38,5.51c1.41,6.29-1.93,13-7,17s-11.5,5.81-17.88,6.81"/><path class="cls-1" d="M261.18,50.9c-.81-3.38-4.8-5-8.27-4.94a5.29,5.29,0,0,0-3,.76c-1.26.89-1.69,2.55-2,4.06a41.73,41.73,0,0,0-.83,12.8,19.87,19.87,0,0,0,5.12,11.57"/><path class="cls-1" d="M279.36,60.43c5.09-3.15,12-3.84,17-.56a12.91,12.91,0,0,1,5.29,7.21c1.29,4.54,0,9.46,1,14.07"/><path class="cls-1" d="M301.45,64.58c2.15-1.78,5.18-1.9,8-1.93l5-.05a6.07,6.07,0,0,1,2.78.41,5.31,5.31,0,0,1,2,2.11,21.28,21.28,0,0,1,2.94,13.76"/><path class="cls-1" d="M321.41,67.41c.27-1.43,2-1.94,3.46-2.16,2.06-.32,4.24-.63,6.19.11a8.17,8.17,0,0,1,4.31,4.47A24.24,24.24,0,0,1,336.88,76"/><path class="cls-1" d="M247,54.78c-1.44-.45-2-2.29-3.27-3a4.8,4.8,0,0,0-1.53-.49,40.51,40.51,0,0,0-4.36-.59c-2-.16-4.22-.09-5.67,1.28a7.89,7.89,0,0,0-1.67,2.85c-1.56,3.81-3.14,7.72-3.34,11.84"/><line class="cls-1" x1="261.75" y1="50.39" x2="261.75" y2="32.38"/><path class="cls-1" d="M266,36.07a11.39,11.39,0,0,0-3.48,2.31c-1-1.09-3.65-2.07-5-2.68"/><path class="cls-1" d="M262.15,48.2a10.68,10.68,0,0,1,2.71-5.29,11.31,11.31,0,0,1,6-2.7,15.57,15.57,0,0,1,10.29,1.31c3.08,1.72,5.33,5.16,5,8.67-.28,2.87-2.15,5.31-3.94,7.57"/><path class="cls-1" d="M262,47.7c-.76-3.21-2.9-6.32-6.07-7.26a14,14,0,0,0-4-.39,9.1,9.1,0,0,0-3.22.38,6.13,6.13,0,0,0-3.42,3.91,18,18,0,0,0-.67,5.3,5.17,5.17,0,0,0,.78,3.52"/><path class="cls-1" d="M337.7,76.44l-1.64-6a22.75,22.75,0,0,0-1-3A11.54,11.54,0,0,0,327.55,61a5.56,5.56,0,0,0-3.79.12c-1.85.88-1.74,2.47-2.21,4.47l-1.43-2.78c-1.14-2.22-2.43-4.58-4.68-5.65a11.15,11.15,0,0,0-4.34-.79,9.22,9.22,0,0,0-4.15.48A8.46,8.46,0,0,0,304.23,59c-1.32,1.46-2.68,2.91-2.75,4.88.12-2.35.15-4.85-1.05-6.86-1.42-2.38-4.34-3.54-7.11-3.59a24,24,0,0,0-8.09,1.75c-1.32.46-2.83,1.11-3.18,2.46"/><path class="cls-1" d="M278.09,64.38a103.08,103.08,0,0,0,2.55,15.72"/><path class="cls-1" d="M245.8,59.4c-.77,2.71-2.91,4.77-4.65,7a27.66,27.66,0,0,0-3.23,5.21"/><path class="cls-1" d="M23.46,122.09c-1.78-1.66-.23-4.94,2.1-5.64s4.79.29,7,1.27q27.34,12,54,25.54a15.29,15.29,0,0,1,4.68,3.16,5.24,5.24,0,0,1,1.26,5.24c-.7,1.76-3.14,2.76-4.64,1.6"/><path class="cls-1" d="M29.71,125.64q9.25,4.47,18.08,9.76c3.61,2.16,7.17,4.42,11,6.26,6.52,3.17,13.6,5,20.16,8.12,4.47,2.1,9.12,5.42,9.69,10.32.61,5.2-3.85,9.81-8.75,11.65-7.65,2.88-16.27.95-23.89-2a91.94,91.94,0,0,1-27.7-17.08c-5.12-4.58-20-17.09-16-25C15.79,120.52,24.15,123,29.71,125.64Z"/><path class="cls-1" d="M29.66,116.18a4.54,4.54,0,0,1,4.15-2.27,13.35,13.35,0,0,1,4.81,1.22c15,5.87,30,11.75,44.45,18.86,5.89,2.9,12.07,6.39,14.84,12.33S99.2,159.86,95,165s-10.79,8-17.41,8.64"/><path class="cls-1" d="M24.2,122.43l6.87-2.18a2.25,2.25,0,0,1,1.48-.12,2.12,2.12,0,0,1,1,1.35,16.42,16.42,0,0,1,1,4.94l10.58-.26-.3,6.56a42.39,42.39,0,0,0,12.23-1.27l1.46,7.35,10.26-2.39a38.6,38.6,0,0,1,2.46,10.69l10-3.85,1.89,8.17a21.06,21.06,0,0,0,7-2.38"/><path class="cls-1" d="M22.76,117.43l-1-3-2.87,4.86a2.84,2.84,0,0,0,2.68-.54"/><path class="cls-1" d="M92.57,152.84a2.49,2.49,0,0,1,2.58.26,1.4,1.4,0,0,1-.27,2.26c-.92.32-1.79-.7-2-1.65"/><path class="cls-1" d="M72.42,92.87c-1-1-.54-2.7.6-3.8a12.32,12.32,0,0,1,4.28-2.32L133.7,65.16c2.85-1.09,6-2.21,8.75-1.49a6.07,6.07,0,0,1,4.38,4.73A13.09,13.09,0,0,1,146,75a20,20,0,0,1-3.37,6.45c-2.68,3.28-6.78,5.53-10.86,7.43a141.19,141.19,0,0,1-34.9,10.78,54.85,54.85,0,0,1-16.6.48c-3.21-.5-4.44-2.17-6.73-4s-2.71-5-2.14-7.85"/><path class="cls-1" d="M69.75,87.7a3.29,3.29,0,0,1-2.27-3c3.83-3,8.45-4.78,13-6.52l54.6-20.92c2-.76,4.12-1.53,6.19-1,3.67.87,5.21,6.29,2.54,9"/><path class="cls-1" d="M143.35,56.34a18,18,0,0,0,5.05-2.43,12.56,12.56,0,0,1,1.7,3.67,8.3,8.3,0,0,1-5.62-.83"/><path class="cls-1" d="M66.64,85.9A15.39,15.39,0,0,1,62.52,85a5.59,5.59,0,0,0,1,5.14l1.72-3.87"/><path class="cls-1" d="M69.27,82.7c-.47-2.1,1.59-3.63,3.37-4.52a464.26,464.26,0,0,1,60.82-25.43,7.14,7.14,0,0,1,2.39-.51c3,.06,5.61,1.06,3.69,3.42"/><path class="cls-1" d="M73.15,87.57l3.73-7.49,4,3.19L84,78.84c.34-.49.79-1,1.38-1a1.73,1.73,0,0,1,.77.33l3,1.89c-.6-2.31,1.27-4.76,3.57-5.39a8.39,8.39,0,0,1,6.77,1.56,7,7,0,0,1,1.48-5.48l4.29,3.13a19,19,0,0,0,7.13-7.65l3.85,3a12.55,12.55,0,0,1,2.23-5.11,23.79,23.79,0,0,1,5,2.79,37.56,37.56,0,0,0,3.17-5.91l5.4,2.9L134,58l4.46,3.83a5.35,5.35,0,0,1,1.36-5.1"/><path class="cls-1" d="M63.54,25.92,46.67,66.43c-2,4.8-4.05,9.7-7.47,13.61a9.43,9.43,0,0,1-5.3,3.46c-2.12.34-4.61-.87-5-3A6.32,6.32,0,0,1,29.06,78c2.33-11,7-21.34,12.09-31.39,3.71-7.39,7.25-15.26,11.51-22.33C55.71,19.27,67.06,17.46,63.54,25.92Z"/><path class="cls-1" d="M62.58,19.85q2.4-2.27,5-4.35a57.74,57.74,0,0,0-5.92-2.64A61.16,61.16,0,0,0,63,19.7"/><path class="cls-1" d="M32.89,83.65l.28,6.52A45,45,0,0,1,27.06,87a14.73,14.73,0,0,1,5.21-3.76"/><path class="cls-1" d="M162.63,20.42l21.48,38.27c2.55,4.54,5.13,9.17,6.1,14.28a9.43,9.43,0,0,1-.55,6.3c-1,1.88-3.53,3.09-5.44,2.11a6.32,6.32,0,0,1-1.85-1.67c-7.22-8.62-12.45-18.71-17.25-28.88C161.61,43.35,157.6,35.7,154.67,28,152.57,22.48,158.15,12.43,162.63,20.42Z"/><path class="cls-1" d="M157.27,17.43q-.3-3.29-.35-6.6a57.74,57.74,0,0,0-5.73,3A61.16,61.16,0,0,0,157.41,17"/><path class="cls-1" d="M189.16,80.16l5.3,3.8a45,45,0,0,1-6.24,2.88,14.73,14.73,0,0,1,.26-6.42"/><path class="cls-1" d="M94.23,328.82c5.09,3.65,8.35,9.42,10,15.45s1.94,12.36,2,18.62c0,5.46-.14,11.25-3.11,15.82-3.52,5.42-10.57,8-16.95,7s-12-5.19-15.64-10.52C65,367,61.51,348.31,64.11,338.34,67.5,325.35,84.08,321.56,94.23,328.82Z"/><path class="cls-1" d="M91.45,322.53a7.22,7.22,0,0,1-2.19-4.44c-.15-1.42-.16-3.29-1.52-3.7-1.55-.46-2.55,1.58-2.86,3.17a3.87,3.87,0,0,0-4.13-2.75l-.7,3a6.22,6.22,0,0,0-1.47-2.08,2.12,2.12,0,0,0-2.38-.31c-1.08.68-.92,2.27-.79,3.54s-.28,3-1.56,3"/><path class="cls-1" d="M110.24,348.73c1.18-.78,2.5-1.6,3.91-1.45s2.65,1.86,1.82,3a4,4,0,0,0-2.78,1.41,8.53,8.53,0,0,1,3.18.2,2.58,2.58,0,0,1,0,5.07,8.54,8.54,0,0,1-3.75.21"/><path class="cls-1" d="M58.46,352.93a4.64,4.64,0,0,0-6,4.12l4.55-.41c-1,1.48-3.3,2.55-2.83,4.28s2.66,1.59,4.26,1.25"/><path class="cls-1" d="M101,386.63a3.24,3.24,0,1,1-5.37,3.56,40.56,40.56,0,0,1,2.11,9.67l1.47,11c.42,3.15.84,6.39.12,9.49a6.36,6.36,0,0,1-1.82,3.44,3.17,3.17,0,0,1-3.65.48c-1.47-.94-1.53-3-1.45-4.76a208.64,208.64,0,0,0-.48-27.6,5.46,5.46,0,0,1-.6,3.31,2.51,2.51,0,0,1-2.93,1.14c-1.13-.48-1.52-1.88-1.55-3.11a8.39,8.39,0,0,0-.42-3.61"/><path class="cls-1" d="M92.43,322.67c2.73.08,5.63.22,7.87,1.78s3.26,3.92,4.3,6.27c2.36,5.35,4.66,10.9,4.86,16.75"/><path class="cls-1" d="M73.25,322.35a12.77,12.77,0,0,0-12.58,10,20,20,0,0,0-.31,3.67c0,4.58.5,9.22-.5,13.69"/><path class="cls-1" d="M112.95,359.32l-1.15,15.18c-.22,2.88-.47,5.88-2,8.35s-4.62,4.22-7.31,3.17"/><path class="cls-1" d="M59.53,363.3a38.22,38.22,0,0,0,10.53,24,17.28,17.28,0,0,0,7.24,4.88c2.82.84,6.16.41,8.24-1.68"/><line class="cls-1" x1="88.51" y1="335.4" x2="72.71" y2="351.2"/><line class="cls-1" x1="87.73" y1="350.96" x2="80.61" y2="358.09"/><line class="cls-1" x1="96.52" y1="354.34" x2="80.49" y2="370.37"/><path class="cls-1" d="M51.88,416.57c1.87,4.28,5.38,7.58,8.44,11.1a.71.71,0,0,1,.23.46.69.69,0,0,1-.27.44c-3.11,2.94-8,3.79-10.45,7.31-1.92-2.21-8-7.89-7.76-11C42.25,422.71,52.06,417,51.88,416.57Z"/><path class="cls-1" d="M49.43,417.05c-.3.16-.48-.33-.69-.59-.42-.52-1.25-.16-1.79.24l-5.64,4.13.65.94"/><path class="cls-1" d="M48.29,415.15c-4.11-7.93-9.49-15-14-20.8-2.41,1.08-4,3.32-6.39,4.4a1.77,1.77,0,0,0-.68.44c-.48.59,0,1.46.4,2.08l13.26,18.62"/><path class="cls-1" d="M32.65,394.27c-3.93-4.35-5.58-10.39-9.56-14.7a46.7,46.7,0,0,0-3,5.7,1.29,1.29,0,0,0-.14.51,1.32,1.32,0,0,0,.25.66l7,11.72"/><path class="cls-1" d="M457,306.37c10,6.1,21.89,8.54,31.6,15"/><path class="cls-1" d="M488.4,321.34c.88,8.93-1.76,18.41-8.1,24.77a26.12,26.12,0,0,1-8.77,5.79,19.13,19.13,0,0,1-12.1,1c-4.93-1.37-8.78-5.15-12.2-9a18.84,18.84,0,0,1-3.46-4.85c-2.06-4.68-.29-10.11,1.88-14.73a87.62,87.62,0,0,1,11.21-17.88"/><path class="cls-1" d="M457.06,353.24c-.68-.16-1.09.73-1.22,1.42a55.58,55.58,0,0,1-3.4,11.11c-1.43,3.37-3.2,6.71-3.5,10.36a6.08,6.08,0,0,0,1.34,4.82,7.75,7.75,0,0,0,1.82,1.24l3.56,2"/><path class="cls-1" d="M454.14,351l-7.36,18.83a4.87,4.87,0,0,1-4.16,3.79c-3.34.94-6.8,1.89-10.22,1.34"/><path class="cls-1" d="M432.3,375.59l22.19,7.78"/><line class="cls-1" x1="443.5" y1="334.39" x2="486.49" y2="334.39"/><path class="cls-1" d="M115.87,178.11q8.54,18.91,16,38.3"/><path class="cls-1" d="M112.13,187c-1.54-3.06-.24-7,2.3-9.28s6-3.25,9.42-3.66a7,7,0,0,1,3.37.2,6.27,6.27,0,0,1,2.79,2.59,12.39,12.39,0,0,1,2.12,8.45,8.11,8.11,0,0,1-5.3,6.57c5-.09,10.2.15,14.75,2.26s8.37,6.48,8.46,11.5c.11,5.84-4.83,10.8-10.37,12.66s-11.55,1.31-17.37.73"/><path class="cls-1" d="M149.18,185.63l3.08,6.65a21.69,21.69,0,0,0,3.68,6.08,6.54,6.54,0,0,0,11.49-2.17,21.7,21.7,0,0,0,1.21-7,12.76,12.76,0,0,0-.36-5,4.34,4.34,0,0,0-3.6-3.08"/><path class="cls-1" d="M185.81,178.42a7.19,7.19,0,0,0-8.36-3.21,8.74,8.74,0,0,0-5.71,7.22,11.2,11.2,0,0,0,3.15,8.87,13,13,0,0,0,5.82,3.52,9.82,9.82,0,0,0,4.67.26,8.13,8.13,0,0,0,6.25-8.13c-1.83.19-4.13-.71-6-.52"/><path class="cls-1" d="M191.09,144a94.91,94.91,0,0,0,4,30.53"/><path class="cls-1" d="M200.65,190.51a8.51,8.51,0,0,1,3.38.88,4.19,4.19,0,0,0-.45-3.53,5.61,5.61,0,0,0-.51,3.09l-1-.92"/><path class="cls-1" d="M414,554.75l.08,20.56"/><path class="cls-1" d="M408.59,554.7c3.62-1.68,8-3.34,11.4-1.23a6.43,6.43,0,0,1,2.55,7.34,6.87,6.87,0,0,1-6.45,4.47,4.94,4.94,0,0,1,4.74,1.11,14,14,0,0,1,3,4.09,2.59,2.59,0,0,1,.47,1.61c-.12.72-.8,1.19-1.42,1.57l-7.2,4.46c-2.78,1.72-6.51,3.41-9.05,1.36"/><path class="cls-1" d="M429.06,565c-.37,2.72.28,5.74,2.34,7.55s5.68,1.87,7.32-.33a6,6,0,0,0,.59-5.2,34,34,0,0,0-2.25-4.93"/><path class="cls-1" d="M451.94,564.88c.45-1.48-1-3-2.57-3.08a4.34,4.34,0,0,0-3.67,2.45c-1.47,2.7-.53,6.58,2.22,8s6.68-.56,6.92-3.62l-3.76,1"/><path class="cls-1" d="M466.84,548.36l-1.28,15.06"/><path class="cls-1" d="M462.48,577a1.64,1.64,0,0,0-.44-2.61"/><path class="cls-1" d="M430.61,422.64a280.68,280.68,0,0,0-.5,34"/><path class="cls-1" d="M421.11,425.61l5.42-1.47c4.1-1.11,8.9-2.1,12.24.53a7.72,7.72,0,0,1,1.58,9.69,9.41,9.41,0,0,1-9.2,4.23c4.64,0,10,.21,12.83,3.86,1.87,2.37,2.16,5.59,2.38,8.6a7.14,7.14,0,0,1-.2,3c-.6,1.64-2.28,2.6-3.88,3.29a33.1,33.1,0,0,1-29-1.7"/><path class="cls-1" d="M451.35,440.51c-1.62,3-.56,7.05,1.94,9.43a13.16,13.16,0,0,0,9.55,3.19,4.56,4.56,0,0,0,1.59-.27,4.41,4.41,0,0,0,1.55-1.23,14.94,14.94,0,0,0,2.89-14.53"/><path class="cls-1" d="M505.85,415.66q.35,14,.11,28"/><path class="cls-1" d="M505.4,455.52a.29.29,0,1,1,.11-.36"/><path class="cls-1" d="M491.69,441.65a10,10,0,0,0-11.74-1,7.62,7.62,0,0,0-2,1.79c-1.79,2.38-1.66,5.64-1.45,8.6a4.49,4.49,0,0,0,.29,1.53,4,4,0,0,0,1,1.25c3,2.75,7.27,4.55,11.08,3.21,1.92-.68,3.71-2.59,3.17-4.55l-5.9,0"/><path class="cls-1" d="M31.5,501a280.68,280.68,0,0,0-.5,34"/><path class="cls-1" d="M22,504l5.42-1.47c4.1-1.11,8.9-2.1,12.24.53a7.72,7.72,0,0,1,1.58,9.69A9.41,9.41,0,0,1,32,517c4.64,0,10,.21,12.83,3.86,1.87,2.37,2.16,5.59,2.38,8.6a7.14,7.14,0,0,1-.2,3c-.6,1.64-2.28,2.6-3.88,3.29a33.1,33.1,0,0,1-29-1.7"/><path class="cls-1" d="M52.24,518.89c-1.62,3-.56,7.05,1.94,9.43a13.16,13.16,0,0,0,9.55,3.19,4.56,4.56,0,0,0,1.59-.27A4.41,4.41,0,0,0,66.86,530a14.94,14.94,0,0,0,2.89-14.53"/><path class="cls-1" d="M106.74,494q.35,14,.11,28"/><path class="cls-1" d="M106.29,533.89a.29.29,0,1,1,.11-.36"/><path class="cls-1" d="M92.58,520a10,10,0,0,0-11.74-1,7.62,7.62,0,0,0-2,1.79c-1.79,2.38-1.66,5.64-1.45,8.6A4.49,4.49,0,0,0,77.7,531a4,4,0,0,0,1,1.25c3,2.75,7.27,4.55,11.08,3.21,1.92-.68,3.71-2.59,3.17-4.55l-5.9,0"/><path class="cls-1" d="M476,482.41a159.71,159.71,0,0,0-16.33,12.92"/><path class="cls-1" d="M473.22,480.54c1.78,1.74,4,3.14,5.25,5.27s1.23,5.4-.94,6.62a6.6,6.6,0,0,1-3.1.59c-1.83,0-3.92,0-5.11-1.41,2-.55,4.23,1.14,4.61,3.21a5.73,5.73,0,0,1-2.48,5.44,10.64,10.64,0,0,1-6,1.72,8.86,8.86,0,0,1-5.22-1.21c-3-2-3.4-6.28-5.08-9.53"/><path class="cls-1" d="M480,501.92l-3.08,2.2c-1.57,1.12-3.32,2.64-3.07,4.55a3.57,3.57,0,0,0,2.12,2.61,9.27,9.27,0,0,0,3.41.69c1.57.1,3.44,0,4.24-1.39"/><path class="cls-1" d="M490.15,518.58a2,2,0,0,0-1.2-2,5.76,5.76,0,0,0-2.45-.43,6.83,6.83,0,0,0-4.16.81c-1.89,1.34-2,4.07-1.84,6.38a1.42,1.42,0,0,0,1.1,1.64,12.45,12.45,0,0,0,3.67,1,4.21,4.21,0,0,0,3.46-1.27l-2.18-1.82"/><path class="cls-1" d="M512.45,521.81a37.64,37.64,0,0,1-17.62,7"/><path class="cls-1" d="M489.9,530.58a2.63,2.63,0,0,0-2.57,3.54,1.57,1.57,0,1,0,.51-3"/><path class="cls-1" d="M307.07,248.28c-4.71,4.12-6.19,11-10.83,15.23-3.51,3.19-8.34,4.39-13,5.48l-24.93,5.89"/><path class="cls-1" d="M275.71,251.72a25,25,0,0,0-22.36,31c.69,2.77,1.86,5.41,2.7,8.14a37.19,37.19,0,0,1,1.54,14"/><path class="cls-1" d="M285.4,287.16c2.69,3.42,2.75,8.38,1.08,12.39s-4.81,7.23-8.16,10c-9.11,7.57-20,12.57-30.81,17.47"/><path class="cls-1" d="M252.3,290.19,240.18,301a23,23,0,0,0-3.78,4,16.66,16.66,0,0,0-2.45,6.54c-2.72,15.05,6.17,29.56,8.65,44.66"/><path class="cls-1" d="M287.31,327.09A51.33,51.33,0,0,1,261,361.74c-5.25,2.72-10.94,4.49-16.5,6.5a201.12,201.12,0,0,0-22.36,9.63"/><path class="cls-1" d="M236.29,336.09c-13.67.5-26.36,11-29.44,24.31A43.52,43.52,0,0,0,206,372c.45,10.72,3.34,21.18,6.2,31.52l9.64,34.79"/><path class="cls-1" d="M260,362.34c11.62,10.59,15.67,27.77,13.18,43.29s-10.72,29.58-20.44,41.94S231.72,470.92,221.7,483"/><path class="cls-1" d="M213.7,401.09c-20.28,4.78-34.81,25.8-33.93,46.62A49.34,49.34,0,0,0,182,460.4c5,16,17.82,28.42,24.86,43.67"/><path class="cls-1" d="M192.33,486.89A71.52,71.52,0,0,1,217,489.7"/><path class="cls-1" d="M199.68,496.39a103.85,103.85,0,0,1,26.69.91"/><path class="cls-1" d="M225.31,505a320.53,320.53,0,0,1,17.22,69.17"/><path class="cls-1" d="M203.2,508.13c2.93,19.75-5.91,39.28-14.62,58-3.64,7.82-7.32,15.7-12.86,22.8"/><path class="cls-1" d="M274.89,251.62c3.68-1.32,7.45-2.68,10.45-5.19s5.12-6.44,4.4-10.28"/><path class="cls-1" d="M463.52,74.3a446.46,446.46,0,0,0,16.82-46.62,27,27,0,0,0,1.56-8.62,4.24,4.24,0,0,0-3.79.82C464.22,31.53,467.2,56.55,463.52,74.3Z"/><path class="cls-1" d="M456.65,81.51a8.71,8.71,0,0,1,.48-4.05c1-2.18,3.62-3.12,6-3.4a5.19,5.19,0,0,1,2.33.12,4.13,4.13,0,0,1,1.8,1.38,6.89,6.89,0,0,1-.85,9.14,34.29,34.29,0,0,1-9.26,4.93C456.53,87.11,456.76,84.13,456.65,81.51Z"/><path class="cls-1" d="M436.34,22a11.53,11.53,0,0,1,.69-4.61,3.93,3.93,0,0,1,3.62-2.51c3.95,17.35,5.57,35.13,7.19,52.85"/><path class="cls-1" d="M435.85,21.45c4.17,13.69,5,28.13,6.25,42.38a10.4,10.4,0,0,0,1,4.31,3.59,3.59,0,0,0,3.69,1.93c1.45-.34,2.32-2.4,1.25-3.45"/><path class="cls-1" d="M444.32,81.06c-1.44-2.48-1.91-5.71-.46-8.17s5.2-3.51,7.34-1.6c1.49,1.34,1.79,3.61,1.39,5.57a37.52,37.52,0,0,1-2.1,5.63,11.91,11.91,0,0,0-.71,3.56C447.59,86,445.39,82.91,444.32,81.06Z"/><path class="cls-1" d="M498,64.58,494,74.9c-4.86,12.49-9.76,25-16.67,36.53a6.3,6.3,0,0,1-2.22,2.49,2.24,2.24,0,0,1-3-.62c-.49-.92,0-2,.45-3,1.06-2.1,2.11-4.19,3.14-6.3A326.2,326.2,0,0,0,489.17,72.5c1-2.87,1.58-8.68,3.57-11C495.57,58.12,499.68,60.33,498,64.58Z"/><path class="cls-1" d="M467.2,116.21a6.17,6.17,0,0,1,4.18-2c3,0,5.13,3.6,4.37,6.51s-3.62,4.9-6.58,5.48c-3.49.68-6.6,5-5.37-2.64A13.54,13.54,0,0,1,467.2,116.21Z"/><path class="cls-1" d="M399.78,68.25q3.64,31.23,10.24,62l-13.81,5c-4.54-7-6.19-15.45-8.56-23.47a126.54,126.54,0,0,0-6-16.19c-2-4.48-8.53-17.38-8.53-17.38,2-1.65,5.31-3.08,8.92-4.36Q390.81,70.76,399.78,68.25Z"/><path class="cls-1" d="M405.73,132.16l2,5.52a.58.58,0,0,1-.4.93L403,140.18a.83.83,0,0,1-1.31-.58l-1.6-4.49"/><path class="cls-1" d="M410.91,137.9a1.82,1.82,0,0,1,.7,1.6c-3.89,1.43-8.21,3.62-12.24,4.27C399.69,142.22,410,137.19,410.91,137.9Z"/><path class="cls-1" d="M504.76,189.24a10.89,10.89,0,0,0,4.65-1.92c4.11-3.16,4.38-9.27,3.35-14.35-2.66-13.09-16-21.73-28.17-24.73-15.15-3.76-36.28-3.58-50.45,3.69-8.38,4.31-12.66,11.9-14.86,20.83-1.85,7.54-2.5,15.78.73,22.85,3.51,7.69,11.08,12.79,18.92,15.94,9.47,3.81,19.67,5.36,29.83,5.76,8.83.34,20.52,1.36,28.89-2,3-1.19,5.7-3.51,6.54-6.61s-.71-6.9-3.78-7.86c-1.82-.57-3.78-.12-5.69-.1-4.12,0-6.07-3.94-3.63-7.22C494.18,189.44,499.89,190.2,504.76,189.24Z"/><path class="cls-1" d="M481.31,199.92a5.6,5.6,0,0,0-8,.32c-1.16,1.21-2,3.39-1.23,5s2.39,1.77,3.81,1.8l3.83.07a3.72,3.72,0,0,0,2.28-.46c1.24-.86,1.59-3.18.89-4.76a3.92,3.92,0,0,0-3.58-2.41"/><path class="cls-1" d="M494.62,161h2.46c.2,1,.68,2.27.89,3.27a.55.55,0,0,1,.68.66L494,166.53a.82.82,0,0,1-.79,0c-.17-.14-.19-.39-.27-.6a1.51,1.51,0,0,0-1.85-.75,4.4,4.4,0,0,0-1.77,1.26,10.59,10.59,0,0,1,0-3.84,3.6,3.6,0,0,1,2.45-2.74C493,159.56,494.66,159.69,494.62,161Z"/><path class="cls-1" d="M474.17,152a4.41,4.41,0,0,1,3.95-1.61,24.86,24.86,0,0,0,2.24,3.15,3.44,3.44,0,0,1,.44,3.63,5.53,5.53,0,0,0-3-.14,1.91,1.91,0,0,0-1.32,2.37q-3-1.55-6-3.07l2.16.28c.66-.69-.61-1.68-.62-2.63s1.17-1.39,2.12-1.56"/><path class="cls-1" d="M454.87,155.64a54.23,54.23,0,0,0-3,6.38c.84-.11,2,0,2.11.86.07.68-.66,1.12-1.29,1.39-2,.86-4.46,1.68-6.23.4a4.33,4.33,0,0,0-.86-.59c-.74-.3-1.66.12-2.34-.3a1.5,1.5,0,0,1-.41-1.89,5.51,5.51,0,0,1,1.33-1.5c-6.32-6.63,9.27-12.49,8.77-5A9,9,0,0,0,454.87,155.64Z"/><path class="cls-1" d="M435.67,178.23a1.4,1.4,0,0,1-.69.74l-2.26,1.44a2.26,2.26,0,0,1,3,2.41,3.24,3.24,0,0,1-1.69,1.95,6.41,6.41,0,0,1-5.52.32,5.49,5.49,0,0,0-1.4-.5,1.19,1.19,0,0,0-1.26.59c-1-.86-.94-4.66-1.49-6-.44-1.07-2.33-2.58.4-3.74,1.41-.6,2.69.8,4,.82,2.21,0,2.47-.79,3.92-2.38C433.41,174.63,436,177.09,435.67,178.23Z"/><path class="cls-1" d="M449.37,197.51a4.51,4.51,0,0,1,.69,2.72,2.11,2.11,0,0,1-1.82,1.89,1.66,1.66,0,0,1,1.49,2.53,2.9,2.9,0,0,1-1.57.83,16.62,16.62,0,0,1-4.8.54c-.69,0-1.54-.22-1.72-.89-.21.72-1.39.5-1.77-.15s-.35-1.47-.7-2.14a2.17,2.17,0,0,0-2.15-1.14c-.2-2.38,3.39-6,5.43-6.92,1.69-.81,2.38-.27,3.74.76C446.07,195.46,449.87,198.42,449.37,197.51Z"/><rect class="cls-2" width="525" height="600"/><path class="cls-1" d="M391,124.27a149.62,149.62,0,0,0,15.9-5.06"/><path class="cls-1" d="M387.5,111a61.05,61.05,0,0,0,16.74-3.14"/></g></g></svg>