<svg xmlns="http://www.w3.org/2000/svg" viewBox="0 0 525 600"><defs><style>.cls-1,.cls-2{fill:none;}.cls-1{stroke:#fff;stroke-linecap:round;stroke-linejoin:round;stroke-width:2px;}</style></defs><title>mateusz2</title><g id="Warstwa_2" data-name="Warstwa 2"><g id="Warstwa_1-2" data-name="Warstwa 1"><g id="Warstwa_1-2-2" data-name="Warstwa 1-2"><path class="cls-1" d="M202.5,113c-.07,2.21,2.22,3.67,4.25,4.55,15.78,6.82,33.57,6.62,50.76,6.31,10.83-.2,21.81-.42,32.24-3.33a64.22,64.22,0,0,0,27.63-16"/><path class="cls-1" d="M201.91,114l2.6-9a123.08,123.08,0,0,0,91,3.13c6.59-2.4,13.24-5.57,17.48-11.16l.47,6.87"/><path class="cls-1" d="M317.17,98.21c1.17-.74-1.91-.84-1.37.44s2.35,1.51,3.14,2.65c3.45,4.94,10.82,5.3,15.17,9.47,4.19,4,4.62,10.42,5.09,16.19,2,24.43,10.67,49.74,29.93,64.9,6.44,5.07,13.9,8.89,19.66,14.72a38.81,38.81,0,0,1,10,35.37,15.56,15.56,0,0,0-16.19-2.76c5-6.72,2-16.7-3.73-22.83s-13.5-9.85-20-15.14c-12.17-9.9-19.22-24.89-23.06-40.11s-4.83-31-7.16-46.5c-.42-2.8-1-5.89-3.32-7.59a31.57,31.57,0,0,1-9.87-12.35"/><path class="cls-1" d="M319.92,95.15c5,3.4,10.8,5.59,16,8.69s10.14,7.46,11.86,13.29a54.44,54.44,0,0,1,1.22,8,38,38,0,0,0,49,31.06,49.16,49.16,0,0,1-13.3,20.53,4.13,4.13,0,0,1-2,1.21,4.23,4.23,0,0,1-2.84-1,99,99,0,0,1-43.53-68.09"/><path class="cls-1" d="M113.41,402.58a36.9,36.9,0,0,1,8.95-13.14l.42,14.79,9.74-10.44a28.87,28.87,0,0,0,4.34,11.12l8.34-9.78a126.23,126.23,0,0,1,2,17.58l6-3"/><path class="cls-1" d="M374.48,423a37.48,37.48,0,0,1,3.61-17.16,130.23,130.23,0,0,0,8.54,14l5.52-11a37.62,37.62,0,0,1,6.89,9.73,80.73,80.73,0,0,0,5.54-13.29,39.94,39.94,0,0,0,9.85,10.29,64.84,64.84,0,0,0,4.17-13,170,170,0,0,0,8.74,14.73,42.41,42.41,0,0,1,4.49-13.18,28,28,0,0,1,3.82,8.62"/><path class="cls-1" d="M378,103l65.14,78.67-47.78-84.5,55.37,61.29L400.42,68.83,470,150.77,429.4,72.48,457,105.86a149.4,149.4,0,0,0-8.63-28.6l19.06,22.47A324.48,324.48,0,0,0,452.6,57.39l24.5,26a365,365,0,0,0-18.7-62.47,379.58,379.58,0,0,0,59.49,73.63,503.71,503.71,0,0,0-41.21-76.81l35.43,39.09a98,98,0,0,0-8-27.45l3.15,6.77"/><path class="cls-1" d="M439.06,235.2l.86-5L431.63,286A326.06,326.06,0,0,1,461,217.8l-20.21,88.85a579.23,579.23,0,0,1,30.37-67.52L443.61,343.88a261,261,0,0,1,36.27-75.48L451.32,383.51l27.86-75.71c2.3-6.25,4.83-12.82,10-17l-26,113.1L500,320.1c-.83,22.09-6.29,43.71-11.73,65.14l23.55-40.56a408,408,0,0,1-8.2,45.54l-.63-9.09"/><path class="cls-1" d="M161.44,137.84l-30.66,70.07c-1.37,3.13-4,6.88-7.24,5.83,1.53-19.53,8.63-38.14,15.66-56.42l17.68-46c-11.55,6-18.85,17.67-25.58,28.81L93.59,202.56c1-13.6,6.37-26.46,11.65-39L138.2,85c-10,6.85-16.61,17.61-22.87,28L66,195.33c-3.59-1-3-6.23-1.61-9.68L117.21,55,46.52,150.88c12-43.4,43.79-79.54,54.36-123.32l-66.1,80.72c-1.54-7.23,1.74-14.52,4.93-21.19L65,34.42,22.1,82.92A147.85,147.85,0,0,1,49.31,24a376.94,376.94,0,0,0-30,37.61"/><path class="cls-1" d="M115.43,257.63a52.63,52.63,0,0,0,.49,24.46l-11.23-33.62A357.06,357.06,0,0,0,108.1,310a397.73,397.73,0,0,1-21.6-60.19l12.12,78a652.66,652.66,0,0,1-27-83c-3,13.63-1,27.81,1,41.62l15,103-28.2-77.85c-6.62-18.27-13.48-37-26-51.79l26,154.76a491,491,0,0,1-35.13-115C20,335.41,27.91,371.48,35.8,406.73L10.09,337.8A676.79,676.79,0,0,0,23.52,440.48C17,426.71,12,412.26,7,397.84a57.66,57.66,0,0,0,2.39,24"/><path class="cls-1" d="M197.77,84.54q4.24-7.65,8.36-15.38L169.31,96.87c.71-3.27,2.54-6.16,4.33-9l32.81-51.43c-1.64-2.37-5.33-1.14-7.75.42-15.7,10.21-27.94,25.6-44.91,33.5-.52-6.39,4.45-11.73,8.77-16.48a141.94,141.94,0,0,0,22-32.24c-16.36,6-27.28,21.92-43.23,28.88q12.88-19.08,27.05-37.25l-26.76,17A48.8,48.8,0,0,1,154.54,11"/><path class="cls-1" d="M311.82,74.47,293.07,53.69a134.51,134.51,0,0,0,33.82,22.19,294.55,294.55,0,0,0-19.36-41.8,201.16,201.16,0,0,0,55,45.58Q347.42,40.5,328.63,2.89l46.84,62A197.3,197.3,0,0,0,361.25,19l5.92,9.56"/><path class="cls-1" d="M331.72,447.87A32.57,32.57,0,0,0,365,451.51c.67-.32,1.45-.91,1.24-1.62s-1.59.16-.88.41"/><path class="cls-1" d="M334.88,435.67a34.46,34.46,0,0,0,28.92-1.59c.44-.24,1-.63.84-1.12s-1.12-.14-.73.19"/><path class="cls-1" d="M328.53,424.85l1.32.58"/><path class="cls-1" d="M333.9,427c-.53-.31-.1-1.33.5-1.17"/><path class="cls-1" d="M337.34,424.8a3.55,3.55,0,0,0,.15,3.09,2,2,0,0,0,1-2.5"/><path class="cls-1" d="M346.34,425.6l-1,.37"/><path class="cls-1" d="M353.73,424.92l1-.37"/><path class="cls-1" d="M355.64,424.18l1.9-.74"/><path class="cls-1" d="M362.3,421.6"/><path class="cls-1" d="M368.19,450.17c9.69,16.93,19.46,34,25.26,52.66s7.38,39.17.64,57.48-22.86,33.8-42.21,36.28c-6.74.86-13.6.18-20.3-1-9.68-1.69-19.43-4.5-27.27-10.41s-13.53-15.4-12.77-25.2c1-12.68,12.16-24.09,9.17-36.45-.51-2.12-1.63-4.32-3.66-5.11-2.81-1.1-5.82.94-8.83,1.17-7.57.58-11-10.52-7.14-17.08s11.23-10,17.16-14.69c13.78-11,19.31-29.12,24.11-46.1a87.45,87.45,0,0,0,45.24,10.89,22.18,22.18,0,0,0-5.4-19.19,34.24,34.24,0,0,1-35.73,1.71L322,449.54"/><path class="cls-1" d="M294.45,568.35l3.68,5.74-3.73-8.59a21.73,21.73,0,0,0,8.92,11.94,52.68,52.68,0,0,0-8.46-15l14.32,17.73a84.09,84.09,0,0,0-12.29-19A58.45,58.45,0,0,0,314,579.52l-14.22-18a121.09,121.09,0,0,0,17.49,19.35,295.79,295.79,0,0,0-15.77-26.09,112,112,0,0,0,19.7,24.47,286.17,286.17,0,0,0-18.59-28.67,109,109,0,0,0,25.76,29.07L304,545a206.49,206.49,0,0,0,32.15,37.43L307,542.26a146.38,146.38,0,0,0,36.78,40.88q-14.6-23.07-30-45.64a177.16,177.16,0,0,0,31.75,39.39q-15.59-25.06-32.94-49a223.15,223.15,0,0,0,38.13,52.35l-41.64-62.49a542.41,542.41,0,0,0,45.6,61.56q-20.52-33.78-43-66.31a450,450,0,0,0,48.74,62.21l-45.59-67.46A573.3,573.3,0,0,0,362.34,568q-20.7-33.09-43.78-64.6a676.9,676.9,0,0,0,43.75,59.71L320.52,500.3a343,343,0,0,0,42.82,57.54Q344.68,524.39,323,492.72c15.47,24,31.13,48.16,51.7,67.91a700.15,700.15,0,0,0-44.26-67.27,674.7,674.7,0,0,0,41.87,61.19q-20.81-35-44-68.44A631.21,631.21,0,0,0,371.22,546a699.14,699.14,0,0,0-39.36-67.24A325,325,0,0,0,374.78,545,734.69,734.69,0,0,0,330,473.47a549.92,549.92,0,0,0,42.21,57.87,557.64,557.64,0,0,0-36.64-62.59,555.43,555.43,0,0,0,43.31,61.72,519.27,519.27,0,0,0-35.28-64,253.56,253.56,0,0,0,33,53.86,306.69,306.69,0,0,0-29-50.79,200.88,200.88,0,0,0,31.85,48,325.81,325.81,0,0,0-30.3-51.46A280.61,280.61,0,0,0,387,520.26a298.06,298.06,0,0,0-37.93-61.78,210.6,210.6,0,0,0,36.07,51,265.43,265.43,0,0,0-27.87-47.63,142.2,142.2,0,0,0,24.55,32.59,208.12,208.12,0,0,0-24.72-41.52l14.11,21.52a122.3,122.3,0,0,0-17.79-27.74,94.06,94.06,0,0,0,13,21.21,54,54,0,0,0-10.72-20.57,40,40,0,0,0,9.3,13.83,48,48,0,0,0-8.86-17.42L362,457.22a23.53,23.53,0,0,0-2.25-11.2l3.52,9.14"/><path class="cls-1" d="M322.82,458.88a69.21,69.21,0,0,0,10.3,12.39,81.49,81.49,0,0,0-7.91-18.8l12.45,17.81A55,55,0,0,0,329.39,450l11.29,18.13a109,109,0,0,0-10-23.46,73.66,73.66,0,0,0,11.7,20.45,136.8,136.8,0,0,0-7-19.71,55.84,55.84,0,0,0,12.56,21.11,51.65,51.65,0,0,0-11.07-23.32,58.33,58.33,0,0,0,13,22.46A48,48,0,0,0,340.53,445,51.33,51.33,0,0,0,354,461.64a45.83,45.83,0,0,0-8.49-17.83,40.29,40.29,0,0,0,12.17,16.41,37.67,37.67,0,0,0-6-16.07,48.48,48.48,0,0,0,10.2,16.76,27.81,27.81,0,0,0-5.21-14.53l10.61,15.76a7.11,7.11,0,0,0-2-4.46"/><path class="cls-1" d="M284.67,506.46l1.85,4.69L285,507.87a10.07,10.07,0,0,0,.59,4.29l-.83-8.74,7.35,8.66-4.82-13.49,8.33,11a26.13,26.13,0,0,0-3.06-11,68,68,0,0,0,13.93,17.69q-4.48-9.94-9.88-19.42a245.28,245.28,0,0,1,16.16,22.27,141,141,0,0,0-12-27.1,129.81,129.81,0,0,0,16.51,21.59Q312,500,305.42,486.91a136.51,136.51,0,0,0,13.42,19.15A170.52,170.52,0,0,0,311,483.87a53,53,0,0,0,15,17.54q-6-13.27-13-26.06a87.47,87.47,0,0,0,13.86,16,72.54,72.54,0,0,0-9.48-22.64A126.75,126.75,0,0,0,332,487.46a52.81,52.81,0,0,0-9.73-24.5,56.39,56.39,0,0,0,13,17.29,13.9,13.9,0,0,0-4.09-11.54"/><path class="cls-1" d="M338,584.33l-.63-4.88,7.19,8.59-3.49-16.45a67.52,67.52,0,0,1,8.81,12.72L345.3,566.1l10.81,15a47.16,47.16,0,0,0-4.66-14.86l10.08,16.56a133.63,133.63,0,0,0-8.17-23.33,89.69,89.69,0,0,0,13.79,24.15,131.63,131.63,0,0,0-9.58-26.84l12.64,19.06-12-29.14,11.46,20.65a124.33,124.33,0,0,1-9.37-27.25L373.84,564l-8.6-26.85,14.68,28-9-31.79a73.3,73.3,0,0,1,11.26,21.54l-11.33-30.26A162.4,162.4,0,0,0,384,546.86l-12.84-35.29,14.19,21.84-12.86-31.78,16,25.63a190,190,0,0,0-10.23-31.52l12.38,23A187.73,187.73,0,0,0,382,495.25a46.76,46.76,0,0,0,6.67,12.57q-4.59-12-9.91-23.65"/><path class="cls-1" d="M312.31,585a3.91,3.91,0,1,0,.24-1.09,14.77,14.77,0,0,0,4.6,6.19,20.37,20.37,0,0,0-.77-8l6,9.44a39.07,39.07,0,0,0-3-14L330.74,593l-5.17-16,11.5,16a33.72,33.72,0,0,0-4-15.24,54.25,54.25,0,0,0,12.76,16.88,72.39,72.39,0,0,0-4.63-18.12l10,13.47a32.08,32.08,0,0,0-3.74-14.64,106.33,106.33,0,0,0,11,14.65,69.73,69.73,0,0,0-4.3-15.09,40.52,40.52,0,0,0,8.41,9.11,58.47,58.47,0,0,0-4.22-14.58A31.36,31.36,0,0,0,368,582.26,63.1,63.1,0,0,0,363.47,568a25.59,25.59,0,0,0,8,8.65l-5.87-17.82a38.66,38.66,0,0,1,10.31,12.4,106.57,106.57,0,0,0-6.41-23.86,33.12,33.12,0,0,0,10.75,15.76A66,66,0,0,0,375.86,549a32,32,0,0,0,8.26,11l-6.39-23.29,10.46,14.16a133.65,133.65,0,0,0-5.54-23.54l8,11.6a118.64,118.64,0,0,0-3.86-19,10.47,10.47,0,0,1,5,5.93l-7.41-22"/><path class="cls-1" d="M184.71,532"/><path class="cls-1" d="M253.3,394.45a43.18,43.18,0,0,0,40,10.32"/><path class="cls-1" d="M249.69,395.65l-35.63,61.28c-11.18,19.23-22.42,38.59-30,59.52-6,16.54-9.11,36.25.89,50.72,3.89,5.63,9.49,9.93,15.54,13.14,24.24,12.87,56.84,7.28,75.43-12.91,7.49-8.15,12.92-19.47,10.1-30.17-2.28-8.66-9.5-15.35-11.84-24-1.2-4.45-1-9.13-.85-13.74.14-3.52.77-7.78,4-9.11,4.89-2,8.84,4.62,13.86,6.24,6.7,2.15,12.88-5.68,12.9-12.72s-3.54-13.57-4.85-20.48c-1.23-6.51-.45-13.2-.15-19.82a133.05,133.05,0,0,0-5-42.48"/><path class="cls-1" d="M187.08,541.1l6.14,16.06a64,64,0,0,1-8.6-22.5l9.68,29.26a164.66,164.66,0,0,1-14.9-24.27L194,561.22a239.35,239.35,0,0,1-8.54-33l15.22,36c-3.47-4.21-4.81-9.73-6-15L186.88,516A151.09,151.09,0,0,0,207,567.36,377.86,377.86,0,0,0,188,511c5.83,6.51,7.86,15.45,10.48,23.79a139.63,139.63,0,0,0,19.21,38.69c-4.67-2-6.58-7.48-8-12.37-5.62-19.43-11.25-38.88-15.19-58.72a293.49,293.49,0,0,0,31.14,70c-11.1-22.45-19.36-46.18-27.6-69.83,8.67,22.7,18.29,45.69,34.76,63.55A278.07,278.07,0,0,0,211,525"/><path class="cls-1" d="M203.07,502.43a190.09,190.09,0,0,0,39.09,65.29A402.35,402.35,0,0,1,204,491.59a503.4,503.4,0,0,0,45,79.22c-11.36-15.53-18.83-33.51-26.18-51.3l-14.5-35.06a214.65,214.65,0,0,0,45.89,77.88,628.39,628.39,0,0,1-42.23-79,217.09,217.09,0,0,0,45.84,72.91A431.69,431.69,0,0,1,209.64,474c17.5,29.74,35.2,59.75,58.81,84.92a616.43,616.43,0,0,1-52.61-83.78,315,315,0,0,0,55.72,75.23,623.38,623.38,0,0,0-50.31-78.61A583,583,0,0,0,277.08,550L221.7,468.86c14.71,22.18,29.53,44.5,48.13,63.53a410.61,410.61,0,0,1-46.91-76.19,371.43,371.43,0,0,0,41,63.81,277,277,0,0,1-36.07-80.11,200.18,200.18,0,0,0,37.7,66.83,216.76,216.76,0,0,1-32.06-67.94,258.41,258.41,0,0,0,29.87,51.91,392.77,392.77,0,0,1-26.49-56.89A198.37,198.37,0,0,0,271.07,487L241.7,428.5l31.66,53.65A428.09,428.09,0,0,1,247,416.53a194.47,194.47,0,0,0,32.48,59.32,367.53,367.53,0,0,1-22.6-50.75,199.8,199.8,0,0,0,33.06,59.09Q277.83,455,263.1,427.09A115.26,115.26,0,0,0,282.74,461l-19.86-43.3a177.06,177.06,0,0,0,24.4,42.3,164.45,164.45,0,0,0-16-39.68,102.29,102.29,0,0,0,16,27.27,285.49,285.49,0,0,0-11.46-31.81L291,441.66a83.23,83.23,0,0,0-7.25-21.26,63.74,63.74,0,0,0,10,16.4,53.66,53.66,0,0,0-8.16-20.74,26.55,26.55,0,0,0,5.82,11.75,44.18,44.18,0,0,0-4.7-12.83l4.51,6.89c1.28-1.08.52-3.16-.43-4.54s-2-3.18-1.11-4.58,3.61,1,2,1.43"/><path class="cls-1" d="M198.35,557.14a43.78,43.78,0,0,0,14.82,15.37l-3.28-8.38,14.78,10a17,17,0,0,1-2.75-8.15,40.75,40.75,0,0,0,12.33,9.46,137.47,137.47,0,0,0-6.69-19.2,41.69,41.69,0,0,0,10.82,13.46,14.33,14.33,0,0,0-3.27-11,53.24,53.24,0,0,0,14.53,14.41,68.33,68.33,0,0,0-4.37-15.24A81,81,0,0,1,257.72,571a37,37,0,0,0-5.15-23.89,82.79,82.79,0,0,0,10.84,15.19,52.42,52.42,0,0,0-5.6-21l11.45,18.41a79.78,79.78,0,0,0-7-22.53L276,558.5a51.35,51.35,0,0,0-8.26-24.64l8.14,10.73a39.7,39.7,0,0,0-4.27-15.11,47.34,47.34,0,0,0,6.18,8.69,13,13,0,0,0-1.43-8.91"/><path class="cls-1" d="M239,431.38l2.22,6.54L240.46,418l6.35,18.33a188.32,188.32,0,0,0-2.57-30.19l5.68,18.52a25.27,25.27,0,0,0-.91-16.43,207.62,207.62,0,0,0,9.55,19,58.88,58.88,0,0,0-2.79-22,40.86,40.86,0,0,0,7.41,16.59,42.53,42.53,0,0,0-1-14.85,69.82,69.82,0,0,0,6.08,14.67,30.65,30.65,0,0,0-1.51-16.88,32.83,32.83,0,0,0,5.58,13.71,23.1,23.1,0,0,0-.1-11.08L278,419.8a34.07,34.07,0,0,0-.18-12.7,36.19,36.19,0,0,0,7.38,10.57,12.24,12.24,0,0,0,1.51-7.12l6.12,9.21"/><path class="cls-1" d="M211.34,495.16a83.42,83.42,0,0,0-2.83-23.32L214.13,489a103.13,103.13,0,0,0-1.41-20.29L220.31,484,218,454.31l7.79,30.25a193.4,193.4,0,0,0-3.08-37.93,247.62,247.62,0,0,0,9.13,32.3,98.56,98.56,0,0,0-.14-29.62l4.65,19.39a33.83,33.83,0,0,0-1.16-18.6"/><path class="cls-1" d="M191.91,563.08a14,14,0,0,0,2.06,7.43l.22-4.13,3.18,7.77a18.5,18.5,0,0,0-.41-7.1l5.79,10.52a10.22,10.22,0,0,0-.48-8.75,45.94,45.94,0,0,0,6.6,11.67,11.47,11.47,0,0,0-.64-8.1l6.67,8.83A10.81,10.81,0,0,0,213.49,571a21,21,0,0,0,8.87,10.62,13.06,13.06,0,0,0-2-8.4l10.11,14.36A18.08,18.08,0,0,0,228,571.76l8.39,10a20.78,20.78,0,0,0-1.65-11.7,26,26,0,0,0,9.83,11.66,99.13,99.13,0,0,0-2.08-16.36,27.56,27.56,0,0,0,7.12,13.47l-.66-14.28a39.37,39.37,0,0,0,5.94,12.1,23.69,23.69,0,0,0-.09-16.2l5.53,9.12a135.92,135.92,0,0,0,1.24-16.74A56.66,56.66,0,0,0,267,567a50.46,50.46,0,0,0-1.87-23.72,21.82,21.82,0,0,0,5.68,12.33,22.7,22.7,0,0,0-.86-12.4,35.92,35.92,0,0,0,6.19,11.42,55.63,55.63,0,0,0-.67-15.77l5.67,12.76a90.7,90.7,0,0,0-3.41-20l3.4,6.67"/><path class="cls-1" d="M333.58,429.34q-2-86.9.91-173.83"/><path class="cls-1" d="M257.82,392.48a755.93,755.93,0,0,1,60-128.82c3.84-6.55,7.89-13.18,13.73-18"/><path class="cls-1" d="M338.16,260.84l10.73-4.31c3.7-1.49,8.1-2.93,11.48-.81,3.91,2.45,3.81,8.8.49,12s-8.61,3.59-13,2.15-8.07-4.41-11.65-7.31"/><path class="cls-1" d="M330.26,264.31A28.88,28.88,0,0,0,310,254.52c-2.87-.12-6.22.47-7.61,3-1.29,2.33-.19,5.45,1.91,7.08a11.37,11.37,0,0,0,7.58,1.9,22.61,22.61,0,0,0,12.65-4.69"/><path class="cls-1" d="M338,267.12a173.25,173.25,0,0,1,16.15,70.32"/><path class="cls-1" d="M331.36,267a213.76,213.76,0,0,1-21.65,65.76"/><rect class="cls-2" width="525" height="600"/></g></g></g></svg>