<svg xmlns="http://www.w3.org/2000/svg" viewBox="0 0 525.5 600.5"><defs><style>.cls-1,.cls-2{fill:none;stroke:#fff;}.cls-1{stroke-linecap:round;stroke-linejoin:round;stroke-width:2px;}.cls-2{stroke-miterlimit:10;stroke-width:0.5px;}</style></defs><title>michal2</title><g id="Warstwa_2" data-name="Warstwa 2"><g id="Warstwa_1-2" data-name="Warstwa 1"><g id="Warstwa_2-2" data-name="Warstwa 2"><g id="Warstwa_1-2-2" data-name="Warstwa 1-2"><path class="cls-1" d="M148.09,424.68c9.22,21.54,34.05,31.51,40.56,54.83,3.59,12.87,3.73,28.09,1,41.14-2.92,13.94-12.1,23.49-19.47,35.15a97.6,97.6,0,0,0-14.44,41.88"/><path class="cls-1" d="M374.1,479.71c-3,20.75-8,41.75-5,62.75,2,19,8,37,15.78,54.93"/><path class="cls-1" d="M139.62,597.92v-2.07l-.08,2.1"/><path class="cls-1" d="M142.36,597.42q-.06-2.43-.16-4.87l-.3,4.82"/><path class="cls-1" d="M140.77,597.32,142,580q-1.12,8.88-1.49,17.83"/><path class="cls-1" d="M145.22,597.71l.25-47.44-4.34,47.09"/><path class="cls-1" d="M153.91,497.42l-6.27-18a167.68,167.68,0,0,0,2.73,42.67,161.35,161.35,0,0,0-4.2-39l6,30a250.54,250.54,0,0,0-5-34.34,343.07,343.07,0,0,0,8.13,36.65,219.37,219.37,0,0,0-4.17-36.6,154.14,154.14,0,0,0,12.07,44.35,178.26,178.26,0,0,0-8.79-47.41,139.8,139.8,0,0,0,10.33,42.51,135.69,135.69,0,0,0-5.67-39.78A134.92,134.92,0,0,0,170,518.93a129.16,129.16,0,0,0-5.4-39.26l8,35.79a132.9,132.9,0,0,0-3.38-40l6.57,31.73a63.93,63.93,0,0,0-7.47-31.35,71.48,71.48,0,0,1-4.11,20,46.34,46.34,0,0,1-20.58-28.34L160.22,497a76,76,0,0,1-13.12-36l16.58,25.29A198.43,198.43,0,0,0,148,451.55a326.4,326.4,0,0,0,19.2,35.69q-9.75-20.43-21.16-40a348,348,0,0,0,23.18,31.33L150,444a120.35,120.35,0,0,0,19,26.87,131.86,131.86,0,0,0-21.07-34.52l23.75,30.94-17.47-19.91c12.93,12.5,29,29.4,25.19,49.08l-5.2-6.21a52.17,52.17,0,0,0-7.73,31l.79-27.63a141.71,141.71,0,0,0-7.38,30.87L166.2,505l-5.55,22.2,13.46-31.91L166.58,525a73.42,73.42,0,0,0,12.66-22.11,288,288,0,0,1-9,33.37L179,508.12,159.08,543l6.48-38.58a194.51,194.51,0,0,0-14.68,48.47l10.6-42.58A108.14,108.14,0,0,0,146,547.41a341.07,341.07,0,0,1,12.95-40,313.64,313.64,0,0,0-11.27,50,234.4,234.4,0,0,1,14.2-40.87l-13,43.2q9.28-21.65,20.27-42.51a190.94,190.94,0,0,1-5.42,29,115.83,115.83,0,0,1,10.93-35.07l2.23,16.64,2.93-26.18a28.47,28.47,0,0,1,2.53,12.21l.12-23.22,3.92,14.17A105.3,105.3,0,0,0,181.74,479l4.2,8.15-13.63-14.43c5.79,28.77,9.79,62.77-7.66,88.9A43.93,43.93,0,0,1,169,528a241.52,241.52,0,0,0-15,50.61,188.68,188.68,0,0,1,4.51-37.14L148.4,592l5.7-52.21q-4.86,28.9-7.84,58.08"/><path class="cls-1" d="M434.53,597.32l-.3-3.41"/><path class="cls-1" d="M430.08,597.53q.26-4.11.42-8.22,1.51,4,2.64,8.16"/><path class="cls-1" d="M424.54,597.9,426,580.61a154.73,154.73,0,0,0-.4,17"/><path class="cls-1" d="M417.44,597.52,420,577.1l1.67,20.78"/><path class="cls-1" d="M413.25,597.7a181.65,181.65,0,0,1,4.17-23.81l-.91,23.47"/><path class="cls-1" d="M382.84,499.12a158.52,158.52,0,0,0-1.08-22.45,72.79,72.79,0,0,0-9.07,27.76L381,485.11l-6.9,23.29,4.22-12.19-1.71,24A70.78,70.78,0,0,0,384.67,495a195,195,0,0,0-4.37,34,163.4,163.4,0,0,0,5.76-26.67,124.74,124.74,0,0,0-4,37.81,154.44,154.44,0,0,0,5.47-26.75l-1.69,27.39a157.72,157.72,0,0,1,3-24.87l-2.52,37.86,3.31-32a205.45,205.45,0,0,0-4.06,42.36l4.51-24.33-2.2,25.2,4.4-26.58-.65,34.86a283.78,283.78,0,0,1,6.16-34l-.17,38.21,3.88-35.77a411.32,411.32,0,0,1,1,47.52,208.11,208.11,0,0,1,4.18-34.62l.1,42.37L413,560q.84,18.74,0,37.51"/><path class="cls-1" d="M400.46,597.34q.36-1.89.63-3.8l.27,4.19"/><path class="cls-1" d="M390.68,597.32a64.05,64.05,0,0,1,2.19-12.4q.1,6.52.47,13"/><path class="cls-1" d="M383.4,558.65a76.18,76.18,0,0,0-.34,26.36,56.75,56.75,0,0,0,3.69-18.74l.94,24a25.93,25.93,0,0,1,1.33-9.16l1.28,16.74"/><path class="cls-1" d="M412.08,597.7l.3-2.06v2.08"/><path class="cls-1" d="M406.88,597.42l2.11-11V597.5"/><path class="cls-1" d="M401.45,597.5l3.57-23-.33,22.81"/><path class="cls-1" d="M383.44,517c-.5-1.84,2.25-1.48,3.08-.55,1.73,1.94-1.09,5.27-.73,7.57a22.84,22.84,0,0,1-4-11,70.29,70.29,0,0,0-3.49,18.34l-3.47-8.1a35.42,35.42,0,0,0,4.7,20L377.4,529.8l5.29,17.3a64.26,64.26,0,0,0-5.13-20.28,60.48,60.48,0,0,0,2,30.87,61.13,61.13,0,0,0-.68-33.14l3.73,22,.58-33.19a294.77,294.77,0,0,0,.51,35,170.55,170.55,0,0,0,3-31.7l.36,37.17A79,79,0,0,0,392.54,523l-1.07,31.25a141.25,141.25,0,0,0,2.77-27,262.61,262.61,0,0,0,2.55,49.79l2.36-16.91,1.71,37.28"/><path class="cls-1" d="M167.54,491.73l-2.7,10.38c-1.86,7.17-3.65,15.14-.16,21.68a81.12,81.12,0,0,0,6.91-17.07l.71,21a103.14,103.14,0,0,1,6-19,90.69,90.69,0,0,1-1.89,18.22,59.28,59.28,0,0,0,4.09-19.43l-3.36,21.72a72.76,72.76,0,0,0,4.21-18.41L179,527.14a32.46,32.46,0,0,0,4.64-15.06l-3.16,19.26a167,167,0,0,0,4.67-20.14,57.48,57.48,0,0,1-1.79,10.88,58.49,58.49,0,0,0,1.75-15.17l-1.75,12.19a51.82,51.82,0,0,0-1.1-23.49,17,17,0,0,0-.87,8.43,159,159,0,0,1-3.77-25.2,129.78,129.78,0,0,0-2.06,23.4,274.63,274.63,0,0,0-7.34-26.86,145.45,145.45,0,0,0,1.15,27.45l-7.47-27.55,4.22,24.33a149.63,149.63,0,0,0-8.93-29.41l3.08,24.3L150,466.34a179,179,0,0,0,3.24,24.59l-4-24.36a171.5,171.5,0,0,0,3,21.56q-.4-19.13-1.68-38.13a71.51,71.51,0,0,0,13.35,12.74q-4.55-6.48-9.63-12.56a55.88,55.88,0,0,1,20.91,9.58,94.28,94.28,0,0,1-13.32-12.15,235.4,235.4,0,0,1,20.33,28.86L170,459.65a166.89,166.89,0,0,1,12,25.26,9.71,9.71,0,0,0-4.38-7.76l-2.73,8"/><path class="cls-1" d="M151.73,577.16a37.92,37.92,0,0,1,8.36-28.91l-4.15,20.55a134.43,134.43,0,0,0,12.55-26.86l-4.7,10.58A131.37,131.37,0,0,1,177,528.89a241.9,241.9,0,0,0-19.8,49.91,29.12,29.12,0,0,1,1.55-10.55,100.89,100.89,0,0,0-6.63,29.52"/><path class="cls-1" d="M420.5,175.25A222.11,222.11,0,0,1,426.33,210a17.09,17.09,0,0,0,1.47,6.68c1.62,3,5,4.76,8.45,5.22s6.86-.16,10.24-.78c5.06-.92,10.58-2.11,13.76-6.16,2.62-3.33,3-8,2.28-12.13s-2.48-8.09-3.77-12.13A58.48,58.48,0,0,1,456,170.64a57.34,57.34,0,0,0-15.9,1.55c-1.58.38-3.28.93-4.15,2.29-.76,1.18-.73,2.74-1.52,3.9a3.23,3.23,0,1,1-4.47-4.51c-2.94-2.52-8.33,2.13-11.07-.61-1.48-1.48-.75-4.19.91-5.46s3.87-1.5,6-1.67c-2.58-2.47-1.85-7.37,1.25-9.15a6.59,6.59,0,0,1,8.83,3l.09.18a4.54,4.54,0,1,1,8.35,1.82,3.26,3.26,0,1,1,5.5,3c1.57-1.57,4.44-2.08,5.93-.44s-.36,5-2.38,4.13"/><path class="cls-1" d="M459.77,175.92,456.43,177c3.21-1.49,7.3-2.89,10-.61a9.08,9.08,0,0,1,2.48,4.78c1.33,4.54,2.67,9.27,1.85,13.93s-4.51,9.17-9.24,9.26"/><path class="cls-1" d="M337.72,294a13,13,0,0,0,.38-11,9.42,9.42,0,0,0-9.16-5.48c-3.77.43-7,4.11-6.51,7.87.59,4.23,5.22,7.28,5.15,11.55-4-3.07-10.4-2.77-13.82,1s-2.92,10.49,1.25,13.36,11,.54,12.16-4.39c-1.72,2.62-3.48,5.34-4,8.43s.65,6.67,3.46,8a7.37,7.37,0,0,0,4.21.55c6.66-.89,11.17-9.1,8.36-15.2-.09,2.1,2,3.54,3.88,4.51,3.61,1.88,7.74,3.67,11.63,2.46s6.17-7,2.91-9.45a8.46,8.46,0,0,0-3.64-1.26l-11.14-2a17.47,17.47,0,0,0,9-5.77c1.41-1.71,2.52-4,1.92-6.09-.68-2.42-3.3-3.76-5.77-4.22-5.65-1.07-12.76,2.5-12.53,8.25"/><path class="cls-1" d="M101.66,90.26c3.58-2.29,3.86-7.89,1.28-11.27s-7.14-4.72-11.39-4.57a21.13,21.13,0,0,0-18.6,13.14,11.77,11.77,0,0,0-.69,7.18c1.25,4.64,6.36,7.3,11.16,7.58s9.49-1.23,14.21-2.13,9.94-1.08,14,1.54c6.08,3.94,6.9,13.27,2.94,19.33s-11.38,9.12-18.6,9.73c-4.44.37-9.23-.16-12.71-2.94s-5-8.33-2.23-11.84"/><path class="cls-1" d="M75.11,62.7a767.13,767.13,0,0,1,23.68,75.12c.13.52.35,1.12.87,1.25s.94-.81.41-.9"/><path class="cls-1" d="M82.54,52.48a699.94,699.94,0,0,1,28.12,99.93l-1.25-7.87"/><path class="cls-1" d="M287.24,181l25-35.38a2.55,2.55,0,0,1,1.51-1.25c1-.15,1.76.88,2.25,1.78l13.94,25.59,11.8-14.5a340.7,340.7,0,0,1,28.1,35.07"/><path class="cls-1" d="M404.91,281.17A94.24,94.24,0,0,1,410,258.74l12.35,18.8a123.94,123.94,0,0,1,15.48-30.72A349,349,0,0,1,451.7,280q4.47-10.67,9.87-20.92a153.74,153.74,0,0,1,2.84,30.42q-26.61-1.55-53.09-4.8c-2.16-.27-5-1.44-4.53-3.56"/><path class="cls-1" d="M409.65,247.72l-.93-.93"/><path class="cls-1" d="M433.82,234.7h0"/><path class="cls-1" d="M461.71,249.58v-.93"/><path class="cls-1" d="M454,477a170.61,170.61,0,0,1-5.18,34.52c-1.32,5-3.64,10.33-2.85,15.6.73,4.88,4.45,8.18,8.59,10.42,7.43,4,17,6.4,24.81,2,8.56-4.81,11.28-15.28,12.22-24.34.6-5.8.83-11.64,1.42-17.45.52-5.13,2.23-13-1.4-17.31"/><path class="cls-1" d="M490.85,465.71c3-2.7,7.28-.15,8.09,3.25,1.1,4.62-2.21,8.56-5.3,11.53"/><path class="cls-1" d="M454.07,461.47c.13-7.08,10.08-9.16,12.74-2.46-1.45-3.55-.55-12.42,4.48-13,5.22-.59,6.11,7.68,5.47,11.07-1.63-2.27.87-2.09,0,0-2.1-3.07,2.76-5.17,5.08-3.59,2.66,1.81,2.47,5.66,1.82,8.42a4.6,4.6,0,0,1,6.57-2.89c2.37,1.43,2.52,5.13.59,7"/><path class="cls-1" d="M453.91,479.26c-4.41-.84-9-4.21-9.18-9-.14-4,3.5-7.89,7.67-6.89"/><path class="cls-1" d="M476.68,483.28c.62,2.79-1.09,5.09-1.22,7.8-.14,3,2.93,5.13,4.91,2.08,1.75-2.69-1.67-5.64,2.66-6.79,1.09-.29,7.9-1.56,5.11-4.14l4-1.34"/><path class="cls-1" d="M466.09,483.21c-.4,1.47.68,2.2,2,2.09a4.8,4.8,0,0,0,3.14-2.09"/><path class="cls-1" d="M453.16,476.16c.23,5.86,6.43,3.38,9.45,2.73"/><path class="cls-1" d="M491.67,494c2.08-4.55,9.58-5.07,12.27-.85,1.53,2.39,1.46,5.43,1.34,8.27l-.38,9.38c-.15,3.75-.43,7.83-2.93,10.64s-8,2.94-9.36-.58"/><path class="cls-1" d="M87.18,244c-1.25-11-10.65-19-18.66-26.74C56.06,205.25,45.43,191.09,39,175s-8.4-34.15-3.94-50.87A23,23,0,0,1,31,149.25a28.79,28.79,0,0,1-11.39-19.43A29.59,29.59,0,0,1,32.07,153.6,30.25,30.25,0,0,1,44,140.66c.41,8.16-3.64,16.75-10.94,20.41s-17.52,1.07-21.13-6.25c12.19-1.58,24.86,7.06,27.84,19A16.76,16.76,0,0,1,44,157.41a28.71,28.71,0,0,1-1.39,22.31A28.86,28.86,0,0,0,23,175.66l26.16,12.66a15.62,15.62,0,0,1,4-12,195.21,195.21,0,0,1,.19,23,20.49,20.49,0,0,0-14.8.84A25,25,0,0,0,57.9,207a5.47,5.47,0,0,0,2.87-.86c2.65-2,.81-6.74,3-9.18l4.86,13.39c.45,1.23.88,2.63.29,3.8a4.84,4.84,0,0,1-3,2L51.79,221l23.06,2.66a33.75,33.75,0,0,1,5.07-11.16,35,35,0,0,1,2.4,18.5"/><path class="cls-1" d="M455.37,404c-1.43-12.51,4.45-24.54,9.76-36q9-19.26,16.31-39.21c2.79-7.57,5.44-15.59,4.21-23.56s-6.13-14.75-10.89-21.22a20.51,20.51,0,0,1,9.52,17.47c1.15-6.83,9.08-11.62,15.66-9.48a40.1,40.1,0,0,1-10,16.57,7.58,7.58,0,0,1-4.21,2.53c-1.92.22-3.73-.9-5.22-2.12a28.22,28.22,0,0,1-8.57-12.11c9.15,2.45,15.46,12.67,13.54,22a14.48,14.48,0,0,1,17.42-3.57,26.37,26.37,0,0,1-15.82,11.92,5.43,5.43,0,0,1-3.56,0c-1.6-.72-2.23-2.59-3-4.17a15.62,15.62,0,0,0-11-8.49,16.63,16.63,0,0,0,11.79,18.08c3.6.94,7.43.61,11.08,1.36s7.45,3.11,8,6.79c-5.83-1.72-11.46,4.93-17.45,3.86-7.68-1.37-9.49-13.87-17.24-14.69-.6,4.86-1,10.37,2.2,14.06s8.76,4,13.62,4.78,10.48,3.25,11,8.14c-5.82,3-13,.3-18.2-3.72s-9.36-9.33-15.07-12.54c-.66,7-.14,15.92,6.43,18.32,2.34.85,4.93.57,7.39,1a13,13,0,0,1,10.36,11.64,62.5,62.5,0,0,1-31-17.7c-3.85,5.72,1.94,13.25,8.13,16.3s13.77,4.86,17.15,10.87a2.89,2.89,0,0,1,.48,2c-.46,2-3.41,1.41-5.16.4l-25.93-15c1,12.71,20.42,15.53,25,27.43l-12.55-8.37"/><path class="cls-1" d="M374.24,14.81C371.69,9.44,365,6.91,359.12,8S348.41,13.33,345,18.21a33.23,33.23,0,0,0-5.71,24,28.48,28.48,0,0,0,13.88,20.14,16.37,16.37,0,0,0,6.7,2.18c4.61.32,9.08-2.12,12.27-5.47s5.32-7.54,7.41-11.67c-3.29,4.49-10.33,5.07-15,2.07s-7.12-8.72-7.37-14.28a16.58,16.58,0,0,1,2.74-10.51c2.17-3,6-4.93,9.59-4.28s6.66,4.31,6,7.94c1.1-5.27,1.62-12-3-14.8"/><path class="cls-1" d="M50.46,16.94A8.46,8.46,0,0,0,38.8,18,8.68,8.68,0,0,0,40,29.69c2.28,1.88,5.34,2.43,8.25,2.92L69.5,36.18c.82-5,1.65-10,1.26-15S68.61,11.09,65,7.62c-2.71-2.59-7.43-4-10-1.24-2.36,2.49-1.32,6.53-.13,9.75"/><path class="cls-1" d="M98.32,426.75a18,18,0,0,0-13,.24,6.77,6.77,0,0,0-3.61,2.86c-1,2-.22,4.56,1.34,6.18a15,15,0,0,0,5.84,3.27,118.44,118.44,0,0,0,20.43,5.46,63.18,63.18,0,0,0,2.48-20.32c-.12-2.81-.49-5.79-2.26-8s-5.38-3.09-7.43-1.16c-3.48,3.3.62,10.52-3.17,13.46"/><path class="cls-1" d="M482.39,102.68c1.65-3.62-.88-8.25-4.65-9.51s-8.11.38-10.78,3.33-3.88,7-4.25,10.93a6.41,6.41,0,0,0,.4,3.52,7.13,7.13,0,0,0,2.2,2.26L488,130.46a1,1,0,0,0,1.76-.3,57.71,57.71,0,0,0,11.31-35.34c-.07-3.65-1.68-8.38-5.32-8.18-1.7.09-3.1,1.35-4.23,2.61a32.88,32.88,0,0,0-7.84,16l1-2.33"/><path class="cls-1" d="M96.23,598c3.29-6.57,4.11-14.71.19-21.23a13.61,13.61,0,0,0-16.22-6c-6.28,2.24-8.54,9-5.61,14.8,3.31,6.59,10.71,8.87,17.52,6.68,15.4-5,20.53-26.8,19.12-41.09-.61-6.18-3.91-15.5-11.64-15.31a4.75,4.75,0,0,0-4.53,6.2c1,3.8,4.91,5.33,8.49,5.42,18.29.45,28.34-22.1,17.52-36.09"/><path class="cls-1" d="M485.73,22.46c-3.47-1-6.53,3.59-5.31,7s4.94,5.24,8.49,5.9c2.8.52,5.87.46,8.28-1.06s3.81-4.85,2.47-7.36a7.92,7.92,0,0,0-2.35-2.46,15.26,15.26,0,0,0-8-3.39c-2.93-.19-6.08,1.11-7.47,3.69"/><path class="cls-1" d="M317.75,96l-1.11-2.56a13.17,13.17,0,0,0-2.87-4.69,12,12,0,0,0-4.9-2.35c-4.64-1.34-10.1-2-13.89,1-3.45,2.72-4.31,7.82-3,12s4.29,7.65,7.53,10.62A64.75,64.75,0,0,0,318.14,122a3,3,0,0,0,2,.33,3.07,3.07,0,0,0,1.15-.8l14.93-14.36c2.91-2.8,5.93-5.78,7.06-9.66a11.69,11.69,0,0,0-22.48-6.43q-.1.35-.18.72a3.59,3.59,0,0,1-.94,2.15c-.62.5-1.86.09-1.71-.69"/><path class="cls-1" d="M113.72,187.82a11.63,11.63,0,0,1,.6-8.8c1.72-3.45,5.09-5.84,8.69-7.22,4.07-1.56,9-1.89,12.52.66,4.68,3.37,5.08,10.46,2.76,15.74S131.65,197.55,128,202a111.1,111.1,0,0,0-10.24,15.32c-7.2-11-23.47-14.89-27.43-27.39a25.58,25.58,0,0,1-1-7.15c-.07-2.93.26-6.19,2.42-8.17a8.32,8.32,0,0,1,6-1.81c7.44.34,13.94,7.29,13.8,14.74"/><path class="cls-1" d="M52.63,261.59a11.23,11.23,0,0,0-12-8.8c-5.33.69-9.51,5.44-10.84,10.65a16,16,0,0,0,1.91,12.65,12.85,12.85,0,0,0,11.16,5.81c3.82-.23,7.23-2.33,10.74-3.87s7.76-2.46,11-.47a10.08,10.08,0,0,1,3.7,4.44c3.19,6.83,1.3,15.37-3.59,21.11S52.35,312,44.87,313a16,16,0,0,1-7.84-.56,10.07,10.07,0,0,1-6.09-10.52"/><path class="cls-1" d="M29.25,239.79a4.16,4.16,0,0,0,.37,3l30.63,78.78"/><path class="cls-1" d="M36.55,240.3l37.06,84.38"/><path class="cls-1" d="M27.82,399.21c-2.23-1.6-4.08-33.92-4.14-41.94,3.61,12.54,8.7,25.27,15.51,36.35-4-11.63-4-24.63-8.6-36,7.05,7.16,9.51,17.48,14.29,26,1-8.07-1.54-16.77-2.53-24.8,5,6.26,7,14.68,11.84,20.65,1.08-8.06-2.26-16.24-3-24.2,7.87,5.26,9.73,16.92,16.53,23.33,1.33-11.09-3.8-24.23-6-35.12,6.78,8.23,13.73,16.72,19.22,25.88.62-4.91-.68-9.89-.54-14.73.82,1.54,1.8,3.16,2.49,4.75,1.62,1.29.25-.21-.08-.85"/><path class="cls-1" d="M207.5,53.11a96.47,96.47,0,0,1,8.75-39C218.57,9,222.36,3.5,227.92,3.46A13.46,13.46,0,0,1,234,5.25c14.12,7.2,23,21.68,29.23,36.24a59.33,59.33,0,0,0-25.46-14.92,3.17,3.17,0,0,0-2.3,0c-1,.49-1.17,1.75-1.25,2.82A228.4,228.4,0,0,0,233.65,57"/><path class="cls-1" d="M177.15,62.37l-9.27-18.3C162.2,32.86,156.16,21.22,146,13.88a3.9,3.9,0,0,0-2.08-.92c-1.41,0-2.42,1.32-3.14,2.53a116.32,116.32,0,0,0-16,51.44c1.41-8.42,6.68-15.61,11.8-22.44,1.52-2,3.66-4.3,6.12-3.69,1.44.36,2.45,1.63,3.31,2.84a92.67,92.67,0,0,1,13.28,27.27"/><path class="cls-1" d="M45,432.84l-.17,37.61a6.84,6.84,0,0,1-.9,4.12c-2.14,2.88-6.71.85-10.25,1.46-5.76,1-7.35,8.39-7.63,14.23L23.3,547.54c-.12,2.48-.23,5,.68,7.34,1.91,4.86,7.51,7,12.52,8.43,11,3.18,25,4.87,31.91-4.28,3.43-4.56,4-10.61,4.35-16.31l2.76-39.9c.39-5.69.78-11.5-.67-17S69.78,475,64.41,473.12c-2.88-1-6.46-1.27-8-3.87-1-1.61-.85-3.63-.69-5.5l1.45-16.65c.39-4.43.71-9.16-1.44-13s-7.83-6.12-11.19-3.2"/><path class="cls-1" d="M419.06,11.36l-2.48,29.47c-.32,3.8-.88,8-3.92,10.36-1.75,1.33-4,1.74-6,2.78-7.09,3.87-6.87,13.93-6.66,22a99.28,99.28,0,0,1-4.73,32.82c-1.71,5.31-3.9,10.63-3.85,16.21s3.06,11.63,8.45,13.1c5.7,1.55,11.38-2.4,17.26-2.91,2.87-.25,6,.28,8.43-1.27s3.35-4.88,4-7.82l5-24.21c2.88-14.06,5.71-29,.8-42.47a14.71,14.71,0,0,0-3.89-6.31c-1.91-1.63-4.55-2.54-5.77-4.73a9.83,9.83,0,0,1-.74-5.25l1-22.27c.2-4.62-1.35-11-6-10.61"/><rect class="cls-2" x="0.25" y="0.25" width="525" height="600"/></g></g></g></g></svg>