<svg xmlns="http://www.w3.org/2000/svg" viewBox="0 0 525.4 600"><defs><style>.cls-1,.cls-2{fill:none;}.cls-1{stroke:#fff;stroke-linecap:round;stroke-linejoin:round;stroke-width:2px;}</style></defs><title>radek2</title><g id="Warstwa_2" data-name="Warstwa 2"><g id="Warstwa_1-2" data-name="Warstwa 1"><g id="Warstwa_2-2" data-name="Warstwa 2"><g id="Warstwa_1-2-2" data-name="Warstwa 1-2"><path class="cls-1" d="M450.34,142.77c-5.33-.8-10.21,3.56-12.46,8.46s-2.71,10.42-4.38,15.55c-2.14,6.59-6.21,12.36-9.33,18.56s-5.33,13.36-3.38,20c3.14,10.74,15.89,15.85,27.07,15.36,3.87-.17,7.86-.88,11-3.11,6.83-4.79,7.5-14.47,7.52-22.81,0-11,0-22-1.56-32.79-.8-5.39-2.13-11-5.71-15.06s-10-6.14-14.65-3.24"/><path class="cls-1" d="M446.82,179.22l-9,10.29a12,12,0,0,0-3,4.83c-1,4.2,3.28,8.37,7.59,8.23s8-3.58,9.6-7.59,1.53-8.47,1.15-12.77a15.09,15.09,0,0,0-7.61-1.17"/><path class="cls-1" d="M470.7,416.39a129,129,0,0,0-2.15-98.87c9,4.2,12.52,17.06,6.92,25.26.86-7,1.77-14.15,4.86-20.49s8.82-11.83,15.82-12.71a70.89,70.89,0,0,1-19.29,21.5,143.78,143.78,0,0,0,.08-39.44c-.43-3.14-2.44-7.24-5.44-6.21a28.65,28.65,0,0,0,7.87,23.67,33.39,33.39,0,0,1,12-34.5,30.15,30.15,0,0,1-13.25,21.86l-2.29-20.63c-1-8.63-3.07-18.85-11.14-22.05A29.07,29.07,0,0,0,475.22,277a78,78,0,0,1,3.68-36.91,31.41,31.41,0,0,1-2.33,23.83"/><path class="cls-1" d="M148.68,167.7c-10.5,53.25-13.07,97.71-10.36,151.92.69,13.72,1.78,27.67-1.33,41.06l-.44-6.6"/><path class="cls-1" d="M146.47,167.7C136,221,133.4,265.41,136.11,319.62c.69,13.72,1.78,27.67-1.33,41.06l-.44-6.6"/><path class="cls-1" d="M133.88,419.14c-3.62,59.46-3.62,118.46-6.23,177.52"/><path class="cls-1" d="M136.56,419.14c-1.3,59.46-4.3,118.46-6.23,177.52"/><path class="cls-1" d="M120.59,98.85c-3.11,15.36-3.79,36,4.18,49.47s23.54,22.12,39.17,23.2a30.58,30.58,0,0,0,13.59-1.82c6.92-2.81,12-8.79,16.15-15,7.6-11.52,12.21-24.75,15-38.27,1.51-7.42-3.18.78-3.18.78-2,13.45-6.05,22.42-13,33.79-3.77,6.16-8.46,12.06-14.8,14.83a26.15,26.15,0,0,1-12.45,1.8c-14.32-1.07-27.66-10.58-35-23.9s-11.6-31.5-4.62-44.85C125.63,98.85,122.8,88,120.59,98.85Z"/><path class="cls-1" d="M146.47,165.49l4.27-11.82c4.27-11.81,6-24.57,8.46-36.49,0,0,2.4-3.06,2.21,2.21-.47,12.55-4.19,24.68-8.46,36.49l-4.27,11.82"/><path class="cls-1" d="M35.44,355.68c-5.93-12.88-7.1-27.42-7-41.6a262.06,262.06,0,0,1,2-31c2-16.09,5.51-32,5.88-48.24s-2.7-33.13-12.52-46"/><path class="cls-1" d="M24.26,189.13a28.31,28.31,0,0,1-2.61-24.41,85.8,85.8,0,0,1,8.77,32.73,36,36,0,0,0-20.2-14.28,37.21,37.21,0,0,0,25.41,25.57l2.49-17.3c2.3,5.53,4.63,11.2,5,17.18s-1.63,12.45-6.49,16A24.17,24.17,0,0,0,23.39,212.9a26,26,0,0,0,12.3,27.33,34.33,34.33,0,0,1,14-16.37c-.32,6.14-.66,12.41-3,18.1s-7.11,10.75-13.17,11.74-13-3.44-13.18-9.58a33.2,33.2,0,0,0,9,26.32,72.35,72.35,0,0,1,15.85-14.9c-.4,8.82-1.5,18.52-8,24.53s-19.87,4-20.9-4.75a25.85,25.85,0,0,0,12.59,25.37A83.85,83.85,0,0,1,41.39,286.1c-.58,6.23,1.1,12.61-.22,18.73s-7.76,12-13.41,9.27c-5.08-2.43-6.63-10.41-12.23-11,1.32,6.52,3,13.61,8.22,17.7s15.07,2.21,15.78-4.4c2.25,5.76,4.52,12,2.81,18S32.89,344.7,28,340.87c-3-2.39-4.83-7.48-8.66-7,.42,9.59,10.58,17.51,20,15.57"/><path class="cls-1" d="M488.28,449.59c-5.32-1.07-10.06,4-11.65,9.16s-1.3,10.83-3,16c-2,6-6.7,10.77-8.62,16.77-1.82,5.68-1,11.85.13,17.7,1.25,6.4,3.38,13.41,9,16.65a19.19,19.19,0,0,0,7.6,2.13c8.39.88,17.33-.92,23.85-6.28s10.08-14.61,7.45-22.63c-1.37-4.17-4.2-7.7-6-11.72-3-6.78-2.79-14.49-4.38-21.72s-6.11-14.88-13.43-16"/><path class="cls-1" d="M488.8,483.83c-4.11,2.56-7.7,6.27-9.11,10.89s-.23,10.21,3.61,13.15,10.25,2.23,12.67-2c1.68-2.92,1.17-6.69-.42-9.65s-4.14-5.28-6.63-7.54"/><path class="cls-1" d="M182,207.61l-19.82,2.48c11,20.51,8.92,46.14,9,68.64.08,105.88-10.92,211.88-16.3,318.11"/><path class="cls-1" d="M184.86,209.12c5.4,28.48,7.4,58.48,16.4,85.48a17.24,17.24,0,0,0,6,6c28,9,57,7,86,7,4,1,9-1,13-3,2-1,4-2,5-4,6-10,5-21,7-32a58.53,58.53,0,0,0,2-13c3-15,2-36,19-42a14.48,14.48,0,0,1,11,1c2,1,4,3,4,4,0,8-4,15-4,23-2,52-3,104,1,156,1,11,2,21,4,32,6,34,14,65,17,98,0,3,1,6,2,9l3,33c0,9,2,18,1.38,27.2"/><path class="cls-1" d="M189.69,318.57a12.56,12.56,0,0,0-2.11,13.73,9,9,0,0,0,5.59,5c5.46,1.41,10.74-5.35,8.72-10.62s-9.37-7.2-14.23-4.34"/><path class="cls-1" d="M314.65,320.4c-4.44-.43-7.59,5.38-5.79,9.47s6.75,6,11.21,5.7c3.25-.22,6.82-1.79,7.75-4.91,1-3.44-1.83-7.07-5.24-8.22s-7.12-.49-10.65.17"/><path class="cls-1" d="M208.6,356.06l102-1.94c1.74,17.82.8,36.55-7.43,52.45s-25.08,28.28-42.94,27c-9.26-.65-18-4.78-25.64-10a45.17,45.17,0,0,1-9.29-8c-7.07-8.38-8.95-19.84-10.56-30.69L210,353.16"/><path class="cls-1" d="M303.79,498.34c-3.24-1.37-7.5-2.53-9.84.09a8.54,8.54,0,0,0-1.6,3.7c-1.33,5.26-2.27,11.81,1.93,15.24,1.47,1.2,3.41,1.83,4.59,3.31,3.94,5-4.29,12.88-.79,18.17,2.17,3.27,7.6,2.55,10.12-.45s2.85-7.24,2.76-11.16a5.68,5.68,0,0,1,.44-2.93c1.29-2.3,4.9-1.53,6.89.2s3.6,4.2,6.18,4.77c2.17.48,4.38-.58,6.23-1.8,3-2,6-5.72,4.4-9-2.69-5.56-14.14-2.16-15.44-8.2-.61-2.83,1.89-5.28,4.08-7.18,2.89-2.51,5.92-6.25,4.38-9.76-1-2.27-3.57-3.38-6-4-2.79-.72-6.18-.92-8.13,1.21-1.71,1.87-1.57,4.71-1.89,7.23s-1.94,5.44-4.47,5.23c-3.31-.28-3.61-5-2.91-8.25"/><path class="cls-1" d="M495.41,14.84c-5.1-.66-9.53,3.78-11.54,8.51s-2.52,10-4.77,14.64c-3.85,7.92-12.53,13.35-14.23,22-1.15,5.89,1.29,11.86,4.17,17.12,2,3.59,4.32,7.21,7.92,9.17,3.09,1.69,6.74,1.95,10.26,2,4.69.06,9.5-.22,13.81-2.06A20.75,20.75,0,0,0,512.78,63.5c-1-4.68-3.66-8.88-4.7-13.55-1.1-4.91-.36-10,.72-15,.88-4,2-8.24.51-12-2.18-5.69-9.13-8-15.22-7.87"/><path class="cls-1" d="M485,53.22a22.43,22.43,0,0,0-6.77,16.49A6.84,6.84,0,0,0,479,73c1.15,1.95,3.69,2.58,6,2.51a13.21,13.21,0,0,0,11-6.15,10.35,10.35,0,0,0-1.23-12.16C491.69,54,486,53.85,483,57"/><path class="cls-1" d="M60.2,103.78c-4.62.67-7.09,6-7,10.7s1.74,9.21,1.68,13.88c-.06,4.29-1.6,8.41-2.18,12.66a27.2,27.2,0,0,0,7.87,23.19,24,24,0,0,0,23.6,5.41c8-2.73,14.15-10.62,14.36-19.1.2-11.36-9-20.52-18-27.52a17.47,17.47,0,0,1-4.32-4.17c-1.08-1.69-1.51-3.7-2.27-5.56a17.44,17.44,0,0,0-13.87-10.56"/><path class="cls-1" d="M66,134.21c-2.41-.16-4.48,2-5,4.39s.18,4.81,1,7.08a18.4,18.4,0,0,0,4.67,7.83c2.28,2.05,5.71,3.08,8.52,1.83a8.63,8.63,0,0,0,4.37-5.49,13,13,0,0,0-3.3-13.05,11.82,11.82,0,0,0-13.16-2"/><path class="cls-1" d="M31,441.18c-2.15-.68-4.53.57-5.86,2.39a16.32,16.32,0,0,0-2.32,6.29L15.6,483c-1.52,7-3,14.69.31,21.08,3.79,7.37,12.7,10.53,20.95,11.27a19.12,19.12,0,0,0,6.46-.27c7.59-2,11-10.64,13.15-18.16a14.48,14.48,0,0,0,.87-6.13,13.92,13.92,0,0,0-2.48-5.39c-7-10.77-15.51-21.38-17.28-34.12a15.46,15.46,0,0,0-1-4.48A6.5,6.5,0,0,0,30,443.25"/><path class="cls-1" d="M431.14,288.87c-9.74-30.11-33.29-54.89-39.6-85.9-3.91-19.26-.77-39.14-.2-58.79s-2-40.82-15.11-55.51A41.91,41.91,0,0,0,383.64,118l8-19.41a29.92,29.92,0,0,1-3.33,30.59,20,20,0,0,0-10.69-4.56,25.88,25.88,0,0,0,12.51,24.51,32.79,32.79,0,0,1,10.7-16.69A35,35,0,0,1,389,161.74l-8.66-3.47a27,27,0,0,0,8.43,21.07l11.83-18.77a17.62,17.62,0,0,1-22.9,24.36c-.16,8.77,8.1,16.76,16.86,16.31a31.14,31.14,0,0,1,8.2-13.19c4.14,8.46-.74,20-9.68,23a16.81,16.81,0,0,0-12.85-5.78c1.88,6.3,6.12,12.52,12.5,14.08s14.19-4.08,12.7-10.49c4.41,5.32,4.57,14-.39,18.86s-14.58,3.78-17.64-2.42c-4.27,2.35-.69,9,3.47,11.51s9.26,4.51,14.16,3.61,9.34-5.43,8.72-10.38c6.52,1.75,8.89,11.22,4.56,16.39s-13.14,5.12-18.1.54l10.37,8.78c1.75,1.48,3.86,3.06,6.1,2.6,4.36-.91,4.81-8.37,9.22-9,4.68,3.7,4,11.66-.28,15.78s-11,4.9-16.79,3.67c4,2.75,8.33,5.58,13.2,6s10.37-2.74,10.78-7.61c2.21,3.42,4.47,7,5.14,11s-.69,8.67-4.26,10.64"/><path class="cls-1" d="M219.3,19.91c-3.32-1.89-7.63.6-9.56,3.91s-2.39,7.25-3.92,10.75c-3.29,7.5-11.08,12.19-14.77,19.51-5.17,10.26.33,24.4,11.06,28.51s24.24-2.69,27.37-13.74c1.43-5,.9-10.4.37-15.61l-2.11-20.59c-.3-2.94-.63-6-2-8.56s-4.22-4.66-7.15-4.3"/><path class="cls-1" d="M210.63,56.23a7.22,7.22,0,0,0,1.17,14.39,3.93,3.93,0,0,0,2.4-.92,5.39,5.39,0,0,0,1.26-3.32,15.87,15.87,0,0,0,0-6.74c-.66-2.17-2.56-4.14-4.83-4.1"/><path class="cls-1" d="M90.33,33.5c-4.73-1.75-9.59,3-10.83,7.9s-.39,10.12-1.57,15c-1.45,6-5.93,11.51-4.81,17.6a17.1,17.1,0,0,0,3.44,7c4.54,6.06,12.11,11.63,19.28,9a17.7,17.7,0,0,0,5.09-3.19c5.38-4.46,10.13-11.49,7.72-18.05-2.13-5.8-9.11-8.89-10.8-14.84-.87-3-.16-6.33-.56-9.48A13.88,13.88,0,0,0,86.67,32.92"/><path class="cls-1" d="M85.45,34.92c.17,1.42-2.24.41-2.73-.94a96.7,96.7,0,0,1-5.15-21.61"/><path class="cls-1" d="M84.29,34.18c.24.67-1,0-.85-.73a57.3,57.3,0,0,1,6.15-18c4.32,6.55,2.63,16.29-3.59,21"/><path class="cls-1" d="M142.78,109.88a58.62,58.62,0,0,1,4.94-49.2c5.4-9,13.14-16.31,18.65-25.2S174.92,15,170,5.77A3.35,3.35,0,0,0,168.26,4c-1.38-.45-2.71.83-3.44,2.08a15.32,15.32,0,0,0,3.43,19,64.54,64.54,0,0,1,15.69-12.36c-1.46,7-5.07,14.93-12.13,16.11C165,30,159.23,24.27,154.74,19.07a32,32,0,0,0,3.47,17.22A9.31,9.31,0,0,0,162,40.61c6.3,3.1,12.2-7,19.2-6.41-2.85,9.6-13.58,16.11-23.41,14.22a5.44,5.44,0,0,1-2.64-1.09,7.35,7.35,0,0,1-1.62-2.87,21.44,21.44,0,0,0-8.49-10c-1.45,7.76-1.26,17.45,5.52,21.49,3.46,2.06,7.71,2,11.68,2.67s8.31,2.72,9.24,6.64q-10.28.66-20.59.52a10.16,10.16,0,0,1-5-.93c-4.69-2.68-4.44-11.83-9.84-11.9a21.89,21.89,0,0,0,27,25.89c-4-4.88-10.19-8.5-16.42-7.53s-11.4,7.94-9,13.76a28.8,28.8,0,0,1-11.58-12.53c4.8.25,8.63,4.12,11.23,8.16s4.61,8.61,8.23,11.78,9.65,4.37,13.06,1A105.26,105.26,0,0,1,139.2,82.69"/><path class="cls-1" d="M91.13,510.67c-3.58-2.94-9.21-1.64-12.69,1.42s-5.47,7.42-7.86,11.39a57.1,57.1,0,0,1-15,16.41c-3.39,2.5-7.09,4.65-9.91,7.77a21.24,21.24,0,0,0-2,24.85A22.15,22.15,0,0,0,67,581.88a23.15,23.15,0,0,0,17-18.63c.85-5.52-.33-11.18.23-16.74.57-5.76,3-11.15,4.44-16.74s2-11.89-1-16.85"/><path class="cls-1" d="M66.26,548.07a18.26,18.26,0,0,0-9.92,7.17c-1.7,2.48-2.64,6.11-.59,8.31,2.2,2.36,6.32,1.29,8.59-1a11.62,11.62,0,0,0-.05-15.76"/><path class="cls-1" d="M25.43,441.74A183.22,183.22,0,0,1,20.3,423.8"/><path class="cls-1" d="M25.85,443.79l3.42-16c6.18,4.06,6,14.77-.29,18.63"/><path class="cls-1" d="M372.47,8.44c-4.17,2.07-6.29,6.88-6.83,11.5s.19,9.29,0,13.94c-.17,6.1-1.81,12.06-3.82,17.82-1.25,3.58-2.67,7.31-2.09,11.06a16.27,16.27,0,0,0,3.13,6.86c4.73,6.58,12.18,11.37,20.25,12.06s16.59-3.07,20.83-10c5.79-9.44,2.57-22.24-4.48-30.78-2.51-3-5.49-5.77-7.41-9.22-2.87-5.17-3.06-11.43-5.43-16.85s-8.84-10.11-14-7.17"/><path class="cls-1" d="M386.11,47.42c-.22,1-1.68.06-2.39-.7-2.11-2.28-6.27-.84-7.72,1.9s-1,6-.59,9.12a18.6,18.6,0,0,0,2.06,7.13c1.3,2.12,3.77,3.74,6.21,3.27,2.74-.53,4.42-3.36,5.11-6.07A18.92,18.92,0,0,0,386,46.72"/><path class="cls-1" d="M415.17,165.94a57.76,57.76,0,0,1,11.14-40.27c4-5.36,9-10,12.71-15.55,7.59-11.3,9.51-25.5,9.26-39.12-.25-13.12-2.43-26.51-8.88-37.94s-17.65-20.68-30.66-22.4c-.74,5.2,3.32,10.11,8.16,12.14s10.28,1.84,15.53,1.61a64.5,64.5,0,0,1,1.21-16.55,28.92,28.92,0,0,1,6,15.77c.1,1.55,0,3.31-1.2,4.33s-2.54.9-3.9.86l-15.13-.43A29.84,29.84,0,0,0,430.51,40c3,1.74,6.77,2.94,9.75,1.23,5.49-3.14,3.23-12.53,8-16.62a30.92,30.92,0,0,1-.75,24.46,42.63,42.63,0,0,0-16.8-5A53.3,53.3,0,0,0,446.2,59.78L455,49.11c-1.55,5.77,2.46,12.75-1.16,17.49-2.33,3.06-7,3.46-10.54,2s-6.24-4.44-8.82-7.29c-3.12,5.91-.47,14.15,5.51,17.13s14.16.13,17-5.92c1.8,7.11,2.56,16.59-4,19.85-7,3.45-14.25-3.88-18.6-10.33a12.6,12.6,0,0,0,19.5,15.91c3,5.64-3,12.81-9.36,13s-12-4.29-16-9.28c-4.57,4.1-4.47,12.29.2,16.27,1.75,1.49,4,2.43,5.46,4.17,1.14,1.34,1.79,3.09,3.16,4.2,2.33,1.88,6,1.13,8.2-.86s3.4-4.88,4.49-7.67a18.49,18.49,0,0,0-21.22,4.82c-1.1,1.31-2.1,2.85-3.69,3.47-2.67,1-5.69-1.21-6.57-3.93s-.24-5.67.4-8.46c6.46,4.4,6.58,15.44.23,20,5.66,4.44,14.92,3.17,19.17-2.64-6.88-3.81-16.73-.27-19.61,7-7.69-.09-13.06-10.32-8.77-16.7,3.82,4.15,4.52,10.18,5.34,15.76s2.28,11.67,6.88,14.92,12.92.72,12.71-4.91c-5.45-1.71-11.27.48-17,.91s-12.81-2.44-12.92-8.15l10.82,6.45"/><path class="cls-1" d="M25.37,139.84c-2.55-22.1.36-44.43,3.74-66.42.89-5.79,1.82-11.65,1.31-17.49C28.7,36.29,11.3,20.77,9.3,1.16A28.65,28.65,0,0,1,18,27L28.52,8.59c1.47,5.73,2.94,11.72,1.67,17.5S24,37.3,18.09,37s-10-5.59-13.35-10.43a63.57,63.57,0,0,1,23.17,10,18.76,18.76,0,0,1,6.25-7.89,81,81,0,0,1-1.55,29.18A47.24,47.24,0,0,0,15.45,47.29c-2.69,6.18,4,13.13,10.76,13.36S39,56.83,44.5,52.94c-1.21,7.53-2.77,15.7-8.56,20.67s-17.08,3.46-18.42-4c-1.36,3.51-2.74,7.18-2.41,10.93s2.94,7.59,6.68,8c7,.78,10.22-9.47,17-11.41A42.87,42.87,0,0,1,29.24,99.2a4.81,4.81,0,0,1-2.19,1.73c-1.39.4-2.82-.43-4-1.22l-8.39-5.5c-2.73,8.14,2,18,10,21A41.13,41.13,0,0,1,36.57,99.84a49.08,49.08,0,0,1-7,22.83c-1.2,2-3.11,4.14-5.38,3.66a6,6,0,0,1-2.66-1.69l-11.1-10.19a25.83,25.83,0,0,0,16.35,23.89"/><path class="cls-1" d="M508.9,337.62c-1.3-15.38.74-30.9-.54-46.28-3.19-38.36-26.82-75.54-17.86-113,1.91-8,5.24-15.52,8.57-23,4.26-9.61,8.69-19.48,16.23-26.81,3.25,12.11-6.22,26-18.69,27.37a32.44,32.44,0,0,1-10.6-15c4.65-1.77,9.94,1.83,11.84,6.43s1.32,9.79.71,14.73a25.39,25.39,0,0,0,22.78-2.41c-5.22-2.67-11.57-1-17,1.3s-11,5.12-16.79,4.59-11.63-6.33-9.56-11.82a17.87,17.87,0,0,1,10,8.18c2.56,4.55,3.1,10.21,6.57,14.11s11.92,3.32,11.94-1.89c-4.69-3.71-11.43-.67-16.87,1.82s-13.47,3.44-16-2A14.62,14.62,0,0,0,501,180.85c3.25,5.63.72,13.79-5.15,16.59s-13.8-.36-16.13-6.43c.09,6,.89,12.74,5.51,16.62s13.83,1.41,13.5-4.61c1.61,4.29,3.25,8.85,2.35,13.34s-5.44,8.57-9.82,7.21c-4.87-1.51-7.32-8.69-12.39-8.18A12.7,12.7,0,0,0,503.51,221c1.73,5.69,3.4,12.11.56,17.33s-12.36,6.12-13.88.37a10.37,10.37,0,0,0,19.57,6.86c-1.65,3.7-.27,8,.12,12s-1.19,9.13-5.21,9.65S498,263.55,496.3,260c1.13,5.4,2.57,11.29,7,14.52s12.65,1,12.53-4.55c.28,5.46.37,11.53-3.25,15.63s-12.22,3.24-12.75-2.2a18.64,18.64,0,0,0,6.71,16.32,25.62,25.62,0,0,0,7.27-8.17,20.44,20.44,0,0,1-7.67,23.5c-.42,3.43,3.86,6.42,6.93,4.84"/><path class="cls-1" d="M303,41.53a44.14,44.14,0,0,1-10.94-23.24,9.87,9.87,0,0,1,0-4c1.28-4.72,8.46-5.41,12-2.09s4.31,8.71,4.19,13.6a25.6,25.6,0,0,1,9.5-10.63,12.32,12.32,0,0,1,7-2.21c2.48.13,5,1.66,5.68,4,.91,3.2-1.6,6.28-4,8.61A213.83,213.83,0,0,1,302,46.29"/><rect class="cls-2" width="525.4" height="600"/></g></g></g></g></svg>