<svg xmlns="http://www.w3.org/2000/svg" viewBox="0 0 525 600"><defs><style>.cls-1,.cls-2{fill:none;}.cls-1{stroke:#fff;stroke-linecap:round;stroke-linejoin:round;stroke-width:2px;}</style></defs><title>rodos2</title><g id="Warstwa_2" data-name="Warstwa 2"><g id="Warstwa_1-2" data-name="Warstwa 1"><g id="Warstwa_2-2" data-name="Warstwa 2"><g id="Warstwa_1-2-2" data-name="Warstwa 1-2"><path class="cls-1" d="M455,149.07c-3.27.45-6.61.1-9.87.6a19.5,19.5,0,0,0-15.79,15.39,5.89,5.89,0,0,0-.06,2.33c.41,1.8,2.17,3,3.94,3.52,7.44,2.24,14.68-3.79,19.75-9.68a17.1,17.1,0,0,0,3.71-5.81c.69-2.21.38-4.89-1.33-6.44"/><path class="cls-1" d="M447.79,151.67c10.14-5.64,24.12-3,31.55,5.88,2.1,2.52,3.75,5.82,3,9s-3.75,5.3-6.89,5.87a17,17,0,0,1-9.34-1.42,35,35,0,0,1-11.47-7.58"/><path class="cls-1" d="M455,162.6c2.16,5.16,6.41,9.1,10.54,12.86,4.83,4.4,10,9,16.38,10.33s14.26-1.94,15.47-8.36c.7-3.7-1-7.53-3.47-10.34s-5.81-4.77-9-6.68"/><path class="cls-1" d="M496.51,178.09c2,7.56,1.65,16.09-2.68,22.6s-13.22,10.21-20.39,7.11a10.09,10.09,0,0,1-3.92-2.85c-2.51-3.14-2.15-8,.19-11.24S476,188.6,480,188"/><path class="cls-1" d="M466.71,194.49c-2.53-2-5.33-4.06-8.54-4-4.44.1-7.91,4.82-7.41,9.24s4.25,8,8.52,9.22,8.92.3,13-1.57"/><path class="cls-1" d="M449.67,195.17H435"/><path class="cls-1" d="M448.8,199.42a62.87,62.87,0,0,1-15.56-.58"/><path class="cls-1" d="M427.11,168.23a34.14,34.14,0,0,0-10.17,10.58"/><path class="cls-1" d="M430.7,172.75A35.06,35.06,0,0,0,424.4,183a1.41,1.41,0,0,0-.06,1.31c.26.37,1.06.14.89-.29"/><path class="cls-1" d="M440.18,163.24"/><path class="cls-1" d="M43.58,25.84C31.62,29.71,24.6,41.78,19,53c-3.13,6.23-6.24,12.8-6.16,19.78,0,4.39,1.37,8.66,2.68,12.85,5.84,18.69,12.65,38.76,28.72,50,6.85,4.77,14.88,7.51,22.89,9.85,6.95,2,14,3.81,21.27,4.12,29.67,1.25,55.57-23.31,65.41-51.32A53.57,53.57,0,0,0,157.29,81c0-8.59-2.95-16.87-6-24.9-4.56-12.1-9.76-24.76-20.06-32.59-7.32-5.57-16.45-8.07-25.33-10.45C98.7,11,91.44,9.09,84,8.61A57.28,57.28,0,0,0,39,26.52"/><path class="cls-1" d="M42.8,22.74l7.84-1c3,7.15-3.54,14.38-6.15,21.68a43.81,43.81,0,0,0-1.87,9.33c-.33,2.67-.65,5.48.41,8S47,65,49.5,63.91C48,65.55,48.4,68,48.83,70.18c.59,2.93,1.29,6.06,3.5,8.07s6.42,2,7.63-.72c1.07,5,5.27,8.69,9.22,12,1.73,1.44,3.92,3,6,2.21,2.16,2.06,1.45,5.73-.18,8.22s-4,4.51-5.17,7.26-.22,6.75,2.7,7.32a18.63,18.63,0,0,0,3.2-.06c5.57.11,7.58,7.66,6.37,13.1s-3.91,11.23-1.56,16.28l12.34-11.17c1.25-1.13,2.59-2.42,2.77-4.1,7.93-2.37,15.3-7.47,19.06-14.85,2.2-4.31,3.83-9.93,8.53-11.12a12.85,12.85,0,0,0-12.47.28,45.17,45.17,0,0,0-32.69-13"/><path class="cls-1" d="M59.58,77.11c-1.3-.85-.73-3,.57-3.88s3-.86,4.47-1.17,3.17-1.23,3.36-2.77c.1-.81-.24-1.64-.09-2.44.41-2.11,3.55-2.3,4.76-4.08,1.8-2.66-1.89-6-1.6-9.15a3.75,3.75,0,1,1,7.14,1.93c2.39-.73,2.74-3.92,2.64-6.42C84.4,50.7,89.1,47.59,89,43.68c.78,2.37,3.95,3.73,6,2.38s1.88-5.18-.47-6c-1.53-.55-3.27.16-4.85-.26-3.59-1-4.1-6.81-7.73-7.56A4.12,4.12,0,0,0,77.5,35.5a6.25,6.25,0,0,0,2,5.59c-3.59-.86-7.2-2.4-9.49-5.29s-2.86-7.38-.51-10.22,7.77-2.61,9.18.81c.48,1.15.55,2.6,1.57,3.32,2.28,1.61,6.81-1.92,7.63.75,1.94-.34,1.69-3.32.47-4.86s-3-3.14-2.57-5.06c1.87.37,2.94,2.39,3.32,4.26s.39,3.88,1.34,5.54,3.39,2.69,4.78,1.38a4.21,4.21,0,0,0,1-2.81,27.39,27.39,0,0,0-3.78-16.22"/><path class="cls-1" d="M111.8,24.21"/><path class="cls-1" d="M115.93,23.73A8.33,8.33,0,0,1,120,32.67a3.68,3.68,0,0,0-.18,1.65c.29,1.23,1.93,1.56,3.17,1.27s2.44-1,3.69-.76a6.55,6.55,0,0,1-1,4.94c3-1.27,6.8,1.84,6.16,5,.15,1.94,3,2.74,4.51,1.49s1.6-3.62.77-5.38a13.32,13.32,0,0,0-3.89-4.3l5.48-.34A2,2,0,0,0,136,34.63"/><path class="cls-1" d="M136.66,57.34a28.49,28.49,0,0,0-1.59,9c.13,3.07,1.43,6.26,4,7.88a7,7,0,0,1,2.5,1.78,19.84,19.84,0,0,1,.87,2.44c1.08,2.3,4.57,2.29,6.62.79a7.65,7.65,0,0,0,2.88-7.64"/><path class="cls-1" d="M136.83,55.27l.15-6.74a5.5,5.5,0,0,1,7,3.19"/><path class="cls-1" d="M85.42,216.84l19.77-36.1a104.23,104.23,0,0,1,6.61-11,52.14,52.14,0,0,1,7.81-8.62,23.49,23.49,0,0,1,9.17-5.44c3.46-.93,7.44-.49,10.18,1.83,3.93,3.34,4.14,9.61,1.89,14.25s-6.39,8-10.41,11.28L85.9,219"/><path class="cls-1" d="M91.83,220.69,102.67,215c2.4,7.95-3.82,17.31-12.08,18.16a100.34,100.34,0,0,1,2.83-11.59"/><path class="cls-1" d="M84.12,207.85a15,15,0,0,1-2.7,6.25l1-1.94"/><path class="cls-1" d="M81.53,208.69a10.57,10.57,0,0,0-11.55,9,16.4,16.4,0,0,0,9.82-.32"/><path class="cls-1" d="M127.89,189.64c-.37-.29.22-.91.65-.71s.55.74.62,1.2l4.09,26.75c.71,4.64,1.42,9.35.81,14s-2.73,9.32-6.62,11.94l-6.28-27.74c-1.33-5.89-2.91-12.2-7.49-16.14"/><path class="cls-1" d="M103.1,183.68l-.1-6.48q-23.05-.29-46.1.82c-2.8.14-6.58,1.42-6.09,4.18a183.79,183.79,0,0,1,46.37,8.22l-3.55-.7"/><path class="cls-1" d="M380.65,62c-1.76-2.19-1.19-5.59.55-7.8s4.37-3.5,6.92-4.69a292.7,292.7,0,0,1,92-25.56c5-.54,10.54-.81,14.59,2.18s5.44,8.4,6.52,13.36L506.6,64c1.59,7.3,2.83,16-2.36,21.35-2.85,2.94-7,4.13-11,5.18q-41.82,11.14-84.16,20.21c-3.85.82-8.16,1.56-11.48-.55-3.07-2-4.32-5.75-5.35-9.24L378.17,53"/><path class="cls-1" d="M414.61,39.08V37.36"/><path class="cls-1" d="M414.84,37.29a6,6,0,0,1,.81-6.32A14.46,14.46,0,0,1,421,27a51.68,51.68,0,0,1,27.33-5.17c2.14.19,4.89,1.22,4.71,3.36"/><path class="cls-1" d="M455.31,31.52l18.26,65.2-.27-7.59"/><path class="cls-1" d="M471.33,28.78l13.68,39c2.5,7.12,5,14.35,5.42,21.89l.13-3.07"/><path class="cls-1" d="M413.67,46.71A1.23,1.23,0,0,0,412.3,45a79.66,79.66,0,0,1,10.28,27.43c.67,3.83,1.06,7.7,1.44,11.56l2.38,23.79a1.15,1.15,0,0,0,0,.16"/><path class="cls-1" d="M431.1,109.57c-.49-.14,0-1,.49-.83s.66.75.82,1.23a7,7,0,1,0,12.66-5.81"/><path class="cls-1" d="M471.38,99.07c.67,4.68,6,8.23,10.49,6.62s6.14-8.28,2.73-11.56"/><path class="cls-1" d="M28.66,575.32c.55.94-1.09,1.88-2,1.25s-1-1.89-1-3A63,63,0,0,1,56,520.67c-7-2.84-16,.78-19.1,7.7a20.46,20.46,0,0,1,19.48-10.92C48,506,30.73,502.27,18.44,509.31a28.25,28.25,0,0,1,24.08-6.61,28.25,28.25,0,0,1,19.66,15.39c2.7-7-1.38-14.87-6.65-20.21-6.15-6.24-13.93-10.58-21.59-14.83,7.27-.85,14.48,2.79,19.66,8s8.7,11.72,12.13,18.18c1.56,2.94,3,6.79.88,9.31,5.53-7.85,17.49-8.82,26-4.39s14.21,12.9,18.69,21.34c-11.09-13.84-30.64-20.28-47.78-15.72,9-3.18,19.44,1.33,25,9s6.91,17.83,5.71,27.26c-1.53-17.17-17.62-31.75-34.85-31.6,7.55,3.33,8.86,15.48,2.19,20.34,2.22-6.32,4.28-13.91.22-19.25-.71-.93-1.79-1.81-2.94-1.58A3.65,3.65,0,0,0,57,525.34c-13.62,16-14.26,39.06-14,60.1A25.77,25.77,0,0,0,25.9,580"/><path class="cls-1" d="M27.8,566.75a14.19,14.19,0,0,1,9.92,4.31"/><path class="cls-1" d="M32.68,557.85l5.92,2.93L36.4,560"/><path class="cls-1" d="M36.46,549.36l4.72,2.94"/><path class="cls-1" d="M42.18,538.92l1.9,1.91"/><path class="cls-1" d="M207,294.37c-1.66,11-6.83,39.22-11.36,49.41-7.34,16.49-21.93,30.1-24.19,48"/><path class="cls-1" d="M172.73,396.06c8.27,8.82,20.57,13.16,32.66,13.41s24-3.28,35-8.3a4.93,4.93,0,0,0,2.57-2c.49-1,0-2.5-1.13-2.55"/><path class="cls-1" d="M200.84,326.54c7.12,8.1,21.92,19.38,29,27.54,8.44,9.76,11.92,22.7,16.13,34.89,1,2.87,2.15,5.89,4.57,7.73,1.87,1.42,4.24,1.94,6.53,2.43,10.13,2.15,21.8,4,29.89-2.49"/><path class="cls-1" d="M360.7,362.83c4,7.18,8.15,14.54,10.13,22.61.9,3.69,1.78,8.22.85,12s-5.38,5.08-8.72,6.3a90.9,90.9,0,0,1-47.11,4c-2.62-.47-24.88-5.68-22.18-9.45"/><path class="cls-1" d="M377.46,400.15l-6.16,1.38,24.33-1.35"/><path class="cls-1" d="M187.35,553.46a220.61,220.61,0,0,0,97.82,27.81c9.59.42,19.33.18,28.55-2.5,10.24-3,19.36-8.86,28.32-14.66,19.82-12.83,39.9-25.89,55.55-43.56"/><path class="cls-1" d="M331,597.41c19.09-24.61,43.09-50.61,75.21-58.51"/><path class="cls-1" d="M184.95,561.19c25.19,6.61,49.19,17.61,67.59,36.33"/><path class="cls-1" d="M463.46,280.19c-3,7.88-6.12,15.77-7.55,24.07s-1,17.17,2.84,24.66,11.6,13.28,20,13.25c6.89,0,13.46-3.93,17.51-9.5a26.48,26.48,0,0,0,4.36-21.17c-1-4.56-3.28-8.77-4.35-13.32-1.64-6.93-.51-14.42-3-21.1l-9.21,22.54a151,151,0,0,1-.83-49.19,81.52,81.52,0,0,0-13.42,51.28,153.25,153.25,0,0,0-8-22.41"/><path class="cls-1" d="M454.75,349.38l45,28.34-2.3-1.23"/><path class="cls-1" d="M457.31,377.38a143.72,143.72,0,0,1,46.06-23.1"/><path class="cls-1" d="M460,329.7c2.18-6.15,9.21-9,15.63-10.19,4.54-.83,9.42-1.15,13.6.81s7.28,6.85,5.86,11.24"/><path class="cls-1" d="M470.47,336.77a9.78,9.78,0,0,1,18.33,2.52"/><path class="cls-1" d="M175.83,23.07A7.5,7.5,0,0,0,166,25.64a8.45,8.45,0,0,0,1.65,10.3,9.69,9.69,0,0,0,10.57,1.3c-.83,2.85-1.66,5.78-1.39,8.73s1.94,6,4.73,7c2.55.92,5.42,0,7.69-1.52a17.21,17.21,0,0,0,6.46-7.9c-1.24,2.08,1.52,4.26,3.86,4.88,5.48,1.45,11.72,1.07,16.28-2.31s6.68-10.2,3.73-15c3,0,6.25-.3,8.66-2.15s3.44-5.73,1.39-8a8.22,8.22,0,0,0-3.08-1.82c-4.47-1.8-10.41-3-13.41.72-2.48-5.24-7.14-10-12.94-10.14s-11.29,6.27-8.65,11.4c-4-5.62-14.24-4.56-17,1.78"/><path class="cls-1" d="M455.23,505.2c-3.71-14-4.06-29.09,1-42.6s16.06-25.13,29.94-29.11c1.6,3.18-1.64,6.6-4.64,8.51a73.85,73.85,0,0,1-14.92,7.25,2.93,2.93,0,0,1-1.91.21c-.94-.33-1.29-1.46-1.48-2.44a53,53,0,0,1-1-10.73c0-3.61,1.62-8.3,5.22-8.09,2.3,5.27,1.09,11.48-1.43,16.65s-6.25,9.63-9.31,14.5c3.19-1.7,6.48-3.43,10.07-3.78s7.6,1,9.32,4.18a78.37,78.37,0,0,1-21.42,7.89"/><path class="cls-1" d="M14,255.32c-3.71,1.57-4.21,7.64-.81,9.79,3.56,2.26,8.4-.24,10.84-3.68s3.51-7.7,6-11.13a17.07,17.07,0,0,1,20.35-5.43"/><path class="cls-1" d="M22.72,275c-.13,2.62,3,4.5,5.54,3.92s4.4-2.83,5.55-5.19,1.79-4.94,3.06-7.23c4.09-7.35,15.07-9.68,21.79-4.62"/><path class="cls-1" d="M68.56,303.88a7.16,7.16,0,0,0-4.19,7.81,7.36,7.36,0,0,0,6.85,5.7c4.94.12,8.84-6,6.69-10.4s-9.33-5.15-12.31-1.21"/><path class="cls-1" d="M74.31,325v8.59"/><path class="cls-1" d="M64.87,325,62,333.61"/><path class="cls-1" d="M56.09,319.18,52.28,324"/><path class="cls-1" d="M81.92,323.1a19.07,19.07,0,0,1,5.77,5.68"/><path class="cls-1" d="M486.56,554.36a5.2,5.2,0,0,0-6.94,7.06c1.24,2.39,4,3.42,6.61,4.25l15.31,5q1.39-5.79,2.28-11.69c.48-3.13.73-6.7-1.36-9.09a5.69,5.69,0,0,0-9.58,5.85"/><path class="cls-1" d="M204.87,182.09l-55.38,63.25c-3.79,4.33-7.63,8.73-10.18,13.89-3.78,7.64-4.47,16.4-4.67,24.92-.44,18.86,1.22,37.83-1.19,56.55-1.13,8.78-3.15,17.51-3,26.37a53.61,53.61,0,0,0,12.65,33.32c2.19,2.57,4.77,5,8,5.94s7.27-.15,8.77-3.18c2.59-5.21-3.3-10.29-6.88-14.88-6-7.66-5.95-18.44-3.85-27.92s6-18.6,6.86-28.27c1.15-12.78-3.05-25.5-2.73-38.32s7.85-27.42,20.65-28.3c13.65-.93,22.58,13.32,30.16,24.71,10.1,15.17,23.32,28.41,39.06,37.59,5.3-3.26,2.92-11.42-.36-16.71a165.6,165.6,0,0,0-27.71-33.81c-5.4-5-11.72-11.39-10-18.58,11.06-1.36,21.3,6.41,27.86,15.42s10.83,19.59,18,28.15c2.75,3.3,6.06,6.36,10.19,7.53s9.18-.06,11.36-3.75c1.88-3.18,1.24-7.22.12-10.74-6.36-19.82-25.58-33-34.07-52-1.88-4.22-3.21-9-1.77-13.42,2-5.94,8.72-10.46,7.74-16.64"/><path class="cls-1" d="M349.74,323.48a72.62,72.62,0,0,0,10.85-24.29,68.47,68.47,0,0,0,1.69-13.1,66.81,66.81,0,0,0-.13-6.7,23.33,23.33,0,0,0-.29-3.08c-.25-1.19-.6-1.49-1.86-1.81-3.7-1-7.26,2.14-9.53,4.68-3.2,3.57-5.64,7.93-8.32,11.9-5.66,8.4-11.21,16.88-17,25.19-4.09,5.87-10.5,12.57-18.4,9.5-8.54-3.32-4.6-15-1.57-21,3.8-7.46,9.34-13.87,13.36-21.21A86.7,86.7,0,0,0,327,261.39c3.41-14.86,2.63-31.23-5.46-44.51a46.72,46.72,0,0,0-3.23-4.64"/><path class="cls-1" d="M365.5,166.36c10.92,7.09,21.59,15,30,25.05,8.12,9.8,13.79,21.86,14.38,34.72a41.45,41.45,0,0,1-3.32,18.56c-2.71,6.17-6.82,11.56-10.51,17.15-7,10.54-11.32,22.32-15.34,34.22-3.94,11.67-7.68,23.54-13.84,34.28q-1.15,2-2.41,3.94"/><path class="cls-1" d="M364.79,193.14A100,100,0,0,0,340.86,233c-1.74,5.55-3,11.76-.46,17,3.46,7.28,12.47,9.81,20.48,10.73,6.26.72,12.88.89,18.55-1.85,6.77-3.27,11.12-10.28,13-17.57s1.48-14.92,1-22.43c-.35-6-.81-12.33-3.79-17.6-.34-.6-.83-1.25-1.52-1.22a2,2,0,0,0-1.17.63,71.61,71.61,0,0,0-13.36,16,26.87,26.87,0,0,0-9.11-20.48"/><path class="cls-1" d="M364.38,235.37a.7.7,0,0,1-1.24.32c-.28-.5.42-1.19.92-.89l-6.78,9.84c-1.41,2-3,4.25-5.45,4.83s-5.45-1.69-4.53-4c-2,2.05.2,5.91,3,6.15s5.37-2,6.71-4.52c-2.51,3.41-.59,9.08,3.48,10.25s8.72-2.62,8.39-6.84"/><path class="cls-1" d="M374.5,239.21H373a.62.62,0,1,0,.55-.18"/><path class="cls-1" d="M351.48,233.44a1.2,1.2,0,1,1-.8.06"/><path class="cls-1" d="M288.73,392.8a29.12,29.12,0,0,1,3.24-7,75.91,75.91,0,0,1,7.14-8.76,124.93,124.93,0,0,0,20.31-32l11.46-23.94,5.86,7.27c4.63,4.52,20.33,29.06,24,34.4"/><path class="cls-1" d="M258,469"/><path class="cls-1" d="M361.36,336.8c-3.21,3-7.83,4.16-11.16.66-3-3.13-3.42-7.72-2.12-11.68"/><path class="cls-1" d="M347.6,327.58c.14.42-.67.57-.87.17a1.37,1.37,0,0,1,.26-1.26l7.76-13"/><path class="cls-1" d="M362,339a26,26,0,0,0,6.86-13.32"/><path class="cls-1" d="M392.4,49a166,166,0,0,0,23.13,61.71"/><path class="cls-1" d="M434.79,82.74a24.77,24.77,0,0,0,4.38,3.35L447,73.6l-6.43-4.14a3,3,0,0,0-2.25-.7c-1,.26-1.45,1.45-1.71,2.47l-2.87,11.13"/><path class="cls-1" d="M436,47.61c-1.38,2.65,2.54,5.61,5.26,4.37s3.72-4.67,3.52-7.66c-3.32-2.72-9.33.23-9.21,4.52"/><path class="cls-1" d="M497.23,43.78a7.2,7.2,0,0,0-7.37,4,6.57,6.57,0,0,0,2,7.91,5.6,5.6,0,0,0,7.74-1.48"/><line class="cls-1" x1="336.29" y1="299.86" x2="330.89" y2="321.15"/><path class="cls-1" d="M212.92,273.48a63.7,63.7,0,0,1,2.57-11.34"/><rect class="cls-2" width="525" height="600"/></g></g></g></g></svg>