<svg xmlns="http://www.w3.org/2000/svg" viewBox="0 0 525 600"><defs><style>.cls-1,.cls-2{fill:none;}.cls-1{stroke:#fff;stroke-linecap:round;stroke-linejoin:round;stroke-width:2px;}</style></defs><title>wojtek2</title><g id="Warstwa_2" data-name="Warstwa 2"><g id="Warstwa_1-2" data-name="Warstwa 1"><g id="Warstwa_2-2" data-name="Warstwa 2"><g id="Warstwa_1-2-2" data-name="Warstwa 1-2"><path class="cls-1" d="M92.61,18.29l1.48,86.56,71.4-43.59c.57-.35,1.2-.79,1.29-1.45a2.26,2.26,0,0,0-.6-1.52,107.42,107.42,0,0,0-73.29-43.1"/><path class="cls-1" d="M95.8,33.73"/><path class="cls-1" d="M94.84,32.85c11.48-1.71,23.25,2.17,33,8.48s17.75,14.91,25.48,23.57l-2.43.8"/><path class="cls-1" d="M101.38,74.79A6.77,6.77,0,0,0,106,87.28a7.26,7.26,0,0,0,5.46-8.63,7.68,7.68,0,0,0-8.88-5.31,8.16,8.16,0,0,0-6,8.58"/><path class="cls-1" d="M126.83,80.86c-4.58-3.12-4.83-10.86-.47-14.28s11.82-1.31,13.75,3.89"/><path class="cls-1" d="M105.47,54c3.08-2.23,8.21-.06,8.76,3.7s-3.75,7.31-7.34,6-4.74-6.71-2-9.31"/><path class="cls-1" d="M428.65,22.55A33.25,33.25,0,0,0,402,28.08c-4.93,3.61-9,9.29-8.36,15.36.93,8.67,10.46,13.47,18.92,15.6A106.74,106.74,0,0,0,472,56.8c5.57-1.86,11.45-4.6,13.94-9.92,2.17-4.61,1.17-10.27-1.59-14.55s-7-7.36-11.55-9.74a59,59,0,0,0-48.53-2.7"/><path class="cls-1" d="M398.17,52.87c-3.08-1.09-6.54-2.16-9.49-.78s-3.89,6.47-.86,7.66c1.23.49,2.63.15,3.94.3,3.65.41,5.93,5.27,3.9,8.34l11.88-.64a5,5,0,0,1,2.76.38c2.15,1.22,1.69,5,3.89,6.09,4.14,2.12,6.63-8.17,11-6.47,2.92,1.15,2,6.56,5,7.56,2.19.74,4.1-1.75,4.74-4,2.94-.87,5.71,1.54,8,3.52s5.93,3.69,8.23,1.67c2.47-2.17,1.73-7.44,5-8,2.88-.53,4.37,3.65,7.15,4.59,5.08,1.72,7.83-7.86,13.19-7.67,2.8.1,5.78,2.92,8,1.19,2-1.53.62-4.62-.82-6.64,1.56-2.7,6.26.51,8.75-1.38,1.41-1.07,1.27-3.35.19-4.75a10.12,10.12,0,0,0-4.42-2.78,11,11,0,0,1,11-.6c1-2.54-.8-5.49-3.24-6.72s-5.3-1.19-8-1.12"/><path class="cls-1" d="M393.89,63.41c-4.69,1.12-5.25,8.3-1.93,11.79s8.53,4.24,13.33,4.78l32.32,3.65c6.33.71,12.69,1.43,19,1.07A57.32,57.32,0,0,0,493.78,68c2.13-2.15,4.16-5.57,2.29-8-1.59-2-5.52-2.47-5.39-5"/><path class="cls-1" d="M401,79.48c-1.58.26-2,2.62-.94,3.87s2.73,1.61,4.31,1.89a291.29,291.29,0,0,0,58,4.39c6.45-.16,13.09-.58,18.92-3.34S492,77.89,492,71.44"/><path class="cls-1" d="M389.76,76.7c-3.64-.52-6,4.44-4.59,7.81s5,5.23,8.42,6.67a130.22,130.22,0,0,0,29.59,8.63c6.62,1.1,13.32,1.69,20,2.28,8.73.77,17.59,1.53,26.19-.15,6.51-1.27,12.66-3.9,19-5.68,3-.85,6.28-1.57,8.7-3.62a9.59,9.59,0,0,0-5.63-16.89"/><path class="cls-1" d="M412.33,41.44h1"/><path class="cls-1" d="M423.92,45.3"/><path class="cls-1" d="M423.92,34.68"/><path class="cls-1" d="M432.61,42.41"/><path class="cls-1" d="M432.61,55.92"/><path class="cls-1" d="M431.64,32.75"/><path class="cls-1" d="M449,43.37"/><path class="cls-1" d="M438.4,30.82"/><path class="cls-1" d="M440.33,51.1"/><path class="cls-1" d="M451,31.78"/><path class="cls-1" d="M468.34,43.37"/><path class="cls-1" d="M456.75,49.17"/><path class="cls-1" d="M477,38.54"/><path class="cls-1" d="M459.65,29.85"/><path class="cls-1" d="M438.4,25"/><path class="cls-1" d="M408.47,35.65"/><path class="cls-1" d="M49.28,161.89a52.64,52.64,0,0,0,39.85-9,164.26,164.26,0,0,1,9.93,28.79c2.48,9.89,4.16,20.61.37,30.08S84.5,228.4,75.07,224.5c-5.46-2.26-9-7.48-11.94-12.62A128.58,128.58,0,0,1,47,158.28"/><path class="cls-1" d="M98.8,170.7c-.16.65-1.19.34-1.59-.2-1.68-2.25-.54-5.68,1.66-7.42s5.11-2.23,7.89-2.65a6.35,6.35,0,0,1,3.18.05c1.62.61,2.45,2.38,3,4a70.29,70.29,0,0,1,4.15,19.72c.16,2.49.12,5.19-1.35,7.21-2.79,3.82-8.63,2.94-13.19,1.66"/><path class="cls-1" d="M62.06,152.78c-3.47,1-7.08-2-8.06-5.48s-.07-7.18.85-10.68c1.15-4.38,2.32-9.1.72-13.34-2.64-7-11.33-9.37-18.82-9.84"/><path class="cls-1" d="M67.69,148.17c-4.76-.69-6.45-6.88-5.61-11.61s3.11-9.45,2-14.14c-1.76-7.64-10.91-10.52-18.6-12.06"/><path class="cls-1" d="M71.74,144.61c-2.55-2-3.34-5.56-3.22-8.8s1-6.43,1-9.67a19.38,19.38,0,0,0-11.32-17.5"/><path class="cls-1" d="M413.91,240.79q13.82,31.63,26,63.92a301.94,301.94,0,0,0,3.29-70.89c-.1-1.44-1-3.4-2.31-2.89"/><path class="cls-1" d="M412.32,238.94l29-7.51"/><path class="cls-1" d="M412.24,238.08A13.26,13.26,0,0,1,401,231.55c-1.1-1.92-1.67-4.35-.65-6.31a8.93,8.93,0,0,1,2.87-2.85l10.28-7.49c-.44-3.62-7.63-.5-9.35-3.72-1.32-2.47,2.3-4.57,5-5.07s6.37-2.62,5-5.08a5.84,5.84,0,0,0-2.45-1.88,9.79,9.79,0,0,1,7.15-18c-4.43,2.6-3.32,10.67,1.65,12,2.1.55,4.39,0,6.43.78a5.84,5.84,0,0,1,3.17,7.63q-.08.19-.17.37c-.87,1.52-1.86,4.23-.11,4.26,4.87-2.63,11.48-5.06,15.37-1.13,1.79,1.8,2.35,4.46,2.65,7,.38,3.21.4,6.69-1.36,9.41-3.14,4.86-10.07,5-15.83,4.59"/><path class="cls-1" d="M441.8,393.74l12.74,34.46a121.19,121.19,0,0,0,26,1.24L487,390.81a101.34,101.34,0,0,1-43.63,0"/><path class="cls-1" d="M454.63,400.68a186.66,186.66,0,0,0,5.61,24"/><path class="cls-1" d="M464.44,404.51l2.3,19.27"/><path class="cls-1" d="M473.23,404.5a112.17,112.17,0,0,1-.5,21.28"/><path class="cls-1" d="M448.23,389.75c-3.79-.88-8.62-3.34-7.58-7.1a7.28,7.28,0,0,1,1.94-2.87l10-10.62c-3.57.17-4.69-5.52-2.1-8s6.6-2.4,10.16-2.08a1.47,1.47,0,0,0-.77-2.29"/><path class="cls-1" d="M471.63,360.21c1.22-1.78,4.09-1.73,5.72-.33a7.6,7.6,0,0,1,2.2,5.86c0,2.6-1.5,5.77-4.09,5.58.29,1.67,2.74,1.28,4.43,1.07a6.72,6.72,0,0,1,5.58,2,7.43,7.43,0,0,1,.28,9.47,8.91,8.91,0,0,1-9.35,2.74"/><path class="cls-1" d="M460.61,355.07a3.2,3.2,0,0,0-.46,3.87c3.08,1,6.93-.78,7.74-3.92s-2.25-6.74-5.41-6-4.14,5.86-1.26,7.35"/><path class="cls-1" d="M462.94,348.44c-.45-5.21-.89-10.51.17-15.64s3.87-10.14,8.48-12.61c-1,3.15-1.63,6.62-.45,9.71S476,335.32,479,334a14.5,14.5,0,0,0-9.48-12.68"/><path class="cls-1" d="M11.44,390.48q18-29.91,33.41-61.33a301.7,301.7,0,0,0,16.48,66.47c1.34,3.59,2.6,8.08,0,10.89-1.39,1.49-3.51,2-5.51,2.44-8.72,1.86-17.75,3.28-26.51,1.62s-17.31-7-20.69-15.19"/><path class="cls-1" d="M6.22,396.82c-2.08,1.54-2.3,4.73-1.13,7s3.38,3.88,5.6,5.2a55.84,55.84,0,0,0,53,1.71"/><path class="cls-1" d="M17.4,388.72c2.55-1.08,5.34,1.21,8.1,1,3.71-.26,5.62-5.16,4.16-8.58s-5-5.42-8.52-6.7"/><path class="cls-1" d="M39.63,398.35c-.53,4.17,5.24,7.44,8.63,5s2.23-8.79-1.78-10.06-8.54,3-7.7,7.09"/><path class="cls-1" d="M37.53,367.33c-.9,3.5,3.64,6.93,6.81,5.18s2.78-7.31-.56-8.69-7.51,2.12-6.81,5.66"/><path class="cls-1" d="M24.21,521c-4.12-.63-7.61,2.84-10.32,6-3.92,4.58-8,10.93-5,16.12,1.66,2.79,4.93,4.15,8,5.09A70.46,70.46,0,0,0,78.78,537.3a17.69,17.69,0,0,0,5.37-5.68c1.21-2.33,1.39-5.36-.17-7.48-1.27-1.71-3.4-2.52-5.42-3.17a88.66,88.66,0,0,0-54.58.34"/><path class="cls-1" d="M12.56,545.84c-3.35.36-6.94,1.65-8.55,4.62s.23,7.62,3.61,7.55c1.68,0,3.13-1.15,4.72-1.71s3.85-.2,4.22,1.44a5.42,5.42,0,0,1-.16,2,6.38,6.38,0,0,0,4.14,6.77,6.38,6.38,0,0,0,7.39-2.91c1-1.9,1.78-4.82,3.93-4.56a3.37,3.37,0,0,1,1.91,1.18c1.47,1.54,2.62,3.43,4.39,4.6s4.54,1.3,5.72-.46c.72-1.07.64-2.51,1.29-3.63,1.23-2.11,4.4-2.06,6.58-1s4,3,6.28,3.75,5.56-.16,5.83-2.59c.2-1.82-1.3-3.93-.11-5.32a2.76,2.76,0,0,1,1.53-.8c3.1-.7,6.17,1,9.27,1.7s7.32-.38,7.62-3.54c.16-1.66-.88-3.34-.39-4.93,1-3.1,5.58-2.09,8.63-3.19a5.54,5.54,0,1,0-6.31-8.52"/><path class="cls-1" d="M6.11,558.73c-1.5,3.48-.66,7.68,1.5,10.8a20.94,20.94,0,0,0,8.92,6.84c8.35,3.73,17.88,4.15,26.91,2.73s17.68-4.61,26.21-7.89c7.31-2.81,14.74-5.79,20.74-10.82,2-1.63,3.81-3.6,4.4-6.07s-.51-5.5-2.93-6.28a8,8,0,0,0-4.55.37"/><path class="cls-1" d="M8,571.07c-4.63,1.06-6.18,7.51-3.87,11.66s7,6.34,11.5,7.84c27.37,9.1,59.64,1.21,79.73-19.5,2.17-2.24,4.33-4.92,4.27-8S96,557,93.34,558.64"/><path class="cls-1" d="M29,531.64h0"/><path class="cls-1" d="M42.57,535.51"/><path class="cls-1" d="M31.94,544.2"/><path class="cls-1" d="M35.81,529.71"/><path class="cls-1" d="M55.12,532.61"/><path class="cls-1" d="M50.29,544.2"/><path class="cls-1" d="M46.43,525.85"/><path class="cls-1" d="M65.74,527.78"/><path class="cls-1" d="M74.43,533.57"/><path class="cls-1" d="M56.09,541.3"/><path class="cls-1" d="M19.39,541.3"/><path class="cls-1" d="M315.71,541.7c-1.17-3.6-6.14-4.83-9.47-3s-5.08,5.63-5.61,9.38a8.75,8.75,0,0,0,.27,4.33c.84,2.2,3,3.6,5,4.85l19,11.85c-1.07-5.32,2.7-10.23,5.57-14.84s4.74-11.27.76-15a10.45,10.45,0,0,0-4.35-2.19,9.79,9.79,0,0,0-6.5,0c-2,.88-3.53,3.25-2.8,5.34"/><path class="cls-1" d="M82.6,428.45a101.13,101.13,0,0,0,34.07,11.24,32.94,32.94,0,0,0,11.19.08,39.31,39.31,0,0,0,8.94-3.42l18.28-8.76a10.13,10.13,0,0,1-4.49,3"/><path class="cls-1" d="M78.75,459.39c.39-2.6.84-5.33,2.45-7.4s4.8-3.18,6.94-1.66c1.95,1.39,2.18,4.12,3.1,6.32s3.94,4.1,5.51,2.3a4.34,4.34,0,0,0,.78-1.72l1.82-6.39q4.19,5.8,8,11.91a36.76,36.76,0,0,0,5.39-11.27l5.87,10.28a17.39,17.39,0,0,1,4.05-8.73l3.49,5.67,5.22-4.59a20,20,0,0,0,2.93,6.43,18.77,18.77,0,0,0,5.63-9.52,27.23,27.23,0,0,0,6.21,9.16"/><path class="cls-1" d="M396,586l.16-7.43,5.17,5.33,1.52-7.13a28.28,28.28,0,0,1,4.89,6.86l1.86-10.74,5.09,6.88,2.39-6.79a27.46,27.46,0,0,1,6.16,7.66"/><path class="cls-1" d="M388.54,546a32,32,0,0,0,26.1-3.59,44,44,0,0,0,7.83-6.59l.43-.44"/><path class="cls-1" d="M131.35,593.74a103.55,103.55,0,0,0,47.46-28.52"/><path class="cls-1" d="M142,110.49c-5.84.69-12.49,3.1-14.13,8.74-1.25,4.31,1.09,9,4.57,11.86s7.89,4.21,12.19,5.52l20.69,6.3A3.57,3.57,0,0,0,168,143c1-.53,1.21-1.78,1.35-2.87l2.1-16.35c.66-5.11,1.31-10.35.19-15.39s-4.38-9.91-9.29-11.5c-3.14-1-7-.41-9.07,2.12a12,12,0,0,0-2.14,4.95,56.1,56.1,0,0,0-1.43,8.88,16.55,16.55,0,0,1-9.37-2.19"/><path class="cls-1" d="M40.68,20.25a21.69,21.69,0,0,0-10.11,1.63c-3.11,1.49-5.7,4.43-6,7.86-.31,3.91,2.44,7.55,5.85,9.48s7.4,2.5,11.29,3l17.18,2.37,1-14c.35-4.82.65-9.87-1.3-14.29S51.68,8.42,47.07,9.87c-5.12,1.61-6.9,7.87-7.45,13.21"/><path class="cls-1" d="M378.88,123.23c-4.6-2.64-10.22-4.26-15.21-2.47s-8.51,8-6,12.66c2.28,4.26,7.8,5.22,12.49,6.38a51.78,51.78,0,0,1,19.07,9.2,90.77,90.77,0,0,0-.07-31.23c-.71-4-2.74-8.89-6.82-8.95-3,0-5.39,2.93-5.78,5.92s.69,6,1.74,8.8"/><path class="cls-1" d="M17.27,279l6.63,17.1c1.35,3.48,2.87,7.19,6,9.26,2.35,1.56,5.26,1.94,8,2.29,5.79.71,12.52,1.11,16.52-3.14,3-3.24,3.38-8.1,3.49-12.54q.25-10.46,0-20.93a283.26,283.26,0,0,1-34.14,5.87c-3.6.39-8,.34-9.87-2.75-1.29-2.14-.71-5,.85-7a13.36,13.36,0,0,1,6.26-3.93,5.73,5.73,0,0,0,2.59-1.38c1.28-1.47.46-4-1.15-5s-3.67-1.22-5.62-1.31c-1.7-3.94,1.37-9.1,5.64-9.49,2-.18,4,.53,6,.32s4.15-2,3.5-3.92a5.15,5.15,0,0,0-1.58-1.94c-2.57-2.37-4.49-5.67-4.4-9.16s2.62-7,6.08-7.47a8.86,8.86,0,0,0,1.31,10.65c2.84,2.77,7.14,3.25,10.68,5s6.36,6.68,3.64,9.56c-.8.84-2,1.4-2.34,2.51-.56,1.78,1.58,3.34,3.45,3.4s3.74-.67,5.58-.34c2.62.47,4.44,3,4.89,5.66s-.17,5.29-.78,7.88l-8.21,2"/><path class="cls-1" d="M30.24,284.71a96.7,96.7,0,0,0,7,16.75"/><path class="cls-1" d="M39.18,285.53a66.52,66.52,0,0,1,5,14.77"/><path class="cls-1" d="M49.41,282.82c.17,3.22,1.18,15.15,1.93,12.55"/><path class="cls-1" d="M34.93,268.33"/><path class="cls-1" d="M43.62,261.57"/><path class="cls-1" d="M32,251.92"/><path class="cls-1" d="M35.89,256.75v-1"/><path class="cls-1" d="M30.1,268.33l1-1"/><path class="cls-1" d="M365.74,212.51a16.08,16.08,0,0,0-10-8.64c-4.4-1.14-9.53.32-12.17,4s-2.38,9.07-.3,13.21,5.66,7.31,9.33,10.13a105.21,105.21,0,0,0,18,11.15,2.48,2.48,0,0,0,3.45-.62l.14-.23a42.23,42.23,0,0,0,11.32-24.78c.31-3.59,0-7.43-2-10.43s-6.13-4.8-9.37-3.2c-3.73,1.85-5,7.31-9.12,8.23"/><path class="cls-1" d="M43,473.62a12.71,12.71,0,0,0-12.7-4.22c-4.54,1.24-8.08,5.79-7.73,10.48.3,4,3.11,7.41,6,10.19a62.55,62.55,0,0,0,19.77,12.6A42.22,42.22,0,0,1,54,486.82c2.77-4.55,6.58-9.39,5.35-14.57a8.24,8.24,0,0,0-16.14.53c-.14.85-.22,1.84-.92,2.33s-2-.46-1.35-1.06"/><path class="cls-1" d="M222.42,148.8a5.56,5.56,0,1,0,3.75-1.71c-3.77.18-6.44,5-4.64,8.28s7.21,3.73,9.52.75.6-8.09-3-9.12-7.75,2.36-7.47,6.12,4.78,6.52,8.28,5.09c1.13-1.94,1.3-4.71-.36-6.21s-5.11-.24-4.76,2c.32,2,3.89,2.17,4.38.18s-2.75-3.51-4-1.86"/><path class="cls-1" d="M307.86,153.92c-1.09-1.75-4.28.18-3.68,2.16s3.42,2.49,5.17,1.39c2.87-1.8,2.65-6.73-.23-8.5s-7.16-.07-8.31,3.12a6.9,6.9,0,0,0,3.94,8.32c4.09,1.66,9.35-1.41,9.91-5.79s-3.76-8.67-8.13-8.09a5.3,5.3,0,0,0-4.19,2.81c-1.57,3.47,3.24,7.33,6.68,5.72"/><path class="cls-1" d="M494,446.83a17.39,17.39,0,0,0-13.46,2,5.67,5.67,0,0,0-2.63,2.87c-.84,2.67,1.75,5.11,4.16,6.53a47.3,47.3,0,0,0,18.61,6.22,4.32,4.32,0,0,0,2.33-.19,4.39,4.39,0,0,0,1.92-2.84A56.66,56.66,0,0,0,507.72,443c0-3-.69-6.55-3.41-7.86-2.49-1.2-5.62.26-7.19,2.54s-2,5.13-2.37,7.87"/><path class="cls-1" d="M189.82,227c-3.66-2.72-8.73,3.66-6.06,7.35s8.87,2.91,11.93-.48a14.3,14.3,0,0,0-4.32,10.78,16,16,0,0,0,12.3-2.9,5,5,0,1,0,7,6L210.32,259a14.25,14.25,0,0,0,10.54-4.72c-2.5,3.27-3.4,8.26-.72,11.38s9.19,1.76,9.25-2.35l-.66,10.26a6.27,6.27,0,0,0,.36,3.24c1.06,2.1,4.21,2.28,6.16,1s3-3.6,3.89-5.76c3.73,2.86-2.31,9.6.59,13.29,2.57,3.27,7.6-.32,10-3.72-.48,4.15-.77,8.9,2.12,11.9s9.72.85,8.58-3.17l2.78,10.55a6.71,6.71,0,0,0,1.75,3.54c1.89,1.61,5,.55,6.42-1.5s1.54-4.68,1.64-7.16c-1.31,3.9,2.72,8.47,6.76,7.65s6-6.59,3.26-9.67l5.58,6A45.49,45.49,0,0,0,294.09,285c.39,4.31,7.09,5.43,10.06,2.28s2.77-8.17,1.38-12.27a6.89,6.89,0,1,0,9-10.37c4.28,1.21,8.87-3.81,7.29-8a6.84,6.84,0,0,0-4.06-.27,4.17,4.17,0,0,0,3.34-5.63l-4.67-.9"/><path class="cls-1" d="M258.26,598.36c-.8-1.62-1.55-3.28-2.28-4.93-4.12,4.22-12,3.79-15.51-1a10.65,10.65,0,0,1,2.94-15c-5.09.6-11.44-1.16-13.76-6.19-1.86-4-.32-10.14,4.36-11.44-4.6,3-10.49-2.37-10-7.19.56-5.47,7.06-8.5,12-7.51-5.65-.49-11.95-4.86-12.1-11-.14-5.36,5.78-11.07,11.19-8.63"/><path class="cls-1" d="M233,524.73a23.51,23.51,0,0,1-9.91-12c-.8-2.22-1.62-5.35.06-7.41,1.22-1.5,3.93-2.11,5.19-.33-3.25-3.69-6-10.69-1.75-14.72,2.67-2.51,8.55-2.92,10,1.16-2.61-5-2.2-13.18,3.55-15.93,4.4-2.09,11.68.72,11.37,6.25-.53-8,.21-17.93,8.24-22.12,5.89-3.08,16.16,1.4,13.22,9.19,1.34-4.51,3.29-10.78,8.39-12.29,3.49-1,9.2,1,8.66,5.4-1.27-4.89,2.94-10.4,8-10.39s9.27,5.53,8,10.42c2-5,8.93-6.2,13.27-3.64,5.39,3.19,6.35,10.81,4.06,16.18,7.27-9.34,21.54,2.75,13.49,11.46,4.44-.89,11.2-2.06,14.26,2.35,1.81,2.62,1.87,7.94-2,8.74a8.63,8.63,0,1,1-.21,17.11h-.13c7.9,1,12.08,12.23,6.75,18.14,9.92,1.45,9.36,16.55-.68,17.15,12.71,1.73,17,18.66,6.63,26.23a13.55,13.55,0,0,1,.58,22.69"/><path class="cls-1" d="M75.6,391.74a9.57,9.57,0,0,1,5.06-12.33"/><path class="cls-1" d="M84.56,395.43c.08.47-.9.44-.79,0"/><path class="cls-1" d="M79.94,382.38a29.41,29.41,0,0,1,4,14,25.72,25.72,0,0,1,.62-12.26,3.42,3.42,0,0,1,1.44-2.2c1.63-.85,3.34,1,4.09,2.7A27.34,27.34,0,0,1,92.45,394a13.75,13.75,0,0,1,5.11-12.8c1.32-1,3.3-1.74,4.55-.64a4.32,4.32,0,0,1,1,3.32v10.23a19.44,19.44,0,0,1,9.4-16.11,27.73,27.73,0,0,1,3.35,15.07c-.4-2.22-.8-4.53-.2-6.7s2.53-4.15,4.78-4,4.05,2.45,4.32,4.76-.54,4.61-1.33,6.8c.1-2.28.22-4.66,1.3-6.67s3.44-3.54,5.64-2.92c3.49,1,3.72,5.8,3.22,9.4-.1-2.28-.16-4.71,1-6.68s4-3.14,5.79-1.75a5.41,5.41,0,0,1,1.52,2.27A24.71,24.71,0,0,1,143.77,399c-.21-2.33-.39-4.82.74-6.88s4.12-3.23,5.89-1.7c2.51,2.17.06,6.37,1,9.55-.29-3.51.65-7.77,4-9,3.78-1.39,7.76,2.63,7.95,6.65s-2.11,7.68-4.31,11"/><path class="cls-1" d="M368.09,403.74a7.44,7.44,0,0,1-2.64-6.42,3.09,3.09,0,0,1,1.4-2.53c1.51-.77,3.2.68,4.15,2.08a23.33,23.33,0,0,1,3.58,8.63l-.3-7.87a5,5,0,0,1,.43-2.77c1-1.76,3.91-1.47,5.3,0s1.69,3.7,1.93,5.74c1.61-3.56-1.64-9.26,1.9-10.91,1.52-.71,3.41.18,4.37,1.55a10.93,10.93,0,0,1,1.5,4.76l.15-7.37a2.64,2.64,0,0,1,1-2.47c1.1-.56,2.27.59,2.93,1.63a41.74,41.74,0,0,1,4.91,11q-.68-4.43-1.16-8.88a4.53,4.53,0,0,1,.26-2.65c1.14-2.11,4.62-1,5.8,1s1.12,4.67,2.15,6.84"/><path class="cls-1" d="M112.6,556.34c-1.73-.12-2.19-2.83-.9-4s3.31-1,4.91-.31,3,1.77,4.64,2.32c2.21-2.28-.45-7.08,2.15-8.9,3.52-2.47,8.38,5.71,11.53,2.77,2.27-2.12-.84-7,1.77-8.66,3-1.93,6.77,4.53,9.6,2.39,2.46-1.86-1.18-6.29.67-8.76,1.17-1.56,3.73-1.07,5.21.2s2.44,3.09,4,4.26,4.25,1.3,5.1-.46c1-2.12-1.51-4.15-3.64-5.15"/><path class="cls-1" d="M224.67,246.63l-1.75,2.52a107.2,107.2,0,0,1,12.95-22.51A84.72,84.72,0,0,0,243,252.25a40.82,40.82,0,0,1,6.42-14.56A138.37,138.37,0,0,0,263.18,265a152.72,152.72,0,0,1,2.16-31.4,127.39,127.39,0,0,0,18.25,33.87l.33-18L295,262.79l-1.54-11.17q7.52,4.28,14.71,9.11l-1.34-2.44"/><path class="cls-1" d="M286.24,51.21a8.18,8.18,0,0,1-4.58-9.77c1.74-5.34,9-7.23,14.11-4.9s8.31,7.53,10.36,12.76a8.73,8.73,0,0,1,.83,4.13c-.36,3-3.69,5-6.76,5s-5.91-1.54-8.61-3"/><path class="cls-1" d="M230.6,58.53a13,13,0,1,0-23.32.44,11.15,11.15,0,0,0,7.53,6,8.61,8.61,0,0,0,8.71-3.43"/><path class="cls-1" d="M264.34,104.74l-3.15,1.86a5.18,5.18,0,0,1-2-3l-1.83,2.52a3.77,3.77,0,0,0-2.06-4.42l-1.59,3.09a9.06,9.06,0,0,0-3.59-5.34,3.77,3.77,0,0,0-1.36,3.37,4,4,0,0,0-4.48-.12,4.61,4.61,0,0,0-2.66-3.41l-1.55,4-5.41-.86-3.09,3.3"/><path class="cls-1" d="M276.9,105.62a2.21,2.21,0,0,1-3.57.1,8.11,8.11,0,0,1,8.41-1.57l2-2.33,2.62,1.84,3.89-4.29,1.37,4.19a2.43,2.43,0,0,1,3.64-1l1.78-2.4a4.8,4.8,0,0,0,6,3.19l.19-.06,1.78,3.38"/><path class="cls-1" d="M172.79,400.29c-2.78-5.06-1.31-11.73,2.51-16s9.54-6.58,15.25-7.42c2.82-.42,5.84-.58,8.15-2.26,5-3.62,3.53-11.31,5.5-17.14,3.76-11.12,18.42-13,30.16-13l45.47.2c10.76,0,23.38,1,29.19,10.11,4.35,6.78,3.91,17,10.84,21.08,3.81,2.27,8.59,1.78,13,2.62,11,2.13,19,14.45,16.34,25.39l-25.81,2.38c1-8.78-5.91-18.25-14.75-18.27S292.8,399.46,298,406.59q-36.08-2-71.85-7.57c.42-7.38-6.05-14.45-13.44-14.67s-14.28,6.44-14.3,13.84c0,1.23.13,2.57-.55,3.6-1,1.44-3,1.56-4.72,1.54L173.79,403"/><path class="cls-1" d="M297.76,410.25a11.54,11.54,0,0,0,22.47-4.78"/><path class="cls-1" d="M480.45,168.23l-15.16-45.59c-.4-1.19-2.28-2.36-2.47-1.12"/><path class="cls-1" d="M490.31,275.27a8.74,8.74,0,0,0-16.25-1.82,16.71,16.71,0,0,0-1.33,7.18c-.09,3.27-.07,6.62,1.1,9.67,2.39,6.21,8.86,9.67,14.83,12.61l6.93,3.41a5.39,5.39,0,0,0,3.06.8,5.12,5.12,0,0,0,2.87-2,46.88,46.88,0,0,0,10.63-21.2c.88-4.17,1.14-8.68-.67-12.53s-6.23-6.72-10.33-5.6c-2.72.74-4.74,3-6.6,5.09l-4.64,5.3"/><path class="cls-1" d="M198.22,399.38c-1.75,2.59-1.29,6.18.3,8.87s4.11,4.67,6.57,6.59c1.77,1.38,3.61,2.79,5.8,3.25,4,.85,8.09-1.85,10.06-5.42s2.24-7.83,2.17-11.91"/><path class="cls-1" d="M434.56,511.48q18.77,26.41,37.6,52.77c-1-10.44.43-20.94,1.46-31.39s1.61-21,1.72-31.56"/><path class="cls-1" d="M464.55,509.12l30,46.31,4.4-58.26a2.13,2.13,0,0,0-.45-1.86c-.51-.42-1.54.17-1.17.72"/><path class="cls-1" d="M242.73,356.22q6.27,17.66,12.57,35.31c1.07-6,3.55-11.59,5.78-17.23S265.3,362.86,267,357"/><path class="cls-1" d="M259.8,359.66l9.35,30.51,11.66-31.72a1.23,1.23,0,0,0,0-1.1c-.22-.32-.89-.15-.77.22"/><path class="cls-1" d="M477.37,170.51a94.65,94.65,0,0,1,22.25,3.7,2.36,2.36,0,0,1,1.21.64c.56.67.23,1.66.09,2.52-.71,4.18,3.33,7.41,5.65,11s3,7.68,3.19,11.8c.34,6.62-.77,13.89-5.61,18.43-3.52,3.3-8.55,4.63-13.37,4.46s-9.49-1.72-14-3.54a32.61,32.61,0,0,1-7.67-4.1c-7.93-6.11-9.6-18.87-3.51-26.81,1.8-2.35,4.13-4.27,5.77-6.73s2.46-5.82.92-8.35"/><rect class="cls-2" width="525" height="600"/></g></g></g></g></svg>