<svg xmlns="http://www.w3.org/2000/svg" viewBox="0 0 95.06 125"><defs><style>.cls-1{fill:#e31c39;}</style></defs><title>MidOcean</title><g id="Warstwa_2" data-name="Warstwa 2"><g id="Warstwa_1-2" data-name="Warstwa 1"><path class="cls-1" d="M95.06,33.12H79.16c-1.93,0-1.95,0-2-2q0-7,0-14c0-2,0-2,2-2l15.9,0Z"/><path class="cls-1" d="M42.24,0c0,3.48,0,7,0,10.43,0,1.63,0,1.65-1.57,1.66-3,0-6,0-9,0-.76,0-1.39,0-1.37-1.06.08-3.68-.16-7.36.14-11Z"/><path class="cls-1" d="M62.79,81c-4.12,0-8.25,0-12.37,0-1.86,0-1.89,0-1.9-1.87q0-12.47,0-24.94c0-1.81,0-1.83,1.92-1.84q12.47,0,24.94,0c1.74,0,1.78,0,1.78,1.75q0,12.58,0,25.15c0,1.7-.05,1.73-1.8,1.74C71.17,81,67,81,62.79,81Z"/><path class="cls-1" d="M19.17,125c-5.54,0-11.08,0-16.62,0C.06,125,0,124.94,0,122.48Q0,105.72,0,89c0-2.43,0-2.46,2.58-2.47q16.76,0,33.51,0c2.33,0,2.39,0,2.39,2.36q0,16.9,0,33.79c0,2.28-.07,2.33-2.42,2.34C30.44,125,24.81,125,19.17,125Z"/><path class="cls-1" d="M35.24,41.94c0,3.63,0,7.25,0,10.88,0,1.63-.06,1.69-1.61,1.69q-11,0-22,0c-1.59,0-1.64-.05-1.64-1.67q0-11,0-22c0-1.47.1-1.58,1.52-1.59q11.09,0,22.17,0c1.45,0,1.51.07,1.52,1.57C35.26,34.55,35.24,38.24,35.24,41.94Z"/></g></g></svg>