<svg xmlns="http://www.w3.org/2000/svg" viewBox="0 0 200 200"><defs><style>.cls-3{fill:none;}.cls-2{fill:#0174c1;}</style></defs><title>ts</title><g id="Warstwa_2" data-name="Warstwa 2"><g id="Warstwa_1-2" data-name="Warstwa 1"><rect class="cls-3" width="200" height="200"/><g id="Warstwa_2-2" data-name="Warstwa 2"><g id="Warstwa_1-2-2" data-name="Warstwa 1-2"><path fill="#0174c1" d="M100.17,37.54q30.16,0,60.38,0c1.49,0,1.95.36,1.95,1.91q-.06,60.62,0,121.24c0,1.5-.47,1.83-1.88,1.83q-60.54,0-121.09,0c-1.56,0-2-.36-2-2q.07-60.46,0-120.92c0-2,0-2.06,2.09-2.06Zm11.47,103.08c1.76,2.16,3.05,4.32,4.89,5.92,6.82,6,14.9,7.26,23.45,5.22,7.21-1.73,12-6.11,12.76-13.91.67-7.08-1.95-12.69-8.17-16.29-3.26-1.89-6.72-3.38-10.11-5.09a46.74,46.74,0,0,1-5.23-2.86,4.85,4.85,0,0,1-1.66-5.36c.69-2.16,2-3.13,4.43-3.34a7.24,7.24,0,0,1,7.33,3.6c.42.66.81,1.39,1.83.68,2.44-1.67,4.89-3.29,7.33-4.89.61-.4.89-.8.39-1.53-2.28-3.32-4.93-6.33-8.93-7.33a37,37,0,0,0-9-1,15.31,15.31,0,0,0-14.61,10.28c-2.06,6.37-.75,13.59,5,17.91,3,2.24,6.49,3.8,9.81,5.58,2.35,1.26,4.83,2.3,7.16,3.61a5.14,5.14,0,0,1-.78,9.19,12.19,12.19,0,0,1-7.42.55c-3.44-.66-5.67-3-7.69-5.62-.29-.38-1.11-.84-1.37-.7C118,136.89,115,138.65,111.64,140.62ZM92.89,105.51h16.18V96c0-1-.61-1-1.34-1.05-3.57,0-7.15-.05-10.71,0q-15.54,0-31,.05c-.81,0-1.27.2-1.26,1.14q0,4.18,0,8.35c0,.93.42,1.15,1.25,1.14,1.94,0,3.88,0,5.83,0h9.1v2.5c0,14,0,27.95,0,41.92,0,1.55.47,2,2,1.94,2.57-.1,5.15,0,7.72,0,2.35,0,2.35,0,2.35-2.31v-41.6c0-.77,0-1.5,0-2.54Z"/></g></g></g></g></svg>
