<svg xmlns="http://www.w3.org/2000/svg" viewBox="0 0 204.68 204.66"><title>Zasób 5</title><g id="Warstwa_2" data-name="Warstwa 2"><g id="Warstwa_1-2" data-name="Warstwa 1"><path fill="#0174c1" d="M102.61.05Q152,.05,201.48,0c2.44,0,3.19.59,3.19,3.12q-.1,99.26,0,198.52c0,2.46-.77,3-3.08,3q-99.13-.08-198.27,0c-2.56,0-3.34-.59-3.33-3.27q.12-99,.06-198C.06.05.07,0,3.48,0Zm18.78,168.79c2.88,3.54,5,7.07,8,9.69,11.16,9.83,24.39,11.89,38.4,8.54,11.81-2.83,19.7-10,20.9-22.78,1.09-11.59-3.19-20.78-13.38-26.68-5.34-3.09-11-5.53-16.56-8.33a76.54,76.54,0,0,1-8.56-4.69c-2.73-1.86-3.69-5.72-2.71-8.78,1.13-3.54,3.34-5.13,7.25-5.47,5.22-.46,9.22,1.42,12,5.89.68,1.08,1.33,2.28,3,1.12,4-2.74,8-5.38,12-8,1-.66,1.46-1.31.64-2.5-3.73-5.43-8.08-10.36-14.63-12A60.51,60.51,0,0,0,153,93.2c-10.93,0-20.72,6.91-23.93,16.84-3.37,10.43-1.23,22.25,8.19,29.32,4.89,3.67,10.63,6.22,16.06,9.14,3.85,2.07,7.91,3.77,11.72,5.91,3.13,1.76,4.35,4.72,4,8.32-.34,3.37-2.32,5.43-5.27,6.73-3.94,1.74-8,1.69-12.15.9-5.64-1.08-9.29-4.88-12.59-9.2-.48-.63-1.81-1.38-2.24-1.14C131.81,162.72,126.95,165.61,121.39,168.84Zm-30.7-57.49h26.49c0-5.41,0-10.47,0-15.54,0-1.64-1-1.71-2.19-1.72-5.85,0-11.7-.09-17.54-.08Q72,94,46.63,94.1c-1.33,0-2.08.33-2.07,1.87q.06,6.84-.06,13.67c0,1.53.69,1.88,2.05,1.86,3.18-.06,6.36,0,9.55,0H71c0,1.56,0,2.83,0,4.1,0,22.88.05,45.76,0,68.64,0,2.53.77,3.27,3.22,3.17,4.21-.17,8.43,0,12.64,0,3.84,0,3.85,0,3.85-3.78q0-34.06,0-68.12C90.68,114.25,90.68,113.06,90.68,111.35Z"/></g></g></svg>
