<svg xmlns="http://www.w3.org/2000/svg" viewBox="0 0 408.5 622"><defs><style>.clop-1,.clop-3{fill:#fff;}.clop-2{fill:none;}.clop-2,.clop-3,.clop-4{stroke:#1a1a1a;stroke-miterlimit:10;stroke-width:3px;}.clop-4{fill:#ffdf00;}</style></defs><title>jezyk</title><g id="Warstwa_2" data-name="Warstwa 2"><g id="Warstwa_1-2" data-name="Warstwa 1"><polyline data-start="90" data-duration="30"  class="clop-1" points="0 176 41 137 377 137 377 582 377 582 338 622 0 622 "/><path data-start="90" data-duration="30"  class="clop-2" d="M296.69,202.91,221.8,277.79l0,.05s-.07.1-.11.15a2,2,0,0,0-.26.42,1.92,1.92,0,0,0-.08.21,1.5,1.5,0,0,0-.06.16l-6.09,32.09,32.09-6.09.06,0,.16-.06a2,2,0,0,0,.5-.26l.16-.12.12-.09,74.88-74.88Z"/><path data-start="90" data-duration="30"  class="clop-2" d="M302.51,197.14h37.38a0,0,0,0,1,0,0v11a4.35,4.35,0,0,1-4.35,4.35H306.86a4.35,4.35,0,0,1-4.35-4.35v-11a0,0,0,0,1,0,0Z" transform="translate(403.5 576.77) rotate(-135)"/><line  data-start="90" data-duration="30" class="clop-2" x1="307.4" y1="227.82" x2="238.56" y2="296.66"/><line  data-start="90" data-duration="30" class="clop-2" x1="298.22" y1="218.64" x2="229.38" y2="287.48"/><circle data-start="90" data-duration="30"  class="clop-2" cx="143" cy="359.5" r="28.36"/><path data-start="90" data-duration="30"  class="clop-2" d="M143,331.14c8.23,0,14.9,12.7,14.9,28.36s-6.67,28.36-14.9,28.36"/><path data-start="90" data-duration="30"  class="clop-2" d="M143,387.86c-8.23,0-14.9-12.7-14.9-28.36s6.67-28.36,14.9-28.36"/><line  data-start="90" data-duration="30" class="clop-2" x1="143" y1="331.14" x2="143" y2="387.86"/><line  data-start="90" data-duration="30" class="clop-2" x1="114.64" y1="359.5" x2="171.36" y2="359.5"/><line  data-start="90" data-duration="30" class="clop-2" x1="117.96" y1="346.16" x2="168.04" y2="346.16"/><line  data-start="90" data-duration="30" class="clop-2" x1="117.96" y1="372.75" x2="168.04" y2="372.75"/><polyline data-start="60" data-duration="30"  class="clop-2" points="359 553 359 155.04 47.2 155.04"/><line  data-start="90" data-duration="30" class="clop-2" x1="133" y1="271.5" x2="203" y2="271.5"/><line  data-start="90" data-duration="30" class="clop-2" x1="47" y1="227.5" x2="120" y2="227.5"/><line  data-start="90" data-duration="30" class="clop-2" x1="202" y1="227.5" x2="247" y2="227.5"/><line  data-start="90" data-duration="30" class="clop-2" x1="47" y1="315.5" x2="189" y2="315.5"/><line  data-start="90" data-duration="30" class="clop-2" x1="277" y1="315.5" x2="332" y2="315.5"/><line  data-start="90" data-duration="30" class="clop-2" x1="196" y1="359.5" x2="332" y2="359.5"/><line  data-start="90" data-duration="30" class="clop-2" x1="47" y1="403.5" x2="176" y2="403.5"/><line  data-start="90" data-duration="30" class="clop-2" x1="250" y1="403.5" x2="332" y2="403.5"/><line  data-start="90" data-duration="30" class="clop-2" x1="147" y1="447.5" x2="219" y2="447.5"/><line  data-start="90" data-duration="30" class="clop-2" x1="47" y1="447.5" x2="74" y2="447.5"/><line  data-start="90" data-duration="30" class="clop-2" x1="302" y1="447.5" x2="332" y2="447.5"/><line  data-start="90" data-duration="30" class="clop-2" x1="47" y1="491.5" x2="94" y2="491.5"/><line  data-start="90" data-duration="30" class="clop-2" x1="168" y1="491.5" x2="332" y2="491.5"/><line  data-start="90" data-duration="30" class="clop-2" x1="102" y1="535.5" x2="338" y2="535.5"/><polyline data-start="90" data-duration="30"  class="clop-2" points="276.1 436.76 254.73 458.13 244.04 447.44"/><polyline data-start="90" data-duration="30"  class="clop-3" points="105.36 260.82 84 282.18 73.3 271.49"/><polyline data-start="90" data-duration="30"  class="clop-3" points="176.39 214.82 155.02 236.18 144.33 225.49"/><line  data-start="90" data-duration="30" class="clop-2" x1="64.5" y1="524" x2="64.5" y2="547"/><line  data-start="90" data-duration="30" class="clop-2" x1="76" y1="535.5" x2="53" y2="535.5"/><line  data-start="90" data-duration="30" class="clop-2" x1="213.5" y1="392" x2="213.5" y2="415"/><line  data-start="90" data-duration="30" class="clop-2" x1="225" y1="403.5" x2="202" y2="403.5"/><line  data-start="90" data-duration="30" class="clop-2" x1="79.5" y1="348" x2="79.5" y2="371"/><line  data-start="90" data-duration="30" class="clop-2" x1="91" y1="359.5" x2="68" y2="359.5"/><line  data-start="90" data-duration="30" class="clop-2" x1="110.5" y1="436" x2="110.5" y2="459"/><line  data-start="90" data-duration="30" class="clop-2" x1="122" y1="447.5" x2="99" y2="447.5"/><polyline data-start="40" data-duration="80"  class="clop-2" points="397.83 287.48 398.29 559.55 359 599.5 19.5 599.5 21.93 154.06 62 114.5 370 114.5"/><circle data-start="20" data-duration="20"  class="clop-4" cx="398" cy="278.64" r="9"/><circle data-start="40" data-duration="20"  class="clop-2" cx="359" cy="562" r="9"/><line  data-start="0" data-duration="15" class="clop-2" x1="397.5" x2="397.5" y2="270"/></g></g></svg>
