<svg xmlns="http://www.w3.org/2000/svg" viewBox="0 0 408.5 509"><defs><style>.clop-1,.clop-3{fill:#fff;}.clop-2{fill:none;}.clop-2,.clop-3,.clop-4{stroke:#1a1a1a;stroke-miterlimit:10;stroke-width:3px;}.clop-4{fill:#ffdf00;}</style></defs><title>jezyk</title><g id="Warstwa_2" data-name="Warstwa 2"><g id="Warstwa_1-2" data-name="Warstwa 1"><path class="clop-1" d="M0 64l41-40h336v445l-39 40H0"/><path data-start="70" data-duration="30" class="clop-2" d="M296.7 90l-75 74.8v.2a2 2 0 0 0-.3.4 2 2 0 0 0 0 .2 1.5 1.5 0 0 0 0 .2l-6.2 32 32-6h.2a2 2 0 0 0 .6-.3l.2-.2 75-75zM329 110.5L302.6 84l7.7-7.7a4.3 4.3 0 0 1 6.2 0l20.3 20.2a4.3 4.3 0 0 1 0 6.2l-7.8 7.8zM307.4 114.8l-68.8 69M298.2 105.6l-68.8 69"/><circle data-start="70" data-duration="30" class="clop-2" cx="143" cy="246.5" r="28.4"/><path data-start="70" data-duration="30" class="clop-2" d="M143 218c8.2 0 15 12.8 15 28.5S151 275 143 275M143 275c-8.2 0-15-12.8-15-28.5S135 218 143 218M143 218v57M114.6 246.5h56.8M118 233.2h50M118 259.8h50"/><path data-start="40" data-duration="40" class="clop-2" d="M359 440V42H47.2"/><path data-start="70" data-duration="30" class="clop-2" d="M133 158.5h70M47 114.5h73M202 114.5h45M47 202.5h142M277 202.5h55M196 246.5h136M47 290.5h129M250 290.5h82M147 334.5h72M47 334.5h27M302 334.5h30M47 378.5h47M168 378.5h164M102 422.5h236M276 323.8L254.8 345 244 334.5"/><path data-start="70" data-duration="30" class="clop-3" d="M105.4 147.8L84 169.2l-10.7-10.7M176.4 101.8L155 123.2l-10.7-10.7"/><path data-start="70" data-duration="30" class="clop-2" d="M64.5 411v23M76 422.5H53M213.5 279v23M225 290.5h-23M79.5 235v23M91 246.5H68M110.5 323v23M122 334.5H99"/><path data-start="20" data-duration="80" class="clop-2" d="M397.8 174.5l.5 272-39.3 40H19.5L22 41 62 1.6h308"/><circle data-start="0" data-duration="20" class="clop-4" cx="398" cy="165.6" r="9"/><circle data-start="20" data-duration="20" class="clop-2" cx="359" cy="449" r="9"/></g></g></svg>
