<svg xmlns="http://www.w3.org/2000/svg" viewBox="0 0 716.91 615.21"><defs><style>.clj-1{fill:#fff;}.clj-1,.clj-2,.clj-3{stroke:#1a1a1a;stroke-miterlimit:10;stroke-width:3px;}.clj-2{fill:#f2f2f2;}.clj-3{fill:none;}</style></defs><title>UX</title><g id="Warstwa_2" data-name="Warstwa 2"><g id="Warstwa_1-2" data-name="Warstwa 1"><g id="Laptop"><circle data-start="95" data-duration="85"  id="webcam" class="clj-1" cx="359.43" cy="239.26" r="4.13"/><g id="bottom"><path data-start="120" data-duration="60"  id="Shape" class="clj-1" d="M662.5,613.71H54.4c-31.61,0-52.9-10.85-52.9-15.46v-14a2.84,2.84,0,0,1,3.09-2.5H712.31a2.84,2.84,0,0,1,3.09,2.5V598.8C715.4,602.44,698.91,613.71,662.5,613.71Z"/><path data-start="120" data-duration="45"  id="Line" class="clj-1" d="M2,596.68H713.49"/></g><rect data-start="95" data-duration="85"  id="screen" class="clj-2" x="99.49" y="259.89" width="516.86" height="301.21"/><path data-start="125" data-duration="25"  id="touchpad" class="clj-1" d="M435.76,582.75v3.18c0,2.27-4.47,3-7.85,3H289.1c-3.56,0-8.06-.68-8.06-3v-3.18"/></g><circle data-start="40" data-duration="20"  class="clj-1" cx="640" cy="334.04" r="9"/><rect data-start="95" data-duration="85"  class="clj-2" x="115.59" y="275.99" width="86.29" height="25.07"/><rect data-start="95" data-duration="85"  class="clj-2" x="339.76" y="282.25" width="43.14" height="12.53"/><rect data-start="95" data-duration="85"  class="clj-2" x="394.1" y="282.25" width="43.14" height="12.53"/><rect data-start="95" data-duration="85"  class="clj-2" x="448.43" y="282.25" width="43.14" height="12.53"/><rect data-start="95" data-duration="85"  class="clj-2" x="502.77" y="282.25" width="43.14" height="12.53"/><rect data-start="95" data-duration="85"  class="clj-2" x="557.11" y="282.25" width="43.14" height="12.53"/><line data-start="95" data-duration="85"  class="clj-3" x1="115.59" y1="275.99" x2="201.88" y2="301.05"/><line data-start="95" data-duration="85"  class="clj-3" x1="201.88" y1="275.99" x2="115.59" y2="301.05"/><rect data-start="95" data-duration="85"  class="clj-2" x="115.59" y="327.66" width="165.45" height="217.34"/><rect data-start="95" data-duration="85"  class="clj-1" x="291.63" y="327.66" width="308.63" height="217.34"/><rect data-start="95" data-duration="85"  class="clj-2" x="309.06" y="344.54" width="104.11" height="20.46"/><rect data-start="95" data-duration="85"  class="clj-2" x="309.06" y="374.8" width="182.52" height="14.07"/><rect data-start="95" data-duration="85"  class="clj-2" x="309.06" y="414.76" width="202.86" height="112.94"/><rect data-start="95" data-duration="85"  class="clj-1" x="155.17" y="378.99" width="86.29" height="114.69"/><line data-start="95" data-duration="85"  class="clj-3" x1="155.17" y1="378.99" x2="241.46" y2="493.67"/><line data-start="95" data-duration="85"  class="clj-3" x1="241.46" y1="378.99" x2="155.17" y2="493.67"/><path data-start="60" data-duration="60"  class="clj-3" d="M639.87,325v-79.8H640a25.84,25.84,0,0,0-25.79-25.57H102.59A25.87,25.87,0,0,0,76.8,245.23V581.75H640"/><line data-start="20" data-duration="20"  class="clj-3" x1="639.87" y1="10.5" x2="639.87" y2="241.34"/><circle data-start="0" data-duration="20"  class="clj-1" cx="639.87" cy="10.5" r="9"/></g></g></svg>
