<svg xmlns="http://www.w3.org/2000/svg" viewBox="0 0 113 113.55"><title>Zasób 33</title><g id="Warstwa_2" data-name="Warstwa 2"><g id="Warstwa_1-2" data-name="Warstwa 1"><path fill="#1563ff" d="M112.39,8.13h0c-.11,0-.29-.34-.44-.39-1.18-.69-2.36-1.39-3.5-2.08s-2-1.21-3.05-1.78a.24.24,0,0,1-.11.08C103,5.25,100.85,6.51,98.6,7.83c-.09,0-.11.11-.2,0s-.2,0-.29-.09c-.36-.2-.74-.45-1.14-.65L91.52,3.94c-.11-.09-.16,0-.25,0l-3.43,2C86.62,6.6,85.44,7.33,84.21,8S81.8,9.36,80.62,10l-5,2.9c-1.43.82-2.85,1.63-4.28,2.47a5.48,5.48,0,0,0-1.18.65.52.52,0,0,0-.2.33V24c0,.16.11.33.06.49-2.27,5.95-4.64,11.85-6.91,17.8a1.07,1.07,0,0,0-.16.53v9.6c0,.2.1.33-.1.45-1.52.85-3,1.76-4.5,2.65a.88.88,0,0,0-.25.25c-.65,1.67-1.25,3.3-1.9,5-.16,0-.1-.2-.19-.29-1.27-3.19-2.47-6.39-3.65-9.56C49,42.11,45.58,33.35,42.22,24.6a2.3,2.3,0,0,1-.22-.74V16.18s.06-.09,0-.11c-1.34-.74-2.6-1.52-3.94-2.27l-4.41-2.56c-1.38-.82-2.79-1.63-4.18-2.41C27.87,7.89,26.21,7,24.63,6s-3-1.76-4.61-2.61c-1.14-.65-2.27-1.29-3.45-2C15.83.91,15.05.47,14.29.07a.33.33,0,0,0-.4,0c-.49.29-1,.58-1.43.82C10.64,1.92,8.84,3.05,7,4c-1.29.65-2.52,1.43-3.79,2.16C2.12,6.71,1,7.33,0,7.93v8.22c0,.09.1.16.12.25,2.85,7,5.75,13.88,8.6,20.81a.74.74,0,0,0,.29.36c1.63.89,3.16,1.87,4.79,2.76.2.09.2.2.2.4v9.11a2,2,0,0,0,.16.65Q24.62,75.79,35,101.06a1,1,0,0,0,.5.53l20.57,11.85c.09,0,.11.11.25.09l.2-.09c1.27-.69,2.47-1.43,3.74-2.12,1-.58,2.07-1.18,3.1-1.78a1.55,1.55,0,0,1,.29-.11c1.76-1,3.45-2,5.17-3,2.81-1.58,5.57-3.21,8.38-4.81a1.19,1.19,0,0,0,.29-.29l6.1-14.82C86,80.7,88.47,74.84,90.87,69c2.85-6.93,5.75-13.88,8.6-20.81,2.12-5.17,4.28-10.38,6.44-15.6,2.25-5.41,4.59-10.78,6.84-16.2,0-.11.25-.29.25-.45V8.29C113,8.13,112.48,8.13,112.39,8.13Zm-98.5,16s.06,0,0,0,.06-.06.06-.06v.06h-.35c-2.27-1-4.6-2.54-6.88-3.83H6.71c0-.09.1-.08.24-.13s0,0,.08,0,0,0,0,0H7S7.1,20,7.23,20c2.25-1.29,4.48-1.87,6.73-3.87h0C13.89,19.13,13.89,21.44,13.89,24.14Zm19,38.8h0c-1.54.89-3.14,1.78-4.68,2.7a.35.35,0,0,1-.36,0,0,0,0,0,1,0,0l0,0a.35.35,0,0,1-.36,0c-2.25-1.29-4.48-2.56-6.73-3.9,0,0-.09-.09-.11-.09s.11-.09.2-.09.24-.09.24-.16v-.71s.11-.09.2-.09l3.5-2c.82-.49,1.67-1,2.47-1.47a3.76,3.76,0,0,1,.78.49,2.92,2.92,0,0,1,.89.49c2,1.14,4,2.27,6,3.45.09,0,.11.09.2.11C34.3,62.14,33.61,62.5,32.88,62.94Zm2.18,30.23,0,0S35.06,93.2,35.06,93.18ZM35,28.27v8.31a16,16,0,0,1-2.4-1.29c-1.52-.85-3.07-1.76-4.59-2.61a.5.5,0,0,0-.23-.09.51.51,0,0,1,.18-.31s0-.16.07-.16h0a.31.31,0,0,0,.2-.09c2.25-1.29,4.43-2.51,6.68-3.82,0,0,.08-.06.11,0C35.52,28.4,36,28.47,35,28.27Zm21,77.16v.25c-2-1.34-4.74-2.7-7.11-4.08a3.54,3.54,0,0,1,.3-.2.23.23,0,0,0-.16,0c2.36-1.34,5-2.7,7-4.08Zm.34.36s0-.11.09-.11S56.34,105.77,56.34,105.79Zm.19-.11a1.54,1.54,0,0,1,.15.11C56.62,105.76,56.57,105.71,56.52,105.68ZM63.13,85c-.09.09-.2.11-.29.2a0,0,0,0,1,0,0,6.29,6.29,0,0,1-1.18.69C59.79,87,57.92,88.16,56,89.26c-.09,0-.11.11-.25.11l-6.75-3.9c-.09,0-.2-.09-.16-.2a1.19,1.19,0,0,1,.25-.11s0,0,0-.09l6.75-3.9a1.55,1.55,0,0,1,.29-.11c0,.2.25.25.36.29,2.18,1.2,4.39,2.45,6.6,3.68Zm14.13-64.9h0c2.25-1.29,4.37-2.61,6.65-3.9.09,0,.1-.11.1-.09V24c0,.11.06.2-.05.29-1.78,1-3.56,2.07-5.34,3.14-.16.09-.3.2-.45.29a1.58,1.58,0,0,1-.47.25l-.48.29C77.25,25.53,77.26,22.79,77.26,20.12ZM67.37,74.68c-.09,0-.11.11-.2.09,1.18-2.94,2.41-5.86,3.54-8.85.09-.16.29-.25.29-.2v0c0-.25.16-.25.36-.11l5.59,3.25c.09,0,.1.09.19.11-.09.09-.21.11-.3.2s0,0,.09,0c-.89.53-1.83,1.09-2.72,1.58C71.94,72.08,69.64,73.37,67.37,74.68ZM77,93.42h0s-.08-.3-.12-.3h0c0,1-.11.28-.2.37-2.21,1.27-4.39,2.6-6.6,3.87l-.09.09c-.09-.09,0-.11,0-.2V89.77c0-.09-.17-.2-.08-.25s.08.09.08.11v-.09a.31.31,0,0,1,.16-.25c2.27,1.34,4.69,2.65,7,4C77.13,93.33,77,93.38,77,93.42Zm14.05-56.9s0,0,.09,0c-.53.36-1.14.69-1.67,1-1.78,1-3.59,2.07-5.33,3.1-2.36-1.34-4.68-2.7-7-4.08.11-.09.2-.11.33-.2,0,0,0,0-.09,0,.58-.36,1.14-.65,1.67-1,1.72-1,3.45-2,5.17-3a.33.33,0,0,1,.4,0C86.79,33.75,89,35,91.23,36.34c0-.07.09,0,.11,0S91.14,36.43,91.05,36.52Z"/></g></g></svg>
