<svg xmlns="http://www.w3.org/2000/svg" viewBox="0 0 200 200"><defs><style>.cls-1{fill:#1563ff;}.cls-2{fill:none;}</style></defs><title>Zasób 29</title><g id="Warstwa_2" data-name="Warstwa 2"><g id="Warstwa_1-2" data-name="Warstwa 1"><g id="Warstwa_2-2" data-name="Warstwa 2"><g id="Warstwa_1-2-2" data-name="Warstwa 1-2"><path fill="#1563ff" d="M161.54,46.06h0c-.12,0-.32-.37-.48-.43-1.3-.76-2.6-1.53-3.85-2.29s-2.2-1.33-3.36-2a.26.26,0,0,1-.12.09c-2.52,1.42-4.89,2.81-7.37,4.26-.1,0-.12.12-.22,0s-.22,0-.32-.1c-.4-.22-.81-.5-1.26-.72l-6-3.47c-.12-.1-.18,0-.28,0l-3.78,2.2c-1.34.73-2.64,1.53-4,2.27s-2.65,1.5-4,2.2l-5.51,3.19c-1.57.9-3.14,1.79-4.71,2.72a6,6,0,0,0-1.3.72.57.57,0,0,0-.22.36v8.42c0,.18.12.36.07.54-2.5,6.55-5.11,13-7.61,19.6a1.18,1.18,0,0,0-.18.58V94.83c0,.22.11.36-.11.5-1.67.94-3.3,1.94-5,2.92a1,1,0,0,0-.28.28c-.72,1.84-1.38,3.63-2.09,5.51-.18,0-.11-.22-.21-.32-1.4-3.51-2.72-7-4-10.53-3.7-9.7-7.46-19.35-11.16-29a2.53,2.53,0,0,1-.24-.81V54.92s.07-.1,0-.12c-1.48-.81-2.86-1.67-4.34-2.5l-4.86-2.82c-1.52-.9-3.07-1.79-4.6-2.65-1.76-1-3.59-2-5.33-3.12s-3.3-1.94-5.08-2.87c-1.26-.72-2.5-1.42-3.8-2.2-.81-.53-1.67-1-2.51-1.45a.36.36,0,0,0-.44,0l-1.57.9c-2,1.13-4,2.38-6,3.42-1.42.72-2.77,1.57-4.17,2.38-1.2.61-2.43,1.29-3.53,1.95v9.05c0,.1.11.18.13.28,3.14,7.71,6.33,15.28,9.47,22.91a.81.81,0,0,0,.32.4c1.79,1,3.48,2.06,5.27,3,.22.1.22.22.22.44V92a2.2,2.2,0,0,0,.18.72q11.52,27.86,22.95,55.68a1.1,1.1,0,0,0,.55.58l22.65,13c.1,0,.12.12.28.1l.22-.1c1.4-.76,2.72-1.57,4.12-2.33l3.41-2a1.71,1.71,0,0,1,.32-.12c1.94-1.1,3.8-2.2,5.69-3.3,3.09-1.74,6.13-3.53,9.23-5.3a1.31,1.31,0,0,0,.32-.32l6.72-16.32c2.65-6.4,5.37-12.85,8-19.28,3.14-7.63,6.33-15.28,9.47-22.91C149.65,84.48,152,78.74,154.4,73c2.48-6,5.05-11.87,7.53-17.84,0-.12.28-.32.28-.5V46.24C162.21,46.06,161.64,46.06,161.54,46.06ZM53.09,63.68h0c-.07,0,.07-.07.07-.07v.07h-.39c-2.5-1.1-5.06-2.8-7.58-4.22h0c0-.1.11-.09.26-.14s0,0,.09,0h0s.11-.19.25-.19c2.48-1.42,4.93-2.06,7.41-4.26h0c-.08,3.3-.08,5.85-.08,8.82ZM74,106.4h0c-1.7,1-3.46,2-5.15,3a.39.39,0,0,1-.4,0h0a.39.39,0,0,1-.4,0c-2.48-1.42-4.93-2.82-7.41-4.29,0,0-.1-.1-.12-.1a.36.36,0,0,1,.22-.1c.1,0,.26-.1.26-.18v-.78a.45.45,0,0,1,.22-.1l3.85-2.2L67.81,100a4.14,4.14,0,0,1,.86.54,3.22,3.22,0,0,1,1,.54c2.2,1.26,4.4,2.5,6.61,3.8.1,0,.12.1.22.12-.91.53-1.67.92-2.48,1.41Zm2.4,33.28h0s0,0,0,0Zm-.08-71.45v9.15A17.62,17.62,0,0,1,73.69,76C72,75,70.31,74,68.63,73.09a.55.55,0,0,0-.25-.1.56.56,0,0,1,.2-.34s0-.18.08-.18h0a.34.34,0,0,0,.22-.1c2.48-1.42,4.88-2.76,7.35-4.21,0,0,.09-.07.12,0C76.9,68.38,77.43,68.46,76.33,68.24Zm23.12,85v.28c-2.2-1.48-5.22-3-7.83-4.49l.33-.22a.25.25,0,0,0-.18,0c2.6-1.48,5.51-3,7.71-4.49Zm.37.4s0-.12.1-.12S99.82,153.57,99.82,153.59Zm.21-.12.17.12c-.07,0-.12-.09-.18-.12Zm7.27-22.77c-.1.1-.22.12-.32.22h0a6.93,6.93,0,0,1-1.3.76c-2.06,1.22-4.12,2.5-6.23,3.71-.1,0-.12.12-.28.12l-7.43-4.29c-.1,0-.22-.1-.18-.22a1.31,1.31,0,0,1,.28-.12v-.1l7.43-4.29a1.71,1.71,0,0,1,.32-.12c0,.22.28.28.4.32,2.4,1.32,4.83,2.7,7.27,4.05Zm15.56-71.46h0c2.48-1.42,4.81-2.87,7.32-4.29.1,0,.11-.12.11-.1v8.69c0,.12.07.22-.06.32-2,1.1-3.92,2.28-5.88,3.46-.18.1-.33.22-.5.32a1.74,1.74,0,0,1-.52.28l-.53.32c0-3,0-6,0-9ZM112,119.33c-.1,0-.12.12-.22.1,1.3-3.24,2.65-6.45,3.9-9.74.1-.18.32-.28.32-.22h0c0-.28.18-.28.4-.12l6.15,3.58c.1,0,.11.1.21.12-.1.1-.23.12-.33.22s0,0,.1,0c-1,.58-2,1.2-3,1.74C117,116.47,114.47,117.89,112,119.33ZM122.57,140h0s-.09-.33-.13-.33h0c0,1.1-.12.31-.22.41-2.43,1.4-4.83,2.86-7.27,4.26l-.1.1c-.1-.1,0-.12,0-.22v-8.24c0-.1-.19-.22-.09-.28s.09.1.09.12v-.1a.34.34,0,0,1,.18-.28c2.5,1.48,5.16,2.92,7.71,4.4C122.71,139.87,122.57,139.92,122.57,140ZM138,77.32h.1c-.58.4-1.26.76-1.84,1.1-2,1.1-4,2.28-5.87,3.41-2.6-1.48-5.15-3-7.71-4.49.12-.1.22-.12.36-.22H123c.64-.4,1.26-.72,1.84-1.1l5.69-3.3a.36.36,0,0,1,.44,0c2.39,1.55,4.82,2.93,7.28,4.4,0-.08.1,0,.12,0A2.1,2.1,0,0,0,138,77.32Z"/></g></g><rect class="cls-2" width="200" height="200"/></g></g></svg>
