<!-- Generator: Adobe Illustrator 20.1.0, SVG Export Plug-In  -->
<svg version="1.1"
	 xmlns="http://www.w3.org/2000/svg"
	 x="0px" y="0px" width="212.3px" height="34.1px" viewBox="0 0 212.3 34.1" style="enable-background:new 0 0 212.3 34.1;"
	 xml:space="preserve">
<style type="text/css">
	.st0{fill:#0094EE;}
	.st1{fill:#555555;}
</style>
<defs>
</defs>
<g>
	<g>
		<path class="st0" d="M13,17.3c0.4-0.9,0.7-1.8,1-2.6c0.7-1.8,1.3-3.5,2-5.3c0.6-1.5,1.1-2.9,1.7-4.4c0.3-0.8,0.5-1.7,1.1-2.5
			c0.4-0.5,1-0.8,1.6-0.8c3.5,0,7-0.1,10.4,0c2,0,4,0.6,5.7,1.7c1.9,1.3,3,3.1,3.6,5.3c0.5,1.7,0.4,3.4,0.4,5.1
			c-0.1,1.7-0.5,3.4-1.3,4.9c-0.8,1.4-1.8,2.6-3.3,3.4c-1.3,0.7-2.8,1.1-4.3,1.3c-0.8,0.1-1.5,0.1-2.3,0.1c-2.1,0.1-4.2,0-6.3,0.1
			c-0.3,0-0.6,0-0.9-0.1c-0.5-0.1-0.6-0.2-0.6-0.8c0-5.7,0-11.4,0-17.1c0-0.1,0-0.3,0-0.4c0,0,0,0-0.1,0c-0.3,0.9-0.6,1.8-0.9,2.7
			c-0.9,2.6-1.8,5.1-2.8,7.7c-0.9,2.4-1.8,4.9-2.6,7.3c-0.2,0.5-0.6,0.6-1,0.7c-0.9,0-1.8,0.1-2.8-0.1c-0.4-0.1-0.8-0.3-0.9-0.8
			c-0.8-2.3-1.6-4.7-2.4-7c-0.7-2.1-1.5-4.3-2.2-6.4c-0.5-1.3-0.9-2.7-1.4-4c0,0.1,0,0.2,0,0.4c0,5.6,0,11.1,0,16.7
			c0,0.9-0.2,1-1.1,1.1c-0.8,0.1-1.7,0.1-2.6,0C0.3,23.6,0,23.4,0,22.9c0-6.5,0-13,0-19.5c0-1,0.6-1.8,1.7-1.7c1.1,0,2.2,0,3.3,0
			c1.7,0,2.5,0.7,3,2.1c1,3,2.2,6,3.3,9C11.9,14.3,12.4,15.7,13,17.3z M26.7,12.6c0,2.4,0,4.8,0,7.2c0,0.2,0,0.4,0.3,0.4
			c1.3,0,2.7,0,4-0.2c1.8-0.3,3.1-1.3,4-2.9c0.7-1.4,0.9-2.9,0.9-4.4c0-0.7-0.1-1.4-0.2-2.2c-0.2-1-0.5-1.9-1.1-2.8
			c-1.1-1.5-2.6-2.3-4.5-2.4c-1-0.1-2-0.1-3-0.1c-0.3,0-0.4,0.1-0.4,0.4C26.7,7.9,26.7,10.3,26.7,12.6z"/>
		<path d="M191.8,9.6c0.3-0.5,0.7-0.7,1-1c0.8-0.7,1.7-1.2,2.7-1.5c0.8-0.2,1.7-0.1,2.5-0.1c0.9,0.1,1.7,0.5,2.4,1
			c0.5,0.4,0.8,0.9,1.1,1.4c0,0.1,0.1,0.1,0.1,0.2c0.7-0.8,1.5-1.5,2.4-2c0.7-0.4,1.4-0.7,2.3-0.7c0.9,0,1.8,0,2.7,0.3
			c1,0.4,1.8,1.1,2.4,2c0.5,0.9,0.7,1.9,0.8,2.9c0.2,2.7,0,5.3,0.1,8c0,1,0,1.9,0,2.9c0,0.3-0.1,0.5-0.5,0.6
			c-0.3,0.1-0.6,0.2-0.9,0.1c-0.8,0-1.5,0.1-2.3-0.1c-0.5-0.1-0.7-0.2-0.7-0.8c0-3,0-6,0-9.1c0-0.7-0.1-1.4-0.5-2
			c-0.6-1.1-1.7-1.4-2.8-0.9c-1,0.4-1.6,1.3-2.3,2.1c-0.1,0.1-0.1,0.2-0.1,0.4c0,3.2,0,6.4,0,9.6c0,0.5-0.2,0.6-0.6,0.7
			c-0.8,0.1-1.6,0-2.4,0.1c-0.3,0-0.5,0-0.7-0.1c-0.4-0.1-0.6-0.3-0.6-0.8c0-3.1,0-6.3,0-9.4c0-0.8-0.2-1.5-0.7-2.1
			c-0.7-0.8-2-0.9-2.9-0.3c-0.7,0.5-1.3,1.1-1.8,1.8c-0.1,0.1-0.1,0.3-0.1,0.5c0,3.1,0,6.2,0,9.3c0,0.8-0.2,1.1-1,1.1
			c-0.9,0-1.8,0.1-2.7-0.1c-0.5-0.1-0.6-0.2-0.6-0.7c0-4.9,0-9.9,0-14.8c0-0.5-0.1-0.7,0.7-0.9c0.8-0.1,1.6-0.2,2.4,0
			c0.6,0.1,0.6,0.2,0.6,0.8C191.8,8.6,191.8,9,191.8,9.6z"/>
		<path d="M129.2,22.1c-0.3-0.3-0.7-0.5-0.9-0.9c-0.8-1.1-0.6-2.6,0.1-3.8c0.3-0.4,0.5-0.8,0.9-1.1c0.1-0.1,0.1-0.2,0-0.3
			c-0.7-0.8-1.1-1.8-1.1-2.8c0-1.1,0.1-2.3,0.6-3.3c0.7-1.3,1.9-2.1,3.3-2.6c1.2-0.4,2.4-0.3,3.6-0.3c0.5,0,1,0.1,1.5,0.3
			c0.1,0,0.2,0,0.4,0c1.4,0,2.7,0,4.1,0c0.7,0,0.8,0,0.9,0.7c0.1,0.7,0.2,1.4-0.1,2.1c-0.1,0.3-0.3,0.4-0.6,0.4c-0.5,0-1,0-1.6,0
			c0.5,0.7,0.7,1.5,0.7,2.3c-0.1,1.3-0.4,2.5-1.3,3.5c-0.8,0.9-1.8,1.4-3,1.7c-1.3,0.3-2.5,0.3-3.8,0c-0.2,0-0.4-0.1-0.5-0.2
			c-0.2-0.2-0.3,0-0.4,0.1c-0.2,0.3-0.4,0.6-0.3,1.1c0.1,0.6,0.6,0.8,1.2,0.9c0.4,0.1,0.9,0.1,1.3,0.1c1,0,1.9,0.1,2.9,0.1
			c1,0,2,0.2,2.9,0.6c1.3,0.6,2.2,1.7,2.4,3.2c0.2,1.4-0.2,2.6-1,3.7c-0.6,0.8-1.4,1.3-2.3,1.7c-1.4,0.6-2.9,0.8-4.4,0.8
			c-0.8,0-1.7,0-2.5-0.1c-1.3-0.2-2.5-0.5-3.5-1.2c-0.9-0.6-1.3-1.5-1.4-2.6c-0.1-1.4,0.5-2.5,1.5-3.5
			C128.8,22.4,129.1,22.3,129.2,22.1z M134,23.1c-0.2,0-0.4,0-0.6,0c-0.6-0.1-1,0.2-1.4,0.6c-0.1,0.1-0.2,0.3-0.3,0.4
			c-0.7,1-0.4,2.2,0.9,2.6c0.9,0.3,1.8,0.2,2.6,0.2c0.9,0,1.8-0.3,2.4-1.1c0.6-0.8,0.6-2.2-0.8-2.6C135.9,23.1,135,23.1,134,23.1z
			 M134.5,15.1c1.6,0.1,2.4-1.1,2.5-2.4c0.1-1.7-1.1-2.6-2.2-2.7c-2-0.1-2.7,1.2-2.8,2.5C131.9,14.1,133,15.2,134.5,15.1z"/>
		<path d="M89.1,15.2c0,2.5,0,5,0,7.5c0,0.8-0.2,1.1-1,1.1c-0.9,0-1.8,0.1-2.7-0.1c-0.5-0.1-0.6-0.3-0.6-0.7c0-7.4,0-14.8,0-22.1
			c0-0.5,0.2-0.7,0.7-0.8C86.2-0.1,87,0,87.7,0c0.3,0,0.6,0.1,0.9,0.2c0.3,0.1,0.5,0.3,0.5,0.7c0,4.3,0,8.7,0,13.1
			c0.4-0.5,0.7-0.9,1-1.3c1-1.3,2-2.7,3-4c0.1-0.1,0.3-0.3,0.3-0.4c0.3-0.7,0.9-0.8,1.6-0.9c0.7,0,1.4,0,2.1,0c0.2,0,0.4,0,0.7,0.1
			c0.5,0.1,0.6,0.6,0.4,1.1c-0.2,0.5-0.5,0.8-0.8,1.2c-0.7,0.8-1.4,1.5-2,2.3c-0.6,0.7-1.3,1.5-1.9,2.2c-0.1,0.1-0.1,0.2,0,0.3
			c1,1.6,2.1,3.2,3.1,4.8c0.7,1.1,1.4,2.1,2.1,3.3c0.1,0.1,0.1,0.3,0.2,0.4c0.2,0.5-0.1,0.8-0.6,0.9c-1.1,0.1-2.2,0.1-3.3,0
			c-0.5-0.1-0.8-0.4-1-0.7c-0.9-1.5-1.9-3-2.8-4.5C90.5,17.4,89.9,16.4,89.1,15.2z"/>
		<path d="M184.6,15.3c0.1,1.7-0.2,3.3-0.9,4.7c-1,2-2.7,3.3-4.9,3.8c-1.3,0.3-2.6,0.3-3.9,0.2c-1.3-0.1-2.6-0.5-3.7-1.3
			c-1.3-0.9-2.1-2.2-2.6-3.7c-0.4-1.5-0.5-3.1-0.4-4.6c0.1-1.7,0.6-3.4,1.7-4.8c1-1.3,2.4-2.1,4-2.5c1.3-0.3,2.6-0.3,3.9-0.2
			c1.3,0.1,2.6,0.4,3.7,1.2c1.2,0.8,2,1.9,2.4,3.3C184.5,12.7,184.7,14,184.6,15.3z M172.8,15.5c-0.1,1,0.1,1.9,0.4,2.8
			c0.3,0.9,0.8,1.6,1.7,2c0.7,0.3,1.5,0.3,2.3,0.2c0.7-0.1,1.4-0.4,1.9-1.1c0.7-0.8,1-1.8,1-2.9c0.1-1.1,0.1-2.3-0.2-3.4
			c-0.2-0.9-0.7-1.7-1.5-2.3c-0.7-0.5-1.4-0.5-2.2-0.5c-1.2,0-2.1,0.6-2.7,1.6C172.9,13.2,172.7,14.3,172.8,15.5z"/>
		<path d="M69.8,9.5c0.6-0.7,1.2-1.2,1.9-1.7C72.4,7.4,73.3,7,74.2,7c0.9-0.1,1.8-0.1,2.7,0.2c2,0.6,3.1,2,3.5,3.9
			c0.2,0.7,0.2,1.4,0.2,2.2c0,3.3,0,6.5,0,9.8c0,0.5-0.2,0.6-0.6,0.7c-0.4,0.1-0.9,0.1-1.3,0.1c-0.6,0-1.3,0.1-1.9-0.1
			c-0.4-0.1-0.5-0.3-0.5-0.7c0-3,0-6,0-9c0-0.8-0.1-1.5-0.5-2.2c-0.4-0.7-1-1-1.7-1.1c-1-0.1-1.8,0.5-2.5,1.1c-0.3,0.3-0.6,0.7-1,1
			c-0.1,0.1-0.2,0.3-0.2,0.5c0,3.1,0,6.2,0,9.3c0,0.9,0,0.9-1,1c-0.9,0.1-1.8,0.1-2.7,0C66.2,23.6,66,23.5,66,23c0-4.9,0-9.9,0-14.8
			c0-0.7,0-0.8,0.7-0.9c0.8-0.1,1.6-0.2,2.4,0c0.6,0.1,0.6,0.2,0.6,0.8C69.8,8.6,69.8,9,69.8,9.5z"/>
		<path d="M113.8,9.5c1.1-1.2,2.3-2.2,3.9-2.5c2-0.4,3.9-0.2,5.4,1.3c0.8,0.8,1.2,1.9,1.4,3.1c0.3,2,0.1,4,0.1,6c0,1.9,0,3.7,0,5.6
			c0,0.4-0.2,0.6-0.6,0.7c-0.4,0.1-0.7,0.1-1.1,0.1c-0.7,0-1.3,0.1-2-0.1c-0.6-0.1-0.7-0.2-0.7-0.8c0-3,0-6.1,0-9.1
			c0-0.9-0.2-1.7-0.8-2.4c-0.7-0.9-2.2-0.8-3-0.3c-0.8,0.5-1.4,1.1-1.9,1.8c-0.1,0.2-0.1,0.3-0.1,0.5c0,3.1,0,6.2,0,9.3
			c0,0.9,0,0.9-1,1.1c-0.9,0.1-1.8,0.1-2.7,0c-0.5-0.1-0.7-0.2-0.7-0.7c0-4.9,0-9.9,0-14.8c0-0.7,0.2-0.9,0.9-0.9c0.6,0,1.2,0,1.9,0
			c0.7,0,0.9,0.3,0.9,0.9C113.8,8.6,113.8,9.1,113.8,9.5z"/>
		<path d="M42.9,12.4c0-3.4,0-6.7,0-10.1c0-0.4,0.2-0.5,0.5-0.6c0.3-0.1,0.6-0.2,0.9-0.2c0.8,0,1.6-0.1,2.4,0.1
			c0.6,0.1,0.8,0.3,0.8,0.9c0,5.7,0,11.4,0,17.1c0,0.3,0.1,0.4,0.4,0.4c2.2,0,4.3,0,6.5,0c0.4,0,0.5,0.1,0.6,0.5
			c0.2,1,0.3,2-0.1,2.9c-0.1,0.3-0.2,0.3-0.5,0.3c-3.4,0-6.8,0-10.2,0c-0.8,0-1.3-0.5-1.3-1.3C42.9,19.1,42.9,15.7,42.9,12.4z"/>
		<path d="M153.9,15.8c-0.1-1.5,0.1-3,0.7-4.3c0.7-1.8,1.9-3.2,3.8-4c1.3-0.5,2.7-0.6,4.1-0.5c1.1,0.1,2.2,0.4,3.1,1.1
			c0.3,0.2,0.5,0.5,0.6,0.8c0.2,0.9,0.2,1.7,0,2.6c-0.1,0.6-0.6,0.7-1.1,0.4c-0.8-0.6-1.6-1.1-2.5-1.3c-1.6-0.3-3,0.1-3.7,1.9
			c-0.3,0.7-0.4,1.4-0.5,2.2c-0.1,1.2,0,2.5,0.4,3.6c0.5,1.3,1.4,2.1,2.9,2.1c1.3,0,2.3-0.5,3.3-1.2c0.3-0.2,0.5-0.5,0.9-0.4
			c0.3,0,0.4,0.1,0.4,0.4c0.2,1,0.2,2,0,3c-0.1,0.4-0.5,0.7-0.9,0.9c-1.3,0.7-2.6,1.1-4.1,1.1c-1.1,0-2.1-0.1-3.1-0.5
			c-1.3-0.5-2.3-1.3-3.1-2.5c-0.7-1.1-1-2.4-1.2-3.7C153.9,16.9,153.9,16.3,153.9,15.8z"/>
		<path d="M57.4,15.6c0-2.5,0-5,0-7.4c0-0.5,0.2-0.7,0.7-0.8c0.6-0.1,1.1-0.1,1.7-0.1c0.5,0,1,0,1.5,0.1c0.3,0.1,0.5,0.3,0.5,0.7
			c0,5,0,10,0,14.9c0,0.4-0.1,0.6-0.5,0.7c-0.4,0.1-0.8,0.1-1.1,0.1c-0.7,0-1.4,0.1-2-0.1c-0.5-0.1-0.7-0.2-0.7-0.8
			C57.4,20.5,57.4,18,57.4,15.6z"/>
		<path d="M101.6,15.6c0-2.5,0-5,0-7.4c0-0.5,0.2-0.7,0.7-0.8c0.7-0.1,1.5,0,2.2-0.1c0.3,0,0.6,0.1,0.9,0.2c0.3,0.1,0.5,0.3,0.5,0.7
			c0,4.9,0,9.7,0,14.6c0,0.8-0.2,1.1-1,1.1c-0.9,0-1.8,0.1-2.7-0.1c-0.5-0.1-0.7-0.2-0.7-0.8C101.6,20.5,101.6,18,101.6,15.6z"/>
		<path d="M147.9,23.9c-0.4,0-0.8,0-1.2-0.1c-0.8-0.2-1.2-0.8-1.3-1.5c-0.1-0.8-0.1-1.6,0.1-2.4c0.2-0.7,0.8-1.2,1.6-1.2
			c0.6,0,1.3-0.1,1.9,0.1c0.8,0.2,1.3,0.5,1.4,1.4c0.1,0.8,0.1,1.6-0.1,2.5c-0.2,1-0.9,1.3-1.7,1.4C148.4,24,148.2,23.9,147.9,23.9z
			"/>
		<path d="M103.6,5c-0.4,0-0.8,0-1.2-0.1c-0.6-0.2-1-0.5-1.1-1.1c-0.2-0.7-0.2-1.4,0-2.1c0.2-0.8,0.8-1.1,1.5-1.1
			c0.7-0.1,1.5-0.1,2.2,0.1c0.8,0.2,1.2,0.7,1.2,1.5c0,0.6,0.1,1.2-0.1,1.8c-0.3,0.8-0.7,1.1-1.6,1.2C104.2,5.1,104,5,103.6,5z"/>
		<path d="M59.5,5c-0.3,0-0.7,0-1.1-0.1c-0.7-0.2-1-0.5-1.2-1.2c-0.2-0.7-0.1-1.5,0-2.2c0.2-0.7,0.8-1,1.4-1.1
			c0.7-0.1,1.5-0.1,2.2,0.1c0.8,0.2,1.1,0.7,1.2,1.5c0.1,0.6,0.1,1.2-0.1,1.8c-0.3,0.8-0.7,1.1-1.6,1.2C60.1,5.1,59.8,5,59.5,5z"/>
		<path class="st1" d="M25.6,28.5c0.4-0.5,0.9-0.7,1.5-0.7c0.4,0,0.8,0.2,1,0.5c0.1,0.2,0.2,0.1,0.3,0c0.5-0.5,1.1-0.7,1.8-0.5
			c0.5,0.1,0.9,0.7,1,1.3c0,1,0,1.9,0,2.9c0,0.2-0.1,0.3-0.3,0.3c-0.6,0-0.6,0-0.6-0.6c0-0.7,0-1.5,0-2.2c0-0.4-0.1-0.7-0.5-0.9
			c-0.4-0.2-0.7,0-1,0.3c-0.3,0.3-0.4,0.6-0.4,1c0,0.7,0,1.4,0,2.1c0,0.4-0.2,0.3-0.5,0.4c-0.3,0-0.4-0.1-0.4-0.3c0-0.7,0-1.3,0-2
			c0-0.3,0-0.5-0.1-0.8c-0.2-0.5-0.6-0.8-1.2-0.4c-0.4,0.3-0.7,0.6-0.6,1.1c0.1,0.7,0,1.4,0,2.1c0,0.2,0,0.3-0.3,0.3
			c-0.5,0-0.5,0-0.5-0.5c0-1.2,0-2.3,0-3.5c0-0.3,0-0.4,0.4-0.4c0.3,0,0.5,0,0.4,0.4C25.6,28.4,25.6,28.4,25.6,28.5z"/>
		<path class="st1" d="M60,28.6c0.3,0.6,0.3,1.2-0.1,1.8c-0.2,0.3-0.5,0.5-0.8,0.5c-0.4,0-0.8,0.1-1.1-0.1c-0.2-0.1-0.3,0-0.4,0.1
			c0,0.2-0.1,0.3,0.2,0.4c0.2,0.1,0.4,0.1,0.7,0.1c0.4,0,0.8-0.1,1.2,0.1c0.5,0.1,0.9,0.5,1,0.9c0.1,0.5-0.1,1.1-0.6,1.3
			c-1,0.5-2,0.5-3,0c-0.5-0.2-0.5-1.1-0.1-1.6c0.1-0.1,0.2-0.2,0.3-0.3c-0.5-0.3-0.5-1-0.1-1.5c0.1-0.1,0.1-0.2,0-0.4
			c-0.5-0.9,0-2.2,1.3-2.2c0.7,0,1.4,0.1,2.1,0.1c0.2,0,0.3,0.1,0.3,0.3c0,0.2-0.1,0.3-0.3,0.3C60.3,28.6,60.2,28.6,60,28.6z
			 M58.5,33.4c0.4,0,0.7,0,1-0.2c0.4-0.3,0.3-0.7-0.1-0.9c-0.5-0.2-1-0.1-1.5-0.1c-0.2,0-0.4,0.3-0.5,0.6c0,0.3,0.1,0.4,0.3,0.5
			C58.1,33.4,58.3,33.4,58.5,33.4z M58.6,30.2c0.5,0,0.8-0.3,0.8-0.8c0-0.5-0.3-0.8-0.8-0.8c-0.6,0-0.8,0.3-0.8,0.8
			C57.7,29.9,58,30.2,58.6,30.2z"/>
		<path class="st1" d="M68.3,29.4c0,0.9,0,1.8,0,2.7c0,0.3-0.1,0.3-0.3,0.3c-0.6,0-0.6,0-0.6-0.6c0-0.7,0-1.3,0-2
			c0-0.2,0-0.3-0.3-0.3c-0.7,0-1.4,0-2.2,0c-0.2,0-0.3,0.1-0.3,0.3c0,0.7,0,1.5,0,2.2c0,0.2,0,0.3-0.3,0.3c-0.5,0-0.5,0-0.5-0.5
			c0-1.7,0-3.4,0-5.1c0-0.4,0.2-0.3,0.4-0.4c0.3,0,0.4,0,0.4,0.4c0,0.6,0,1.3,0,1.9c0,0.2,0,0.3,0.3,0.3c0.7,0,1.4,0,2.2,0
			c0.2,0,0.3-0.1,0.3-0.3c0-0.6,0-1.2,0-1.8c0-0.5,0-0.5,0.5-0.5c0.3,0,0.4,0.1,0.4,0.4C68.2,27.6,68.3,28.5,68.3,29.4z"/>
		<path class="st1" d="M33.3,32c0,0.6,0,1.2,0,1.8c0,0.2-0.1,0.3-0.3,0.3c-0.1,0-0.2,0-0.3,0c-0.2,0-0.2-0.1-0.2-0.3
			c0-1.9,0-3.7,0-5.6c0-0.2,0-0.3,0.3-0.3c0.2,0,0.5-0.1,0.5,0.3c0,0.1,0,0.2,0,0.3c0.4-0.5,1-0.7,1.6-0.7c0.6,0,1.1,0.3,1.3,0.9
			c0.4,1,0.4,2-0.1,3c-0.5,0.9-1.6,1-2.4,0.4C33.5,32.1,33.4,32.1,33.3,32z M34.5,28.7c-0.7,0-1.2,0.5-1.2,1.2c0,0.2,0,0.4,0,0.6
			c-0.1,0.5,0.2,0.8,0.5,1.1c0.4,0.3,1.1,0.4,1.4-0.2c0.4-0.7,0.4-1.5,0-2.2C35.2,28.8,34.9,28.6,34.5,28.7z"/>
		<path class="st1" d="M85.3,28.5c0.4-0.4,0.9-0.5,1.4-0.6c0.7,0,1.4,0.6,1.4,1.4c0,1,0,1.9,0,2.9c0,0.2-0.1,0.3-0.3,0.3
			c-0.6,0-0.6,0-0.6-0.6c0-0.7,0-1.4,0-2.2c0-0.4-0.1-0.8-0.5-1c-0.3-0.2-0.7,0-1.1,0.3c-0.3,0.3-0.4,0.5-0.4,0.9c0,0.7,0,1.4,0,2.2
			c0,0.2,0,0.3-0.3,0.3c-0.6,0-0.6,0-0.6-0.6c0-1.9,0-3.7,0-5.6c0-0.4,0.1-0.4,0.4-0.4c0.2,0,0.5,0,0.4,0.3
			C85.2,27,85.3,27.7,85.3,28.5z"/>
		<path class="st1" d="M42.4,27.9c1.2,0,1.8,0.4,2,1.3c0.3,1,0.2,2-0.6,2.8c-0.3,0.3-0.7,0.4-1.1,0.4c-0.5,0-1,0.1-1.5-0.2
			c-0.6-0.3-0.8-0.9-0.9-1.5c-0.1-0.8-0.1-1.5,0.5-2.2C41.3,28,41.8,27.8,42.4,27.9z M43.7,30.2c0-0.3,0-0.6-0.1-0.9
			c-0.2-0.5-0.5-0.7-1.1-0.7c-0.5,0-0.9,0.3-1.1,0.7c-0.2,0.5-0.2,1-0.1,1.5c0,0.5,0.5,1,0.9,1c0.7,0.1,1.1-0.1,1.4-0.7
			C43.7,30.8,43.7,30.5,43.7,30.2z"/>
		<path class="st1" d="M71.8,30.4c-0.4,0-0.9,0-1.3,0c-0.2,0-0.2,0-0.2,0.2c0,0.7,0.5,1.2,1.2,1.2c0.4,0,0.8,0,1.3-0.2
			c0.2-0.1,0.4-0.2,0.4,0c0,0.2,0.1,0.5-0.2,0.6c-0.2,0.1-0.4,0.1-0.6,0.2c-1.1,0.3-2.2-0.1-2.6-0.9c-0.4-0.7-0.4-1.5-0.2-2.3
			c0.3-1.4,2.2-1.7,3.1-1c0.5,0.3,0.9,1.3,0.7,1.9c0,0.2-0.1,0.3-0.3,0.2C72.6,30.3,72.2,30.4,71.8,30.4z M72.5,29.8
			c0-0.2,0-0.3-0.1-0.4c-0.1-0.3-0.1-0.5-0.4-0.7c-0.7-0.4-1.6,0-1.7,0.9c0,0.2,0,0.2,0.2,0.2C71.2,29.8,71.8,29.8,72.5,29.8z"/>
		<path class="st1" d="M103.2,30.4c-0.4,0-0.8,0-1.2,0c-0.2,0-0.3,0.1-0.3,0.3c0,0.6,0.4,1.2,1.2,1.2c0.4,0,0.8,0,1.3-0.2
			c0.1,0,0.3-0.1,0.4,0.1c0,0.2,0.2,0.4-0.2,0.6c-0.2,0.1-0.5,0.1-0.7,0.2c-1.1,0.3-2.2,0-2.6-0.9c-0.4-0.7-0.3-1.5-0.2-2.3
			c0.3-1.4,2.3-1.7,3.2-1c0.5,0.4,0.7,1.4,0.7,1.9c0,0.1-0.1,0.2-0.3,0.2C104,30.3,103.6,30.4,103.2,30.4z M103.9,29.8
			c0-0.2-0.1-0.3-0.1-0.4c-0.1-0.3-0.1-0.5-0.4-0.7c-0.7-0.4-1.6,0-1.7,0.9c0,0.1,0,0.2,0.2,0.2C102.6,29.8,103.2,29.8,103.9,29.8z"
			/>
		<path class="st1" d="M76.9,32c-0.6,0.6-1.2,0.6-1.9,0.5c-0.6-0.1-0.9-0.6-0.9-1.1c0-0.6,0.3-1,0.9-1.2c0.4-0.1,0.8-0.2,1.3-0.2
			c0.6,0,0.7-0.2,0.5-0.8c-0.2-0.5-0.7-0.7-1.3-0.5c-0.2,0.1-0.4,0.2-0.6,0.2c-0.2,0.1-0.4,0.2-0.5,0c-0.1-0.2-0.1-0.5,0.1-0.6
			c0.2-0.1,0.5-0.3,0.8-0.3c0.5-0.1,1-0.1,1.5,0c0.5,0.2,0.9,0.6,0.9,1.2c0,0.9,0,1.9,0,2.8c0,0.2,0.1,0.5-0.3,0.4
			C77.1,32.4,76.8,32.4,76.9,32z M76.8,30.9c0-0.5,0-0.5-0.4-0.4c-0.2,0.1-0.4,0-0.6,0.1c-0.3,0-0.6,0.2-0.7,0.5
			c-0.1,0.3,0.1,0.5,0.3,0.7c0.3,0.2,0.6,0.1,0.9,0C76.5,31.6,76.9,31.4,76.8,30.9z"/>
		<path class="st1" d="M95.9,32c-0.6,0.6-1.2,0.6-1.9,0.5c-0.6-0.1-0.9-0.6-0.9-1.1c0-0.6,0.3-1,0.9-1.2c0.4-0.1,0.8-0.2,1.3-0.2
			c0.6,0,0.7-0.2,0.5-0.8c-0.2-0.5-0.7-0.7-1.3-0.5c-0.2,0.1-0.4,0.2-0.6,0.2c-0.2,0.1-0.4,0.2-0.5,0c-0.1-0.2-0.1-0.5,0.1-0.6
			c0.2-0.1,0.5-0.3,0.8-0.3c0.5-0.1,1-0.1,1.5,0c0.5,0.2,0.9,0.6,0.9,1.2c0,0.9,0,1.9,0,2.8c0,0.2,0.1,0.5-0.3,0.4
			C96,32.4,95.7,32.4,95.9,32z M95.7,30.9c0-0.3,0.1-0.6-0.4-0.5c-0.2,0.1-0.5,0-0.7,0.1c-0.3,0-0.6,0.2-0.7,0.6
			c-0.1,0.3,0.1,0.5,0.3,0.6c0.3,0.2,0.6,0.1,0.9,0C95.5,31.5,95.8,31.3,95.7,30.9z"/>
		<path class="st1" d="M52.9,28.5c0.4-0.5,0.9-0.6,1.5-0.7c0.8,0,1.4,0.6,1.4,1.4c0,1,0,1.9,0,2.9c0,0.2-0.1,0.2-0.3,0.2
			c-0.6,0-0.6,0-0.6-0.5c0-0.7,0-1.4,0-2.1c0-0.4-0.1-0.8-0.5-1c-0.4-0.2-0.8,0-1.1,0.3c-0.3,0.2-0.3,0.5-0.3,0.8c0,0.7,0,1.5,0,2.2
			c0,0.2,0,0.3-0.3,0.3c-0.5,0-0.5,0-0.5-0.5c0-1.2,0-2.3,0-3.5c0-0.3,0-0.4,0.4-0.4c0.3,0,0.5,0,0.4,0.4
			C52.8,28.4,52.9,28.4,52.9,28.5z"/>
		<path class="st1" d="M47.1,31.5c0.3-0.8,0.5-1.6,0.8-2.3c0.1-0.2,0.2-0.5,0.3-0.7c0.1-0.3,0.2-0.4,0.6-0.4c0.4,0,0.5,0,0.3,0.4
			c-0.5,1.3-0.9,2.5-1.4,3.8c-0.1,0.1-0.1,0.2-0.3,0.2c-0.9,0-0.8,0.2-1.1-0.7c-0.4-1.1-0.8-2.1-1.2-3.2c-0.1-0.2-0.2-0.4,0-0.5
			c0.3-0.1,0.7,0,0.8,0.2C46.3,29.2,46.7,30.3,47.1,31.5z"/>
		<path class="st1" d="M91,32.5c-1.3,0.1-1.8-0.8-1.9-1.9c0-0.6,0-1.2,0.3-1.7c0.3-0.6,0.8-0.9,1.5-0.9c0.5,0,0.9,0,1.3,0.2
			c0.3,0.2,0.3,0.5,0.2,0.7c0,0.2-0.2,0.1-0.4,0c-0.2-0.1-0.4-0.3-0.7-0.3c-0.6,0-1,0-1.2,0.9c-0.1,0.5-0.1,1,0,1.5
			c0.2,0.9,1.2,1,1.8,0.6c0,0,0,0,0,0c0.2-0.1,0.4-0.3,0.5-0.1c0.1,0.2,0.1,0.5,0,0.7C92.1,32.3,91.6,32.5,91,32.5z"/>
		<path class="st1" d="M81.4,30c0-0.4,0-0.7,0-1.1c0-0.3-0.1-0.4-0.4-0.3c-0.2,0-0.4,0-0.4-0.3c0-0.3,0.1-0.3,0.3-0.3
			c0.3,0.1,0.4-0.1,0.4-0.4c0-0.1,0-0.3,0-0.4c0-0.3,0.1-0.4,0.4-0.4c0.4,0,0.5,0.1,0.5,0.5c0,0.7,0,0.7,0.7,0.7c0.1,0,0.1,0,0.2,0
			c0.2,0,0.4,0,0.4,0.3c0,0.3-0.1,0.3-0.3,0.3c-0.2,0-0.5,0-0.7,0c-0.1,0-0.2,0-0.2,0.1c0,0.8-0.1,1.7,0.1,2.5
			c0.1,0.5,0.3,0.6,0.7,0.5c0.1,0,0.3-0.2,0.4,0c0,0.2,0.1,0.6-0.2,0.7c-1,0.3-1.8-0.2-1.8-1.2C81.4,30.8,81.4,30.4,81.4,30z"/>
		<path class="st1" d="M79.8,29.2c0,1,0,2,0,2.9c0,0.4-0.2,0.3-0.4,0.3c-0.2,0-0.4,0.1-0.4-0.3c0-2,0-3.9,0-5.9
			c0-0.4,0.2-0.3,0.4-0.3c0.2,0,0.4-0.1,0.4,0.3C79.8,27.2,79.8,28.2,79.8,29.2z"/>
		<path class="st1" d="M98.8,28.5c0.1-0.1,0.2-0.2,0.2-0.3c0.3-0.4,0.8-0.4,1.2-0.3c0.4,0.1,0.2,0.5,0.2,0.7c0,0.2-0.2,0.2-0.4,0.1
			c-0.5-0.1-1.3,0.4-1.3,1c0,0.8,0,1.5,0,2.3c0,0.2-0.1,0.3-0.3,0.3c-0.5,0-0.5,0-0.5-0.5c0-1.2,0-2.4,0-3.5c0-0.3,0-0.4,0.4-0.4
			c0.3,0,0.5,0,0.4,0.4c0,0,0,0.1,0,0.1C98.7,28.5,98.7,28.5,98.8,28.5z"/>
		<path class="st1" d="M38.3,28.6c0.3-0.6,0.8-0.8,1.4-0.7c0.3,0,0.4,0.2,0.3,0.7c0,0.3-0.2,0.2-0.4,0.2c-0.5-0.1-1.2,0.5-1.3,1
			c0,0.8,0,1.5,0,2.3c0,0.2,0,0.3-0.3,0.3c-0.5,0-0.5,0-0.5-0.5c0-1.2,0-2.3,0-3.5c0-0.2-0.1-0.5,0.3-0.4c0.3,0,0.5,0,0.5,0.4
			C38.2,28.4,38.2,28.4,38.3,28.6z"/>
		<path class="st1" d="M22.5,29.4c0-0.9,0-1.8,0-2.7c0-0.2,0.1-0.3,0.3-0.3c0.5,0,0.5,0,0.5,0.5c0,1.7,0,3.4,0,5.1
			c0,0.4-0.2,0.4-0.4,0.4c-0.3,0-0.4,0-0.4-0.4C22.5,31.2,22.5,30.3,22.5,29.4z"/>
		<path class="st1" d="M50,30.2c0-0.6,0-1.2,0-1.9c0-0.2,0-0.3,0.3-0.3c0.5,0,0.5,0,0.5,0.5c0,1.2,0,2.4,0,3.6
			c0,0.3-0.2,0.3-0.4,0.3c-0.2,0-0.5,0.1-0.5-0.3C50,31.5,50,30.8,50,30.2z"/>
		<path class="st1" d="M50.3,27.1c-0.4,0.1-0.4-0.2-0.4-0.5c0-0.4,0.2-0.4,0.5-0.4c0.4,0,0.5,0.1,0.5,0.5
			C50.8,27.1,50.8,27.1,50.3,27.1z"/>
	</g>
</g>
</svg>
