<svg xmlns="http://www.w3.org/2000/svg" viewBox="0 0 130.42 121.1"><defs><style>.cls-1{fill:#282828;}</style></defs><title>format_danych_1</title><g id="Warstwa_2" data-name="Warstwa 2"><g id="Warstwa_1-2" data-name="Warstwa 1"><path class="cls-1" d="M0,4.66,6.16,0A103,103,0,0,1,25.62,60.55c0,22.06-7,43.7-19.45,60.55L0,116.31C8.9,99,14.38,83.29,14.38,60.55S8.9,22.06,0,4.66Z"/><path class="cls-1" d="M34,4.66,40.14,0A103,103,0,0,1,59.59,60.55c0,22.06-7,43.7-19.45,60.55L34,116.31c8.9-17.26,14.38-33,14.38-55.76S42.88,22.06,34,4.66Z"/><path class="cls-1" d="M73.43,107c4.38-2.88,8.36-8.22,8.9-12.74a6.36,6.36,0,0,1-1.92.27c-3.84,0-6.58-2.88-6.58-7a7.34,7.34,0,0,1,7.26-7.4c4.52,0,8.63,3.84,8.63,10.41,0,8.36-4.93,16.17-11.23,20.69Zm.41-72.74a7.53,7.53,0,1,1,15.07,0,7.53,7.53,0,0,1-15.07,0Z"/><path class="cls-1" d="M104.94,101.51V73.29c0-5.07-2.33-9.45-7.12-9.45V57c4.79,0,7.12-4.38,7.12-9.45V19.45C104.94,8.08,113.43,1,122.06,1h8.36V8.49h-8.36c-4.93,0-9,4.52-9,11V48.36c0,5.75-1.78,10.14-6.3,12.05,4.52,1.92,6.3,6.3,6.3,12.06v28.91c0,6.3,4.11,11,9,11h8.36v7.53h-8.36C113.43,119.87,104.94,112.75,104.94,101.51Z"/></g></g></svg>