<svg xmlns="http://www.w3.org/2000/svg" viewBox="0 0 132.27 127.08"><defs><style>.cls-1{fill:none;stroke:#282828;stroke-miterlimit:10;stroke-width:6.32px;}</style></defs><title>technologie</title><g id="Warstwa_2" data-name="Warstwa 2"><g id="Warstwa_1-2" data-name="Warstwa 1"><path class="cls-1" d="M25.65,63.48A19.11,19.11,0,0,1,40,75.14"/><path class="cls-1" d="M38.67,92A19,19,0,0,0,40,75.14"/><path class="cls-1" d="M25.65,63.48A19.1,19.1,0,1,0,38.67,92"/><path class="cls-1" d="M85.31,38.44a19,19,0,0,0,17,1.64"/><path class="cls-1" d="M102.33,40.08A19.1,19.1,0,1,0,76.42,20.86"/><path class="cls-1" d="M85.31,38.44a19.08,19.08,0,0,1-9-16.17c0-.48,0-.94.07-1.41"/><path class="cls-1" d="M79.18,65a9.51,9.51,0,0,0-4.31-9.9"/><path class="cls-1" d="M79.18,65a9.55,9.55,0,0,1-9.38,7.74l-.41,0"/><path class="cls-1" d="M74.88,55.07a9.52,9.52,0,0,0-11.18.74"/><path class="cls-1" d="M60.95,66.72a9.55,9.55,0,0,0,8.45,6"/><path class="cls-1" d="M63.7,55.82a9.53,9.53,0,0,0-2.75,10.91"/><path class="cls-1" d="M100.08,113a9.55,9.55,0,1,0,10.61-8.41"/><path class="cls-1" d="M110.69,104.6A9.5,9.5,0,0,0,100.08,113"/><path class="cls-1" d="M82.26,111A14.48,14.48,0,0,0,68.43,94.86"/><path class="cls-1" d="M55.32,101.94a14.52,14.52,0,0,1,12.49-7.11c.21,0,.42,0,.63,0"/><path class="cls-1" d="M55.32,101.94A14.54,14.54,0,1,0,82.26,111"/><path class="cls-1" d="M100.28,69a14.55,14.55,0,0,1,9-10.81"/><path class="cls-1" d="M112.86,86.23a14.54,14.54,0,1,0,1.7-29,14.48,14.48,0,0,0-5.23,1"/><path class="cls-1" d="M100.28,69a14.51,14.51,0,0,0,12.57,17.19"/><path class="cls-1" d="M31.32,32A14.39,14.39,0,0,0,42,29.77"/><path class="cls-1" d="M31.32,32A14.54,14.54,0,1,1,48.44,17.71c0,.36,0,.72-.05,1.07"/><path class="cls-1" d="M42,29.77a14.53,14.53,0,0,0,6.36-11"/><line class="cls-1" x1="76.42" y1="20.86" x2="48.39" y2="18.78"/><line class="cls-1" x1="85.31" y1="38.44" x2="74.88" y2="55.07"/><line class="cls-1" x1="25.65" y1="63.48" x2="31.32" y2="32.01"/><line class="cls-1" x1="68.43" y1="94.86" x2="69.39" y2="72.69"/><line class="cls-1" x1="110.69" y1="104.6" x2="112.86" y2="86.23"/><line class="cls-1" x1="100.28" y1="69.04" x2="79.18" y2="64.97"/><line class="cls-1" x1="100.08" y1="113.02" x2="82.26" y2="111"/><line class="cls-1" x1="55.32" y1="101.94" x2="38.67" y2="92.03"/><line class="cls-1" x1="39.99" y1="75.14" x2="60.95" y2="66.72"/><line class="cls-1" x1="42.03" y1="29.77" x2="63.7" y2="55.82"/><line class="cls-1" x1="102.33" y1="40.08" x2="109.33" y2="58.23"/></g></g></svg>