<svg xmlns="http://www.w3.org/2000/svg" viewBox="0 0 1336.43 579.12"><defs><style>.cls-1{fill:#282828;}.cls-2{fill:#ffde07;}.cls-3{fill:none;stroke:#ffde07;stroke-miterlimit:10;stroke-width:6.32px;}</style></defs><title>telecom_schemat</title><g id="Warstwa_2" data-name="Warstwa 2"><g id="Warstwa_1-2" data-name="Warstwa 1"><path class="cls-1" d="M753.63,16.78V6.1h2v1A3,3,0,0,1,758,5.91c2,0,3.43,1.47,3.43,4S760,14,758,14a3,3,0,0,1-2.38-1.18v3.94Zm3.78-9.06a2.28,2.28,0,0,0-1.75.88v2.74a2.33,2.33,0,0,0,1.75.88,2,2,0,0,0,2-2.26A2,2,0,0,0,757.4,7.72Z"/><path class="cls-1" d="M763.66,15.16a1,1,0,0,0,1.07-.56l.29-.66L761.88,6.1h2.18l2,5.38,2-5.38h2.19l-3.63,9A2.81,2.81,0,0,1,763.72,17a5.61,5.61,0,0,1-1-.11L763,15A1.76,1.76,0,0,0,763.66,15.16Z"/><path class="cls-1" d="M771.59,11.91v-4h-1.28V6.1h1.28V4h2V6.1h1.57V7.88h-1.57v3.49c0,.48.26.85.71.85a1.11,1.11,0,0,0,.7-.22l.43,1.54a2.51,2.51,0,0,1-1.7.5A1.93,1.93,0,0,1,771.59,11.91Z"/><path class="cls-1" d="M781.25,13a3.2,3.2,0,0,1-2.45,1,2.58,2.58,0,0,1-2.69-2.56A2.45,2.45,0,0,1,778.8,9a3.13,3.13,0,0,1,2.45.94V8.87c0-.78-.67-1.3-1.7-1.3a3.25,3.25,0,0,0-2.26.91l-.77-1.36a5.07,5.07,0,0,1,3.38-1.22c1.76,0,3.38.7,3.38,2.93v5h-2Zm0-2a2,2,0,0,0-1.63-.67c-.8,0-1.46.43-1.46,1.17s.66,1.14,1.46,1.14a2,2,0,0,0,1.63-.67Z"/><path class="cls-1" d="M790.51,9.16a1.25,1.25,0,0,0-1.42-1.44,2.2,2.2,0,0,0-1.76.91v5.2h-2V6.1h2v1A3.54,3.54,0,0,1,790,5.91a2.25,2.25,0,0,1,2.51,2.46v5.46h-2Z"/><path class="cls-1" d="M794.35,3.75A1.22,1.22,0,1,1,795.56,5,1.23,1.23,0,0,1,794.35,3.75Zm.21,2.35h2v7.73h-2Z"/><path class="cls-1" d="M802.11,5.91c2.3,0,3.87,1.73,3.87,4.26v.45h-5.75a2.08,2.08,0,0,0,2.23,1.79,3.16,3.16,0,0,0,2.06-.77l.9,1.31A4.77,4.77,0,0,1,802.24,14,3.92,3.92,0,0,1,798.11,10,3.93,3.93,0,0,1,802.11,5.91Zm-1.9,3.33H804a1.79,1.79,0,0,0-1.91-1.71A1.86,1.86,0,0,0,800.2,9.24Z"/><path class="cls-1" d="M752.78,60A4.09,4.09,0,1,1,756.86,64,3.92,3.92,0,0,1,752.78,60Zm6.07,0a2,2,0,1,0-2,2.26A2,2,0,0,0,758.85,60Z"/><path class="cls-1" d="M767.77,62.86A3,3,0,0,1,765.39,64c-2,0-3.43-1.47-3.43-4s1.46-4.07,3.43-4.07a3,3,0,0,1,2.38,1.18V53.16h2V63.83h-2Zm0-4.26a2.24,2.24,0,0,0-1.76-.88,2.27,2.27,0,0,0,0,4.5,2.23,2.23,0,0,0,1.76-.88Z"/><path class="cls-1" d="M771.84,66.78V56.1h2v1a3,3,0,0,1,2.38-1.17c2,0,3.43,1.47,3.43,4S778.24,64,776.25,64a3,3,0,0,1-2.38-1.18v3.94Zm3.78-9.06a2.28,2.28,0,0,0-1.75.88v2.74a2.33,2.33,0,0,0,1.75.88,2.27,2.27,0,0,0,0-4.5Z"/><path class="cls-1" d="M780.7,60A4.09,4.09,0,1,1,784.78,64,3.92,3.92,0,0,1,780.7,60Zm6.07,0a2,2,0,1,0-2,2.26A2,2,0,0,0,786.77,60Z"/><path class="cls-1" d="M795.53,58.57l-1.63,5.27h-2.18l-2.35-7.73h2.11l1.44,5.2,1.7-5.2h1.81l1.7,5.2,1.44-5.2h2.11l-2.35,7.73h-2.16Z"/><path class="cls-1" d="M802.48,53.75A1.22,1.22,0,1,1,803.69,55,1.23,1.23,0,0,1,802.48,53.75Zm.21,2.35h2v7.73h-2Z"/><path class="cls-1" d="M810.24,55.91c2.3,0,3.87,1.73,3.87,4.26v.45h-5.75a2.08,2.08,0,0,0,2.23,1.79,3.16,3.16,0,0,0,2.06-.77l.9,1.31A4.77,4.77,0,0,1,810.36,64a4.06,4.06,0,1,1-.13-8.12Zm-1.9,3.33h3.81a1.79,1.79,0,0,0-1.91-1.71A1.86,1.86,0,0,0,808.33,59.24Z"/><path class="cls-1" d="M820.89,62.86A3,3,0,0,1,818.51,64c-2,0-3.43-1.47-3.43-4s1.46-4.07,3.43-4.07a3,3,0,0,1,2.38,1.18V53.16h2V63.83h-2Zm0-4.26a2.24,2.24,0,0,0-1.76-.88,2.27,2.27,0,0,0,0,4.5,2.23,2.23,0,0,0,1.76-.88Z"/><path class="cls-1" d="M824.62,62.31l3.49-4.43h-3.49V56.1h6.24v1.47l-3.54,4.48h3.6v1.78h-6.31Zm2.4-7.38,2.14-2.3H831l-2.59,2.3Z"/><path class="cls-1" d="M1023.15,113.92v-4h-1.28v-1.78h1.28V106h2v2.11h1.57v1.78h-1.57v3.49c0,.48.26.85.71.85a1.11,1.11,0,0,0,.71-.22l.43,1.54a2.51,2.51,0,0,1-1.7.5A1.93,1.93,0,0,1,1023.15,113.92Z"/><path class="cls-1" d="M1028.83,117.17a1,1,0,0,0,1.07-.56l.29-.66-3.14-7.84h2.18l2,5.38,2-5.38h2.19l-3.63,9a2.81,2.81,0,0,1-2.93,1.87,5.62,5.62,0,0,1-1-.11l.3-1.83A1.75,1.75,0,0,0,1028.83,117.17Z"/><path class="cls-1" d="M1036.37,105.17h2v10.68h-2Z"/><path class="cls-1" d="M1043.38,112.87l-.93,1v2h-2V105.17h2v6.39l2.93-3.44h2.5l-3.06,3.51,3.15,4.23h-2.54Z"/><path class="cls-1" d="M1048.14,112a4.09,4.09,0,1,1,4.08,4.07A3.92,3.92,0,0,1,1048.14,112Zm6.07,0a2,2,0,1,0-2,2.26A2,2,0,0,0,1054.21,112Z"/><path class="cls-1" d="M1061.92,108.11h2v1.06a3.31,3.31,0,0,1,2.46-1.23v2a2.76,2.76,0,0,0-.56,0,2.58,2.58,0,0,0-1.9.86v5.11h-2Z"/><path class="cls-1" d="M1072.32,115a3.2,3.2,0,0,1-2.45,1,2.58,2.58,0,0,1-2.69-2.56,2.45,2.45,0,0,1,2.69-2.46,3.13,3.13,0,0,1,2.45.94v-1.07c0-.78-.67-1.3-1.7-1.3a3.26,3.26,0,0,0-2.26.91l-.77-1.36a5.07,5.07,0,0,1,3.38-1.22c1.76,0,3.38.7,3.38,2.93v5h-2Zm0-2a2,2,0,0,0-1.63-.67c-.8,0-1.46.43-1.46,1.17s.66,1.14,1.46,1.14a2,2,0,0,0,1.63-.67Z"/><path class="cls-1" d="M1076,114.32l3.49-4.43H1076v-1.78h6.24v1.47l-3.54,4.48h3.6v1.78H1076Z"/><path class="cls-1" d="M1205.94,270.8a4.09,4.09,0,1,1,4.08,4.07A3.91,3.91,0,0,1,1205.94,270.8Zm6.07,0a2,2,0,1,0-2,2.26A2,2,0,0,0,1212,270.8Z"/><path class="cls-1" d="M1215.62,264h2v3.94a3,3,0,0,1,2.38-1.18c2,0,3.43,1.54,3.43,4.07s-1.47,4-3.43,4a3,3,0,0,1-2.38-1.17v1h-2Zm3.78,9.06a2.27,2.27,0,0,0,0-4.5,2.24,2.24,0,0,0-1.75.9v2.74A2.26,2.26,0,0,0,1219.4,273.06Z"/><path class="cls-1" d="M1229.64,273.87a3.2,3.2,0,0,1-2.45,1,2.58,2.58,0,0,1-2.69-2.56,2.45,2.45,0,0,1,2.69-2.46,3.13,3.13,0,0,1,2.45.94v-1.07c0-.78-.67-1.3-1.7-1.3a3.25,3.25,0,0,0-2.26.91l-.77-1.36a5.07,5.07,0,0,1,3.38-1.22c1.76,0,3.38.7,3.38,2.93v5h-2Zm0-2a2,2,0,0,0-1.63-.67c-.8,0-1.46.43-1.46,1.17s.66,1.14,1.46,1.14a2,2,0,0,0,1.63-.67Z"/><path class="cls-1" d="M1242.93,269.41l-1.63,5.27h-2.18l-2.35-7.73h2.11l1.44,5.2,1.7-5.2h1.81l1.7,5.2,1.44-5.2h2.11l-2.35,7.73h-2.16Z"/><path class="cls-1" d="M1250.75,276a1,1,0,0,0,1.07-.56l.29-.66-3.14-7.84h2.18l2,5.38,2-5.38h2.19l-3.63,9a2.81,2.81,0,0,1-2.93,1.87,5.61,5.61,0,0,1-1-.11l.3-1.83A1.76,1.76,0,0,0,1250.75,276Z"/><path class="cls-1" d="M1258.5,272.24a4.42,4.42,0,0,0,2.67,1.06c.88,0,1.3-.3,1.3-.78s-.67-.74-1.55-.91c-1.33-.26-3-.58-3-2.42,0-1.3,1.14-2.43,3.17-2.43a4.86,4.86,0,0,1,3.11,1.06l-.8,1.39a3.26,3.26,0,0,0-2.29-.9c-.74,0-1.22.27-1.22.72s.61.66,1.47.83c1.33.26,3.11.61,3.11,2.53,0,1.42-1.2,2.48-3.34,2.48a5.2,5.2,0,0,1-3.46-1.2Z"/><path class="cls-1" d="M1265.59,273.15l3.49-4.43h-3.49v-1.78h6.24v1.47l-3.54,4.48h3.6v1.78h-6.31Z"/><path class="cls-1" d="M1278.8,273.7a3.62,3.62,0,0,1-2.72,1.17,2.21,2.21,0,0,1-2.5-2.43v-5.49h2v4.69a1.24,1.24,0,0,0,1.42,1.42,2.28,2.28,0,0,0,1.76-.88v-5.23h2v7.73h-2Z"/><path class="cls-1" d="M1285.81,271.7l-.93,1v2h-2V264h2v6.39l2.93-3.44h2.5l-3.06,3.51,3.15,4.23h-2.54Z"/><path class="cls-1" d="M1291.2,264.59a1.22,1.22,0,1,1,1.22,1.22A1.23,1.23,0,0,1,1291.2,264.59Zm.21,2.35h2v7.73h-2Z"/><path class="cls-1" d="M1300.61,269.41l-1.63,5.27h-2.18l-2.35-7.73h2.11l1.44,5.2,1.7-5.2h1.81l1.7,5.2,1.44-5.2h2.11l-2.35,7.73h-2.16Z"/><path class="cls-1" d="M1312.4,273.87a3.2,3.2,0,0,1-2.45,1,2.58,2.58,0,0,1-2.69-2.56,2.45,2.45,0,0,1,2.69-2.46,3.13,3.13,0,0,1,2.45.94v-1.07c0-.78-.67-1.3-1.7-1.3a3.25,3.25,0,0,0-2.26.91l-.77-1.36a5.07,5.07,0,0,1,3.38-1.22c1.76,0,3.38.7,3.38,2.93v5h-2Zm0-2a2,2,0,0,0-1.63-.67c-.8,0-1.46.43-1.46,1.17s.66,1.14,1.46,1.14a2,2,0,0,0,1.63-.67Z"/><path class="cls-1" d="M1321.67,270a1.25,1.25,0,0,0-1.42-1.44,2.2,2.2,0,0,0-1.76.91v5.2h-2v-7.73h2v1a3.54,3.54,0,0,1,2.71-1.2,2.25,2.25,0,0,1,2.51,2.46v5.46h-2Z"/><path class="cls-1" d="M1325.5,264.59a1.22,1.22,0,1,1,1.22,1.22A1.23,1.23,0,0,1,1325.5,264.59Zm.21,2.35h2v7.73h-2Z"/><path class="cls-1" d="M1334.4,273.87a3.2,3.2,0,0,1-2.45,1,2.58,2.58,0,0,1-2.69-2.56,2.45,2.45,0,0,1,2.69-2.46,3.13,3.13,0,0,1,2.45.94v-1.07c0-.78-.67-1.3-1.7-1.3a3.25,3.25,0,0,0-2.26.91l-.77-1.36a5.07,5.07,0,0,1,3.38-1.22c1.76,0,3.38.7,3.38,2.93v5h-2Zm0-2a2,2,0,0,0-1.63-.67c-.8,0-1.46.43-1.46,1.17s.66,1.14,1.46,1.14a2,2,0,0,0,1.63-.67Z"/><path class="cls-1" d="M1205.94,290a4.09,4.09,0,1,1,4.08,4.07A3.91,3.91,0,0,1,1205.94,290Zm6.07,0a2,2,0,1,0-2,2.26A2,2,0,0,0,1212,290Z"/><path class="cls-1" d="M1220.93,292.9a3,3,0,0,1-2.38,1.17c-2,0-3.42-1.47-3.42-4s1.46-4.07,3.42-4.07a3,3,0,0,1,2.38,1.18V283.2h2v10.68h-2Zm0-4.26a2.24,2.24,0,0,0-1.76-.88,2.27,2.27,0,0,0,0,4.5,2.23,2.23,0,0,0,1.76-.88Z"/><path class="cls-1" d="M1225,283.2h2v3.94a3,3,0,0,1,2.38-1.18c2,0,3.43,1.54,3.43,4.07s-1.47,4-3.43,4a3,3,0,0,1-2.38-1.17v1h-2Zm3.78,9.06a2.27,2.27,0,0,0,0-4.5,2.24,2.24,0,0,0-1.75.9v2.74A2.26,2.26,0,0,0,1228.77,292.26Z"/><path class="cls-1" d="M1235,295.2a1,1,0,0,0,1.07-.56l.29-.66-3.14-7.84h2.18l2,5.38,2-5.38h2.19l-3.63,9a2.81,2.81,0,0,1-2.93,1.87,5.61,5.61,0,0,1-1-.11l.3-1.83A1.76,1.76,0,0,0,1235,295.2Z"/><path class="cls-1" d="M1247.73,288.61l-1.63,5.27h-2.18l-2.35-7.73h2.11l1.44,5.2,1.7-5.2h1.81l1.7,5.2,1.44-5.2h2.11l-2.35,7.73h-2.16Z"/><path class="cls-1" d="M1259.53,293.07a3.2,3.2,0,0,1-2.45,1,2.58,2.58,0,0,1-2.69-2.56,2.45,2.45,0,0,1,2.69-2.46,3.13,3.13,0,0,1,2.45.94v-1.07c0-.78-.67-1.3-1.7-1.3a3.25,3.25,0,0,0-2.26.91l-.77-1.36a5.07,5.07,0,0,1,3.38-1.22c1.76,0,3.38.7,3.38,2.93v5h-2Zm0-2a2,2,0,0,0-1.63-.67c-.8,0-1.46.43-1.46,1.17s.66,1.14,1.46,1.14a2,2,0,0,0,1.63-.67Z"/><path class="cls-1" d="M1265.6,294.08c0,1.76-.9,2.93-2.75,2.93a4.35,4.35,0,0,1-.88-.08l.13-1.67a2.11,2.11,0,0,0,.45,0c.59,0,1-.37,1-1.23v-7.94h2Zm-2.24-10.29a1.22,1.22,0,1,1,1.22,1.22A1.23,1.23,0,0,1,1263.36,283.79Z"/><path class="cls-1" d="M1272.89,295.09a.5.5,0,0,0,.54.5,1,1,0,0,0,.46-.11l.38,1.09a2.83,2.83,0,0,1-1.41.29c-.88,0-1.81-.37-1.81-1.28,0-.74.7-1.3,1.73-1.7h-.53v-.8a3.2,3.2,0,0,1-2.45,1,2.58,2.58,0,0,1-2.69-2.56,2.45,2.45,0,0,1,2.69-2.46,3.13,3.13,0,0,1,2.45.94v-1.07c0-.78-.67-1.3-1.7-1.3a3.25,3.25,0,0,0-2.26.91l-.77-1.36a5.07,5.07,0,0,1,3.38-1.22c1.76,0,3.38.7,3.38,2.93v5C1273.33,294.16,1272.89,294.6,1272.89,295.09Zm-.62-4a2,2,0,0,0-1.63-.67c-.8,0-1.46.43-1.46,1.17s.66,1.14,1.46,1.14a2,2,0,0,0,1.63-.67Z"/><path class="cls-1" d="M1280.61,291.44a4.42,4.42,0,0,0,2.67,1.06c.88,0,1.3-.3,1.3-.78s-.67-.74-1.55-.91c-1.33-.26-3-.58-3-2.42,0-1.3,1.14-2.43,3.17-2.43a4.86,4.86,0,0,1,3.11,1.06l-.8,1.39a3.26,3.26,0,0,0-2.29-.9c-.74,0-1.22.27-1.22.72s.61.66,1.47.83c1.33.26,3.11.61,3.11,2.53,0,1.42-1.2,2.48-3.34,2.48a5.2,5.2,0,0,1-3.46-1.2Z"/><path class="cls-1" d="M1287.83,283.79A1.22,1.22,0,1,1,1289,285,1.23,1.23,0,0,1,1287.83,283.79Zm.21,2.35h2v7.73h-2Z"/><path class="cls-1" d="M1291.59,290a3.93,3.93,0,0,1,4-4c2.3,0,3.87,1.73,3.87,4.26v.45h-5.75a2.08,2.08,0,0,0,2.23,1.79,3.29,3.29,0,0,0,2.06-.77l.9,1.31c-.88.66-1.54,1.41-1.54,2a.54.54,0,0,0,.56.59,1,1,0,0,0,.46-.11l.4,1.09a2.94,2.94,0,0,1-1.42.29c-.88,0-1.81-.37-1.81-1.28a2.05,2.05,0,0,1,1.25-1.62,5.28,5.28,0,0,1-1.09.11A3.92,3.92,0,0,1,1291.59,290Zm2.1-.72h3.81a1.79,1.79,0,0,0-1.91-1.71A1.86,1.86,0,0,0,1293.68,289.28Z"/><path class="cls-1" d="M1206.44,305.34h2v1.06a3.31,3.31,0,0,1,2.46-1.23v2a2.75,2.75,0,0,0-.56,0,2.58,2.58,0,0,0-1.91.86v5.11h-2Z"/><path class="cls-1" d="M1211.7,309.2a4.09,4.09,0,1,1,4.08,4.07A3.91,3.91,0,0,1,1211.7,309.2Zm6.07,0a2,2,0,1,0-2,2.26A2,2,0,0,0,1217.77,309.2Zm-2.75-5,2.15-2.3H1219l-2.59,2.3Z"/><path class="cls-1" d="M1226.53,307.81l-1.63,5.27h-2.18l-2.35-7.73h2.11l1.44,5.2,1.7-5.2h1.81l1.7,5.2,1.44-5.2h2.11l-2.35,7.73h-2.16Z"/><path class="cls-1" d="M1238.9,308.4a1.25,1.25,0,0,0-1.42-1.44,2.2,2.2,0,0,0-1.76.91v5.2h-2v-7.73h2v1a3.54,3.54,0,0,1,2.71-1.2,2.25,2.25,0,0,1,2.51,2.46v5.46h-2Z"/><path class="cls-1" d="M1242.45,309.2a4.09,4.09,0,1,1,4.08,4.07A3.92,3.92,0,0,1,1242.45,309.2Zm6.07,0a2,2,0,1,0-2,2.26A2,2,0,0,0,1248.52,309.2Z"/><path class="cls-1" d="M1255.73,305.15a3.56,3.56,0,0,1,3.06,1.41l-1.33,1.23a1.91,1.91,0,0,0-1.63-.83,2.25,2.25,0,0,0,0,4.5,2,2,0,0,0,1.63-.83l1.33,1.23a3.56,3.56,0,0,1-3.06,1.41,4.06,4.06,0,1,1,0-8.12Z"/><path class="cls-1" d="M1259.78,311.55l3.49-4.43h-3.49v-1.78H1266v1.47l-3.54,4.48h3.6v1.78h-6.31Z"/><path class="cls-1" d="M1271.28,305.15c2.3,0,3.87,1.73,3.87,4.26v.45h-5.75a2.08,2.08,0,0,0,2.23,1.79,3.16,3.16,0,0,0,2.06-.77l.9,1.31a4.77,4.77,0,0,1-3.19,1.07,4.06,4.06,0,1,1-.13-8.12Zm-1.9,3.33h3.81a1.79,1.79,0,0,0-1.91-1.71A1.86,1.86,0,0,0,1269.38,308.48Z"/><path class="cls-1" d="M1276.83,310.64a4.42,4.42,0,0,0,2.67,1.06c.88,0,1.3-.3,1.3-.78s-.67-.74-1.55-.91c-1.33-.26-3-.58-3-2.42,0-1.3,1.14-2.43,3.17-2.43a4.86,4.86,0,0,1,3.11,1.06l-.8,1.39a3.26,3.26,0,0,0-2.29-.9c-.74,0-1.22.27-1.22.72s.61.66,1.47.83c1.33.26,3.11.61,3.11,2.53,0,1.42-1.2,2.48-3.34,2.48a5.2,5.2,0,0,1-3.46-1.2Zm1.78-6.47,2.14-2.3h1.87l-2.59,2.3Z"/><path class="cls-1" d="M1289.48,308.4a1.25,1.25,0,0,0-1.42-1.44,2.2,2.2,0,0,0-1.76.91v5.2h-2v-7.73h2v1a3.54,3.54,0,0,1,2.71-1.2,2.25,2.25,0,0,1,2.51,2.46v5.46h-2Z"/><path class="cls-1" d="M1293.31,303a1.22,1.22,0,1,1,1.22,1.22A1.23,1.23,0,0,1,1293.31,303Zm.21,2.35h2v7.73h-2Z"/><path class="cls-1" d="M1301.08,305.15c2.3,0,3.87,1.73,3.87,4.26v.45h-5.75a2.08,2.08,0,0,0,2.23,1.79,3.16,3.16,0,0,0,2.06-.77l.9,1.31a4.77,4.77,0,0,1-3.19,1.07,4.06,4.06,0,1,1-.13-8.12Zm-1.9,3.33H1303a1.79,1.79,0,0,0-1.91-1.71A1.86,1.86,0,0,0,1299.17,308.48Z"/><polygon class="cls-2" points="960.23 298.01 897.73 261.18 900.94 255.74 960.24 290.68 1020.15 255.61 1023.34 261.06 960.23 298.01"/><polygon class="cls-1" points="406.5 173.33 382.81 149.65 406.5 125.96 410.96 130.43 391.75 149.65 410.96 168.86 406.5 173.33"/><polygon class="cls-1" points="573.61 470.42 560.33 457.15 573.61 443.87 578.08 448.34 569.27 457.15 578.08 465.95 573.61 470.42"/><polygon class="cls-1" points="881.86 312.97 877.39 308.5 886.2 299.69 877.39 290.89 881.86 286.42 895.13 299.69 881.86 312.97"/><polygon class="cls-1" points="975.04 226.22 961.76 212.94 966.23 208.47 975.04 217.28 983.85 208.47 988.31 212.94 975.04 226.22"/><polygon class="cls-1" points="661.15 300.07 656.68 295.6 665.49 286.79 656.68 277.99 661.15 273.52 674.42 286.79 661.15 300.07"/><polygon class="cls-1" points="406.5 521.24 382.81 497.55 406.5 473.87 410.96 478.34 391.75 497.55 410.96 516.77 406.5 521.24"/><polygon class="cls-1" points="957.7 226.62 951.38 226.62 951.38 47.79 521 47.79 521 69.75 514.67 69.75 514.67 41.47 957.61 41.47 957.7 44.63 957.7 226.62"/><rect class="cls-1" x="800.11" y="296.54" width="90.55" height="6.32"/><polygon class="cls-1" points="978.2 221.75 971.88 221.75 971.88 26.35 500 26.35 500 76.9 493.68 76.9 493.68 20.02 978.2 20.02 978.2 221.75"/><polygon class="cls-1" points="1005.55 551.66 561.95 551.66 561.95 545.34 999.23 545.34 999.23 338.65 1005.55 338.65 1005.55 551.66"/><polygon class="cls-1" points="984.2 530.31 561.95 530.31 561.95 523.99 977.88 523.99 977.88 353.16 984.2 353.16 984.2 530.31"/><polygon class="cls-1" points="944.85 460.31 566.87 460.31 566.87 453.99 938.53 453.99 938.53 351.66 944.85 351.66 944.85 460.31"/><polygon class="cls-1" points="925.5 438.67 508.34 438.67 508.34 432.35 919.18 432.35 919.18 351.66 925.5 351.66 925.5 438.67"/><path class="cls-1" d="M926.7,317.49c0-4.12,3.16-6.9,7.24-6.9a6.27,6.27,0,0,1,6.16,3.88l-3.48,1.62a2.86,2.86,0,0,0-2.68-1.94,3.35,3.35,0,0,0,0,6.68,2.86,2.86,0,0,0,2.68-1.94l3.48,1.6a6.34,6.34,0,0,1-6.16,3.9C929.86,324.4,926.7,321.59,926.7,317.49Z"/><path class="cls-1" d="M949.75,322.43h-5.12l-.52,1.72h-4.38l4.92-13.34h5.08l4.92,13.34h-4.38Zm-4.08-3.36h3l-1.52-4.7Z"/><path class="cls-1" d="M954,317.49c0-4.12,3.16-6.9,7.24-6.9a6.27,6.27,0,0,1,6.16,3.88L964,316.09a2.86,2.86,0,0,0-2.68-1.94,3.35,3.35,0,0,0,0,6.68,2.86,2.86,0,0,0,2.68-1.94l3.48,1.6a6.34,6.34,0,0,1-6.16,3.9C957.2,324.4,954,321.59,954,317.49Z"/><path class="cls-1" d="M977.53,319.05h-4.78v5.1h-4V310.81h4v4.72h4.78v-4.72h4v13.34h-4Z"/><path class="cls-1" d="M983.72,310.81h10.12v3.36h-6.08v1.56h5.94v3.36h-5.94v1.7h6.08v3.36H983.72Z"/><path class="cls-2" d="M960.3,366.62l-64.8-37.34.39-72.47L960.54,219l64.06,37.74-.13,73Zm-58.46-41,58.46,33.69L1018.16,326l.12-65.69-57.74-34-58.35,34.16Z"/><path class="cls-3" d="M1027.79,303.53"/><path class="cls-1" d="M362,522.16H0V125H362ZM6.32,515.84H355.66V131.36H6.32Z"/><rect class="cls-1" x="3.16" y="170.85" width="355.66" height="6.32"/><path class="cls-1" d="M226.93,271.65H18.61V229H226.93Zm-202-6.32H220.61v-30H24.93Z"/><path class="cls-1" d="M226.93,335.34H18.61V292.69H226.93ZM24.93,329H220.61V299H24.93Z"/><path class="cls-1" d="M226.93,399H18.61V356.38H226.93Zm-202-6.32H220.61v-30H24.93Z"/><path class="cls-2" d="M226.93,468.1H141.61V425.45h85.32Zm-79-6.32h72.68v-30H147.93Z"/><rect class="cls-1" x="253.77" y="229" width="73" height="6.32"/><rect class="cls-1" x="21.77" y="199.77" width="73" height="6.32"/><rect class="cls-1" x="253.77" y="249.47" width="73" height="6.32"/><rect class="cls-1" x="253.77" y="269.93" width="73" height="6.32"/><rect class="cls-1" x="253.77" y="290.39" width="73" height="6.32"/><rect class="cls-1" x="253.77" y="310.86" width="73" height="6.32"/><path class="cls-2" d="M505.41,216.13l-64.8-37.34.39-72.47,64.67-37.85,64.06,37.74-.13,73Zm-58.46-41,58.46,33.69,57.86-33.33.12-65.69-57.74-34L447.29,110Z"/><path class="cls-3" d="M572.9,153"/><polygon class="cls-2" points="505.34 151.39 442.84 114.56 446.05 109.12 505.35 144.06 565.26 108.99 568.45 114.44 505.34 151.39"/><path class="cls-1" d="M486.94,160.21l.72.9-2.8,2.24-.94-1.18a7.94,7.94,0,0,1-2.62.42c-4.12,0-7.3-2.8-7.3-6.9s3.18-6.9,7.3-6.9,7.3,2.8,7.3,6.9A6.67,6.67,0,0,1,486.94,160.21ZM481.42,159l-1.1-1.38,2.8-2.24,1.18,1.5a3.53,3.53,0,0,0,.2-1.22,3.2,3.2,0,1,0-3.2,3.34Z"/><path class="cls-1" d="M490,149h4.1v7.72a2.31,2.31,0,0,0,4.62,0V149h4.1v7.84c0,3.32-1.9,5.74-6.4,5.74s-6.42-2.42-6.42-5.72Z"/><path class="cls-1" d="M505,149h4v13.34h-4Z"/><path class="cls-1" d="M510.5,155.69c0-4.12,3.16-6.9,7.24-6.9a6.27,6.27,0,0,1,6.16,3.88l-3.48,1.62a2.86,2.86,0,0,0-2.68-1.94,3.35,3.35,0,0,0,0,6.68,2.86,2.86,0,0,0,2.68-1.94l3.48,1.6a6.35,6.35,0,0,1-6.16,3.9C513.66,162.59,510.5,159.79,510.5,155.69Z"/><path class="cls-1" d="M529.94,157.65l-.74,1v3.7h-4V149h4v5l3.5-5h4.94l-5,6.2,5.26,7.14h-4.92Z"/><path class="cls-1" d="M467.28,181.47a6.22,6.22,0,0,0,4.3,1.72c.76,0,1.48-.26,1.48-.78s-.56-.78-1.88-1c-2.2-.4-5.56-.92-5.56-4.26,0-2.26,1.88-4.32,5.54-4.32a8.8,8.8,0,0,1,5.66,1.86l-2.16,2.86a6.64,6.64,0,0,0-3.72-1.32c-1,0-1.22.36-1.22.7,0,.52.54.7,2,.94,2.2.38,5.46,1,5.46,4.1s-2.18,4.64-5.76,4.64a8.79,8.79,0,0,1-6.2-2.12Z"/><path class="cls-1" d="M478.46,173h10.12v3.36H482.5v1.56h5.94v3.36H482.5V183h6.08v3.36H478.46Z"/><path class="cls-1" d="M499,184.63h-5.12l-.52,1.72h-4.38L493.86,173h5.08l4.92,13.34h-4.38Zm-4.08-3.36h3l-1.52-4.7Z"/><path class="cls-1" d="M510.08,182.07h-1.46v4.28h-4V173h7.12a4.44,4.44,0,0,1,4.8,4.58,4.3,4.3,0,0,1-2.4,4l2.42,4.72h-4.6Zm1-5.7h-2.46v2.34h2.46a1.18,1.18,0,1,0,0-2.34Z"/><path class="cls-1" d="M517.42,179.69c0-4.12,3.16-6.9,7.24-6.9a6.27,6.27,0,0,1,6.16,3.88l-3.48,1.62a2.86,2.86,0,0,0-2.68-1.94,3.35,3.35,0,0,0,0,6.68,2.86,2.86,0,0,0,2.68-1.94l3.48,1.6a6.35,6.35,0,0,1-6.16,3.9C520.58,186.59,517.42,183.79,517.42,179.69Z"/><path class="cls-1" d="M540.9,181.25h-4.78v5.1h-4V173h4v4.72h4.78V173h4v13.34h-4Z"/><path class="cls-2" d="M733.94,6.55,731.45,9,728.94,6.4,734.55.9h3.83V15.57h-4.44Z"/><path class="cls-2" d="M728.42,64.38c6.71-4.73,7.35-5.28,7.35-6.38,0-.71-.75-1.14-1.78-1.14a5.68,5.68,0,0,0-3.78,1.52l-2.42-2.95A8.58,8.58,0,0,1,734,52.94c3.81,0,6.29,2.11,6.29,5.06,0,2-1.14,3.65-5.08,6h5.21v3.87h-12Z"/><path class="cls-1" d="M550.94,279.39V268.71h2v1a3,3,0,0,1,2.38-1.17c2,0,3.43,1.47,3.43,4s-1.44,4.07-3.43,4.07a3,3,0,0,1-2.38-1.18v3.94Zm3.78-9.06a2.28,2.28,0,0,0-1.75.88v2.74a2.33,2.33,0,0,0,1.75.88,2.27,2.27,0,0,0,0-4.5Z"/><path class="cls-1" d="M561,277.77a1,1,0,0,0,1.07-.56l.29-.66-3.14-7.84h2.18l2,5.38,2-5.38h2.19l-3.63,9a2.81,2.81,0,0,1-2.93,1.87,5.61,5.61,0,0,1-1-.11l.3-1.83A1.76,1.76,0,0,0,561,277.77Z"/><path class="cls-1" d="M568.91,274.52v-4h-1.28v-1.78h1.28V266.6h2v2.11h1.57v1.78H571V274c0,.48.26.85.71.85a1.11,1.11,0,0,0,.7-.22l.43,1.54a2.51,2.51,0,0,1-1.7.5A1.93,1.93,0,0,1,568.91,274.52Z"/><path class="cls-1" d="M578.56,275.64a3.2,3.2,0,0,1-2.45,1,2.58,2.58,0,0,1-2.69-2.56,2.45,2.45,0,0,1,2.69-2.46,3.13,3.13,0,0,1,2.45.94v-1.07c0-.78-.67-1.3-1.7-1.3a3.25,3.25,0,0,0-2.26.91l-.77-1.36a5.07,5.07,0,0,1,3.38-1.22c1.76,0,3.38.7,3.38,2.93v5h-2Zm0-2a2,2,0,0,0-1.63-.67c-.8,0-1.46.43-1.46,1.17s.66,1.14,1.46,1.14a2,2,0,0,0,1.63-.67Z"/><path class="cls-1" d="M587.83,271.77a1.25,1.25,0,0,0-1.42-1.44,2.2,2.2,0,0,0-1.76.91v5.2h-2v-7.73h2v1a3.54,3.54,0,0,1,2.71-1.2,2.25,2.25,0,0,1,2.51,2.46v5.46h-2Z"/><path class="cls-1" d="M591.66,266.36a1.22,1.22,0,1,1,1.22,1.22A1.23,1.23,0,0,1,591.66,266.36Zm.21,2.35h2v7.73h-2Z"/><path class="cls-1" d="M599.42,268.52c2.3,0,3.87,1.73,3.87,4.26v.45h-5.75a2.08,2.08,0,0,0,2.23,1.79,3.16,3.16,0,0,0,2.06-.77l.9,1.31a4.77,4.77,0,0,1-3.19,1.07,4.06,4.06,0,1,1-.13-8.12Zm-1.9,3.33h3.81a1.79,1.79,0,0,0-1.91-1.71A1.86,1.86,0,0,0,597.52,271.85Z"/><path class="cls-1" d="M549.2,324.58a4.09,4.09,0,1,1,4.08,4.07A3.92,3.92,0,0,1,549.2,324.58Zm6.07,0a2,2,0,1,0-2,2.26A2,2,0,0,0,555.27,324.58Z"/><path class="cls-1" d="M564.2,327.48a3,3,0,0,1-2.38,1.17c-2,0-3.43-1.47-3.43-4s1.46-4.07,3.43-4.07a3,3,0,0,1,2.38,1.19v-3.94h2v10.68h-2Zm0-4.26a2.24,2.24,0,0,0-1.76-.88,2.27,2.27,0,0,0,0,4.5,2.23,2.23,0,0,0,1.76-.88Z"/><path class="cls-1" d="M568.26,331.4V320.72h2v1a3,3,0,0,1,2.38-1.17c2,0,3.43,1.47,3.43,4s-1.44,4.07-3.43,4.07a3,3,0,0,1-2.38-1.18v3.94Zm3.78-9.06a2.28,2.28,0,0,0-1.75.88V326a2.33,2.33,0,0,0,1.75.88,2.27,2.27,0,0,0,0-4.5Z"/><path class="cls-1" d="M577.12,324.58a4.09,4.09,0,1,1,4.08,4.07A3.92,3.92,0,0,1,577.12,324.58Zm6.07,0a2,2,0,1,0-2,2.26A2,2,0,0,0,583.19,324.58Z"/><path class="cls-1" d="M592,323.19l-1.63,5.27h-2.18l-2.35-7.73h2.11l1.44,5.2,1.7-5.2h1.81l1.7,5.2,1.44-5.2h2.11l-2.35,7.73h-2.16Z"/><path class="cls-1" d="M598.9,318.37a1.22,1.22,0,1,1,1.22,1.22A1.23,1.23,0,0,1,598.9,318.37Zm.21,2.35h2v7.73h-2Z"/><path class="cls-1" d="M606.66,320.53c2.3,0,3.87,1.73,3.87,4.26v.45h-5.75A2.08,2.08,0,0,0,607,327a3.16,3.16,0,0,0,2.06-.77l.9,1.31a4.76,4.76,0,0,1-3.19,1.07,4.06,4.06,0,1,1-.13-8.12Zm-1.9,3.33h3.81a1.79,1.79,0,0,0-1.91-1.71A1.86,1.86,0,0,0,604.76,323.86Z"/><path class="cls-1" d="M617.32,327.48a3,3,0,0,1-2.38,1.17c-2,0-3.43-1.47-3.43-4s1.46-4.07,3.43-4.07a3,3,0,0,1,2.38,1.19v-3.94h2v10.68h-2Zm0-4.26a2.24,2.24,0,0,0-1.76-.88,2.27,2.27,0,0,0,0,4.5,2.23,2.23,0,0,0,1.76-.88Z"/><path class="cls-1" d="M621,326.93l3.49-4.43H621v-1.78h6.24v1.47l-3.54,4.48h3.6v1.78H621Zm2.4-7.38,2.14-2.3h1.87l-2.59,2.3Z"/><path class="cls-1" d="M636.88,324.56a11.15,11.15,0,0,1,2.53-7.07l1.28,1a11.64,11.64,0,0,0-1.62,6.11,11.45,11.45,0,0,0,1.62,6.08l-1.28,1A11.12,11.12,0,0,1,636.88,324.56Z"/><path class="cls-1" d="M642,317.78h2.27v10.68H642Z"/><path class="cls-1" d="M646.42,317.78h4.21c3.34,0,5.67,2.13,5.67,5.35s-2.32,5.33-5.67,5.33h-4.21Zm4.21,8.68a3.19,3.19,0,0,0,3.34-3.33,3.12,3.12,0,0,0-3.34-3.35h-1.94v6.67Z"/><path class="cls-1" d="M657.12,318.45l1.28-1a11.06,11.06,0,0,1,0,14.15l-1.28-1a11.32,11.32,0,0,0,1.63-6.08A11.5,11.5,0,0,0,657.12,318.45Z"/><path class="cls-2" d="M531.25,269.16l-2.49,2.46L526.26,269l5.61-5.5h3.83v14.68h-4.44Z"/><path class="cls-2" d="M524.84,329c6.71-4.73,7.35-5.28,7.35-6.38,0-.7-.75-1.14-1.78-1.14a5.68,5.68,0,0,0-3.78,1.52L524.2,320a8.58,8.58,0,0,1,6.21-2.49c3.81,0,6.29,2.11,6.29,5.06,0,2-1.14,3.65-5.08,6h5.21v3.87h-12Z"/><path class="cls-1" d="M753.25,415.17h2.27v10.68h-2.27Z"/><path class="cls-1" d="M757.63,415.17h4.21c3.34,0,5.67,2.13,5.67,5.35s-2.32,5.33-5.67,5.33h-4.21Zm4.21,8.68a3.2,3.2,0,0,0,3.34-3.33,3.12,3.12,0,0,0-3.34-3.35H759.9v6.67Z"/><path class="cls-1" d="M772.64,421.11h8.53v1.73h-8.53Z"/><path class="cls-1" d="M786.54,415.76a1.22,1.22,0,1,1,1.22,1.22A1.23,1.23,0,0,1,786.54,415.76Zm.21,2.35h2v7.73h-2Z"/><path class="cls-1" d="M790.8,415.17h2v10.68h-2Z"/><path class="cls-1" d="M798.35,417.93c2.3,0,3.87,1.73,3.87,4.26v.45h-5.75a2.08,2.08,0,0,0,2.23,1.79,3.16,3.16,0,0,0,2.06-.77l.9,1.31a4.77,4.77,0,0,1-3.19,1.07,4.06,4.06,0,1,1-.13-8.12Zm-1.9,3.33h3.81a1.79,1.79,0,0,0-1.91-1.71A1.86,1.86,0,0,0,796.45,421.25Z"/><path class="cls-1" d="M812.94,420.58l-1.63,5.27h-2.18l-2.35-7.73h2.11l1.44,5.2,1.7-5.2h1.81l1.7,5.2,1.44-5.2h2.11l-2.35,7.73h-2.16Z"/><path class="cls-1" d="M820.77,427.18a1,1,0,0,0,1.07-.56l.29-.66L819,418.12h2.18l2,5.38,2-5.38h2.19l-3.63,9a2.81,2.81,0,0,1-2.93,1.87,5.61,5.61,0,0,1-1-.11l.3-1.83A1.76,1.76,0,0,0,820.77,427.18Z"/><path class="cls-1" d="M833.52,421.17a1.25,1.25,0,0,0-1.42-1.44,2.2,2.2,0,0,0-1.76.91v5.2h-2v-7.73h2v1a3.54,3.54,0,0,1,2.71-1.2,2.25,2.25,0,0,1,2.51,2.46v5.46h-2Z"/><path class="cls-1" d="M837.36,415.76a1.22,1.22,0,1,1,1.22,1.22A1.23,1.23,0,0,1,837.36,415.76Zm.21,2.35h2v7.73h-2Z"/><path class="cls-1" d="M844.57,422.87l-.93,1v2h-2V415.17h2v6.39l2.93-3.44h2.5L846,421.62l3.15,4.23h-2.54Z"/><path class="cls-1" d="M849.34,422a4.09,4.09,0,1,1,4.08,4.07A3.92,3.92,0,0,1,849.34,422Zm6.07,0a2,2,0,1,0-2,2.26A2,2,0,0,0,855.41,422Zm-2.75-5,2.15-2.3h1.87l-2.59,2.3Z"/><path class="cls-1" d="M864.17,420.58l-1.63,5.27h-2.18L858,418.12h2.11l1.44,5.2,1.7-5.2h1.81l1.7,5.2,1.44-5.2h2.11L868,425.85h-2.16Z"/><path class="cls-1" d="M874,419.08c.5-.35.93-.66.93-1.14s-.37-.91-1.25-.91a2.56,2.56,0,0,0-2,1l-1.3-1.46A4.58,4.58,0,0,1,874,415c2.06,0,3.33,1,3.33,2.53a3,3,0,0,1-1.62,2.5c-.56.42-1.06.77-1.06,1.36a1,1,0,0,0,.29.67l-1.74.51a2,2,0,0,1-.53-1.41A2.55,2.55,0,0,1,874,419.08Zm-.11,4.35a1.3,1.3,0,1,1-1.3,1.3A1.31,1.31,0,0,1,873.93,423.43Z"/><path class="cls-1" d="M751.39,472.4a4.09,4.09,0,1,1,4.08,4.07A3.92,3.92,0,0,1,751.39,472.4Zm6.07,0a2,2,0,1,0-2,2.26A2,2,0,0,0,757.46,472.4Z"/><path class="cls-1" d="M766.38,475.3a3,3,0,0,1-2.38,1.17c-2,0-3.43-1.47-3.43-4s1.46-4.07,3.43-4.07a3,3,0,0,1,2.38,1.18V465.6h2v10.68h-2Zm0-4.26a2.24,2.24,0,0,0-1.76-.88,2.27,2.27,0,0,0,0,4.5,2.23,2.23,0,0,0,1.76-.88Z"/><path class="cls-1" d="M770.45,479.22V468.54h2v1a3,3,0,0,1,2.38-1.17c2,0,3.43,1.47,3.43,4s-1.44,4.07-3.43,4.07a3,3,0,0,1-2.38-1.18v3.94Zm3.78-9.06a2.28,2.28,0,0,0-1.75.88v2.74a2.33,2.33,0,0,0,1.75.88,2.27,2.27,0,0,0,0-4.5Z"/><path class="cls-1" d="M779.31,472.4a4.09,4.09,0,1,1,4.08,4.07A3.92,3.92,0,0,1,779.31,472.4Zm6.07,0a2,2,0,1,0-2,2.26A2,2,0,0,0,785.38,472.4Z"/><path class="cls-1" d="M794.14,471l-1.63,5.27h-2.18L788,468.54h2.11l1.44,5.2,1.7-5.2H795l1.7,5.2,1.44-5.2h2.11l-2.35,7.73h-2.16Z"/><path class="cls-1" d="M801.09,466.19a1.22,1.22,0,1,1,1.22,1.22A1.23,1.23,0,0,1,801.09,466.19Zm.21,2.35h2v7.73h-2Z"/><path class="cls-1" d="M808.85,468.35c2.3,0,3.87,1.73,3.87,4.26v.45H807a2.08,2.08,0,0,0,2.22,1.79,3.16,3.16,0,0,0,2.06-.77l.9,1.31a4.76,4.76,0,0,1-3.19,1.07,4.06,4.06,0,1,1-.13-8.12Zm-1.9,3.33h3.81a1.79,1.79,0,0,0-1.9-1.71A1.86,1.86,0,0,0,806.94,471.68Z"/><path class="cls-1" d="M819.5,475.3a3,3,0,0,1-2.38,1.17c-2,0-3.43-1.47-3.43-4s1.46-4.07,3.43-4.07a3,3,0,0,1,2.38,1.18V465.6h2v10.68h-2Zm0-4.26a2.24,2.24,0,0,0-1.76-.88,2.27,2.27,0,0,0,0,4.5,2.23,2.23,0,0,0,1.76-.88Z"/><path class="cls-1" d="M823.23,474.75l3.49-4.43h-3.49v-1.78h6.24V470l-3.54,4.48h3.6v1.78h-6.31Zm2.4-7.38,2.14-2.3h1.87l-2.59,2.3Z"/><path class="cls-2" d="M729.58,422.68a6.65,6.65,0,0,0,4,1.45c1.45,0,2.13-.53,2.13-1.12s-.31-.95-2.27-.95c-.64,0-1.91,0-2.13,0v-3.76c.29,0,1.61,0,2.13,0,1.41,0,2-.35,2-.88,0-.68-.9-1.06-2.18-1.06a6,6,0,0,0-3.65,1.36l-2-2.68a8,8,0,0,1,6.16-2.42c4,0,6.12,1.65,6.12,4.07a3.58,3.58,0,0,1-3.23,3.26,3.7,3.7,0,0,1,3.48,3.43c0,2.62-2.57,4.4-6.38,4.4a8.58,8.58,0,0,1-6.34-2.29Z"/><path class="cls-2" d="M733.33,477.92h-7.06v-3.41l5.35-8.91h6.16V474h1.69v3.87h-1.69v2.35h-4.44ZM730.56,474h2.77v-4.62Z"/><path class="cls-1" d="M752.06,507.18h2.27v10.68h-2.27Z"/><path class="cls-1" d="M756.44,507.18h4.21c3.34,0,5.67,2.13,5.67,5.35s-2.32,5.33-5.67,5.33h-4.21Zm4.21,8.68a3.19,3.19,0,0,0,3.34-3.33,3.12,3.12,0,0,0-3.34-3.35h-1.94v6.67Z"/><path class="cls-1" d="M771.45,513.12H780v1.73h-8.53Z"/><path class="cls-1" d="M787.59,518.06c0,1.76-.9,2.93-2.75,2.93a4.28,4.28,0,0,1-.88-.08l.13-1.66a2.18,2.18,0,0,0,.45,0c.59,0,1-.37,1-1.23v-7.94h2Zm-2.24-10.29a1.22,1.22,0,1,1,1.22,1.22A1.23,1.23,0,0,1,785.35,507.77Z"/><path class="cls-1" d="M794.25,517.05a3.2,3.2,0,0,1-2.45,1,2.57,2.57,0,0,1-2.69-2.56A2.45,2.45,0,0,1,791.8,513a3.13,3.13,0,0,1,2.45.94v-1.07c0-.78-.67-1.3-1.7-1.3a3.25,3.25,0,0,0-2.26.91l-.77-1.36a5.07,5.07,0,0,1,3.38-1.22c1.76,0,3.38.71,3.38,2.93v5h-2Zm0-2a2,2,0,0,0-1.63-.67c-.8,0-1.46.43-1.46,1.17s.66,1.14,1.46,1.14a2,2,0,0,0,1.63-.67Z"/><path class="cls-1" d="M801.26,514.88l-.93,1v2h-2V507.18h2v6.39l2.93-3.44h2.5l-3.06,3.51,3.15,4.23h-2.54Z"/><path class="cls-1" d="M806.65,507.77a1.22,1.22,0,1,1,1.22,1.22A1.23,1.23,0,0,1,806.65,507.77Zm.21,2.35h2v7.73h-2Z"/><path class="cls-1" d="M814.41,509.93c2.3,0,3.87,1.73,3.87,4.26v.45h-5.75a2.08,2.08,0,0,0,2.23,1.79,3.16,3.16,0,0,0,2.06-.77l.9,1.31a4.76,4.76,0,0,1-3.19,1.07,4.06,4.06,0,1,1-.13-8.12Zm-1.9,3.33h3.81a1.79,1.79,0,0,0-1.91-1.71A1.86,1.86,0,0,0,812.51,513.26Z"/><path class="cls-1" d="M829,512.59l-1.63,5.27h-2.18l-2.35-7.73H825l1.44,5.2,1.7-5.2h1.81l1.7,5.2,1.44-5.2h2.11l-2.35,7.73h-2.16Z"/><path class="cls-1" d="M836.82,519.18a1,1,0,0,0,1.07-.56l.29-.66L835,510.12h2.18l2,5.38,2-5.38h2.19l-3.63,9a2.81,2.81,0,0,1-2.93,1.87,5.69,5.69,0,0,1-1-.11l.3-1.83A1.76,1.76,0,0,0,836.82,519.18Z"/><path class="cls-1" d="M849.58,513.18a1.26,1.26,0,0,0-1.42-1.44,2.21,2.21,0,0,0-1.76.91v5.2h-2v-7.73h2v1a3.53,3.53,0,0,1,2.71-1.2,2.25,2.25,0,0,1,2.51,2.46v5.46h-2Z"/><path class="cls-1" d="M853.42,507.77a1.22,1.22,0,1,1,1.22,1.22A1.23,1.23,0,0,1,853.42,507.77Zm.21,2.35h2v7.73h-2Z"/><path class="cls-1" d="M860.63,514.88l-.93,1v2h-2V507.18h2v6.39l2.93-3.44h2.5l-3.06,3.51,3.15,4.23h-2.54Z"/><path class="cls-1" d="M866,507.77a1.22,1.22,0,1,1,1.22,1.22A1.23,1.23,0,0,1,866,507.77Zm.21,2.35h2v7.73h-2Z"/><path class="cls-1" d="M873,511.08c.5-.35.93-.66.93-1.14s-.37-.91-1.25-.91a2.56,2.56,0,0,0-2,1l-1.3-1.46a4.58,4.58,0,0,1,3.5-1.55c2.06,0,3.33,1,3.33,2.53a3,3,0,0,1-1.62,2.5c-.56.42-1.06.77-1.06,1.36a1,1,0,0,0,.29.67l-1.74.51a2,2,0,0,1-.53-1.41A2.55,2.55,0,0,1,873,511.08Zm-.11,4.35a1.3,1.3,0,1,1-1.3,1.3A1.31,1.31,0,0,1,872.89,515.44Z"/><path class="cls-1" d="M748.75,563a4.09,4.09,0,1,1,4.08,4.07A3.92,3.92,0,0,1,748.75,563Zm6.07,0a2,2,0,1,0-2,2.26A2,2,0,0,0,754.82,563Z"/><path class="cls-1" d="M763.75,565.88a3,3,0,0,1-2.38,1.17c-2,0-3.43-1.47-3.43-4s1.46-4.07,3.43-4.07a3,3,0,0,1,2.38,1.19v-3.94h2v10.68h-2Zm0-4.26a2.24,2.24,0,0,0-1.76-.88,2.27,2.27,0,0,0,0,4.5,2.23,2.23,0,0,0,1.76-.88Z"/><path class="cls-1" d="M767.81,569.8V559.12h2v1a3,3,0,0,1,2.38-1.17c2,0,3.43,1.47,3.43,4s-1.44,4.07-3.43,4.07a3,3,0,0,1-2.38-1.18v3.94Zm3.78-9.06a2.28,2.28,0,0,0-1.75.88v2.74a2.33,2.33,0,0,0,1.75.88,2.27,2.27,0,0,0,0-4.5Z"/><path class="cls-1" d="M776.67,563a4.09,4.09,0,1,1,4.08,4.07A3.92,3.92,0,0,1,776.67,563Zm6.07,0a2,2,0,1,0-2,2.26A2,2,0,0,0,782.74,563Z"/><path class="cls-1" d="M791.51,561.59l-1.63,5.27H787.7l-2.35-7.73h2.11l1.44,5.2,1.7-5.2h1.81l1.7,5.2,1.44-5.2h2.11l-2.35,7.73h-2.16Z"/><path class="cls-1" d="M798.45,556.77a1.22,1.22,0,1,1,1.22,1.22A1.23,1.23,0,0,1,798.45,556.77Zm.21,2.35h2v7.73h-2Z"/><path class="cls-1" d="M806.21,558.93c2.3,0,3.87,1.73,3.87,4.26v.45h-5.75a2.08,2.08,0,0,0,2.23,1.79,3.16,3.16,0,0,0,2.06-.77l.9,1.31a4.76,4.76,0,0,1-3.19,1.07,4.06,4.06,0,1,1-.13-8.12Zm-1.9,3.33h3.81a1.79,1.79,0,0,0-1.91-1.71A1.86,1.86,0,0,0,804.31,562.26Z"/><path class="cls-1" d="M816.87,565.88a3,3,0,0,1-2.38,1.17c-2,0-3.43-1.47-3.43-4s1.46-4.07,3.43-4.07a3,3,0,0,1,2.38,1.19v-3.94h2v10.68h-2Zm0-4.26a2.24,2.24,0,0,0-1.76-.88,2.27,2.27,0,0,0,0,4.5,2.23,2.23,0,0,0,1.76-.88Z"/><path class="cls-1" d="M820.59,565.33l3.49-4.43h-3.49v-1.78h6.24v1.47l-3.54,4.48h3.6v1.78h-6.31ZM823,558l2.14-2.3H827l-2.59,2.3Z"/><path class="cls-2" d="M729,514.86a6.23,6.23,0,0,0,3.78,1.28c1.47,0,2.07-.68,2.07-1.39s-.57-1.32-1.94-1.32a3.72,3.72,0,0,0-2.73,1l-3.06-.7v-8.82h11.22v3.7h-7v2.33a5.51,5.51,0,0,1,3.28-1.12,4.62,4.62,0,0,1,4.73,4.75c0,3.23-2.42,5.28-6.54,5.28a8.93,8.93,0,0,1-6.14-2.07Z"/><path class="cls-2" d="M731.45,556a8.52,8.52,0,0,1,4.58,1.28l-1.87,3.23a4.41,4.41,0,0,0-2.71-.79,3,3,0,0,0-3.21,2.84v0a4.31,4.31,0,0,1,3.41-1.5c2.64,0,5.19,1.65,5.19,4.77s-2.62,5.28-6.1,5.28c-4.82,0-7-3.28-7-7.57C723.75,558.64,726.9,556,731.45,556Zm-1.17,8.69a3.6,3.6,0,0,0-2.07.59,2.22,2.22,0,0,0,2.33,2.16c1.14,0,1.78-.64,1.78-1.34C732.33,565,731.28,564.65,730.29,564.65Z"/><path class="cls-1" d="M1006.8,225.78h-15v-6.32h15Zm5.59-20.73h-6.32v-15h6.32Zm0-35h-6.32v-15h6.32Zm0-35h-6.32v-15h6.32Zm0-35h-6.32v-15h6.32Zm0-35h-6.32v-15h6.32Zm0-35h-6.32v-15h6.32Zm-12-23h-15V.74h15Z"/><path class="cls-1" d="M1054.93,535.09l-1.63,5.27h-2.18l-2.35-7.73h2.11l1.44,5.2,1.7-5.2h1.81l1.7,5.2,1.44-5.2h2.11l-2.35,7.73h-2.16Z"/><path class="cls-1" d="M1061.87,530.28a1.22,1.22,0,1,1,1.22,1.22A1.23,1.23,0,0,1,1061.87,530.28Zm.21,2.35h2v7.73h-2Z"/><path class="cls-1" d="M1069.63,532.44c2.3,0,3.87,1.73,3.87,4.26v.45h-5.75a2.08,2.08,0,0,0,2.23,1.79,3.16,3.16,0,0,0,2.06-.77l.9,1.31a4.77,4.77,0,0,1-3.19,1.07,4.06,4.06,0,1,1-.13-8.12Zm-1.9,3.33h3.81a1.79,1.79,0,0,0-1.91-1.71A1.86,1.86,0,0,0,1067.73,535.77Z"/><path class="cls-1" d="M1075,529.68h2v10.68h-2Z"/><path class="cls-1" d="M1078.52,536.49a4.09,4.09,0,1,1,4.08,4.07A3.92,3.92,0,0,1,1078.52,536.49Zm6.07,0a2,2,0,1,0-2,2.26A2,2,0,0,0,1084.59,536.49Z"/><path class="cls-1" d="M1091.17,537.38l-.93,1v2h-2V529.68h2v6.39l2.93-3.44h2.5l-3.06,3.51,3.15,4.23h-2.54Z"/><path class="cls-1" d="M1096.76,532.63h2v1.06a3.31,3.31,0,0,1,2.46-1.23v2a2.75,2.75,0,0,0-.56,0,2.58,2.58,0,0,0-1.91.86v5.11h-2Z"/><path class="cls-1" d="M1102,536.49a4.09,4.09,0,1,1,4.08,4.07A3.91,3.91,0,0,1,1102,536.49Zm6.07,0a2,2,0,1,0-2,2.26A2,2,0,0,0,1108.09,536.49Z"/><path class="cls-1" d="M1112.11,538.44v-4h-1.28v-1.78h1.28v-2.11h2v2.11h1.57v1.78h-1.57v3.49c0,.48.26.85.71.85a1.11,1.11,0,0,0,.7-.22l.43,1.54a2.51,2.51,0,0,1-1.7.5A1.93,1.93,0,0,1,1112.11,538.44Z"/><path class="cls-1" d="M1122.33,535.69a1.25,1.25,0,0,0-1.42-1.44,2.2,2.2,0,0,0-1.76.91v5.2h-2v-7.73h2v1a3.54,3.54,0,0,1,2.71-1.2,2.25,2.25,0,0,1,2.51,2.46v5.46h-2Z"/><path class="cls-1" d="M1126.17,530.28a1.22,1.22,0,1,1,1.22,1.22A1.23,1.23,0,0,1,1126.17,530.28Zm.21,2.35h2v7.73h-2Z"/><path class="cls-1" d="M1133.93,532.44c2.3,0,3.87,1.73,3.87,4.26v.45h-5.75a2.08,2.08,0,0,0,2.23,1.79,3.16,3.16,0,0,0,2.06-.77l.9,1.31a4.77,4.77,0,0,1-3.19,1.07,4.06,4.06,0,1,1-.13-8.12Zm-1.9,3.33h3.81a1.79,1.79,0,0,0-1.91-1.71A1.86,1.86,0,0,0,1132,535.77Z"/><path class="cls-1" d="M1034.56,579.12h-15V572.8h15Zm8.31-18h-6.32v-15h6.32Zm0-35h-6.32v-15h6.32Zm-12-23h-15V496.8h15Z"/><path class="cls-1" d="M1166.27,579.12h-15V572.8h15Zm21.35-5h-6.32v-15h6.32Zm0-35h-6.32v-15h6.32Zm0-35h-6.32v-15h6.32Zm0-35h-6.32v-15h6.32Zm0-35h-6.32v-15h6.32Zm0-35h-6.32v-15h6.32Zm0-35h-6.32v-15h6.32Zm0-35h-6.32v-15h6.32Zm0-35h-6.32v-15h6.32Zm0-35h-6.32v-15h6.32Zm0-35h-6.32v-15h6.32Zm0-35h-6.32v-15h6.32Zm0-35h-6.32v-15h6.32Zm0-35h-6.32v-15h6.32Zm0-35h-6.32v-15h6.32Zm0-35h-6.32v-15h6.32Zm0-35h-6.32V6.32h-.86V0h7.18Zm-27.18-7.82h-15V0h15Z"/><polygon class="cls-1" points="490.42 434.88 484.1 434.88 484.1 283.63 666.43 283.63 666.43 289.95 490.42 289.95 490.42 434.88"/><polygon class="cls-1" points="511.49 419.6 505.17 419.6 505.17 304.71 674.93 304.71 674.93 311.03 511.49 311.03 511.49 419.6"/><path class="cls-2" d="M739,366.62l-64.8-37.34.39-72.47L739.28,219l64.06,37.74-.13,73Zm-58.46-41L739,359.32,796.89,326,797,260.3l-57.74-34-58.35,34.16Z"/><path class="cls-3" d="M806.52,303.53"/><polygon class="cls-2" points="738.96 298.01 676.46 261.18 679.67 255.74 738.97 290.68 798.88 255.61 802.07 261.06 738.96 298.01"/><path class="cls-1" d="M683.89,305.67c0-4.12,3.16-6.9,7.24-6.9a6.27,6.27,0,0,1,6.16,3.88l-3.48,1.62a2.86,2.86,0,0,0-2.68-1.94,3.35,3.35,0,0,0,0,6.68,2.86,2.86,0,0,0,2.68-1.94l3.48,1.6a6.34,6.34,0,0,1-6.16,3.9C687.05,312.57,683.89,309.77,683.89,305.67Z"/><path class="cls-1" d="M698.55,299h4.1v7.72a2.31,2.31,0,0,0,4.62,0V299h4.1v7.84c0,3.32-1.9,5.74-6.4,5.74s-6.42-2.42-6.42-5.72Z"/><path class="cls-1" d="M714.61,307.45a6.22,6.22,0,0,0,4.3,1.72c.76,0,1.48-.26,1.48-.78s-.56-.78-1.88-1c-2.2-.4-5.56-.92-5.56-4.26,0-2.26,1.88-4.32,5.54-4.32a8.8,8.8,0,0,1,5.66,1.86L722,303.51a6.64,6.64,0,0,0-3.72-1.32c-1,0-1.22.36-1.22.7,0,.52.54.7,2,.94,2.2.38,5.46,1,5.46,4.1s-2.18,4.64-5.76,4.64a8.79,8.79,0,0,1-6.2-2.12Z"/><path class="cls-1" d="M728.65,302.51h-3.58V299h11.18v3.52h-3.56v9.82h-4Z"/><path class="cls-1" d="M743.87,298.77c4.12,0,7.3,2.8,7.3,6.9s-3.18,6.9-7.3,6.9-7.3-2.8-7.3-6.9S739.75,298.77,743.87,298.77Zm0,3.56a3.34,3.34,0,1,0,3.2,3.34A3.16,3.16,0,0,0,743.87,302.33Z"/><path class="cls-1" d="M764.41,303.91l-3,8.42h-1.8l-3-8.42v8.42h-4V299h5.58l2.34,6.8,2.34-6.8h5.58v13.34h-4Z"/><path class="cls-1" d="M770.61,299h10.12v3.36h-6.08v1.56h5.94v3.36h-5.94V309h6.08v3.36H770.61Z"/><path class="cls-1" d="M788,308.05h-1.46v4.28h-4V299h7.12a4.44,4.44,0,0,1,4.8,4.58,4.3,4.3,0,0,1-2.4,4l2.42,4.72h-4.6Zm1-5.7h-2.46v2.34H789a1.18,1.18,0,1,0,0-2.34Z"/><path class="cls-1" d="M732.11,336.61H727l-.52,1.72h-4.38L727,325h5.08L737,338.33h-4.38ZM728,333.25h3l-1.52-4.7Z"/><path class="cls-1" d="M737.73,325h7.12a4.44,4.44,0,0,1,4.8,4.58c0,2.48-1.68,4.48-4.8,4.48h-3.08v4.28h-4Zm6.6,3.36h-2.56v2.34h2.56a1.17,1.17,0,1,0,0-2.34Z"/><path class="cls-1" d="M751,325h4v13.34h-4Z"/><path class="cls-2" d="M499.83,574.37,435,537l.39-72.47,64.67-37.85,64.06,37.74-.13,73Zm-58.46-41,58.46,33.69,57.86-33.33.12-65.69-57.74-34L441.72,468.2Z"/><path class="cls-3" d="M567.32,511.29"/><polygon class="cls-2" points="499.77 508.58 437.27 471.76 440.48 466.32 499.78 501.25 559.68 466.19 562.88 471.64 499.77 508.58"/><path class="cls-1" d="M462.48,507.65h4v9.82h5.06V521h-9.1Z"/><path class="cls-1" d="M473.2,507.65h10.12V511h-6.08v1.56h5.94v3.36h-5.94v1.7h6.08V521H473.2Z"/><path class="cls-1" d="M491.74,507.43a6.27,6.27,0,0,1,5.86,3.28l-3.4,1.74a2.76,2.76,0,0,0-2.46-1.46,3.34,3.34,0,0,0,0,6.68,3.79,3.79,0,0,0,2.18-.6v-.58h-2.58v-3.32h6.5v5.36a7.92,7.92,0,0,1-6.1,2.7c-4,0-7.34-2.64-7.34-6.9S487.7,507.43,491.74,507.43Z"/><path class="cls-1" d="M508,519.28H502.9l-.52,1.72H498l4.92-13.34H508L512.92,521h-4.38Zm-4.08-3.36h3l-1.52-4.7Z"/><path class="cls-1" d="M512.32,514.33c0-4.12,3.16-6.9,7.24-6.9a6.27,6.27,0,0,1,6.16,3.88l-3.48,1.62a2.86,2.86,0,0,0-2.68-1.94,3.35,3.35,0,0,0,0,6.68,2.86,2.86,0,0,0,2.68-1.94l3.48,1.6a6.34,6.34,0,0,1-6.16,3.9C515.48,521.24,512.32,518.44,512.32,514.33Z"/><path class="cls-1" d="M529.94,515.7l-5-8h4.54l2.48,4.5,2.44-4.5h4.54l-5,8V521h-4Z"/><path class="cls-1" d="M461.7,542.12a6.22,6.22,0,0,0,4.3,1.72c.76,0,1.48-.26,1.48-.78s-.56-.78-1.88-1c-2.2-.4-5.56-.92-5.56-4.26,0-2.26,1.88-4.32,5.54-4.32a8.8,8.8,0,0,1,5.66,1.86l-2.16,2.86a6.64,6.64,0,0,0-3.72-1.32c-1,0-1.22.36-1.22.7,0,.52.54.7,2,.94,2.2.38,5.46,1,5.46,4.1s-2.18,4.64-5.76,4.64a8.8,8.8,0,0,1-6.2-2.12Z"/><path class="cls-1" d="M472.88,533.65H483V537h-6.08v1.56h5.94v3.36h-5.94v1.7H483V547H472.88Z"/><path class="cls-1" d="M493.38,545.28h-5.12l-.52,1.72h-4.38l4.92-13.34h5.08L498.28,547H493.9Zm-4.08-3.36h3l-1.52-4.7Z"/><path class="cls-1" d="M504.5,542.71H503V547h-4V533.65h7.12a4.44,4.44,0,0,1,4.8,4.58,4.3,4.3,0,0,1-2.4,4l2.42,4.72h-4.6Zm1-5.7H503v2.34h2.46a1.18,1.18,0,1,0,0-2.34Z"/><path class="cls-1" d="M511.84,540.33c0-4.12,3.16-6.9,7.24-6.9a6.27,6.27,0,0,1,6.16,3.88l-3.48,1.62a2.86,2.86,0,0,0-2.68-1.94,3.35,3.35,0,0,0,0,6.68,2.86,2.86,0,0,0,2.68-1.94l3.48,1.6a6.34,6.34,0,0,1-6.16,3.9C515,547.24,511.84,544.44,511.84,540.33Z"/><path class="cls-1" d="M535.32,541.89h-4.78V547h-4V533.65h4v4.72h4.78v-4.72h4V547h-4Z"/><polygon class="cls-1" points="508.33 428.47 495.06 415.19 499.52 410.73 508.33 419.53 517.14 410.73 521.61 415.19 508.33 428.47"/><polygon class="cls-1" points="913.53 362.51 909.07 358.05 922.34 344.77 935.62 358.05 931.15 362.51 922.34 353.71 913.53 362.51"/><polygon class="cls-1" points="517.84 75.62 504.56 62.35 509.03 57.88 517.84 66.69 526.64 57.88 531.11 62.35 517.84 75.62"/><polygon class="cls-1" points="568.09 561.77 554.81 548.5 568.09 535.22 572.56 539.69 563.75 548.5 572.56 557.31 568.09 561.77"/></g></g></svg>