<svg xmlns="http://www.w3.org/2000/svg" viewBox="0 0 167.19 158.49"><title>Zasób 29</title><g id="Warstwa_2" data-name="Warstwa 2"><g id="Warstwa_1-2" data-name="Warstwa 1"><path fill="#05a2d8" d="M0,24.44V16.08c72.52-2.76,145.53,59.59,144.78,142.41H136.2c-.8-36.92-14-68.83-40.47-94.8S37.24,25.23,0,24.44Z"/><path fill="#05a2d8" d="M55.91,10.69,57.8,4.1C96.28,13,145.48,50.93,158.6,107.49l-6.94,1.89a134.66,134.66,0,0,0-34.91-62A140.82,140.82,0,0,0,55.91,10.69Z"/><path fill="#05a2d8" d="M107.5,5.05l3-5.05c25,15.68,43.94,36.44,56.65,63.2l-5.25,2.6C149.76,40.27,131.64,20.19,107.5,5.05Z"/></g></g></svg>
