<svg xmlns="http://www.w3.org/2000/svg" viewBox="0 0 200 200"><defs><style>.cls-1{fill:#05a2d8;}.cls-2{fill:none;}</style></defs><title>Zasób 25</title><g id="Warstwa_2" data-name="Warstwa 2"><g id="Warstwa_1-2" data-name="Warstwa 1"><g id="Warstwa_2-2" data-name="Warstwa 2"><g id="Warstwa_1-2-2" data-name="Warstwa 1-2"><path fill="#05a2d8" d="M38.63,59V52.76C92.86,50.7,147.46,97.33,146.9,159.26h-6.42c-.6-27.61-10.47-51.47-30.26-70.89S66.48,59.61,38.63,59Z"/><path fill="#05a2d8" d="M80.44,48.73l1.41-4.93c28.78,6.66,65.57,35,75.38,77.32L152,122.54a100.7,100.7,0,0,0-26.11-46.37A105.31,105.31,0,0,0,80.44,48.73Z"/><path fill="#05a2d8" d="M119,44.51l2.24-3.78C140,52.46,154.13,68,163.63,88l-3.93,1.94A106.67,106.67,0,0,0,119,44.51Z"/></g></g><rect class="cls-2" width="200" height="200"/></g></g></svg>
