<svg xmlns="http://www.w3.org/2000/svg" viewBox="0 0 242.44 325.23"><title>Zasób 19</title><g id="Warstwa_2" data-name="Warstwa 2"><g id="Warstwa_1-2" data-name="Warstwa 1"><path fill="#205081" d="M122.43,180.85c8.94-9.59,17.91-18.76,26.36-28.38,12.62-14.38,24-29.64,32-47.23a38.68,38.68,0,0,0,3-8c.77-3.84,2.54-5.34,6.58-5.69,15.3-1.33,29.4-6.11,42-15.19,1.92-1.38,5.53-2.12,7.47-1.23,1.59.73,2.63,4.34,2.61,6.66-.13,13.45-4.35,26-9.62,38.16-11.79,27.27-29.34,50.64-49.67,72-7.46,7.84-15.66,15-23.65,22.56,25.9,32.08,40,67.24,40.93,107.66H148.77c-.67-6.68-.66-13.23-2.1-19.45-3.38-14.63-11.66-26.9-20.41-38.78C112.08,244.68,95.94,227.15,79,210.38c-19.46-19.24-38.33-39-53.26-62.09C14.35,130.7,4.9,112.24,1,91.39A55.33,55.33,0,0,1,0,81c0-6.59,3.86-8.72,9.64-5.49,3.26,1.82,6.2,4.21,9.48,6,11,6,23,8.66,35.43,9.72.86.07,1.72.18,2.44.25,10.3,32,32.22,55.7,54.68,79C114.95,173.91,118.48,177.06,122.43,180.85Z"/><path fill="#205081" d="M94,325.23H42.33c.39-35.25,11.34-66.86,31.35-96.71,12.5,14.35,24.5,28.18,36.59,41.94,1.66,1.88.53,3.09-.41,4.57-6.5,10.12-12.43,20.56-14.54,32.56C94.32,313.28,94.44,319.16,94,325.23Z"/><path fill="#205081" d="M121.59,142.55c-11.06-10.91-21.09-22-28.64-35a17.54,17.54,0,0,1-1.29-2.69c-2.41-6.56-.69-9.06,6.21-9.06q24,0,47.91,0c5.63,0,7.72,2.55,6.26,8A27.56,27.56,0,0,1,149,111C141.68,122.89,131.79,132.56,121.59,142.55Z"/><path fill="#205081" d="M190.5,18.64a22.46,22.46,0,0,1,22.63,22.84A22.76,22.76,0,1,1,190.5,18.64Z"/><path fill="#205081" d="M101.56,22.51a22.58,22.58,0,0,1,23-22.5,22.91,22.91,0,0,1,22.48,22.83,22.92,22.92,0,0,1-23,22.68A22.59,22.59,0,0,1,101.56,22.51Z"/><path fill="#205081" d="M55.35,18.64A22.66,22.66,0,0,1,78.21,41.36a23,23,0,0,1-23,22.76A22.72,22.72,0,0,1,32.7,41.43,22.39,22.39,0,0,1,55.35,18.64Z"/></g></g></svg>
