<svg xmlns="http://www.w3.org/2000/svg" viewBox="0 0 200 200"><defs><style>.cls-1{fill:#205081;}.cls-2{fill:none;}</style></defs><title>Zasób 14</title><g id="Warstwa_2" data-name="Warstwa 2"><g id="Warstwa_1-2" data-name="Warstwa 1"><g id="Warstwa_2-2" data-name="Warstwa 2"><g id="Warstwa_1-2-2" data-name="Warstwa 1-2"><path fill="#205081" d="M100.1,105.73c3.44-3.69,6.88-7.21,10.13-10.91a74.53,74.53,0,0,0,12.3-18.15,14.87,14.87,0,0,0,1.15-3.07,2.37,2.37,0,0,1,2.53-2.19,31.73,31.73,0,0,0,16.14-5.84,3.43,3.43,0,0,1,2.87-.47c.61.28,1,1.67,1,2.56,0,5.17-1.67,10-3.7,14.67C138,92.8,131.26,101.78,123.44,110c-2.87,3-6,5.77-9.09,8.67,10,12.33,15.37,25.84,15.73,41.38H110.23a60.21,60.21,0,0,0-.81-7.48c-1.3-5.62-4.48-10.34-7.84-14.91a176.13,176.13,0,0,0-18.16-20.59c-7.48-7.39-14.73-15-20.47-23.86-4.38-6.76-8-13.86-9.51-21.87a21.27,21.27,0,0,1-.38-4c0-2.53,1.48-3.35,3.71-2.11,1.25.7,2.38,1.62,3.64,2.31A34,34,0,0,0,74,71.28l.94.1c4,12.3,12.38,21.41,21,30.36C97.23,103.06,98.58,104.27,100.1,105.73Z"/><path fill="#205081" d="M89.17,161.22H69.32c.15-13.55,4.36-25.7,12-37.17,4.8,5.52,9.42,10.83,14.06,16.12.64.72.2,1.19-.16,1.76-2.5,3.89-4.78,7.9-5.59,12.51C89.3,156.63,89.34,158.89,89.17,161.22Z"/><path fill="#205081" d="M99.78,91a65.14,65.14,0,0,1-11-13.45,6.74,6.74,0,0,1-.5-1C87.35,74,88,73,90.66,73h18.41c2.16,0,3,1,2.41,3.07a10.59,10.59,0,0,1-1.17,2.77C107.5,83.45,103.7,87.17,99.78,91Z"/><path fill="#205081" d="M126.26,43.38a8.63,8.63,0,0,1,8.7,8.57q0,.11,0,.21a8.75,8.75,0,1,1-8.72-8.78Z"/><path fill="#205081" d="M92.08,44.87a8.68,8.68,0,0,1,8.71-8.65h.13a8.75,8.75,0,0,1-.2,17.49A8.68,8.68,0,0,1,92.08,45S92.08,44.91,92.08,44.87Z"/><path fill="#205081" d="M74.32,43.38A8.71,8.71,0,0,1,83.11,52s0,.07,0,.1a8.84,8.84,0,0,1-8.84,8.75,8.73,8.73,0,0,1-8.65-8.72,8.61,8.61,0,0,1,8.45-8.76Z"/></g></g><rect class="cls-2" width="200" height="200"/></g></g></svg>
