<svg xmlns="http://www.w3.org/2000/svg" viewBox="0 0 150 150"><defs><style>.cls-1,.cls-4{fill:none;}.cls-2{fill:#ffde11;}.cls-3{fill:#1d1d1b;}.cls-4{stroke:#1d1d1b;stroke-linecap:round;stroke-miterlimit:10;stroke-width:2px;}</style></defs><title>Zasób 5</title><g id="Warstwa_2" data-name="Warstwa 2"><g id="Warstwa_1-2" data-name="Warstwa 1"><rect class="cls-1" width="150" height="150"/><line class="cls-1" x2="150" y2="150"/><line class="cls-1" x1="150" y2="150"/><polygon class="cls-2" points="101.78 101.78 48.22 101.78 48.22 48.22 101.78 48.22 101.78 59.47 59.47 59.47 59.47 90.53 101.78 90.53 101.78 101.78"/><path class="cls-3" d="M95.75,41.81l11,.62c1,.05,1-1.45,0-1.5l-11-.62c-1-.05-1,1.45,0,1.5Z"/><path class="cls-3" d="M105.08,41.15a55,55,0,0,0,.57,13.1.76.76,0,0,0,1.25.33L108,53.43c.67-.7-.39-1.76-1.06-1.06l-1.09,1.14,1.25.33a53.36,53.36,0,0,1-.52-12.7c.07-1-1.43-1-1.5,0Z"/><path class="cls-4" d="M32.65,112.34c7.93-7.75,15.58-15.78,23.59-23.45,4-3.83,8.07-7.58,12.31-11.14,2.26-1.9,2.89-3.06,5.57-1.91,1.41.6,2.59,2,4.08,2.41,4,1.08,6.79-4.13,9-6.89,7-8.73,12.07-18.73,17.59-28.39"/></g></g></svg>