<svg xmlns="http://www.w3.org/2000/svg" viewBox="0 0 150 150"><defs><style>.cls-1{fill:none;}.cls-2{fill:#ffde11;}</style></defs><title>Zasób 7</title><g id="Warstwa_2" data-name="Warstwa 2"><g id="Warstwa_1-2" data-name="Warstwa 1"><rect class="cls-1" width="150" height="150"/><line class="cls-1" x2="150" y2="150"/><line class="cls-1" x1="150" y2="150"/><path class="cls-2" d="M102.1,101.78H48.54V48.22H77.65l24.45,24.5ZM59.78,90.53H90.85V77.37L73,59.47H59.78Z"/><path d="M40.43,106.67q35.21-.41,70.39,1.15v-1.5l-4.89-.18c-1,0-1,1.46,0,1.5l4.89.18c1,0,1-1.46,0-1.5q-35.18-1.55-70.39-1.15a.75.75,0,0,0,0,1.5Z"/><path d="M39,114a651.1,651.1,0,0,1,76.27-.47c1,.05.93-1.39,0-1.5l-3.29-.39c-1-.11-.95,1.39,0,1.5l3.29.39V112A651.1,651.1,0,0,0,39,112.5c-1,.06-1,1.56,0,1.5Z"/><path d="M108.57,116.86a4.39,4.39,0,0,0-5.18,3,3.78,3.78,0,0,0,2.59,4.77,4.3,4.3,0,0,0,5.08-1.75A4.46,4.46,0,0,0,109.4,117a.75.75,0,0,0-.76,1.3,2.94,2.94,0,0,1,1.13,3.79,2.74,2.74,0,0,1-3.13,1.13c-3.44-.86-1.57-5.77,1.53-4.94a.75.75,0,0,0,.4-1.45Z"/><path d="M49.37,119.65c-1.35-1.92-4.23-1.39-5.3.56a5.76,5.76,0,0,0-.23,4.27c.33,1.13,1.62,1.46,2.69,1.58,2.28.25,4.89-1,5.18-3.5.25-2.22-1.4-4.55-3.74-4.48-1,0-1,1.53,0,1.5A2.38,2.38,0,0,1,50.24,122a2.73,2.73,0,0,1-2.79,2.58,3.3,3.3,0,0,1-2-.35c-.5-.37-.48-1.46-.44-2a2.29,2.29,0,0,1,1.18-2.07,1.45,1.45,0,0,1,1.84.28c.55.78,1.85,0,1.3-.76Z"/><path d="M22.23,52.18c.85,9,5.21,18,8.27,26.42,3.27,9,6.61,18.05,9.93,27.07.33.9,1.78.51,1.45-.4C38.78,96.85,35.67,88.44,32.6,80c-3.19-8.78-8-18.47-8.87-27.82-.09-1-1.59-1-1.5,0Z"/><path d="M7.09,58.16a61.75,61.75,0,0,0,15.13-4.8c.87-.41.11-1.7-.76-1.3A60.2,60.2,0,0,1,6.69,56.71c-.95.17-.55,1.62.4,1.45Z"/></g></g></svg>