<svg xmlns="http://www.w3.org/2000/svg" viewBox="0 0 77.53 81.54"><defs><style>.cls-1{fill:#2c2522;}.cls-2{fill:none;stroke:#000;stroke-miterlimit:10;}</style></defs><title>e-mobile</title><g id="Warstwa_2" data-name="Warstwa 2"><g id="Warstwa_1-2" data-name="Warstwa 1"><polygon class="cls-1" points="53.56 81.54 0 81.54 0 27.99 53.56 27.99 53.56 39.23 11.25 39.23 11.25 70.3 53.56 70.3 53.56 81.54"/><rect class="cls-1" y="49.14" width="33.71" height="11.25"/><path d="M51.84,41h15a.63.63,0,0,0,0-1.25H65.51a.63.63,0,0,0,0,1.25h1.33a.63.63,0,0,0,0-1.25h-15a.63.63,0,0,0,0,1.25Z"/><path d="M51.85,43.55a144.57,144.57,0,0,1,15-.53V41.77h-.92a.63.63,0,0,0,0,1.25h.92a.63.63,0,0,0,0-1.25,144.57,144.57,0,0,0-15,.53C51,42.37,51,43.62,51.85,43.55Z"/><path d="M51.86,46.15l15.41-1.58c.78-.08.81-1.3,0-1.25l-1.84.11c-.8,0-.8,1.3,0,1.25l1.84-.11V43.32L51.82,44.91c-.79.08-.8,1.33,0,1.25Z"/><path d="M54.73,48.39H63a.63.63,0,0,0,0-1.25H54.73a.63.63,0,0,0,0,1.25Z"/><path class="cls-2" d="M63.95,37.3A70.39,70.39,0,0,1,62.55,20c.08-1.92.37-4.07,1.91-5.23a3.5,3.5,0,0,1,3.78-.21,1.73,1.73,0,0,1,.76.79,1.51,1.51,0,0,1-.73,1.72,3.27,3.27,0,0,1-2,.29,11.85,11.85,0,0,1-4.1-1.29c-1.58-.82-3.23-2.21-3.06-4a1.6,1.6,0,0,1,1.16-1.5,1.44,1.44,0,0,1,1.43.85,2.77,2.77,0,0,1,.12,1.75c-.66,3.15-4.15,5.06-7.37,5-1.2,0-2.7-.58-2.73-1.78s1.83-1.87,2.9-1.16a4.93,4.93,0,0,1,1.7,3.33c1.18,6,.93,12.25.67,18.39"/><path class="cls-2" d="M66.53,38.71a11.35,11.35,0,0,1,2.67-13c.79-.69,1.67-1.26,2.52-1.88,2.56-1.84,5-4.35,5.29-7.49.31-3.56-2-7.63-4.25-10.28A16.32,16.32,0,0,0,57.69.74C52.09,1.58,45.51,5.06,44.23,11a8.51,8.51,0,0,0,1.37,6.87,22.33,22.33,0,0,0,2,2.15,42.38,42.38,0,0,1,4,4.91,8.79,8.79,0,0,1,1.33,2.14,8.79,8.79,0,0,1,.37,2.81l.2,9.35"/></g></g></svg>