<svg xmlns="http://www.w3.org/2000/svg" viewBox="0 0 150 150"><defs><style>.cls-1,.cls-3{fill:none;}.cls-2{fill:#2c2522;}.cls-3{stroke:#000;stroke-miterlimit:10;}</style></defs><title>E-new</title><g id="Warstwa_2" data-name="Warstwa 2"><g id="Warstwa_1-2" data-name="Warstwa 1"><rect class="cls-1" width="150" height="150"/><line class="cls-1" x2="150" y2="150"/><line class="cls-1" x1="150" y2="150"/><polygon class="cls-2" points="101.68 102.02 48.12 102.02 48.12 48.47 101.68 48.47 101.68 59.71 59.37 59.71 59.37 90.78 101.68 90.78 101.68 102.02"/><rect class="cls-2" x="48.12" y="69.62" width="33.71" height="11.25"/><path d="M100,61.43h15a.63.63,0,0,0,0-1.25h-1.33a.63.63,0,0,0,0,1.25H115a.63.63,0,0,0,0-1.25H100a.63.63,0,0,0,0,1.25Z"/><path d="M100,64a144.57,144.57,0,0,1,15-.53V62.25H114a.63.63,0,0,0,0,1.25H115a.63.63,0,0,0,0-1.25,144.57,144.57,0,0,0-15,.53C99.17,62.85,99.17,64.1,100,64Z"/><path d="M100,66.63l15.41-1.58c.78-.08.81-1.3,0-1.25l-1.84.11c-.8,0-.8,1.3,0,1.25l1.84-.11V63.8L99.94,65.39c-.79.08-.8,1.33,0,1.25Z"/><path d="M102.85,68.87h8.27a.63.63,0,0,0,0-1.25h-8.27a.63.63,0,0,0,0,1.25Z"/><path class="cls-3" d="M112.07,57.78a70.39,70.39,0,0,1-1.4-17.3c.08-1.92.37-4.07,1.91-5.23a3.5,3.5,0,0,1,3.78-.21,1.73,1.73,0,0,1,.76.79,1.51,1.51,0,0,1-.73,1.72,3.27,3.27,0,0,1-2,.29,11.85,11.85,0,0,1-4.1-1.29c-1.58-.82-3.23-2.21-3.06-4a1.6,1.6,0,0,1,1.16-1.5,1.44,1.44,0,0,1,1.43.85,2.77,2.77,0,0,1,.12,1.75c-.66,3.15-4.15,5.06-7.37,5-1.2,0-2.7-.58-2.73-1.78s1.83-1.87,2.9-1.16a4.93,4.93,0,0,1,1.7,3.33c1.18,6,.93,12.25.67,18.39"/><path class="cls-3" d="M114.65,59.19a11.35,11.35,0,0,1,2.67-13c.79-.69,1.67-1.26,2.52-1.88,2.56-1.84,5-4.35,5.29-7.49.31-3.56-2-7.63-4.25-10.28a16.32,16.32,0,0,0-15.07-5.32c-5.6.84-12.18,4.32-13.46,10.26a8.51,8.51,0,0,0,1.37,6.87,22.33,22.33,0,0,0,2,2.15,42.38,42.38,0,0,1,4,4.91A8.79,8.79,0,0,1,101,47.55a8.79,8.79,0,0,1,.37,2.81l.2,9.35"/></g></g></svg>