<svg xmlns="http://www.w3.org/2000/svg" viewBox="0 0 150 150"><defs><style>.cls-1{fill:none;}.cls-2{fill:#ffde11;}.cls-3{fill:#1e1e1c;}</style></defs><title>Zasób 8</title><g id="Warstwa_2" data-name="Warstwa 2"><g id="Warstwa_1-2" data-name="Warstwa 1"><rect class="cls-1" width="150" height="150"/><line class="cls-1" x2="150" y2="150"/><line class="cls-1" x1="150" y2="150"/><polygon class="cls-2" points="102.1 101.78 48.54 101.78 48.54 48.22 102.1 48.22 102.1 59.47 59.78 59.47 59.78 90.53 102.1 90.53 102.1 101.78"/><rect class="cls-2" x="48.54" y="69.38" width="33.71" height="11.25"/><path class="cls-3" d="M120.1,59.85q-23-1-46-1.37a.76.76,0,0,0-.75.75c-.18,3.31-.2,6.6-.07,9.91a.76.76,0,0,0,.75.75l9.63-.28c3-.09,8.57-1.29,10.71.77,1.34,1.29,2.2,7.79.62,9.25s-8.12,0-10.38-.19c-3.26-.23-6.53-.51-9.8-.7-1-.06-2.79-.57-3.66.26-2.11,2-.26,9-.12,11.42a.77.77,0,0,0,.75.75,385.77,385.77,0,0,0,48.33,1.61c1,0,1-1.53,0-1.5a356.78,356.78,0,0,1-38.92-.8c-2.37-.18-7.48.38-8.76-2-.4-.73-.38-4.9-.31-5.74.24-2.63-.27-2.28,2.69-2.53,6.87-.58,14.67,1.05,21.55,1.55a.76.76,0,0,0,.75-.75c-.06-3.89.71-8.87-.5-12.58a.75.75,0,0,0-.52-.52c-5-1-11.2.14-16.29.29-4.14.12-5.85-.37-5.12-5,.32-2,0-2.63,2.29-3.17,1.31-.31,3.49.06,4.79.08q19.17.37,38.32,1.24c1,0,1-1.46,0-1.5Z"/><path class="cls-3" d="M119.46,61.21a165.11,165.11,0,0,1,.29,29.63c-.08,1,1.42,1,1.5,0A165.11,165.11,0,0,0,121,61.21c-.09-1-1.6-1-1.5,0Z"/></g></g></svg>