<svg xmlns="http://www.w3.org/2000/svg" viewBox="0 0 110.71 80.43"><defs><style>.cls-1{fill:#2c2522;}.cls-2{fill:#1e1e1c;}</style></defs><title>i-mobile</title><g id="Warstwa_2" data-name="Warstwa 2"><g id="Warstwa_1-2" data-name="Warstwa 1"><rect class="cls-1" x="33.61" y="1.74" width="11.25" height="53.56"/><path class="cls-2" d="M33.61,2.49q36.76-1.06,73.58-.88a.75.75,0,0,0,0-1.5h0Q70.37-.07,33.61,1A.75.75,0,1,0,33.61,2.49Z"/><path class="cls-2" d="M34.87,55.36l74.25,1.51c1,0,.92-1.38,0-1.5l-3.41-.45c-1-.13-.94,1.37,0,1.5l3.41.45v-1.5L34.87,53.86a.75.75,0,0,0,0,1.5Z"/><path class="cls-2" d="M109.37,55.67c.32-10.07.63-20.16.3-30.24q-.25-7.45-.94-14.87c-.31-3.3-.11-7.24-1.76-10.19-.47-.84-1.77-.09-1.3.76,2.17,3.89,1.7,10.57,2,15s.5,8.7.58,13.06c.16,8.83-.12,17.66-.4,26.48a.75.75,0,1,0,1.5,0Z"/><path class="cls-2" d="M32.83,54.29.58,72.09A.76.76,0,0,0,1,73.49a623.37,623.37,0,0,0,75.41,3.13.75.75,0,0,0,0-1.5A623.37,623.37,0,0,1,1,72l.41,1.44L33.61,55.62c.85-.47.09-1.76-.76-1.3Z"/><path class="cls-2" d="M107.85,55A189.66,189.66,0,0,1,72.52,75.2c-.88.39-.12,1.68.76,1.3a189.66,189.66,0,0,0,35.33-20.22C109.38,55.72,108.61,54.42,107.85,55Z"/><path class="cls-2" d="M107.84,56.43a4.36,4.36,0,0,1,1.34,3.74c-.13.94,1.31,1.35,1.45.4a5.93,5.93,0,0,0-1.73-5.2C108.21,54.7,107.14,55.76,107.84,56.43Z"/><path class="cls-2" d="M74.6,75.56a3.15,3.15,0,0,1,1,3.47.76.76,0,0,0,.52.92c1.08.25,2.57-.24,2.48-1.57-.07-1-1.57-1-1.5,0,0,.22-.45.15-.58.12l.52.92a4.61,4.61,0,0,0-1.42-4.93c-.74-.61-1.8.44-1.06,1.06Z"/><path class="cls-2" d="M78.56,78.93c5.77-1.74,10.83-5.16,16-8.19,4.94-2.9,11.61-5.45,15.26-10,.6-.75-.46-1.81-1.06-1.06-3.5,4.35-10.2,7-15,9.76-5,3-10,6.34-15.63,8a.75.75,0,1,0,.4,1.45Z"/><path class="cls-2" d="M0,72.84l.21,4.29a.77.77,0,0,0,.75.75l74.92,2.55a.75.75,0,1,0,0-1.5L36.45,77.58l-18.73-.64L7.86,76.6c-1.12,0-3.94.44-4.93-.17-1.63-1-1.33-1.64-1.43-3.61a.75.75,0,1,0-1.5,0Z"/><path class="cls-2" d="M44.91,11.3l52,.66a.75.75,0,0,0,0-1.5l-52-.66a.75.75,0,0,0,0,1.5Z"/><path class="cls-2" d="M44.37,45.24a493.17,493.17,0,0,0,52,.71.75.75,0,1,0,0-1.5,493.17,493.17,0,0,1-52-.71C43.37,43.68,43.37,45.18,44.37,45.24Z"/><path class="cls-2" d="M94.37,45.61a.75.75,0,1,0-.75-.75A.75.75,0,0,0,94.37,45.61Z"/><path class="cls-2" d="M97.88,44.85q-1.06-17.48-.92-35a.75.75,0,0,0-1.5,0h0q-.14,17.51.92,35C96.44,45.85,97.94,45.85,97.88,44.85Z"/></g></g></svg>