<svg xmlns="http://www.w3.org/2000/svg" viewBox="0 0 150 150"><defs><style>.cls-1{fill:none;}.cls-2{fill:#2c2522;}.cls-3{fill:#1e1e1c;}</style></defs><title>Zasób 10</title><g id="Warstwa_2" data-name="Warstwa 2"><g id="Warstwa_1-2" data-name="Warstwa 1"><rect class="cls-1" width="150" height="150"/><line class="cls-1" x2="150" y2="150"/><line class="cls-1" x1="150" y2="150"/><rect class="cls-2" x="48.24" y="48.31" width="11.25" height="53.56"/><path class="cls-3" d="M48.24,49.06Q85,48,121.82,48.18a.75.75,0,0,0,0-1.5Q85,46.5,48.24,47.56c-1,0-1,1.53,0,1.5Z"/><path class="cls-3" d="M49.5,101.93l74.25,1.51c1,0,.92-1.38,0-1.5l-3.41-.45c-1-.13-.94,1.37,0,1.5l3.41.45v-1.5L49.5,100.43a.75.75,0,0,0,0,1.5Z"/><path class="cls-3" d="M124,102.24c.32-10.07.63-20.16.3-30.24q-.25-7.45-.94-14.87c-.31-3.3-.11-7.24-1.76-10.19-.47-.84-1.77-.09-1.3.76,2.17,3.89,1.7,10.57,2,15s.5,8.7.58,13.06c.16,8.83-.12,17.66-.4,26.48,0,1,1.47,1,1.5,0Z"/><path class="cls-3" d="M47.46,100.86,15.21,118.66a.76.76,0,0,0,.38,1.4A623.37,623.37,0,0,0,91,123.19a.75.75,0,0,0,0-1.5,623.37,623.37,0,0,1-75.41-3.13L16,120l32.24-17.81c.85-.47.09-1.76-.76-1.3Z"/><path class="cls-3" d="M122.48,101.55a189.66,189.66,0,0,1-35.33,20.22c-.88.39-.12,1.68.76,1.3a189.66,189.66,0,0,0,35.33-20.22c.77-.56,0-1.86-.76-1.3Z"/><path class="cls-3" d="M122.47,103a4.36,4.36,0,0,1,1.34,3.74c-.13.94,1.31,1.35,1.45.4a5.93,5.93,0,0,0-1.73-5.2c-.69-.67-1.76.39-1.06,1.06Z"/><path class="cls-3" d="M89.23,122.13a3.15,3.15,0,0,1,1,3.47.76.76,0,0,0,.52.92c1.08.25,2.57-.24,2.48-1.57-.07-1-1.57-1-1.5,0,0,.22-.45.15-.58.12l.52.92a4.61,4.61,0,0,0-1.42-4.93c-.74-.61-1.8.44-1.06,1.06Z"/><path class="cls-3" d="M93.19,125.5c5.77-1.74,10.83-5.16,16-8.19,4.94-2.9,11.61-5.45,15.26-10,.6-.75-.46-1.81-1.06-1.06-3.5,4.35-10.2,7-15,9.76-5,3-10,6.34-15.63,8a.75.75,0,0,0,.4,1.45Z"/><path class="cls-3" d="M14.64,119.41l.21,4.29a.77.77,0,0,0,.75.75L90.52,127c1,0,1-1.47,0-1.5l-39.44-1.35-18.73-.64-9.86-.34c-1.12,0-3.94.44-4.93-.17-1.63-1-1.33-1.64-1.43-3.61,0-1-1.55-1-1.5,0Z"/><path class="cls-3" d="M59.54,57.87l52,.66a.75.75,0,0,0,0-1.5l-52-.66a.75.75,0,0,0,0,1.5Z"/><path class="cls-3" d="M59,91.81a493.17,493.17,0,0,0,52,.71c1,0,1-1.54,0-1.5a493.17,493.17,0,0,1-52-.71c-1-.06-1,1.44,0,1.5Z"/><path class="cls-3" d="M109,92.18a.75.75,0,0,0,0-1.5.75.75,0,0,0,0,1.5Z"/><path class="cls-3" d="M112.51,91.42q-1.06-17.48-.92-35a.75.75,0,0,0-1.5,0q-.14,17.51.92,35c.06,1,1.56,1,1.5,0Z"/></g></g></svg>