<svg xmlns="http://www.w3.org/2000/svg" viewBox="0 0 101.34 86.64"><defs><style>.cls-1{fill:#2c2522;}.cls-2{fill:#1d1d1b;}</style></defs><title>m-mobile</title><g id="Warstwa_2" data-name="Warstwa 2"><g id="Warstwa_1-2" data-name="Warstwa 1"><polygon class="cls-1" points="69.65 75.16 58.4 75.16 58.4 32.85 27.33 32.85 27.33 75.16 16.09 75.16 16.09 21.61 69.65 21.61 69.65 75.16"/><rect class="cls-1" x="37.24" y="21.6" width="11.25" height="33.71"/><path class="cls-2" d="M10.93,18q29.59-1.21,59.18.46c.77,0,.77-1.11,0-1.15Q40.54,15.6,10.93,16.8A.58.58,0,1,0,10.93,18Z"/><path class="cls-2" d="M13.58,80.75a293.26,293.26,0,0,0,60.53-1.3c.73-.09.77-1.24,0-1.15a293.26,293.26,0,0,1-60.53,1.3C12.81,79.54,12.81,80.69,13.58,80.75Z"/><path class="cls-2" d="M76,23a188.76,188.76,0,0,1,1.53,25c0,7.87-1,15.7,0,23.55.09.72,1.24.77,1.15,0-1.09-8.32.07-16.64,0-25a195.28,195.28,0,0,0-1.59-23.85c-.1-.77-1.21-.42-1.11.31Z"/><path class="cls-2" d="M10.5,73.44c-1.68-3.77-1.84-7.91-2.3-12-.49-4.22-.92-8.43-1.12-12.71A92.69,92.69,0,0,1,9.32,22.64c.18-.72-.94-1-1.11-.31A95.25,95.25,0,0,0,6,50.28c.27,4.6.83,9.12,1.32,13.68A33.28,33.28,0,0,0,9.51,74c.3.67,1.29.09,1-.58Z"/><path class="cls-2" d="M5.63,85.19c25.59,1,51.25,2.45,76.84.52.77-.05.77-1.2,0-1.15C56.88,86.48,31.22,85,5.63,84A.58.58,0,1,0,5.63,85.19Z"/><path class="cls-2" d="M2.89,12.65C28,11.6,53.3,9.68,78.27,13.72c.71.12,1-1,.3-1.11C53.49,8.55,28.11,10.44,2.89,11.5A.58.58,0,0,0,2.89,12.65Z"/><path class="cls-2" d="M80.87.73c-.26,8.75-.27,17.44,1,26.15a.75.75,0,0,0,1.24.37C89.24,20.06,95.5,13,101.19,5.49c.6-.81-.68-1.59-1.28-.78C94.27,12.12,88.12,19.09,82,26.15l1.24.37C82,18,82.08,9.36,82.3.77a.75.75,0,0,0-1.51,0h.07Z"/><path class="cls-2" d="M79,14.11a189.33,189.33,0,0,1,5.5,36.34q.44,8.69.08,17.39c-.25,5.8-.41,11.69-2.3,17.22-.24.7.87,1,1.11.31,1.71-5,2-10.14,2.25-15.33a193.7,193.7,0,0,0,0-19.56,190.92,190.92,0,0,0-5.54-36.64.58.58,0,1,0-1.11.31Z"/><path class="cls-2" d="M2.24,12.63C1,25.48.2,38.39,0,51.3-.12,62,.13,73,4.84,82.89c.31.67,1.31.08,1-.58-5-10.6-4.85-22.5-4.6-34,.25-11.92,1-23.82,2.16-35.69.07-.77-1.08-.77-1.15,0Z"/></g></g></svg>