<svg xmlns="http://www.w3.org/2000/svg" viewBox="0 0 150 150"><defs><style>.cls-1{fill:none;}.cls-2{fill:#2c2522;}.cls-3{fill:#1d1d1b;}</style></defs><title>Zasób 9</title><g id="Warstwa_2" data-name="Warstwa 2"><g id="Warstwa_1-2" data-name="Warstwa 1"><rect class="cls-1" width="150" height="150"/><line class="cls-1" x2="150" y2="150"/><line class="cls-1" x1="150" y2="150"/><polygon class="cls-2" points="101.7 102.02 90.45 102.02 90.45 59.71 59.38 59.71 59.38 102.02 48.14 102.02 48.14 48.47 101.7 48.47 101.7 102.02"/><rect class="cls-2" x="69.29" y="48.46" width="11.25" height="33.71"/><path class="cls-3" d="M33.55,40.31q38.59-1.58,77.18.6c1,.05,1-1.45,0-1.5q-38.56-2.17-77.18-.6c-1,0-1,1.54,0,1.5Z"/><path class="cls-3" d="M37,114.56a382.47,382.47,0,0,0,78.94-1.7c.95-.12,1-1.62,0-1.5A382.47,382.47,0,0,1,37,113.06c-1-.08-1,1.42,0,1.5Z"/><path class="cls-3" d="M115.91,44.35a246.18,246.18,0,0,1,2,32.56c0,10.27-1.3,20.48,0,30.72.12.94,1.62,1,1.5,0-1.42-10.85.09-21.7-.06-32.59a254.69,254.69,0,0,0-2.07-31.1c-.13-1-1.58-.55-1.45.4Z"/><path class="cls-3" d="M35.51,110.16c-2.19-4.92-2.4-10.31-3-15.59-.64-5.51-1.2-11-1.46-16.58a120.89,120.89,0,0,1,2.92-34.08c.23-.94-1.22-1.34-1.45-.4a124.22,124.22,0,0,0-2.87,36.44c.35,6,1.08,11.89,1.72,17.84.49,4.53,1,8.93,2.85,13.14.39.88,1.68.12,1.3-.76Z"/><path class="cls-3" d="M26.63,125.48c33.38,1.24,66.84,3.19,100.21.68,1-.07,1-1.57,0-1.5-33.37,2.51-66.83.56-100.21-.68-1,0-1,1.46,0,1.5Z"/><path class="cls-3" d="M23.07,30.88C56.37,29.5,89.89,27,123,32.27c.94.15,1.35-1.3.4-1.45C90.15,25.53,56.51,28,23.07,29.38c-1,0-1,1.54,0,1.5Z"/><path class="cls-3" d="M93.57,7.87c4.36,7.59,8.9,15,14.55,21.75a.75.75,0,0,0,1.25-.33c1.45-9.33,3.08-18.63,4-28,.09-1-1.41-1-1.5,0-.92,9.27-2.52,18.43-4,27.63l1.25-.33c-5.57-6.62-10-14-14.31-21.44a.75.75,0,0,0-1.3.76Z"/><path class="cls-3" d="M122.36,32.78a246.93,246.93,0,0,1,7.17,47.39q.58,11.33.1,22.68c-.32,7.57-.53,15.24-3,22.46-.31.91,1.13,1.31,1.45.4,2.23-6.49,2.59-13.23,2.93-20a252.63,252.63,0,0,0,0-25.51,249,249,0,0,0-7.23-47.79.75.75,0,0,0-1.45.4Z"/><path class="cls-3" d="M22.21,30.85c-1.66,16.76-2.65,33.59-2.88,50.43-.19,14,.13,28.28,6.28,41.2.41.87,1.71.11,1.3-.76-6.58-13.83-6.32-29.35-6-44.33.32-15.55,1.29-31.07,2.82-46.55.09-1-1.41-1-1.5,0Z"/></g></g></svg>