<svg xmlns="http://www.w3.org/2000/svg" viewBox="0 0 150 150"><defs><style>.cls-1{fill:none;}.cls-2{fill:#ffde11;}.cls-3{fill:#1d1d1b;}</style></defs><title>Zasób 6</title><g id="Warstwa_2" data-name="Warstwa 2"><g id="Warstwa_1-2" data-name="Warstwa 1"><rect class="cls-1" width="150" height="150"/><line class="cls-1" x2="150" y2="150"/><line class="cls-1" x1="150" y2="150"/><path class="cls-2" d="M101.78,101.78H48.22V48.22h53.56ZM59.47,90.53H90.53V59.47H59.47Z"/><path class="cls-3" d="M61.83,63.85a2.42,2.42,0,0,0,2.45,2.78c1.84.06,3-1.67,3.75-3.09.47-.84-.83-1.6-1.3-.76a5.28,5.28,0,0,1-1.66,2.12c-.51.3-2,.28-1.8-.66s-1.26-1.35-1.45-.4Z"/><path class="cls-3" d="M70.67,65.84l14-.67c1,0,1-1.55,0-1.5l-14,.67c-1,0-1,1.55,0,1.5Z"/><path class="cls-3" d="M60.67,70.53A8,8,0,0,0,66.17,73c1,0,1-1.46,0-1.5a6.46,6.46,0,0,1-4.44-2c-.67-.7-1.73.36-1.06,1.06Z"/><path class="cls-3" d="M62.83,73.52a4.1,4.1,0,0,1,2.26-3.27c.86-.44.1-1.74-.76-1.3a5.63,5.63,0,0,0-3,4.56c-.09,1,1.41,1,1.5,0Z"/><path class="cls-3" d="M69.67,72.28a120.08,120.08,0,0,1,17.5-.45c1,0,1-1.45,0-1.5a120.08,120.08,0,0,0-17.5.45c-1,.09-1,1.59,0,1.5Z"/><path class="cls-3" d="M69.18,78.9l16-.65c1,0,1-1.54,0-1.5l-16,.65c-1,0-1,1.54,0,1.5Z"/><path class="cls-3" d="M70.17,84.78h16.5a.75.75,0,0,0,0-1.5H70.17a.75.75,0,0,0,0,1.5Z"/><path class="cls-3" d="M62.62,77.84l2.4,3.4a.76.76,0,0,0,1.3,0A11.33,11.33,0,0,0,67.41,76c0-1-1.53-1-1.5,0A9.66,9.66,0,0,1,65,80.48h1.3l-2.4-3.4c-.55-.78-1.85,0-1.3.76Z"/></g></g></svg>