<svg xmlns="http://www.w3.org/2000/svg" viewBox="0 0 200 200"><defs><style>.cls-1{fill:#cb6699;}.cls-2{fill:none;}</style></defs><title>Zasób 23</title><g id="Warstwa_2" data-name="Warstwa 2"><g id="Warstwa_1-2" data-name="Warstwa 1"><path fill="#cb6699" d="M37.5,92.24a5.51,5.51,0,0,0,.32,1.61,19.8,19.8,0,0,0,4.29,7.71,50.84,50.84,0,0,0,9.51,8.35c3,2.14,6,4.23,9,6.35.51.36,1,.78,1.55,1.23-.48.26-.88.49-1.29.7a69.11,69.11,0,0,0-11.23,7,23,23,0,0,0-5.58,5.65c-2.31,3.66-3.13,7.55-1.41,11.71a6.91,6.91,0,0,0,2.36,3,3.48,3.48,0,0,0,1.16.6c1.05.25,2.13.41,3.19.61h3a18.79,18.79,0,0,0,9.13-3.34,20,20,0,0,0,8.43-12,21.24,21.24,0,0,0-.12-11.1c-.1-.34-.22-.68-.35-1s-.28-.65-.46-1.07l6.85-3.94.1.09c-.12.41-.26.81-.37,1.22a27.72,27.72,0,0,0-1.16,9.08,17.42,17.42,0,0,0,3,9.11,4.42,4.42,0,0,0,6.91.07,15.94,15.94,0,0,0,1.58-2.5c1.12-2.3,2.15-4.65,3.22-7l.19-.43c-.08,1.1-.17,2.07-.21,3a11.59,11.59,0,0,0,.54,4.46,3.08,3.08,0,0,0,2.61,2.32,3.28,3.28,0,0,0,2.45-.89,10.34,10.34,0,0,0,2.68-3.18c1.89-3.48,3.84-6.93,5.55-10.49,1.86-3.85,3.48-7.82,5.2-11.74l.28-.69c.41,1.6.69,3.17,1.21,4.65a44,44,0,0,0,2.18,5,1.51,1.51,0,0,1-.19,1.92c-2.25,2.71-4.45,5.45-6.66,8.19a18.39,18.39,0,0,0-1.38,1.88,3.68,3.68,0,0,0-.48,1.36,1.73,1.73,0,0,0,1.38,2,9.62,9.62,0,0,0,2.7.19,15.79,15.79,0,0,0,8.36-3.14c3.21-2.38,4.24-5.62,3.46-9.46a22,22,0,0,0-.94-3.06,1.13,1.13,0,0,1,.12-1.19A97.42,97.42,0,0,0,125,103.54a2.37,2.37,0,0,1,.3-.48,29.91,29.91,0,0,0,3.43,9.75c-.91.88-1.81,1.67-2.62,2.54a17.53,17.53,0,0,0-4.15,6.57,7.76,7.76,0,0,0-.46,3.39A2.86,2.86,0,0,0,125,127.9a16,16,0,0,0,9.57-5.9,7.76,7.76,0,0,0,1.1-7.08c-.19-.68-.41-1.36-.65-2.14.95-.29,1.87-.65,2.82-.86a25,25,0,0,1,14.64.86,11,11,0,0,1,6.38,5.55c1.63,3.36.73,6.56-2.44,8.68a5.44,5.44,0,0,0-.88.6.86.86,0,0,0-.2.67c0,.12.34.28.53.27a4.85,4.85,0,0,0,2.7-1.12,8.31,8.31,0,0,0,3.84-5.79l.06-.19-.08-1.62c0-.09,0-.19,0-.26a12.73,12.73,0,0,0-5.19-8.65,18.93,18.93,0,0,0-11.2-3.77,25.29,25.29,0,0,0-9.72,1.5c-.89.32-1.78.71-2.68,1.07-.12-.22-.25-.43-.36-.64-.92-1.89-2-3.69-2.29-5.86a13.11,13.11,0,0,1,0-4.59c.35-1.46.81-2.9,1.24-4.34a1.06,1.06,0,0,0-.64-1.49,2.84,2.84,0,0,0-.78-.26,12.05,12.05,0,0,0-5.15.38,1.47,1.47,0,0,0-1.16,1.17c-.08.38-.23.74-.34,1.12a27.94,27.94,0,0,1-1.47,4.62c-1.79,3.72-3.83,7.3-5.91,10.85-.23.38-.46.76-.75,1.22a16,16,0,0,1-1.75-4.52,13.88,13.88,0,0,1,0-5.45c.34-1.35.78-2.68,1.18-4a.93.93,0,0,0-.47-1.3,2.76,2.76,0,0,0-.94-.37,11.59,11.59,0,0,0-5.33.44,1.44,1.44,0,0,0-1,1.08,41.74,41.74,0,0,1-1.58,4.89c-2.76,6.33-5.6,12.63-8.44,18.93-.59,1.32-1.29,2.58-2,3.86a9,9,0,0,1-.63.91.75.75,0,0,1-.23-.47,13.11,13.11,0,0,1,.06-2.43c.47-2.37,1-4.72,1.57-7.07.47-1.94,1-3.86,1.53-5.78a1.81,1.81,0,0,0-.29-1.79,2.67,2.67,0,0,0-3.37-.41l-.43.24L94,108a10.7,10.7,0,0,0-.16-4.39,3.49,3.49,0,0,0-3.67-2.79,7.88,7.88,0,0,0-2.6.49,19.67,19.67,0,0,0-8.25,6.54,2.58,2.58,0,0,1-.75.65c-2.88,1.6-5.77,3.17-8.66,4.76L66.72,115c-.86-.82-1.65-1.68-2.53-2.4-2.71-2.21-5.47-4.37-8.21-6.56a32.35,32.35,0,0,1-6.57-6.53,11.69,11.69,0,0,1-2.28-6.37,14.94,14.94,0,0,1,2.28-8.33A31.94,31.94,0,0,1,57,76.52a70.2,70.2,0,0,1,10-6.61,75.16,75.16,0,0,1,15.28-6.74,42.23,42.23,0,0,1,16.89-1.92,17.35,17.35,0,0,1,6.5,1.89,6.7,6.7,0,0,1,3.41,3.7A9.25,9.25,0,0,1,109.2,72,19.78,19.78,0,0,1,104,81a35,35,0,0,1-14.29,9.05A39.3,39.3,0,0,1,80,92.14a18.31,18.31,0,0,1-7.95-1,10.34,10.34,0,0,1-4.38-3c-.21-.25-.49-.52-.88-.29a.75.75,0,0,0-.33,1,9.55,9.55,0,0,0,.76,1.83A10.42,10.42,0,0,0,70.7,94a17,17,0,0,0,8.62,2.37,43.37,43.37,0,0,0,13.59-1.73,33.35,33.35,0,0,0,16.31-9.84c3.69-4.11,6.32-8.75,6.89-14.36a13.9,13.9,0,0,0-1.3-7.91,14.3,14.3,0,0,0-6.24-6.1,26.41,26.41,0,0,0-12.28-3.19H92c-5.19,0-10.2,1.49-15.08,3.26A103.56,103.56,0,0,0,66.12,61.2C58.47,65,51.35,69.63,45.5,76a30.8,30.8,0,0,0-6.8,10.74c-.42,1.2-.81,2.49-1.11,3.73M65.3,126.29a15.82,15.82,0,0,1-5.63,11,12.81,12.81,0,0,1-6.44,3.22,4.73,4.73,0,0,1-2.68-.19,2.74,2.74,0,0,1-1.54-2.8,10.14,10.14,0,0,1,1.51-5.16,18.46,18.46,0,0,1,4.72-5.18,72.34,72.34,0,0,1,9.23-6.22l.24-.1A16.19,16.19,0,0,1,65.3,126.29Zm25-19.29a33.49,33.49,0,0,1-.94,4.21,124.12,124.12,0,0,1-5.26,13.91,24,24,0,0,1-1.37,2.41,1.68,1.68,0,0,1-.28.33c-.58.57-1.12.54-1.41-.21a15.68,15.68,0,0,1-.73-2.7,14.33,14.33,0,0,1-.13-1.89A23.67,23.67,0,0,1,84,110.74a11.52,11.52,0,0,1,3.58-4,6.24,6.24,0,0,1,1.59-.7C90,105.76,90.49,106.15,90.35,107Zm17.09,21.77,6.14-7.17C113.84,124.26,109.31,129.58,107.44,128.77Zm19.62-4.83c-.43.25-.91.43-1.35.66s-.54,0-.55-.35a2.37,2.37,0,0,1,.09-.72,15.44,15.44,0,0,1,4.63-7.45L130,116A6.58,6.58,0,0,1,127.05,123.94Z"/><rect class="cls-2" width="200" height="200"/></g></g></svg>
