<svg xmlns="http://www.w3.org/2000/svg" viewBox="0 0 147.62 293.68"><title>Zasób 21</title><g id="Warstwa_2" data-name="Warstwa 2"><g id="Warstwa_1-2" data-name="Warstwa 1"><path fill="#ef6d3a" d="M142.18,6.78C139.71,3.66,136.7,1,133,0h-4.64a35.37,35.37,0,0,0-5.09,3,126.79,126.79,0,0,0-19,20.07h0A313.59,313.59,0,0,0,85,48.43c-5.11,7.31-10.16,14.65-14.59,22.4-.35.5-.73,1-1.05,1.49a449,449,0,0,0-23.56,43,165.92,165.92,0,0,0-7,16,186.26,186.26,0,0,0-8.7,24.19,139.55,139.55,0,0,0-4.79,19.88c-1.82,6.79-2.31,13.79-3.2,21.06A40.21,40.21,0,0,0,10.64,187a4.1,4.1,0,0,1-.31.3c.4.65.8,1.32,1.22,2,4.44,6.89,8.4,14,10,22.18.59,3.1.07,3.63-3.11,3.32s-6.4-1.42-9.58-2.18c2.54,3.34,6.29,4.89,10,6.79-5.26,1.14-9.54,3.86-13.77,6.95a4.42,4.42,0,0,0,3-.33,36.1,36.1,0,0,1,12-2.22c2.73.06,2.85.22,2,2.7Q11.87,255.39,2.77,284.77C2,287.29,2,290,0,292.29v1.39c3-.49,4.19-2.39,4.9-4.81,2.25-7.75,4.84-15.42,7.19-23.14,3.12-10.25,6.89-20.31,10.39-30.44,2.28-6.59,4.62-13.11,7-19.68C31.65,209.38,34,203,36.09,197h0c.38-1,.65-1.28.89-1.92q8-21.06,16.57-41.9c1.65-4,3.64-7.82,4.82-12h0l.22-.45a14.09,14.09,0,0,0,.93-1.57c4.1-9.48,8.42-18.85,12.74-28.23C75,104.93,78,99,80.84,93c2.24-4.68,4.86-9.22,7.24-13.86Q92.42,71.61,96.75,64q4.71-8.26,9.95-16.2c2-3,3.94-6,5.91-9.07,1.76-2.38,3.47-4.8,5.32-7.11.75-.93,1.1-2.35,2.5-2.66-2.1,3.2-4.2,6.5-6.3,9.58h0c-6.52,9.61-12.24,19.57-17.8,29.68a132,132,0,0,0-6.27,12.07c-.41.64-.88,1.26-1.23,1.94-8.17,16.06-15.93,32.32-23,48.88-1.9,4.43-4.11,8.74-5.59,13.35l-.17.11.05.18-.4,1c-2,4.63-4.1,9.22-6,13.91q-5.1,12.85-9.94,25.8c-1.69,4.51-3.62,8.94-4.89,13.6a20.19,20.19,0,0,0-.87,1.85c-2.64,7.38-5.2,14.8-7.91,22.15-.79,2.15-1,3.64,1.37,5.05,2,1.18,3.07,3.41,4.34,5.35.46.7.65,1.64,1.64,2.19-.31-4.49-2.23-8.09-5.28-11.54,7.57.13,14.61-.41,21.32-3a28.36,28.36,0,0,0,15.89-13.73c-8.58,3.88-9.1,4-13.25,3.44,11.11-4.62,19.14-12,23.79-22.84-5.92,5.65-12.74,9.48-21,10.35-3.47.37-7,.79-10.39-.67,5-.76,9.5-2.77,14-5,14-7,23.9-17.91,31-31.65a162.31,162.31,0,0,0,12.34-29.55c-1.81.69-3.23,1.29-4.68,1.76-2.86.94-2.87.91-4.53.69,8.35-4,14-10.59,18.24-19-2.28,1.15-4.17,2.18-6.12,3.06-3.17,1.44-4.59,1.75-6.23,1.51,14.17-6.28,18.67-19.12,22.49-32.46a49.42,49.42,0,0,1-10.26,3.73c-.72.17-1.55.81-2.19-.2a26.61,26.61,0,0,0,11.09-8.07,106.64,106.64,0,0,0,9.46-14.63c2.64-4.68,5.22-9.38,7.44-14.26,2.64-5.82,5.08-11.73,5.93-18.15a29.32,29.32,0,0,0,1.12-8.79C147.75,19.57,146.88,12.67,142.18,6.78ZM127,37.68l2.34-.33Z"/><path class="cls-1" d="M8.74,212.55l.07,0,0,0Z"/><path class="cls-1" d="M10.17,186.53l-.11,0,.07.06h0l0,0,0-.05Z"/><path class="cls-1" d="M10.15,186.59a.59.59,0,0,0,.19.69,4.1,4.1,0,0,0,.31-.3Z"/><path class="cls-1" d="M8.73,212.55l0,0-.17,0Z"/></g></g></svg>
