<svg xmlns="http://www.w3.org/2000/svg" viewBox="0 0 200 200"><defs><style>.cls-1{fill:#ef6d3a;}.cls-2{fill:none;}</style></defs><title>Zasób 15</title><g id="Warstwa_2" data-name="Warstwa 2"><g id="Warstwa_1-2" data-name="Warstwa 1"><g id="Warstwa_2-2" data-name="Warstwa 2"><g id="Warstwa_1-2-2" data-name="Warstwa 1-2"><path fill="#ef6d3a" d="M139.07,40.39a7.78,7.78,0,0,0-3.91-2.89h-2A15.05,15.05,0,0,0,131,38.78a54,54,0,0,0-8.09,8.54h0a133.47,133.47,0,0,0-8.2,10.79c-2.17,3.11-4.32,6.24-6.21,9.53-.15.21-.31.43-.45.63a191.11,191.11,0,0,0-10,18.3,70.62,70.62,0,0,0-3,6.81,79.28,79.28,0,0,0-3.7,10.3,59.4,59.4,0,0,0-2,8.46,65,65,0,0,0-1.36,9,17.11,17.11,0,0,0-4.88-4l-.13.13.52.85a27.17,27.17,0,0,1,4.26,9.44c.25,1.32,0,1.55-1.32,1.41a31.25,31.25,0,0,1-4.08-.93c1.08,1.42,2.68,2.08,4.26,2.89a15.48,15.48,0,0,0-5.86,3,1.88,1.88,0,0,0,1.28-.14,15.37,15.37,0,0,1,5.11-.94c1.16,0,1.21.09.85,1.15q-4.35,12.29-8.22,24.8c-.33,1.07-.33,2.23-1.18,3.2v.59a2.48,2.48,0,0,0,2.09-2c1-3.3,2.06-6.56,3.06-9.85,1.33-4.36,2.93-8.64,4.42-13,1-2.8,2-5.58,3-8.38s1.92-5.37,2.81-7.92h0c.16-.43.28-.54.38-.82q3.41-9,7.05-17.83a47.19,47.19,0,0,0,2.05-5.11h0l.09-.19a6,6,0,0,0,.4-.67c1.75-4,3.58-8,5.42-12,1.17-2.55,2.44-5.08,3.65-7.63,1-2,2.07-3.92,3.08-5.9q1.85-3.21,3.69-6.44,2-3.52,4.24-6.9c.85-1.28,1.68-2.55,2.52-3.86.75-1,1.48-2,2.26-3,.32-.4.47-1,1.06-1.13-.89,1.36-1.79,2.77-2.68,4.08h0c-2.78,4.09-5.21,8.33-7.58,12.63a56.18,56.18,0,0,0-2.67,5.14c-.17.27-.37.54-.52.83-3.48,6.84-6.78,13.76-9.79,20.8-.81,1.89-1.75,3.72-2.38,5.68l-.07,0,0,.08-.17.43c-.85,2-1.75,3.92-2.55,5.92q-2.17,5.47-4.23,11c-.72,1.92-1.54,3.81-2.08,5.79a8.59,8.59,0,0,0-.37.79c-1.12,3.14-2.21,6.3-3.37,9.43-.34.92-.43,1.55.58,2.15a6.52,6.52,0,0,1,1.85,2.28c.2.3.28.7.7.93a8,8,0,0,0-2.25-4.91,23.6,23.6,0,0,0,9.07-1.28,12.07,12.07,0,0,0,6.76-5.84c-3.65,1.65-3.87,1.7-5.64,1.46a17.93,17.93,0,0,0,10.13-9.72,15,15,0,0,1-8.94,4.41,8.54,8.54,0,0,1-4.42-.29,20.32,20.32,0,0,0,6-2.13A29.64,29.64,0,0,0,118.37,106a69.08,69.08,0,0,0,5.25-12.58c-.77.29-1.37.55-2,.75-1.22.4-1.22.39-1.93.29a16.83,16.83,0,0,0,7.76-8.09c-1,.49-1.77.93-2.6,1.3a4.47,4.47,0,0,1-2.65.64c6-2.67,7.95-8.14,9.57-13.82a21,21,0,0,1-4.37,1.59c-.31.07-.66.34-.93-.09a11.33,11.33,0,0,0,4.72-3.43,45.39,45.39,0,0,0,4-6.23c1.12-2,2.22-4,3.17-6.07a27.55,27.55,0,0,0,2.52-7.73,12.48,12.48,0,0,0,.48-3.74C141.44,45.83,141.07,42.89,139.07,40.39Zm-6.46,13.15,1-.14Z"/><path d="M82.27,128h0Z"/><path d="M82.88,116.89h0l0,0h0v0Z"/><path d="M82.87,116.92a.25.25,0,0,0,.08.29l.13-.13Z"/><path d="M82.27,128Z"/></g></g><rect class="cls-2" width="200" height="200"/></g></g></svg>
