<svg xmlns="http://www.w3.org/2000/svg" viewBox="0 0 200 200"><defs><style>.cls-1{fill:#eb4a4b;}.cls-2{fill:none;}</style></defs><title>Zasób 12</title><g id="Warstwa_2" data-name="Warstwa 2"><g id="Warstwa_1-2" data-name="Warstwa 1"><path fill="#eb4a4b" d="M72.55,71c.89,9.37,1.77,18.69,2.68,28.22,1.47-2.53,2.54-5,4.15-7a20.14,20.14,0,0,1,5.44-4.75,5,5,0,0,1,7.07,2.65c.23.74-.32,1.72-.52,2.6-.66-.35-1.5-.54-1.93-1.07-1.82-2.25-2.92-2.52-4.93-.57a23,23,0,0,0-6.67,13.29c-.16,1,.46,2.1.72,3.15a11.16,11.16,0,0,0,3-1.1,14.52,14.52,0,0,0,5.29-8c.2-.71,1.28-1.16,2-1.73.32.67,1.07,1.45.91,2-1.43,4.91-3,9.8-4.61,14.65-.16.49-1.07.74-1.63,1.1-.23-.65-.7-1.32-.63-1.93a34.57,34.57,0,0,1,.92-4L76.48,112c.41,4.69.84,10,1.34,15.21.39,4,1,5.05,5,5.82a121.25,121.25,0,0,0,14,1.8,61.32,61.32,0,0,0,20.54-1.93c2.51-.67,3.51-2.33,3.69-4.79.16-2.27.53-4.52.79-6.79.5-4.46,1-8.92,1.5-13.56-1.69,1.07-3,2.27-4.58,2.78-1.13.37-2.56-.17-3.86-.31a12.3,12.3,0,0,1,.81-3.54,43.15,43.15,0,0,1,3.42-4.58l-.5-.6a9.24,9.24,0,0,0-2.45,1.51,22.42,22.42,0,0,0-3.18,4.59c-1.34,2.78-2.37,5.71-3.57,8.56-.52,1.23-1,3.12-2.73,2.4s-.56-2.42-.12-3.6c.7-1.87,1.62-3.66,2.25-5-1.77.21-3.57.47-5.38.62-.76.06-1.67-.35-2.3-.07-2.08.94-3.39.56-3.82-1.74a10.31,10.31,0,0,1-2.74,1.7c-1.16.28-2.74.46-3.6-.12-.68-.47-.93-2.22-.7-3.24a35.92,35.92,0,0,1,2.15-5.95c.51-1.2,1-3.12,2.74-2.29s.16,2.22-.24,3.34c-.61,1.73-1.23,3.45-1.84,5.18l1,.59a14,14,0,0,0,2.73-2.45c1.06-1.62,1.71-3.5,2.71-5.16.42-.69,1.32-1.08,2-1.61a9.7,9.7,0,0,1,.36,2.62,14.09,14.09,0,0,1-1,2.48c-.43,1.27-.78,2.56-1.22,4a3.17,3.17,0,0,0,3.55-2.33c1.85-4.87,3.73-9.73,5.77-14.52.35-.82,1.53-1.28,2.33-1.91.09,1,.53,2.11.22,2.94-1.67,4.42-3.55,8.75-5.31,13.13a16.58,16.58,0,0,0-.58,2.34c3.11-1.4,5.7-2.94,6.64-6.24.23-.8,1.18-1.4,1.8-2.09l1.44,1.52a13.55,13.55,0,0,1,1.31-1.09c1.49-1,3.1-1.81,4.67-.32s.4,3-.45,4.37-2.06,2.77-3.1,4.15c2.35-1.51,5.55-2.19,6-5.46,1-8,2-16,2.88-24,.28-2.37.42-4.75.64-7.22A112.77,112.77,0,0,1,72.55,71Zm7.94,62.31c.89,2.35,2.24,4.66,2.6,7.12.75,5.23.94,10.53,1.47,15.79a3.09,3.09,0,0,0,1.19,2.16c9.12,5,18.32,5.81,27.63.39,1.39-.81,1.64-1.88,1.82-3.38.87-7.29-1.07-15,3.59-21.89C105.74,136.76,93,136.87,80.49,133.33Zm31.47-61c4.43-.43,8.8-1.47,13.18-2.33a9.36,9.36,0,0,0,2.33-1.2,5.17,5.17,0,0,0-2.83-1.44c-4.6-.54-9.22-1-13.81-1.53a3.56,3.56,0,0,1-1.88-1.1c1.34-4,1.28-8.62,4.32-12,3.85-4.3,7.73-8.57,11.59-12.84-2.87-3.09-2.91-3.09-5.51-.39-1.47,1.53-2.81,3.2-4.41,4.58-5.9,5.12-10,11.17-10.86,19.16-.19,1.83-1.19,2.49-3.12,2.52-6.35.09-12.71.27-19,.68A91.88,91.88,0,0,0,72.56,68l0,1.17a56.37,56.37,0,0,0,5.86,1.78A117.57,117.57,0,0,0,112,72.33Zm-3.55-2.79c-2.51,2-4.59,2-6.6,0Z"/><rect class="cls-2" width="200" height="200"/></g></g></svg>
