<svg xmlns="http://www.w3.org/2000/svg" viewBox="0 0 91.71 147.75"><title>Zasób 9</title><g id="Warstwa_2" data-name="Warstwa 2"><g id="Warstwa_1-2" data-name="Warstwa 1"><path fill="#a702b1" d="M29.18,49.08a25.9,25.9,0,0,1,15.29,8.86c2.79-1.61,5.58-3.17,8.28-4.86.31-.19.35-1.12.23-1.64a19.67,19.67,0,0,1,15.2-23.91c10.91-2.28,21.27,5,23.26,16.32,1.81,10.31-5.7,20.57-16.27,22.19-6.94,1.07-12.77-1.15-17.72-6.12l-8.87,5.13a25.78,25.78,0,0,1,0,17.66l8.84,5.09A20.11,20.11,0,0,1,67.24,82c8.17-1.86,15,.49,20.24,6.94a19.08,19.08,0,0,1,1.59,21.64c-4.17,7.13-10.57,10.54-18.82,9.84A19.42,19.42,0,0,1,53,96.46,1.72,1.72,0,0,0,52,94.13c-2.51-1.34-4.94-2.81-7.5-4.29a25.71,25.71,0,0,1-15.28,8.81c0,3.21,0,6.41.06,9.6,0,.37.82.87,1.35,1a19.72,19.72,0,0,1,14.09,19.18c-.1,10.34-8.33,18.7-19,19.26-9.77.52-18.77-7.1-20-17A19.46,19.46,0,0,1,19.4,109.4c1.16-.36,1.64-.77,1.59-2-.11-2.85,0-5.7,0-8.67A25.25,25.25,0,0,1,0,72.65c.28-11,7.36-19.16,20.94-23.7,0-3,.06-6.13-.06-9.22,0-.44-.8-1.05-1.35-1.24C12.37,36.06,7.72,31.25,6,23.88A19.57,19.57,0,1,1,30.7,38.38a1.79,1.79,0,0,0-1.55,2.1C29.23,43.33,29.18,46.19,29.18,49.08ZM25.32,60.82A13.06,13.06,0,1,0,38.12,74.13,13.06,13.06,0,0,0,25.32,60.82Zm8.76,67.39a9,9,0,1,0-18-.07,9,9,0,0,0,18,.07Zm0-108.6a9,9,0,1,0-8.94,9A9.05,9.05,0,0,0,34.07,19.62Zm38,36.09a8.85,8.85,0,0,0,9-9.12,9,9,0,1,0-9,9.12Zm.12,36.35A9,9,0,1,0,81,101.13,8.93,8.93,0,0,0,72.2,92.05Z"/></g></g></svg>
